<svg class="main-svg" xmlns="http://www.w3.org/2000/svg" xmlns:xlink="http://www.w3.org/1999/xlink" width="626.364" height="465.455" style="" viewBox="0 0 626.364 465.455"><rect x="0" y="0" width="626.364" height="465.455" style="fill: rgb(255, 255, 255); fill-opacity: 1;"/><defs id="defs-259994"><g class="clips"/><g class="gradients"/><g class="patterns"/></defs><g class="bglayer"/><g class="layer-below"><g class="imagelayer"/><g class="shapelayer"/></g><g class="cartesianlayer"/><g class="polarlayer"/><g class="ternarylayer"/><g class="geolayer"/><g class="funnelarealayer"/><g class="pielayer"/><g class="iciclelayer"/><g class="treemaplayer"/><g class="sunburstlayer"><g class="trace sunburst" stroke-linejoin="round" style="opacity: 1;"><g class="slice"><path class="surface" d="M338,225A0,0 0,1,0 338,225A0,0 0,1,0 338,225ZM404.66666666666663,225A66.66666666666666,66.66666666666666 0,1,1 271.33333333333337,225A66.66666666666666,66.66666666666666 0,1,1 404.66666666666663,225.00000000000003Z" style="pointer-events: all; stroke-width: 1; fill: rgb(0, 0, 0); fill-opacity: 0; stroke: rgb(255, 255, 255); stroke-opacity: 1;"/><g class="slicetext"><text data-notex="1" class="slicetext" text-anchor="middle" x="0" y="0" style="font-family: 'Open Sans', verdana, arial, sans-serif; font-size: 12px; fill: rgb(68, 68, 68); fill-opacity: 1; white-space: pre;" transform="translate(337.9912109375,229.54687547683716)">전체</text></g></g><g class="slice cursor-pointer"><path class="surface" d="M404.66666666666663,225L471.3333333333333,225A133.33333333333331,133.33333333333331 0,0,0 284.3006826330314,102.95836328490446L311.15034131651566,163.97918164245223A66.66666666666666,66.66666666666666 0,0,1 404.66666666666663,225Z" style="pointer-events: all; stroke-width: 1; fill: rgb(8, 48, 107); fill-opacity: 1; stroke: rgb(255, 255, 255); stroke-opacity: 1;"/><g class="slicetext"><text data-notex="1" class="slicetext" text-anchor="middle" x="0" y="0" style="font-family: 'Open Sans', verdana, arial, sans-serif; font-size: 12px; fill: rgb(255, 255, 255); fill-opacity: 1; white-space: pre;" transform="translate(392.6388361793841,145.7988940010946)">공학계열</text></g></g><g class="slice cursor-pointer"><path class="surface" d="M311.15034131651566,163.97918164245223L284.3006826330314,102.95836328490446A133.33333333333331,133.33333333333331 0,0,0 206.30377066861618,245.8298093527842L272.1518853343081,235.4149046763921A66.66666666666666,66.66666666666666 0,0,1 311.15034131651566,163.97918164245223Z" style="pointer-events: all; stroke-width: 1; fill: rgb(8, 81, 156); fill-opacity: 1; stroke: rgb(255, 255, 255); stroke-opacity: 1;"/><g class="slicetext"><text data-notex="1" class="slicetext" text-anchor="middle" x="0" y="0" style="font-family: 'Open Sans', verdana, arial, sans-serif; font-size: 12px; fill: rgb(255, 255, 255); fill-opacity: 1; white-space: pre;" transform="translate(250.21977027693129,181.62992739443442)">사회계열</text></g></g><g class="slice cursor-pointer"><path class="surface" d="M272.1518853343081,235.4149046763921L206.30377066861618,245.8298093527842A133.33333333333331,133.33333333333331 0,0,0 296.17548635890665,351.60366438797803L317.0877431794533,288.301832193989A66.66666666666666,66.66666666666666 0,0,1 272.1518853343081,235.4149046763921Z" style="pointer-events: all; stroke-width: 1; fill: rgb(33, 113, 181); fill-opacity: 1; stroke: rgb(255, 255, 255); stroke-opacity: 1;"/><g class="slicetext"><text data-notex="1" class="slicetext" text-anchor="middle" x="0" y="0" style="font-family: 'Open Sans', verdana, arial, sans-serif; font-size: 12px; fill: rgb(255, 255, 255); fill-opacity: 1; white-space: pre;" transform="translate(261.78463918869204,294.29663297438736)">예체능계열</text></g></g><g class="slice cursor-pointer"><path class="surface" d="M317.0877431794533,288.301832193989L296.17548635890665,351.60366438797803A133.33333333333331,133.33333333333331 0,0,0 406.6238351155934,339.3177459181453L372.31191755779673,282.15887295907265A66.66666666666666,66.66666666666666 0,0,1 317.0877431794533,288.301832193989Z" style="pointer-events: all; stroke-width: 1; fill: rgb(66, 146, 198); fill-opacity: 1; stroke: rgb(255, 255, 255); stroke-opacity: 1;"/><g class="slicetext"><text data-notex="1" class="slicetext" text-anchor="middle" x="0" y="0" style="font-family: 'Open Sans', verdana, arial, sans-serif; font-size: 12px; fill: rgb(68, 68, 68); fill-opacity: 1; white-space: pre;" transform="translate(349.04749999807154,328.9338773607866)">자연계열</text></g></g><g class="slice cursor-pointer"><path class="surface" d="M372.31191755779673,282.15887295907265L406.6238351155934,339.3177459181453A133.33333333333331,133.33333333333331 0,0,0 452.04824028919074,294.0708090637194L395.0241201445954,259.53540453185974A66.66666666666666,66.66666666666666 0,0,1 372.31191755779673,282.15887295907265Z" style="pointer-events: all; stroke-width: 1; fill: rgb(107, 174, 214); fill-opacity: 1; stroke: rgb(255, 255, 255); stroke-opacity: 1;"/><g class="slicetext"><text data-notex="1" class="slicetext" text-anchor="middle" x="0" y="0" style="font-family: 'Open Sans', verdana, arial, sans-serif; font-size: 12px; fill: rgb(68, 68, 68); fill-opacity: 1; white-space: pre;" transform="translate(413.84978053854286,305.70217655941303)">인문계열</text></g></g><g class="slice cursor-pointer"><path class="surface" d="M395.0241201445954,259.53540453185974L452.04824028919074,294.0708090637194A133.33333333333331,133.33333333333331 0,0,0 466.7342701714758,259.7169333495232L402.3671350857379,242.3584666747616A66.66666666666666,66.66666666666666 0,0,1 395.0241201445954,259.53540453185974Z" style="pointer-events: all; stroke-width: 1; fill: rgb(158, 202, 225); fill-opacity: 1; stroke: rgb(255, 255, 255); stroke-opacity: 1;"/><g class="slicetext"><text data-notex="1" class="slicetext" text-anchor="middle" x="0" y="0" style="font-family: 'Open Sans', verdana, arial, sans-serif; font-size: 12px; fill: rgb(68, 68, 68); fill-opacity: 1; white-space: pre;" transform="translate(428.9459132184633,268.8236338315233)rotate(23.14635251472589)">의약계열</text></g></g><g class="slice cursor-pointer"><path class="surface" d="M402.3671350857379,242.3584666747616L466.7342701714758,259.7169333495232A133.33333333333331,133.33333333333331 0,0,0 471.3333333333333,225.00000000000003L404.66666666666663,225.00000000000003A66.66666666666666,66.66666666666666 0,0,1 402.3671350857379,242.3584666747616Z" style="pointer-events: all; stroke-width: 1; fill: rgb(198, 219, 239); fill-opacity: 1; stroke: rgb(255, 255, 255); stroke-opacity: 1;"/><g class="slicetext"><text data-notex="1" class="slicetext" text-anchor="middle" x="0" y="0" style="font-family: 'Open Sans', verdana, arial, sans-serif; font-size: 12px; fill: rgb(68, 68, 68); fill-opacity: 1; white-space: pre;" transform="translate(438.48218378889277,242.89779501223933)rotate(7.5462165835976975)">교육계열</text></g></g><g class="slice"><path class="surface" d="M471.3333333333333,225L538,225A200,200 0,0,0 518.5793128233443,139.0284245796973L458.3862085488961,167.68561638646486A133.33333333333331,133.33333333333331 0,0,1 471.3333333333333,225Z" style="pointer-events: all; stroke-width: 1; fill: rgb(8, 48, 107); fill-opacity: 1; stroke: rgb(255, 255, 255); stroke-opacity: 1; opacity: 0.7;"/><g class="slicetext"><text data-notex="1" class="slicetext" text-anchor="middle" x="0" y="0" style="font-family: 'Open Sans', verdana, arial, sans-serif; font-size: 12px; fill: rgb(255, 255, 255); fill-opacity: 1; white-space: pre;" transform="translate(516.6662104366252,184.6319938025753)rotate(77.27072949705484)">컴퓨터ㆍ통신</text></g></g><g class="slice"><path class="surface" d="M458.3862085488961,167.68561638646486L518.5793128233443,139.0284245796973A200,200 0,0,0 472.37176715244743,76.86415628778951L427.5811781016316,126.24277085852636A133.33333333333331,133.33333333333331 0,0,1 458.3862085488961,167.68561638646486Z" style="pointer-events: all; stroke-width: 1; fill: rgb(8, 48, 107); fill-opacity: 1; stroke: rgb(255, 255, 255); stroke-opacity: 1; opacity: 0.7;"/><g class="slicetext"><text data-notex="1" class="slicetext" text-anchor="middle" x="0" y="0" style="font-family: 'Open Sans', verdana, arial, sans-serif; font-size: 12px; fill: rgb(255, 255, 255); fill-opacity: 1; white-space: pre;" transform="translate(472.465326906317,129.59057033031718)">기계ㆍ금속</text></g></g><g class="slice"><path class="surface" d="M427.5811781016316,126.24277085852636L472.37176715244743,76.86415628778951A200,200 0,0,0 430.97275025022,47.92355404822973L399.98183350014665,106.94903603215317A133.33333333333331,133.33333333333331 0,0,1 427.5811781016316,126.24277085852636Z" style="pointer-events: all; stroke-width: 1; fill: rgb(8, 48, 107); fill-opacity: 1; stroke: rgb(255, 255, 255); stroke-opacity: 1; opacity: 0.7;"/><g class="slicetext"><text data-notex="1" class="slicetext" text-anchor="middle" x="0" y="0" style="font-family: 'Open Sans', verdana, arial, sans-serif; font-size: 12px; fill: rgb(255, 255, 255); fill-opacity: 1; white-space: pre;" transform="translate(437.166505635132,91.08000877779072)rotate(-55.04395106479387)">전기ㆍ전자</text></g></g><g class="slice"><path class="surface" d="M399.98183350014665,106.94903603215317L430.97275025022,47.92355404822973A200,200 0,0,0 393.913034760189,32.97465650621558L375.27535650679266,96.98310433747707A133.33333333333331,133.33333333333331 0,0,1 399.98183350014665,106.94903603215317Z" style="pointer-events: all; stroke-width: 1; fill: rgb(8, 48, 107); fill-opacity: 1; stroke: rgb(255, 255, 255); stroke-opacity: 1; opacity: 0.7;"/><g class="slicetext"><text data-notex="1" class="slicetext" text-anchor="middle" x="0" y="0" style="font-family: 'Open Sans', verdana, arial, sans-serif; font-size: 12px; fill: rgb(255, 255, 255); fill-opacity: 1; white-space: pre;" transform="translate(406.0128452692267,60.91488048083258)">기타</text></g></g><g class="slice"><path class="surface" d="M375.27535650679266,96.98310433747707L393.913034760189,32.97465650621558A200,200 0,0,0 365.27379612349097,26.868376968707366L356.18253074899394,92.9122513124716A133.33333333333331,133.33333333333331 0,0,1 375.27535650679266,96.98310433747707Z" style="pointer-events: all; stroke-width: 1; fill: rgb(8, 48, 107); fill-opacity: 1; stroke: rgb(255, 255, 255); stroke-opacity: 1; opacity: 0.7;"/><g class="slicetext"><text data-notex="1" class="slicetext" text-anchor="middle" x="0" y="0" style="font-family: 'Open Sans', verdana, arial, sans-serif; font-size: 12px; fill: rgb(255, 255, 255); fill-opacity: 1; white-space: pre;" transform="translate(380.0176413168637,49.73661613443664)rotate(-77.96397825101951)">건축</text></g></g><g class="slice"><path class="surface" d="M356.18253074899394,92.9122513124716L365.27379612349097,26.868376968707366A200,200 0,0,0 341.9569812996076,25.03914808394481L340.63798753307174,91.69276538929657A133.33333333333331,133.33333333333331 0,0,1 356.18253074899394,92.9122513124716Z" style="pointer-events: all; stroke-width: 1; fill: rgb(8, 48, 107); fill-opacity: 1; stroke: rgb(255, 255, 255); stroke-opacity: 1; opacity: 0.7;"/><g class="slicetext"><text data-notex="1" class="slicetext" text-anchor="middle" x="0" y="0" style="font-family: 'Open Sans', verdana, arial, sans-serif; font-size: 12px; fill: rgb(255, 255, 255); fill-opacity: 1; white-space: pre;" transform="translate(355.61500279525916,58.60127418125774)rotate(-85.51427276846402)">소재ㆍ재료</text></g></g><g class="slice"><path class="surface" d="M340.63798753307174,91.69276538929657L341.9569812996076,25.03914808394481A200,200 0,0,0 319.1244863235429,25.89270484623151L325.4163242156953,92.26180323082104A133.33333333333331,133.33333333333331 0,0,1 340.63798753307174,91.69276538929657Z" style="pointer-events: all; stroke-width: 1; fill: rgb(8, 48, 107); fill-opacity: 1; stroke: rgb(255, 255, 255); stroke-opacity: 1; opacity: 0.7;"/><g class="slicetext"><text data-notex="1" class="slicetext" text-anchor="middle" x="0" y="0" style="font-family: 'Open Sans', verdana, arial, sans-serif; font-size: 12px; fill: rgb(255, 255, 255); fill-opacity: 1; white-space: pre;" transform="translate(327.18772332122126,57.48656647257154)rotate(87.85908473040331)">교통ㆍ운송</text></g></g><g class="slice"><path class="surface" d="M325.4163242156953,92.26180323082104L319.1244863235429,25.89270484623151A200,200 0,0,0 298.1690357260342,29.00639223432296L311.44602381735615,94.33759482288198A133.33333333333331,133.33333333333331 0,0,1 325.4163242156953,92.26180323082104Z" style="pointer-events: all; stroke-width: 1; fill: rgb(8, 48, 107); fill-opacity: 1; stroke: rgb(255, 255, 255); stroke-opacity: 1; opacity: 0.7;"/><g class="slicetext"><text data-notex="1" class="slicetext" text-anchor="middle" x="0" y="0" style="font-family: 'Open Sans', verdana, arial, sans-serif; font-size: 12px; fill: rgb(255, 255, 255); fill-opacity: 1; white-space: pre;" transform="translate(308.670318933607,58.05744951443573)scale(0.9842400715240575)rotate(81.54848210240141)">토목ㆍ도시</text></g></g><g class="slice"><path class="surface" d="M311.44602381735615,94.33759482288198L298.1690357260342,29.00639223432296A200,200 0,0,0 282.93486652654224,32.72979670383066L301.2899110176948,96.81986446922048A133.33333333333331,133.33333333333331 0,0,1 311.44602381735615,94.33759482288198Z" style="pointer-events: all; stroke-width: 1; fill: rgb(8, 48, 107); fill-opacity: 1; stroke: rgb(255, 255, 255); stroke-opacity: 1; opacity: 0.7;"/><g class="slicetext"><text data-notex="1" class="slicetext" text-anchor="middle" x="0" y="0" style="font-family: 'Open Sans', verdana, arial, sans-serif; font-size: 12px; fill: rgb(255, 255, 255); fill-opacity: 1; white-space: pre;" transform="translate(289.1687388414385,42.96102318289753)scale(0.9269658246555467)rotate(76.26551880380612)">화공</text></g></g><g class="slice"><path class="surface" d="M301.2899110176948,96.81986446922048L282.93486652654224,32.72979670383066A200,200 0,0,0 269.0938649768496,37.24498793328749L292.0625766512331,99.829991955525A133.33333333333331,133.33333333333331 0,0,1 301.2899110176948,96.81986446922048Z" style="pointer-events: all; stroke-width: 1; fill: rgb(8, 48, 107); fill-opacity: 1; stroke: rgb(255, 255, 255); stroke-opacity: 1; opacity: 0.7;"/><g class="slicetext"><text data-notex="1" class="slicetext" text-anchor="middle" x="0" y="0" style="font-family: 'Open Sans', verdana, arial, sans-serif; font-size: 12px; fill: rgb(255, 255, 255); fill-opacity: 1; white-space: pre;" transform="translate(281.12639893453655,61.131288828607204)scale(0.7143649452914086)rotate(71.93271409152692)">정밀ㆍ에너지</text></g></g><g class="slice"><path class="surface" d="M292.0625766512331,99.829991955525L269.0938649768496,37.24498793328749A200,200 0,0,0 257.45102394954705,41.9375449273567L284.3006826330314,102.95836328490448A133.33333333333331,133.33333333333331 0,0,1 292.0625766512331,99.829991955525Z" style="pointer-events: all; stroke-width: 1; fill: rgb(8, 48, 107); fill-opacity: 1; stroke: rgb(255, 255, 255); stroke-opacity: 1; opacity: 0.7;"/><g class="slicetext"><text data-notex="1" class="slicetext" text-anchor="middle" x="0" y="0" style="font-family: 'Open Sans', verdana, arial, sans-serif; font-size: 12px; fill: rgb(255, 255, 255); fill-opacity: 1; white-space: pre;" transform="translate(263.5703908569898,49.566219964500036)scale(0.7593149824516753)rotate(68.04848210240141)">산업</text></g></g><g class="slice"><path class="surface" d="M284.3006826330314,102.95836328490446L257.45102394954705,41.93754492735667A200,200 0,0,0 150.61050723204585,155.1059516112505L213.07367148803058,178.40396774083368A133.33333333333331,133.33333333333331 0,0,1 284.3006826330314,102.95836328490446Z" style="pointer-events: all; stroke-width: 1; fill: rgb(8, 81, 156); fill-opacity: 1; stroke: rgb(255, 255, 255); stroke-opacity: 1; opacity: 0.7;"/><g class="slicetext"><text data-notex="1" class="slicetext" text-anchor="middle" x="0" y="0" style="font-family: 'Open Sans', verdana, arial, sans-serif; font-size: 12px; fill: rgb(255, 255, 255); fill-opacity: 1; white-space: pre;" transform="translate(216.80074657805068,115.1326907381302)">경영ㆍ경제</text></g></g><g class="slice"><path class="surface" d="M213.07367148803058,178.40396774083368L150.61050723204585,155.1059516112505A200,200 0,0,0 139.01483157805308,245.12219540928416L205.3432210520354,238.41479693952277A133.33333333333331,133.33333333333331 0,0,1 213.07367148803058,178.40396774083368Z" style="pointer-events: all; stroke-width: 1; fill: rgb(8, 81, 156); fill-opacity: 1; stroke: rgb(255, 255, 255); stroke-opacity: 1; opacity: 0.7;"/><g class="slicetext"><text data-notex="1" class="slicetext" text-anchor="middle" x="0" y="0" style="font-family: 'Open Sans', verdana, arial, sans-serif; font-size: 12px; fill: rgb(255, 255, 255); fill-opacity: 1; white-space: pre;" transform="translate(172.69119901065,208.2532232419488)">사회과학</text></g></g><g class="slice"><path class="surface" d="M205.3432210520354,238.41479693952277L139.01483157805308,245.12219540928416A200,200 0,0,0 140.45565600292426,256.2447140291763L206.30377066861618,245.8298093527842A133.33333333333331,133.33333333333331 0,0,1 205.3432210520354,238.41479693952277Z" style="pointer-events: all; stroke-width: 1; fill: rgb(8, 81, 156); fill-opacity: 1; stroke: rgb(255, 255, 255); stroke-opacity: 1; opacity: 0.7;"/><g class="slicetext"><text data-notex="1" class="slicetext" text-anchor="middle" x="0" y="0" style="font-family: 'Open Sans', verdana, arial, sans-serif; font-size: 12px; fill: rgb(255, 255, 255); fill-opacity: 1; white-space: pre;" transform="translate(148.51859031875986,252.68746933070503)scale(0.6852586514908573)rotate(-7.381060262800247)">법률</text></g></g><g class="slice"><path class="surface" d="M206.30377066861618,245.8298093527842L140.45565600292426,256.2447140291763A200,200 0,0,0 161.69045315724713,319.41897951208296L220.46030210483144,287.9459863413886A133.33333333333331,133.33333333333331 0,0,1 206.30377066861618,245.8298093527842Z" style="pointer-events: all; stroke-width: 1; fill: rgb(33, 113, 181); fill-opacity: 1; stroke: rgb(255, 255, 255); stroke-opacity: 1; opacity: 0.7;"/><g class="slicetext"><text data-notex="1" class="slicetext" text-anchor="middle" x="0" y="0" style="font-family: 'Open Sans', verdana, arial, sans-serif; font-size: 12px; fill: rgb(255, 255, 255); fill-opacity: 1; white-space: pre;" transform="translate(175.49091427518425,284.1684794602251)">디자인</text></g></g><g class="slice"><path class="surface" d="M220.46030210483144,287.9459863413886L161.69045315724713,319.41897951208296A200,200 0,0,0 193.84778045495958,363.6367108677873L241.89852030330638,317.4244739118582A133.33333333333331,133.33333333333331 0,0,1 220.46030210483144,287.9459863413886Z" style="pointer-events: all; stroke-width: 1; fill: rgb(33, 113, 181); fill-opacity: 1; stroke: rgb(255, 255, 255); stroke-opacity: 1; opacity: 0.7;"/><g class="slicetext"><text data-notex="1" class="slicetext" text-anchor="middle" x="0" y="0" style="font-family: 'Open Sans', verdana, arial, sans-serif; font-size: 12px; fill: rgb(255, 255, 255); fill-opacity: 1; white-space: pre;" transform="translate(205.97918266503748,326.63422364819775)rotate(-36.026506570004585)">응용예술</text></g></g><g class="slice"><path class="surface" d="M241.89852030330638,317.4244739118582L193.84778045495958,363.6367108677873A200,200 0,0,0 235.8586430296862,396.95099068124887L269.9057620197908,339.6339937874992A133.33333333333331,133.33333333333331 0,0,1 241.89852030330638,317.4244739118582Z" style="pointer-events: all; stroke-width: 1; fill: rgb(33, 113, 181); fill-opacity: 1; stroke: rgb(255, 255, 255); stroke-opacity: 1; opacity: 0.7;"/><g class="slicetext"><text data-notex="1" class="slicetext" text-anchor="middle" x="0" y="0" style="font-family: 'Open Sans', verdana, arial, sans-serif; font-size: 12px; fill: rgb(255, 255, 255); fill-opacity: 1; white-space: pre;" transform="translate(238.0508404717052,358.35839851157164)rotate(-51.58586316266428)">무용ㆍ체육</text></g></g><g class="slice"><path class="surface" d="M269.9057620197908,339.6339937874992L235.8586430296862,396.95099068124887A200,200 0,0,0 252.58148120056606,405.84157886423895L281.05432080037735,345.5610525761593A133.33333333333331,133.33333333333331 0,0,1 269.9057620197908,339.6339937874992Z" style="pointer-events: all; stroke-width: 1; fill: rgb(33, 113, 181); fill-opacity: 1; stroke: rgb(255, 255, 255); stroke-opacity: 1; opacity: 0.7;"/><g class="slicetext"><text data-notex="1" class="slicetext" text-anchor="middle" x="0" y="0" style="font-family: 'Open Sans', verdana, arial, sans-serif; font-size: 12px; fill: rgb(255, 255, 255); fill-opacity: 1; white-space: pre;" transform="translate(254.55030445542337,391.65154397059916)rotate(-62.0029451744449)">음악</text></g></g><g class="slice"><path class="surface" d="M281.05432080037735,345.5610525761593L252.58148120056606,405.84157886423895A200,200 0,0,0 264.10781732094705,410.84925434051513L288.73854488063137,348.8995028936767A133.33333333333331,133.33333333333331 0,0,1 281.05432080037735,345.5610525761593Z" style="pointer-events: all; stroke-width: 1; fill: rgb(33, 113, 181); fill-opacity: 1; stroke: rgb(255, 255, 255); stroke-opacity: 1; opacity: 0.7;"/><g class="slicetext"><text data-notex="1" class="slicetext" text-anchor="middle" x="0" y="0" style="font-family: 'Open Sans', verdana, arial, sans-serif; font-size: 12px; fill: rgb(255, 255, 255); fill-opacity: 1; white-space: pre;" transform="translate(269.3135478627209,390.6993896685199)scale(0.6661672191225193)rotate(-66.51721794290893)">미술ㆍ조형</text></g></g><g class="slice"><path class="surface" d="M288.73854488063137,348.8995028936767L264.10781732094705,410.84925434051513A200,200 0,0,0 275.2632295383598,414.905496581967L296.17548635890654,351.603664387978A133.33333333333331,133.33333333333331 0,0,1 288.73854488063137,348.8995028936767Z" style="pointer-events: all; stroke-width: 1; fill: rgb(33, 113, 181); fill-opacity: 1; stroke: rgb(255, 255, 255); stroke-opacity: 1; opacity: 0.7;"/><g class="slicetext"><text data-notex="1" class="slicetext" text-anchor="middle" x="0" y="0" style="font-family: 'Open Sans', verdana, arial, sans-serif; font-size: 12px; fill: rgb(255, 255, 255); fill-opacity: 1; white-space: pre;" transform="translate(279.117696646291,395.4059512865278)scale(0.6364762514285505)rotate(-70.01812415043037)">연극ㆍ영화</text></g></g><g class="slice"><path class="surface" d="M296.17548635890665,351.60366438797803L275.26322953835995,414.905496581967A200,200 0,0,0 348.2729123875487,424.73599392968146L344.84860825836574,358.1573292864543A133.33333333333331,133.33333333333331 0,0,1 296.17548635890665,351.60366438797803Z" style="pointer-events: all; stroke-width: 1; fill: rgb(66, 146, 198); fill-opacity: 1; stroke: rgb(255, 255, 255); stroke-opacity: 1; opacity: 0.7;"/><g class="slicetext"><text data-notex="1" class="slicetext" text-anchor="middle" x="0" y="0" style="font-family: 'Open Sans', verdana, arial, sans-serif; font-size: 12px; fill: rgb(68, 68, 68); fill-opacity: 1; white-space: pre;" transform="translate(311.98908900833214,418.13748787895)scale(0.7058428459064674)rotate(7.668554599003187)">생물ㆍ화학ㆍ환경</text></g></g><g class="slice"><path class="surface" d="M344.84860825836574,358.1573292864543L348.2729123875487,424.73599392968146A200,200 0,0,0 404.95142897057747,413.46088761012913L382.63428598038496,350.64059174008605A133.33333333333331,133.33333333333331 0,0,1 344.84860825836574,358.1573292864543Z" style="pointer-events: all; stroke-width: 1; fill: rgb(66, 146, 198); fill-opacity: 1; stroke: rgb(255, 255, 255); stroke-opacity: 1; opacity: 0.7;"/><g class="slicetext"><text data-notex="1" class="slicetext" text-anchor="middle" x="0" y="0" style="font-family: 'Open Sans', verdana, arial, sans-serif; font-size: 12px; fill: rgb(68, 68, 68); fill-opacity: 1; white-space: pre;" transform="translate(372.0876695150579,400.9413920212115)">생활과학</text></g></g><g class="slice"><path class="surface" d="M382.63428598038496,350.64059174008605L404.95142897057747,413.46088761012913A200,200 0,0,0 421.6123534875694,406.6837206363568L393.74156899171294,346.12248042423784A133.33333333333331,133.33333333333331 0,0,1 382.63428598038496,350.64059174008605Z" style="pointer-events: all; stroke-width: 1; fill: rgb(66, 146, 198); fill-opacity: 1; stroke: rgb(255, 255, 255); stroke-opacity: 1; opacity: 0.7;"/><g class="slicetext"><text data-notex="1" class="slicetext" text-anchor="middle" x="0" y="0" style="font-family: 'Open Sans', verdana, arial, sans-serif; font-size: 12px; fill: rgb(68, 68, 68); fill-opacity: 1; white-space: pre;" transform="translate(398.72812381473517,380.2029797237646)scale(0.4897104536023633)rotate(67.86497507929312)">수학ㆍ물리ㆍ천문ㆍ지리</text></g></g><g class="slice"><path class="surface" d="M393.74156899171294,346.12248042423784L421.6123534875694,406.6837206363568A200,200 0,0,0 435.8391093066243,399.43482648280536L403.22607287108286,341.2898843218702A133.33333333333331,133.33333333333331 0,0,1 393.74156899171294,346.12248042423784Z" style="pointer-events: all; stroke-width: 1; fill: rgb(66, 146, 198); fill-opacity: 1; stroke: rgb(255, 255, 255); stroke-opacity: 1; opacity: 0.7;"/><g class="slicetext"><text data-notex="1" class="slicetext" text-anchor="middle" x="0" y="0" style="font-family: 'Open Sans', verdana, arial, sans-serif; font-size: 12px; fill: rgb(68, 68, 68); fill-opacity: 1; white-space: pre;" transform="translate(414.25114073078674,382.6813432359445)scale(0.8017743098363481)rotate(63)">농림ㆍ수산</text></g></g><g class="slice"><path class="surface" d="M403.22607287108286,341.2898843218702L435.8391093066243,399.43482648280536A200,200 0,0,0 440.93575267338997,396.476618877218L406.6238351155933,339.3177459181453A133.33333333333331,133.33333333333331 0,0,1 403.22607287108286,341.2898843218702Z" style="pointer-events: all; stroke-width: 1; fill: rgb(66, 146, 198); fill-opacity: 1; stroke: rgb(255, 255, 255); stroke-opacity: 1; opacity: 0.7;"/><g class="slicetext"><text data-notex="1" class="slicetext" text-anchor="middle" x="0" y="0" style="font-family: 'Open Sans', verdana, arial, sans-serif; font-size: 12px; fill: rgb(68, 68, 68); fill-opacity: 1; white-space: pre;" transform="translate(426.0607706509549,379.4917463908011)scale(0.3061943546970113)rotate(59.86814680561855)">수학ㆍ물리 ㆍ 천문ㆍ지리</text></g></g><g class="slice"><path class="surface" d="M406.6238351155934,339.3177459181453L440.93575267339014,396.47661887721796A200,200 0,0,0 486.25055397089204,359.2451982281811L436.83370264726136,314.4967988187874A133.33333333333331,133.33333333333331 0,0,1 406.6238351155934,339.3177459181453Z" style="pointer-events: all; stroke-width: 1; fill: rgb(107, 174, 214); fill-opacity: 1; stroke: rgb(255, 255, 255); stroke-opacity: 1; opacity: 0.7;"/><g class="slicetext"><text data-notex="1" class="slicetext" text-anchor="middle" x="0" y="0" style="font-family: 'Open Sans', verdana, arial, sans-serif; font-size: 12px; fill: rgb(68, 68, 68); fill-opacity: 1; white-space: pre;" transform="translate(440.23429928863914,356.5929631013764)rotate(50.59288627095606)">언어ㆍ문학</text></g></g><g class="slice"><path class="surface" d="M436.83370264726136,314.4967988187874L486.25055397089204,359.2451982281811A200,200 0,0,0 509.0723604337861,328.60621359557916L452.04824028919074,294.0708090637194A133.33333333333331,133.33333333333331 0,0,1 436.83370264726136,314.4967988187874Z" style="pointer-events: all; stroke-width: 1; fill: rgb(107, 174, 214); fill-opacity: 1; stroke: rgb(255, 255, 255); stroke-opacity: 1; opacity: 0.7;"/><g class="slicetext"><text data-notex="1" class="slicetext" text-anchor="middle" x="0" y="0" style="font-family: 'Open Sans', verdana, arial, sans-serif; font-size: 12px; fill: rgb(68, 68, 68); fill-opacity: 1; white-space: pre;" transform="translate(468.8384125762992,328.1261308791279)rotate(36.68101495242411)">인문과학</text></g></g><g class="slice"><path class="surface" d="M452.04824028919074,294.0708090637194L509.0723604337861,328.60621359557916A200,200 0,0,0 523.9385239286962,298.6672608369395L461.95901595246414,274.1115072246263A133.33333333333331,133.33333333333331 0,0,1 452.04824028919074,294.0708090637194Z" style="pointer-events: all; stroke-width: 1; fill: rgb(158, 202, 225); fill-opacity: 1; stroke: rgb(255, 255, 255); stroke-opacity: 1; opacity: 0.7;"/><g class="slicetext"><text data-notex="1" class="slicetext" text-anchor="middle" x="0" y="0" style="font-family: 'Open Sans', verdana, arial, sans-serif; font-size: 12px; fill: rgb(68, 68, 68); fill-opacity: 1; white-space: pre;" transform="translate(485.1741626022897,303.15577874446683)rotate(26.406660625283223)">치료ㆍ보건</text></g></g><g class="slice"><path class="surface" d="M461.95901595246414,274.1115072246263L523.9385239286962,298.6672608369395A200,200 0,0,0 527.7845859461779,288.1015921925732L464.5230572974519,267.06772812838216A133.33333333333331,133.33333333333331 0,0,1 461.95901595246414,274.1115072246263Z" style="pointer-events: all; stroke-width: 1; fill: rgb(158, 202, 225); fill-opacity: 1; stroke: rgb(255, 255, 255); stroke-opacity: 1; opacity: 0.7;"/><g class="slicetext"><text data-notex="1" class="slicetext" text-anchor="middle" x="0" y="0" style="font-family: 'Open Sans', verdana, arial, sans-serif; font-size: 12px; fill: rgb(68, 68, 68); fill-opacity: 1; white-space: pre;" transform="translate(516.8203578042331,293.41679251340696)scale(0.6868499349455386)rotate(20.002265518803824)">의료</text></g></g><g class="slice"><path class="surface" d="M464.5230572974519,267.06772812838216L527.7845859461779,288.1015921925732A200,200 0,0,0 530.1719197001343,280.40715909307346L466.11461313342284,261.938106062049A133.33333333333331,133.33333333333331 0,0,1 464.5230572974519,267.06772812838216Z" style="pointer-events: all; stroke-width: 1; fill: rgb(158, 202, 225); fill-opacity: 1; stroke: rgb(255, 255, 255); stroke-opacity: 1; opacity: 0.7;"/><g class="slicetext"><text data-notex="1" class="slicetext" text-anchor="middle" x="0" y="0" style="font-family: 'Open Sans', verdana, arial, sans-serif; font-size: 12px; fill: rgb(68, 68, 68); fill-opacity: 1; white-space: pre;" transform="translate(522.3450917001312,284.596945879239)scale(0.5042586990600478)rotate(17.2374263706389)">약학</text></g></g><g class="slice"><path class="surface" d="M466.11461313342284,261.938106062049L530.1719197001343,280.40715909307346A200,200 0,0,0 531.1014052572139,277.0754000242847L466.7342701714758,259.7169333495232A133.33333333333331,133.33333333333331 0,0,1 466.11461313342284,261.938106062049Z" style="pointer-events: all; stroke-width: 1; fill: rgb(158, 202, 225); fill-opacity: 1; stroke: rgb(255, 255, 255); stroke-opacity: 1; opacity: 0.7;"/><g class="slicetext"><text data-notex="1" class="slicetext" text-anchor="middle" x="0" y="0" style="font-family: 'Open Sans', verdana, arial, sans-serif; font-size: 12px; fill: rgb(68, 68, 68); fill-opacity: 1; white-space: pre;" transform="translate(527.6875835584372,278.97825040048036)scale(0.22448842149301299)rotate(15.58790212958769)">간호</text></g></g><g class="slice"><path class="surface" d="M466.7342701714758,259.7169333495232L531.1014052572139,277.0754000242847A200,200 0,0,0 535.6477567489674,255.583725281611L469.7651711659782,245.38915018774065A133.33333333333331,133.33333333333331 0,0,1 466.7342701714758,259.7169333495232Z" style="pointer-events: all; stroke-width: 1; fill: rgb(198, 219, 239); fill-opacity: 1; stroke: rgb(255, 255, 255); stroke-opacity: 1; opacity: 0.7;"/><g class="slicetext"><text data-notex="1" class="slicetext" text-anchor="middle" x="0" y="0" style="font-family: 'Open Sans', verdana, arial, sans-serif; font-size: 12px; fill: rgb(68, 68, 68); fill-opacity: 1; white-space: pre;" transform="translate(506.51440834254953,265.2950551463778)rotate(11.9442682374264)">중등교육</text></g></g><g class="slice"><path class="surface" d="M469.7651711659782,245.38915018774065L535.6477567489674,255.583725281611A200,200 0,0,0 537.1113209168905,243.83299983356443L470.7408806112603,237.55533322237628A133.33333333333331,133.33333333333331 0,0,1 469.7651711659782,245.38915018774065Z" style="pointer-events: all; stroke-width: 1; fill: rgb(198, 219, 239); fill-opacity: 1; stroke: rgb(255, 255, 255); stroke-opacity: 1; opacity: 0.7;"/><g class="slicetext"><text data-notex="1" class="slicetext" text-anchor="middle" x="0" y="0" style="font-family: 'Open Sans', verdana, arial, sans-serif; font-size: 12px; fill: rgb(68, 68, 68); fill-opacity: 1; white-space: pre;" transform="translate(519.7992981164239,250.67300421458674)scale(0.6612225379551893)rotate(7.099682827367474)">유아교육</text></g></g><g class="slice"><path class="surface" d="M470.7408806112603,237.55533322237628L537.1113209168905,243.83299983356443A200,200 0,0,0 537.675886048169,236.38158736199046L471.117257365446,232.58772490799365A133.33333333333331,133.33333333333331 0,0,1 470.7408806112603,237.55533322237628Z" style="pointer-events: all; stroke-width: 1; fill: rgb(198, 219, 239); fill-opacity: 1; stroke: rgb(255, 255, 255); stroke-opacity: 1; opacity: 0.7;"/><g class="slicetext"><text data-notex="1" class="slicetext" text-anchor="middle" x="0" y="0" style="font-family: 'Open Sans', verdana, arial, sans-serif; font-size: 12px; fill: rgb(68, 68, 68); fill-opacity: 1; white-space: pre;" transform="translate(526.292875863902,241.2910534987859)scale(0.4440484228534923)rotate(4.332804712279142)">초등교육</text></g></g><g class="slice"><path class="surface" d="M471.117257365446,232.58772490799365L537.675886048169,236.38158736199046A200,200 0,0,0 537.958276207176,229.0850674724794L471.3055174714507,227.72337831498626A133.33333333333331,133.33333333333331 0,0,1 471.117257365446,232.58772490799365Z" style="pointer-events: all; stroke-width: 1; fill: rgb(198, 219, 239); fill-opacity: 1; stroke: rgb(255, 255, 255); stroke-opacity: 1; opacity: 0.7;"/><g class="slicetext"><text data-notex="1" class="slicetext" text-anchor="middle" x="0" y="0" style="font-family: 'Open Sans', verdana, arial, sans-serif; font-size: 12px; fill: rgb(68, 68, 68); fill-opacity: 1; white-space: pre;" transform="translate(526.9927021764373,234.2937339695787)scale(0.43499131137467584)rotate(2.216357045763459)">특수교육</text></g></g><g class="slice"><path class="surface" d="M471.3055174714507,227.72337831498626L537.958276207176,229.0850674724794A200,200 0,0,0 538,225.00000000000006L471.3333333333333,225.00000000000003A133.33333333333331,133.33333333333331 0,0,1 471.3055174714507,227.72337831498626Z" style="pointer-events: all; stroke-width: 1; fill: rgb(198, 219, 239); fill-opacity: 1; stroke: rgb(255, 255, 255); stroke-opacity: 1; opacity: 0.7;"/><g class="slicetext"><text data-notex="1" class="slicetext" text-anchor="middle" x="0" y="0" style="font-family: 'Open Sans', verdana, arial, sans-serif; font-size: 12px; fill: rgb(68, 68, 68); fill-opacity: 1; white-space: pre;" transform="translate(531.647886198982,228.13952939327157)scale(0.255472312472153)rotate(0.5851835070230891)">교육일반</text></g></g></g></g><g class="glimages"/><defs id="topdefs-259994"><g class="clips"/></defs><g class="layer-above"><g class="imagelayer"/><g class="shapelayer"/></g><g class="infolayer"><g class="g-gtitle"/></g></svg>