<svg class="main-svg" xmlns="http://www.w3.org/2000/svg" xmlns:xlink="http://www.w3.org/1999/xlink" width="626.364" height="465.455" style="" viewBox="0 0 626.364 465.455"><rect x="0" y="0" width="626.364" height="465.455" style="fill: rgb(255, 255, 255); fill-opacity: 1;"/><defs id="defs-8bd8e4"><g class="clips"><clipPath id="clip8bd8e4xyplot" class="plotclip"><rect width="566" height="358"/></clipPath><clipPath class="axesclip" id="clip8bd8e4x"><rect x="35" y="0" width="566" height="465.455"/></clipPath><clipPath class="axesclip" id="clip8bd8e4y"><rect x="0" y="50" width="626.364" height="358"/></clipPath><clipPath class="axesclip" id="clip8bd8e4xy"><rect x="35" y="50" width="566" height="358"/></clipPath></g><g class="gradients"/><g class="patterns"/></defs><g class="bglayer"/><g class="layer-below"><g class="imagelayer"/><g class="shapelayer"/></g><g class="cartesianlayer"><g class="subplot xy"><g class="layer-subplot"><g class="shapelayer"/><g class="imagelayer"/></g><g class="gridlayer"><g class="x"><path class="xgrid crisp" transform="translate(54.81,0)" d="M0,50v358" style="stroke: rgb(238, 238, 238); stroke-opacity: 1; stroke-width: 1px;"/><path class="xgrid crisp" transform="translate(134.05,0)" d="M0,50v358" style="stroke: rgb(238, 238, 238); stroke-opacity: 1; stroke-width: 1px;"/><path class="xgrid crisp" transform="translate(213.29,0)" d="M0,50v358" style="stroke: rgb(238, 238, 238); stroke-opacity: 1; stroke-width: 1px;"/><path class="xgrid crisp" transform="translate(292.53,0)" d="M0,50v358" style="stroke: rgb(238, 238, 238); stroke-opacity: 1; stroke-width: 1px;"/><path class="xgrid crisp" transform="translate(371.77,0)" d="M0,50v358" style="stroke: rgb(238, 238, 238); stroke-opacity: 1; stroke-width: 1px;"/><path class="xgrid crisp" transform="translate(451.01,0)" d="M0,50v358" style="stroke: rgb(238, 238, 238); stroke-opacity: 1; stroke-width: 1px;"/><path class="xgrid crisp" transform="translate(530.25,0)" d="M0,50v358" style="stroke: rgb(238, 238, 238); stroke-opacity: 1; stroke-width: 1px;"/></g><g class="y"><path class="ygrid crisp" transform="translate(0,390.1)" d="M35,0h566" style="stroke: rgb(238, 238, 238); stroke-opacity: 1; stroke-width: 1px;"/><path class="ygrid crisp" transform="translate(0,320.06)" d="M35,0h566" style="stroke: rgb(238, 238, 238); stroke-opacity: 1; stroke-width: 1px;"/><path class="ygrid crisp" transform="translate(0,250.01)" d="M35,0h566" style="stroke: rgb(238, 238, 238); stroke-opacity: 1; stroke-width: 1px;"/><path class="ygrid crisp" transform="translate(0,179.97)" d="M35,0h566" style="stroke: rgb(238, 238, 238); stroke-opacity: 1; stroke-width: 1px;"/><path class="ygrid crisp" transform="translate(0,109.93)" d="M35,0h566" style="stroke: rgb(238, 238, 238); stroke-opacity: 1; stroke-width: 1px;"/></g></g><g class="zerolinelayer"/><path class="xlines-below"/><path class="ylines-below"/><g class="overlines-below"/><g class="xaxislayer-below"/><g class="yaxislayer-below"/><g class="overaxes-below"/><g class="plot" transform="translate(35,50)" clip-path="url(#clip8bd8e4xyplot)"><g class="boxlayer mlayer"><g class="trace boxes" style="opacity: 1;"><path class="box" d="M1.44,258.55H4.22M1.44,259.55H4.22V245.54H1.44ZM2.83,259.55V259.55M2.83,245.54V224.53" style="vector-effect: non-scaling-stroke; stroke-width: 2px; stroke: rgb(0, 0, 255); stroke-opacity: 1; fill: rgb(0, 0, 255); fill-opacity: 0.5; opacity: 1;"/><path class="box" d="M7.1,264.05H9.88M7.1,273.56H9.88V263.05H7.1ZM8.49,273.56V298.07M8.49,263.05V238.54" style="vector-effect: non-scaling-stroke; stroke-width: 2px; stroke: rgb(255, 0, 0); stroke-opacity: 1; fill: rgb(255, 0, 0); fill-opacity: 0.5; opacity: 1;"/><path class="box" d="M29.74,292.07H32.52M29.74,326.09H32.52V291.07H29.74ZM31.13,326.09V340.1M31.13,291.07V280.56" style="vector-effect: non-scaling-stroke; stroke-width: 2px; stroke: rgb(255, 0, 0); stroke-opacity: 1; fill: rgb(255, 0, 0); fill-opacity: 0.5; opacity: 1;"/><path class="box" d="M35.4,278.06H38.18M35.4,280.56H38.18V277.06H35.4ZM36.79,280.56V298.07M36.79,277.06V235.03" style="vector-effect: non-scaling-stroke; stroke-width: 2px; stroke: rgb(255, 0, 0); stroke-opacity: 1; fill: rgb(255, 0, 0); fill-opacity: 0.5; opacity: 1;"/><path class="box" d="M41.06,297.07H43.84M41.06,298.07H43.84V291.07H41.06ZM42.45,298.07V298.07M42.45,291.07V266.55" style="vector-effect: non-scaling-stroke; stroke-width: 2px; stroke: rgb(0, 0, 255); stroke-opacity: 1; fill: rgb(0, 0, 255); fill-opacity: 0.5; opacity: 1;"/><path class="box" d="M46.72,260.55H49.5M46.72,263.05H49.5V259.55H46.72ZM48.11,263.05V277.06M48.11,259.55V252.55" style="vector-effect: non-scaling-stroke; stroke-width: 2px; stroke: rgb(255, 0, 0); stroke-opacity: 1; fill: rgb(255, 0, 0); fill-opacity: 0.5; opacity: 1;"/><path class="box" d="M63.7,250.04H66.48M63.7,277.06H66.48V249.04H63.7ZM65.09,277.06V280.56M65.09,249.04V235.03" style="vector-effect: non-scaling-stroke; stroke-width: 2px; stroke: rgb(255, 0, 0); stroke-opacity: 1; fill: rgb(255, 0, 0); fill-opacity: 0.5; opacity: 1;"/><path class="box" d="M69.36,251.55H72.14M69.36,252.55H72.14V245.54H69.36ZM70.75,252.55V277.06M70.75,245.54V231.53" style="vector-effect: non-scaling-stroke; stroke-width: 2px; stroke: rgb(0, 0, 255); stroke-opacity: 1; fill: rgb(0, 0, 255); fill-opacity: 0.5; opacity: 1;"/><path class="box" d="M75.02,276.06H77.8M75.02,277.06H77.8V245.54H75.02ZM76.41,277.06V280.56M76.41,245.54V238.54" style="vector-effect: non-scaling-stroke; stroke-width: 2px; stroke: rgb(0, 0, 255); stroke-opacity: 1; fill: rgb(0, 0, 255); fill-opacity: 0.5; opacity: 1;"/><path class="box" d="M80.68,288.57H83.46M80.68,298.07H83.46V287.57H80.68ZM82.07,298.07V301.58M82.07,287.57V270.06" style="vector-effect: non-scaling-stroke; stroke-width: 2px; stroke: rgb(255, 0, 0); stroke-opacity: 1; fill: rgb(255, 0, 0); fill-opacity: 0.5; opacity: 1;"/><path class="box" d="M86.34,274.56H89.12M86.34,301.58H89.12V273.56H86.34ZM87.73,301.58V301.58M87.73,273.56V259.55" style="vector-effect: non-scaling-stroke; stroke-width: 2px; stroke: rgb(255, 0, 0); stroke-opacity: 1; fill: rgb(255, 0, 0); fill-opacity: 0.5; opacity: 1;"/><path class="box" d="M103.32,218.52H106.1M103.32,235.03H106.1V217.52H103.32ZM104.71,235.03V245.54M104.71,217.52V217.52" style="vector-effect: non-scaling-stroke; stroke-width: 2px; stroke: rgb(255, 0, 0); stroke-opacity: 1; fill: rgb(255, 0, 0); fill-opacity: 0.5; opacity: 1;"/><path class="box" d="M108.98,211.52H111.76M108.98,235.03H111.76V210.52H108.98ZM110.37,235.03V235.03M110.37,210.52V179" style="vector-effect: non-scaling-stroke; stroke-width: 2px; stroke: rgb(255, 0, 0); stroke-opacity: 1; fill: rgb(255, 0, 0); fill-opacity: 0.5; opacity: 1;"/><path class="box" d="M114.64,151.98H117.42M114.64,200.01H117.42V150.98H114.64ZM116.03,200.01V210.52M116.03,150.98V143.98" style="vector-effect: non-scaling-stroke; stroke-width: 2px; stroke: rgb(255, 0, 0); stroke-opacity: 1; fill: rgb(255, 0, 0); fill-opacity: 0.5; opacity: 1;"/><path class="box" d="M120.3,146.48H123.08M120.3,147.48H123.08V140.48H120.3ZM121.69,147.48V168.49M121.69,140.48V126.47" style="vector-effect: non-scaling-stroke; stroke-width: 2px; stroke: rgb(0, 0, 255); stroke-opacity: 1; fill: rgb(0, 0, 255); fill-opacity: 0.5; opacity: 1;"/><path class="box" d="M125.96,223.53H128.74M125.96,224.53H128.74V168.49H125.96ZM127.35,224.53V228.03M127.35,168.49V157.99" style="vector-effect: non-scaling-stroke; stroke-width: 2px; stroke: rgb(0, 0, 255); stroke-opacity: 1; fill: rgb(0, 0, 255); fill-opacity: 0.5; opacity: 1;"/><path class="box" d="M142.94,151.98H145.72M142.94,196.51H145.72V150.98H142.94ZM144.33,196.51V200.01M144.33,150.98V133.47" style="vector-effect: non-scaling-stroke; stroke-width: 2px; stroke: rgb(255, 0, 0); stroke-opacity: 1; fill: rgb(255, 0, 0); fill-opacity: 0.5; opacity: 1;"/><path class="box" d="M148.6,130.97H151.38M148.6,133.47H151.38V129.97H148.6ZM149.99,133.47V147.48M149.99,129.97V119.46" style="vector-effect: non-scaling-stroke; stroke-width: 2px; stroke: rgb(255, 0, 0); stroke-opacity: 1; fill: rgb(255, 0, 0); fill-opacity: 0.5; opacity: 1;"/><path class="box" d="M154.26,142.98H157.04M154.26,143.98H157.04V140.48H154.26ZM155.65,143.98V154.48M155.65,140.48V129.97" style="vector-effect: non-scaling-stroke; stroke-width: 2px; stroke: rgb(0, 0, 255); stroke-opacity: 1; fill: rgb(0, 0, 255); fill-opacity: 0.5; opacity: 1;"/><path class="box" d="M159.92,158.99H162.7M159.92,179H162.7V157.99H159.92ZM161.31,179V196.51M161.31,157.99V136.97" style="vector-effect: non-scaling-stroke; stroke-width: 2px; stroke: rgb(255, 0, 0); stroke-opacity: 1; fill: rgb(255, 0, 0); fill-opacity: 0.5; opacity: 1;"/><path class="box" d="M165.58,151.98H168.36M165.58,161.49H168.36V150.98H165.58ZM166.97,161.49V186M166.97,150.98V147.48" style="vector-effect: non-scaling-stroke; stroke-width: 2px; stroke: rgb(255, 0, 0); stroke-opacity: 1; fill: rgb(255, 0, 0); fill-opacity: 0.5; opacity: 1;"/><path class="box" d="M182.56,123.97H185.34M182.56,140.48H185.34V122.97H182.56ZM183.95,140.48V150.98M183.95,122.97V119.46" style="vector-effect: non-scaling-stroke; stroke-width: 2px; stroke: rgb(255, 0, 0); stroke-opacity: 1; fill: rgb(255, 0, 0); fill-opacity: 0.5; opacity: 1;"/><path class="box" d="M188.22,67.93H191M188.22,112.46H191V66.93H188.22ZM189.61,112.46V112.46M189.61,66.93V63.43" style="vector-effect: non-scaling-stroke; stroke-width: 2px; stroke: rgb(255, 0, 0); stroke-opacity: 1; fill: rgb(255, 0, 0); fill-opacity: 0.5; opacity: 1;"/><path class="box" d="M193.88,59.93H196.66M193.88,59.93H196.66V59.93H193.88ZM195.27,59.93V84.44M195.27,59.93V52.92" style="vector-effect: non-scaling-stroke; stroke-width: 2px; stroke: rgb(255, 0, 0); stroke-opacity: 1; fill: rgb(255, 0, 0); fill-opacity: 0.5; opacity: 1;"/><path class="box" d="M199.54,114.96H202.32M199.54,115.96H202.32V80.94H199.54ZM200.93,115.96V115.96M200.93,80.94V77.44" style="vector-effect: non-scaling-stroke; stroke-width: 2px; stroke: rgb(0, 0, 255); stroke-opacity: 1; fill: rgb(0, 0, 255); fill-opacity: 0.5; opacity: 1;"/><path class="box" d="M205.2,27.41H207.98M205.2,28.41H207.98V21.4H205.2ZM206.59,28.41V49.42M206.59,21.4V17.9" style="vector-effect: non-scaling-stroke; stroke-width: 2px; stroke: rgb(0, 0, 255); stroke-opacity: 1; fill: rgb(0, 0, 255); fill-opacity: 0.5; opacity: 1;"/><path class="box" d="M222.18,62.43H224.96M222.18,63.43H224.96V28.41H222.18ZM223.57,63.43V70.43M223.57,28.41V28.41" style="vector-effect: non-scaling-stroke; stroke-width: 2px; stroke: rgb(0, 0, 255); stroke-opacity: 1; fill: rgb(0, 0, 255); fill-opacity: 0.5; opacity: 1;"/><path class="box" d="M227.84,46.92H230.62M227.84,52.92H230.62V45.92H227.84ZM229.23,52.92V73.93M229.23,45.92V42.42" style="vector-effect: non-scaling-stroke; stroke-width: 2px; stroke: rgb(255, 0, 0); stroke-opacity: 1; fill: rgb(255, 0, 0); fill-opacity: 0.5; opacity: 1;"/><path class="box" d="M233.5,36.41H236.28M233.5,45.92H236.28V35.41H233.5ZM234.89,45.92V70.43M234.89,35.41V35.41" style="vector-effect: non-scaling-stroke; stroke-width: 2px; stroke: rgb(255, 0, 0); stroke-opacity: 1; fill: rgb(255, 0, 0); fill-opacity: 0.5; opacity: 1;"/><path class="box" d="M239.16,79.94H241.94M239.16,80.94H241.94V59.93H239.16ZM240.55,80.94V84.44M240.55,59.93V59.93" style="vector-effect: non-scaling-stroke; stroke-width: 2px; stroke: rgb(0, 0, 255); stroke-opacity: 1; fill: rgb(0, 0, 255); fill-opacity: 0.5; opacity: 1;"/><path class="box" d="M244.82,66.93H247.6M244.82,66.93H247.6V66.93H244.82ZM246.21,66.93V80.94M246.21,66.93V45.92" style="vector-effect: non-scaling-stroke; stroke-width: 2px; stroke: rgb(255, 0, 0); stroke-opacity: 1; fill: rgb(255, 0, 0); fill-opacity: 0.5; opacity: 1;"/><path class="box" d="M261.8,80.94H264.58M261.8,80.94H264.58V80.94H261.8ZM263.19,80.94V101.95M263.19,80.94V66.93" style="vector-effect: non-scaling-stroke; stroke-width: 2px; stroke: rgb(0, 0, 255); stroke-opacity: 1; fill: rgb(0, 0, 255); fill-opacity: 0.5; opacity: 1;"/><path class="box" d="M267.46,107.96H270.24M267.46,108.96H270.24V98.45H267.46ZM268.85,108.96V119.46M268.85,98.45V87.94" style="vector-effect: non-scaling-stroke; stroke-width: 2px; stroke: rgb(0, 0, 255); stroke-opacity: 1; fill: rgb(0, 0, 255); fill-opacity: 0.5; opacity: 1;"/><path class="box" d="M273.12,93.95H275.9M273.12,94.95H275.9V87.94H273.12ZM274.51,94.95V105.45M274.51,87.94V84.44" style="vector-effect: non-scaling-stroke; stroke-width: 2px; stroke: rgb(0, 0, 255); stroke-opacity: 1; fill: rgb(0, 0, 255); fill-opacity: 0.5; opacity: 1;"/><path class="box" d="M278.78,81.94H281.56M278.78,87.94H281.56V80.94H278.78ZM280.17,87.94V98.45M280.17,80.94V70.43" style="vector-effect: non-scaling-stroke; stroke-width: 2px; stroke: rgb(255, 0, 0); stroke-opacity: 1; fill: rgb(255, 0, 0); fill-opacity: 0.5; opacity: 1;"/><path class="box" d="M284.44,93.95H287.22M284.44,94.95H287.22V80.94H284.44ZM285.83,94.95V101.95M285.83,80.94V70.43" style="vector-effect: non-scaling-stroke; stroke-width: 2px; stroke: rgb(0, 0, 255); stroke-opacity: 1; fill: rgb(0, 0, 255); fill-opacity: 0.5; opacity: 1;"/><path class="box" d="M301.42,125.47H304.2M301.42,126.47H304.2V112.46H301.42ZM302.81,126.47V136.97M302.81,112.46V112.46" style="vector-effect: non-scaling-stroke; stroke-width: 2px; stroke: rgb(0, 0, 255); stroke-opacity: 1; fill: rgb(0, 0, 255); fill-opacity: 0.5; opacity: 1;"/><path class="box" d="M307.08,109.96H309.86M307.08,133.47H309.86V108.96H307.08ZM308.47,133.47V136.97M308.47,108.96V108.96" style="vector-effect: non-scaling-stroke; stroke-width: 2px; stroke: rgb(255, 0, 0); stroke-opacity: 1; fill: rgb(255, 0, 0); fill-opacity: 0.5; opacity: 1;"/><path class="box" d="M312.74,53.92H315.52M312.74,115.96H315.52V52.92H312.74ZM314.13,115.96V122.97M314.13,52.92V52.92" style="vector-effect: non-scaling-stroke; stroke-width: 2px; stroke: rgb(255, 0, 0); stroke-opacity: 1; fill: rgb(255, 0, 0); fill-opacity: 0.5; opacity: 1;"/><path class="box" d="M318.4,37.91H321.18M318.4,38.91H321.18V21.4H318.4ZM319.79,38.91V49.42M319.79,21.4V17.9" style="vector-effect: non-scaling-stroke; stroke-width: 2px; stroke: rgb(0, 0, 255); stroke-opacity: 1; fill: rgb(0, 0, 255); fill-opacity: 0.5; opacity: 1;"/><path class="box" d="M324.06,114.96H326.84M324.06,115.96H326.84V42.42H324.06ZM325.45,115.96V115.96M325.45,42.42V42.42" style="vector-effect: non-scaling-stroke; stroke-width: 2px; stroke: rgb(0, 0, 255); stroke-opacity: 1; fill: rgb(0, 0, 255); fill-opacity: 0.5; opacity: 1;"/><path class="box" d="M341.04,118.46H343.82M341.04,119.46H343.82V98.45H341.04ZM342.43,119.46V129.97M342.43,98.45V91.45" style="vector-effect: non-scaling-stroke; stroke-width: 2px; stroke: rgb(0, 0, 255); stroke-opacity: 1; fill: rgb(0, 0, 255); fill-opacity: 0.5; opacity: 1;"/><path class="box" d="M346.7,156.99H349.48M346.7,157.99H349.48V136.97H346.7ZM348.09,157.99V157.99M348.09,136.97V126.47" style="vector-effect: non-scaling-stroke; stroke-width: 2px; stroke: rgb(0, 0, 255); stroke-opacity: 1; fill: rgb(0, 0, 255); fill-opacity: 0.5; opacity: 1;"/><path class="box" d="M352.36,169.49H355.14M352.36,172H355.14V168.49H352.36ZM353.75,172V182.5M353.75,168.49V143.98" style="vector-effect: non-scaling-stroke; stroke-width: 2px; stroke: rgb(255, 0, 0); stroke-opacity: 1; fill: rgb(255, 0, 0); fill-opacity: 0.5; opacity: 1;"/><path class="box" d="M358.02,158.99H360.8M358.02,175.5H360.8V157.99H358.02ZM359.41,175.5V179M359.41,157.99V157.99" style="vector-effect: non-scaling-stroke; stroke-width: 2px; stroke: rgb(255, 0, 0); stroke-opacity: 1; fill: rgb(255, 0, 0); fill-opacity: 0.5; opacity: 1;"/><path class="box" d="M363.68,116.96H366.46M363.68,154.48H366.46V115.96H363.68ZM365.07,154.48V154.48M365.07,115.96V108.96" style="vector-effect: non-scaling-stroke; stroke-width: 2px; stroke: rgb(255, 0, 0); stroke-opacity: 1; fill: rgb(255, 0, 0); fill-opacity: 0.5; opacity: 1;"/><path class="box" d="M380.66,146.48H383.44M380.66,147.48H383.44V133.47H380.66ZM382.05,147.48V150.98M382.05,133.47V129.97" style="vector-effect: non-scaling-stroke; stroke-width: 2px; stroke: rgb(0, 0, 255); stroke-opacity: 1; fill: rgb(0, 0, 255); fill-opacity: 0.5; opacity: 1;"/><path class="box" d="M386.32,141.48H389.1M386.32,143.98H389.1V140.48H386.32ZM387.71,143.98V150.98M387.71,140.48V119.46" style="vector-effect: non-scaling-stroke; stroke-width: 2px; stroke: rgb(255, 0, 0); stroke-opacity: 1; fill: rgb(255, 0, 0); fill-opacity: 0.5; opacity: 1;"/><path class="box" d="M391.98,113.46H394.76M391.98,136.97H394.76V112.46H391.98ZM393.37,136.97V136.97M393.37,112.46V108.96" style="vector-effect: non-scaling-stroke; stroke-width: 2px; stroke: rgb(255, 0, 0); stroke-opacity: 1; fill: rgb(255, 0, 0); fill-opacity: 0.5; opacity: 1;"/><path class="box" d="M397.64,153.48H400.42M397.64,154.48H400.42V136.97H397.64ZM399.03,154.48V154.48M399.03,136.97V122.97" style="vector-effect: non-scaling-stroke; stroke-width: 2px; stroke: rgb(0, 0, 255); stroke-opacity: 1; fill: rgb(0, 0, 255); fill-opacity: 0.5; opacity: 1;"/><path class="box" d="M403.3,148.48H406.08M403.3,189.51H406.08V147.48H403.3ZM404.69,189.51V189.51M404.69,147.48V147.48" style="vector-effect: non-scaling-stroke; stroke-width: 2px; stroke: rgb(255, 0, 0); stroke-opacity: 1; fill: rgb(255, 0, 0); fill-opacity: 0.5; opacity: 1;"/><path class="box" d="M420.28,147.48H423.06M420.28,147.48H423.06V147.48H420.28ZM421.67,147.48V161.49M421.67,147.48V133.47" style="vector-effect: non-scaling-stroke; stroke-width: 2px; stroke: rgb(255, 0, 0); stroke-opacity: 1; fill: rgb(255, 0, 0); fill-opacity: 0.5; opacity: 1;"/><path class="box" d="M425.94,178H428.72M425.94,179H428.72V164.99H425.94ZM427.33,179V182.5M427.33,164.99V161.49" style="vector-effect: non-scaling-stroke; stroke-width: 2px; stroke: rgb(0, 0, 255); stroke-opacity: 1; fill: rgb(0, 0, 255); fill-opacity: 0.5; opacity: 1;"/><path class="box" d="M431.6,199.01H434.38M431.6,200.01H434.38V175.5H431.6ZM432.99,200.01V200.01M432.99,175.5V161.49" style="vector-effect: non-scaling-stroke; stroke-width: 2px; stroke: rgb(0, 0, 255); stroke-opacity: 1; fill: rgb(0, 0, 255); fill-opacity: 0.5; opacity: 1;"/><path class="box" d="M437.26,162.49H440.04M437.26,196.51H440.04V161.49H437.26ZM438.65,196.51V196.51M438.65,161.49V161.49" style="vector-effect: non-scaling-stroke; stroke-width: 2px; stroke: rgb(255, 0, 0); stroke-opacity: 1; fill: rgb(255, 0, 0); fill-opacity: 0.5; opacity: 1;"/><path class="box" d="M442.92,195.51H445.7M442.92,196.51H445.7V193.01H442.92ZM444.31,196.51V210.52M444.31,193.01V186" style="vector-effect: non-scaling-stroke; stroke-width: 2px; stroke: rgb(0, 0, 255); stroke-opacity: 1; fill: rgb(0, 0, 255); fill-opacity: 0.5; opacity: 1;"/><path class="box" d="M459.9,202.52H462.68M459.9,203.52H462.68V200.01H459.9ZM461.29,203.52V210.52M461.29,200.01V196.51" style="vector-effect: non-scaling-stroke; stroke-width: 2px; stroke: rgb(0, 0, 255); stroke-opacity: 1; fill: rgb(0, 0, 255); fill-opacity: 0.5; opacity: 1;"/><path class="box" d="M465.56,197.51H468.34M465.56,200.01H468.34V196.51H465.56ZM466.95,200.01V203.52M466.95,196.51V186" style="vector-effect: non-scaling-stroke; stroke-width: 2px; stroke: rgb(255, 0, 0); stroke-opacity: 1; fill: rgb(255, 0, 0); fill-opacity: 0.5; opacity: 1;"/><path class="box" d="M471.22,248.04H474M471.22,249.04H474V214.02H471.22ZM472.61,249.04V256.05M472.61,214.02V214.02" style="vector-effect: non-scaling-stroke; stroke-width: 2px; stroke: rgb(0, 0, 255); stroke-opacity: 1; fill: rgb(0, 0, 255); fill-opacity: 0.5; opacity: 1;"/><path class="box" d="M476.88,293.57H479.66M476.88,294.57H479.66V270.06H476.88ZM478.27,294.57V294.57M478.27,270.06V263.05" style="vector-effect: non-scaling-stroke; stroke-width: 2px; stroke: rgb(0, 0, 255); stroke-opacity: 1; fill: rgb(0, 0, 255); fill-opacity: 0.5; opacity: 1;"/><path class="box" d="M499.52,287.57H502.3M499.52,287.57H502.3V287.57H499.52ZM500.91,287.57V298.07M500.91,287.57V266.55" style="vector-effect: non-scaling-stroke; stroke-width: 2px; stroke: rgb(255, 0, 0); stroke-opacity: 1; fill: rgb(255, 0, 0); fill-opacity: 0.5; opacity: 1;"/><path class="box" d="M505.18,291.07H507.96M505.18,291.07H507.96V291.07H505.18ZM506.57,291.07V322.59M506.57,291.07V270.06" style="vector-effect: non-scaling-stroke; stroke-width: 2px; stroke: rgb(0, 0, 255); stroke-opacity: 1; fill: rgb(0, 0, 255); fill-opacity: 0.5; opacity: 1;"/><path class="box" d="M510.84,208.02H513.62M510.84,280.56H513.62V207.02H510.84ZM512.23,280.56V284.07M512.23,207.02V200.01" style="vector-effect: non-scaling-stroke; stroke-width: 2px; stroke: rgb(255, 0, 0); stroke-opacity: 1; fill: rgb(255, 0, 0); fill-opacity: 0.5; opacity: 1;"/><path class="box" d="M516.5,193.01H519.28M516.5,193.01H519.28V193.01H516.5ZM517.89,193.01V214.02M517.89,193.01V172" style="vector-effect: non-scaling-stroke; stroke-width: 2px; stroke: rgb(255, 0, 0); stroke-opacity: 1; fill: rgb(255, 0, 0); fill-opacity: 0.5; opacity: 1;"/><path class="box" d="M522.16,165.99H524.94M522.16,189.51H524.94V164.99H522.16ZM523.55,189.51V203.52M523.55,164.99V150.98" style="vector-effect: non-scaling-stroke; stroke-width: 2px; stroke: rgb(255, 0, 0); stroke-opacity: 1; fill: rgb(255, 0, 0); fill-opacity: 0.5; opacity: 1;"/><path class="box" d="M539.14,106.45H541.92M539.14,140.48H541.92V105.45H539.14ZM540.53,140.48V143.98M540.53,105.45V105.45" style="vector-effect: non-scaling-stroke; stroke-width: 2px; stroke: rgb(255, 0, 0); stroke-opacity: 1; fill: rgb(255, 0, 0); fill-opacity: 0.5; opacity: 1;"/><path class="box" d="M544.8,116.96H547.58M544.8,122.97H547.58V115.96H544.8ZM546.19,122.97V133.47M546.19,115.96V91.45" style="vector-effect: non-scaling-stroke; stroke-width: 2px; stroke: rgb(255, 0, 0); stroke-opacity: 1; fill: rgb(255, 0, 0); fill-opacity: 0.5; opacity: 1;"/><path class="box" d="M550.46,111.46H553.24M550.46,112.46H553.24V94.95H550.46ZM551.85,112.46V119.46M551.85,94.95V87.94" style="vector-effect: non-scaling-stroke; stroke-width: 2px; stroke: rgb(0, 0, 255); stroke-opacity: 1; fill: rgb(0, 0, 255); fill-opacity: 0.5; opacity: 1;"/><path class="box" d="M556.12,111.46H558.9M556.12,112.46H558.9V91.45H556.12ZM557.51,112.46V133.47M557.51,91.45V87.94" style="vector-effect: non-scaling-stroke; stroke-width: 2px; stroke: rgb(0, 0, 255); stroke-opacity: 1; fill: rgb(0, 0, 255); fill-opacity: 0.5; opacity: 1;"/><path class="box" d="M561.78,102.95H564.56M561.78,112.46H564.56V101.95H561.78ZM563.17,112.46V115.96M563.17,101.95V87.94" style="vector-effect: non-scaling-stroke; stroke-width: 2px; stroke: rgb(255, 0, 0); stroke-opacity: 1; fill: rgb(255, 0, 0); fill-opacity: 0.5; opacity: 1;"/></g></g></g><g class="overplot"/><path class="xlines-above crisp" d="M0,0" style="fill: none;"/><path class="ylines-above crisp" d="M0,0" style="fill: none;"/><g class="overlines-above"/><g class="xaxislayer-above"><g class="xtick"><text text-anchor="middle" x="0" y="421" transform="translate(54.81,0)" style="font-family: 'Open Sans', verdana, arial, sans-serif; font-size: 12px; fill: rgb(68, 68, 68); fill-opacity: 1; white-space: pre; opacity: 1;"><tspan class="line" dy="0em" x="0" y="421">Oct 9</tspan><tspan class="line" dy="1.3em" x="0" y="421">2022</tspan></text></g><g class="xtick"><text text-anchor="middle" x="0" y="421" style="font-family: 'Open Sans', verdana, arial, sans-serif; font-size: 12px; fill: rgb(68, 68, 68); fill-opacity: 1; white-space: pre; opacity: 1;" transform="translate(134.05,0)">Oct 23</text></g><g class="xtick"><text text-anchor="middle" x="0" y="421" style="font-family: 'Open Sans', verdana, arial, sans-serif; font-size: 12px; fill: rgb(68, 68, 68); fill-opacity: 1; white-space: pre; opacity: 1;" transform="translate(213.29,0)">Nov 6</text></g><g class="xtick"><text text-anchor="middle" x="0" y="421" style="font-family: 'Open Sans', verdana, arial, sans-serif; font-size: 12px; fill: rgb(68, 68, 68); fill-opacity: 1; white-space: pre; opacity: 1;" transform="translate(292.53,0)">Nov 20</text></g><g class="xtick"><text text-anchor="middle" x="0" y="421" style="font-family: 'Open Sans', verdana, arial, sans-serif; font-size: 12px; fill: rgb(68, 68, 68); fill-opacity: 1; white-space: pre; opacity: 1;" transform="translate(371.77,0)">Dec 4</text></g><g class="xtick"><text text-anchor="middle" x="0" y="421" style="font-family: 'Open Sans', verdana, arial, sans-serif; font-size: 12px; fill: rgb(68, 68, 68); fill-opacity: 1; white-space: pre; opacity: 1;" transform="translate(451.01,0)">Dec 18</text></g><g class="xtick"><text text-anchor="middle" x="0" y="421" style="font-family: 'Open Sans', verdana, arial, sans-serif; font-size: 12px; fill: rgb(68, 68, 68); fill-opacity: 1; white-space: pre; opacity: 1;" transform="translate(530.25,0)"><tspan class="line" dy="0em" x="0" y="421">Jan 1</tspan><tspan class="line" dy="1.3em" x="0" y="421">2023</tspan></text></g></g><g class="yaxislayer-above"><g class="ytick"><text text-anchor="end" x="34" y="4.199999999999999" transform="translate(0,390.1)" style="font-family: 'Open Sans', verdana, arial, sans-serif; font-size: 12px; fill: rgb(68, 68, 68); fill-opacity: 1; white-space: pre; opacity: 1;">54k</text></g><g class="ytick"><text text-anchor="end" x="34" y="4.199999999999999" style="font-family: 'Open Sans', verdana, arial, sans-serif; font-size: 12px; fill: rgb(68, 68, 68); fill-opacity: 1; white-space: pre; opacity: 1;" transform="translate(0,320.06)">56k</text></g><g class="ytick"><text text-anchor="end" x="34" y="4.199999999999999" style="font-family: 'Open Sans', verdana, arial, sans-serif; font-size: 12px; fill: rgb(68, 68, 68); fill-opacity: 1; white-space: pre; opacity: 1;" transform="translate(0,250.01)">58k</text></g><g class="ytick"><text text-anchor="end" x="34" y="4.199999999999999" style="font-family: 'Open Sans', verdana, arial, sans-serif; font-size: 12px; fill: rgb(68, 68, 68); fill-opacity: 1; white-space: pre; opacity: 1;" transform="translate(0,179.97)">60k</text></g><g class="ytick"><text text-anchor="end" x="34" y="4.199999999999999" style="font-family: 'Open Sans', verdana, arial, sans-serif; font-size: 12px; fill: rgb(68, 68, 68); fill-opacity: 1; white-space: pre; opacity: 1;" transform="translate(0,109.93)">62k</text></g></g><g class="overaxes-above"/></g></g><g class="polarlayer"/><g class="ternarylayer"/><g class="geolayer"/><g class="funnelarealayer"/><g class="pielayer"/><g class="iciclelayer"/><g class="treemaplayer"/><g class="sunburstlayer"/><g class="glimages"/><defs id="topdefs-8bd8e4"><g class="clips"/></defs><g class="layer-above"><g class="imagelayer"/><g class="shapelayer"/></g><g class="infolayer"><g class="g-gtitle"><text class="gtitle" x="313.182" y="25" text-anchor="middle" dy="0em" style="font-family: 'Open Sans', verdana, arial, sans-serif; font-size: 17px; fill: rgb(68, 68, 68); opacity: 1; font-weight: normal; white-space: pre;">삼성전자 Candlestick Chart</text></g><g class="g-xtitle"><text class="xtitle" x="318" y="460" text-anchor="middle" style="font-family: 'Open Sans', verdana, arial, sans-serif; font-size: 14px; fill: rgb(68, 68, 68); opacity: 1; font-weight: normal; white-space: pre;">date</text></g><g class="g-ytitle"/></g></svg>