<svg class="main-svg" xmlns="http://www.w3.org/2000/svg" xmlns:xlink="http://www.w3.org/1999/xlink" width="626.364" height="465.455" style="" viewBox="0 0 626.364 465.455"><rect x="0" y="0" width="626.364" height="465.455" style="fill: rgb(255, 255, 255); fill-opacity: 1;"/><defs id="defs-d4d4eb"><g class="clips"><clipPath id="clipd4d4ebxyplot" class="plotclip"><rect width="563" height="256.35999999999996"/></clipPath><clipPath id="clipd4d4ebxy2plot" class="plotclip"><rect width="563" height="67.86"/></clipPath><clipPath class="axesclip" id="clipd4d4ebx"><rect x="38" y="0" width="563" height="465.455"/></clipPath><clipPath class="axesclip" id="clipd4d4eby"><rect x="0" y="68.85000000000002" width="626.364" height="256.35999999999996"/></clipPath><clipPath class="axesclip" id="clipd4d4ebxy"><rect x="38" y="68.85000000000002" width="563" height="256.35999999999996"/></clipPath><clipPath class="axesclip" id="clipd4d4eby2"><rect x="0" y="340.29" width="626.364" height="67.86"/></clipPath><clipPath class="axesclip" id="clipd4d4ebxy2"><rect x="38" y="340.29" width="563" height="67.86"/></clipPath></g><g class="gradients"/><g class="patterns"/></defs><g class="bglayer"/><g class="layer-below"><g class="imagelayer"/><g class="shapelayer"/></g><g class="cartesianlayer"><g class="subplot xy"><g class="layer-subplot"><g class="shapelayer"/><g class="imagelayer"/></g><g class="gridlayer"><g class="x"/><g class="y"><path class="ygrid crisp" transform="translate(0,312.39)" d="M38,0h563" style="stroke: rgb(238, 238, 238); stroke-opacity: 1; stroke-width: 1px;"/><path class="ygrid crisp" transform="translate(0,262.23)" d="M38,0h563" style="stroke: rgb(238, 238, 238); stroke-opacity: 1; stroke-width: 1px;"/><path class="ygrid crisp" transform="translate(0,212.08)" d="M38,0h563" style="stroke: rgb(238, 238, 238); stroke-opacity: 1; stroke-width: 1px;"/><path class="ygrid crisp" transform="translate(0,161.92000000000002)" d="M38,0h563" style="stroke: rgb(238, 238, 238); stroke-opacity: 1; stroke-width: 1px;"/><path class="ygrid crisp" transform="translate(0,111.76000000000002)" d="M38,0h563" style="stroke: rgb(238, 238, 238); stroke-opacity: 1; stroke-width: 1px;"/></g></g><g class="zerolinelayer"/><path class="xlines-below"/><path class="ylines-below"/><g class="overlines-below"/><g class="xaxislayer-below"/><g class="yaxislayer-below"/><g class="overaxes-below"/><g class="plot" transform="translate(38,68.85000000000002)" clip-path="url(#clipd4d4ebxyplot)"><g class="boxlayer mlayer"><g class="trace boxes" style="opacity: 1;"><path class="box" d="M2.05,184.86H5.99M2.05,185.86H5.99V175.83H2.05ZM4.02,185.86V185.86M4.02,175.83V160.78" style="vector-effect: non-scaling-stroke; stroke-width: 2px; stroke: rgb(0, 0, 255); stroke-opacity: 1; fill: rgb(0, 0, 255); fill-opacity: 0.5; opacity: 1;"/><path class="box" d="M10.09,189.37H14.03M10.09,195.89H14.03V188.37H10.09ZM12.059999999999999,195.89V213.45M12.059999999999999,188.37V170.81" style="vector-effect: non-scaling-stroke; stroke-width: 2px; stroke: rgb(255, 0, 0); stroke-opacity: 1; fill: rgb(255, 0, 0); fill-opacity: 0.5; opacity: 1;"/><path class="box" d="M18.14,209.43H22.08M18.14,233.51H22.08V208.43H18.14ZM20.11,233.51V243.54M20.11,208.43V200.91" style="vector-effect: non-scaling-stroke; stroke-width: 2px; stroke: rgb(255, 0, 0); stroke-opacity: 1; fill: rgb(255, 0, 0); fill-opacity: 0.5; opacity: 1;"/><path class="box" d="M26.18,199.4H30.12M26.18,200.91H30.12V198.4H26.18ZM28.15,200.91V213.45M28.15,198.4V168.31" style="vector-effect: non-scaling-stroke; stroke-width: 2px; stroke: rgb(255, 0, 0); stroke-opacity: 1; fill: rgb(255, 0, 0); fill-opacity: 0.5; opacity: 1;"/><path class="box" d="M34.22,212.45H38.16M34.22,213.45H38.16V208.43H34.22ZM36.19,213.45V213.45M36.19,208.43V190.88" style="vector-effect: non-scaling-stroke; stroke-width: 2px; stroke: rgb(0, 0, 255); stroke-opacity: 1; fill: rgb(0, 0, 255); fill-opacity: 0.5; opacity: 1;"/><path class="box" d="M42.27,186.86H46.21M42.27,188.37H46.21V185.86H42.27ZM44.24,188.37V198.4M44.24,185.86V180.85" style="vector-effect: non-scaling-stroke; stroke-width: 2px; stroke: rgb(255, 0, 0); stroke-opacity: 1; fill: rgb(255, 0, 0); fill-opacity: 0.5; opacity: 1;"/><path class="box" d="M50.31,179.34H54.25M50.31,198.4H54.25V178.34H50.31ZM52.28,198.4V200.91M52.28,178.34V168.31" style="vector-effect: non-scaling-stroke; stroke-width: 2px; stroke: rgb(255, 0, 0); stroke-opacity: 1; fill: rgb(255, 0, 0); fill-opacity: 0.5; opacity: 1;"/><path class="box" d="M58.35,179.85H62.29M58.35,180.85H62.29V175.83H58.35ZM60.32,180.85V198.4M60.32,175.83V165.8" style="vector-effect: non-scaling-stroke; stroke-width: 2px; stroke: rgb(0, 0, 255); stroke-opacity: 1; fill: rgb(0, 0, 255); fill-opacity: 0.5; opacity: 1;"/><path class="box" d="M66.39,197.4H70.33M66.39,198.4H70.33V175.83H66.39ZM68.36,198.4V200.91M68.36,175.83V170.81" style="vector-effect: non-scaling-stroke; stroke-width: 2px; stroke: rgb(0, 0, 255); stroke-opacity: 1; fill: rgb(0, 0, 255); fill-opacity: 0.5; opacity: 1;"/><path class="box" d="M74.44,206.92H78.38M74.44,213.45H78.38V205.92H74.44ZM76.41,213.45V215.96M76.41,205.92V193.38" style="vector-effect: non-scaling-stroke; stroke-width: 2px; stroke: rgb(255, 0, 0); stroke-opacity: 1; fill: rgb(255, 0, 0); fill-opacity: 0.5; opacity: 1;"/><path class="box" d="M82.48,196.89H86.42M82.48,215.96H86.42V195.89H82.48ZM84.45,215.96V215.96M84.45,195.89V185.86" style="vector-effect: non-scaling-stroke; stroke-width: 2px; stroke: rgb(255, 0, 0); stroke-opacity: 1; fill: rgb(255, 0, 0); fill-opacity: 0.5; opacity: 1;"/><path class="box" d="M90.52,156.77H94.46M90.52,168.31H94.46V155.77H90.52ZM92.49,168.31V175.83M92.49,155.77V155.77" style="vector-effect: non-scaling-stroke; stroke-width: 2px; stroke: rgb(255, 0, 0); stroke-opacity: 1; fill: rgb(255, 0, 0); fill-opacity: 0.5; opacity: 1;"/><path class="box" d="M98.57,151.75H102.51M98.57,168.31H102.51V150.75H98.57ZM100.53999999999999,168.31V168.31M100.53999999999999,150.75V128.18" style="vector-effect: non-scaling-stroke; stroke-width: 2px; stroke: rgb(255, 0, 0); stroke-opacity: 1; fill: rgb(255, 0, 0); fill-opacity: 0.5; opacity: 1;"/><path class="box" d="M106.61,109.12H110.55M106.61,143.23H110.55V108.12H106.61ZM108.58,143.23V150.75M108.58,108.12V103.1" style="vector-effect: non-scaling-stroke; stroke-width: 2px; stroke: rgb(255, 0, 0); stroke-opacity: 1; fill: rgb(255, 0, 0); fill-opacity: 0.5; opacity: 1;"/><path class="box" d="M114.65,104.61H118.59M114.65,105.61H118.59V100.59H114.65ZM116.62,105.61V120.66M116.62,100.59V90.56" style="vector-effect: non-scaling-stroke; stroke-width: 2px; stroke: rgb(0, 0, 255); stroke-opacity: 1; fill: rgb(0, 0, 255); fill-opacity: 0.5; opacity: 1;"/><path class="box" d="M122.69,159.78H126.63M122.69,160.78H126.63V120.66H122.69ZM124.66,160.78V163.29M124.66,120.66V113.13" style="vector-effect: non-scaling-stroke; stroke-width: 2px; stroke: rgb(0, 0, 255); stroke-opacity: 1; fill: rgb(0, 0, 255); fill-opacity: 0.5; opacity: 1;"/><path class="box" d="M130.74,109.12H134.68M130.74,140.72H134.68V108.12H130.74ZM132.71,140.72V143.23M132.71,108.12V95.58" style="vector-effect: non-scaling-stroke; stroke-width: 2px; stroke: rgb(255, 0, 0); stroke-opacity: 1; fill: rgb(255, 0, 0); fill-opacity: 0.5; opacity: 1;"/><path class="box" d="M138.78,94.07H142.72M138.78,95.58H142.72V93.07H138.78ZM140.75,95.58V105.61M140.75,93.07V85.55" style="vector-effect: non-scaling-stroke; stroke-width: 2px; stroke: rgb(255, 0, 0); stroke-opacity: 1; fill: rgb(255, 0, 0); fill-opacity: 0.5; opacity: 1;"/><path class="box" d="M146.82,102.1H150.76M146.82,103.1H150.76V100.59H146.82ZM148.79,103.1V110.62M148.79,100.59V93.07" style="vector-effect: non-scaling-stroke; stroke-width: 2px; stroke: rgb(0, 0, 255); stroke-opacity: 1; fill: rgb(0, 0, 255); fill-opacity: 0.5; opacity: 1;"/><path class="box" d="M154.87,114.13H158.81M154.87,128.18H158.81V113.13H154.87ZM156.84,128.18V140.72M156.84,113.13V98.09" style="vector-effect: non-scaling-stroke; stroke-width: 2px; stroke: rgb(255, 0, 0); stroke-opacity: 1; fill: rgb(255, 0, 0); fill-opacity: 0.5; opacity: 1;"/><path class="box" d="M162.91,109.12H166.85M162.91,115.64H166.85V108.12H162.91ZM164.88,115.64V133.2M164.88,108.12V105.61" style="vector-effect: non-scaling-stroke; stroke-width: 2px; stroke: rgb(255, 0, 0); stroke-opacity: 1; fill: rgb(255, 0, 0); fill-opacity: 0.5; opacity: 1;"/><path class="box" d="M170.95,89.05H174.89M170.95,100.59H174.89V88.05H170.95ZM172.92,100.59V108.12M172.92,88.05V85.55" style="vector-effect: non-scaling-stroke; stroke-width: 2px; stroke: rgb(255, 0, 0); stroke-opacity: 1; fill: rgb(255, 0, 0); fill-opacity: 0.5; opacity: 1;"/><path class="box" d="M178.99,48.93H182.93M178.99,80.53H182.93V47.93H178.99ZM180.96,80.53V80.53M180.96,47.93V45.42" style="vector-effect: non-scaling-stroke; stroke-width: 2px; stroke: rgb(255, 0, 0); stroke-opacity: 1; fill: rgb(255, 0, 0); fill-opacity: 0.5; opacity: 1;"/><path class="box" d="M187.04,42.91H190.98M187.04,42.91H190.98V42.91H187.04ZM189.01,42.91V60.47M189.01,42.91V37.9" style="vector-effect: non-scaling-stroke; stroke-width: 2px; stroke: rgb(255, 0, 0); stroke-opacity: 1; fill: rgb(255, 0, 0); fill-opacity: 0.5; opacity: 1;"/><path class="box" d="M195.08,82.04H199.02M195.08,83.04H199.02V57.96H195.08ZM197.05,83.04V83.04M197.05,57.96V55.45" style="vector-effect: non-scaling-stroke; stroke-width: 2px; stroke: rgb(0, 0, 255); stroke-opacity: 1; fill: rgb(0, 0, 255); fill-opacity: 0.5; opacity: 1;"/><path class="box" d="M203.12,19.34H207.06M203.12,20.34H207.06V15.33H203.12ZM205.09,20.34V35.39M205.09,15.33V12.82" style="vector-effect: non-scaling-stroke; stroke-width: 2px; stroke: rgb(0, 0, 255); stroke-opacity: 1; fill: rgb(0, 0, 255); fill-opacity: 0.5; opacity: 1;"/><path class="box" d="M211.17,44.42H215.11M211.17,45.42H215.11V20.34H211.17ZM213.14,45.42V50.44M213.14,20.34V20.34" style="vector-effect: non-scaling-stroke; stroke-width: 2px; stroke: rgb(0, 0, 255); stroke-opacity: 1; fill: rgb(0, 0, 255); fill-opacity: 0.5; opacity: 1;"/><path class="box" d="M219.21,33.88H223.15M219.21,37.9H223.15V32.88H219.21ZM221.18,37.9V52.94M221.18,32.88V30.37" style="vector-effect: non-scaling-stroke; stroke-width: 2px; stroke: rgb(255, 0, 0); stroke-opacity: 1; fill: rgb(255, 0, 0); fill-opacity: 0.5; opacity: 1;"/><path class="box" d="M227.25,26.36H231.19M227.25,32.88H231.19V25.36H227.25ZM229.22,32.88V50.44M229.22,25.36V25.36" style="vector-effect: non-scaling-stroke; stroke-width: 2px; stroke: rgb(255, 0, 0); stroke-opacity: 1; fill: rgb(255, 0, 0); fill-opacity: 0.5; opacity: 1;"/><path class="box" d="M235.29,56.96H239.23M235.29,57.96H239.23V42.91H235.29ZM237.26,57.96V60.47M237.26,42.91V42.91" style="vector-effect: non-scaling-stroke; stroke-width: 2px; stroke: rgb(0, 0, 255); stroke-opacity: 1; fill: rgb(0, 0, 255); fill-opacity: 0.5; opacity: 1;"/><path class="box" d="M243.34,47.93H247.28M243.34,47.93H247.28V47.93H243.34ZM245.31,47.93V57.96M245.31,47.93V32.88" style="vector-effect: non-scaling-stroke; stroke-width: 2px; stroke: rgb(255, 0, 0); stroke-opacity: 1; fill: rgb(255, 0, 0); fill-opacity: 0.5; opacity: 1;"/><path class="box" d="M251.38,57.96H255.32M251.38,57.96H255.32V57.96H251.38ZM253.35,57.96V73.01M253.35,57.96V47.93" style="vector-effect: non-scaling-stroke; stroke-width: 2px; stroke: rgb(0, 0, 255); stroke-opacity: 1; fill: rgb(0, 0, 255); fill-opacity: 0.5; opacity: 1;"/><path class="box" d="M259.42,77.02H263.36M259.42,78.02H263.36V70.5H259.42ZM261.39,78.02V85.55M261.39,70.5V62.98" style="vector-effect: non-scaling-stroke; stroke-width: 2px; stroke: rgb(0, 0, 255); stroke-opacity: 1; fill: rgb(0, 0, 255); fill-opacity: 0.5; opacity: 1;"/><path class="box" d="M267.47,66.99H271.41M267.47,67.99H271.41V62.98H267.47ZM269.44000000000005,67.99V75.51M269.44000000000005,62.98V60.47" style="vector-effect: non-scaling-stroke; stroke-width: 2px; stroke: rgb(0, 0, 255); stroke-opacity: 1; fill: rgb(0, 0, 255); fill-opacity: 0.5; opacity: 1;"/><path class="box" d="M275.51,58.96H279.45M275.51,62.98H279.45V57.96H275.51ZM277.48,62.98V70.5M277.48,57.96V50.44" style="vector-effect: non-scaling-stroke; stroke-width: 2px; stroke: rgb(255, 0, 0); stroke-opacity: 1; fill: rgb(255, 0, 0); fill-opacity: 0.5; opacity: 1;"/><path class="box" d="M283.55,66.99H287.49M283.55,67.99H287.49V57.96H283.55ZM285.52,67.99V73.01M285.52,57.96V50.44" style="vector-effect: non-scaling-stroke; stroke-width: 2px; stroke: rgb(0, 0, 255); stroke-opacity: 1; fill: rgb(0, 0, 255); fill-opacity: 0.5; opacity: 1;"/><path class="box" d="M291.59,89.56H295.53M291.59,90.56H295.53V80.53H291.59ZM293.55999999999995,90.56V98.09M293.55999999999995,80.53V80.53" style="vector-effect: non-scaling-stroke; stroke-width: 2px; stroke: rgb(0, 0, 255); stroke-opacity: 1; fill: rgb(0, 0, 255); fill-opacity: 0.5; opacity: 1;"/><path class="box" d="M299.64,79.02H303.58M299.64,95.58H303.58V78.02H299.64ZM301.61,95.58V98.09M301.61,78.02V78.02" style="vector-effect: non-scaling-stroke; stroke-width: 2px; stroke: rgb(255, 0, 0); stroke-opacity: 1; fill: rgb(255, 0, 0); fill-opacity: 0.5; opacity: 1;"/><path class="box" d="M307.68,38.9H311.62M307.68,83.04H311.62V37.9H307.68ZM309.65,83.04V88.05M309.65,37.9V37.9" style="vector-effect: non-scaling-stroke; stroke-width: 2px; stroke: rgb(255, 0, 0); stroke-opacity: 1; fill: rgb(255, 0, 0); fill-opacity: 0.5; opacity: 1;"/><path class="box" d="M315.72,26.87H319.66M315.72,27.87H319.66V15.33H315.72ZM317.69000000000005,27.87V35.39M317.69000000000005,15.33V12.82" style="vector-effect: non-scaling-stroke; stroke-width: 2px; stroke: rgb(0, 0, 255); stroke-opacity: 1; fill: rgb(0, 0, 255); fill-opacity: 0.5; opacity: 1;"/><path class="box" d="M323.77,82.04H327.71M323.77,83.04H327.71V30.37H323.77ZM325.74,83.04V83.04M325.74,30.37V30.37" style="vector-effect: non-scaling-stroke; stroke-width: 2px; stroke: rgb(0, 0, 255); stroke-opacity: 1; fill: rgb(0, 0, 255); fill-opacity: 0.5; opacity: 1;"/><path class="box" d="M331.81,84.55H335.75M331.81,85.55H335.75V70.5H331.81ZM333.78,85.55V93.07M333.78,70.5V65.48" style="vector-effect: non-scaling-stroke; stroke-width: 2px; stroke: rgb(0, 0, 255); stroke-opacity: 1; fill: rgb(0, 0, 255); fill-opacity: 0.5; opacity: 1;"/><path class="box" d="M339.85,112.13H343.79M339.85,113.13H343.79V98.09H339.85ZM341.82000000000005,113.13V113.13M341.82000000000005,98.09V90.56" style="vector-effect: non-scaling-stroke; stroke-width: 2px; stroke: rgb(0, 0, 255); stroke-opacity: 1; fill: rgb(0, 0, 255); fill-opacity: 0.5; opacity: 1;"/><path class="box" d="M347.89,121.66H351.83M347.89,123.16H351.83V120.66H347.89ZM349.86,123.16V130.69M349.86,120.66V103.1" style="vector-effect: non-scaling-stroke; stroke-width: 2px; stroke: rgb(255, 0, 0); stroke-opacity: 1; fill: rgb(255, 0, 0); fill-opacity: 0.5; opacity: 1;"/><path class="box" d="M355.94,114.13H359.88M355.94,125.67H359.88V113.13H355.94ZM357.90999999999997,125.67V128.18M357.90999999999997,113.13V113.13" style="vector-effect: non-scaling-stroke; stroke-width: 2px; stroke: rgb(255, 0, 0); stroke-opacity: 1; fill: rgb(255, 0, 0); fill-opacity: 0.5; opacity: 1;"/><path class="box" d="M363.98,84.04H367.92M363.98,110.62H367.92V83.04H363.98ZM365.95000000000005,110.62V110.62M365.95000000000005,83.04V78.02" style="vector-effect: non-scaling-stroke; stroke-width: 2px; stroke: rgb(255, 0, 0); stroke-opacity: 1; fill: rgb(255, 0, 0); fill-opacity: 0.5; opacity: 1;"/><path class="box" d="M372.02,104.61H375.96M372.02,105.61H375.96V95.58H372.02ZM373.99,105.61V108.12M373.99,95.58V93.07" style="vector-effect: non-scaling-stroke; stroke-width: 2px; stroke: rgb(0, 0, 255); stroke-opacity: 1; fill: rgb(0, 0, 255); fill-opacity: 0.5; opacity: 1;"/><path class="box" d="M380.07,101.59H384.01M380.07,103.1H384.01V100.59H380.07ZM382.03999999999996,103.1V108.12M382.03999999999996,100.59V85.55" style="vector-effect: non-scaling-stroke; stroke-width: 2px; stroke: rgb(255, 0, 0); stroke-opacity: 1; fill: rgb(255, 0, 0); fill-opacity: 0.5; opacity: 1;"/><path class="box" d="M388.11,81.53H392.05M388.11,98.09H392.05V80.53H388.11ZM390.08000000000004,98.09V98.09M390.08000000000004,80.53V78.02" style="vector-effect: non-scaling-stroke; stroke-width: 2px; stroke: rgb(255, 0, 0); stroke-opacity: 1; fill: rgb(255, 0, 0); fill-opacity: 0.5; opacity: 1;"/><path class="box" d="M396.15,109.62H400.09M396.15,110.62H400.09V98.09H396.15ZM398.12,110.62V110.62M398.12,98.09V88.05" style="vector-effect: non-scaling-stroke; stroke-width: 2px; stroke: rgb(0, 0, 255); stroke-opacity: 1; fill: rgb(0, 0, 255); fill-opacity: 0.5; opacity: 1;"/><path class="box" d="M404.19,106.61H408.13M404.19,135.7H408.13V105.61H404.19ZM406.15999999999997,135.7V135.7M406.15999999999997,105.61V105.61" style="vector-effect: non-scaling-stroke; stroke-width: 2px; stroke: rgb(255, 0, 0); stroke-opacity: 1; fill: rgb(255, 0, 0); fill-opacity: 0.5; opacity: 1;"/><path class="box" d="M412.24,105.61H416.18M412.24,105.61H416.18V105.61H412.24ZM414.21000000000004,105.61V115.64M414.21000000000004,105.61V95.58" style="vector-effect: non-scaling-stroke; stroke-width: 2px; stroke: rgb(255, 0, 0); stroke-opacity: 1; fill: rgb(255, 0, 0); fill-opacity: 0.5; opacity: 1;"/><path class="box" d="M420.28,127.18H424.22M420.28,128.18H424.22V118.15H420.28ZM422.25,128.18V130.69M422.25,118.15V115.64" style="vector-effect: non-scaling-stroke; stroke-width: 2px; stroke: rgb(0, 0, 255); stroke-opacity: 1; fill: rgb(0, 0, 255); fill-opacity: 0.5; opacity: 1;"/><path class="box" d="M428.32,142.23H432.26M428.32,143.23H432.26V125.67H428.32ZM430.28999999999996,143.23V143.23M430.28999999999996,125.67V115.64" style="vector-effect: non-scaling-stroke; stroke-width: 2px; stroke: rgb(0, 0, 255); stroke-opacity: 1; fill: rgb(0, 0, 255); fill-opacity: 0.5; opacity: 1;"/><path class="box" d="M436.37,116.64H440.31M436.37,140.72H440.31V115.64H436.37ZM438.34000000000003,140.72V140.72M438.34000000000003,115.64V115.64" style="vector-effect: non-scaling-stroke; stroke-width: 2px; stroke: rgb(255, 0, 0); stroke-opacity: 1; fill: rgb(255, 0, 0); fill-opacity: 0.5; opacity: 1;"/><path class="box" d="M444.41,139.72H448.35M444.41,140.72H448.35V138.21H444.41ZM446.38,140.72V150.75M446.38,138.21V133.2" style="vector-effect: non-scaling-stroke; stroke-width: 2px; stroke: rgb(0, 0, 255); stroke-opacity: 1; fill: rgb(0, 0, 255); fill-opacity: 0.5; opacity: 1;"/><path class="box" d="M452.45,144.74H456.39M452.45,145.74H456.39V143.23H452.45ZM454.41999999999996,145.74V150.75M454.41999999999996,143.23V140.72" style="vector-effect: non-scaling-stroke; stroke-width: 2px; stroke: rgb(0, 0, 255); stroke-opacity: 1; fill: rgb(0, 0, 255); fill-opacity: 0.5; opacity: 1;"/><path class="box" d="M460.49,141.72H464.43M460.49,143.23H464.43V140.72H460.49ZM462.46000000000004,143.23V145.74M462.46000000000004,140.72V133.2" style="vector-effect: non-scaling-stroke; stroke-width: 2px; stroke: rgb(255, 0, 0); stroke-opacity: 1; fill: rgb(255, 0, 0); fill-opacity: 0.5; opacity: 1;"/><path class="box" d="M468.54,177.34H472.48M468.54,178.34H472.48V153.26H468.54ZM470.51,178.34V183.35M470.51,153.26V153.26" style="vector-effect: non-scaling-stroke; stroke-width: 2px; stroke: rgb(0, 0, 255); stroke-opacity: 1; fill: rgb(0, 0, 255); fill-opacity: 0.5; opacity: 1;"/><path class="box" d="M476.58,209.94H480.52M476.58,210.94H480.52V193.38H476.58ZM478.54999999999995,210.94V210.94M478.54999999999995,193.38V188.37" style="vector-effect: non-scaling-stroke; stroke-width: 2px; stroke: rgb(0, 0, 255); stroke-opacity: 1; fill: rgb(0, 0, 255); fill-opacity: 0.5; opacity: 1;"/><path class="box" d="M484.62,205.92H488.56M484.62,205.92H488.56V205.92H484.62ZM486.59000000000003,205.92V213.45M486.59000000000003,205.92V190.88" style="vector-effect: non-scaling-stroke; stroke-width: 2px; stroke: rgb(255, 0, 0); stroke-opacity: 1; fill: rgb(255, 0, 0); fill-opacity: 0.5; opacity: 1;"/><path class="box" d="M492.67,208.43H496.61M492.67,208.43H496.61V208.43H492.67ZM494.64,208.43V231M494.64,208.43V193.38" style="vector-effect: non-scaling-stroke; stroke-width: 2px; stroke: rgb(0, 0, 255); stroke-opacity: 1; fill: rgb(0, 0, 255); fill-opacity: 0.5; opacity: 1;"/><path class="box" d="M500.71,149.24H504.65M500.71,200.91H504.65V148.24H500.71ZM502.67999999999995,200.91V203.42M502.67999999999995,148.24V143.23" style="vector-effect: non-scaling-stroke; stroke-width: 2px; stroke: rgb(255, 0, 0); stroke-opacity: 1; fill: rgb(255, 0, 0); fill-opacity: 0.5; opacity: 1;"/><path class="box" d="M508.75,138.21H512.69M508.75,138.21H512.69V138.21H508.75ZM510.72,138.21V153.26M510.72,138.21V123.16" style="vector-effect: non-scaling-stroke; stroke-width: 2px; stroke: rgb(255, 0, 0); stroke-opacity: 1; fill: rgb(255, 0, 0); fill-opacity: 0.5; opacity: 1;"/><path class="box" d="M516.79,119.15H520.73M516.79,135.7H520.73V118.15H516.79ZM518.76,135.7V145.74M518.76,118.15V108.12" style="vector-effect: non-scaling-stroke; stroke-width: 2px; stroke: rgb(255, 0, 0); stroke-opacity: 1; fill: rgb(255, 0, 0); fill-opacity: 0.5; opacity: 1;"/><path class="box" d="M524.84,76.51H528.78M524.84,100.59H528.78V75.51H524.84ZM526.81,100.59V103.1M526.81,75.51V75.51" style="vector-effect: non-scaling-stroke; stroke-width: 2px; stroke: rgb(255, 0, 0); stroke-opacity: 1; fill: rgb(255, 0, 0); fill-opacity: 0.5; opacity: 1;"/><path class="box" d="M532.88,84.04H536.82M532.88,88.05H536.82V83.04H532.88ZM534.85,88.05V95.58M534.85,83.04V65.48" style="vector-effect: non-scaling-stroke; stroke-width: 2px; stroke: rgb(255, 0, 0); stroke-opacity: 1; fill: rgb(255, 0, 0); fill-opacity: 0.5; opacity: 1;"/><path class="box" d="M540.92,79.53H544.86M540.92,80.53H544.86V67.99H540.92ZM542.89,80.53V85.55M542.89,67.99V62.98" style="vector-effect: non-scaling-stroke; stroke-width: 2px; stroke: rgb(0, 0, 255); stroke-opacity: 1; fill: rgb(0, 0, 255); fill-opacity: 0.5; opacity: 1;"/><path class="box" d="M548.97,79.53H552.91M548.97,80.53H552.91V65.48H548.97ZM550.94,80.53V95.58M550.94,65.48V62.98" style="vector-effect: non-scaling-stroke; stroke-width: 2px; stroke: rgb(0, 0, 255); stroke-opacity: 1; fill: rgb(0, 0, 255); fill-opacity: 0.5; opacity: 1;"/><path class="box" d="M557.01,74.01H560.95M557.01,80.53H560.95V73.01H557.01ZM558.98,80.53V83.04M558.98,73.01V62.98" style="vector-effect: non-scaling-stroke; stroke-width: 2px; stroke: rgb(255, 0, 0); stroke-opacity: 1; fill: rgb(255, 0, 0); fill-opacity: 0.5; opacity: 1;"/></g></g></g><g class="overplot"/><path class="xlines-above crisp" d="M0,0" style="fill: none;"/><path class="ylines-above crisp" d="M0,0" style="fill: none;"/><g class="overlines-above"/><g class="xaxislayer-above"/><g class="yaxislayer-above"><g class="ytick"><text text-anchor="end" x="37" y="4.199999999999999" transform="translate(0,312.39)" style="font-family: 'Open Sans', verdana, arial, sans-serif; font-size: 12px; fill: rgb(68, 68, 68); fill-opacity: 1; white-space: pre; opacity: 1;">54k</text></g><g class="ytick"><text text-anchor="end" x="37" y="4.199999999999999" style="font-family: 'Open Sans', verdana, arial, sans-serif; font-size: 12px; fill: rgb(68, 68, 68); fill-opacity: 1; white-space: pre; opacity: 1;" transform="translate(0,262.23)">56k</text></g><g class="ytick"><text text-anchor="end" x="37" y="4.199999999999999" style="font-family: 'Open Sans', verdana, arial, sans-serif; font-size: 12px; fill: rgb(68, 68, 68); fill-opacity: 1; white-space: pre; opacity: 1;" transform="translate(0,212.08)">58k</text></g><g class="ytick"><text text-anchor="end" x="37" y="4.199999999999999" style="font-family: 'Open Sans', verdana, arial, sans-serif; font-size: 12px; fill: rgb(68, 68, 68); fill-opacity: 1; white-space: pre; opacity: 1;" transform="translate(0,161.92000000000002)">60k</text></g><g class="ytick"><text text-anchor="end" x="37" y="4.199999999999999" style="font-family: 'Open Sans', verdana, arial, sans-serif; font-size: 12px; fill: rgb(68, 68, 68); fill-opacity: 1; white-space: pre; opacity: 1;" transform="translate(0,111.76000000000002)">62k</text></g></g><g class="overaxes-above"/></g><g class="subplot xy2"><g class="layer-subplot"><g class="shapelayer"/><g class="imagelayer"/></g><g class="gridlayer"><g class="x"/><g class="y2"><path class="y2grid crisp" transform="translate(0,393.33000000000004)" d="M38,0h563" style="stroke: rgb(238, 238, 238); stroke-opacity: 1; stroke-width: 1px;"/><path class="y2grid crisp" transform="translate(0,378.52000000000004)" d="M38,0h563" style="stroke: rgb(238, 238, 238); stroke-opacity: 1; stroke-width: 1px;"/><path class="y2grid crisp" transform="translate(0,363.70000000000005)" d="M38,0h563" style="stroke: rgb(238, 238, 238); stroke-opacity: 1; stroke-width: 1px;"/><path class="y2grid crisp" transform="translate(0,348.89000000000004)" d="M38,0h563" style="stroke: rgb(238, 238, 238); stroke-opacity: 1; stroke-width: 1px;"/></g></g><g class="zerolinelayer"><path class="y2zl zl crisp" transform="translate(0,408.15000000000003)" d="M38,0h563" style="stroke: rgb(68, 68, 68); stroke-opacity: 1; stroke-width: 1px;"/></g><path class="xlines-below"/><path class="ylines-below"/><g class="overlines-below"/><g class="xaxislayer-below"/><g class="yaxislayer-below"/><g class="overaxes-below"/><g class="plot" transform="translate(38,340.29)" clip-path="url(#clipd4d4ebxy2plot)"><g class="barlayer mlayer"><g class="trace bars" style="opacity: 1;"><g class="points"><g class="point"><path d="M0.8,67.86V23.58H7.24V67.86Z" style="vector-effect: non-scaling-stroke; opacity: 1; stroke-width: 0px; fill: rgb(190, 190, 190); fill-opacity: 1;"/></g><g class="point"><path d="M8.85,67.86V17.82H15.28V67.86Z" style="vector-effect: non-scaling-stroke; opacity: 1; stroke-width: 0px; fill: rgb(190, 190, 190); fill-opacity: 1;"/></g><g class="point"><path d="M16.89,67.86V4.34H23.32V67.86Z" style="vector-effect: non-scaling-stroke; opacity: 1; stroke-width: 0px; fill: rgb(190, 190, 190); fill-opacity: 1;"/></g><g class="point"><path d="M24.93,67.86V13.31H31.37V67.86Z" style="vector-effect: non-scaling-stroke; opacity: 1; stroke-width: 0px; fill: rgb(190, 190, 190); fill-opacity: 1;"/></g><g class="point"><path d="M32.98,67.86V27.02H39.41V67.86Z" style="vector-effect: non-scaling-stroke; opacity: 1; stroke-width: 0px; fill: rgb(190, 190, 190); fill-opacity: 1;"/></g><g class="point"><path d="M41.02,67.86V29.56H47.45V67.86Z" style="vector-effect: non-scaling-stroke; opacity: 1; stroke-width: 0px; fill: rgb(190, 190, 190); fill-opacity: 1;"/></g><g class="point"><path d="M49.06,67.86V27.44H55.5V67.86Z" style="vector-effect: non-scaling-stroke; opacity: 1; stroke-width: 0px; fill: rgb(190, 190, 190); fill-opacity: 1;"/></g><g class="point"><path d="M57.1,67.86V23.94H63.54V67.86Z" style="vector-effect: non-scaling-stroke; opacity: 1; stroke-width: 0px; fill: rgb(190, 190, 190); fill-opacity: 1;"/></g><g class="point"><path d="M65.15,67.86V30.35H71.58V67.86Z" style="vector-effect: non-scaling-stroke; opacity: 1; stroke-width: 0px; fill: rgb(190, 190, 190); fill-opacity: 1;"/></g><g class="point"><path d="M73.19,67.86V17.17H79.62V67.86Z" style="vector-effect: non-scaling-stroke; opacity: 1; stroke-width: 0px; fill: rgb(190, 190, 190); fill-opacity: 1;"/></g><g class="point"><path d="M81.23,67.86V33.91H87.67V67.86Z" style="vector-effect: non-scaling-stroke; opacity: 1; stroke-width: 0px; fill: rgb(190, 190, 190); fill-opacity: 1;"/></g><g class="point"><path d="M89.28,67.86V17.65H95.71V67.86Z" style="vector-effect: non-scaling-stroke; opacity: 1; stroke-width: 0px; fill: rgb(190, 190, 190); fill-opacity: 1;"/></g><g class="point"><path d="M97.32,67.86V16.29H103.75V67.86Z" style="vector-effect: non-scaling-stroke; opacity: 1; stroke-width: 0px; fill: rgb(190, 190, 190); fill-opacity: 1;"/></g><g class="point"><path d="M105.36,67.86V6.15H111.8V67.86Z" style="vector-effect: non-scaling-stroke; opacity: 1; stroke-width: 0px; fill: rgb(190, 190, 190); fill-opacity: 1;"/></g><g class="point"><path d="M113.4,67.86V3.39H119.84V67.86Z" style="vector-effect: non-scaling-stroke; opacity: 1; stroke-width: 0px; fill: rgb(190, 190, 190); fill-opacity: 1;"/></g><g class="point"><path d="M121.45,67.86V5.86H127.88V67.86Z" style="vector-effect: non-scaling-stroke; opacity: 1; stroke-width: 0px; fill: rgb(190, 190, 190); fill-opacity: 1;"/></g><g class="point"><path d="M129.49,67.86V11.56H135.92V67.86Z" style="vector-effect: non-scaling-stroke; opacity: 1; stroke-width: 0px; fill: rgb(190, 190, 190); fill-opacity: 1;"/></g><g class="point"><path d="M137.53,67.86V16.89H143.97V67.86Z" style="vector-effect: non-scaling-stroke; opacity: 1; stroke-width: 0px; fill: rgb(190, 190, 190); fill-opacity: 1;"/></g><g class="point"><path d="M145.58,67.86V28.74H152.01V67.86Z" style="vector-effect: non-scaling-stroke; opacity: 1; stroke-width: 0px; fill: rgb(190, 190, 190); fill-opacity: 1;"/></g><g class="point"><path d="M153.62,67.86V16.03H160.05V67.86Z" style="vector-effect: non-scaling-stroke; opacity: 1; stroke-width: 0px; fill: rgb(190, 190, 190); fill-opacity: 1;"/></g><g class="point"><path d="M161.66,67.86V30.98H168.1V67.86Z" style="vector-effect: non-scaling-stroke; opacity: 1; stroke-width: 0px; fill: rgb(190, 190, 190); fill-opacity: 1;"/></g><g class="point"><path d="M169.7,67.86V31.01H176.14V67.86Z" style="vector-effect: non-scaling-stroke; opacity: 1; stroke-width: 0px; fill: rgb(190, 190, 190); fill-opacity: 1;"/></g><g class="point"><path d="M177.75,67.86V13.71H184.18V67.86Z" style="vector-effect: non-scaling-stroke; opacity: 1; stroke-width: 0px; fill: rgb(190, 190, 190); fill-opacity: 1;"/></g><g class="point"><path d="M185.79,67.86V26.24H192.22V67.86Z" style="vector-effect: non-scaling-stroke; opacity: 1; stroke-width: 0px; fill: rgb(190, 190, 190); fill-opacity: 1;"/></g><g class="point"><path d="M193.83,67.86V5.38H200.27V67.86Z" style="vector-effect: non-scaling-stroke; opacity: 1; stroke-width: 0px; fill: rgb(190, 190, 190); fill-opacity: 1;"/></g><g class="point"><path d="M201.88,67.86V8.49H208.31V67.86Z" style="vector-effect: non-scaling-stroke; opacity: 1; stroke-width: 0px; fill: rgb(190, 190, 190); fill-opacity: 1;"/></g><g class="point"><path d="M209.92,67.86V20.53H216.35V67.86Z" style="vector-effect: non-scaling-stroke; opacity: 1; stroke-width: 0px; fill: rgb(190, 190, 190); fill-opacity: 1;"/></g><g class="point"><path d="M217.96,67.86V31.38H224.4V67.86Z" style="vector-effect: non-scaling-stroke; opacity: 1; stroke-width: 0px; fill: rgb(190, 190, 190); fill-opacity: 1;"/></g><g class="point"><path d="M226,67.86V29.61H232.44V67.86Z" style="vector-effect: non-scaling-stroke; opacity: 1; stroke-width: 0px; fill: rgb(190, 190, 190); fill-opacity: 1;"/></g><g class="point"><path d="M234.05,67.86V28.46H240.48V67.86Z" style="vector-effect: non-scaling-stroke; opacity: 1; stroke-width: 0px; fill: rgb(190, 190, 190); fill-opacity: 1;"/></g><g class="point"><path d="M242.09,67.86V31.6H248.52V67.86Z" style="vector-effect: non-scaling-stroke; opacity: 1; stroke-width: 0px; fill: rgb(190, 190, 190); fill-opacity: 1;"/></g><g class="point"><path d="M250.13,67.86V40.07H256.57V67.86Z" style="vector-effect: non-scaling-stroke; opacity: 1; stroke-width: 0px; fill: rgb(190, 190, 190); fill-opacity: 1;"/></g><g class="point"><path d="M258.18,67.86V39.97H264.61V67.86Z" style="vector-effect: non-scaling-stroke; opacity: 1; stroke-width: 0px; fill: rgb(190, 190, 190); fill-opacity: 1;"/></g><g class="point"><path d="M266.22,67.86V41.89H272.65V67.86Z" style="vector-effect: non-scaling-stroke; opacity: 1; stroke-width: 0px; fill: rgb(190, 190, 190); fill-opacity: 1;"/></g><g class="point"><path d="M274.26,67.86V43.78H280.7V67.86Z" style="vector-effect: non-scaling-stroke; opacity: 1; stroke-width: 0px; fill: rgb(190, 190, 190); fill-opacity: 1;"/></g><g class="point"><path d="M282.3,67.86V48.07H288.74V67.86Z" style="vector-effect: non-scaling-stroke; opacity: 1; stroke-width: 0px; fill: rgb(190, 190, 190); fill-opacity: 1;"/></g><g class="point"><path d="M290.35,67.86V42.41H296.78V67.86Z" style="vector-effect: non-scaling-stroke; opacity: 1; stroke-width: 0px; fill: rgb(190, 190, 190); fill-opacity: 1;"/></g><g class="point"><path d="M298.39,67.86V47.08H304.82V67.86Z" style="vector-effect: non-scaling-stroke; opacity: 1; stroke-width: 0px; fill: rgb(190, 190, 190); fill-opacity: 1;"/></g><g class="point"><path d="M306.43,67.86V9.28H312.87V67.86Z" style="vector-effect: non-scaling-stroke; opacity: 1; stroke-width: 0px; fill: rgb(190, 190, 190); fill-opacity: 1;"/></g><g class="point"><path d="M314.48,67.86V18.58H320.91V67.86Z" style="vector-effect: non-scaling-stroke; opacity: 1; stroke-width: 0px; fill: rgb(190, 190, 190); fill-opacity: 1;"/></g><g class="point"><path d="M322.52,67.86V22.43H328.95V67.86Z" style="vector-effect: non-scaling-stroke; opacity: 1; stroke-width: 0px; fill: rgb(190, 190, 190); fill-opacity: 1;"/></g><g class="point"><path d="M330.56,67.86V27.06H337V67.86Z" style="vector-effect: non-scaling-stroke; opacity: 1; stroke-width: 0px; fill: rgb(190, 190, 190); fill-opacity: 1;"/></g><g class="point"><path d="M338.6,67.86V26.71H345.04V67.86Z" style="vector-effect: non-scaling-stroke; opacity: 1; stroke-width: 0px; fill: rgb(190, 190, 190); fill-opacity: 1;"/></g><g class="point"><path d="M346.65,67.86V32H353.08V67.86Z" style="vector-effect: non-scaling-stroke; opacity: 1; stroke-width: 0px; fill: rgb(190, 190, 190); fill-opacity: 1;"/></g><g class="point"><path d="M354.69,67.86V29.38H361.12V67.86Z" style="vector-effect: non-scaling-stroke; opacity: 1; stroke-width: 0px; fill: rgb(190, 190, 190); fill-opacity: 1;"/></g><g class="point"><path d="M362.73,67.86V36.66H369.17V67.86Z" style="vector-effect: non-scaling-stroke; opacity: 1; stroke-width: 0px; fill: rgb(190, 190, 190); fill-opacity: 1;"/></g><g class="point"><path d="M370.78,67.86V41.08H377.21V67.86Z" style="vector-effect: non-scaling-stroke; opacity: 1; stroke-width: 0px; fill: rgb(190, 190, 190); fill-opacity: 1;"/></g><g class="point"><path d="M378.82,67.86V41.07H385.25V67.86Z" style="vector-effect: non-scaling-stroke; opacity: 1; stroke-width: 0px; fill: rgb(190, 190, 190); fill-opacity: 1;"/></g><g class="point"><path d="M386.86,67.86V43.54H393.3V67.86Z" style="vector-effect: non-scaling-stroke; opacity: 1; stroke-width: 0px; fill: rgb(190, 190, 190); fill-opacity: 1;"/></g><g class="point"><path d="M394.9,67.86V42.03H401.34V67.86Z" style="vector-effect: non-scaling-stroke; opacity: 1; stroke-width: 0px; fill: rgb(190, 190, 190); fill-opacity: 1;"/></g><g class="point"><path d="M402.95,67.86V29.24H409.38V67.86Z" style="vector-effect: non-scaling-stroke; opacity: 1; stroke-width: 0px; fill: rgb(190, 190, 190); fill-opacity: 1;"/></g><g class="point"><path d="M410.99,67.86V45.06H417.42V67.86Z" style="vector-effect: non-scaling-stroke; opacity: 1; stroke-width: 0px; fill: rgb(190, 190, 190); fill-opacity: 1;"/></g><g class="point"><path d="M419.03,67.86V40.35H425.47V67.86Z" style="vector-effect: non-scaling-stroke; opacity: 1; stroke-width: 0px; fill: rgb(190, 190, 190); fill-opacity: 1;"/></g><g class="point"><path d="M427.08,67.86V37.17H433.51V67.86Z" style="vector-effect: non-scaling-stroke; opacity: 1; stroke-width: 0px; fill: rgb(190, 190, 190); fill-opacity: 1;"/></g><g class="point"><path d="M435.12,67.86V36.09H441.55V67.86Z" style="vector-effect: non-scaling-stroke; opacity: 1; stroke-width: 0px; fill: rgb(190, 190, 190); fill-opacity: 1;"/></g><g class="point"><path d="M443.16,67.86V38.73H449.6V67.86Z" style="vector-effect: non-scaling-stroke; opacity: 1; stroke-width: 0px; fill: rgb(190, 190, 190); fill-opacity: 1;"/></g><g class="point"><path d="M451.2,67.86V47.84H457.64V67.86Z" style="vector-effect: non-scaling-stroke; opacity: 1; stroke-width: 0px; fill: rgb(190, 190, 190); fill-opacity: 1;"/></g><g class="point"><path d="M459.25,67.86V36.25H465.68V67.86Z" style="vector-effect: non-scaling-stroke; opacity: 1; stroke-width: 0px; fill: rgb(190, 190, 190); fill-opacity: 1;"/></g><g class="point"><path d="M467.29,67.86V24.41H473.72V67.86Z" style="vector-effect: non-scaling-stroke; opacity: 1; stroke-width: 0px; fill: rgb(190, 190, 190); fill-opacity: 1;"/></g><g class="point"><path d="M475.33,67.86V34.39H481.77V67.86Z" style="vector-effect: non-scaling-stroke; opacity: 1; stroke-width: 0px; fill: rgb(190, 190, 190); fill-opacity: 1;"/></g><g class="point"><path d="M483.38,67.86V38.14H489.81V67.86Z" style="vector-effect: non-scaling-stroke; opacity: 1; stroke-width: 0px; fill: rgb(190, 190, 190); fill-opacity: 1;"/></g><g class="point"><path d="M491.42,67.86V27.72H497.85V67.86Z" style="vector-effect: non-scaling-stroke; opacity: 1; stroke-width: 0px; fill: rgb(190, 190, 190); fill-opacity: 1;"/></g><g class="point"><path d="M499.46,67.86V8.04H505.9V67.86Z" style="vector-effect: non-scaling-stroke; opacity: 1; stroke-width: 0px; fill: rgb(190, 190, 190); fill-opacity: 1;"/></g><g class="point"><path d="M507.5,67.86V21.39H513.94V67.86Z" style="vector-effect: non-scaling-stroke; opacity: 1; stroke-width: 0px; fill: rgb(190, 190, 190); fill-opacity: 1;"/></g><g class="point"><path d="M515.55,67.86V16.49H521.98V67.86Z" style="vector-effect: non-scaling-stroke; opacity: 1; stroke-width: 0px; fill: rgb(190, 190, 190); fill-opacity: 1;"/></g><g class="point"><path d="M523.59,67.86V12.63H530.02V67.86Z" style="vector-effect: non-scaling-stroke; opacity: 1; stroke-width: 0px; fill: rgb(190, 190, 190); fill-opacity: 1;"/></g><g class="point"><path d="M531.63,67.86V23.83H538.07V67.86Z" style="vector-effect: non-scaling-stroke; opacity: 1; stroke-width: 0px; fill: rgb(190, 190, 190); fill-opacity: 1;"/></g><g class="point"><path d="M539.68,67.86V31.38H546.11V67.86Z" style="vector-effect: non-scaling-stroke; opacity: 1; stroke-width: 0px; fill: rgb(190, 190, 190); fill-opacity: 1;"/></g><g class="point"><path d="M547.72,67.86V20.15H554.15V67.86Z" style="vector-effect: non-scaling-stroke; opacity: 1; stroke-width: 0px; fill: rgb(190, 190, 190); fill-opacity: 1;"/></g><g class="point"><path d="M555.76,67.86V30.85H562.2V67.86Z" style="vector-effect: non-scaling-stroke; opacity: 1; stroke-width: 0px; fill: rgb(190, 190, 190); fill-opacity: 1;"/></g></g></g></g></g><g class="overplot"/><path class="xlines-above crisp" d="M0,0" style="fill: none;"/><path class="ylines-above crisp" d="M0,0" style="fill: none;"/><g class="overlines-above"/><g class="xaxislayer-above"><g class="xtick"><text text-anchor="middle" x="0" y="421.15000000000003" transform="translate(58.11,0)" style="font-family: 'Open Sans', verdana, arial, sans-serif; font-size: 12px; fill: rgb(68, 68, 68); fill-opacity: 1; white-space: pre; opacity: 1;"><tspan class="line" dy="0em" x="0" y="421.15000000000003">Oct 11</tspan><tspan class="line" dy="1.3em" x="0" y="421.15000000000003">2022</tspan></text></g><g class="xtick"><text text-anchor="middle" x="0" y="421.15000000000003" style="font-family: 'Open Sans', verdana, arial, sans-serif; font-size: 12px; fill: rgb(68, 68, 68); fill-opacity: 1; white-space: pre; opacity: 1;" transform="translate(130.49,0)">Oct 24</text></g><g class="xtick"><text text-anchor="middle" x="0" y="421.15000000000003" style="font-family: 'Open Sans', verdana, arial, sans-serif; font-size: 12px; fill: rgb(68, 68, 68); fill-opacity: 1; white-space: pre; opacity: 1;" transform="translate(210.92,0)">Nov 7</text></g><g class="xtick"><text text-anchor="middle" x="0" y="421.15000000000003" style="font-family: 'Open Sans', verdana, arial, sans-serif; font-size: 12px; fill: rgb(68, 68, 68); fill-opacity: 1; white-space: pre; opacity: 1;" transform="translate(291.35,0)">Nov 21</text></g><g class="xtick"><text text-anchor="middle" x="0" y="421.15000000000003" style="font-family: 'Open Sans', verdana, arial, sans-serif; font-size: 12px; fill: rgb(68, 68, 68); fill-opacity: 1; white-space: pre; opacity: 1;" transform="translate(371.78,0)">Dec 5</text></g><g class="xtick"><text text-anchor="middle" x="0" y="421.15000000000003" style="font-family: 'Open Sans', verdana, arial, sans-serif; font-size: 12px; fill: rgb(68, 68, 68); fill-opacity: 1; white-space: pre; opacity: 1;" transform="translate(452.21,0)">Dec 19</text></g><g class="xtick"><text text-anchor="middle" x="0" y="421.15000000000003" style="font-family: 'Open Sans', verdana, arial, sans-serif; font-size: 12px; fill: rgb(68, 68, 68); fill-opacity: 1; white-space: pre; opacity: 1;" transform="translate(524.5899999999999,0)"><tspan class="line" dy="0em" x="0" y="421.15000000000003">Jan 2</tspan><tspan class="line" dy="1.3em" x="0" y="421.15000000000003">2023</tspan></text></g></g><g class="yaxislayer-above"><g class="y2tick"><text text-anchor="end" x="37" y="4.199999999999999" transform="translate(0,408.15000000000003)" style="font-family: 'Open Sans', verdana, arial, sans-serif; font-size: 12px; fill: rgb(68, 68, 68); fill-opacity: 1; white-space: pre; opacity: 1;">0</text></g><g class="y2tick"><text text-anchor="end" x="37" y="4.199999999999999" style="font-family: 'Open Sans', verdana, arial, sans-serif; font-size: 12px; fill: rgb(68, 68, 68); fill-opacity: 1; white-space: pre; opacity: 1;" transform="translate(0,393.33000000000004)">5M</text></g><g class="y2tick"><text text-anchor="end" x="37" y="4.199999999999999" style="font-family: 'Open Sans', verdana, arial, sans-serif; font-size: 12px; fill: rgb(68, 68, 68); fill-opacity: 1; white-space: pre; opacity: 1;" transform="translate(0,378.52000000000004)">10M</text></g><g class="y2tick"><text text-anchor="end" x="37" y="4.199999999999999" style="font-family: 'Open Sans', verdana, arial, sans-serif; font-size: 12px; fill: rgb(68, 68, 68); fill-opacity: 1; white-space: pre; opacity: 1;" transform="translate(0,363.70000000000005)">15M</text></g><g class="y2tick"><text text-anchor="end" x="37" y="4.199999999999999" style="font-family: 'Open Sans', verdana, arial, sans-serif; font-size: 12px; fill: rgb(68, 68, 68); fill-opacity: 1; white-space: pre; opacity: 1;" transform="translate(0,348.89000000000004)">20M</text></g></g><g class="overaxes-above"/></g></g><g class="polarlayer"/><g class="ternarylayer"/><g class="geolayer"/><g class="funnelarealayer"/><g class="pielayer"/><g class="iciclelayer"/><g class="treemaplayer"/><g class="sunburstlayer"/><g class="glimages"/><defs id="topdefs-d4d4eb"><g class="clips"/></defs><g class="layer-above"><g class="imagelayer"/><g class="shapelayer"/></g><g class="infolayer"><g class="g-gtitle"><text class="gtitle" x="313.182" y="25" text-anchor="middle" dy="0em" style="font-family: 'Open Sans', verdana, arial, sans-serif; font-size: 17px; fill: rgb(68, 68, 68); opacity: 1; font-weight: normal; white-space: pre;">삼성전자 Candlestick Chart</text></g><g class="g-xtitle"><text class="xtitle" x="319.5" y="460.15000000000003" text-anchor="middle" style="font-family: 'Open Sans', verdana, arial, sans-serif; font-size: 14px; fill: rgb(68, 68, 68); opacity: 1; font-weight: normal; white-space: pre;">date</text></g><g class="g-ytitle"/><g class="g-y2title"/></g></svg>