<svg class="main-svg" xmlns="http://www.w3.org/2000/svg" xmlns:xlink="http://www.w3.org/1999/xlink" width="626.364" height="465.455" style="" viewBox="0 0 626.364 465.455"><rect x="0" y="0" width="626.364" height="465.455" style="fill: rgb(255, 255, 255); fill-opacity: 1;"/><defs id="defs-4fc5d8"><g class="clips"><clipPath id="clip4fc5d8xyplot" class="plotclip"><rect width="442" height="265.2"/></clipPath><clipPath id="clip4fc5d8xy2plot" class="plotclip"><rect width="442" height="70.2"/></clipPath><clipPath class="axesclip" id="clip4fc5d8x"><rect x="38" y="0" width="442" height="465.455"/></clipPath><clipPath class="axesclip" id="clip4fc5d8y"><rect x="0" y="69.50000000000001" width="626.364" height="265.2"/></clipPath><clipPath class="axesclip" id="clip4fc5d8xy"><rect x="38" y="69.50000000000001" width="442" height="265.2"/></clipPath><clipPath class="axesclip" id="clip4fc5d8y2"><rect x="0" y="350.3" width="626.364" height="70.2"/></clipPath><clipPath class="axesclip" id="clip4fc5d8xy2"><rect x="38" y="350.3" width="442" height="70.2"/></clipPath></g><g class="gradients"/><g class="patterns"/></defs><g class="bglayer"/><g class="layer-below"><g class="imagelayer"/><g class="shapelayer"/></g><g class="cartesianlayer"><g class="subplot xy"><g class="layer-subplot"><g class="shapelayer"/><g class="imagelayer"/></g><g class="gridlayer"><g class="x"/><g class="y"><path class="ygrid crisp" transform="translate(0,321.44)" d="M38,0h442" style="stroke: rgb(238, 238, 238); stroke-opacity: 1; stroke-width: 1px;"/><path class="ygrid crisp" transform="translate(0,269.55)" d="M38,0h442" style="stroke: rgb(238, 238, 238); stroke-opacity: 1; stroke-width: 1px;"/><path class="ygrid crisp" transform="translate(0,217.67000000000002)" d="M38,0h442" style="stroke: rgb(238, 238, 238); stroke-opacity: 1; stroke-width: 1px;"/><path class="ygrid crisp" transform="translate(0,165.78000000000003)" d="M38,0h442" style="stroke: rgb(238, 238, 238); stroke-opacity: 1; stroke-width: 1px;"/><path class="ygrid crisp" transform="translate(0,113.89000000000001)" d="M38,0h442" style="stroke: rgb(238, 238, 238); stroke-opacity: 1; stroke-width: 1px;"/></g></g><g class="zerolinelayer"/><path class="xlines-below"/><path class="ylines-below"/><g class="overlines-below"/><g class="xaxislayer-below"/><g class="yaxislayer-below"/><g class="overaxes-below"/><g class="plot" transform="translate(38,69.50000000000001)" clip-path="url(#clip4fc5d8xyplot)"><g class="boxlayer mlayer"><g class="trace boxes" style="opacity: 1;"><path class="box" d="M1.61,191.27H4.7M1.61,192.27H4.7V181.89H1.61ZM3.1550000000000002,192.27V192.27M3.1550000000000002,181.89V166.33" style="vector-effect: non-scaling-stroke; stroke-width: 2px; stroke: rgb(0, 0, 255); stroke-opacity: 1; fill: rgb(0, 0, 255); fill-opacity: 0.5; opacity: 1;"/><path class="box" d="M7.92,195.86H11.02M7.92,202.65H11.02V194.86H7.92ZM9.469999999999999,202.65V220.81M9.469999999999999,194.86V176.7" style="vector-effect: non-scaling-stroke; stroke-width: 2px; stroke: rgb(255, 0, 0); stroke-opacity: 1; fill: rgb(255, 0, 0); fill-opacity: 0.5; opacity: 1;"/><path class="box" d="M14.24,216.62H17.33M14.24,241.56H17.33V215.62H14.24ZM15.785,241.56V251.94M15.785,215.62V207.84" style="vector-effect: non-scaling-stroke; stroke-width: 2px; stroke: rgb(255, 0, 0); stroke-opacity: 1; fill: rgb(255, 0, 0); fill-opacity: 0.5; opacity: 1;"/><path class="box" d="M20.55,206.24H23.65M20.55,207.84H23.65V205.24H20.55ZM22.1,207.84V220.81M22.1,205.24V174.11" style="vector-effect: non-scaling-stroke; stroke-width: 2px; stroke: rgb(255, 0, 0); stroke-opacity: 1; fill: rgb(255, 0, 0); fill-opacity: 0.5; opacity: 1;"/><path class="box" d="M26.87,219.81H29.96M26.87,220.81H29.96V215.62H26.87ZM28.415,220.81V220.81M28.415,215.62V197.46" style="vector-effect: non-scaling-stroke; stroke-width: 2px; stroke: rgb(0, 0, 255); stroke-opacity: 1; fill: rgb(0, 0, 255); fill-opacity: 0.5; opacity: 1;"/><path class="box" d="M33.18,193.27H36.28M33.18,194.86H36.28V192.27H33.18ZM34.730000000000004,194.86V205.24M34.730000000000004,192.27V187.08" style="vector-effect: non-scaling-stroke; stroke-width: 2px; stroke: rgb(255, 0, 0); stroke-opacity: 1; fill: rgb(255, 0, 0); fill-opacity: 0.5; opacity: 1;"/><path class="box" d="M39.5,185.49H42.59M39.5,205.24H42.59V184.49H39.5ZM41.045,205.24V207.84M41.045,184.49V174.11" style="vector-effect: non-scaling-stroke; stroke-width: 2px; stroke: rgb(255, 0, 0); stroke-opacity: 1; fill: rgb(255, 0, 0); fill-opacity: 0.5; opacity: 1;"/><path class="box" d="M45.81,186.08H48.9M45.81,187.08H48.9V181.89H45.81ZM47.355000000000004,187.08V205.24M47.355000000000004,181.89V171.52" style="vector-effect: non-scaling-stroke; stroke-width: 2px; stroke: rgb(0, 0, 255); stroke-opacity: 1; fill: rgb(0, 0, 255); fill-opacity: 0.5; opacity: 1;"/><path class="box" d="M52.12,204.24H55.22M52.12,205.24H55.22V181.89H52.12ZM53.67,205.24V207.84M53.67,181.89V176.7" style="vector-effect: non-scaling-stroke; stroke-width: 2px; stroke: rgb(0, 0, 255); stroke-opacity: 1; fill: rgb(0, 0, 255); fill-opacity: 0.5; opacity: 1;"/><path class="box" d="M58.44,214.02H61.53M58.44,220.81H61.53V213.02H58.44ZM59.985,220.81V223.4M59.985,213.02V200.05" style="vector-effect: non-scaling-stroke; stroke-width: 2px; stroke: rgb(255, 0, 0); stroke-opacity: 1; fill: rgb(255, 0, 0); fill-opacity: 0.5; opacity: 1;"/><path class="box" d="M64.75,203.65H67.85M64.75,223.4H67.85V202.65H64.75ZM66.3,223.4V223.4M66.3,202.65V192.27" style="vector-effect: non-scaling-stroke; stroke-width: 2px; stroke: rgb(255, 0, 0); stroke-opacity: 1; fill: rgb(255, 0, 0); fill-opacity: 0.5; opacity: 1;"/><path class="box" d="M71.07,162.14H74.16M71.07,174.11H74.16V161.14H71.07ZM72.615,174.11V181.89M72.615,161.14V161.14" style="vector-effect: non-scaling-stroke; stroke-width: 2px; stroke: rgb(255, 0, 0); stroke-opacity: 1; fill: rgb(255, 0, 0); fill-opacity: 0.5; opacity: 1;"/><path class="box" d="M77.38,156.95H80.48M77.38,174.11H80.48V155.95H77.38ZM78.93,174.11V174.11M78.93,155.95V132.6" style="vector-effect: non-scaling-stroke; stroke-width: 2px; stroke: rgb(255, 0, 0); stroke-opacity: 1; fill: rgb(255, 0, 0); fill-opacity: 0.5; opacity: 1;"/><path class="box" d="M83.7,112.85H86.79M83.7,148.17H86.79V111.85H83.7ZM85.245,148.17V155.95M85.245,111.85V106.66" style="vector-effect: non-scaling-stroke; stroke-width: 2px; stroke: rgb(255, 0, 0); stroke-opacity: 1; fill: rgb(255, 0, 0); fill-opacity: 0.5; opacity: 1;"/><path class="box" d="M90.01,108.25H93.1M90.01,109.25H93.1V104.06H90.01ZM91.555,109.25V124.82M91.555,104.06V93.68" style="vector-effect: non-scaling-stroke; stroke-width: 2px; stroke: rgb(0, 0, 255); stroke-opacity: 1; fill: rgb(0, 0, 255); fill-opacity: 0.5; opacity: 1;"/><path class="box" d="M96.32,165.33H99.42M96.32,166.33H99.42V124.82H96.32ZM97.87,166.33V168.92M97.87,124.82V117.03" style="vector-effect: non-scaling-stroke; stroke-width: 2px; stroke: rgb(0, 0, 255); stroke-opacity: 1; fill: rgb(0, 0, 255); fill-opacity: 0.5; opacity: 1;"/><path class="box" d="M102.64,112.85H105.73M102.64,145.57H105.73V111.85H102.64ZM104.185,145.57V148.17M104.185,111.85V98.87" style="vector-effect: non-scaling-stroke; stroke-width: 2px; stroke: rgb(255, 0, 0); stroke-opacity: 1; fill: rgb(255, 0, 0); fill-opacity: 0.5; opacity: 1;"/><path class="box" d="M108.95,97.28H112.05M108.95,98.87H112.05V96.28H108.95ZM110.5,98.87V109.25M110.5,96.28V88.5" style="vector-effect: non-scaling-stroke; stroke-width: 2px; stroke: rgb(255, 0, 0); stroke-opacity: 1; fill: rgb(255, 0, 0); fill-opacity: 0.5; opacity: 1;"/><path class="box" d="M115.27,105.66H118.36M115.27,106.66H118.36V104.06H115.27ZM116.815,106.66V114.44M116.815,104.06V96.28" style="vector-effect: non-scaling-stroke; stroke-width: 2px; stroke: rgb(0, 0, 255); stroke-opacity: 1; fill: rgb(0, 0, 255); fill-opacity: 0.5; opacity: 1;"/><path class="box" d="M121.58,118.03H124.68M121.58,132.6H124.68V117.03H121.58ZM123.13,132.6V145.57M123.13,117.03V101.47" style="vector-effect: non-scaling-stroke; stroke-width: 2px; stroke: rgb(255, 0, 0); stroke-opacity: 1; fill: rgb(255, 0, 0); fill-opacity: 0.5; opacity: 1;"/><path class="box" d="M127.9,112.85H130.99M127.9,119.63H130.99V111.85H127.9ZM129.445,119.63V137.79M129.445,111.85V109.25" style="vector-effect: non-scaling-stroke; stroke-width: 2px; stroke: rgb(255, 0, 0); stroke-opacity: 1; fill: rgb(255, 0, 0); fill-opacity: 0.5; opacity: 1;"/><path class="box" d="M134.21,92.09H137.3M134.21,104.06H137.3V91.09H134.21ZM135.755,104.06V111.85M135.755,91.09V88.5" style="vector-effect: non-scaling-stroke; stroke-width: 2px; stroke: rgb(255, 0, 0); stroke-opacity: 1; fill: rgb(255, 0, 0); fill-opacity: 0.5; opacity: 1;"/><path class="box" d="M140.52,50.58H143.62M140.52,83.31H143.62V49.58H140.52ZM142.07,83.31V83.31M142.07,49.58V46.99" style="vector-effect: non-scaling-stroke; stroke-width: 2px; stroke: rgb(255, 0, 0); stroke-opacity: 1; fill: rgb(255, 0, 0); fill-opacity: 0.5; opacity: 1;"/><path class="box" d="M146.84,44.39H149.93M146.84,44.39H149.93V44.39H146.84ZM148.385,44.39V62.55M148.385,44.39V39.2" style="vector-effect: non-scaling-stroke; stroke-width: 2px; stroke: rgb(255, 0, 0); stroke-opacity: 1; fill: rgb(255, 0, 0); fill-opacity: 0.5; opacity: 1;"/><path class="box" d="M153.15,84.9H156.25M153.15,85.9H156.25V59.96H153.15ZM154.7,85.9V85.9M154.7,59.96V57.36" style="vector-effect: non-scaling-stroke; stroke-width: 2px; stroke: rgb(0, 0, 255); stroke-opacity: 1; fill: rgb(0, 0, 255); fill-opacity: 0.5; opacity: 1;"/><path class="box" d="M159.47,20.04H162.56M159.47,21.04H162.56V15.85H159.47ZM161.015,21.04V36.61M161.015,15.85V13.26" style="vector-effect: non-scaling-stroke; stroke-width: 2px; stroke: rgb(0, 0, 255); stroke-opacity: 1; fill: rgb(0, 0, 255); fill-opacity: 0.5; opacity: 1;"/><path class="box" d="M165.78,45.99H168.88M165.78,46.99H168.88V21.04H165.78ZM167.32999999999998,46.99V52.18M167.32999999999998,21.04V21.04" style="vector-effect: non-scaling-stroke; stroke-width: 2px; stroke: rgb(0, 0, 255); stroke-opacity: 1; fill: rgb(0, 0, 255); fill-opacity: 0.5; opacity: 1;"/><path class="box" d="M172.1,35.01H175.19M172.1,39.2H175.19V34.01H172.1ZM173.64499999999998,39.2V54.77M173.64499999999998,34.01V31.42" style="vector-effect: non-scaling-stroke; stroke-width: 2px; stroke: rgb(255, 0, 0); stroke-opacity: 1; fill: rgb(255, 0, 0); fill-opacity: 0.5; opacity: 1;"/><path class="box" d="M178.41,27.23H181.5M178.41,34.01H181.5V26.23H178.41ZM179.95499999999998,34.01V52.18M179.95499999999998,26.23V26.23" style="vector-effect: non-scaling-stroke; stroke-width: 2px; stroke: rgb(255, 0, 0); stroke-opacity: 1; fill: rgb(255, 0, 0); fill-opacity: 0.5; opacity: 1;"/><path class="box" d="M184.72,58.96H187.82M184.72,59.96H187.82V44.39H184.72ZM186.26999999999998,59.96V62.55M186.26999999999998,44.39V44.39" style="vector-effect: non-scaling-stroke; stroke-width: 2px; stroke: rgb(0, 0, 255); stroke-opacity: 1; fill: rgb(0, 0, 255); fill-opacity: 0.5; opacity: 1;"/><path class="box" d="M191.04,49.58H194.13M191.04,49.58H194.13V49.58H191.04ZM192.58499999999998,49.58V59.96M192.58499999999998,49.58V34.01" style="vector-effect: non-scaling-stroke; stroke-width: 2px; stroke: rgb(255, 0, 0); stroke-opacity: 1; fill: rgb(255, 0, 0); fill-opacity: 0.5; opacity: 1;"/><path class="box" d="M197.35,59.96H200.45M197.35,59.96H200.45V59.96H197.35ZM198.89999999999998,59.96V75.52M198.89999999999998,59.96V49.58" style="vector-effect: non-scaling-stroke; stroke-width: 2px; stroke: rgb(0, 0, 255); stroke-opacity: 1; fill: rgb(0, 0, 255); fill-opacity: 0.5; opacity: 1;"/><path class="box" d="M203.67,79.71H206.76M203.67,80.71H206.76V72.93H203.67ZM205.21499999999997,80.71V88.5M205.21499999999997,72.93V65.15" style="vector-effect: non-scaling-stroke; stroke-width: 2px; stroke: rgb(0, 0, 255); stroke-opacity: 1; fill: rgb(0, 0, 255); fill-opacity: 0.5; opacity: 1;"/><path class="box" d="M209.98,69.34H213.08M209.98,70.34H213.08V65.15H209.98ZM211.53,70.34V78.12M211.53,65.15V62.55" style="vector-effect: non-scaling-stroke; stroke-width: 2px; stroke: rgb(0, 0, 255); stroke-opacity: 1; fill: rgb(0, 0, 255); fill-opacity: 0.5; opacity: 1;"/><path class="box" d="M216.3,60.96H219.39M216.3,65.15H219.39V59.96H216.3ZM217.845,65.15V72.93M217.845,59.96V52.18" style="vector-effect: non-scaling-stroke; stroke-width: 2px; stroke: rgb(255, 0, 0); stroke-opacity: 1; fill: rgb(255, 0, 0); fill-opacity: 0.5; opacity: 1;"/><path class="box" d="M222.61,69.34H225.7M222.61,70.34H225.7V59.96H222.61ZM224.155,70.34V75.52M224.155,59.96V52.18" style="vector-effect: non-scaling-stroke; stroke-width: 2px; stroke: rgb(0, 0, 255); stroke-opacity: 1; fill: rgb(0, 0, 255); fill-opacity: 0.5; opacity: 1;"/><path class="box" d="M228.92,92.68H232.02M228.92,93.68H232.02V83.31H228.92ZM230.47,93.68V101.47M230.47,83.31V83.31" style="vector-effect: non-scaling-stroke; stroke-width: 2px; stroke: rgb(0, 0, 255); stroke-opacity: 1; fill: rgb(0, 0, 255); fill-opacity: 0.5; opacity: 1;"/><path class="box" d="M235.24,81.71H238.33M235.24,98.87H238.33V80.71H235.24ZM236.78500000000003,98.87V101.47M236.78500000000003,80.71V80.71" style="vector-effect: non-scaling-stroke; stroke-width: 2px; stroke: rgb(255, 0, 0); stroke-opacity: 1; fill: rgb(255, 0, 0); fill-opacity: 0.5; opacity: 1;"/><path class="box" d="M241.55,40.2H244.65M241.55,85.9H244.65V39.2H241.55ZM243.10000000000002,85.9V91.09M243.10000000000002,39.2V39.2" style="vector-effect: non-scaling-stroke; stroke-width: 2px; stroke: rgb(255, 0, 0); stroke-opacity: 1; fill: rgb(255, 0, 0); fill-opacity: 0.5; opacity: 1;"/><path class="box" d="M247.87,27.83H250.96M247.87,28.83H250.96V15.85H247.87ZM249.41500000000002,28.83V36.61M249.41500000000002,15.85V13.26" style="vector-effect: non-scaling-stroke; stroke-width: 2px; stroke: rgb(0, 0, 255); stroke-opacity: 1; fill: rgb(0, 0, 255); fill-opacity: 0.5; opacity: 1;"/><path class="box" d="M254.18,84.9H257.28M254.18,85.9H257.28V31.42H254.18ZM255.73,85.9V85.9M255.73,31.42V31.42" style="vector-effect: non-scaling-stroke; stroke-width: 2px; stroke: rgb(0, 0, 255); stroke-opacity: 1; fill: rgb(0, 0, 255); fill-opacity: 0.5; opacity: 1;"/><path class="box" d="M260.5,87.5H263.59M260.5,88.5H263.59V72.93H260.5ZM262.04499999999996,88.5V96.28M262.04499999999996,72.93V67.74" style="vector-effect: non-scaling-stroke; stroke-width: 2px; stroke: rgb(0, 0, 255); stroke-opacity: 1; fill: rgb(0, 0, 255); fill-opacity: 0.5; opacity: 1;"/><path class="box" d="M266.81,116.03H269.9M266.81,117.03H269.9V101.47H266.81ZM268.355,117.03V117.03M268.355,101.47V93.68" style="vector-effect: non-scaling-stroke; stroke-width: 2px; stroke: rgb(0, 0, 255); stroke-opacity: 1; fill: rgb(0, 0, 255); fill-opacity: 0.5; opacity: 1;"/><path class="box" d="M273.12,125.82H276.22M273.12,127.41H276.22V124.82H273.12ZM274.67,127.41V135.19M274.67,124.82V106.66" style="vector-effect: non-scaling-stroke; stroke-width: 2px; stroke: rgb(255, 0, 0); stroke-opacity: 1; fill: rgb(255, 0, 0); fill-opacity: 0.5; opacity: 1;"/><path class="box" d="M279.44,118.03H282.53M279.44,130.01H282.53V117.03H279.44ZM280.985,130.01V132.6M280.985,117.03V117.03" style="vector-effect: non-scaling-stroke; stroke-width: 2px; stroke: rgb(255, 0, 0); stroke-opacity: 1; fill: rgb(255, 0, 0); fill-opacity: 0.5; opacity: 1;"/><path class="box" d="M285.75,86.9H288.85M285.75,114.44H288.85V85.9H285.75ZM287.3,114.44V114.44M287.3,85.9V80.71" style="vector-effect: non-scaling-stroke; stroke-width: 2px; stroke: rgb(255, 0, 0); stroke-opacity: 1; fill: rgb(255, 0, 0); fill-opacity: 0.5; opacity: 1;"/><path class="box" d="M292.07,108.25H295.16M292.07,109.25H295.16V98.87H292.07ZM293.615,109.25V111.85M293.615,98.87V96.28" style="vector-effect: non-scaling-stroke; stroke-width: 2px; stroke: rgb(0, 0, 255); stroke-opacity: 1; fill: rgb(0, 0, 255); fill-opacity: 0.5; opacity: 1;"/><path class="box" d="M298.38,105.06H301.48M298.38,106.66H301.48V104.06H298.38ZM299.93,106.66V111.85M299.93,104.06V88.5" style="vector-effect: non-scaling-stroke; stroke-width: 2px; stroke: rgb(255, 0, 0); stroke-opacity: 1; fill: rgb(255, 0, 0); fill-opacity: 0.5; opacity: 1;"/><path class="box" d="M304.7,84.31H307.79M304.7,101.47H307.79V83.31H304.7ZM306.245,101.47V101.47M306.245,83.31V80.71" style="vector-effect: non-scaling-stroke; stroke-width: 2px; stroke: rgb(255, 0, 0); stroke-opacity: 1; fill: rgb(255, 0, 0); fill-opacity: 0.5; opacity: 1;"/><path class="box" d="M311.01,113.44H314.1M311.01,114.44H314.1V101.47H311.01ZM312.555,114.44V114.44M312.555,101.47V91.09" style="vector-effect: non-scaling-stroke; stroke-width: 2px; stroke: rgb(0, 0, 255); stroke-opacity: 1; fill: rgb(0, 0, 255); fill-opacity: 0.5; opacity: 1;"/><path class="box" d="M317.32,110.25H320.42M317.32,140.38H320.42V109.25H317.32ZM318.87,140.38V140.38M318.87,109.25V109.25" style="vector-effect: non-scaling-stroke; stroke-width: 2px; stroke: rgb(255, 0, 0); stroke-opacity: 1; fill: rgb(255, 0, 0); fill-opacity: 0.5; opacity: 1;"/><path class="box" d="M323.64,109.25H326.73M323.64,109.25H326.73V109.25H323.64ZM325.185,109.25V119.63M325.185,109.25V98.87" style="vector-effect: non-scaling-stroke; stroke-width: 2px; stroke: rgb(255, 0, 0); stroke-opacity: 1; fill: rgb(255, 0, 0); fill-opacity: 0.5; opacity: 1;"/><path class="box" d="M329.95,131.6H333.05M329.95,132.6H333.05V122.22H329.95ZM331.5,132.6V135.19M331.5,122.22V119.63" style="vector-effect: non-scaling-stroke; stroke-width: 2px; stroke: rgb(0, 0, 255); stroke-opacity: 1; fill: rgb(0, 0, 255); fill-opacity: 0.5; opacity: 1;"/><path class="box" d="M336.27,147.17H339.36M336.27,148.17H339.36V130.01H336.27ZM337.815,148.17V148.17M337.815,130.01V119.63" style="vector-effect: non-scaling-stroke; stroke-width: 2px; stroke: rgb(0, 0, 255); stroke-opacity: 1; fill: rgb(0, 0, 255); fill-opacity: 0.5; opacity: 1;"/><path class="box" d="M342.58,120.63H345.68M342.58,145.57H345.68V119.63H342.58ZM344.13,145.57V145.57M344.13,119.63V119.63" style="vector-effect: non-scaling-stroke; stroke-width: 2px; stroke: rgb(255, 0, 0); stroke-opacity: 1; fill: rgb(255, 0, 0); fill-opacity: 0.5; opacity: 1;"/><path class="box" d="M348.9,144.57H351.99M348.9,145.57H351.99V142.98H348.9ZM350.445,145.57V155.95M350.445,142.98V137.79" style="vector-effect: non-scaling-stroke; stroke-width: 2px; stroke: rgb(0, 0, 255); stroke-opacity: 1; fill: rgb(0, 0, 255); fill-opacity: 0.5; opacity: 1;"/><path class="box" d="M355.21,149.76H358.3M355.21,150.76H358.3V148.17H355.21ZM356.755,150.76V155.95M356.755,148.17V145.57" style="vector-effect: non-scaling-stroke; stroke-width: 2px; stroke: rgb(0, 0, 255); stroke-opacity: 1; fill: rgb(0, 0, 255); fill-opacity: 0.5; opacity: 1;"/><path class="box" d="M361.52,146.57H364.62M361.52,148.17H364.62V145.57H361.52ZM363.07,148.17V150.76M363.07,145.57V137.79" style="vector-effect: non-scaling-stroke; stroke-width: 2px; stroke: rgb(255, 0, 0); stroke-opacity: 1; fill: rgb(255, 0, 0); fill-opacity: 0.5; opacity: 1;"/><path class="box" d="M367.84,183.49H370.93M367.84,184.49H370.93V158.54H367.84ZM369.385,184.49V189.68M369.385,158.54V158.54" style="vector-effect: non-scaling-stroke; stroke-width: 2px; stroke: rgb(0, 0, 255); stroke-opacity: 1; fill: rgb(0, 0, 255); fill-opacity: 0.5; opacity: 1;"/><path class="box" d="M374.15,217.21H377.25M374.15,218.21H377.25V200.05H374.15ZM375.7,218.21V218.21M375.7,200.05V194.86" style="vector-effect: non-scaling-stroke; stroke-width: 2px; stroke: rgb(0, 0, 255); stroke-opacity: 1; fill: rgb(0, 0, 255); fill-opacity: 0.5; opacity: 1;"/><path class="box" d="M380.47,213.02H383.56M380.47,213.02H383.56V213.02H380.47ZM382.015,213.02V220.81M382.015,213.02V197.46" style="vector-effect: non-scaling-stroke; stroke-width: 2px; stroke: rgb(255, 0, 0); stroke-opacity: 1; fill: rgb(255, 0, 0); fill-opacity: 0.5; opacity: 1;"/><path class="box" d="M386.78,215.62H389.88M386.78,215.62H389.88V215.62H386.78ZM388.33,215.62V238.97M388.33,215.62V200.05" style="vector-effect: non-scaling-stroke; stroke-width: 2px; stroke: rgb(0, 0, 255); stroke-opacity: 1; fill: rgb(0, 0, 255); fill-opacity: 0.5; opacity: 1;"/><path class="box" d="M393.1,154.35H396.19M393.1,207.84H396.19V153.35H393.1ZM394.645,207.84V210.43M394.645,153.35V148.17" style="vector-effect: non-scaling-stroke; stroke-width: 2px; stroke: rgb(255, 0, 0); stroke-opacity: 1; fill: rgb(255, 0, 0); fill-opacity: 0.5; opacity: 1;"/><path class="box" d="M399.41,142.98H402.5M399.41,142.98H402.5V142.98H399.41ZM400.95500000000004,142.98V158.54M400.95500000000004,142.98V127.41" style="vector-effect: non-scaling-stroke; stroke-width: 2px; stroke: rgb(255, 0, 0); stroke-opacity: 1; fill: rgb(255, 0, 0); fill-opacity: 0.5; opacity: 1;"/><path class="box" d="M405.72,123.22H408.82M405.72,140.38H408.82V122.22H405.72ZM407.27,140.38V150.76M407.27,122.22V111.85" style="vector-effect: non-scaling-stroke; stroke-width: 2px; stroke: rgb(255, 0, 0); stroke-opacity: 1; fill: rgb(255, 0, 0); fill-opacity: 0.5; opacity: 1;"/><path class="box" d="M412.04,79.12H415.13M412.04,104.06H415.13V78.12H412.04ZM413.58500000000004,104.06V106.66M413.58500000000004,78.12V78.12" style="vector-effect: non-scaling-stroke; stroke-width: 2px; stroke: rgb(255, 0, 0); stroke-opacity: 1; fill: rgb(255, 0, 0); fill-opacity: 0.5; opacity: 1;"/><path class="box" d="M418.35,86.9H421.45M418.35,91.09H421.45V85.9H418.35ZM419.9,91.09V98.87M419.9,85.9V67.74" style="vector-effect: non-scaling-stroke; stroke-width: 2px; stroke: rgb(255, 0, 0); stroke-opacity: 1; fill: rgb(255, 0, 0); fill-opacity: 0.5; opacity: 1;"/><path class="box" d="M424.67,82.31H427.76M424.67,83.31H427.76V70.34H424.67ZM426.21500000000003,83.31V88.5M426.21500000000003,70.34V65.15" style="vector-effect: non-scaling-stroke; stroke-width: 2px; stroke: rgb(0, 0, 255); stroke-opacity: 1; fill: rgb(0, 0, 255); fill-opacity: 0.5; opacity: 1;"/><path class="box" d="M430.98,82.31H434.08M430.98,83.31H434.08V67.74H430.98ZM432.53,83.31V98.87M432.53,67.74V65.15" style="vector-effect: non-scaling-stroke; stroke-width: 2px; stroke: rgb(0, 0, 255); stroke-opacity: 1; fill: rgb(0, 0, 255); fill-opacity: 0.5; opacity: 1;"/><path class="box" d="M437.3,76.52H440.39M437.3,83.31H440.39V75.52H437.3ZM438.845,83.31V85.9M438.845,75.52V65.15" style="vector-effect: non-scaling-stroke; stroke-width: 2px; stroke: rgb(255, 0, 0); stroke-opacity: 1; fill: rgb(255, 0, 0); fill-opacity: 0.5; opacity: 1;"/></g></g><g class="scatterlayer mlayer"><g class="trace scatter trace0dc007" style="stroke-miterlimit: 2; opacity: 1;"><g class="fills"/><g class="errorbars"/><g class="lines"><path class="js-line" d="M28.41,205.76L34.73,205.76L41.04,203.69L47.36,197.98L53.67,197.98L59.99,196.42L66.3,198.5L72.61,193.83L78.93,187.6L91.56,148.17L97.87,140.9L104.19,131.04L110.5,119.11L116.81,118.07L123.13,119.63L129.44,108.73L135.76,104.58L142.07,95.24L148.39,82.79L154.7,76.56L161.01,58.4L167.33,49.58L173.64,46.47L179.96,42.84L186.27,37.65L192.59,43.35L198.9,45.95L211.53,64.11L217.84,64.11L224.16,68.26L230.47,75.01L236.79,75.01L243.1,68.78L249.41,62.55L255.73,65.67L262.04,64.63L268.36,71.89L280.99,106.66L287.3,106.66L293.61,110.81L299.93,108.21L306.24,99.91L312.56,99.39L318.87,104.06L325.19,104.06L331.5,109.77L337.81,122.74L344.13,123.78L350.44,131.04L356.76,139.35L363.07,141.94L369.39,149.2L375.7,168.92L388.33,195.38L394.64,196.94L400.96,188.64L407.27,169.44L419.9,116.52L426.21,102.51L432.53,90.57L438.84,81.23" style="vector-effect: non-scaling-stroke; fill: none; stroke: rgb(8, 48, 107); stroke-opacity: 1; stroke-width: 2px; opacity: 1;"/></g><g class="points"/><g class="text"/></g><g class="trace scatter traceb5468b" style="stroke-miterlimit: 2; opacity: 1;"><g class="fills"/><g class="errorbars"/><g class="lines"><path class="js-line" d="M123.13,167.49L129.44,163.47L135.76,158.28L148.39,141.94L154.7,135.19L161.01,126.63L167.33,119.76L173.64,112.1L179.96,103.15L192.59,87.85L198.9,82.79L205.21,79.03L211.53,76.95L217.84,74.49L224.16,69.69L236.79,68L243.1,64.63L249.41,60.22L255.73,58.92L262.04,58.79L268.36,62.16L274.67,66.18L280.99,67.74L306.24,80.45L312.56,83.18L325.19,88.63L331.5,91.22L337.81,95.11L344.13,98.1L350.44,101.86L356.76,104.71L363.07,107.95L369.39,115.22L375.7,124.69L382.01,131.04L388.33,137.4L394.64,139.22L407.27,140.38L413.59,139.99L426.21,137.79L432.53,137.79L438.84,135.84" style="vector-effect: non-scaling-stroke; fill: none; stroke: rgb(33, 113, 181); stroke-opacity: 1; stroke-width: 2px; opacity: 1; stroke-dasharray: 9px, 9px;"/></g><g class="points"/><g class="text"/></g><g class="trace scatter trace078b5c" style="stroke-miterlimit: 2; opacity: 1;"><g class="fills"/><g class="errorbars"/><g class="lines"><path class="js-line" d="M249.41,113.86L268.36,106.07L274.67,104.06L293.61,96.93L299.93,94.85L312.56,89.34L318.87,87L331.5,85.12L337.81,86.03L344.13,86.29L350.44,85.77L363.07,87.98L369.39,89.92L400.96,103.15L407.27,104.06L432.53,109.12L438.84,109.51" style="vector-effect: non-scaling-stroke; fill: none; stroke: rgb(107, 174, 214); stroke-opacity: 1; stroke-width: 2px; opacity: 1; stroke-dasharray: 3px, 3px;"/></g><g class="points"/><g class="text"/></g></g></g><g class="overplot"/><path class="xlines-above crisp" d="M0,0" style="fill: none;"/><path class="ylines-above crisp" d="M0,0" style="fill: none;"/><g class="overlines-above"/><g class="xaxislayer-above"/><g class="yaxislayer-above"><g class="ytick"><text text-anchor="end" x="37" y="4.199999999999999" transform="translate(0,321.44)" style="font-family: 'Open Sans', verdana, arial, sans-serif; font-size: 12px; fill: rgb(68, 68, 68); fill-opacity: 1; white-space: pre; opacity: 1;">54k</text></g><g class="ytick"><text text-anchor="end" x="37" y="4.199999999999999" style="font-family: 'Open Sans', verdana, arial, sans-serif; font-size: 12px; fill: rgb(68, 68, 68); fill-opacity: 1; white-space: pre; opacity: 1;" transform="translate(0,269.55)">56k</text></g><g class="ytick"><text text-anchor="end" x="37" y="4.199999999999999" style="font-family: 'Open Sans', verdana, arial, sans-serif; font-size: 12px; fill: rgb(68, 68, 68); fill-opacity: 1; white-space: pre; opacity: 1;" transform="translate(0,217.67000000000002)">58k</text></g><g class="ytick"><text text-anchor="end" x="37" y="4.199999999999999" style="font-family: 'Open Sans', verdana, arial, sans-serif; font-size: 12px; fill: rgb(68, 68, 68); fill-opacity: 1; white-space: pre; opacity: 1;" transform="translate(0,165.78000000000003)">60k</text></g><g class="ytick"><text text-anchor="end" x="37" y="4.199999999999999" style="font-family: 'Open Sans', verdana, arial, sans-serif; font-size: 12px; fill: rgb(68, 68, 68); fill-opacity: 1; white-space: pre; opacity: 1;" transform="translate(0,113.89000000000001)">62k</text></g></g><g class="overaxes-above"/></g><g class="subplot xy2"><g class="layer-subplot"><g class="shapelayer"/><g class="imagelayer"/></g><g class="gridlayer"><g class="x"/><g class="y2"><path class="y2grid crisp" transform="translate(0,405.17)" d="M38,0h442" style="stroke: rgb(238, 238, 238); stroke-opacity: 1; stroke-width: 1px;"/><path class="y2grid crisp" transform="translate(0,389.85)" d="M38,0h442" style="stroke: rgb(238, 238, 238); stroke-opacity: 1; stroke-width: 1px;"/><path class="y2grid crisp" transform="translate(0,374.52)" d="M38,0h442" style="stroke: rgb(238, 238, 238); stroke-opacity: 1; stroke-width: 1px;"/><path class="y2grid crisp" transform="translate(0,359.19)" d="M38,0h442" style="stroke: rgb(238, 238, 238); stroke-opacity: 1; stroke-width: 1px;"/></g></g><g class="zerolinelayer"><path class="y2zl zl crisp" transform="translate(0,420.5)" d="M38,0h442" style="stroke: rgb(68, 68, 68); stroke-opacity: 1; stroke-width: 1px;"/></g><path class="xlines-below"/><path class="ylines-below"/><g class="overlines-below"/><g class="xaxislayer-below"/><g class="yaxislayer-below"/><g class="overaxes-below"/><g class="plot" transform="translate(38,350.3)" clip-path="url(#clip4fc5d8xy2plot)"><g class="barlayer mlayer"><g class="trace bars" style="opacity: 1;"><g class="points"><g class="point"><path d="M0.63,70.2V24.39H5.68V70.2Z" style="vector-effect: non-scaling-stroke; opacity: 1; stroke-width: 0px; fill: rgb(190, 190, 190); fill-opacity: 1;"/></g><g class="point"><path d="M6.95,70.2V18.44H12V70.2Z" style="vector-effect: non-scaling-stroke; opacity: 1; stroke-width: 0px; fill: rgb(190, 190, 190); fill-opacity: 1;"/></g><g class="point"><path d="M13.26,70.2V4.49H18.31V70.2Z" style="vector-effect: non-scaling-stroke; opacity: 1; stroke-width: 0px; fill: rgb(190, 190, 190); fill-opacity: 1;"/></g><g class="point"><path d="M19.57,70.2V13.77H24.63V70.2Z" style="vector-effect: non-scaling-stroke; opacity: 1; stroke-width: 0px; fill: rgb(190, 190, 190); fill-opacity: 1;"/></g><g class="point"><path d="M25.89,70.2V27.95H30.94V70.2Z" style="vector-effect: non-scaling-stroke; opacity: 1; stroke-width: 0px; fill: rgb(190, 190, 190); fill-opacity: 1;"/></g><g class="point"><path d="M32.2,70.2V30.58H37.25V70.2Z" style="vector-effect: non-scaling-stroke; opacity: 1; stroke-width: 0px; fill: rgb(190, 190, 190); fill-opacity: 1;"/></g><g class="point"><path d="M38.52,70.2V28.38H43.57V70.2Z" style="vector-effect: non-scaling-stroke; opacity: 1; stroke-width: 0px; fill: rgb(190, 190, 190); fill-opacity: 1;"/></g><g class="point"><path d="M44.83,70.2V24.77H49.88V70.2Z" style="vector-effect: non-scaling-stroke; opacity: 1; stroke-width: 0px; fill: rgb(190, 190, 190); fill-opacity: 1;"/></g><g class="point"><path d="M51.15,70.2V31.39H56.2V70.2Z" style="vector-effect: non-scaling-stroke; opacity: 1; stroke-width: 0px; fill: rgb(190, 190, 190); fill-opacity: 1;"/></g><g class="point"><path d="M57.46,70.2V17.76H62.51V70.2Z" style="vector-effect: non-scaling-stroke; opacity: 1; stroke-width: 0px; fill: rgb(190, 190, 190); fill-opacity: 1;"/></g><g class="point"><path d="M63.77,70.2V35.08H68.83V70.2Z" style="vector-effect: non-scaling-stroke; opacity: 1; stroke-width: 0px; fill: rgb(190, 190, 190); fill-opacity: 1;"/></g><g class="point"><path d="M70.09,70.2V18.26H75.14V70.2Z" style="vector-effect: non-scaling-stroke; opacity: 1; stroke-width: 0px; fill: rgb(190, 190, 190); fill-opacity: 1;"/></g><g class="point"><path d="M76.4,70.2V16.85H81.45V70.2Z" style="vector-effect: non-scaling-stroke; opacity: 1; stroke-width: 0px; fill: rgb(190, 190, 190); fill-opacity: 1;"/></g><g class="point"><path d="M82.72,70.2V6.37H87.77V70.2Z" style="vector-effect: non-scaling-stroke; opacity: 1; stroke-width: 0px; fill: rgb(190, 190, 190); fill-opacity: 1;"/></g><g class="point"><path d="M89.03,70.2V3.51H94.08V70.2Z" style="vector-effect: non-scaling-stroke; opacity: 1; stroke-width: 0px; fill: rgb(190, 190, 190); fill-opacity: 1;"/></g><g class="point"><path d="M95.35,70.2V6.06H100.4V70.2Z" style="vector-effect: non-scaling-stroke; opacity: 1; stroke-width: 0px; fill: rgb(190, 190, 190); fill-opacity: 1;"/></g><g class="point"><path d="M101.66,70.2V11.96H106.71V70.2Z" style="vector-effect: non-scaling-stroke; opacity: 1; stroke-width: 0px; fill: rgb(190, 190, 190); fill-opacity: 1;"/></g><g class="point"><path d="M107.97,70.2V17.47H113.03V70.2Z" style="vector-effect: non-scaling-stroke; opacity: 1; stroke-width: 0px; fill: rgb(190, 190, 190); fill-opacity: 1;"/></g><g class="point"><path d="M114.29,70.2V29.73H119.34V70.2Z" style="vector-effect: non-scaling-stroke; opacity: 1; stroke-width: 0px; fill: rgb(190, 190, 190); fill-opacity: 1;"/></g><g class="point"><path d="M120.6,70.2V16.58H125.65V70.2Z" style="vector-effect: non-scaling-stroke; opacity: 1; stroke-width: 0px; fill: rgb(190, 190, 190); fill-opacity: 1;"/></g><g class="point"><path d="M126.92,70.2V32.05H131.97V70.2Z" style="vector-effect: non-scaling-stroke; opacity: 1; stroke-width: 0px; fill: rgb(190, 190, 190); fill-opacity: 1;"/></g><g class="point"><path d="M133.23,70.2V32.08H138.28V70.2Z" style="vector-effect: non-scaling-stroke; opacity: 1; stroke-width: 0px; fill: rgb(190, 190, 190); fill-opacity: 1;"/></g><g class="point"><path d="M139.55,70.2V14.19H144.6V70.2Z" style="vector-effect: non-scaling-stroke; opacity: 1; stroke-width: 0px; fill: rgb(190, 190, 190); fill-opacity: 1;"/></g><g class="point"><path d="M145.86,70.2V27.15H150.91V70.2Z" style="vector-effect: non-scaling-stroke; opacity: 1; stroke-width: 0px; fill: rgb(190, 190, 190); fill-opacity: 1;"/></g><g class="point"><path d="M152.17,70.2V5.56H157.23V70.2Z" style="vector-effect: non-scaling-stroke; opacity: 1; stroke-width: 0px; fill: rgb(190, 190, 190); fill-opacity: 1;"/></g><g class="point"><path d="M158.49,70.2V8.78H163.54V70.2Z" style="vector-effect: non-scaling-stroke; opacity: 1; stroke-width: 0px; fill: rgb(190, 190, 190); fill-opacity: 1;"/></g><g class="point"><path d="M164.8,70.2V21.24H169.85V70.2Z" style="vector-effect: non-scaling-stroke; opacity: 1; stroke-width: 0px; fill: rgb(190, 190, 190); fill-opacity: 1;"/></g><g class="point"><path d="M171.12,70.2V32.46H176.17V70.2Z" style="vector-effect: non-scaling-stroke; opacity: 1; stroke-width: 0px; fill: rgb(190, 190, 190); fill-opacity: 1;"/></g><g class="point"><path d="M177.43,70.2V30.63H182.48V70.2Z" style="vector-effect: non-scaling-stroke; opacity: 1; stroke-width: 0px; fill: rgb(190, 190, 190); fill-opacity: 1;"/></g><g class="point"><path d="M183.75,70.2V29.44H188.8V70.2Z" style="vector-effect: non-scaling-stroke; opacity: 1; stroke-width: 0px; fill: rgb(190, 190, 190); fill-opacity: 1;"/></g><g class="point"><path d="M190.06,70.2V32.69H195.11V70.2Z" style="vector-effect: non-scaling-stroke; opacity: 1; stroke-width: 0px; fill: rgb(190, 190, 190); fill-opacity: 1;"/></g><g class="point"><path d="M196.37,70.2V41.45H201.43V70.2Z" style="vector-effect: non-scaling-stroke; opacity: 1; stroke-width: 0px; fill: rgb(190, 190, 190); fill-opacity: 1;"/></g><g class="point"><path d="M202.69,70.2V41.35H207.74V70.2Z" style="vector-effect: non-scaling-stroke; opacity: 1; stroke-width: 0px; fill: rgb(190, 190, 190); fill-opacity: 1;"/></g><g class="point"><path d="M209,70.2V43.33H214.05V70.2Z" style="vector-effect: non-scaling-stroke; opacity: 1; stroke-width: 0px; fill: rgb(190, 190, 190); fill-opacity: 1;"/></g><g class="point"><path d="M215.32,70.2V45.29H220.37V70.2Z" style="vector-effect: non-scaling-stroke; opacity: 1; stroke-width: 0px; fill: rgb(190, 190, 190); fill-opacity: 1;"/></g><g class="point"><path d="M221.63,70.2V49.73H226.68V70.2Z" style="vector-effect: non-scaling-stroke; opacity: 1; stroke-width: 0px; fill: rgb(190, 190, 190); fill-opacity: 1;"/></g><g class="point"><path d="M227.95,70.2V43.87H233V70.2Z" style="vector-effect: non-scaling-stroke; opacity: 1; stroke-width: 0px; fill: rgb(190, 190, 190); fill-opacity: 1;"/></g><g class="point"><path d="M234.26,70.2V48.7H239.31V70.2Z" style="vector-effect: non-scaling-stroke; opacity: 1; stroke-width: 0px; fill: rgb(190, 190, 190); fill-opacity: 1;"/></g><g class="point"><path d="M240.57,70.2V9.6H245.63V70.2Z" style="vector-effect: non-scaling-stroke; opacity: 1; stroke-width: 0px; fill: rgb(190, 190, 190); fill-opacity: 1;"/></g><g class="point"><path d="M246.89,70.2V19.22H251.94V70.2Z" style="vector-effect: non-scaling-stroke; opacity: 1; stroke-width: 0px; fill: rgb(190, 190, 190); fill-opacity: 1;"/></g><g class="point"><path d="M253.2,70.2V23.21H258.25V70.2Z" style="vector-effect: non-scaling-stroke; opacity: 1; stroke-width: 0px; fill: rgb(190, 190, 190); fill-opacity: 1;"/></g><g class="point"><path d="M259.52,70.2V28H264.57V70.2Z" style="vector-effect: non-scaling-stroke; opacity: 1; stroke-width: 0px; fill: rgb(190, 190, 190); fill-opacity: 1;"/></g><g class="point"><path d="M265.83,70.2V27.63H270.88V70.2Z" style="vector-effect: non-scaling-stroke; opacity: 1; stroke-width: 0px; fill: rgb(190, 190, 190); fill-opacity: 1;"/></g><g class="point"><path d="M272.15,70.2V33.11H277.2V70.2Z" style="vector-effect: non-scaling-stroke; opacity: 1; stroke-width: 0px; fill: rgb(190, 190, 190); fill-opacity: 1;"/></g><g class="point"><path d="M278.46,70.2V30.39H283.51V70.2Z" style="vector-effect: non-scaling-stroke; opacity: 1; stroke-width: 0px; fill: rgb(190, 190, 190); fill-opacity: 1;"/></g><g class="point"><path d="M284.77,70.2V37.92H289.83V70.2Z" style="vector-effect: non-scaling-stroke; opacity: 1; stroke-width: 0px; fill: rgb(190, 190, 190); fill-opacity: 1;"/></g><g class="point"><path d="M291.09,70.2V42.5H296.14V70.2Z" style="vector-effect: non-scaling-stroke; opacity: 1; stroke-width: 0px; fill: rgb(190, 190, 190); fill-opacity: 1;"/></g><g class="point"><path d="M297.4,70.2V42.49H302.45V70.2Z" style="vector-effect: non-scaling-stroke; opacity: 1; stroke-width: 0px; fill: rgb(190, 190, 190); fill-opacity: 1;"/></g><g class="point"><path d="M303.72,70.2V45.04H308.77V70.2Z" style="vector-effect: non-scaling-stroke; opacity: 1; stroke-width: 0px; fill: rgb(190, 190, 190); fill-opacity: 1;"/></g><g class="point"><path d="M310.03,70.2V43.48H315.08V70.2Z" style="vector-effect: non-scaling-stroke; opacity: 1; stroke-width: 0px; fill: rgb(190, 190, 190); fill-opacity: 1;"/></g><g class="point"><path d="M316.35,70.2V30.25H321.4V70.2Z" style="vector-effect: non-scaling-stroke; opacity: 1; stroke-width: 0px; fill: rgb(190, 190, 190); fill-opacity: 1;"/></g><g class="point"><path d="M322.66,70.2V46.61H327.71V70.2Z" style="vector-effect: non-scaling-stroke; opacity: 1; stroke-width: 0px; fill: rgb(190, 190, 190); fill-opacity: 1;"/></g><g class="point"><path d="M328.97,70.2V41.74H334.03V70.2Z" style="vector-effect: non-scaling-stroke; opacity: 1; stroke-width: 0px; fill: rgb(190, 190, 190); fill-opacity: 1;"/></g><g class="point"><path d="M335.29,70.2V38.45H340.34V70.2Z" style="vector-effect: non-scaling-stroke; opacity: 1; stroke-width: 0px; fill: rgb(190, 190, 190); fill-opacity: 1;"/></g><g class="point"><path d="M341.6,70.2V37.34H346.65V70.2Z" style="vector-effect: non-scaling-stroke; opacity: 1; stroke-width: 0px; fill: rgb(190, 190, 190); fill-opacity: 1;"/></g><g class="point"><path d="M347.92,70.2V40.07H352.97V70.2Z" style="vector-effect: non-scaling-stroke; opacity: 1; stroke-width: 0px; fill: rgb(190, 190, 190); fill-opacity: 1;"/></g><g class="point"><path d="M354.23,70.2V49.49H359.28V70.2Z" style="vector-effect: non-scaling-stroke; opacity: 1; stroke-width: 0px; fill: rgb(190, 190, 190); fill-opacity: 1;"/></g><g class="point"><path d="M360.55,70.2V37.5H365.6V70.2Z" style="vector-effect: non-scaling-stroke; opacity: 1; stroke-width: 0px; fill: rgb(190, 190, 190); fill-opacity: 1;"/></g><g class="point"><path d="M366.86,70.2V25.25H371.91V70.2Z" style="vector-effect: non-scaling-stroke; opacity: 1; stroke-width: 0px; fill: rgb(190, 190, 190); fill-opacity: 1;"/></g><g class="point"><path d="M373.17,70.2V35.58H378.23V70.2Z" style="vector-effect: non-scaling-stroke; opacity: 1; stroke-width: 0px; fill: rgb(190, 190, 190); fill-opacity: 1;"/></g><g class="point"><path d="M379.49,70.2V39.45H384.54V70.2Z" style="vector-effect: non-scaling-stroke; opacity: 1; stroke-width: 0px; fill: rgb(190, 190, 190); fill-opacity: 1;"/></g><g class="point"><path d="M385.8,70.2V28.67H390.85V70.2Z" style="vector-effect: non-scaling-stroke; opacity: 1; stroke-width: 0px; fill: rgb(190, 190, 190); fill-opacity: 1;"/></g><g class="point"><path d="M392.12,70.2V8.32H397.17V70.2Z" style="vector-effect: non-scaling-stroke; opacity: 1; stroke-width: 0px; fill: rgb(190, 190, 190); fill-opacity: 1;"/></g><g class="point"><path d="M398.43,70.2V22.13H403.48V70.2Z" style="vector-effect: non-scaling-stroke; opacity: 1; stroke-width: 0px; fill: rgb(190, 190, 190); fill-opacity: 1;"/></g><g class="point"><path d="M404.75,70.2V17.06H409.8V70.2Z" style="vector-effect: non-scaling-stroke; opacity: 1; stroke-width: 0px; fill: rgb(190, 190, 190); fill-opacity: 1;"/></g><g class="point"><path d="M411.06,70.2V13.06H416.11V70.2Z" style="vector-effect: non-scaling-stroke; opacity: 1; stroke-width: 0px; fill: rgb(190, 190, 190); fill-opacity: 1;"/></g><g class="point"><path d="M417.37,70.2V24.65H422.43V70.2Z" style="vector-effect: non-scaling-stroke; opacity: 1; stroke-width: 0px; fill: rgb(190, 190, 190); fill-opacity: 1;"/></g><g class="point"><path d="M423.69,70.2V32.46H428.74V70.2Z" style="vector-effect: non-scaling-stroke; opacity: 1; stroke-width: 0px; fill: rgb(190, 190, 190); fill-opacity: 1;"/></g><g class="point"><path d="M430,70.2V20.84H435.05V70.2Z" style="vector-effect: non-scaling-stroke; opacity: 1; stroke-width: 0px; fill: rgb(190, 190, 190); fill-opacity: 1;"/></g><g class="point"><path d="M436.32,70.2V31.91H441.37V70.2Z" style="vector-effect: non-scaling-stroke; opacity: 1; stroke-width: 0px; fill: rgb(190, 190, 190); fill-opacity: 1;"/></g></g></g></g></g><g class="overplot"/><path class="xlines-above crisp" d="M0,0" style="fill: none;"/><path class="ylines-above crisp" d="M0,0" style="fill: none;"/><g class="overlines-above"/><g class="xaxislayer-above"><g class="xtick"><text text-anchor="middle" x="0" y="433.5" transform="translate(148.5,0)" style="font-family: 'Open Sans', verdana, arial, sans-serif; font-size: 12px; fill: rgb(68, 68, 68); fill-opacity: 1; white-space: pre; opacity: 1;">Nov 2022</text></g><g class="xtick"><text text-anchor="middle" x="0" y="433.5" style="font-family: 'Open Sans', verdana, arial, sans-serif; font-size: 12px; fill: rgb(68, 68, 68); fill-opacity: 1; white-space: pre; opacity: 1;" transform="translate(287.40999999999997,0)">Dec 2022</text></g><g class="xtick"><text text-anchor="middle" x="0" y="433.5" style="font-family: 'Open Sans', verdana, arial, sans-serif; font-size: 12px; fill: rgb(68, 68, 68); fill-opacity: 1; white-space: pre; opacity: 1;" transform="translate(420.01,0)">Jan 2023</text></g></g><g class="yaxislayer-above"><g class="y2tick"><text text-anchor="end" x="37" y="4.199999999999999" transform="translate(0,420.5)" style="font-family: 'Open Sans', verdana, arial, sans-serif; font-size: 12px; fill: rgb(68, 68, 68); fill-opacity: 1; white-space: pre; opacity: 1;">0</text></g><g class="y2tick"><text text-anchor="end" x="37" y="4.199999999999999" style="font-family: 'Open Sans', verdana, arial, sans-serif; font-size: 12px; fill: rgb(68, 68, 68); fill-opacity: 1; white-space: pre; opacity: 1;" transform="translate(0,405.17)">5M</text></g><g class="y2tick"><text text-anchor="end" x="37" y="4.199999999999999" style="font-family: 'Open Sans', verdana, arial, sans-serif; font-size: 12px; fill: rgb(68, 68, 68); fill-opacity: 1; white-space: pre; opacity: 1;" transform="translate(0,389.85)">10M</text></g><g class="y2tick"><text text-anchor="end" x="37" y="4.199999999999999" style="font-family: 'Open Sans', verdana, arial, sans-serif; font-size: 12px; fill: rgb(68, 68, 68); fill-opacity: 1; white-space: pre; opacity: 1;" transform="translate(0,374.52)">15M</text></g><g class="y2tick"><text text-anchor="end" x="37" y="4.199999999999999" style="font-family: 'Open Sans', verdana, arial, sans-serif; font-size: 12px; fill: rgb(68, 68, 68); fill-opacity: 1; white-space: pre; opacity: 1;" transform="translate(0,359.19)">20M</text></g></g><g class="overaxes-above"/></g></g><g class="polarlayer"/><g class="ternarylayer"/><g class="geolayer"/><g class="funnelarealayer"/><g class="pielayer"/><g class="iciclelayer"/><g class="treemaplayer"/><g class="sunburstlayer"/><g class="glimages"/><defs id="topdefs-4fc5d8"><g class="clips"/><clipPath id="legend4fc5d8"><rect width="125" height="67" x="0" y="0"/></clipPath></defs><g class="layer-above"><g class="imagelayer"/><g class="shapelayer"/></g><g class="infolayer"><g class="legend" pointer-events="all" transform="translate(488.84000000000003,50)"><rect class="bg" shape-rendering="crispEdges" width="125" height="67" x="0" y="0" style="stroke: rgb(68, 68, 68); stroke-opacity: 1; fill: rgb(255, 255, 255); fill-opacity: 1; stroke-width: 0px;"/><g class="scrollbox" transform="" clip-path="url(#legend4fc5d8)"><g class="groups"><g class="traces" transform="translate(0,14.5)" style="opacity: 1;"><text class="legendtext" text-anchor="start" x="40" y="4.680000000000001" style="font-family: 'Open Sans', verdana, arial, sans-serif; font-size: 12px; fill: rgb(68, 68, 68); fill-opacity: 1; white-space: pre;">5일 이동평균</text><g class="layers" style="opacity: 1;"><g class="legendfill"/><g class="legendlines"><path class="js-line" d="M5,0h30" style="fill: none; stroke: rgb(8, 48, 107); stroke-opacity: 1; stroke-width: 2px;"/></g><g class="legendsymbols"><g class="legendpoints"/></g></g><rect class="legendtoggle" x="0" y="-9.5" width="119.46910095214844" height="19" style="fill: rgb(0, 0, 0); fill-opacity: 0;"/></g><g class="traces" transform="translate(0,33.5)" style="opacity: 1;"><text class="legendtext" text-anchor="start" x="40" y="4.680000000000001" style="font-family: 'Open Sans', verdana, arial, sans-serif; font-size: 12px; fill: rgb(68, 68, 68); fill-opacity: 1; white-space: pre;">20일 이동평균</text><g class="layers" style="opacity: 1;"><g class="legendfill"/><g class="legendlines"><path class="js-line" d="M5,0h30" style="fill: none; stroke: rgb(33, 113, 181); stroke-opacity: 1; stroke-dasharray: 9px, 9px; stroke-width: 2px;"/></g><g class="legendsymbols"><g class="legendpoints"/></g></g><rect class="legendtoggle" x="0" y="-9.5" width="119.46910095214844" height="19" style="fill: rgb(0, 0, 0); fill-opacity: 0;"/></g><g class="traces" transform="translate(0,52.5)" style="opacity: 1;"><text class="legendtext" text-anchor="start" x="40" y="4.680000000000001" style="font-family: 'Open Sans', verdana, arial, sans-serif; font-size: 12px; fill: rgb(68, 68, 68); fill-opacity: 1; white-space: pre;">40일 이동평균</text><g class="layers" style="opacity: 1;"><g class="legendfill"/><g class="legendlines"><path class="js-line" d="M5,0h30" style="fill: none; stroke: rgb(107, 174, 214); stroke-opacity: 1; stroke-dasharray: 3px, 3px; stroke-width: 2px;"/></g><g class="legendsymbols"><g class="legendpoints"/></g></g><rect class="legendtoggle" x="0" y="-9.5" width="119.46910095214844" height="19" style="fill: rgb(0, 0, 0); fill-opacity: 0;"/></g></g></g><rect class="scrollbar" rx="20" ry="3" width="0" height="0" x="0" y="0" style="fill: rgb(128, 139, 164); fill-opacity: 1;"/></g><g class="g-gtitle"><text class="gtitle" x="313.182" y="25" text-anchor="middle" dy="0em" style="font-family: 'Open Sans', verdana, arial, sans-serif; font-size: 17px; fill: rgb(68, 68, 68); opacity: 1; font-weight: normal; white-space: pre;">삼성전자 Candlestick Chart</text></g><g class="g-xtitle" transform="translate(0,-9.780174179077164)"><text class="xtitle" x="259" y="472.5" text-anchor="middle" style="font-family: 'Open Sans', verdana, arial, sans-serif; font-size: 14px; fill: rgb(68, 68, 68); opacity: 1; font-weight: normal; white-space: pre;">date</text></g><g class="g-ytitle"/><g class="g-y2title"/></g></svg>