<svg class="main-svg" xmlns="http://www.w3.org/2000/svg" xmlns:xlink="http://www.w3.org/1999/xlink" width="626.364" height="465.455" style="" viewBox="0 0 626.364 465.455"><rect x="0" y="0" width="626.364" height="465.455" style="fill: rgb(255, 255, 255); fill-opacity: 1;"/><defs id="defs-a9f00a"><g class="clips"><clipPath id="clipa9f00axyplot" class="plotclip"><rect width="421" height="373"/></clipPath><clipPath class="axesclip" id="clipa9f00ax"><rect x="116" y="0" width="421" height="465.455"/></clipPath><clipPath class="axesclip" id="clipa9f00ay"><rect x="0" y="50" width="626.364" height="373"/></clipPath><clipPath class="axesclip" id="clipa9f00axy"><rect x="116" y="50" width="421" height="373"/></clipPath></g><g class="gradients"/><g class="patterns"/></defs><g class="bglayer"/><g class="layer-below"><g class="imagelayer"/><g class="shapelayer"/></g><g class="cartesianlayer"><g class="subplot xy"><g class="layer-subplot"><g class="shapelayer"/><g class="imagelayer"/></g><g class="gridlayer"><g class="x"><path class="xgrid crisp" transform="translate(256.15999999999997,0)" d="M0,50v373" style="stroke: rgb(238, 238, 238); stroke-opacity: 1; stroke-width: 1px;"/><path class="xgrid crisp" transform="translate(371.52,0)" d="M0,50v373" style="stroke: rgb(238, 238, 238); stroke-opacity: 1; stroke-width: 1px;"/><path class="xgrid crisp" transform="translate(486.89,0)" d="M0,50v373" style="stroke: rgb(238, 238, 238); stroke-opacity: 1; stroke-width: 1px;"/></g><g class="y"><path class="ygrid crisp" transform="translate(0,400.6)" d="M116,0h421" style="stroke: rgb(238, 238, 238); stroke-opacity: 1; stroke-width: 1px;"/><path class="ygrid crisp" transform="translate(0,334.96)" d="M116,0h421" style="stroke: rgb(238, 238, 238); stroke-opacity: 1; stroke-width: 1px;"/><path class="ygrid crisp" transform="translate(0,269.32)" d="M116,0h421" style="stroke: rgb(238, 238, 238); stroke-opacity: 1; stroke-width: 1px;"/><path class="ygrid crisp" transform="translate(0,203.68)" d="M116,0h421" style="stroke: rgb(238, 238, 238); stroke-opacity: 1; stroke-width: 1px;"/><path class="ygrid crisp" transform="translate(0,138.04000000000002)" d="M116,0h421" style="stroke: rgb(238, 238, 238); stroke-opacity: 1; stroke-width: 1px;"/><path class="ygrid crisp" transform="translate(0,72.4)" d="M116,0h421" style="stroke: rgb(238, 238, 238); stroke-opacity: 1; stroke-width: 1px;"/></g></g><g class="zerolinelayer"><path class="xzl zl crisp" transform="translate(140.8,0)" d="M0,50v373" style="stroke: rgb(68, 68, 68); stroke-opacity: 1; stroke-width: 1px;"/></g><path class="xlines-below"/><path class="ylines-below"/><g class="overlines-below"/><g class="xaxislayer-below"/><g class="yaxislayer-below"/><g class="overaxes-below"/><g class="plot" transform="translate(116,50)" clip-path="url(#clipa9f00axyplot)"><g class="scatterlayer mlayer"><g class="trace scatter trace5e4037" style="stroke-miterlimit: 2; opacity: 1;"><g class="fills"/><g class="errorbars"/><g class="lines"><path class="js-line" d="M24.97,22.4L161.54,22.4" style="vector-effect: non-scaling-stroke; fill: none; stroke: rgb(190, 190, 190); stroke-opacity: 1; stroke-width: 2px; opacity: 1;"/><path class="js-line" d="M24.81,88.04L119.07,88.04" style="vector-effect: non-scaling-stroke; fill: none; stroke: rgb(190, 190, 190); stroke-opacity: 1; stroke-width: 2px; opacity: 1;"/><path class="js-line" d="M24.8,153.68L257.08,153.68" style="vector-effect: non-scaling-stroke; fill: none; stroke: rgb(190, 190, 190); stroke-opacity: 1; stroke-width: 2px; opacity: 1;"/><path class="js-line" d="M29.09,219.32L212.2,219.32" style="vector-effect: non-scaling-stroke; fill: none; stroke: rgb(190, 190, 190); stroke-opacity: 1; stroke-width: 2px; opacity: 1;"/><path class="js-line" d="M28.6,284.96L62.4,284.96" style="vector-effect: non-scaling-stroke; fill: none; stroke: rgb(190, 190, 190); stroke-opacity: 1; stroke-width: 2px; opacity: 1;"/><path class="js-line" d="M36.7,350.6L396.2,350.6" style="vector-effect: non-scaling-stroke; fill: none; stroke: rgb(190, 190, 190); stroke-opacity: 1; stroke-width: 2px; opacity: 1;"/></g><g class="points"/><g class="text"/></g><g class="trace scatter trace750733" style="stroke-miterlimit: 2; opacity: 1;"><g class="fills"/><g class="errorbars"/><g class="lines"/><g class="points"><path class="point" transform="translate(24.97,22.4)" d="M3,0A3,3 0 1,1 0,-3A3,3 0 0,1 3,0Z" style="opacity: 1; stroke-width: 0px; fill: rgb(31, 119, 180); fill-opacity: 1;"/><path class="point" transform="translate(24.81,88.04)" d="M3,0A3,3 0 1,1 0,-3A3,3 0 0,1 3,0Z" style="opacity: 1; stroke-width: 0px; fill: rgb(31, 119, 180); fill-opacity: 1;"/><path class="point" transform="translate(24.8,153.68)" d="M3,0A3,3 0 1,1 0,-3A3,3 0 0,1 3,0Z" style="opacity: 1; stroke-width: 0px; fill: rgb(31, 119, 180); fill-opacity: 1;"/><path class="point" transform="translate(29.09,219.32)" d="M3,0A3,3 0 1,1 0,-3A3,3 0 0,1 3,0Z" style="opacity: 1; stroke-width: 0px; fill: rgb(31, 119, 180); fill-opacity: 1;"/><path class="point" transform="translate(28.6,284.96)" d="M3,0A3,3 0 1,1 0,-3A3,3 0 0,1 3,0Z" style="opacity: 1; stroke-width: 0px; fill: rgb(31, 119, 180); fill-opacity: 1;"/><path class="point" transform="translate(36.7,350.6)" d="M3,0A3,3 0 1,1 0,-3A3,3 0 0,1 3,0Z" style="opacity: 1; stroke-width: 0px; fill: rgb(31, 119, 180); fill-opacity: 1;"/></g><g class="text"><g class="textpoint" transform="translate(0,13.75)"><text x="24.97" y="22.4" text-anchor="middle" style="font-family: 'Open Sans', verdana, arial, sans-serif; font-size: 12px; fill: rgb(31, 119, 180); fill-opacity: 1; white-space: pre;">0.3</text></g><g class="textpoint" transform="translate(0,13.75)"><text x="24.81" y="88.04" text-anchor="middle" style="font-family: 'Open Sans', verdana, arial, sans-serif; font-size: 12px; fill: rgb(31, 119, 180); fill-opacity: 1; white-space: pre;">0</text></g><g class="textpoint" transform="translate(0,13.75)"><text x="24.8" y="153.68" text-anchor="middle" style="font-family: 'Open Sans', verdana, arial, sans-serif; font-size: 12px; fill: rgb(31, 119, 180); fill-opacity: 1; white-space: pre;">0</text></g><g class="textpoint" transform="translate(0,13.75)"><text x="29.09" y="219.32" text-anchor="middle" style="font-family: 'Open Sans', verdana, arial, sans-serif; font-size: 12px; fill: rgb(31, 119, 180); fill-opacity: 1; white-space: pre;">7.4</text></g><g class="textpoint" transform="translate(0,13.75)"><text x="28.6" y="284.96" text-anchor="middle" style="font-family: 'Open Sans', verdana, arial, sans-serif; font-size: 12px; fill: rgb(31, 119, 180); fill-opacity: 1; white-space: pre;">6.6</text></g><g class="textpoint" transform="translate(0,13.75)"><text x="36.7" y="350.6" text-anchor="middle" style="font-family: 'Open Sans', verdana, arial, sans-serif; font-size: 12px; fill: rgb(31, 119, 180); fill-opacity: 1; white-space: pre;">20.6</text></g></g></g><g class="trace scatter trace54003f" style="stroke-miterlimit: 2; opacity: 1;"><g class="fills"/><g class="errorbars"/><g class="lines"/><g class="points"><path class="point" transform="translate(161.54,22.4)" d="M3,0A3,3 0 1,1 0,-3A3,3 0 0,1 3,0Z" style="opacity: 1; stroke: rgb(0, 0, 139); stroke-opacity: 1; stroke-width: 1px; fill: none;"/><path class="point" transform="translate(119.07,88.04)" d="M3,0A3,3 0 1,1 0,-3A3,3 0 0,1 3,0Z" style="opacity: 1; stroke: rgb(0, 0, 139); stroke-opacity: 1; stroke-width: 1px; fill: none;"/><path class="point" transform="translate(257.08,153.68)" d="M3,0A3,3 0 1,1 0,-3A3,3 0 0,1 3,0Z" style="opacity: 1; stroke: rgb(0, 0, 139); stroke-opacity: 1; stroke-width: 1px; fill: none;"/><path class="point" transform="translate(212.2,219.32)" d="M3,0A3,3 0 1,1 0,-3A3,3 0 0,1 3,0Z" style="opacity: 1; stroke: rgb(0, 0, 139); stroke-opacity: 1; stroke-width: 1px; fill: none;"/><path class="point" transform="translate(62.4,284.96)" d="M3,0A3,3 0 1,1 0,-3A3,3 0 0,1 3,0Z" style="opacity: 1; stroke: rgb(0, 0, 139); stroke-opacity: 1; stroke-width: 1px; fill: none;"/><path class="point" transform="translate(396.2,350.6)" d="M3,0A3,3 0 1,1 0,-3A3,3 0 0,1 3,0Z" style="opacity: 1; stroke: rgb(0, 0, 139); stroke-opacity: 1; stroke-width: 1px; fill: none;"/></g><g class="text"><g class="textpoint" transform="translate(0,13.75)"><text x="161.54" y="22.4" text-anchor="middle" style="font-family: 'Open Sans', verdana, arial, sans-serif; font-size: 12px; fill: rgb(0, 0, 139); fill-opacity: 1; white-space: pre;">237.1</text></g><g class="textpoint" transform="translate(0,13.75)"><text x="119.07" y="88.04" text-anchor="middle" style="font-family: 'Open Sans', verdana, arial, sans-serif; font-size: 12px; fill: rgb(0, 0, 139); fill-opacity: 1; white-space: pre;">163.4</text></g><g class="textpoint" transform="translate(0,13.75)"><text x="257.08" y="153.68" text-anchor="middle" style="font-family: 'Open Sans', verdana, arial, sans-serif; font-size: 12px; fill: rgb(0, 0, 139); fill-opacity: 1; white-space: pre;">402.7</text></g><g class="textpoint" transform="translate(0,13.75)"><text x="212.2" y="219.32" text-anchor="middle" style="font-family: 'Open Sans', verdana, arial, sans-serif; font-size: 12px; fill: rgb(0, 0, 139); fill-opacity: 1; white-space: pre;">324.9</text></g><g class="textpoint" transform="translate(0,13.75)"><text x="62.4" y="284.96" text-anchor="middle" style="font-family: 'Open Sans', verdana, arial, sans-serif; font-size: 12px; fill: rgb(0, 0, 139); fill-opacity: 1; white-space: pre;">65.2</text></g><g class="textpoint" transform="translate(0,13.75)"><text x="396.2" y="350.6" text-anchor="middle" style="font-family: 'Open Sans', verdana, arial, sans-serif; font-size: 12px; fill: rgb(0, 0, 139); fill-opacity: 1; white-space: pre;">643.9</text></g></g></g></g></g><g class="overplot"/><path class="xlines-above crisp" d="M0,0" style="fill: none;"/><path class="ylines-above crisp" d="M0,0" style="fill: none;"/><g class="overlines-above"/><g class="xaxislayer-above"><g class="xtick"><text text-anchor="middle" x="0" y="436" transform="translate(140.8,0)" style="font-family: 'Open Sans', verdana, arial, sans-serif; font-size: 12px; fill: rgb(68, 68, 68); fill-opacity: 1; white-space: pre; opacity: 1;">0</text></g><g class="xtick"><text text-anchor="middle" x="0" y="436" style="font-family: 'Open Sans', verdana, arial, sans-serif; font-size: 12px; fill: rgb(68, 68, 68); fill-opacity: 1; white-space: pre; opacity: 1;" transform="translate(256.15999999999997,0)">200</text></g><g class="xtick"><text text-anchor="middle" x="0" y="436" style="font-family: 'Open Sans', verdana, arial, sans-serif; font-size: 12px; fill: rgb(68, 68, 68); fill-opacity: 1; white-space: pre; opacity: 1;" transform="translate(371.52,0)">400</text></g><g class="xtick"><text text-anchor="middle" x="0" y="436" style="font-family: 'Open Sans', verdana, arial, sans-serif; font-size: 12px; fill: rgb(68, 68, 68); fill-opacity: 1; white-space: pre; opacity: 1;" transform="translate(486.89,0)">600</text></g></g><g class="yaxislayer-above"><g class="ytick"><text text-anchor="end" x="115" y="4.199999999999999" transform="translate(0,400.6)" style="font-family: 'Open Sans', verdana, arial, sans-serif; font-size: 12px; fill: rgb(68, 68, 68); fill-opacity: 1; white-space: pre; opacity: 1;">South America</text></g><g class="ytick"><text text-anchor="end" x="115" y="4.199999999999999" transform="translate(0,334.96)" style="font-family: 'Open Sans', verdana, arial, sans-serif; font-size: 12px; fill: rgb(68, 68, 68); fill-opacity: 1; white-space: pre; opacity: 1;">Oceania</text></g><g class="ytick"><text text-anchor="end" x="115" y="4.199999999999999" transform="translate(0,269.32)" style="font-family: 'Open Sans', verdana, arial, sans-serif; font-size: 12px; fill: rgb(68, 68, 68); fill-opacity: 1; white-space: pre; opacity: 1;">North America</text></g><g class="ytick"><text text-anchor="end" x="115" y="4.199999999999999" transform="translate(0,203.68)" style="font-family: 'Open Sans', verdana, arial, sans-serif; font-size: 12px; fill: rgb(68, 68, 68); fill-opacity: 1; white-space: pre; opacity: 1;">Europe</text></g><g class="ytick"><text text-anchor="end" x="115" y="4.199999999999999" transform="translate(0,138.04000000000002)" style="font-family: 'Open Sans', verdana, arial, sans-serif; font-size: 12px; fill: rgb(68, 68, 68); fill-opacity: 1; white-space: pre; opacity: 1;">Asia</text></g><g class="ytick"><text text-anchor="end" x="115" y="4.199999999999999" transform="translate(0,72.4)" style="font-family: 'Open Sans', verdana, arial, sans-serif; font-size: 12px; fill: rgb(68, 68, 68); fill-opacity: 1; white-space: pre; opacity: 1;">Africa</text></g></g><g class="overaxes-above"/></g></g><g class="polarlayer"/><g class="ternarylayer"/><g class="geolayer"/><g class="funnelarealayer"/><g class="pielayer"/><g class="iciclelayer"/><g class="treemaplayer"/><g class="sunburstlayer"/><g class="glimages"/><defs id="topdefs-a9f00a"><g class="clips"/><clipPath id="legenda9f00a"><rect width="69" height="48" x="0" y="0"/></clipPath></defs><g class="layer-above"><g class="imagelayer"/><g class="shapelayer"/></g><g class="infolayer"><g class="legend" pointer-events="all" transform="translate(545.4200000000001,50)"><rect class="bg" shape-rendering="crispEdges" width="69" height="48" x="0" y="0" style="stroke: rgb(68, 68, 68); stroke-opacity: 1; fill: rgb(255, 255, 255); fill-opacity: 1; stroke-width: 0px;"/><g class="scrollbox" transform="" clip-path="url(#legenda9f00a)"><g class="groups"><g class="traces" transform="translate(0,14.5)" style="opacity: 1;"><text class="legendtext" text-anchor="start" x="40" y="4.680000000000001" style="font-family: 'Open Sans', verdana, arial, sans-serif; font-size: 12px; fill: rgb(68, 68, 68); fill-opacity: 1; white-space: pre;">최소</text><g class="layers" style="opacity: 1;"><g class="legendfill"/><g class="legendlines"/><g class="legendsymbols"><g class="legendpoints"><path class="scatterpts" transform="translate(20,0)" d="M3,0A3,3 0 1,1 0,-3A3,3 0 0,1 3,0Z" style="opacity: 1; stroke-width: 0px; fill: rgb(31, 119, 180); fill-opacity: 1;"/></g></g></g><rect class="legendtoggle" x="0" y="-9.5" width="63.984375" height="19" style="fill: rgb(0, 0, 0); fill-opacity: 0;"/></g><g class="traces" transform="translate(0,33.5)" style="opacity: 1;"><text class="legendtext" text-anchor="start" x="40" y="4.680000000000001" style="font-family: 'Open Sans', verdana, arial, sans-serif; font-size: 12px; fill: rgb(68, 68, 68); fill-opacity: 1; white-space: pre;">최대</text><g class="layers" style="opacity: 1;"><g class="legendfill"/><g class="legendlines"/><g class="legendsymbols"><g class="legendpoints"><path class="scatterpts" transform="translate(20,0)" d="M3,0A3,3 0 1,1 0,-3A3,3 0 0,1 3,0Z" style="opacity: 1; stroke: rgb(0, 0, 139); stroke-opacity: 1; stroke-width: 1px; fill: none;"/></g></g></g><rect class="legendtoggle" x="0" y="-9.5" width="63.984375" height="19" style="fill: rgb(0, 0, 0); fill-opacity: 0;"/></g></g></g><rect class="scrollbar" rx="20" ry="3" width="0" height="0" x="0" y="0" style="fill: rgb(128, 139, 164); fill-opacity: 1;"/></g><g class="g-gtitle"><text class="gtitle" x="313.182" y="25" text-anchor="middle" dy="0em" style="font-family: 'Open Sans', verdana, arial, sans-serif; font-size: 17px; fill: rgb(68, 68, 68); opacity: 1; font-weight: normal; white-space: pre;">대륙별 10만명당 사망자수 차이</text></g><g class="g-xtitle" transform="translate(0,-12.280174179077164)"><text class="xtitle" x="326.5" y="475" text-anchor="middle" style="font-family: 'Open Sans', verdana, arial, sans-serif; font-size: 14px; fill: rgb(68, 68, 68); opacity: 1; font-weight: normal; white-space: pre;">10만명당 사망자수</text></g><g class="g-ytitle"/></g></svg>