<svg class="main-svg" xmlns="http://www.w3.org/2000/svg" xmlns:xlink="http://www.w3.org/1999/xlink" width="626.364" height="465.455" style="" viewBox="0 0 626.364 465.455"><rect x="0" y="0" width="626.364" height="465.455" style="fill: rgb(255, 255, 255); fill-opacity: 1;"/><defs id="defs-25d463"><g class="clips"/><g class="gradients"/><g class="patterns"/></defs><g class="bglayer"/><g class="layer-below"><g class="imagelayer"/><g class="shapelayer"/></g><g class="cartesianlayer"/><g class="polarlayer"/><g class="ternarylayer"/><g class="geolayer"/><g class="funnelarealayer"/><g class="pielayer"/><g class="iciclelayer"/><g class="treemaplayer"/><g class="sunburstlayer"><g class="trace sunburst" stroke-linejoin="round" style="opacity: 1;"><g class="slice"><path class="surface" d="M185.10000000000002,225A0,0 0,1,0 185.10000000000002,225A0,0 0,1,0 185.10000000000002,225ZM226.8,225A41.7,41.7 0,1,1 143.40000000000003,225A41.7,41.7 0,1,1 226.8,225Z" style="pointer-events: all; stroke-width: 1; fill: rgb(0, 0, 0); fill-opacity: 0; stroke: rgb(255, 255, 255); stroke-opacity: 1;"/><g class="slicetext"><text data-notex="1" class="slicetext" text-anchor="middle" x="0" y="0" style="font-family: 'Open Sans', verdana, arial, sans-serif; font-size: 12px; fill: rgb(68, 68, 68); fill-opacity: 1; white-space: pre;" transform="translate(185.09121093750002,229.54687547683716)">전체</text></g></g><g class="slice cursor-pointer"><path class="surface" d="M226.8,225L268.5,225A83.4,83.4 0,0,0 151.51107698696114,148.66295623470774L168.30553849348058,186.83147811735387A41.7,41.7 0,0,1 226.8,225Z" style="pointer-events: all; stroke-width: 1; fill: rgb(8, 48, 107); fill-opacity: 1; stroke: rgb(255, 255, 255); stroke-opacity: 1;"/><g class="slicetext"><text data-notex="1" class="slicetext" text-anchor="middle" x="0" y="0" style="font-family: 'Open Sans', verdana, arial, sans-serif; font-size: 12px; fill: rgb(255, 255, 255); fill-opacity: 1; white-space: pre;" transform="translate(222.2672876901742,174.712451502326)scale(0.8019362020368838)rotate(-56.87494336202985)">공학계열</text></g></g><g class="slice cursor-pointer"><path class="surface" d="M168.30553849348058,186.83147811735387L151.51107698696114,148.66295623470774A83.4,83.4 0,0,0 102.72400855321943,238.02904575016652L143.91200427660974,231.51452287508326A41.7,41.7 0,0,1 168.30553849348058,186.83147811735387Z" style="pointer-events: all; stroke-width: 1; fill: rgb(8, 81, 156); fill-opacity: 1; stroke: rgb(255, 255, 255); stroke-opacity: 1;"/><g class="slicetext"><text data-notex="1" class="slicetext" text-anchor="middle" x="0" y="0" style="font-family: 'Open Sans', verdana, arial, sans-serif; font-size: 12px; fill: rgb(255, 255, 255); fill-opacity: 1; white-space: pre;" transform="translate(122.6616353897167,228.64630405102943)scale(0.8019362020368838)">사회계열</text></g></g><g class="slice cursor-pointer"><path class="surface" d="M143.91200427660974,231.51452287508326L102.72400855321943,238.02904575016652A83.4,83.4 0,0,0 158.93876671749612,304.19059207468024L172.01938335874806,264.5952960373401A41.7,41.7 0,0,1 143.91200427660974,231.51452287508326Z" style="pointer-events: all; stroke-width: 1; fill: rgb(33, 113, 181); fill-opacity: 1; stroke: rgb(255, 255, 255); stroke-opacity: 1;"/><g class="slicetext"><text data-notex="1" class="slicetext" text-anchor="middle" x="0" y="0" style="font-family: 'Open Sans', verdana, arial, sans-serif; font-size: 12px; fill: rgb(255, 255, 255); fill-opacity: 1; white-space: pre;" transform="translate(139.3788083784527,267.6828264474464)scale(0.6428226597382581)rotate(-40.35319438151339)">예체능계열</text></g></g><g class="slice cursor-pointer"><path class="surface" d="M172.01938335874806,264.5952960373401L158.93876671749612,304.19059207468024A83.4,83.4 0,0,0 228.0242088648037,296.50575007179987L206.56210443240187,260.75287503589993A41.7,41.7 0,0,1 172.01938335874806,264.5952960373401Z" style="pointer-events: all; stroke-width: 1; fill: rgb(66, 146, 198); fill-opacity: 1; stroke: rgb(255, 255, 255); stroke-opacity: 1;"/><g class="slicetext"><text data-notex="1" class="slicetext" text-anchor="middle" x="0" y="0" style="font-family: 'Open Sans', verdana, arial, sans-serif; font-size: 12px; fill: rgb(68, 68, 68); fill-opacity: 1; white-space: pre;" transform="translate(188.37749807198907,287.44599918760366)scale(0.8019362020368838)rotate(83.65269596737653)">자연계열</text></g></g><g class="slice cursor-pointer"><path class="surface" d="M206.56210443240187,260.75287503589993L228.0242088648037,296.50575007179987A83.4,83.4 0,0,0 256.43717430088884,268.2037910693565L220.76858715044443,246.60189553467825A41.7,41.7 0,0,1 206.56210443240187,260.75287503589993Z" style="pointer-events: all; stroke-width: 1; fill: rgb(107, 174, 214); fill-opacity: 1; stroke: rgb(255, 255, 255); stroke-opacity: 1;"/><g class="slicetext"><text data-notex="1" class="slicetext" text-anchor="middle" x="0" y="0" style="font-family: 'Open Sans', verdana, arial, sans-serif; font-size: 12px; fill: rgb(68, 68, 68); fill-opacity: 1; white-space: pre;" transform="translate(226.57168048170843,271.8011167192961)scale(0.8019362020368838)rotate(45.112143180788394)">인문계열</text></g></g><g class="slice cursor-pointer"><path class="surface" d="M220.76858715044443,246.60189553467825L256.43717430088884,268.2037910693565A83.4,83.4 0,0,0 265.62328599225816,246.71544181012675L225.3616429961291,235.85772090506336A41.7,41.7 0,0,1 220.76858715044443,246.60189553467825Z" style="pointer-events: all; stroke-width: 1; fill: rgb(158, 202, 225); fill-opacity: 1; stroke: rgb(255, 255, 255); stroke-opacity: 1;"/><g class="slicetext"><text data-notex="1" class="slicetext" text-anchor="middle" x="0" y="0" style="font-family: 'Open Sans', verdana, arial, sans-serif; font-size: 12px; fill: rgb(68, 68, 68); fill-opacity: 1; white-space: pre;" transform="translate(241.7145401625891,253.04516974560286)scale(0.7771342605570624)rotate(23.14635251472589)">의약계열</text></g></g><g class="slice cursor-pointer"><path class="surface" d="M225.3616429961291,235.85772090506336L265.62328599225816,246.71544181012675A83.4,83.4 0,0,0 268.5,225.00000000000003L226.8,225A41.7,41.7 0,0,1 225.3616429961291,235.85772090506336Z" style="pointer-events: all; stroke-width: 1; fill: rgb(198, 219, 239); fill-opacity: 1; stroke: rgb(255, 255, 255); stroke-opacity: 1;"/><g class="slicetext"><text data-notex="1" class="slicetext" text-anchor="middle" x="0" y="0" style="font-family: 'Open Sans', verdana, arial, sans-serif; font-size: 12px; fill: rgb(68, 68, 68); fill-opacity: 1; white-space: pre;" transform="translate(247.87577965764999,236.75983582917493)scale(0.7508238009763428)rotate(7.5462165835976975)">교육계열</text></g></g><g class="slice"><path class="surface" d="M268.5,225L310.20000000000005,225A125.10000000000001,125.10000000000001 0,0,0 298.05236017100185,171.22477957460063L260.40157344733456,189.14985304973376A83.4,83.4 0,0,1 268.5,225Z" style="pointer-events: all; stroke-width: 1; fill: rgb(8, 48, 107); fill-opacity: 1; stroke: rgb(255, 255, 255); stroke-opacity: 1; opacity: 0.7;"/><g class="slicetext"><text data-notex="1" class="slicetext" text-anchor="middle" x="0" y="0" style="font-family: 'Open Sans', verdana, arial, sans-serif; font-size: 12px; fill: rgb(255, 255, 255); fill-opacity: 1; white-space: pre;" transform="translate(287.30081072271355,204.47966614608072)scale(0.5505767166877232)rotate(-12.729270502945155)">컴퓨터ㆍ통신</text></g></g><g class="slice"><path class="surface" d="M260.40157344733456,189.14985304973376L298.05236017100185,171.22477957460063A125.10000000000001,125.10000000000001 0,0,0 269.1495403538559,132.34102975801233L241.1330269025706,163.22735317200824A83.4,83.4 0,0,1 260.40157344733456,189.14985304973376Z" style="pointer-events: all; stroke-width: 1; fill: rgb(8, 48, 107); fill-opacity: 1; stroke: rgb(255, 255, 255); stroke-opacity: 1; opacity: 0.7;"/><g class="slicetext"><text data-notex="1" class="slicetext" text-anchor="middle" x="0" y="0" style="font-family: 'Open Sans', verdana, arial, sans-serif; font-size: 12px; fill: rgb(255, 255, 255); fill-opacity: 1; white-space: pre;" transform="translate(270.5133611930586,165.25157200588012)scale(0.6602324709687482)rotate(-36.623923878568235)">기계ㆍ금속</text></g></g><g class="slice"><path class="surface" d="M241.1330269025706,163.22735317200824L269.1495403538559,132.34102975801233A125.10000000000001,125.10000000000001 0,0,0 243.25445528151263,114.23868305716769L223.86963685434176,151.1591220381118A83.4,83.4 0,0,1 241.1330269025706,163.22735317200824Z" style="pointer-events: all; stroke-width: 1; fill: rgb(8, 48, 107); fill-opacity: 1; stroke: rgb(255, 255, 255); stroke-opacity: 1; opacity: 0.7;"/><g class="slicetext"><text data-notex="1" class="slicetext" text-anchor="middle" x="0" y="0" style="font-family: 'Open Sans', verdana, arial, sans-serif; font-size: 12px; fill: rgb(255, 255, 255); fill-opacity: 1; white-space: pre;" transform="translate(247.25791133552542,141.32377293120004)scale(0.6602324709687482)rotate(-55.04395106479387)">전기ㆍ전자</text></g></g><g class="slice"><path class="surface" d="M223.86963685434176,151.1591220381118L243.25445528151263,114.23868305716769A125.10000000000001,125.10000000000001 0,0,0 220.07360324249825,104.88814764463784L208.41573549499884,144.9254317630919A83.4,83.4 0,0,1 223.86963685434176,151.1591220381118Z" style="pointer-events: all; stroke-width: 1; fill: rgb(8, 48, 107); fill-opacity: 1; stroke: rgb(255, 255, 255); stroke-opacity: 1; opacity: 0.7;"/><g class="slicetext"><text data-notex="1" class="slicetext" text-anchor="middle" x="0" y="0" style="font-family: 'Open Sans', verdana, arial, sans-serif; font-size: 12px; fill: rgb(255, 255, 255); fill-opacity: 1; white-space: pre;" transform="translate(230.17094738599013,125.41953308778005)rotate(-68.03217036701403)">기타</text></g></g><g class="slice"><path class="surface" d="M208.41573549499884,144.9254317630919L220.07360324249825,104.88814764463784A125.10000000000001,125.10000000000001 0,0,0 202.15975947524362,101.06866979392645L196.47317298349574,142.37911319595096A83.4,83.4 0,0,1 208.41573549499884,144.9254317630919Z" style="pointer-events: all; stroke-width: 1; fill: rgb(8, 48, 107); fill-opacity: 1; stroke: rgb(255, 255, 255); stroke-opacity: 1; opacity: 0.7;"/><g class="slicetext"><text data-notex="1" class="slicetext" text-anchor="middle" x="0" y="0" style="font-family: 'Open Sans', verdana, arial, sans-serif; font-size: 12px; fill: rgb(255, 255, 255); fill-opacity: 1; white-space: pre;" transform="translate(212.89950849242376,115.69936755738746)scale(0.9668822324138164)rotate(-77.96397825101951)">건축</text></g></g><g class="slice"><path class="surface" d="M196.47317298349574,142.37911319595096L202.15975947524362,101.06866979392645A125.10000000000001,125.10000000000001 0,0,0 187.57509180290458,99.92448712650747L186.7500612019364,141.61632475100498A83.4,83.4 0,0,1 196.47317298349574,142.37911319595096Z" style="pointer-events: all; stroke-width: 1; fill: rgb(8, 48, 107); fill-opacity: 1; stroke: rgb(255, 255, 255); stroke-opacity: 1; opacity: 0.7;"/><g class="slicetext"><text data-notex="1" class="slicetext" text-anchor="middle" x="0" y="0" style="font-family: 'Open Sans', verdana, arial, sans-serif; font-size: 12px; fill: rgb(255, 255, 255); fill-opacity: 1; white-space: pre;" transform="translate(196.21412566242745,120.92530652207073)scale(0.6466684922554952)rotate(-85.51427276846402)">소재ㆍ재료</text></g></g><g class="slice"><path class="surface" d="M186.7500612019364,141.61632475100498L187.57509180290458,99.92448712650747A125.10000000000001,125.10000000000001 0,0,0 173.2933661953761,100.45838688131781L177.2289107969174,141.97225792087852A83.4,83.4 0,0,1 186.7500612019364,141.61632475100498Z" style="pointer-events: all; stroke-width: 1; fill: rgb(8, 48, 107); fill-opacity: 1; stroke: rgb(255, 255, 255); stroke-opacity: 1; opacity: 0.7;"/><g class="slicetext"><text data-notex="1" class="slicetext" text-anchor="middle" x="0" y="0" style="font-family: 'Open Sans', verdana, arial, sans-serif; font-size: 12px; fill: rgb(255, 255, 255); fill-opacity: 1; white-space: pre;" transform="translate(178.28689324541446,120.22212267884233)scale(0.6365095589479944)rotate(87.85908473040331)">교통ㆍ운송</text></g></g><g class="slice"><path class="surface" d="M177.2289107969174,141.97225792087852L173.2933661953761,100.45838688131781A125.10000000000001,125.10000000000001 0,0,0 160.18573184663444,102.40599834256899L168.49048789775628,143.27066556171266A83.4,83.4 0,0,1 177.2289107969174,141.97225792087852Z" style="pointer-events: all; stroke-width: 1; fill: rgb(8, 48, 107); fill-opacity: 1; stroke: rgb(255, 255, 255); stroke-opacity: 1; opacity: 0.7;"/><g class="slicetext"><text data-notex="1" class="slicetext" text-anchor="middle" x="0" y="0" style="font-family: 'Open Sans', verdana, arial, sans-serif; font-size: 12px; fill: rgb(255, 255, 255); fill-opacity: 1; white-space: pre;" transform="translate(166.80557011648844,120.56991357205507)scale(0.6042422294768828)rotate(81.54848210240141)">토목ㆍ도시</text></g></g><g class="slice"><path class="surface" d="M168.49048789775628,143.27066556171266L160.18573184663444,102.40599834256899A125.10000000000001,125.10000000000001 0,0,0 150.65675901235218,104.73498783824607L162.13783934156814,144.8233252254974A83.4,83.4 0,0,1 168.49048789775628,143.27066556171266Z" style="pointer-events: all; stroke-width: 1; fill: rgb(8, 48, 107); fill-opacity: 1; stroke: rgb(255, 255, 255); stroke-opacity: 1; opacity: 0.7;"/><g class="slicetext"><text data-notex="1" class="slicetext" text-anchor="middle" x="0" y="0" style="font-family: 'Open Sans', verdana, arial, sans-serif; font-size: 12px; fill: rgb(255, 255, 255); fill-opacity: 1; white-space: pre;" transform="translate(154.60349046500463,111.12312121069382)scale(0.5690805655488433)rotate(76.26551880380612)">화공</text></g></g><g class="slice"><path class="surface" d="M162.13783934156814,144.8233252254974L150.65675901235218,104.73498783824607A125.10000000000001,125.10000000000001 0,0,0 141.99921254301944,107.55923995227131L156.3661416953463,146.70615996818088A83.4,83.4 0,0,1 162.13783934156814,144.8233252254974Z" style="pointer-events: all; stroke-width: 1; fill: rgb(8, 48, 107); fill-opacity: 1; stroke: rgb(255, 255, 255); stroke-opacity: 1; opacity: 0.7;"/><g class="slicetext"><text data-notex="1" class="slicetext" text-anchor="middle" x="0" y="0" style="font-family: 'Open Sans', verdana, arial, sans-serif; font-size: 12px; fill: rgb(255, 255, 255); fill-opacity: 1; white-space: pre;" transform="translate(149.56134871221815,122.48851424485943)scale(0.438561159712406)rotate(71.93271409152692)">정밀ㆍ에너지</text></g></g><g class="slice"><path class="surface" d="M156.3661416953463,146.70615996818088L141.99921254301944,107.55923995227131A125.10000000000001,125.10000000000001 0,0,0 134.7166154804417,110.4944343520616L151.51107698696114,148.66295623470774A83.4,83.4 0,0,1 156.3661416953463,146.70615996818088Z" style="pointer-events: all; stroke-width: 1; fill: rgb(8, 48, 107); fill-opacity: 1; stroke: rgb(255, 255, 255); stroke-opacity: 1; opacity: 0.7;"/><g class="slicetext"><text data-notex="1" class="slicetext" text-anchor="middle" x="0" y="0" style="font-family: 'Open Sans', verdana, arial, sans-serif; font-size: 12px; fill: rgb(255, 255, 255); fill-opacity: 1; white-space: pre;" transform="translate(138.58139783797537,115.25129366088105)scale(0.4661567753092502)rotate(68.04848210240141)">산업</text></g></g><g class="slice"><path class="surface" d="M151.51107698696114,148.66295623470774L134.7166154804417,110.49443435206159A125.10000000000001,125.10000000000001 0,0,0 67.88787227364469,181.28127273283718L106.95858151576313,195.85418182189147A83.4,83.4 0,0,1 151.51107698696114,148.66295623470774Z" style="pointer-events: all; stroke-width: 1; fill: rgb(8, 81, 156); fill-opacity: 1; stroke: rgb(255, 255, 255); stroke-opacity: 1; opacity: 0.7;"/><g class="slicetext"><text data-notex="1" class="slicetext" text-anchor="middle" x="0" y="0" style="font-family: 'Open Sans', verdana, arial, sans-serif; font-size: 12px; fill: rgb(255, 255, 255); fill-opacity: 1; white-space: pre;" transform="translate(107.26717639758482,155.64772714003124)scale(0.6602324709687482)rotate(43.3525147258722)">경영ㆍ경제</text></g></g><g class="slice"><path class="surface" d="M106.95858151576313,195.85418182189147L67.88787227364469,181.28127273283718A125.10000000000001,125.10000000000001 0,0,0 60.6347771520722,237.58643322850725L102.12318476804815,233.3909554856715A83.4,83.4 0,0,1 106.95858151576313,195.85418182189147Z" style="pointer-events: all; stroke-width: 1; fill: rgb(8, 81, 156); fill-opacity: 1; stroke: rgb(255, 255, 255); stroke-opacity: 1; opacity: 0.7;"/><g class="slicetext"><text data-notex="1" class="slicetext" text-anchor="middle" x="0" y="0" style="font-family: 'Open Sans', verdana, arial, sans-serif; font-size: 12px; fill: rgb(255, 255, 255); fill-opacity: 1; white-space: pre;" transform="translate(80.92244821464134,228.74757611552678)scale(0.8242090936111669)">사회과학</text></g></g><g class="slice"><path class="surface" d="M102.12318476804815,233.3909554856715L60.6347771520722,237.58643322850725A125.10000000000001,125.10000000000001 0,0,0 61.53601282982913,244.54356862524978L102.72400855321943,238.02904575016652A83.4,83.4 0,0,1 102.12318476804815,233.3909554856715Z" style="pointer-events: all; stroke-width: 1; fill: rgb(8, 81, 156); fill-opacity: 1; stroke: rgb(255, 255, 255); stroke-opacity: 1; opacity: 0.7;"/><g class="slicetext"><text data-notex="1" class="slicetext" text-anchor="middle" x="0" y="0" style="font-family: 'Open Sans', verdana, arial, sans-serif; font-size: 12px; fill: rgb(255, 255, 255); fill-opacity: 1; white-space: pre;" transform="translate(66.57481121444137,242.28271363719443)scale(0.42069229583794393)rotate(-7.381060262800247)">법률</text></g></g><g class="slice"><path class="surface" d="M102.72400855321943,238.02904575016652L61.53601282982913,244.54356862524978A125.10000000000001,125.10000000000001 0,0,0 74.8183784498581,284.05907168480786L111.57891896657208,264.3727144565386A83.4,83.4 0,0,1 102.72400855321943,238.02904575016652Z" style="pointer-events: all; stroke-width: 1; fill: rgb(33, 113, 181); fill-opacity: 1; stroke: rgb(255, 255, 255); stroke-opacity: 1; opacity: 0.7;"/><g class="slicetext"><text data-notex="1" class="slicetext" text-anchor="middle" x="0" y="0" style="font-family: 'Open Sans', verdana, arial, sans-serif; font-size: 12px; fill: rgb(255, 255, 255); fill-opacity: 1; white-space: pre;" transform="translate(87.85659727995804,262.4833377828358)rotate(-18.57906660625281)">디자인</text></g></g><g class="slice"><path class="surface" d="M111.57891896657208,264.3727144565386L74.8183784498581,284.05907168480786A125.10000000000001,125.10000000000001 0,0,0 94.93278667457723,311.71726264780096L124.98852444971817,282.8115084318673A83.4,83.4 0,0,1 111.57891896657208,264.3727144565386Z" style="pointer-events: all; stroke-width: 1; fill: rgb(33, 113, 181); fill-opacity: 1; stroke: rgb(255, 255, 255); stroke-opacity: 1; opacity: 0.7;"/><g class="slicetext"><text data-notex="1" class="slicetext" text-anchor="middle" x="0" y="0" style="font-family: 'Open Sans', verdana, arial, sans-serif; font-size: 12px; fill: rgb(255, 255, 255); fill-opacity: 1; white-space: pre;" transform="translate(103.0511000548815,289.3038462343325)scale(0.8242090936111669)rotate(-36.026506570004585)">응용예술</text></g></g><g class="slice"><path class="surface" d="M124.98852444971817,282.8115084318673L94.93278667457723,311.71726264780096A125.10000000000001,125.10000000000001 0,0,0 121.21058121506873,332.55534467112113L142.50705414337915,296.7035631140808A83.4,83.4 0,0,1 124.98852444971817,282.8115084318673Z" style="pointer-events: all; stroke-width: 1; fill: rgb(33, 113, 181); fill-opacity: 1; stroke: rgb(255, 255, 255); stroke-opacity: 1; opacity: 0.7;"/><g class="slicetext"><text data-notex="1" class="slicetext" text-anchor="middle" x="0" y="0" style="font-family: 'Open Sans', verdana, arial, sans-serif; font-size: 12px; fill: rgb(255, 255, 255); fill-opacity: 1; white-space: pre;" transform="translate(122.70535488140385,308.51403739068473)scale(0.6602324709687482)rotate(-51.58586316266428)">무용ㆍ체육</text></g></g><g class="slice"><path class="surface" d="M142.50705414337915,296.7035631140808L121.21058121506873,332.55534467112113A125.10000000000001,125.10000000000001 0,0,0 131.67071649095408,338.11640757958145L149.48047766063607,300.41093838638767A83.4,83.4 0,0,1 142.50705414337915,296.7035631140808Z" style="pointer-events: all; stroke-width: 1; fill: rgb(33, 113, 181); fill-opacity: 1; stroke: rgb(255, 255, 255); stroke-opacity: 1; opacity: 0.7;"/><g class="slicetext"><text data-notex="1" class="slicetext" text-anchor="middle" x="0" y="0" style="font-family: 'Open Sans', verdana, arial, sans-serif; font-size: 12px; fill: rgb(255, 255, 255); fill-opacity: 1; white-space: pre;" transform="translate(133.08597687965505,329.3386924054563)scale(0.6713185216614197)rotate(-62.0029451744449)">음악</text></g></g><g class="slice"><path class="surface" d="M149.48047766063607,300.41093838638767L131.67071649095408,338.11640757958145A125.10000000000001,125.10000000000001 0,0,0 138.88043973425238,341.2487085899922L154.28695982283494,302.49913905999483A83.4,83.4 0,0,1 149.48047766063607,300.41093838638767Z" style="pointer-events: all; stroke-width: 1; fill: rgb(33, 113, 181); fill-opacity: 1; stroke: rgb(255, 255, 255); stroke-opacity: 1; opacity: 0.7;"/><g class="slicetext"><text data-notex="1" class="slicetext" text-anchor="middle" x="0" y="0" style="font-family: 'Open Sans', verdana, arial, sans-serif; font-size: 12px; fill: rgb(255, 255, 255); fill-opacity: 1; white-space: pre;" transform="translate(142.10447316892262,328.6309276329519)scale(0.40897173091490746)rotate(-66.51721794290893)">미술ㆍ조형</text></g></g><g class="slice"><path class="surface" d="M154.28695982283494,302.49913905999483L138.88043973425238,341.2487085899922A125.10000000000001,125.10000000000001 0,0,0 145.85815007624404,343.78588811202036L158.93876671749604,304.19059207468024A83.4,83.4 0,0,1 154.28695982283494,302.49913905999483Z" style="pointer-events: all; stroke-width: 1; fill: rgb(33, 113, 181); fill-opacity: 1; stroke: rgb(255, 255, 255); stroke-opacity: 1; opacity: 0.7;"/><g class="slicetext"><text data-notex="1" class="slicetext" text-anchor="middle" x="0" y="0" style="font-family: 'Open Sans', verdana, arial, sans-serif; font-size: 12px; fill: rgb(255, 255, 255); fill-opacity: 1; white-space: pre;" transform="translate(148.23763935714368,331.5774085240766)scale(0.39074392549041426)rotate(-70.01812415043037)">연극ㆍ영화</text></g></g><g class="slice"><path class="surface" d="M158.93876671749612,304.19059207468024L145.85815007624416,343.7858881120204A125.10000000000001,125.10000000000001 0,0,0 191.5257066984117,349.93486420301576L189.3838044656078,308.2899094686772A83.4,83.4 0,0,1 158.93876671749612,304.19059207468024Z" style="pointer-events: all; stroke-width: 1; fill: rgb(66, 146, 198); fill-opacity: 1; stroke: rgb(255, 255, 255); stroke-opacity: 1; opacity: 0.7;"/><g class="slicetext"><text data-notex="1" class="slicetext" text-anchor="middle" x="0" y="0" style="font-family: 'Open Sans', verdana, arial, sans-serif; font-size: 12px; fill: rgb(68, 68, 68); fill-opacity: 1; white-space: pre;" transform="translate(173.05288690729554,328.55190658726053)scale(0.41321399679768117)rotate(-82.33144540099681)">생물ㆍ화학ㆍ환경</text></g></g><g class="slice"><path class="surface" d="M189.3838044656078,308.2899094686772L191.5257066984117,349.93486420301576A125.10000000000001,125.10000000000001 0,0,0 226.97811882109622,342.8822852001358L213.01874588073082,303.58819013342384A83.4,83.4 0,0,1 189.3838044656078,308.2899094686772Z" style="pointer-events: all; stroke-width: 1; fill: rgb(66, 146, 198); fill-opacity: 1; stroke: rgb(255, 255, 255); stroke-opacity: 1; opacity: 0.7;"/><g class="slicetext"><text data-notex="1" class="slicetext" text-anchor="middle" x="0" y="0" style="font-family: 'Open Sans', verdana, arial, sans-serif; font-size: 12px; fill: rgb(68, 68, 68); fill-opacity: 1; white-space: pre;" transform="translate(201.74772598901495,327.893711369838)scale(0.8242090936111669)rotate(78.74898051653827)">생활과학</text></g></g><g class="slice"><path class="surface" d="M213.01874588073082,303.58819013342384L226.97811882109622,342.8822852001358A125.10000000000001,125.10000000000001 0,0,0 237.3995271064747,338.64316725804116L219.96635140431647,300.7621115053608A83.4,83.4 0,0,1 213.01874588073082,303.58819013342384Z" style="pointer-events: all; stroke-width: 1; fill: rgb(66, 146, 198); fill-opacity: 1; stroke: rgb(255, 255, 255); stroke-opacity: 1; opacity: 0.7;"/><g class="slicetext"><text data-notex="1" class="slicetext" text-anchor="middle" x="0" y="0" style="font-family: 'Open Sans', verdana, arial, sans-serif; font-size: 12px; fill: rgb(68, 68, 68); fill-opacity: 1; white-space: pre;" transform="translate(223.10934731872553,322.0697868996653)scale(0.3006418300208322)rotate(67.86497507929312)">수학ㆍ물리ㆍ천문ㆍ지리</text></g></g><g class="slice"><path class="surface" d="M219.96635140431647,300.7621115053608L237.3995271064747,338.64316725804116A125.10000000000001,125.10000000000001 0,0,0 246.29836287129353,334.10898396499476L225.89890858086238,297.73932264332984A83.4,83.4 0,0,1 219.96635140431647,300.7621115053608Z" style="pointer-events: all; stroke-width: 1; fill: rgb(66, 146, 198); fill-opacity: 1; stroke: rgb(255, 255, 255); stroke-opacity: 1; opacity: 0.7;"/><g class="slicetext"><text data-notex="1" class="slicetext" text-anchor="middle" x="0" y="0" style="font-family: 'Open Sans', verdana, arial, sans-serif; font-size: 12px; fill: rgb(68, 68, 68); fill-opacity: 1; white-space: pre;" transform="translate(232.8327473061986,323.6105818232279)scale(0.4922233005232426)rotate(63)">농림ㆍ수산</text></g></g><g class="slice"><path class="surface" d="M225.89890858086238,297.73932264332984L246.29836287129353,334.10898396499476A125.10000000000001,125.10000000000001 0,0,0 249.48631329720547,332.2586251076999L228.02420886480365,296.5057500717999A83.4,83.4 0,0,1 225.89890858086238,297.73932264332984Z" style="pointer-events: all; stroke-width: 1; fill: rgb(66, 146, 198); fill-opacity: 1; stroke: rgb(255, 255, 255); stroke-opacity: 1; opacity: 0.7;"/><g class="slicetext"><text data-notex="1" class="slicetext" text-anchor="middle" x="0" y="0" style="font-family: 'Open Sans', verdana, arial, sans-serif; font-size: 12px; fill: rgb(68, 68, 68); fill-opacity: 1; white-space: pre;" transform="translate(240.19597223732268,321.6265162134521)scale(0.18797808064130953)rotate(59.86814680561855)">수학ㆍ물리 ㆍ 천문ㆍ지리</text></g></g><g class="slice"><path class="surface" d="M228.0242088648037,296.50575007179987L249.48631329720556,332.2586251076998A125.10000000000001,125.10000000000001 0,0,0 277.830721508793,308.9703714917273L246.920481005862,280.9802476611515A83.4,83.4 0,0,1 228.0242088648037,296.50575007179987Z" style="pointer-events: all; stroke-width: 1; fill: rgb(107, 174, 214); fill-opacity: 1; stroke: rgb(255, 255, 255); stroke-opacity: 1; opacity: 0.7;"/><g class="slicetext"><text data-notex="1" class="slicetext" text-anchor="middle" x="0" y="0" style="font-family: 'Open Sans', verdana, arial, sans-serif; font-size: 12px; fill: rgb(68, 68, 68); fill-opacity: 1; white-space: pre;" transform="translate(248.92534346660818,307.41142183844363)scale(0.6602324709687482)rotate(50.59288627095606)">언어ㆍ문학</text></g></g><g class="slice"><path class="surface" d="M246.920481005862,280.9802476611515L277.830721508793,308.9703714917273A125.10000000000001,125.10000000000001 0,0,0 292.10576145133325,289.80568660403475L256.43717430088884,268.2037910693565A83.4,83.4 0,0,1 246.920481005862,280.9802476611515Z" style="pointer-events: all; stroke-width: 1; fill: rgb(107, 174, 214); fill-opacity: 1; stroke: rgb(255, 255, 255); stroke-opacity: 1; opacity: 0.7;"/><g class="slicetext"><text data-notex="1" class="slicetext" text-anchor="middle" x="0" y="0" style="font-family: 'Open Sans', verdana, arial, sans-serif; font-size: 12px; fill: rgb(68, 68, 68); fill-opacity: 1; white-space: pre;" transform="translate(266.3984362565671,290.2290340439114)scale(0.8242090936111669)rotate(36.68101495242411)">인문과학</text></g></g><g class="slice"><path class="surface" d="M256.43717430088884,268.2037910693565L292.10576145133325,289.80568660403475A125.10000000000001,125.10000000000001 0,0,0 301.4045467173995,271.07887165350564L262.63636447826633,255.71924776900377A83.4,83.4 0,0,1 256.43717430088884,268.2037910693565Z" style="pointer-events: all; stroke-width: 1; fill: rgb(158, 202, 225); fill-opacity: 1; stroke: rgb(255, 255, 255); stroke-opacity: 1; opacity: 0.7;"/><g class="slicetext"><text data-notex="1" class="slicetext" text-anchor="middle" x="0" y="0" style="font-family: 'Open Sans', verdana, arial, sans-serif; font-size: 12px; fill: rgb(68, 68, 68); fill-opacity: 1; white-space: pre;" transform="translate(277.08693576308167,274.02775302808703)scale(0.6602324709687482)rotate(26.406660625283223)">치료ㆍ보건</text></g></g><g class="slice"><path class="surface" d="M262.63636447826633,255.71924776900377L301.4045467173995,271.07887165350564A125.10000000000001,125.10000000000001 0,0,0 303.8102585093343,264.4700459164545L264.24017233955624,251.31336394430303A83.4,83.4 0,0,1 262.63636447826633,255.71924776900377Z" style="pointer-events: all; stroke-width: 1; fill: rgb(158, 202, 225); fill-opacity: 1; stroke: rgb(255, 255, 255); stroke-opacity: 1; opacity: 0.7;"/><g class="slicetext"><text data-notex="1" class="slicetext" text-anchor="middle" x="0" y="0" style="font-family: 'Open Sans', verdana, arial, sans-serif; font-size: 12px; fill: rgb(68, 68, 68); fill-opacity: 1; white-space: pre;" transform="translate(296.9645725128115,267.7607372688556)scale(0.4216692126392456)rotate(20.002265518803824)">의료</text></g></g><g class="slice"><path class="surface" d="M264.24017233955624,251.31336394430303L303.8102585093343,264.4700459164545A125.10000000000001,125.10000000000001 0,0,0 305.303535772434,259.65717801271745L265.235690514956,248.10478534181163A83.4,83.4 0,0,1 264.24017233955624,251.31336394430303Z" style="pointer-events: all; stroke-width: 1; fill: rgb(158, 202, 225); fill-opacity: 1; stroke: rgb(255, 255, 255); stroke-opacity: 1; opacity: 0.7;"/><g class="slicetext"><text data-notex="1" class="slicetext" text-anchor="middle" x="0" y="0" style="font-family: 'Open Sans', verdana, arial, sans-serif; font-size: 12px; fill: rgb(68, 68, 68); fill-opacity: 1; white-space: pre;" transform="translate(300.41577337131963,262.25254132158716)scale(0.3095732528765551)rotate(17.2374263706389)">약학</text></g></g><g class="slice"><path class="surface" d="M265.235690514956,248.10478534181163L305.303535772434,259.65717801271745A125.10000000000001,125.10000000000001 0,0,0 305.8849289883873,257.5731627151901L265.62328599225816,246.71544181012675A83.4,83.4 0,0,1 265.235690514956,248.10478534181163Z" style="pointer-events: all; stroke-width: 1; fill: rgb(158, 202, 225); fill-opacity: 1; stroke: rgb(255, 255, 255); stroke-opacity: 1; opacity: 0.7;"/><g class="slicetext"><text data-notex="1" class="slicetext" text-anchor="middle" x="0" y="0" style="font-family: 'Open Sans', verdana, arial, sans-serif; font-size: 12px; fill: rgb(68, 68, 68); fill-opacity: 1; white-space: pre;" transform="translate(303.75278242103224,258.7520141314319)scale(0.13781737628772087)rotate(15.58790212958769)">간호</text></g></g><g class="slice"><path class="surface" d="M265.62328599225816,246.71544181012675L305.8849289883873,257.5731627151901A125.10000000000001,125.10000000000001 0,0,0 308.7286718464791,244.1301201636477L267.5191145643194,237.7534134424318A83.4,83.4 0,0,1 265.62328599225816,246.71544181012675Z" style="pointer-events: all; stroke-width: 1; fill: rgb(198, 219, 239); fill-opacity: 1; stroke: rgb(255, 255, 255); stroke-opacity: 1; opacity: 0.7;"/><g class="slicetext"><text data-notex="1" class="slicetext" text-anchor="middle" x="0" y="0" style="font-family: 'Open Sans', verdana, arial, sans-serif; font-size: 12px; fill: rgb(68, 68, 68); fill-opacity: 1; white-space: pre;" transform="translate(290.4722491725813,250.36161843211022)scale(0.6608202691965636)rotate(11.9442682374264)">중등교육</text></g></g><g class="slice"><path class="surface" d="M267.5191145643194,237.7534134424318L308.7286718464791,244.1301201636477A125.10000000000001,125.10000000000001 0,0,0 309.64413123351505,236.78004139589456L268.1294208223434,232.85336093059635A83.4,83.4 0,0,1 267.5191145643194,237.7534134424318Z" style="pointer-events: all; stroke-width: 1; fill: rgb(198, 219, 239); fill-opacity: 1; stroke: rgb(255, 255, 255); stroke-opacity: 1; opacity: 0.7;"/><g class="slicetext"><text data-notex="1" class="slicetext" text-anchor="middle" x="0" y="0" style="font-family: 'Open Sans', verdana, arial, sans-serif; font-size: 12px; fill: rgb(68, 68, 68); fill-opacity: 1; white-space: pre;" transform="translate(298.8198256358994,241.02391602906226)scale(0.4059361044869229)rotate(7.099682827367474)">유아교육</text></g></g><g class="slice"><path class="surface" d="M268.1294208223434,232.85336093059635L309.64413123351505,236.78004139589456A125.10000000000001,125.10000000000001 0,0,0 309.99726672312977,232.11918289492505L268.3648444820865,229.74612192995002A83.4,83.4 0,0,1 268.1294208223434,232.85336093059635Z" style="pointer-events: all; stroke-width: 1; fill: rgb(198, 219, 239); fill-opacity: 1; stroke: rgb(255, 255, 255); stroke-opacity: 1; opacity: 0.7;"/><g class="slicetext"><text data-notex="1" class="slicetext" text-anchor="middle" x="0" y="0" style="font-family: 'Open Sans', verdana, arial, sans-serif; font-size: 12px; fill: rgb(68, 68, 68); fill-opacity: 1; white-space: pre;" transform="translate(302.87900158741286,235.16673850624045)scale(0.2726091090817058)rotate(4.332804712279142)">초등교육</text></g></g><g class="slice"><path class="surface" d="M268.3648444820865,229.74612192995002L309.99726672312977,232.11918289492505A125.10000000000001,125.10000000000001 0,0,0 310.17390176758863,227.55520970403586L268.48260117839243,226.70347313602392A83.4,83.4 0,0,1 268.3648444820865,229.74612192995002Z" style="pointer-events: all; stroke-width: 1; fill: rgb(198, 219, 239); fill-opacity: 1; stroke: rgb(255, 255, 255); stroke-opacity: 1; opacity: 0.7;"/><g class="slicetext"><text data-notex="1" class="slicetext" text-anchor="middle" x="0" y="0" style="font-family: 'Open Sans', verdana, arial, sans-serif; font-size: 12px; fill: rgb(68, 68, 68); fill-opacity: 1; white-space: pre;" transform="translate(303.3158613753649,230.7903408801572)scale(0.26704878961197887)rotate(2.216357045763459)">특수교육</text></g></g><g class="slice"><path class="surface" d="M268.48260117839243,226.70347313602392L310.17390176758863,227.55520970403586A125.10000000000001,125.10000000000001 0,0,0 310.20000000000005,225.00000000000003L268.5,225.00000000000003A83.4,83.4 0,0,1 268.48260117839243,226.70347313602392Z" style="pointer-events: all; stroke-width: 1; fill: rgb(198, 219, 239); fill-opacity: 1; stroke: rgb(255, 255, 255); stroke-opacity: 1; opacity: 0.7;"/><g class="slicetext"><text data-notex="1" class="slicetext" text-anchor="middle" x="0" y="0" style="font-family: 'Open Sans', verdana, arial, sans-serif; font-size: 12px; fill: rgb(68, 68, 68); fill-opacity: 1; white-space: pre;" transform="translate(306.2269138688756,226.95032236742983)scale(0.15683892997646096)rotate(0.5851835070230891)">교육일반</text></g></g></g><g class="trace sunburst" stroke-linejoin="round" style="opacity: 1;"><g class="slice"><path class="surface" d="M490.90000000000003,225A0,0 0,1,0 490.90000000000003,225A0,0 0,1,0 490.90000000000003,225ZM532.6,225A41.699999999999996,41.699999999999996 0,1,1 449.20000000000005,225A41.699999999999996,41.699999999999996 0,1,1 532.6,225Z" style="pointer-events: all; stroke-width: 1; fill: rgb(0, 0, 0); fill-opacity: 0; stroke: rgb(255, 255, 255); stroke-opacity: 1;"/><g class="slicetext"><text data-notex="1" class="slicetext" text-anchor="middle" x="0" y="0" style="font-family: 'Open Sans', verdana, arial, sans-serif; font-size: 12px; fill: rgb(68, 68, 68); fill-opacity: 1; white-space: pre;" transform="translate(490.89121093750003,229.54687547683716)">전체</text></g></g><g class="slice cursor-pointer"><path class="surface" d="M532.6,225L574.3000000000001,225A83.39999999999999,83.39999999999999 0,0,0 457.31107698696115,148.66295623470774L474.1055384934806,186.83147811735387A41.699999999999996,41.699999999999996 0,0,1 532.6,225Z" style="pointer-events: all; stroke-width: 1; fill: rgb(8, 48, 107); fill-opacity: 1; stroke: rgb(255, 255, 255); stroke-opacity: 1;"/><g class="slicetext"><text data-notex="1" class="slicetext" text-anchor="middle" x="0" y="0" style="font-family: 'Open Sans', verdana, arial, sans-serif; font-size: 12px; fill: rgb(255, 255, 255); fill-opacity: 1; white-space: pre;" transform="translate(490.8920101165772,158.9113660157021)">공학계열</text></g></g><g class="slice cursor-pointer"><path class="surface" d="M474.1055384934806,186.83147811735387L457.31107698696115,148.66295623470774A83.39999999999999,83.39999999999999 0,0,0 408.52400855321946,238.02904575016652L449.7120042766097,231.51452287508326A41.699999999999996,41.699999999999996 0,0,1 474.1055384934806,186.83147811735387Z" style="pointer-events: all; stroke-width: 1; fill: rgb(8, 81, 156); fill-opacity: 1; stroke: rgb(255, 255, 255); stroke-opacity: 1;"/><g class="slicetext"><text data-notex="1" class="slicetext" text-anchor="middle" x="0" y="0" style="font-family: 'Open Sans', verdana, arial, sans-serif; font-size: 12px; fill: rgb(255, 255, 255); fill-opacity: 1; white-space: pre;" transform="translate(435.99181858973964,198.80970169611462)scale(0.8317255972640178)">사회계열</text></g></g><g class="slice cursor-pointer"><path class="surface" d="M449.7120042766097,231.51452287508326L408.52400855321946,238.02904575016652A83.39999999999999,83.39999999999999 0,0,0 464.7387667174961,304.19059207468024L477.8193833587481,264.5952960373401A41.699999999999996,41.699999999999996 0,0,1 449.7120042766097,231.51452287508326Z" style="pointer-events: all; stroke-width: 1; fill: rgb(33, 113, 181); fill-opacity: 1; stroke: rgb(255, 255, 255); stroke-opacity: 1;"/><g class="slicetext"><text data-notex="1" class="slicetext" text-anchor="middle" x="0" y="0" style="font-family: 'Open Sans', verdana, arial, sans-serif; font-size: 12px; fill: rgb(255, 255, 255); fill-opacity: 1; white-space: pre;" transform="translate(443.22686009759053,268.5730353425848)scale(0.6756424369914968)">예체능계열</text></g></g><g class="slice cursor-pointer"><path class="surface" d="M477.8193833587481,264.5952960373401L464.7387667174961,304.19059207468024A83.39999999999999,83.39999999999999 0,0,0 533.8242088648037,296.50575007179987L512.3621044324019,260.75287503589993A41.699999999999996,41.699999999999996 0,0,1 477.8193833587481,264.5952960373401Z" style="pointer-events: all; stroke-width: 1; fill: rgb(66, 146, 198); fill-opacity: 1; stroke: rgb(255, 255, 255); stroke-opacity: 1;"/><g class="slicetext"><text data-notex="1" class="slicetext" text-anchor="middle" x="0" y="0" style="font-family: 'Open Sans', verdana, arial, sans-serif; font-size: 12px; fill: rgb(68, 68, 68); fill-opacity: 1; white-space: pre;" transform="translate(490.89315474819983,302.6644236367365)scale(0.8567398844161174)">자연계열</text></g></g><g class="slice cursor-pointer"><path class="surface" d="M512.3621044324019,260.75287503589993L533.8242088648037,296.50575007179987A83.39999999999999,83.39999999999999 0,0,0 562.2371743008888,268.2037910693565L526.5685871504444,246.60189553467825A41.699999999999996,41.699999999999996 0,0,1 512.3621044324019,260.75287503589993Z" style="pointer-events: all; stroke-width: 1; fill: rgb(107, 174, 214); fill-opacity: 1; stroke: rgb(255, 255, 255); stroke-opacity: 1;"/><g class="slicetext"><text data-notex="1" class="slicetext" text-anchor="middle" x="0" y="0" style="font-family: 'Open Sans', verdana, arial, sans-serif; font-size: 12px; fill: rgb(68, 68, 68); fill-opacity: 1; white-space: pre;" transform="translate(538.3438831637576,275.56717006464487)scale(0.6448448505858877)">인문계열</text></g></g><g class="slice cursor-pointer"><path class="surface" d="M526.5685871504444,246.60189553467825L562.2371743008888,268.2037910693565A83.39999999999999,83.39999999999999 0,0,0 571.4232859922582,246.71544181012672L531.1616429961291,235.85772090506336A41.699999999999996,41.699999999999996 0,0,1 526.5685871504444,246.60189553467825Z" style="pointer-events: all; stroke-width: 1; fill: rgb(158, 202, 225); fill-opacity: 1; stroke: rgb(255, 255, 255); stroke-opacity: 1;"/><g class="slicetext"><text data-notex="1" class="slicetext" text-anchor="middle" x="0" y="0" style="font-family: 'Open Sans', verdana, arial, sans-serif; font-size: 12px; fill: rgb(68, 68, 68); fill-opacity: 1; white-space: pre;" transform="translate(558.159502868057,255.61326513416876)scale(0.4088356037145337)">의약계열</text></g></g><g class="slice cursor-pointer"><path class="surface" d="M531.1616429961291,235.85772090506336L571.4232859922582,246.71544181012672A83.39999999999999,83.39999999999999 0,0,0 574.3000000000001,225.00000000000003L532.6,225A41.699999999999996,41.699999999999996 0,0,1 531.1616429961291,235.85772090506336Z" style="pointer-events: all; stroke-width: 1; fill: rgb(198, 219, 239); fill-opacity: 1; stroke: rgb(255, 255, 255); stroke-opacity: 1;"/><g class="slicetext"><text data-notex="1" class="slicetext" text-anchor="middle" x="0" y="0" style="font-family: 'Open Sans', verdana, arial, sans-serif; font-size: 12px; fill: rgb(68, 68, 68); fill-opacity: 1; white-space: pre;" transform="translate(563.9772664431886,236.43715234495122)scale(0.3861914526585893)">교육계열</text></g></g><g class="slice"><path class="surface" d="M574.3000000000001,225L616,225A125.1,125.1 0,0,0 603.8523601710018,171.22477957460063L566.2015734473346,189.14985304973376A83.39999999999999,83.39999999999999 0,0,1 574.3000000000001,225Z" style="pointer-events: all; stroke-width: 1; fill: rgb(8, 48, 107); fill-opacity: 1; stroke: rgb(255, 255, 255); stroke-opacity: 1; opacity: 0.7;"/><g class="slicetext"><text data-notex="1" class="slicetext" text-anchor="middle" x="0" y="0" style="font-family: 'Open Sans', verdana, arial, sans-serif; font-size: 12px; fill: rgb(255, 255, 255); fill-opacity: 1; white-space: pre;" transform="translate(592.5833701408918,204.6109770149729)scale(0.5678395437979701)">컴퓨터ㆍ통신</text></g></g><g class="slice"><path class="surface" d="M566.2015734473346,189.14985304973376L603.8523601710018,171.22477957460063A125.1,125.1 0,0,0 574.9495403538559,132.34102975801233L546.9330269025706,163.22735317200824A83.39999999999999,83.39999999999999 0,0,1 566.2015734473346,189.14985304973376Z" style="pointer-events: all; stroke-width: 1; fill: rgb(8, 48, 107); fill-opacity: 1; stroke: rgb(255, 255, 255); stroke-opacity: 1; opacity: 0.7;"/><g class="slicetext"><text data-notex="1" class="slicetext" text-anchor="middle" x="0" y="0" style="font-family: 'Open Sans', verdana, arial, sans-serif; font-size: 12px; fill: rgb(255, 255, 255); fill-opacity: 1; white-space: pre;" transform="translate(575.0077852000398,165.4675709554229)scale(0.6576471776726961)">기계ㆍ금속</text></g></g><g class="slice"><path class="surface" d="M546.9330269025706,163.22735317200824L574.9495403538559,132.34102975801233A125.1,125.1 0,0,0 549.0544552815127,114.2386830571677L529.6696368543418,151.15912203811183A83.39999999999999,83.39999999999999 0,0,1 546.9330269025706,163.22735317200824Z" style="pointer-events: all; stroke-width: 1; fill: rgb(8, 48, 107); fill-opacity: 1; stroke: rgb(255, 255, 255); stroke-opacity: 1; opacity: 0.7;"/><g class="slicetext"><text data-notex="1" class="slicetext" text-anchor="middle" x="0" y="0" style="font-family: 'Open Sans', verdana, arial, sans-serif; font-size: 12px; fill: rgb(255, 255, 255); fill-opacity: 1; white-space: pre;" transform="translate(554.5355211436371,136.03157345474224)scale(0.45452154637752246)">전기ㆍ전자</text></g></g><g class="slice"><path class="surface" d="M529.6696368543418,151.15912203811183L549.0544552815127,114.2386830571677A125.1,125.1 0,0,0 525.8736032424982,104.88814764463785L514.2157354949989,144.92543176309192A83.39999999999999,83.39999999999999 0,0,1 529.6696368543418,151.15912203811183Z" style="pointer-events: all; stroke-width: 1; fill: rgb(8, 48, 107); fill-opacity: 1; stroke: rgb(255, 255, 255); stroke-opacity: 1; opacity: 0.7;"/><g class="slicetext"><text data-notex="1" class="slicetext" text-anchor="middle" x="0" y="0" style="font-family: 'Open Sans', verdana, arial, sans-serif; font-size: 12px; fill: rgb(255, 255, 255); fill-opacity: 1; white-space: pre;" transform="translate(533.4404098226872,123.20536925167492)scale(0.810376739025822)">기타</text></g></g><g class="slice"><path class="surface" d="M514.2157354949989,144.92543176309192L525.8736032424982,104.88814764463785A125.1,125.1 0,0,0 507.95975947524363,101.06866979392646L502.2731729834958,142.379113195951A83.39999999999999,83.39999999999999 0,0,1 514.2157354949989,144.92543176309192Z" style="pointer-events: all; stroke-width: 1; fill: rgb(8, 48, 107); fill-opacity: 1; stroke: rgb(255, 255, 255); stroke-opacity: 1; opacity: 0.7;"/><g class="slicetext"><text data-notex="1" class="slicetext" text-anchor="middle" x="0" y="0" style="font-family: 'Open Sans', verdana, arial, sans-serif; font-size: 12px; fill: rgb(255, 255, 255); fill-opacity: 1; white-space: pre;" transform="translate(515.2018611666399,113.76329688635069)scale(0.6086043229322219)">건축</text></g></g><g class="slice"><path class="surface" d="M502.2731729834958,142.379113195951L507.95975947524363,101.06866979392646A125.1,125.1 0,0,0 493.3750918029046,99.92448712650749L492.5500612019364,141.61632475100498A83.39999999999999,83.39999999999999 0,0,1 502.2731729834958,142.379113195951Z" style="pointer-events: all; stroke-width: 1; fill: rgb(8, 48, 107); fill-opacity: 1; stroke: rgb(255, 255, 255); stroke-opacity: 1; opacity: 0.7;"/><g class="slicetext"><text data-notex="1" class="slicetext" text-anchor="middle" x="0" y="0" style="font-family: 'Open Sans', verdana, arial, sans-serif; font-size: 12px; fill: rgb(255, 255, 255); fill-opacity: 1; white-space: pre;" transform="translate(500.141748946714,108.19092253134899)scale(0.22393951427591832)">소재ㆍ재료</text></g></g><g class="slice"><path class="surface" d="M492.5500612019364,141.61632475100498L493.3750918029046,99.92448712650749A125.1,125.1 0,0,0 479.0933661953761,100.45838688131782L483.02891079691744,141.97225792087855A83.39999999999999,83.39999999999999 0,0,1 492.5500612019364,141.61632475100498Z" style="pointer-events: all; stroke-width: 1; fill: rgb(8, 48, 107); fill-opacity: 1; stroke: rgb(255, 255, 255); stroke-opacity: 1; opacity: 0.7;"/><g class="slicetext"><text data-notex="1" class="slicetext" text-anchor="middle" x="0" y="0" style="font-family: 'Open Sans', verdana, arial, sans-serif; font-size: 12px; fill: rgb(255, 255, 255); fill-opacity: 1; white-space: pre;" transform="translate(486.47723792588164,107.73831829185885)scale(0.21904838724190653)">교통ㆍ운송</text></g></g><g class="slice"><path class="surface" d="M483.02891079691744,141.97225792087855L479.0933661953761,100.45838688131782A125.1,125.1 0,0,0 465.98573184663445,102.405998342569L474.2904878977563,143.2706655617127A83.39999999999999,83.39999999999999 0,0,1 483.02891079691744,141.97225792087855Z" style="pointer-events: all; stroke-width: 1; fill: rgb(8, 48, 107); fill-opacity: 1; stroke: rgb(255, 255, 255); stroke-opacity: 1; opacity: 0.7;"/><g class="slicetext"><text data-notex="1" class="slicetext" text-anchor="middle" x="0" y="0" style="font-family: 'Open Sans', verdana, arial, sans-serif; font-size: 12px; fill: rgb(255, 255, 255); fill-opacity: 1; white-space: pre;" transform="translate(473.43681067001364,108.40981840609679)scale(0.20390774835489417)">토목ㆍ도시</text></g></g><g class="slice"><path class="surface" d="M474.2904878977563,143.2706655617127L465.98573184663445,102.405998342569A125.1,125.1 0,0,0 456.4567590123522,104.73498783824608L467.9378393415681,144.8233252254974A83.39999999999999,83.39999999999999 0,0,1 474.2904878977563,143.2706655617127Z" style="pointer-events: all; stroke-width: 1; fill: rgb(8, 48, 107); fill-opacity: 1; stroke: rgb(255, 255, 255); stroke-opacity: 1; opacity: 0.7;"/><g class="slicetext"><text data-notex="1" class="slicetext" text-anchor="middle" x="0" y="0" style="font-family: 'Open Sans', verdana, arial, sans-serif; font-size: 12px; fill: rgb(255, 255, 255); fill-opacity: 1; white-space: pre;" transform="translate(462.31601182731066,109.59229008417884)scale(0.3366041533497763)">화공</text></g></g><g class="slice"><path class="surface" d="M467.9378393415681,144.8233252254974L456.4567590123522,104.73498783824608A125.1,125.1 0,0,0 447.79921254301945,107.55923995227133L462.1661416953463,146.70615996818088A83.39999999999999,83.39999999999999 0,0,1 467.9378393415681,144.8233252254974Z" style="pointer-events: all; stroke-width: 1; fill: rgb(8, 48, 107); fill-opacity: 1; stroke: rgb(255, 255, 255); stroke-opacity: 1; opacity: 0.7;"/><g class="slicetext"><text data-notex="1" class="slicetext" text-anchor="middle" x="0" y="0" style="font-family: 'Open Sans', verdana, arial, sans-serif; font-size: 12px; fill: rgb(255, 255, 255); fill-opacity: 1; white-space: pre;" transform="translate(453.46388849196484,110.7891019317859)scale(0.11965143860741566)">정밀ㆍ에너지</text></g></g><g class="slice"><path class="surface" d="M462.1661416953463,146.70615996818088L447.79921254301945,107.55923995227133A125.1,125.1 0,0,0 440.5166154804417,110.49443435206162L457.31107698696115,148.66295623470774A83.39999999999999,83.39999999999999 0,0,1 462.1661416953463,146.70615996818088Z" style="pointer-events: all; stroke-width: 1; fill: rgb(8, 48, 107); fill-opacity: 1; stroke: rgb(255, 255, 255); stroke-opacity: 1; opacity: 0.7;"/><g class="slicetext"><text data-notex="1" class="slicetext" text-anchor="middle" x="0" y="0" style="font-family: 'Open Sans', verdana, arial, sans-serif; font-size: 12px; fill: rgb(255, 255, 255); fill-opacity: 1; white-space: pre;" transform="translate(445.5554360461199,113.73454973207257)scale(0.27147425124210717)">산업</text></g></g><g class="slice"><path class="surface" d="M457.31107698696115,148.66295623470774L440.5166154804417,110.4944343520616A125.1,125.1 0,0,0 373.6878722736447,181.28127273283718L412.7585815157631,195.85418182189147A83.39999999999999,83.39999999999999 0,0,1 457.31107698696115,148.66295623470774Z" style="pointer-events: all; stroke-width: 1; fill: rgb(8, 81, 156); fill-opacity: 1; stroke: rgb(255, 255, 255); stroke-opacity: 1; opacity: 0.7;"/><g class="slicetext"><text data-notex="1" class="slicetext" text-anchor="middle" x="0" y="0" style="font-family: 'Open Sans', verdana, arial, sans-serif; font-size: 12px; fill: rgb(255, 255, 255); fill-opacity: 1; white-space: pre;" transform="translate(415.08943526963435,156.50598947380593)scale(0.675642436991497)">경영ㆍ경제</text></g></g><g class="slice"><path class="surface" d="M412.7585815157631,195.85418182189147L373.6878722736447,181.28127273283718A125.1,125.1 0,0,0 366.43477715207223,237.58643322850725L407.92318476804815,233.3909554856715A83.39999999999999,83.39999999999999 0,0,1 412.7585815157631,195.85418182189147Z" style="pointer-events: all; stroke-width: 1; fill: rgb(8, 81, 156); fill-opacity: 1; stroke: rgb(255, 255, 255); stroke-opacity: 1; opacity: 0.7;"/><g class="slicetext"><text data-notex="1" class="slicetext" text-anchor="middle" x="0" y="0" style="font-family: 'Open Sans', verdana, arial, sans-serif; font-size: 12px; fill: rgb(255, 255, 255); fill-opacity: 1; white-space: pre;" transform="translate(387.4976972626807,215.46257324873486)scale(0.831725597264018)">사회과학</text></g></g><g class="slice"><path class="surface" d="M407.92318476804815,233.3909554856715L366.43477715207223,237.58643322850725A125.1,125.1 0,0,0 367.33601282982914,244.54356862524978L408.52400855321946,238.02904575016652A83.39999999999999,83.39999999999999 0,0,1 407.92318476804815,233.3909554856715Z" style="pointer-events: all; stroke-width: 1; fill: rgb(8, 81, 156); fill-opacity: 1; stroke: rgb(255, 255, 255); stroke-opacity: 1; opacity: 0.7;"/><g class="slicetext"><text data-notex="1" class="slicetext" text-anchor="middle" x="0" y="0" style="font-family: 'Open Sans', verdana, arial, sans-serif; font-size: 12px; fill: rgb(255, 255, 255); fill-opacity: 1; white-space: pre;" transform="translate(370.21817309697207,241.73942185738701)scale(0.243338544926763)">법률</text></g></g><g class="slice"><path class="surface" d="M408.52400855321946,238.02904575016652L367.33601282982914,244.54356862524978A125.1,125.1 0,0,0 380.61837844985814,284.05907168480786L417.3789189665721,264.3727144565386A83.39999999999999,83.39999999999999 0,0,1 408.52400855321946,238.02904575016652Z" style="pointer-events: all; stroke-width: 1; fill: rgb(33, 113, 181); fill-opacity: 1; stroke: rgb(255, 255, 255); stroke-opacity: 1; opacity: 0.7;"/><g class="slicetext"><text data-notex="1" class="slicetext" text-anchor="middle" x="0" y="0" style="font-family: 'Open Sans', verdana, arial, sans-serif; font-size: 12px; fill: rgb(255, 255, 255); fill-opacity: 1; white-space: pre;" transform="translate(389.2482339628597,263.3525624038524)scale(0.9207969590483605)">디자인</text></g></g><g class="slice"><path class="surface" d="M417.3789189665721,264.3727144565386L380.61837844985814,284.05907168480786A125.1,125.1 0,0,0 400.73278667457726,311.71726264780096L430.7885244497182,282.8115084318673A83.39999999999999,83.39999999999999 0,0,1 417.3789189665721,264.3727144565386Z" style="pointer-events: all; stroke-width: 1; fill: rgb(33, 113, 181); fill-opacity: 1; stroke: rgb(255, 255, 255); stroke-opacity: 1; opacity: 0.7;"/><g class="slicetext"><text data-notex="1" class="slicetext" text-anchor="middle" x="0" y="0" style="font-family: 'Open Sans', verdana, arial, sans-serif; font-size: 12px; fill: rgb(255, 255, 255); fill-opacity: 1; white-space: pre;" transform="translate(401.88735797316036,292.4594504942192)scale(0.6000888716643347)">응용예술</text></g></g><g class="slice"><path class="surface" d="M430.7885244497182,282.8115084318673L400.73278667457726,311.71726264780096A125.1,125.1 0,0,0 427.0105812150687,332.55534467112113L448.30705414337916,296.7035631140808A83.39999999999999,83.39999999999999 0,0,1 430.7885244497182,282.8115084318673Z" style="pointer-events: all; stroke-width: 1; fill: rgb(33, 113, 181); fill-opacity: 1; stroke: rgb(255, 255, 255); stroke-opacity: 1; opacity: 0.7;"/><g class="slicetext"><text data-notex="1" class="slicetext" text-anchor="middle" x="0" y="0" style="font-family: 'Open Sans', verdana, arial, sans-serif; font-size: 12px; fill: rgb(255, 255, 255); fill-opacity: 1; white-space: pre;" transform="translate(422.35362773364994,313.6136492948487)scale(0.4791587632142946)">무용ㆍ체육</text></g></g><g class="slice"><path class="surface" d="M448.30705414337916,296.7035631140808L427.0105812150687,332.55534467112113A125.1,125.1 0,0,0 437.4707164909541,338.11640757958145L455.2804776606361,300.4109383863876A83.39999999999999,83.39999999999999 0,0,1 448.30705414337916,296.7035631140808Z" style="pointer-events: all; stroke-width: 1; fill: rgb(33, 113, 181); fill-opacity: 1; stroke: rgb(255, 255, 255); stroke-opacity: 1; opacity: 0.7;"/><g class="slicetext"><text data-notex="1" class="slicetext" text-anchor="middle" x="0" y="0" style="font-family: 'Open Sans', verdana, arial, sans-serif; font-size: 12px; fill: rgb(255, 255, 255); fill-opacity: 1; white-space: pre;" transform="translate(434.82607047093234,332.3000892159106)scale(0.4033440169086379)">음악</text></g></g><g class="slice"><path class="surface" d="M455.2804776606361,300.4109383863876L437.4707164909541,338.11640757958145A125.1,125.1 0,0,0 444.6804397342524,341.2487085899922L460.08695982283496,302.4991390599948A83.39999999999999,83.39999999999999 0,0,1 455.2804776606361,300.4109383863876Z" style="pointer-events: all; stroke-width: 1; fill: rgb(33, 113, 181); fill-opacity: 1; stroke: rgb(255, 255, 255); stroke-opacity: 1; opacity: 0.7;"/><g class="slicetext"><text data-notex="1" class="slicetext" text-anchor="middle" x="0" y="0" style="font-family: 'Open Sans', verdana, arial, sans-serif; font-size: 12px; fill: rgb(255, 255, 255); fill-opacity: 1; white-space: pre;" transform="translate(442.5683505293281,336.80561202570505)scale(0.12348388817379595)">미술ㆍ조형</text></g></g><g class="slice"><path class="surface" d="M460.08695982283496,302.4991390599948L444.6804397342524,341.2487085899922A125.1,125.1 0,0,0 451.65815007624406,343.7858881120203L464.73876671749605,304.19059207468024A83.39999999999999,83.39999999999999 0,0,1 460.08695982283496,302.4991390599948Z" style="pointer-events: all; stroke-width: 1; fill: rgb(33, 113, 181); fill-opacity: 1; stroke: rgb(255, 255, 255); stroke-opacity: 1; opacity: 0.7;"/><g class="slicetext"><text data-notex="1" class="slicetext" text-anchor="middle" x="0" y="0" style="font-family: 'Open Sans', verdana, arial, sans-serif; font-size: 12px; fill: rgb(255, 255, 255); fill-opacity: 1; white-space: pre;" transform="translate(449.3814915743658,339.71198390804943)scale(0.11683093852493001)">연극ㆍ영화</text></g></g><g class="slice"><path class="surface" d="M464.7387667174961,304.19059207468024L451.65815007624417,343.78588811202036A125.1,125.1 0,0,0 497.3257066984117,349.93486420301576L495.1838044656078,308.28990946867714A83.39999999999999,83.39999999999999 0,0,1 464.7387667174961,304.19059207468024Z" style="pointer-events: all; stroke-width: 1; fill: rgb(66, 146, 198); fill-opacity: 1; stroke: rgb(255, 255, 255); stroke-opacity: 1; opacity: 0.7;"/><g class="slicetext"><text data-notex="1" class="slicetext" text-anchor="middle" x="0" y="0" style="font-family: 'Open Sans', verdana, arial, sans-serif; font-size: 12px; fill: rgb(68, 68, 68); fill-opacity: 1; white-space: pre;" transform="translate(476.7995233009396,331.5212599831709)scale(0.40084155683081363)">생물ㆍ화학ㆍ환경</text></g></g><g class="slice"><path class="surface" d="M495.1838044656078,308.28990946867714L497.3257066984117,349.93486420301576A125.1,125.1 0,0,0 532.7781188210962,342.88228520013575L518.8187458807308,303.58819013342384A83.39999999999999,83.39999999999999 0,0,1 495.1838044656078,308.28990946867714Z" style="pointer-events: all; stroke-width: 1; fill: rgb(66, 146, 198); fill-opacity: 1; stroke: rgb(255, 255, 255); stroke-opacity: 1; opacity: 0.7;"/><g class="slicetext"><text data-notex="1" class="slicetext" text-anchor="middle" x="0" y="0" style="font-family: 'Open Sans', verdana, arial, sans-serif; font-size: 12px; fill: rgb(68, 68, 68); fill-opacity: 1; white-space: pre;" transform="translate(512.2218016589483,335.0716128541242)scale(0.6299584781262871)">생활과학</text></g></g><g class="slice"><path class="surface" d="M518.8187458807308,303.58819013342384L532.7781188210962,342.88228520013575A125.1,125.1 0,0,0 543.1995271064746,338.64316725804116L525.7663514043164,300.76211150536074A83.39999999999999,83.39999999999999 0,0,1 518.8187458807308,303.58819013342384Z" style="pointer-events: all; stroke-width: 1; fill: rgb(66, 146, 198); fill-opacity: 1; stroke: rgb(255, 255, 255); stroke-opacity: 1; opacity: 0.7;"/><g class="slicetext"><text data-notex="1" class="slicetext" text-anchor="middle" x="0" y="0" style="font-family: 'Open Sans', verdana, arial, sans-serif; font-size: 12px; fill: rgb(68, 68, 68); fill-opacity: 1; white-space: pre;" transform="translate(536.007524198104,336.2621373483653)scale(0.0810839427454339)">수학ㆍ물리ㆍ천문ㆍ지리</text></g></g><g class="slice"><path class="surface" d="M525.7663514043164,300.76211150536074L543.1995271064746,338.64316725804116A125.1,125.1 0,0,0 552.0983628712936,334.10898396499476L531.6989085808624,297.73932264332984A83.39999999999999,83.39999999999999 0,0,1 525.7663514043164,300.76211150536074Z" style="pointer-events: all; stroke-width: 1; fill: rgb(66, 146, 198); fill-opacity: 1; stroke: rgb(255, 255, 255); stroke-opacity: 1; opacity: 0.7;"/><g class="slicetext"><text data-notex="1" class="slicetext" text-anchor="middle" x="0" y="0" style="font-family: 'Open Sans', verdana, arial, sans-serif; font-size: 12px; fill: rgb(68, 68, 68); fill-opacity: 1; white-space: pre;" transform="translate(545.5128033302894,332.8938249186043)scale(0.1556088243452647)">농림ㆍ수산</text></g></g><g class="slice"><path class="surface" d="M531.6989085808624,297.73932264332984L552.0983628712936,334.10898396499476A125.1,125.1 0,0,0 555.2863132972054,332.25862510769986L533.8242088648036,296.5057500717999A83.39999999999999,83.39999999999999 0,0,1 531.6989085808624,297.73932264332984Z" style="pointer-events: all; stroke-width: 1; fill: rgb(66, 146, 198); fill-opacity: 1; stroke: rgb(255, 255, 255); stroke-opacity: 1; opacity: 0.7;"/><g class="slicetext"><text data-notex="1" class="slicetext" text-anchor="middle" x="0" y="0" style="font-family: 'Open Sans', verdana, arial, sans-serif; font-size: 12px; fill: rgb(68, 68, 68); fill-opacity: 1; white-space: pre;" transform="translate(552.7872075759512,331.7417102948372)scale(0.02573124309710925)">수학ㆍ물리 ㆍ 천문ㆍ지리</text></g></g><g class="slice"><path class="surface" d="M533.8242088648037,296.50575007179987L555.2863132972055,332.2586251076998A125.1,125.1 0,0,0 583.6307215087929,308.9703714917273L552.720481005862,280.9802476611515A83.39999999999999,83.39999999999999 0,0,1 533.8242088648037,296.50575007179987Z" style="pointer-events: all; stroke-width: 1; fill: rgb(107, 174, 214); fill-opacity: 1; stroke: rgb(255, 255, 255); stroke-opacity: 1; opacity: 0.7;"/><g class="slicetext"><text data-notex="1" class="slicetext" text-anchor="middle" x="0" y="0" style="font-family: 'Open Sans', verdana, arial, sans-serif; font-size: 12px; fill: rgb(68, 68, 68); fill-opacity: 1; white-space: pre;" transform="translate(560.1571548434135,311.6561136061459)scale(0.518373848496945)">언어ㆍ문학</text></g></g><g class="slice"><path class="surface" d="M552.720481005862,280.9802476611515L583.6307215087929,308.9703714917273A125.1,125.1 0,0,0 597.9057614513332,289.80568660403475L562.2371743008888,268.2037910693565A83.39999999999999,83.39999999999999 0,0,1 552.720481005862,280.9802476611515Z" style="pointer-events: all; stroke-width: 1; fill: rgb(107, 174, 214); fill-opacity: 1; stroke: rgb(255, 255, 255); stroke-opacity: 1; opacity: 0.7;"/><g class="slicetext"><text data-notex="1" class="slicetext" text-anchor="middle" x="0" y="0" style="font-family: 'Open Sans', verdana, arial, sans-serif; font-size: 12px; fill: rgb(68, 68, 68); fill-opacity: 1; white-space: pre;" transform="translate(582.4765099689257,295.1926781326318)scale(0.43507966862749997)">인문과학</text></g></g><g class="slice"><path class="surface" d="M562.2371743008888,268.2037910693565L597.9057614513332,289.80568660403475A125.1,125.1 0,0,0 607.2045467173995,271.07887165350564L568.4363644782663,255.71924776900374A83.39999999999999,83.39999999999999 0,0,1 562.2371743008888,268.2037910693565Z" style="pointer-events: all; stroke-width: 1; fill: rgb(158, 202, 225); fill-opacity: 1; stroke: rgb(255, 255, 255); stroke-opacity: 1; opacity: 0.7;"/><g class="slicetext"><text data-notex="1" class="slicetext" text-anchor="middle" x="0" y="0" style="font-family: 'Open Sans', verdana, arial, sans-serif; font-size: 12px; fill: rgb(68, 68, 68); fill-opacity: 1; white-space: pre;" transform="translate(594.3030987506776,277.76760375577885)scale(0.3126409857872177)">치료ㆍ보건</text></g></g><g class="slice"><path class="surface" d="M568.4363644782663,255.71924776900374L607.2045467173995,271.07887165350564A125.1,125.1 0,0,0 609.6102585093342,264.4700459164545L570.0401723395562,251.31336394430303A83.39999999999999,83.39999999999999 0,0,1 568.4363644782663,255.71924776900374Z" style="pointer-events: all; stroke-width: 1; fill: rgb(158, 202, 225); fill-opacity: 1; stroke: rgb(255, 255, 255); stroke-opacity: 1; opacity: 0.7;"/><g class="slicetext"><text data-notex="1" class="slicetext" text-anchor="middle" x="0" y="0" style="font-family: 'Open Sans', verdana, arial, sans-serif; font-size: 12px; fill: rgb(68, 68, 68); fill-opacity: 1; white-space: pre;" transform="translate(605.2376447738542,267.7305605503442)scale(0.24393911114752304)">의료</text></g></g><g class="slice"><path class="surface" d="M570.0401723395562,251.31336394430303L609.6102585093342,264.4700459164545A125.1,125.1 0,0,0 611.103535772434,259.65717801271745L571.0356905149561,248.10478534181163A83.39999999999999,83.39999999999999 0,0,1 570.0401723395562,251.31336394430303Z" style="pointer-events: all; stroke-width: 1; fill: rgb(158, 202, 225); fill-opacity: 1; stroke: rgb(255, 255, 255); stroke-opacity: 1; opacity: 0.7;"/><g class="slicetext"><text data-notex="1" class="slicetext" text-anchor="middle" x="0" y="0" style="font-family: 'Open Sans', verdana, arial, sans-serif; font-size: 12px; fill: rgb(68, 68, 68); fill-opacity: 1; white-space: pre;" transform="translate(608.0206614830511,262.1401575519379)scale(0.17614812926268236)">약학</text></g></g><g class="slice"><path class="surface" d="M571.0356905149561,248.10478534181163L611.103535772434,259.65717801271745A125.1,125.1 0,0,0 611.6849289883872,257.5731627151901L571.4232859922582,246.71544181012672A83.39999999999999,83.39999999999999 0,0,1 571.0356905149561,248.10478534181163Z" style="pointer-events: all; stroke-width: 1; fill: rgb(158, 202, 225); fill-opacity: 1; stroke: rgb(255, 255, 255); stroke-opacity: 1; opacity: 0.7;"/><g class="slicetext"><text data-notex="1" class="slicetext" text-anchor="middle" x="0" y="0" style="font-family: 'Open Sans', verdana, arial, sans-serif; font-size: 12px; fill: rgb(68, 68, 68); fill-opacity: 1; white-space: pre;" transform="translate(610.3649913510252,258.67601969761785)scale(0.07649138222517415)">간호</text></g></g><g class="slice"><path class="surface" d="M571.4232859922582,246.71544181012672L611.6849289883872,257.5731627151901A125.1,125.1 0,0,0 614.528671846479,244.1301201636477L573.3191145643194,237.7534134424318A83.39999999999999,83.39999999999999 0,0,1 571.4232859922582,246.71544181012672Z" style="pointer-events: all; stroke-width: 1; fill: rgb(198, 219, 239); fill-opacity: 1; stroke: rgb(255, 255, 255); stroke-opacity: 1; opacity: 0.7;"/><g class="slicetext"><text data-notex="1" class="slicetext" text-anchor="middle" x="0" y="0" style="font-family: 'Open Sans', verdana, arial, sans-serif; font-size: 12px; fill: rgb(68, 68, 68); fill-opacity: 1; white-space: pre;" transform="translate(606.9178267566339,250.72411448177374)scale(0.25979382798989037)">중등교육</text></g></g><g class="slice"><path class="surface" d="M573.3191145643194,237.7534134424318L614.528671846479,244.1301201636477A125.1,125.1 0,0,0 615.444131233515,236.78004139589456L573.9294208223433,232.85336093059635A83.39999999999999,83.39999999999999 0,0,1 573.3191145643194,237.7534134424318Z" style="pointer-events: all; stroke-width: 1; fill: rgb(198, 219, 239); fill-opacity: 1; stroke: rgb(255, 255, 255); stroke-opacity: 1; opacity: 0.7;"/><g class="slicetext"><text data-notex="1" class="slicetext" text-anchor="middle" x="0" y="0" style="font-family: 'Open Sans', verdana, arial, sans-serif; font-size: 12px; fill: rgb(68, 68, 68); fill-opacity: 1; white-space: pre;" transform="translate(611.4702921824353,240.66970034537414)scale(0.14348569368088393)">유아교육</text></g></g><g class="slice"><path class="surface" d="M573.9294208223433,232.85336093059635L615.444131233515,236.78004139589456A125.1,125.1 0,0,0 615.7972667231297,232.11918289492505L574.1648444820866,229.74612192995002A83.39999999999999,83.39999999999999 0,0,1 573.9294208223433,232.85336093059635Z" style="pointer-events: all; stroke-width: 1; fill: rgb(198, 219, 239); fill-opacity: 1; stroke: rgb(255, 255, 255); stroke-opacity: 1; opacity: 0.7;"/><g class="slicetext"><text data-notex="1" class="slicetext" text-anchor="middle" x="0" y="0" style="font-family: 'Open Sans', verdana, arial, sans-serif; font-size: 12px; fill: rgb(68, 68, 68); fill-opacity: 1; white-space: pre;" transform="translate(613.3540473105259,234.69406039547044)scale(0.09151964023415629)">초등교육</text></g></g><g class="slice"><path class="surface" d="M574.1648444820866,229.74612192995002L615.7972667231297,232.11918289492505A125.1,125.1 0,0,0 615.9739017675886,227.55520970403586L574.2826011783924,226.70347313602392A83.39999999999999,83.39999999999999 0,0,1 574.1648444820866,229.74612192995002Z" style="pointer-events: all; stroke-width: 1; fill: rgb(198, 219, 239); fill-opacity: 1; stroke: rgb(255, 255, 255); stroke-opacity: 1; opacity: 0.7;"/><g class="slicetext"><text data-notex="1" class="slicetext" text-anchor="middle" x="0" y="0" style="font-family: 'Open Sans', verdana, arial, sans-serif; font-size: 12px; fill: rgb(68, 68, 68); fill-opacity: 1; white-space: pre;" transform="translate(613.664624089988,230.15805676009805)scale(0.08946549617016578)">특수교육</text></g></g><g class="slice"><path class="surface" d="M574.2826011783924,226.70347313602392L615.9739017675886,227.55520970403586A125.1,125.1 0,0,0 616,225.00000000000003L574.3000000000001,225.00000000000003A83.39999999999999,83.39999999999999 0,0,1 574.2826011783924,226.70347313602392Z" style="pointer-events: all; stroke-width: 1; fill: rgb(198, 219, 239); fill-opacity: 1; stroke: rgb(255, 255, 255); stroke-opacity: 1; opacity: 0.7;"/><g class="slicetext"><text data-notex="1" class="slicetext" text-anchor="middle" x="0" y="0" style="font-family: 'Open Sans', verdana, arial, sans-serif; font-size: 12px; fill: rgb(68, 68, 68); fill-opacity: 1; white-space: pre;" transform="translate(614.7283838291005,226.49415420490547)scale(0.05045220746256143)">교육일반</text></g></g></g></g><g class="glimages"/><defs id="topdefs-25d463"><g class="clips"/></defs><g class="layer-above"><g class="imagelayer"/><g class="shapelayer"/></g><g class="infolayer"><g class="g-gtitle"/><g class="annotation" data-index="0" style="opacity: 1;"><g class="annotation-text-g" transform="rotate(0,199,34.50000000000001)"><g class="cursor-pointer" transform="translate(106,25)"><rect class="bg" x="0.5" y="0.5" width="185" height="18" style="stroke-width: 1px; stroke: rgb(0, 0, 0); stroke-opacity: 0; fill: rgb(0, 0, 0); fill-opacity: 0;"/><text class="annotation-text" text-anchor="middle" x="93.0625" y="13.8125" style="font-family: 'Open Sans', verdana, arial, sans-serif; font-size: 12px; fill: rgb(68, 68, 68); fill-opacity: 1; white-space: pre;">insidetextorientation = 'radial'</text></g></g></g><g class="annotation" data-index="1" style="opacity: 1;"><g class="annotation-text-g" transform="rotate(0,477,34.50000000000001)"><g class="cursor-pointer" transform="translate(371,25)"><rect class="bg" x="0.5" y="0.5" width="211" height="18" style="stroke-width: 1px; stroke: rgb(0, 0, 0); stroke-opacity: 0; fill: rgb(0, 0, 0); fill-opacity: 0;"/><text class="annotation-text" text-anchor="middle" x="106.1708984375" y="13.8125" style="font-family: 'Open Sans', verdana, arial, sans-serif; font-size: 12px; fill: rgb(68, 68, 68); fill-opacity: 1; white-space: pre;">insidetextorientation = 'horizontal'</text></g></g></g></g></svg>