<svg class="main-svg" xmlns="http://www.w3.org/2000/svg" xmlns:xlink="http://www.w3.org/1999/xlink" width="626.364" height="465.455" style="" viewBox="0 0 626.364 465.455"><rect x="0" y="0" width="626.364" height="465.455" style="fill: rgb(255, 255, 255); fill-opacity: 1;"/><defs id="defs-16fe4d"><g class="clips"/><g class="gradients"/><g class="patterns"/></defs><g class="bglayer"/><g class="layer-below"><g class="imagelayer"/><g class="shapelayer"/></g><g class="cartesianlayer"/><g class="polarlayer"/><g class="ternarylayer"/><g class="geolayer"/><g class="funnelarealayer"/><g class="pielayer"/><g class="iciclelayer"/><g class="treemaplayer"/><g class="sunburstlayer"><g class="trace sunburst" stroke-linejoin="round" style="opacity: 1;"><g class="slice cursor-pointer"><path class="surface" d="M338,225A0,0 0,1,0 338,225A0,0 0,1,0 338,225ZM438,225A100,100 0,1,1 238,225A100,100 0,1,1 438,225.00000000000003Z" style="pointer-events: all; stroke-width: 1; fill: rgb(8, 48, 107); fill-opacity: 1; stroke: rgb(255, 255, 255); stroke-opacity: 1;"/><g class="slicetext"><text data-notex="1" class="slicetext" text-anchor="middle" x="0" y="0" style="font-family: 'Open Sans', verdana, arial, sans-serif; font-size: 12px; fill: rgb(255, 255, 255); fill-opacity: 1; white-space: pre;" transform="translate(337.99201011657715,229.54687547683716)">공학계열</text></g></g><g class="slice"><path class="surface" d="M438,225L538,225A200,200 0,0,0 370.76104274668916,27.701459513382105L354.38052137334455,126.35072975669105A100,100 0,0,1 438,225Z" style="pointer-events: all; stroke-width: 1; fill: rgb(8, 48, 107); fill-opacity: 1; stroke: rgb(255, 255, 255); stroke-opacity: 1; opacity: 0.7;"/><g class="slicetext"><text data-notex="1" class="slicetext" text-anchor="middle" x="0" y="0" style="font-family: 'Open Sans', verdana, arial, sans-serif; font-size: 12px; fill: rgb(255, 255, 255); fill-opacity: 1; white-space: pre;" transform="translate(452.4160906240208,132.55619888625586)">컴퓨터ㆍ통신</text></g></g><g class="slice"><path class="surface" d="M354.38052137334455,126.35072975669105L370.76104274668916,27.701459513382105A200,200 0,0,0 162.6623237679753,128.7882580266126L250.33116188398765,176.8941290133063A100,100 0,0,1 354.38052137334455,126.35072975669105Z" style="pointer-events: all; stroke-width: 1; fill: rgb(8, 48, 107); fill-opacity: 1; stroke: rgb(255, 255, 255); stroke-opacity: 1; opacity: 0.7;"/><g class="slicetext"><text data-notex="1" class="slicetext" text-anchor="middle" x="0" y="0" style="font-family: 'Open Sans', verdana, arial, sans-serif; font-size: 12px; fill: rgb(255, 255, 255); fill-opacity: 1; white-space: pre;" transform="translate(272.4504040956666,94.62327066001612)">기계ㆍ금속</text></g></g><g class="slice"><path class="surface" d="M250.33116188398765,176.8941290133063L162.6623237679753,128.7882580266126A200,200 0,0,0 146.90821683564542,284.02482873390903L242.4541084178227,254.51241436695452A100,100 0,0,1 250.33116188398765,176.8941290133063Z" style="pointer-events: all; stroke-width: 1; fill: rgb(8, 48, 107); fill-opacity: 1; stroke: rgb(255, 255, 255); stroke-opacity: 1; opacity: 0.7;"/><g class="slicetext"><text data-notex="1" class="slicetext" text-anchor="middle" x="0" y="0" style="font-family: 'Open Sans', verdana, arial, sans-serif; font-size: 12px; fill: rgb(255, 255, 255); fill-opacity: 1; white-space: pre;" transform="translate(188.75790734896975,214.40198895652424)">전기ㆍ전자</text></g></g><g class="slice"><path class="surface" d="M242.4541084178227,254.51241436695452L146.90821683564542,284.02482873390903A200,200 0,0,0 218.913857654677,385.6813327717612L278.4569288273385,305.3406663858806A100,100 0,0,1 242.4541084178227,254.51241436695452Z" style="pointer-events: all; stroke-width: 1; fill: rgb(8, 48, 107); fill-opacity: 1; stroke: rgb(255, 255, 255); stroke-opacity: 1; opacity: 0.7;"/><g class="slicetext"><text data-notex="1" class="slicetext" text-anchor="middle" x="0" y="0" style="font-family: 'Open Sans', verdana, arial, sans-serif; font-size: 12px; fill: rgb(255, 255, 255); fill-opacity: 1; white-space: pre;" transform="translate(213.54320424678542,317.696262033347)">기타</text></g></g><g class="slice"><path class="surface" d="M278.4569288273385,305.3406663858806L218.913857654677,385.6813327717612A200,200 0,0,0 303.37388998539063,421.97977689411715L320.6869449926953,323.48988844705855A100,100 0,0,1 278.4569288273385,305.3406663858806Z" style="pointer-events: all; stroke-width: 1; fill: rgb(8, 48, 107); fill-opacity: 1; stroke: rgb(255, 255, 255); stroke-opacity: 1; opacity: 0.7;"/><g class="slicetext"><text data-notex="1" class="slicetext" text-anchor="middle" x="0" y="0" style="font-family: 'Open Sans', verdana, arial, sans-serif; font-size: 12px; fill: rgb(255, 255, 255); fill-opacity: 1; white-space: pre;" transform="translate(273.77879984328746,378.9577510165425)">건축</text></g></g><g class="slice"><path class="surface" d="M320.6869449926953,323.48988844705855L303.37388998539063,421.97977689411715A200,200 0,0,0 377.00977971626725,421.1587038254696L357.50488985813365,323.0793519127348A100,100 0,0,1 320.6869449926953,323.48988844705855Z" style="pointer-events: all; stroke-width: 1; fill: rgb(8, 48, 107); fill-opacity: 1; stroke: rgb(255, 255, 255); stroke-opacity: 1; opacity: 0.7;"/><g class="slicetext"><text data-notex="1" class="slicetext" text-anchor="middle" x="0" y="0" style="font-family: 'Open Sans', verdana, arial, sans-serif; font-size: 12px; fill: rgb(255, 255, 255); fill-opacity: 1; white-space: pre;" transform="translate(339.8746336455178,398.440862996325)">소재ㆍ재료</text></g></g><g class="slice"><path class="surface" d="M357.50488985813365,323.0793519127348L377.00977971626725,421.1587038254696A200,200 0,0,0 443.90870606265605,394.6565530126494L390.954353031328,309.8282765063247A100,100 0,0,1 357.50488985813365,323.0793519127348Z" style="pointer-events: all; stroke-width: 1; fill: rgb(8, 48, 107); fill-opacity: 1; stroke: rgb(255, 255, 255); stroke-opacity: 1; opacity: 0.7;"/><g class="slicetext"><text data-notex="1" class="slicetext" text-anchor="middle" x="0" y="0" style="font-family: 'Open Sans', verdana, arial, sans-serif; font-size: 12px; fill: rgb(255, 255, 255); fill-opacity: 1; white-space: pre;" transform="translate(388.948261147986,365.95324423337075)rotate(68.38890083889021)">교통ㆍ운송</text></g></g><g class="slice"><path class="surface" d="M390.954353031328,309.8282765063247L443.90870606265605,394.6565530126494A200,200 0,0,0 493.8493367221106,350.3434651000131L415.9246683610553,287.67173255000654A100,100 0,0,1 390.954353031328,309.8282765063247Z" style="pointer-events: all; stroke-width: 1; fill: rgb(8, 48, 107); fill-opacity: 1; stroke: rgb(255, 255, 255); stroke-opacity: 1; opacity: 0.7;"/><g class="slicetext"><text data-notex="1" class="slicetext" text-anchor="middle" x="0" y="0" style="font-family: 'Open Sans', verdana, arial, sans-serif; font-size: 12px; fill: rgb(255, 255, 255); fill-opacity: 1; white-space: pre;" transform="translate(434.0284036843331,340.07427192797877)rotate(48.41686384168645)">토목ㆍ도시</text></g></g><g class="slice"><path class="surface" d="M415.9246683610553,287.67173255000654L493.8493367221106,350.3434651000131A200,200 0,0,0 519.8676577893517,308.2115079193693L428.93382889467586,266.60575395968465A100,100 0,0,1 415.9246683610553,287.67173255000654Z" style="pointer-events: all; stroke-width: 1; fill: rgb(8, 48, 107); fill-opacity: 1; stroke: rgb(255, 255, 255); stroke-opacity: 1; opacity: 0.7;"/><g class="slicetext"><text data-notex="1" class="slicetext" text-anchor="middle" x="0" y="0" style="font-family: 'Open Sans', verdana, arial, sans-serif; font-size: 12px; fill: rgb(255, 255, 255); fill-opacity: 1; white-space: pre;" transform="translate(489.41329684834284,323.05661752389483)">화공</text></g></g><g class="slice"><path class="surface" d="M428.93382889467586,266.60575395968465L519.8676577893517,308.2115079193693A200,200 0,0,0 534.0658913502328,264.4736145930252L436.0329456751164,244.7368072965126A100,100 0,0,1 428.93382889467586,266.60575395968465Z" style="pointer-events: all; stroke-width: 1; fill: rgb(8, 48, 107); fill-opacity: 1; stroke: rgb(255, 255, 255); stroke-opacity: 1; opacity: 0.7;"/><g class="slicetext"><text data-notex="1" class="slicetext" text-anchor="middle" x="0" y="0" style="font-family: 'Open Sans', verdana, arial, sans-serif; font-size: 12px; fill: rgb(255, 255, 255); fill-opacity: 1; white-space: pre;" transform="translate(479.13930599628463,275.59721429274236)rotate(17.984512798451306)">정밀ㆍ에너지</text></g></g><g class="slice"><path class="surface" d="M436.0329456751164,244.7368072965126L534.0658913502328,264.4736145930252A200,200 0,0,0 538,225.00000000000023L438,225.0000000000001A100,100 0,0,1 436.0329456751164,244.7368072965126Z" style="pointer-events: all; stroke-width: 1; fill: rgb(8, 48, 107); fill-opacity: 1; stroke: rgb(255, 255, 255); stroke-opacity: 1; opacity: 0.7;"/><g class="slicetext"><text data-notex="1" class="slicetext" text-anchor="middle" x="0" y="0" style="font-family: 'Open Sans', verdana, arial, sans-serif; font-size: 12px; fill: rgb(255, 255, 255); fill-opacity: 1; white-space: pre;" transform="translate(519.0492007075081,247.5918863279464)">산업</text></g></g></g></g><g class="glimages"/><defs id="topdefs-16fe4d"><g class="clips"/></defs><g class="layer-above"><g class="imagelayer"/><g class="shapelayer"/></g><g class="infolayer"><g class="g-gtitle"/></g></svg>