<svg class="main-svg" xmlns="http://www.w3.org/2000/svg" xmlns:xlink="http://www.w3.org/1999/xlink" width="700" height="500" style="" viewBox="0 0 700 500"><rect x="0" y="0" width="700" height="500" style="fill: rgb(255, 255, 255); fill-opacity: 1;"/><defs id="defs-e7ae1a"><g class="clips"><clipPath id="clipe7ae1axyplot" class="plotclip"><rect width="492" height="320"/></clipPath><clipPath class="axesclip" id="clipe7ae1ax"><rect x="80" y="0" width="492" height="500"/></clipPath><clipPath class="axesclip" id="clipe7ae1ay"><rect x="0" y="100" width="700" height="320"/></clipPath><clipPath class="axesclip" id="clipe7ae1axy"><rect x="80" y="100" width="492" height="320"/></clipPath></g><g class="gradients"/><g class="patterns"/></defs><g class="bglayer"><rect class="bg" x="80" y="100" width="492" height="320" style="fill: rgb(229, 236, 246); fill-opacity: 1; stroke-width: 0;"/></g><g class="layer-below"><g class="imagelayer"/><g class="shapelayer"/></g><g class="cartesianlayer"><g class="subplot xy"><g class="layer-subplot"><g class="shapelayer"/><g class="imagelayer"/></g><g class="gridlayer"><g class="x"><path class="xgrid crisp" transform="translate(96.4,0)" d="M0,100v320" style="stroke: rgb(255, 255, 255); stroke-opacity: 1; stroke-width: 1px;"/><path class="xgrid crisp" transform="translate(181.13,0)" d="M0,100v320" style="stroke: rgb(255, 255, 255); stroke-opacity: 1; stroke-width: 1px;"/><path class="xgrid crisp" transform="translate(263.13,0)" d="M0,100v320" style="stroke: rgb(255, 255, 255); stroke-opacity: 1; stroke-width: 1px;"/><path class="xgrid crisp" transform="translate(347.87,0)" d="M0,100v320" style="stroke: rgb(255, 255, 255); stroke-opacity: 1; stroke-width: 1px;"/><path class="xgrid crisp" transform="translate(432.6,0)" d="M0,100v320" style="stroke: rgb(255, 255, 255); stroke-opacity: 1; stroke-width: 1px;"/><path class="xgrid crisp" transform="translate(514.6,0)" d="M0,100v320" style="stroke: rgb(255, 255, 255); stroke-opacity: 1; stroke-width: 1px;"/></g><g class="y"><path class="ygrid crisp" transform="translate(0,317.38)" d="M80,0h492" style="stroke: rgb(255, 255, 255); stroke-opacity: 1; stroke-width: 1px;"/><path class="ygrid crisp" transform="translate(0,230.57)" d="M80,0h492" style="stroke: rgb(255, 255, 255); stroke-opacity: 1; stroke-width: 1px;"/><path class="ygrid crisp" transform="translate(0,143.76)" d="M80,0h492" style="stroke: rgb(255, 255, 255); stroke-opacity: 1; stroke-width: 1px;"/></g></g><g class="zerolinelayer"><path class="yzl zl crisp" transform="translate(0,404.19)" d="M80,0h492" style="stroke: rgb(255, 255, 255); stroke-opacity: 1; stroke-width: 2px;"/></g><path class="xlines-below"/><path class="ylines-below"/><g class="overlines-below"/><g class="xaxislayer-below"/><g class="yaxislayer-below"/><g class="overaxes-below"/><g class="plot" transform="translate(80,100)" clip-path="url(#clipe7ae1axyplot)"><g class="scatterlayer mlayer"><g class="trace scatter trace41231f" style="stroke-miterlimit: 2; opacity: 1;"><g class="fills"/><g class="errorbars"/><g class="lines"><path class="js-line" d="M0,257.08L2.73,253.63L5.47,252.51L8.2,254.08L10.93,256.53L13.67,278.37L16.4,276.62L19.13,255.91L21.87,255.26L24.6,252.07L27.33,251.73L30.07,256.01L32.8,278.52L35.53,278.8L38.27,254.92L41,246.45L43.73,250.48L46.47,248.36L49.2,254.24L51.93,273.78L54.67,274.62L57.4,255.27L60.13,251.01L62.87,244.35L65.6,251.29L68.33,257.07L71.07,278.06L73.8,278.23L76.53,256.93L82,251.92L84.73,255.45L87.47,260.18L90.2,275.86L92.93,275.61L95.67,262.24L98.4,253.59L101.13,250.65L103.87,254.17L106.6,259.44L109.33,274.96L112.07,278L114.8,257.99L117.53,252.94L120.27,250.39L123,249.41L125.73,254.95L128.47,275.32L131.2,275.64L133.93,253.93L136.67,251.79L139.4,252.13L142.13,253.18L144.87,257.5L147.6,276.17L150.33,276.82L153.07,258.24L155.8,251.16L158.53,248.33L161.27,250.45L164,254.15L166.73,274.68L169.47,273.89L172.2,252.21L174.93,251.43L177.67,251.77L180.4,253.51L183.13,253.27L185.87,274.11L188.6,273.67L191.33,262.66L194.07,256.67L196.8,256.2L199.53,251.47L202.27,257.71L205,275.82L207.73,275.3L210.47,253.97L213.2,254.03L215.93,253.03L218.67,252.04L221.4,258.88L224.13,275.42L226.87,275.06L229.6,253.89L232.33,248.68L237.8,247.47L240.53,253.79L243.27,273.3L246,273.7L248.73,247.59L251.47,243.66L256.93,243.37L259.67,251.57L262.4,273.75L265.13,273.95L267.87,247.87L270.6,244.99L273.33,249.22L276.07,246.94L278.8,254.82L281.53,274.98L284.27,276.02L287,251.39L289.73,247.95L292.47,247.83L295.2,248.15L297.93,252.45L300.67,269.47L303.4,275.27L308.87,243.77L311.6,245.78L314.33,243.34L317.07,249.54L319.8,267.75L322.53,271.47L325.27,244.93L328,242.9L330.73,247.78L333.47,245.32L336.2,256.14L338.93,276.22L341.67,276.23L344.4,255.09L347.13,249.46L349.87,250.01L352.6,246.9L355.33,257.57L358.07,276.58L360.8,276.99L363.53,263.35L366.27,254.3L369,252.1L371.73,252.08L374.47,257.63L377.2,274.96L379.93,275.47L382.67,254.32L385.4,252.82L388.13,252.54L393.6,257L396.33,274.48L399.07,276.15L401.8,256.88L404.53,251.23L407.27,253.67L410,254.32L412.73,259.74L415.47,276.67L418.2,275.11L420.93,254.24L423.67,253.61L426.4,251.11L429.13,251.36L431.87,259.38L434.6,274.72L437.33,276.6L440.07,255.35L442.8,247.74L445.53,251.3L448.27,249.19L451,255.46L453.73,272.93L456.47,271.58L459.2,257.27L461.93,251.16L464.67,252.12L467.4,249.11L470.13,253.96L472.87,274.16L475.6,276.09L478.33,253.17L481.07,254.38L483.8,253.03L486.53,248.7L489.27,253.08L492,274.92" style="vector-effect: non-scaling-stroke; fill: none; stroke: rgb(99, 110, 250); stroke-opacity: 1; stroke-width: 2px; opacity: 1;"/></g><g class="points"/><g class="text"/></g><g class="trace scatter tracee50864" style="stroke-miterlimit: 2; opacity: 1;"><g class="fills"/><g class="errorbars"/><g class="lines"><path class="js-line" d="M0,257.65L2.73,250.02L5.47,250.25L8.2,247.91L10.93,254.69L13.67,272.92L16.4,274.71L19.13,260.01L21.87,251.99L27.33,248.11L30.07,248.5L32.8,271.11L35.53,259.18L38.27,244.37L41,236.3L43.73,239.24L46.47,238.29L49.2,241.42L51.93,265.26L54.67,265.88L57.4,237.94L60.13,230.7L62.87,232.16L65.6,236.09L68.33,237.43L71.07,260.87L73.8,261.77L76.53,237.78L79.27,236.12L82,231.23L84.73,234.95L87.47,241.69L90.2,264.85L92.93,264.34L95.67,243.67L101.13,230.66L103.87,233.29L106.6,238.98L109.33,264.56L112.07,261.11L114.8,236.02L120.27,231.24L123,242.93L128.47,271.26L131.2,273.96L133.93,257.97L136.67,252.83L139.4,255.91L142.13,257.39L144.87,261.65L147.6,275.84L150.33,277.35L153.07,263.11L155.8,255.47L158.53,198.22L161.27,168.62L164,258.56L166.73,277.37L169.47,278.11L172.2,257.04L174.93,256.99L177.67,257.28L180.4,260.64L183.13,263.66L185.87,278.71L188.6,278.74L191.33,267.89L194.07,261.35L196.8,259.07L199.53,257.91L202.27,262.21L205,275.42L207.73,276.01L210.47,258.32L213.2,256.18L215.93,258.66L218.67,258.45L221.4,263.72L224.13,276.4L226.87,277.28L229.6,259.23L232.33,254.39L235.07,256.76L237.8,255.4L240.53,260.47L243.27,274.31L246,276.3L248.73,253.87L251.47,258.25L254.2,257.95L256.93,259.7L259.67,261.13L262.4,277.19L265.13,277.57L267.87,256.41L270.6,253.11L273.33,254.74L276.07,253.87L278.8,258.27L281.53,276.07L284.27,276.46L287,249.76L289.73,256.17L292.47,253.92L295.2,256.67L297.93,259.1L300.67,274.51L303.4,276.45L306.13,261.88L308.87,253.62L311.6,255.53L314.33,254.31L317.07,250.11L319.8,270L322.53,274.1L325.27,255.06L328,246.86L330.73,251.97L333.47,249.52L336.2,254.34L338.93,265.06L341.67,268.72L344.4,252.31L347.13,249.78L349.87,241.13L355.33,249.25L358.07,266.2L360.8,267.31L363.53,258.42L369,233.7L371.73,243.6L374.47,243.3L377.2,260.41L379.93,252.88L382.67,247.77L385.4,243.6L388.13,241.32L390.87,248.95L393.6,246.97L399.07,272.28L401.8,252.46L404.53,246.04L407.27,242.49L410,248.48L412.73,247.03L415.47,267.39L418.2,269.64L420.93,249.27L423.67,249.15L426.4,245.1L429.13,244.23L431.87,248.49L434.6,268.04L437.33,270.73L440.07,248.93L442.8,246.96L445.53,248.34L448.27,246.09L451,250L453.73,267.58L456.47,270.9L459.2,253.53L461.93,250.95L464.67,249.92L467.4,251.84L470.13,255.89L472.87,273.36L478.33,248.09L481.07,247L483.8,243.86L486.53,247.53L489.27,254.34L492,273.54" style="vector-effect: non-scaling-stroke; fill: none; stroke: rgb(239, 85, 59); stroke-opacity: 1; stroke-width: 2px; opacity: 1;"/></g><g class="points"/><g class="text"/></g><g class="trace scatter trace431f8f" style="stroke-miterlimit: 2; opacity: 1;"><g class="fills"/><g class="errorbars"/><g class="lines"><path class="js-line" d="M0,286.79L10.93,289.14L13.67,295.27L16.4,294.99L19.13,289.79L21.87,288.52L24.6,289.08L27.33,288.26L30.07,289.47L32.8,294.4L35.53,295.17L38.27,289.18L41,285.88L43.73,285.7L46.47,286.5L49.2,287.41L51.93,294.36L54.67,294.69L57.4,288.95L60.13,286.27L62.87,286.37L65.6,282.96L68.33,287.56L71.07,294.26L73.8,294.78L76.53,287.21L79.27,286.95L82,286.9L84.73,288.26L87.47,287.66L90.2,293.71L92.93,293.85L95.67,289.96L98.4,286.13L101.13,283.7L103.87,282.8L106.6,278.85L109.33,290.92L112.07,293.14L114.8,286.24L117.53,285.41L120.27,285.8L123,284.92L125.73,287.85L128.47,294.28L131.2,294.25L133.93,287.19L136.67,286.33L139.4,286.33L144.87,287.86L147.6,293.67L150.33,294.64L153.07,289.5L155.8,284.03L158.53,286.19L161.27,283.11L164,287.22L166.73,293.36L169.47,293.76L172.2,284.02L174.93,281.11L177.67,286.22L180.4,284.19L183.13,282.72L185.87,290.47L188.6,293.03L191.33,289.76L194.07,284.99L196.8,284.84L199.53,285.51L202.27,287.08L205,292.34L207.73,293.28L210.47,284.37L213.2,282.75L215.93,283.98L218.67,283.69L221.4,287.08L224.13,292.85L226.87,293.41L229.6,285.45L235.07,281.27L237.8,282.23L240.53,285.22L243.27,290.78L246,290.83L248.73,283.61L251.47,282.72L254.2,282.81L256.93,285.24L259.67,286.18L262.4,292.88L265.13,293.16L267.87,284.85L270.6,284.28L273.33,286.71L276.07,279.38L278.8,280.97L281.53,290.98L284.27,291.81L287,284.03L289.73,280.98L292.47,282.64L295.2,282.67L297.93,285.06L300.67,290.18L303.4,290.22L306.13,278.37L308.87,272.24L311.6,275.84L314.33,274.98L317.07,273.83L319.8,286.6L322.53,288.75L325.27,280.8L328,274.78L330.73,271.92L333.47,272.75L336.2,275.6L338.93,284.04L341.67,282.91L344.4,277.78L347.13,278L352.6,275.04L355.33,282.91L358.07,283.99L360.8,287.98L366.27,281.29L369,281.71L371.73,282.79L374.47,282.68L377.2,289.01L379.93,289.94L382.67,281.01L385.4,283.62L388.13,283.3L390.87,284.37L393.6,284.33L396.33,291.63L399.07,292.2L401.8,284.77L404.53,282.37L407.27,282.94L410,281.91L412.73,282.34L415.47,291.17L418.2,292.14L420.93,286.29L423.67,282.69L426.4,285.02L429.13,281.78L431.87,279.21L434.6,289.13L437.33,292.48L440.07,283.97L442.8,282.86L445.53,285.01L448.27,282.93L451,283.57L453.73,291.29L456.47,291.33L459.2,287.7L461.93,285.48L467.4,285.32L470.13,284.77L472.87,290.62L475.6,291.32L478.33,283.15L481.07,283.29L483.8,281.6L486.53,284.57L489.27,283.15L492,290.9" style="vector-effect: non-scaling-stroke; fill: none; stroke: rgb(0, 204, 150); stroke-opacity: 1; stroke-width: 2px; opacity: 1;"/></g><g class="points"/><g class="text"/></g><g class="trace scatter trace1640cd" style="stroke-miterlimit: 2; opacity: 1;"><g class="fills"/><g class="errorbars"/><g class="lines"><path class="js-line" d="M0,303.31L43.73,303.15L46.47,302.99L54.67,303.64L57.4,303.16L68.33,303.36L71.07,303.87L95.67,303.38L98.4,303.21L120.27,303.41L123,303.1L131.2,303.76L133.93,303.14L144.87,303.43L147.6,303.91L164,303.33L166.73,303.76L180.4,303.21L183.13,303.43L188.6,303.84L191.33,303.39L196.8,303.18L199.53,303.24L210.47,303.31L213.2,303.15L226.87,303.78L229.6,303.11L246,303.86L248.73,303.36L254.2,303.31L256.93,303.41L267.87,303.48L270.6,303.05L276.07,303.26L278.8,302.91L284.27,302.8L287,302.12L295.2,303.22L297.93,303.13L303.4,303.62L306.13,303.21L317.07,303.22L319.8,303.9L355.33,303.26L358.07,303.64L371.73,302.93L374.47,303.05L379.93,303.37L382.67,302.98L393.6,303.11L396.33,303.47L412.73,302.86L415.47,303.46L431.87,303.06L434.6,303.4L451,302.96L453.73,303.44L470.13,303.17L472.87,303.52L489.27,303.06L492,303.72" style="vector-effect: non-scaling-stroke; fill: none; stroke: rgb(171, 99, 250); stroke-opacity: 1; stroke-width: 2px; opacity: 1;"/></g><g class="points"/><g class="text"/></g><g class="trace scatter trace873446" style="stroke-miterlimit: 2; opacity: 1;"><g class="fills"/><g class="errorbars"/><g class="lines"><path class="js-line" d="M0,121.57L2.73,115.26L5.47,122.76L8.2,127.38L10.93,136.46L13.67,191.47L16.4,186.03L19.13,145.22L21.87,131.93L24.6,130.79L27.33,125.36L30.07,123.1L32.8,193.58L35.53,184.96L38.27,110.67L41,104.62L43.73,110.82L46.47,103.93L49.2,118.17L51.93,193.02L54.67,200.58L57.4,110.88L60.13,99.46L62.87,99.61L65.6,104.2L68.33,116.78L71.07,182.93L73.8,193.5L76.53,104.12L79.27,94.3L82,97.29L84.73,111.22L87.47,130.12L90.2,199.4L92.93,201.15L95.67,139.12L98.4,106.39L101.13,99.39L103.87,113.68L106.6,121.26L109.33,196.01L112.07,188.54L114.8,121.2L117.53,100.55L120.27,97.83L123,98.7L125.73,123.23L128.47,202.23L131.2,199.49L133.93,131.89L136.67,122.08L139.4,122.66L142.13,131.53L144.87,139.33L147.6,183.64L150.33,190.97L153.07,152.48L155.8,130L158.53,16L161.27,38.3L164,139.78L166.73,212.57L169.47,214.84L172.2,139.63L174.93,123.07L177.67,119.54L180.4,130.03L183.13,151.43L185.87,208.95L188.6,206.47L191.33,168.24L194.07,135.02L196.8,132.83L199.53,119.9L202.27,138.74L205,196.47L207.73,201.99L210.47,128.69L213.2,129.64L215.93,129.96L218.67,122.09L221.4,131.07L224.13,203.39L226.87,211.53L229.6,138.58L232.33,111.03L235.07,126.37L237.8,115.53L240.53,125.46L243.27,201.26L246,210.69L248.73,134.72L251.47,130.75L254.2,130.98L256.93,138.54L259.67,139.97L262.4,207.14L265.13,205.74L267.87,134.01L270.6,125.03L273.33,126.45L276.07,114.59L278.8,133.52L281.53,197.12L284.27,196.64L287,123.15L289.73,129.82L292.47,128.26L295.2,132.2L297.93,138.87L300.67,195.13L303.4,200.91L306.13,148.14L308.87,118.79L311.6,114.36L314.33,121.26L317.07,113.73L319.8,182.18L322.53,190.67L325.27,129.25L328,107.02L330.73,116.47L333.47,109.69L336.2,124.16L338.93,187.98L341.67,194.78L344.4,127.35L347.13,117.81L349.87,96.36L355.33,120.24L358.07,184.58L360.8,189.76L363.53,151.72L369,84.86L371.73,106.89L374.47,112.9L377.2,184.39L379.93,180.07L382.67,122.07L385.4,115.59L388.13,105.41L390.87,120.61L393.6,112.89L396.33,168.25L399.07,194.35L401.8,131.2L404.53,109.16L407.27,109.51L410,126.03L412.73,129.53L415.47,190.69L418.2,195.15L420.93,130.3L423.67,123.94L426.4,107.83L429.13,107.3L431.87,126.74L434.6,192.39L437.33,198.01L440.07,112.16L442.8,105.91L445.53,116.3L448.27,116.98L451,127.66L453.73,188.07L456.47,192.77L459.2,126.84L461.93,106.29L464.67,99.79L467.4,95.61L470.13,116.74L472.87,186.88L475.6,179.77L478.33,113.17L481.07,92.63L483.8,94.29L486.53,102.92L489.27,105.82L492,182.76" style="vector-effect: non-scaling-stroke; fill: none; stroke: rgb(255, 161, 90); stroke-opacity: 1; stroke-width: 2px; opacity: 1;"/></g><g class="points"/><g class="text"/></g></g></g><g class="overplot"/><path class="xlines-above crisp" d="M0,0" style="fill: none;"/><path class="ylines-above crisp" d="M0,0" style="fill: none;"/><g class="overlines-above"/><g class="xaxislayer-above"><g class="xtick"><text text-anchor="middle" x="0" y="433" transform="translate(96.4,0)" style="font-family: 'Open Sans', verdana, arial, sans-serif; font-size: 12px; fill: rgb(42, 63, 95); fill-opacity: 1; white-space: pre; opacity: 1;">May 2022</text></g><g class="xtick"><text text-anchor="middle" x="0" y="433" style="font-family: 'Open Sans', verdana, arial, sans-serif; font-size: 12px; fill: rgb(42, 63, 95); fill-opacity: 1; white-space: pre; opacity: 1;" transform="translate(181.13,0)">Jun 2022</text></g><g class="xtick"><text text-anchor="middle" x="0" y="433" style="font-family: 'Open Sans', verdana, arial, sans-serif; font-size: 12px; fill: rgb(42, 63, 95); fill-opacity: 1; white-space: pre; opacity: 1;" transform="translate(263.13,0)">Jul 2022</text></g><g class="xtick"><text text-anchor="middle" x="0" y="433" style="font-family: 'Open Sans', verdana, arial, sans-serif; font-size: 12px; fill: rgb(42, 63, 95); fill-opacity: 1; white-space: pre; opacity: 1;" transform="translate(347.87,0)">Aug 2022</text></g><g class="xtick"><text text-anchor="middle" x="0" y="433" style="font-family: 'Open Sans', verdana, arial, sans-serif; font-size: 12px; fill: rgb(42, 63, 95); fill-opacity: 1; white-space: pre; opacity: 1;" transform="translate(432.6,0)">Sep 2022</text></g><g class="xtick"><text text-anchor="middle" x="0" y="433" style="font-family: 'Open Sans', verdana, arial, sans-serif; font-size: 12px; fill: rgb(42, 63, 95); fill-opacity: 1; white-space: pre; opacity: 1;" transform="translate(514.6,0)">Oct 2022</text></g></g><g class="yaxislayer-above"><g class="ytick"><text text-anchor="end" x="79" y="4.199999999999999" transform="translate(0,404.19)" style="font-family: 'Open Sans', verdana, arial, sans-serif; font-size: 12px; fill: rgb(42, 63, 95); fill-opacity: 1; white-space: pre; opacity: 1;">0</text></g><g class="ytick"><text text-anchor="end" x="79" y="4.199999999999999" style="font-family: 'Open Sans', verdana, arial, sans-serif; font-size: 12px; fill: rgb(42, 63, 95); fill-opacity: 1; white-space: pre; opacity: 1;" transform="translate(0,317.38)">0.5M</text></g><g class="ytick"><text text-anchor="end" x="79" y="4.199999999999999" style="font-family: 'Open Sans', verdana, arial, sans-serif; font-size: 12px; fill: rgb(42, 63, 95); fill-opacity: 1; white-space: pre; opacity: 1;" transform="translate(0,230.57)">1M</text></g><g class="ytick"><text text-anchor="end" x="79" y="4.199999999999999" style="font-family: 'Open Sans', verdana, arial, sans-serif; font-size: 12px; fill: rgb(42, 63, 95); fill-opacity: 1; white-space: pre; opacity: 1;" transform="translate(0,143.76)">1.5M</text></g></g><g class="overaxes-above"/></g></g><g class="polarlayer"/><g class="smithlayer"/><g class="ternarylayer"/><g class="geolayer"/><g class="funnelarealayer"/><g class="pielayer"/><g class="iciclelayer"/><g class="treemaplayer"/><g class="sunburstlayer"/><g class="glimages"/><defs id="topdefs-e7ae1a"><g class="clips"/><clipPath id="legende7ae1a"><rect width="106" height="124" x="0" y="0"/></clipPath></defs><g class="layer-above"><g class="imagelayer"/><g class="shapelayer"/></g><g class="infolayer"><g class="legend" pointer-events="all" transform="translate(581.84,100)"><rect class="bg" shape-rendering="crispEdges" width="106" height="124" x="0" y="0" style="stroke: rgb(68, 68, 68); stroke-opacity: 1; fill: rgb(255, 255, 255); fill-opacity: 1; stroke-width: 0px;"/><g class="scrollbox" transform="" clip-path="url(#legende7ae1a)"><text class="legendtitletext" text-anchor="start" x="2" y="18.2" style="font-family: 'Open Sans', verdana, arial, sans-serif; font-size: 14px; fill: rgb(42, 63, 95); fill-opacity: 1; white-space: pre;">패키지 이름</text><g class="groups" transform=""><g class="traces" transform="translate(0,32.7)" style="opacity: 1;"><text class="legendtext" text-anchor="start" x="40" y="4.680000000000001" style="font-family: 'Open Sans', verdana, arial, sans-serif; font-size: 12px; fill: rgb(42, 63, 95); fill-opacity: 1; white-space: pre;">plotly</text><g class="layers" style="opacity: 1;"><g class="legendfill"/><g class="legendlines"><path class="js-line" d="M5,0h30" style="fill: none; stroke: rgb(99, 110, 250); stroke-opacity: 1; stroke-width: 2px;"/></g><g class="legendsymbols"><g class="legendpoints"/></g></g><rect class="legendtoggle" x="0" y="-9.5" width="100.4625015258789" height="19" style="fill: rgb(0, 0, 0); fill-opacity: 0;"/></g></g><g class="groups" transform=""><g class="traces" transform="translate(0,51.7)" style="opacity: 1;"><text class="legendtext" text-anchor="start" x="40" y="4.680000000000001" style="font-family: 'Open Sans', verdana, arial, sans-serif; font-size: 12px; fill: rgb(42, 63, 95); fill-opacity: 1; white-space: pre;">seaborn</text><g class="layers" style="opacity: 1;"><g class="legendfill"/><g class="legendlines"><path class="js-line" d="M5,0h30" style="fill: none; stroke: rgb(239, 85, 59); stroke-opacity: 1; stroke-width: 2px;"/></g><g class="legendsymbols"><g class="legendpoints"/></g></g><rect class="legendtoggle" x="0" y="-9.5" width="100.4625015258789" height="19" style="fill: rgb(0, 0, 0); fill-opacity: 0;"/></g></g><g class="groups" transform=""><g class="traces" transform="translate(0,70.7)" style="opacity: 1;"><text class="legendtext" text-anchor="start" x="40" y="4.680000000000001" style="font-family: 'Open Sans', verdana, arial, sans-serif; font-size: 12px; fill: rgb(42, 63, 95); fill-opacity: 1; white-space: pre;">bokeh</text><g class="layers" style="opacity: 1;"><g class="legendfill"/><g class="legendlines"><path class="js-line" d="M5,0h30" style="fill: none; stroke: rgb(0, 204, 150); stroke-opacity: 1; stroke-width: 2px;"/></g><g class="legendsymbols"><g class="legendpoints"/></g></g><rect class="legendtoggle" x="0" y="-9.5" width="100.4625015258789" height="19" style="fill: rgb(0, 0, 0); fill-opacity: 0;"/></g></g><g class="groups" transform=""><g class="traces" transform="translate(0,89.7)" style="opacity: 1;"><text class="legendtext" text-anchor="start" x="40" y="4.680000000000001" style="font-family: 'Open Sans', verdana, arial, sans-serif; font-size: 12px; fill: rgb(42, 63, 95); fill-opacity: 1; white-space: pre;">hvplot</text><g class="layers" style="opacity: 1;"><g class="legendfill"/><g class="legendlines"><path class="js-line" d="M5,0h30" style="fill: none; stroke: rgb(171, 99, 250); stroke-opacity: 1; stroke-width: 2px;"/></g><g class="legendsymbols"><g class="legendpoints"/></g></g><rect class="legendtoggle" x="0" y="-9.5" width="100.4625015258789" height="19" style="fill: rgb(0, 0, 0); fill-opacity: 0;"/></g></g><g class="groups" transform=""><g class="traces" transform="translate(0,108.7)" style="opacity: 1;"><text class="legendtext" text-anchor="start" x="40" y="4.680000000000001" style="font-family: 'Open Sans', verdana, arial, sans-serif; font-size: 12px; fill: rgb(42, 63, 95); fill-opacity: 1; white-space: pre;">matplotlib</text><g class="layers" style="opacity: 1;"><g class="legendfill"/><g class="legendlines"><path class="js-line" d="M5,0h30" style="fill: none; stroke: rgb(255, 161, 90); stroke-opacity: 1; stroke-width: 2px;"/></g><g class="legendsymbols"><g class="legendpoints"/></g></g><rect class="legendtoggle" x="0" y="-9.5" width="100.4625015258789" height="19" style="fill: rgb(0, 0, 0); fill-opacity: 0;"/></g></g></g><rect class="scrollbar" rx="20" ry="3" width="0" height="0" x="0" y="0" style="fill: rgb(128, 139, 164); fill-opacity: 1;"/></g><g class="g-gtitle"><text class="gtitle" x="35" y="50" text-anchor="start" dy="0em" style="font-family: 'Open Sans', verdana, arial, sans-serif; font-size: 17px; fill: rgb(42, 63, 95); opacity: 1; font-weight: normal; white-space: pre;">최근 6개월간 패키지 다운로드수</text></g><g class="g-xtitle"><text class="xtitle" x="326" y="460.2000005722046" text-anchor="middle" style="font-family: 'Open Sans', verdana, arial, sans-serif; font-size: 14px; fill: rgb(42, 63, 95); opacity: 1; font-weight: normal; white-space: pre;">Date</text></g><g class="g-ytitle"><text class="ytitle" transform="rotate(-90,24.462695312500003,260)" x="24.462695312500003" y="260" text-anchor="middle" style="font-family: 'Open Sans', verdana, arial, sans-serif; font-size: 14px; fill: rgb(42, 63, 95); opacity: 1; font-weight: normal; white-space: pre;">다운로드수</text></g></g></svg>