<svg class="main-svg" xmlns="http://www.w3.org/2000/svg" xmlns:xlink="http://www.w3.org/1999/xlink" width="626.364" height="465.455" style="" viewBox="0 0 626.364 465.455"><rect x="0" y="0" width="626.364" height="465.455" style="fill: rgb(255, 255, 255); fill-opacity: 1;"/><defs id="defs-e133eb"><g class="clips"><clipPath id="clipe133ebxyplot" class="plotclip"><rect width="406" height="298.40000000000003"/></clipPath><clipPath class="axesclip" id="clipe133ebx"><rect x="58" y="0" width="406" height="465.455"/></clipPath><clipPath class="axesclip" id="clipe133eby"><rect x="0" y="124.59999999999998" width="626.364" height="298.40000000000003"/></clipPath><clipPath class="axesclip" id="clipe133ebxy"><rect x="58" y="124.59999999999998" width="406" height="298.40000000000003"/></clipPath></g><g class="gradients"/><g class="patterns"/></defs><g class="bglayer"/><g class="layer-below"><g class="imagelayer"/><g class="shapelayer"/></g><g class="cartesianlayer"><g class="subplot xy"><g class="layer-subplot"><g class="shapelayer"/><g class="imagelayer"/></g><g class="gridlayer"><g class="x"><path class="xgrid crisp" transform="translate(115.68,0)" d="M0,124.59999999999998v298.40000000000003" style="stroke: rgb(238, 238, 238); stroke-opacity: 1; stroke-width: 1px;"/><path class="xgrid crisp" transform="translate(185.04000000000002,0)" d="M0,124.59999999999998v298.40000000000003" style="stroke: rgb(238, 238, 238); stroke-opacity: 1; stroke-width: 1px;"/><path class="xgrid crisp" transform="translate(253.27,0)" d="M0,124.59999999999998v298.40000000000003" style="stroke: rgb(238, 238, 238); stroke-opacity: 1; stroke-width: 1px;"/><path class="xgrid crisp" transform="translate(322.64,0)" d="M0,124.59999999999998v298.40000000000003" style="stroke: rgb(238, 238, 238); stroke-opacity: 1; stroke-width: 1px;"/><path class="xgrid crisp" transform="translate(390.87,0)" d="M0,124.59999999999998v298.40000000000003" style="stroke: rgb(238, 238, 238); stroke-opacity: 1; stroke-width: 1px;"/><path class="xgrid crisp" transform="translate(460.23,0)" d="M0,124.59999999999998v298.40000000000003" style="stroke: rgb(238, 238, 238); stroke-opacity: 1; stroke-width: 1px;"/></g><g class="y"><path class="ygrid crisp" transform="translate(0,366.72999999999996)" d="M58,0h406" style="stroke: rgb(238, 238, 238); stroke-opacity: 1; stroke-width: 1px;"/><path class="ygrid crisp" transform="translate(0,325.38)" d="M58,0h406" style="stroke: rgb(238, 238, 238); stroke-opacity: 1; stroke-width: 1px;"/><path class="ygrid crisp" transform="translate(0,284.02)" d="M58,0h406" style="stroke: rgb(238, 238, 238); stroke-opacity: 1; stroke-width: 1px;"/><path class="ygrid crisp" transform="translate(0,242.66999999999996)" d="M58,0h406" style="stroke: rgb(238, 238, 238); stroke-opacity: 1; stroke-width: 1px;"/><path class="ygrid crisp" transform="translate(0,201.32)" d="M58,0h406" style="stroke: rgb(238, 238, 238); stroke-opacity: 1; stroke-width: 1px;"/><path class="ygrid crisp" transform="translate(0,159.96999999999997)" d="M58,0h406" style="stroke: rgb(238, 238, 238); stroke-opacity: 1; stroke-width: 1px;"/></g></g><g class="zerolinelayer"><path class="yzl zl crisp" transform="translate(0,408.08)" d="M58,0h406" style="stroke: rgb(68, 68, 68); stroke-opacity: 1; stroke-width: 1px;"/></g><path class="xlines-below"/><path class="ylines-below"/><g class="overlines-below"/><g class="xaxislayer-below"/><g class="yaxislayer-below"/><g class="overaxes-below"/><g class="plot" transform="translate(58,124.59999999999998)" clip-path="url(#clipe133ebxyplot)"><g class="scatterlayer mlayer"><g class="trace scatter trace74f5dc" style="stroke-miterlimit: 2; opacity: 1;"><g class="fills"/><g class="errorbars"/><g class="lines"><path class="js-line" d="M6.03,283.48L19.23,282.79L19.6,282.66L22.24,280.3L22.62,279.79L23.75,276.91L24.13,275.54L27.52,265.92L27.9,265.22L31.67,256.86L32.04,256.38L36.57,252L36.94,251.78L41.09,249.04L41.47,249.3L47.12,248.08L47.5,248.03L58.43,247.02L58.81,247.02L76.9,246.27L77.28,246.26L87.08,245.54L87.46,245.36L93.87,244.1L94.24,243.99L99.9,241.94L100.27,241.75L104.42,237.81L104.8,236.25L105.55,235.86L105.93,234.85L107.06,233.48L107.44,231.98L109.7,228.52L110.08,227.03L113.47,221.32L113.85,220.15L115.35,218.21L115.73,217.83L118.75,214.02L119.12,213.26L120.25,212.39L120.63,211.42L125.53,206.5L125.91,205.32L129.3,201.95L129.68,201.23L130.81,200.46L131.19,199.56L133.45,197.26L133.83,196.46L137.22,192.24L137.6,191.24L139.1,189.27L139.48,188.83L139.86,188.83L140.23,187.6L141.36,186.6L141.74,185.72L145.13,181.76L145.51,181.06L147.4,179.41L147.77,179.09L149.66,177.09L150.04,176.7L157.95,169.86L158.33,169.58L159.46,168.1L159.84,167.66L163.98,163.5L164.36,163.24L166.25,161.42L166.62,161.01L168.88,158.87L169.26,158.46L179.82,151.21L180.19,151.11L193.76,148.11L194.14,148.06L203.19,147.39L203.57,147.34L211.1,146.22L211.48,146.11L215.63,144.72L216.01,144.59L223.92,142.16L224.3,142.12L229.95,141.06L230.33,141.03L244.28,139.55L244.66,139.5L253.33,137.87L253.7,137.72L257.1,136.53L257.47,136.23L266.14,131.19L266.52,130.94L273.31,126.05L273.68,125.47L279.34,120.44L279.71,119.65L286.5,114.65L286.88,114.39L291.02,112.56L291.4,112.52L295.92,110.75L296.3,110.66L299.32,109.6L299.69,109.4L317.03,103.17L317.41,103.16L321.56,102.43L321.94,102.38L339.28,99.44L339.65,99.26L346.44,97.36L346.82,97.36L349.45,96.72L349.83,96.72L352.47,96.05L352.85,95.94L364.16,94.54L364.53,94.5L370.56,93.85L370.94,93.71L380.74,91.58L381.12,91.58L384.51,90.77L384.89,90.7L401.1,86.01L401.48,85.87L403.36,85.21L403.74,85.04L406,84.37" style="vector-effect: non-scaling-stroke; fill: none; stroke: rgb(8, 48, 107); stroke-opacity: 1; stroke-width: 2px; opacity: 1;"/></g><g class="points"/><g class="text"/></g><g class="trace scatter trace34b24f" style="stroke-miterlimit: 2; opacity: 1;"><g class="fills"/><g class="errorbars"/><g class="lines"><path class="js-line" d="M5.28,283.48L75.39,282.73L75.77,282.72L128.17,281.02L128.55,280.97L164.74,277.2L165.11,277.19L180.57,275.26L180.95,275.2L192.63,273.74L193.01,273.71L223.55,272.2L223.92,272.15L238.62,271.34L239,271.33L279.34,270.28L279.71,270.17L286.88,267.53L287.25,267.37L292.91,265.6L293.29,265.5L304.59,264.11L304.97,264.09L333.24,262.59L333.62,262.58L344.93,261.56L345.31,261.45L352.47,258.59L352.85,258.36L361.14,254.65L361.52,254.53L367.93,253.39L368.3,253.36L390.92,250.1L391.3,249.98L397.71,247.62L398.08,247.43L406,242.91" style="vector-effect: non-scaling-stroke; fill: none; stroke: rgb(8, 81, 156); stroke-opacity: 1; stroke-width: 2px; opacity: 1; stroke-dasharray: 9px, 9px;"/></g><g class="points"/><g class="text"/></g><g class="trace scatter trace58af5f" style="stroke-miterlimit: 2; opacity: 1;"><g class="fills"/><g class="errorbars"/><g class="lines"><path class="js-line" d="M7.92,283.48L104.42,282.73L104.8,282.72L127.04,281.98L127.42,281.94L148.53,280.92L148.9,280.92L204.32,280.17L204.7,280.16L231.84,279.42L232.22,279.4L249.18,278.22L249.56,278.17L260.49,275.65L260.87,275.48L274.06,272.86L274.44,272.82L285.75,270.8L286.12,270.62L289.89,268.08L290.27,267.72L294.79,262.04L295.17,261.29L300.07,254.7L300.45,254.14L303.84,250.14L304.22,249.82L310.63,246.64L311,246.52L322.31,244.79L322.69,244.76L350.21,242.38L350.58,242.28L362.27,239.06L362.65,239L384.14,236L384.51,235.92L402.23,231.97L402.61,231.92L406,231.09" style="vector-effect: non-scaling-stroke; fill: none; stroke: rgb(33, 113, 181); stroke-opacity: 1; stroke-width: 2px; opacity: 1; stroke-dasharray: 3px, 3px;"/></g><g class="points"/><g class="text"/></g><g class="trace scatter trace765ec6" style="stroke-miterlimit: 2; opacity: 1;"><g class="fills"/><g class="errorbars"/><g class="lines"><path class="js-line" d="M0,283.48L18.85,282.88L19.23,282.71L21.11,280.99L21.49,280.42L23.37,276.05L23.75,274.82L27.14,260.84L27.52,259.15L33.55,237.66L33.93,236.66L38.07,227.95L38.45,227.43L43.73,221.06L44.11,220.7L48.25,217.77L48.63,217.57L53.91,215.57L54.28,215.46L61.45,213.95L61.82,213.91L76.15,212.75L76.53,212.73L91.23,211.6L91.6,211.54L98.01,209.45L98.39,209.22L102.16,206.39L102.54,206.05L107.81,199.44L108.19,198.91L121.01,179.12L121.39,178.43L127.04,166.11L127.42,165.09L130.43,155.21L130.81,153.68L139.86,117.66L140.23,116.59L145.13,106.21L145.51,105.64L149.28,101.31L149.66,101.01L155.31,97.84L155.69,97.72L162.48,96.09L162.85,96.04L174.92,94.87L175.29,94.86L198.66,93.5L199.04,93.45L206.2,91.81L206.58,91.69L219.02,87.31L219.4,87.12L268.03,63.65L268.4,63.36L278.58,56.47L278.96,56.28L289.52,52.09L289.89,51.96L296.68,48.69L297.05,48.48L308.74,41.83L309.12,41.7L317.41,39.52L317.79,39.45L336.64,35.86L337.01,35.68L347.19,31.84L347.57,31.73L361.14,29.14L361.52,29.09L370.94,27.1L371.32,26.97L381.12,23.87L381.5,23.78L394.69,21.66L395.07,21.66L406,21.35" style="vector-effect: non-scaling-stroke; fill: none; stroke: rgb(66, 146, 198); stroke-opacity: 1; stroke-width: 2px; opacity: 1; stroke-dasharray: 9px, 3px, 3px, 3px;"/></g><g class="points"/><g class="text"/></g><g class="trace scatter trace48ae2d" style="stroke-miterlimit: 2; opacity: 1;"><g class="fills"/><g class="errorbars"/><g class="lines"><path class="js-line" d="M11.31,283.48L21.86,282.74L22.24,282.61L24.13,281.04L24.5,280.65L27.9,276.1L28.27,275.49L32.8,269.22L33.17,268.85L38.07,263.07L38.45,262.82L43.35,258.69L43.73,258.54L47.12,256.45L47.5,256.2L53.91,253.5L54.28,253.41L67.86,246.8L68.23,246.45L74.26,242.33L74.64,242.07L78.79,239.76L79.16,239.48L90.47,233.73L90.85,233.66L94.24,232.17L94.62,231.95L101.41,228.51L101.78,228.37L110.45,222.03L110.83,221.54L118.37,212L118.75,211.28L122.52,204.81L122.89,204.36L126.66,197.78L127.04,197.24L129.68,191.97L130.06,191.18L131.56,188.18L131.94,187.25L135.71,179.69L136.09,179.25L140.23,170.22L140.61,169.56L142.12,167.28L142.5,166.51L145.13,163.14L145.51,162.52L152.67,154.56L153.05,154.18L156.82,151.69L157.2,151.55L167.38,145.74L167.75,145.62L177.18,141.41L177.55,141.28L181.7,139.77L182.08,139.44L189.24,137.68L189.62,137.59L210.73,133L211.1,132.75L218.27,127.55L218.64,127.05L220.15,125.57L220.53,125.43L232.59,109.6L232.97,109.49L234.1,108.52L234.48,107.74L237.87,103.86L238.25,103.72L239.38,102.9L239.75,102.39L243.15,99.43L243.52,99.31L244.66,98.6L245.03,98.19L249.93,94.54L250.31,94.13L252.57,92.89L252.95,92.4L254.08,90.89L254.46,90.79L268.4,77.27L268.78,76.57L272.93,71.08L273.31,70.54L277.83,62.6L278.21,62.48L282.73,54.9L283.11,54.73L284.24,53.87L284.61,53.11L286.5,51.12L286.88,50.68L289.14,48.79L289.52,48.44L291.78,46.67L292.15,46.41L293.66,45.32L294.04,45.3L297.05,43.73L297.43,43.49L299.69,42.67L300.07,42.55L302.33,41.79L302.71,41.64L304.97,41.05L305.35,40.94L307.61,40.4L307.99,40.33L311.76,39.07L312.13,39.02L316.28,38.17L316.66,38.08L330.61,35.02L330.98,35.01L339.65,32.82L340.03,32.61L359.63,26.64L360.01,26.64L380.74,21.18L381.12,21.18L386.77,20.04L387.15,19.9L389.04,19.57L389.41,19.5L406,14.92" style="vector-effect: non-scaling-stroke; fill: none; stroke: rgb(107, 174, 214); stroke-opacity: 1; stroke-width: 2px; opacity: 1; stroke-dasharray: 15px, 15px;"/></g><g class="points"/><g class="text"/></g></g></g><g class="overplot"/><path class="xlines-above crisp" d="M0,0" style="fill: none;"/><path class="ylines-above crisp" d="M0,0" style="fill: none;"/><g class="overlines-above"/><g class="xaxislayer-above"><g class="xtick"><text text-anchor="middle" x="0" y="436" transform="translate(115.68,0)" style="font-family: 'Open Sans', verdana, arial, sans-serif; font-size: 12px; fill: rgb(68, 68, 68); fill-opacity: 1; white-space: pre; opacity: 1;">Jul 2020</text></g><g class="xtick"><text text-anchor="middle" x="0" y="436" style="font-family: 'Open Sans', verdana, arial, sans-serif; font-size: 12px; fill: rgb(68, 68, 68); fill-opacity: 1; white-space: pre; opacity: 1;" transform="translate(185.04000000000002,0)">Jan 2021</text></g><g class="xtick"><text text-anchor="middle" x="0" y="436" style="font-family: 'Open Sans', verdana, arial, sans-serif; font-size: 12px; fill: rgb(68, 68, 68); fill-opacity: 1; white-space: pre; opacity: 1;" transform="translate(253.27,0)">Jul 2021</text></g><g class="xtick"><text text-anchor="middle" x="0" y="436" style="font-family: 'Open Sans', verdana, arial, sans-serif; font-size: 12px; fill: rgb(68, 68, 68); fill-opacity: 1; white-space: pre; opacity: 1;" transform="translate(322.64,0)">Jan 2022</text></g><g class="xtick"><text text-anchor="middle" x="0" y="436" style="font-family: 'Open Sans', verdana, arial, sans-serif; font-size: 12px; fill: rgb(68, 68, 68); fill-opacity: 1; white-space: pre; opacity: 1;" transform="translate(390.87,0)">Jul 2022</text></g><g class="xtick"><text text-anchor="middle" x="0" y="436" style="font-family: 'Open Sans', verdana, arial, sans-serif; font-size: 12px; fill: rgb(68, 68, 68); fill-opacity: 1; white-space: pre; opacity: 1;" transform="translate(460.23,0)">Jan 2023</text></g></g><g class="yaxislayer-above"><g class="ytick"><text text-anchor="end" x="57" y="4.199999999999999" transform="translate(0,408.08)" style="font-family: 'Open Sans', verdana, arial, sans-serif; font-size: 12px; fill: rgb(68, 68, 68); fill-opacity: 1; white-space: pre; opacity: 1;">0</text></g><g class="ytick"><text text-anchor="end" x="57" y="4.199999999999999" style="font-family: 'Open Sans', verdana, arial, sans-serif; font-size: 12px; fill: rgb(68, 68, 68); fill-opacity: 1; white-space: pre; opacity: 1;" transform="translate(0,366.72999999999996)">500</text></g><g class="ytick"><text text-anchor="end" x="57" y="4.199999999999999" style="font-family: 'Open Sans', verdana, arial, sans-serif; font-size: 12px; fill: rgb(68, 68, 68); fill-opacity: 1; white-space: pre; opacity: 1;" transform="translate(0,325.38)">1000</text></g><g class="ytick"><text text-anchor="end" x="57" y="4.199999999999999" style="font-family: 'Open Sans', verdana, arial, sans-serif; font-size: 12px; fill: rgb(68, 68, 68); fill-opacity: 1; white-space: pre; opacity: 1;" transform="translate(0,284.02)">1500</text></g><g class="ytick"><text text-anchor="end" x="57" y="4.199999999999999" style="font-family: 'Open Sans', verdana, arial, sans-serif; font-size: 12px; fill: rgb(68, 68, 68); fill-opacity: 1; white-space: pre; opacity: 1;" transform="translate(0,242.66999999999996)">2000</text></g><g class="ytick"><text text-anchor="end" x="57" y="4.199999999999999" style="font-family: 'Open Sans', verdana, arial, sans-serif; font-size: 12px; fill: rgb(68, 68, 68); fill-opacity: 1; white-space: pre; opacity: 1;" transform="translate(0,201.32)">2500</text></g><g class="ytick"><text text-anchor="end" x="57" y="4.199999999999999" style="font-family: 'Open Sans', verdana, arial, sans-serif; font-size: 12px; fill: rgb(68, 68, 68); fill-opacity: 1; white-space: pre; opacity: 1;" transform="translate(0,159.96999999999997)">3000</text></g></g><g class="overaxes-above"/></g></g><g class="polarlayer"/><g class="ternarylayer"/><g class="geolayer"/><g class="funnelarealayer"/><g class="pielayer"/><g class="iciclelayer"/><g class="treemaplayer"/><g class="sunburstlayer"/><g class="glimages"/><defs id="topdefs-e133eb"><g class="clips"/><clipPath id="legende133eb"><rect width="142" height="105" x="0" y="0"/></clipPath></defs><g class="indicatorlayer"><g class="trace"><g class="numbers" transform="translate(260.99227714538574,110.94121093749997)"><text text-anchor="middle" class="number" x="0" y="0" style="font-family: 나눔고딕; font-size: 15px; fill: rgb(68, 68, 68); fill-opacity: 1; white-space: pre;">633명</text></g><text class="title" text-anchor="middle" x="0" y="0" style="font-family: 나눔고딕; font-size: 15px; fill: rgb(68, 68, 68); fill-opacity: 1; white-space: pre;" transform="translate(261,69.17541046142576)"><tspan class="line" dy="0em" x="0" y="0"><tspan style="font-weight:bold">한국 코로나 사망자(10만명당)</tspan></tspan><tspan class="line" dy="1.3em" x="0" y="0">2023년1월14일</tspan></text></g></g><g class="layer-above"><g class="imagelayer"/><g class="shapelayer"/></g><g class="infolayer"><g class="legend" pointer-events="all" transform="translate(472.12,50)"><rect class="bg" shape-rendering="crispEdges" width="142" height="105" x="0" y="0" style="stroke: rgb(68, 68, 68); stroke-opacity: 1; fill: rgb(255, 255, 255); fill-opacity: 1; stroke-width: 0px;"/><g class="scrollbox" transform="" clip-path="url(#legende133eb)"><g class="groups"><g class="traces" transform="translate(0,14.5)" style="opacity: 1;"><text class="legendtext" text-anchor="start" x="40" y="4.680000000000001" style="font-family: 'Open Sans', verdana, arial, sans-serif; font-size: 12px; fill: rgb(68, 68, 68); fill-opacity: 1; white-space: pre;">France</text><g class="layers" style="opacity: 1;"><g class="legendfill"/><g class="legendlines"><path class="js-line" d="M5,0h30" style="fill: none; stroke: rgb(8, 48, 107); stroke-opacity: 1; stroke-width: 2px;"/></g><g class="legendsymbols"><g class="legendpoints"/></g></g><rect class="legendtoggle" x="0" y="-9.5" width="136.34410095214844" height="19" style="fill: rgb(0, 0, 0); fill-opacity: 0;"/></g><g class="traces" transform="translate(0,33.5)" style="opacity: 1;"><text class="legendtext" text-anchor="start" x="40" y="4.680000000000001" style="font-family: 'Open Sans', verdana, arial, sans-serif; font-size: 12px; fill: rgb(68, 68, 68); fill-opacity: 1; white-space: pre;">Japan</text><g class="layers" style="opacity: 1;"><g class="legendfill"/><g class="legendlines"><path class="js-line" d="M5,0h30" style="fill: none; stroke: rgb(8, 81, 156); stroke-opacity: 1; stroke-dasharray: 9px, 9px; stroke-width: 2px;"/></g><g class="legendsymbols"><g class="legendpoints"/></g></g><rect class="legendtoggle" x="0" y="-9.5" width="136.34410095214844" height="19" style="fill: rgb(0, 0, 0); fill-opacity: 0;"/></g><g class="traces" transform="translate(0,52.5)" style="opacity: 1;"><text class="legendtext" text-anchor="start" x="40" y="4.680000000000001" style="font-family: 'Open Sans', verdana, arial, sans-serif; font-size: 12px; fill: rgb(68, 68, 68); fill-opacity: 1; white-space: pre;">South Korea</text><g class="layers" style="opacity: 1;"><g class="legendfill"/><g class="legendlines"><path class="js-line" d="M5,0h30" style="fill: none; stroke: rgb(33, 113, 181); stroke-opacity: 1; stroke-dasharray: 3px, 3px; stroke-width: 2px;"/></g><g class="legendsymbols"><g class="legendpoints"/></g></g><rect class="legendtoggle" x="0" y="-9.5" width="136.34410095214844" height="19" style="fill: rgb(0, 0, 0); fill-opacity: 0;"/></g><g class="traces" transform="translate(0,71.5)" style="opacity: 1;"><text class="legendtext" text-anchor="start" x="40" y="4.680000000000001" style="font-family: 'Open Sans', verdana, arial, sans-serif; font-size: 12px; fill: rgb(68, 68, 68); fill-opacity: 1; white-space: pre;">United Kingdom</text><g class="layers" style="opacity: 1;"><g class="legendfill"/><g class="legendlines"><path class="js-line" d="M5,0h30" style="fill: none; stroke: rgb(66, 146, 198); stroke-opacity: 1; stroke-dasharray: 9px, 3px, 3px, 3px; stroke-width: 2px;"/></g><g class="legendsymbols"><g class="legendpoints"/></g></g><rect class="legendtoggle" x="0" y="-9.5" width="136.34410095214844" height="19" style="fill: rgb(0, 0, 0); fill-opacity: 0;"/></g><g class="traces" transform="translate(0,90.5)" style="opacity: 1;"><text class="legendtext" text-anchor="start" x="40" y="4.680000000000001" style="font-family: 'Open Sans', verdana, arial, sans-serif; font-size: 12px; fill: rgb(68, 68, 68); fill-opacity: 1; white-space: pre;">United States</text><g class="layers" style="opacity: 1;"><g class="legendfill"/><g class="legendlines"><path class="js-line" d="M5,0h30" style="fill: none; stroke: rgb(107, 174, 214); stroke-opacity: 1; stroke-dasharray: 15px, 15px; stroke-width: 2px;"/></g><g class="legendsymbols"><g class="legendpoints"/></g></g><rect class="legendtoggle" x="0" y="-9.5" width="136.34410095214844" height="19" style="fill: rgb(0, 0, 0); fill-opacity: 0;"/></g></g></g><rect class="scrollbar" rx="20" ry="3" width="0" height="0" x="0" y="0" style="fill: rgb(128, 139, 164); fill-opacity: 1;"/></g><g class="g-gtitle"><text class="gtitle" x="313.182" y="25" text-anchor="middle" dy="0em" style="font-family: 'Open Sans', verdana, arial, sans-serif; font-size: 17px; fill: rgb(68, 68, 68); opacity: 1; font-weight: normal; white-space: pre;">코로나 19 사망자수 추세</text></g><g class="g-xtitle"/><g class="g-ytitle"><text class="ytitle" transform="rotate(-90,20,273.8)" x="20" y="273.8" text-anchor="middle" style="font-family: 'Open Sans', verdana, arial, sans-serif; font-size: 14px; fill: rgb(68, 68, 68); opacity: 1; font-weight: normal; white-space: pre;">10만명당 사망자수 누계</text></g></g></svg>