<svg class="main-svg" xmlns="http://www.w3.org/2000/svg" xmlns:xlink="http://www.w3.org/1999/xlink" width="626.364" height="465.455" style="" viewBox="0 0 626.364 465.455"><rect x="0" y="0" width="626.364" height="465.455" style="fill: rgb(255, 255, 255); fill-opacity: 1;"/><defs id="defs-747d02"><g class="clips"/><g class="gradients"/><g class="patterns"/></defs><g class="bglayer"/><g class="layer-below"><g class="imagelayer"/><g class="shapelayer"/></g><g class="cartesianlayer"/><g class="polarlayer"/><g class="ternarylayer"/><g class="geolayer"/><g class="funnelarealayer"/><g class="pielayer"/><g class="iciclelayer"/><g class="treemaplayer"/><g class="sunburstlayer"/><g class="glimages"/><defs id="topdefs-747d02"><g class="clips"/></defs><g class="indicatorlayer"><g class="trace"><g class="numbers" transform="translate(312.9971332897736,283.61565141534527)scale(0.37128996323461366)"><text text-anchor="middle" class="number" x="0" y="0" style="font-family: 'Open Sans', verdana, arial, sans-serif; font-size: 80px; fill: rgb(68, 68, 68); fill-opacity: 1; white-space: pre;">1.47명</text></g><g class="angular" transform="translate(313,289.6896551724138)"><g class="bg-arc"><path d="M-89.37931034482757,-1.0945808632379101e-14A89.37931034482757,89.37931034482757 0 0,1 89.37931034482757,0L67.03448275862068,0A67.03448275862068,67.03448275862068 0 0,0 -67.03448275862068,-8.209356474284325e-15Z" style="stroke: rgb(68, 68, 68); stroke-opacity: 1; fill: rgb(255, 255, 255); fill-opacity: 1; stroke-width: 0;"/></g><g class="bg-arc"><path d="M-89.37931034482757,-1.0945808632379101e-14A89.37931034482757,89.37931034482757 0 0,1 5.4729043161895504e-15,-89.37931034482757L4.104678237142163e-15,-67.03448275862068A67.03448275862068,67.03448275862068 0 0,0 -67.03448275862068,-8.209356474284325e-15Z" style="stroke: rgb(68, 68, 68); stroke-opacity: 1; fill: rgb(211, 211, 211); fill-opacity: 1; stroke-width: 0;"/></g><g class="bg-arc"><path d="M5.4729043161895504e-15,-89.37931034482757A89.37931034482757,89.37931034482757 0 0,1 63.20071644260452,-63.20071644260451L47.400537331953394,-47.40053733195339A67.03448275862068,67.03448275862068 0 0,0 4.104678237142163e-15,-67.03448275862068Z" style="stroke: rgb(68, 68, 68); stroke-opacity: 1; fill: rgb(169, 169, 169); fill-opacity: 1; stroke-width: 0;"/></g><g class="bg-arc"><path d="M63.20071644260452,-63.20071644260451A89.37931034482757,89.37931034482757 0 0,1 89.37931034482757,0L67.03448275862068,0A67.03448275862068,67.03448275862068 0 0,0 47.400537331953394,-47.40053733195339Z" style="stroke: rgb(68, 68, 68); stroke-opacity: 1; fill: rgb(128, 128, 128); fill-opacity: 1; stroke-width: 0;"/></g><g class="value-arc"><path d="M-83.79310344827584,-1.0261695592855406e-14A83.79310344827584,83.79310344827584 0 0,1 -76.39418882455132,-34.42690952339835L-66.20829698127783,-29.836654920278576A72.62068965517241,72.62068965517241 0 0,0 -72.62068965517241,-8.89346951380802e-15Z" style="stroke: rgb(68, 68, 68); stroke-opacity: 1; fill: rgb(0, 0, 139); fill-opacity: 1; stroke-width: 0;"/></g><g class="threshold-arc"><path d="M75.95341420639107,-43.851724137931015A87.70344827586206,87.70344827586206 0 0,1 75.95341420639107,-43.851724137931015L59.504904123478354,-34.355172413793085A68.7103448275862,68.7103448275862 0 0,0 59.504904123478354,-34.355172413793085Z" style="stroke: rgb(255, 255, 255); stroke-opacity: 1; fill: rgb(0, 0, 0); fill-opacity: 1; stroke-width: 1;"/></g><g class="gauge-outline"><path d="M-89.37931034482757,-1.0945808632379101e-14A89.37931034482757,89.37931034482757 0 0,1 89.37931034482757,0L67.03448275862068,0A67.03448275862068,67.03448275862068 0 0,0 -67.03448275862068,-8.209356474284325e-15Z" style="stroke: rgb(68, 68, 68); stroke-opacity: 1; fill: rgb(0, 0, 0); fill-opacity: 0; stroke-width: 1;"/></g></g><g class="angularaxis crisp"><path class="xangularaxistick ticks crisp" d="M0.5,0h5" transform="translate(223.62068965517244,289.6896551724138)rotate(-180)" style="stroke: rgb(68, 68, 68); stroke-opacity: 1; stroke-width: 1px;"/><path class="xangularaxistick ticks crisp" d="M0.5,0h5" transform="translate(238.10179948369515,240.91547473710156)rotate(-146.92757138132512)" style="stroke: rgb(68, 68, 68); stroke-opacity: 1; stroke-width: 1px;"/><path class="xangularaxistick ticks crisp" d="M0.5,0h5" transform="translate(276.8527109799837,207.94594217734357)rotate(-113.8551427626502)" style="stroke: rgb(68, 68, 68); stroke-opacity: 1; stroke-width: 1px;"/><path class="xangularaxistick ticks crisp" d="M0.5,0h5" transform="translate(327.31668806791123,201.46441184328984)rotate(-80.7827141439753)" style="stroke: rgb(68, 68, 68); stroke-opacity: 1; stroke-width: 1px;"/><path class="xangularaxistick ticks crisp" d="M0.5,0h5" transform="translate(373.1415259301662,223.57114054520707)rotate(-47.7102855253004)" style="stroke: rgb(68, 68, 68); stroke-opacity: 1; stroke-width: 1px;"/><path class="xangularaxistick ticks crisp" d="M0.5,0h5" transform="translate(399.4782733408465,267.10272625981383)rotate(-14.637856906625508)" style="stroke: rgb(68, 68, 68); stroke-opacity: 1; stroke-width: 1px;"/><g class="xangularaxistick"><text text-anchor="end" x="-7.9" y="4.199999999999998" transform="translate(223.62068965517244,289.6896551724138)" style="font-family: 'Open Sans', verdana, arial, sans-serif; font-size: 12px; fill: rgb(68, 68, 68); fill-opacity: 1; white-space: pre; opacity: 1;">0</text></g><g class="xangularaxistick"><text text-anchor="end" x="-6.620053139770619" y="-2.1011754911812632" transform="translate(238.10179948369515,240.91547473710156)" style="font-family: 'Open Sans', verdana, arial, sans-serif; font-size: 12px; fill: rgb(68, 68, 68); fill-opacity: 1; white-space: pre; opacity: 1;">2</text></g><g class="xangularaxistick"><text text-anchor="end" x="-3.1949629299713473" y="-7.721492001924959" transform="translate(276.8527109799837,207.94594217734357)" style="font-family: 'Open Sans', verdana, arial, sans-serif; font-size: 12px; fill: rgb(68, 68, 68); fill-opacity: 1; white-space: pre; opacity: 1;">4</text></g><g class="xangularaxistick"><text text-anchor="start" x="1.2654140572370616" y="-9.494254465948204" transform="translate(327.31668806791123,201.46441184328984)" style="font-family: 'Open Sans', verdana, arial, sans-serif; font-size: 12px; fill: rgb(68, 68, 68); fill-opacity: 1; white-space: pre; opacity: 1;">6</text></g><g class="xangularaxistick"><text text-anchor="start" x="5.315749842052887" y="-4.79334971483503" transform="translate(373.1415259301662,223.57114054520707)" style="font-family: 'Open Sans', verdana, arial, sans-serif; font-size: 12px; fill: rgb(68, 68, 68); fill-opacity: 1; white-space: pre; opacity: 1;">8</text></g><g class="xangularaxistick"><text text-anchor="start" x="7.643585039501517" y="1.4607785596919376" transform="translate(399.4782733408465,267.10272625981383)" style="font-family: 'Open Sans', verdana, arial, sans-serif; font-size: 12px; fill: rgb(68, 68, 68); fill-opacity: 1; white-space: pre; opacity: 1;">10</text></g></g><text class="title" text-anchor="middle" x="0" y="0" style="font-family: 'Open Sans', verdana, arial, sans-serif; font-size: 20px; fill: rgb(68, 68, 68); fill-opacity: 1; white-space: pre;" transform="translate(313,170.63671875)">South Korea</text></g><g class="trace"><g class="numbers" transform="translate(114.37916208620828,148.2960079477636)scale(0.42244682063242817)"><text text-anchor="middle" class="number" x="0" y="0" style="font-family: 'Open Sans', verdana, arial, sans-serif; font-size: 80px; fill: rgb(68, 68, 68); fill-opacity: 1; white-space: pre;">1.3명</text></g><g class="angular" transform="translate(114.37931034482759,155.20689655172413)"><g class="bg-arc"><path d="M-89.37931034482759,-1.0945808632379102e-14A89.37931034482759,89.37931034482759 0 0,1 89.37931034482759,0L67.0344827586207,0A67.0344827586207,67.0344827586207 0 0,0 -67.0344827586207,-8.209356474284327e-15Z" style="stroke: rgb(68, 68, 68); stroke-opacity: 1; fill: rgb(255, 255, 255); fill-opacity: 1; stroke-width: 0;"/></g><g class="bg-arc"><path d="M-89.37931034482759,-1.0945808632379102e-14A89.37931034482759,89.37931034482759 0 0,1 5.472904316189551e-15,-89.37931034482759L4.1046782371421634e-15,-67.0344827586207A67.0344827586207,67.0344827586207 0 0,0 -67.0344827586207,-8.209356474284327e-15Z" style="stroke: rgb(68, 68, 68); stroke-opacity: 1; fill: rgb(211, 211, 211); fill-opacity: 1; stroke-width: 0;"/></g><g class="bg-arc"><path d="M5.472904316189551e-15,-89.37931034482759A89.37931034482759,89.37931034482759 0 0,1 63.2007164426045,-63.200716442604545L47.40053733195338,-47.400537331953416A67.0344827586207,67.0344827586207 0 0,0 4.1046782371421634e-15,-67.0344827586207Z" style="stroke: rgb(68, 68, 68); stroke-opacity: 1; fill: rgb(169, 169, 169); fill-opacity: 1; stroke-width: 0;"/></g><g class="bg-arc"><path d="M63.2007164426045,-63.200716442604545A89.37931034482759,89.37931034482759 0 0,1 89.37931034482759,0L67.0344827586207,0A67.0344827586207,67.0344827586207 0 0,0 47.40053733195338,-47.400537331953416Z" style="stroke: rgb(68, 68, 68); stroke-opacity: 1; fill: rgb(128, 128, 128); fill-opacity: 1; stroke-width: 0;"/></g><g class="value-arc"><path d="M-83.79310344827587,-1.026169559285541e-14A83.79310344827587,83.79310344827587 0 0,1 -82.71946330029593,-13.370661045904088L-71.69020152692312,-11.587906239783543A72.62068965517241,72.62068965517241 0 0,0 -72.62068965517241,-8.89346951380802e-15Z" style="stroke: rgb(68, 68, 68); stroke-opacity: 1; fill: rgb(0, 0, 139); fill-opacity: 1; stroke-width: 0;"/></g><g class="threshold-arc"><path d="M75.95341420639107,-43.85172413793106A87.70344827586207,87.70344827586207 0 0,1 75.95341420639107,-43.85172413793106L59.504904123478354,-34.35517241379312A68.71034482758621,68.71034482758621 0 0,0 59.504904123478354,-34.35517241379312Z" style="stroke: rgb(255, 255, 255); stroke-opacity: 1; fill: rgb(0, 0, 0); fill-opacity: 1; stroke-width: 1;"/></g><g class="gauge-outline"><path d="M-89.37931034482759,-1.0945808632379102e-14A89.37931034482759,89.37931034482759 0 0,1 89.37931034482759,0L67.0344827586207,0A67.0344827586207,67.0344827586207 0 0,0 -67.0344827586207,-8.209356474284327e-15Z" style="stroke: rgb(68, 68, 68); stroke-opacity: 1; fill: rgb(0, 0, 0); fill-opacity: 0; stroke-width: 1;"/></g></g><g class="angularaxis crisp"><path class="xangularaxistick ticks crisp" d="M0.5,0h5" transform="translate(25,155.20689655172413)rotate(-180)" style="stroke: rgb(68, 68, 68); stroke-opacity: 1; stroke-width: 1px;"/><path class="xangularaxistick ticks crisp" d="M0.5,0h5" transform="translate(41.49576252423617,103.4705498040017)rotate(-144.6309832586654)" style="stroke: rgb(68, 68, 68); stroke-opacity: 1; stroke-width: 1px;"/><path class="xangularaxistick ticks crisp" d="M0.5,0h5" transform="translate(84.89416486822257,70.83102728840664)rotate(-109.26196651733082)" style="stroke: rgb(68, 68, 68); stroke-opacity: 1; stroke-width: 1px;"/><path class="xangularaxistick ticks crisp" d="M0.5,0h5" transform="translate(139.17606935377097,69.33616894115016)rotate(-73.89294977599624)" style="stroke: rgb(68, 68, 68); stroke-opacity: 1; stroke-width: 1px;"/><path class="xangularaxistick ticks crisp" d="M0.5,0h5" transform="translate(184.30504020391422,99.53775409927528)rotate(-38.52393303466164)" style="stroke: rgb(68, 68, 68); stroke-opacity: 1; stroke-width: 1px;"/><path class="xangularaxistick ticks crisp" d="M0.5,0h5" transform="translate(203.62315550730432,150.28782973647495)rotate(-3.154916293327043)" style="stroke: rgb(68, 68, 68); stroke-opacity: 1; stroke-width: 1px;"/><g class="xangularaxistick"><text text-anchor="end" x="-7.9" y="4.199999999999998" transform="translate(25,155.20689655172413)" style="font-family: 'Open Sans', verdana, arial, sans-serif; font-size: 12px; fill: rgb(68, 68, 68); fill-opacity: 1; white-space: pre; opacity: 1;">0</text></g><g class="xangularaxistick"><text text-anchor="end" x="-6.44198333553144" y="-2.5372031824832777" transform="translate(41.49576252423617,103.4705498040017)" style="font-family: 'Open Sans', verdana, arial, sans-serif; font-size: 12px; fill: rgb(68, 68, 68); fill-opacity: 1; white-space: pre; opacity: 1;">5</text></g><g class="xangularaxistick"><text text-anchor="end" x="-2.6061137456366543" y="-8.337878638079646" transform="translate(84.89416486822257,70.83102728840664)" style="font-family: 'Open Sans', verdana, arial, sans-serif; font-size: 12px; fill: rgb(68, 68, 68); fill-opacity: 1; white-space: pre; opacity: 1;">10</text></g><g class="xangularaxistick"><text text-anchor="start" x="2.191719710242641" y="-8.730455667434082" transform="translate(139.17606935377097,69.33616894115016)" style="font-family: 'Open Sans', verdana, arial, sans-serif; font-size: 12px; fill: rgb(68, 68, 68); fill-opacity: 1; white-space: pre; opacity: 1;">15</text></g><g class="xangularaxistick"><text text-anchor="start" x="6.1805496569123255" y="-3.1294054605361583" transform="translate(184.30504020391422,99.53775409927528)" style="font-family: 'Open Sans', verdana, arial, sans-serif; font-size: 12px; fill: rgb(68, 68, 68); fill-opacity: 1; white-space: pre; opacity: 1;">20</text></g><g class="xangularaxistick"><text text-anchor="start" x="7.888026592100083" y="3.626765078346733" transform="translate(203.62315550730432,150.28782973647495)" style="font-family: 'Open Sans', verdana, arial, sans-serif; font-size: 12px; fill: rgb(68, 68, 68); fill-opacity: 1; white-space: pre; opacity: 1;">25</text></g></g><text class="title" text-anchor="middle" x="0" y="0" style="font-family: 'Open Sans', verdana, arial, sans-serif; font-size: 20px; fill: rgb(68, 68, 68); fill-opacity: 1; white-space: pre;" transform="translate(114.37931034482759,39.2578125)">France</text></g><g class="trace"><g class="numbers" transform="translate(511.61782294494606,149.13289279465562)scale(0.37128996323461366)"><text text-anchor="middle" class="number" x="0" y="0" style="font-family: 'Open Sans', verdana, arial, sans-serif; font-size: 80px; fill: rgb(68, 68, 68); fill-opacity: 1; white-space: pre;">3.07명</text></g><g class="angular" transform="translate(511.62068965517244,155.20689655172413)"><g class="bg-arc"><path d="M-89.37931034482757,-1.0945808632379101e-14A89.37931034482757,89.37931034482757 0 0,1 89.37931034482757,0L67.03448275862068,0A67.03448275862068,67.03448275862068 0 0,0 -67.03448275862068,-8.209356474284325e-15Z" style="stroke: rgb(68, 68, 68); stroke-opacity: 1; fill: rgb(255, 255, 255); fill-opacity: 1; stroke-width: 0;"/></g><g class="bg-arc"><path d="M-89.37931034482757,-1.0945808632379101e-14A89.37931034482757,89.37931034482757 0 0,1 5.4729043161895504e-15,-89.37931034482757L4.104678237142163e-15,-67.03448275862068A67.03448275862068,67.03448275862068 0 0,0 -67.03448275862068,-8.209356474284325e-15Z" style="stroke: rgb(68, 68, 68); stroke-opacity: 1; fill: rgb(211, 211, 211); fill-opacity: 1; stroke-width: 0;"/></g><g class="bg-arc"><path d="M5.4729043161895504e-15,-89.37931034482757A89.37931034482757,89.37931034482757 0 0,1 63.20071644260452,-63.20071644260451L47.400537331953394,-47.40053733195339A67.03448275862068,67.03448275862068 0 0,0 4.104678237142163e-15,-67.03448275862068Z" style="stroke: rgb(68, 68, 68); stroke-opacity: 1; fill: rgb(169, 169, 169); fill-opacity: 1; stroke-width: 0;"/></g><g class="bg-arc"><path d="M63.20071644260452,-63.20071644260451A89.37931034482757,89.37931034482757 0 0,1 89.37931034482757,0L67.03448275862068,0A67.03448275862068,67.03448275862068 0 0,0 47.400537331953394,-47.40053733195339Z" style="stroke: rgb(68, 68, 68); stroke-opacity: 1; fill: rgb(128, 128, 128); fill-opacity: 1; stroke-width: 0;"/></g><g class="value-arc"><path d="M-83.79310344827584,-1.0261695592855406e-14A83.79310344827584,83.79310344827584 0 0,1 46.192174246489614,-69.9111380530699L40.03321768029101,-60.589652979327255A72.62068965517241,72.62068965517241 0 0,0 -72.62068965517241,-8.89346951380802e-15Z" style="stroke: rgb(68, 68, 68); stroke-opacity: 1; fill: rgb(0, 0, 139); fill-opacity: 1; stroke-width: 0;"/></g><g class="threshold-arc"><path d="M75.95341420639106,-43.85172413793105A87.70344827586206,87.70344827586206 0 0,1 75.95341420639106,-43.85172413793105L59.50490412347834,-34.35517241379311A68.7103448275862,68.7103448275862 0 0,0 59.50490412347834,-34.35517241379311Z" style="stroke: rgb(255, 255, 255); stroke-opacity: 1; fill: rgb(0, 0, 0); fill-opacity: 1; stroke-width: 1;"/></g><g class="gauge-outline"><path d="M-89.37931034482757,-1.0945808632379101e-14A89.37931034482757,89.37931034482757 0 0,1 89.37931034482757,0L67.03448275862068,0A67.03448275862068,67.03448275862068 0 0,0 -67.03448275862068,-8.209356474284325e-15Z" style="stroke: rgb(68, 68, 68); stroke-opacity: 1; fill: rgb(0, 0, 0); fill-opacity: 0; stroke-width: 1;"/></g></g><g class="angularaxis crisp"><path class="xangularaxistick ticks crisp" d="M0.5,0h5" transform="translate(422.2413793103449,155.20689655172413)rotate(-180)" style="stroke: rgb(68, 68, 68); stroke-opacity: 1; stroke-width: 1px;"/><path class="xangularaxistick ticks crisp" d="M0.5,0h5" transform="translate(443.31351486789515,97.56324130418324)rotate(-139.83935742971886)" style="stroke: rgb(68, 68, 68); stroke-opacity: 1; stroke-width: 1px;"/><path class="xangularaxistick ticks crisp" d="M0.5,0h5" transform="translate(496.59395548212194,67.09981183199527)rotate(-99.67871485943776)" style="stroke: rgb(68, 68, 68); stroke-opacity: 1; stroke-width: 1px;"/><path class="xangularaxistick ticks crisp" d="M0.5,0h5" transform="translate(556.9598251125309,78.18077167388606)rotate(-59.51807228915662)" style="stroke: rgb(68, 68, 68); stroke-opacity: 1; stroke-width: 1px;"/><path class="xangularaxistick ticks crisp" d="M0.5,0h5" transform="translate(595.9473152335507,125.58120944946458)rotate(-19.357429718875512)" style="stroke: rgb(68, 68, 68); stroke-opacity: 1; stroke-width: 1px;"/><g class="xangularaxistick"><text text-anchor="end" x="-7.9" y="4.199999999999998" transform="translate(422.2413793103449,155.20689655172413)" style="font-family: 'Open Sans', verdana, arial, sans-serif; font-size: 12px; fill: rgb(68, 68, 68); fill-opacity: 1; white-space: pre; opacity: 1;">0</text></g><g class="xangularaxistick"><text text-anchor="end" x="-6.037489870279797" y="-3.433003832310992" transform="translate(443.31351486789515,97.56324130418324)" style="font-family: 'Open Sans', verdana, arial, sans-serif; font-size: 12px; fill: rgb(68, 68, 68); fill-opacity: 1; white-space: pre; opacity: 1;">1</text></g><g class="xangularaxistick"><text text-anchor="end" x="-1.3281731477800427" y="-9.447272370179578" transform="translate(496.59395548212194,67.09981183199527)" style="font-family: 'Open Sans', verdana, arial, sans-serif; font-size: 12px; fill: rgb(68, 68, 68); fill-opacity: 1; white-space: pre; opacity: 1;">2</text></g><g class="xangularaxistick"><text text-anchor="start" x="4.007405838457106" y="-6.7459092601481405" transform="translate(556.9598251125309,78.18077167388606)" style="font-family: 'Open Sans', verdana, arial, sans-serif; font-size: 12px; fill: rgb(68, 68, 68); fill-opacity: 1; white-space: pre; opacity: 1;">3</text></g><g class="xangularaxistick"><text text-anchor="start" x="7.453406604940772" y="0.5485301921302295" transform="translate(595.9473152335507,125.58120944946458)" style="font-family: 'Open Sans', verdana, arial, sans-serif; font-size: 12px; fill: rgb(68, 68, 68); fill-opacity: 1; white-space: pre; opacity: 1;">4</text></g></g><text class="title" text-anchor="middle" x="0" y="0" style="font-family: 'Open Sans', verdana, arial, sans-serif; font-size: 20px; fill: rgb(68, 68, 68); fill-opacity: 1; white-space: pre;" transform="translate(511.62068965517244,36.318359375)">Japan</text></g><g class="trace"><g class="numbers" transform="translate(114.37475778971772,415.69868606016536)scale(0.5179796036117651)"><text text-anchor="middle" class="number" x="0" y="0" style="font-family: 'Open Sans', verdana, arial, sans-serif; font-size: 80px; fill: rgb(68, 68, 68); fill-opacity: 1; white-space: pre;">0명</text></g><g class="angular" transform="translate(114.37931034482759,424.17241379310343)"><g class="bg-arc"><path d="M-89.37931034482759,-1.0945808632379102e-14A89.37931034482759,89.37931034482759 0 0,1 89.37931034482759,0L67.0344827586207,0A67.0344827586207,67.0344827586207 0 0,0 -67.0344827586207,-8.209356474284327e-15Z" style="stroke: rgb(68, 68, 68); stroke-opacity: 1; fill: rgb(255, 255, 255); fill-opacity: 1; stroke-width: 0;"/></g><g class="bg-arc"><path d="M-89.37931034482759,-1.0945808632379102e-14A89.37931034482759,89.37931034482759 0 0,1 5.472904316189551e-15,-89.37931034482759L4.1046782371421634e-15,-67.0344827586207A67.0344827586207,67.0344827586207 0 0,0 -67.0344827586207,-8.209356474284327e-15Z" style="stroke: rgb(68, 68, 68); stroke-opacity: 1; fill: rgb(211, 211, 211); fill-opacity: 1; stroke-width: 0;"/></g><g class="bg-arc"><path d="M5.472904316189551e-15,-89.37931034482759A89.37931034482759,89.37931034482759 0 0,1 63.200716442604545,-63.2007164426045L47.400537331953416,-47.40053733195338A67.0344827586207,67.0344827586207 0 0,0 4.1046782371421634e-15,-67.0344827586207Z" style="stroke: rgb(68, 68, 68); stroke-opacity: 1; fill: rgb(169, 169, 169); fill-opacity: 1; stroke-width: 0;"/></g><g class="bg-arc"><path d="M63.200716442604545,-63.2007164426045A89.37931034482759,89.37931034482759 0 0,1 89.37931034482759,0L67.0344827586207,0A67.0344827586207,67.0344827586207 0 0,0 47.400537331953416,-47.40053733195338Z" style="stroke: rgb(68, 68, 68); stroke-opacity: 1; fill: rgb(128, 128, 128); fill-opacity: 1; stroke-width: 0;"/></g><g class="value-arc"><path d="M-83.79310344827587,-1.026169559285541e-14A83.79310344827587,83.79310344827587 0 0,1 -83.79310344827587,-1.026169559285541e-14L-72.62068965517241,-8.89346951380802e-15A72.62068965517241,72.62068965517241 0 0,0 -72.62068965517241,-8.89346951380802e-15Z" style="stroke: rgb(68, 68, 68); stroke-opacity: 1; fill: rgb(0, 0, 139); fill-opacity: 1; stroke-width: 0;"/></g><g class="threshold-arc"><path d="M75.95341420639109,-43.85172413793102A87.70344827586207,87.70344827586207 0 0,1 75.95341420639109,-43.85172413793102L59.50490412347837,-34.35517241379309A68.71034482758621,68.71034482758621 0 0,0 59.50490412347837,-34.35517241379309Z" style="stroke: rgb(255, 255, 255); stroke-opacity: 1; fill: rgb(0, 0, 0); fill-opacity: 1; stroke-width: 1;"/></g><g class="gauge-outline"><path d="M-89.37931034482759,-1.0945808632379102e-14A89.37931034482759,89.37931034482759 0 0,1 89.37931034482759,0L67.0344827586207,0A67.0344827586207,67.0344827586207 0 0,0 -67.0344827586207,-8.209356474284327e-15Z" style="stroke: rgb(68, 68, 68); stroke-opacity: 1; fill: rgb(0, 0, 0); fill-opacity: 0; stroke-width: 1;"/></g></g><g class="angularaxis crisp"><path class="xangularaxistick ticks crisp" d="M0.5,0h5" transform="translate(25,424.17241379310343)rotate(-180)" style="stroke: rgb(68, 68, 68); stroke-opacity: 1; stroke-width: 1px;"/><path class="xangularaxistick ticks crisp" d="M0.5,0h5" transform="translate(40.26414515447064,374.21639907492255)rotate(-146.01875764577954)" style="stroke: rgb(68, 68, 68); stroke-opacity: 1; stroke-width: 1px;"/><path class="xangularaxistick ticks crisp" d="M0.5,0h5" transform="translate(80.8429774607794,341.32330097704903)rotate(-112.03751529155905)" style="stroke: rgb(68, 68, 68); stroke-opacity: 1; stroke-width: 1px;"/><path class="xangularaxistick ticks crisp" d="M0.5,0h5" transform="translate(132.8764395044585,336.72804673284656)rotate(-78.05627293733858)" style="stroke: rgb(68, 68, 68); stroke-opacity: 1; stroke-width: 1px;"/><path class="xangularaxistick ticks crisp" d="M0.5,0h5" transform="translate(178.5920442421389,362.0001858842526)rotate(-44.07503058311811)" style="stroke: rgb(68, 68, 68); stroke-opacity: 1; stroke-width: 1px;"/><path class="xangularaxistick ticks crisp" d="M0.5,0h5" transform="translate(202.3752244132724,408.5077968180262)rotate(-10.093788228897651)" style="stroke: rgb(68, 68, 68); stroke-opacity: 1; stroke-width: 1px;"/><g class="xangularaxistick"><text text-anchor="end" x="-7.9" y="4.199999999999998" transform="translate(25,424.17241379310343)" style="font-family: 'Open Sans', verdana, arial, sans-serif; font-size: 12px; fill: rgb(68, 68, 68); fill-opacity: 1; white-space: pre; opacity: 1;">0</text></g><g class="xangularaxistick"><text text-anchor="end" x="-6.550842725737183" y="-2.2741645355459705" transform="translate(40.26414515447064,374.21639907492255)" style="font-family: 'Open Sans', verdana, arial, sans-serif; font-size: 12px; fill: rgb(68, 68, 68); fill-opacity: 1; white-space: pre; opacity: 1;">5</text></g><g class="xangularaxistick"><text text-anchor="end" x="-2.9641874474287975" y="-7.97156815311666" transform="translate(80.8429774607794,341.32330097704903)" style="font-family: 'Open Sans', verdana, arial, sans-serif; font-size: 12px; fill: rgb(68, 68, 68); fill-opacity: 1; white-space: pre; opacity: 1;">10</text></g><g class="xangularaxistick"><text text-anchor="start" x="1.6349121491016365" y="-9.207824887830123" transform="translate(132.8764395044585,336.72804673284656)" style="font-family: 'Open Sans', verdana, arial, sans-serif; font-size: 12px; fill: rgb(68, 68, 68); fill-opacity: 1; white-space: pre; opacity: 1;">15</text></g><g class="xangularaxistick"><text text-anchor="start" x="5.675593107976089" y="-4.14727372209924" transform="translate(178.5920442421389,362.0001858842526)" style="font-family: 'Open Sans', verdana, arial, sans-serif; font-size: 12px; fill: rgb(68, 68, 68); fill-opacity: 1; white-space: pre; opacity: 1;">20</text></g><g class="xangularaxistick"><text text-anchor="start" x="7.777725275108298" y="2.329815294398533" transform="translate(202.3752244132724,408.5077968180262)" style="font-family: 'Open Sans', verdana, arial, sans-serif; font-size: 12px; fill: rgb(68, 68, 68); fill-opacity: 1; white-space: pre; opacity: 1;">25</text></g></g><text class="title" text-anchor="middle" x="0" y="0" style="font-family: 'Open Sans', verdana, arial, sans-serif; font-size: 20px; fill: rgb(68, 68, 68); fill-opacity: 1; white-space: pre;" transform="translate(114.37931034482759,306.1806640625)">United Kingdom</text></g><g class="trace"><g class="numbers" transform="translate(511.61782294494606,418.0984100360349)scale(0.37128996323461366)"><text text-anchor="middle" class="number" x="0" y="0" style="font-family: 'Open Sans', verdana, arial, sans-serif; font-size: 80px; fill: rgb(68, 68, 68); fill-opacity: 1; white-space: pre;">4.95명</text></g><g class="angular" transform="translate(511.62068965517244,424.17241379310343)"><g class="bg-arc"><path d="M-89.37931034482757,-1.0945808632379101e-14A89.37931034482757,89.37931034482757 0 0,1 89.37931034482757,0L67.03448275862068,0A67.03448275862068,67.03448275862068 0 0,0 -67.03448275862068,-8.209356474284325e-15Z" style="stroke: rgb(68, 68, 68); stroke-opacity: 1; fill: rgb(255, 255, 255); fill-opacity: 1; stroke-width: 0;"/></g><g class="bg-arc"><path d="M-89.37931034482757,-1.0945808632379101e-14A89.37931034482757,89.37931034482757 0 0,1 5.4729043161895504e-15,-89.37931034482757L4.104678237142163e-15,-67.03448275862068A67.03448275862068,67.03448275862068 0 0,0 -67.03448275862068,-8.209356474284325e-15Z" style="stroke: rgb(68, 68, 68); stroke-opacity: 1; fill: rgb(211, 211, 211); fill-opacity: 1; stroke-width: 0;"/></g><g class="bg-arc"><path d="M5.4729043161895504e-15,-89.37931034482757A89.37931034482757,89.37931034482757 0 0,1 63.20071644260454,-63.20071644260449L47.40053733195341,-47.400537331953366A67.03448275862068,67.03448275862068 0 0,0 4.104678237142163e-15,-67.03448275862068Z" style="stroke: rgb(68, 68, 68); stroke-opacity: 1; fill: rgb(169, 169, 169); fill-opacity: 1; stroke-width: 0;"/></g><g class="bg-arc"><path d="M63.20071644260454,-63.20071644260449A89.37931034482757,89.37931034482757 0 0,1 89.37931034482757,0L67.03448275862068,0A67.03448275862068,67.03448275862068 0 0,0 47.40053733195341,-47.400537331953366Z" style="stroke: rgb(68, 68, 68); stroke-opacity: 1; fill: rgb(128, 128, 128); fill-opacity: 1; stroke-width: 0;"/></g><g class="value-arc"><path d="M-83.79310344827584,-1.0261695592855406e-14A83.79310344827584,83.79310344827584 0 0,1 -45.42578236454316,-70.41152236717097L-39.36901138260408,-61.02331938488152A72.62068965517241,72.62068965517241 0 0,0 -72.62068965517241,-8.89346951380802e-15Z" style="stroke: rgb(68, 68, 68); stroke-opacity: 1; fill: rgb(0, 0, 139); fill-opacity: 1; stroke-width: 0;"/></g><g class="threshold-arc"><path d="M75.95341420639107,-43.851724137931015A87.70344827586206,87.70344827586206 0 0,1 75.95341420639107,-43.851724137931015L59.504904123478354,-34.355172413793085A68.7103448275862,68.7103448275862 0 0,0 59.504904123478354,-34.355172413793085Z" style="stroke: rgb(255, 255, 255); stroke-opacity: 1; fill: rgb(0, 0, 0); fill-opacity: 1; stroke-width: 1;"/></g><g class="gauge-outline"><path d="M-89.37931034482757,-1.0945808632379101e-14A89.37931034482757,89.37931034482757 0 0,1 89.37931034482757,0L67.03448275862068,0A67.03448275862068,67.03448275862068 0 0,0 -67.03448275862068,-8.209356474284325e-15Z" style="stroke: rgb(68, 68, 68); stroke-opacity: 1; fill: rgb(0, 0, 0); fill-opacity: 0; stroke-width: 1;"/></g></g><g class="angularaxis crisp"><path class="xangularaxistick ticks crisp" d="M0.5,0h5" transform="translate(422.2413793103449,424.17241379310343)rotate(-180)" style="stroke: rgb(68, 68, 68); stroke-opacity: 1; stroke-width: 1px;"/><path class="xangularaxistick ticks crisp" d="M0.5,0h5" transform="translate(429.4218657176595,389.07235024605626)rotate(-156.87683058424543)" style="stroke: rgb(68, 68, 68); stroke-opacity: 1; stroke-width: 1px;"/><path class="xangularaxistick ticks crisp" d="M0.5,0h5" transform="translate(449.80960413225523,359.6119706084752)rotate(-133.75366116849082)" style="stroke: rgb(68, 68, 68); stroke-opacity: 1; stroke-width: 1px;"/><path class="xangularaxistick ticks crisp" d="M0.5,0h5" transform="translate(480.1288056048304,340.5248055985064)rotate(-110.63049175273623)" style="stroke: rgb(68, 68, 68); stroke-opacity: 1; stroke-width: 1px;"/><path class="xangularaxistick ticks crisp" d="M0.5,0h5" transform="translate(515.5079486789195,334.87767523030067)rotate(-87.50732233698166)" style="stroke: rgb(68, 68, 68); stroke-opacity: 1; stroke-width: 1px;"/><path class="xangularaxistick ticks crisp" d="M0.5,0h5" transform="translate(550.2625084915348,343.5779291509472)rotate(-64.38415292122707)" style="stroke: rgb(68, 68, 68); stroke-opacity: 1; stroke-width: 1px;"/><path class="xangularaxistick ticks crisp" d="M0.5,0h5" transform="translate(578.8083147606749,365.22765872193986)rotate(-41.260983505472474)" style="stroke: rgb(68, 68, 68); stroke-opacity: 1; stroke-width: 1px;"/><path class="xangularaxistick ticks crisp" d="M0.5,0h5" transform="translate(596.5587853542866,396.34830524089415)rotate(-18.1378140897179)" style="stroke: rgb(68, 68, 68); stroke-opacity: 1; stroke-width: 1px;"/><g class="xangularaxistick"><text text-anchor="end" x="-7.9" y="4.199999999999998" transform="translate(422.2413793103449,424.17241379310343)" style="font-family: 'Open Sans', verdana, arial, sans-serif; font-size: 12px; fill: rgb(68, 68, 68); fill-opacity: 1; white-space: pre; opacity: 1;">0</text></g><g class="xangularaxistick"><text text-anchor="end" x="-7.265335865773233" y="-0.18231953160259273" transform="translate(429.4218657176595,389.07235024605626)" style="font-family: 'Open Sans', verdana, arial, sans-serif; font-size: 12px; fill: rgb(68, 68, 68); fill-opacity: 1; white-space: pre; opacity: 1;">2</text></g><g class="xangularaxistick"><text text-anchor="end" x="-5.463317782909082" y="-4.535344970122356" transform="translate(449.80960413225523,359.6119706084752)" style="font-family: 'Open Sans', verdana, arial, sans-serif; font-size: 12px; fill: rgb(68, 68, 68); fill-opacity: 1; white-space: pre; opacity: 1;">4</text></g><g class="xangularaxistick"><text text-anchor="end" x="-2.783484041640957" y="-8.159656284874412" transform="translate(480.1288056048304,340.5248055985064)" style="font-family: 'Open Sans', verdana, arial, sans-serif; font-size: 12px; fill: rgb(68, 68, 68); fill-opacity: 1; white-space: pre; opacity: 1;">6</text></g><g class="xangularaxistick"><text text-anchor="middle" x="0.34358450707579447" y="-10.107588834728706" transform="translate(515.5079486789195,334.87767523030067)" style="font-family: 'Open Sans', verdana, arial, sans-serif; font-size: 12px; fill: rgb(68, 68, 68); fill-opacity: 1; white-space: pre; opacity: 1;">8</text></g><g class="xangularaxistick"><text text-anchor="start" x="3.415447799155335" y="-7.471836044885463" transform="translate(550.2625084915348,343.5779291509472)" style="font-family: 'Open Sans', verdana, arial, sans-serif; font-size: 12px; fill: rgb(68, 68, 68); fill-opacity: 1; white-space: pre; opacity: 1;">10</text></g><g class="xangularaxistick"><text text-anchor="start" x="5.93853584555193" y="-3.6355500007354853" transform="translate(578.8083147606749,365.22765872193986)" style="font-family: 'Open Sans', verdana, arial, sans-serif; font-size: 12px; fill: rgb(68, 68, 68); fill-opacity: 1; white-space: pre; opacity: 1;">12</text></g><g class="xangularaxistick"><text text-anchor="start" x="7.507452825874638" y="0.7848760924410483" transform="translate(596.5587853542866,396.34830524089415)" style="font-family: 'Open Sans', verdana, arial, sans-serif; font-size: 12px; fill: rgb(68, 68, 68); fill-opacity: 1; white-space: pre; opacity: 1;">14</text></g></g><text class="title" text-anchor="middle" x="0" y="0" style="font-family: 'Open Sans', verdana, arial, sans-serif; font-size: 20px; fill: rgb(68, 68, 68); fill-opacity: 1; white-space: pre;" transform="translate(511.62068965517244,303.4248046875)">United States</text></g></g><g class="layer-above"><g class="imagelayer"/><g class="shapelayer"/></g><g class="infolayer"><g class="g-gtitle"><text class="gtitle" x="313.182" y="25" text-anchor="middle" dy="0em" style="font-family: 'Open Sans', verdana, arial, sans-serif; font-size: 17px; fill: rgb(68, 68, 68); opacity: 1; font-weight: normal; white-space: pre;">10만명당 사망자수(최근 공식발표 기준)</text></g></g></svg>