<svg class="main-svg" xmlns="http://www.w3.org/2000/svg" xmlns:xlink="http://www.w3.org/1999/xlink" width="900" height="600" style="" viewBox="0 0 900 600"><rect x="0" y="0" width="900" height="600" style="fill: rgb(255, 255, 255); fill-opacity: 1;"/><defs id="defs-c83621"><g class="clips"><clipPath id="clipc83621xyplot" class="plotclip"><rect width="674" height="508"/></clipPath><clipPath class="axesclip" id="clipc83621x"><rect x="58" y="0" width="674" height="600"/></clipPath><clipPath class="axesclip" id="clipc83621y"><rect x="0" y="50" width="900" height="508"/></clipPath><clipPath class="axesclip" id="clipc83621xy"><rect x="58" y="50" width="674" height="508"/></clipPath></g><g class="gradients"/><g class="patterns"/></defs><g class="bglayer"/><g class="layer-below"><g class="imagelayer"/><g class="shapelayer"/></g><g class="cartesianlayer"><g class="subplot xy"><g class="layer-subplot"><g class="shapelayer"/><g class="imagelayer"/></g><g class="gridlayer"><g class="x"><path class="xgrid crisp" transform="translate(156.59,0)" d="M0,50v508" style="stroke: rgb(238, 238, 238); stroke-opacity: 1; stroke-width: 1px;"/><path class="xgrid crisp" transform="translate(275.15,0)" d="M0,50v508" style="stroke: rgb(238, 238, 238); stroke-opacity: 1; stroke-width: 1px;"/><path class="xgrid crisp" transform="translate(391.78,0)" d="M0,50v508" style="stroke: rgb(238, 238, 238); stroke-opacity: 1; stroke-width: 1px;"/><path class="xgrid crisp" transform="translate(510.34,0)" d="M0,50v508" style="stroke: rgb(238, 238, 238); stroke-opacity: 1; stroke-width: 1px;"/><path class="xgrid crisp" transform="translate(626.97,0)" d="M0,50v508" style="stroke: rgb(238, 238, 238); stroke-opacity: 1; stroke-width: 1px;"/></g><g class="y"><path class="ygrid crisp" transform="translate(0,461.29)" d="M58,0h674" style="stroke: rgb(238, 238, 238); stroke-opacity: 1; stroke-width: 1px;"/><path class="ygrid crisp" transform="translate(0,389.98)" d="M58,0h674" style="stroke: rgb(238, 238, 238); stroke-opacity: 1; stroke-width: 1px;"/><path class="ygrid crisp" transform="translate(0,318.67)" d="M58,0h674" style="stroke: rgb(238, 238, 238); stroke-opacity: 1; stroke-width: 1px;"/><path class="ygrid crisp" transform="translate(0,247.35)" d="M58,0h674" style="stroke: rgb(238, 238, 238); stroke-opacity: 1; stroke-width: 1px;"/><path class="ygrid crisp" transform="translate(0,176.04000000000002)" d="M58,0h674" style="stroke: rgb(238, 238, 238); stroke-opacity: 1; stroke-width: 1px;"/><path class="ygrid crisp" transform="translate(0,104.72999999999999)" d="M58,0h674" style="stroke: rgb(238, 238, 238); stroke-opacity: 1; stroke-width: 1px;"/></g></g><g class="zerolinelayer"><path class="yzl zl crisp" transform="translate(0,532.6)" d="M58,0h674" style="stroke: rgb(68, 68, 68); stroke-opacity: 1; stroke-width: 1px;"/></g><path class="xlines-below"/><path class="ylines-below"/><g class="overlines-below"/><g class="xaxislayer-below"/><g class="yaxislayer-below"/><g class="overaxes-below"/><g class="plot" transform="translate(58,50)" clip-path="url(#clipc83621xyplot)"><g class="scatterlayer mlayer"><g class="trace scatter trace3e9370" style="stroke-miterlimit: 2; opacity: 1;"><g class="fills"/><g class="errorbars"/><g class="lines"><path class="js-line" d="M10.31,482.6L31.57,482.09L32.22,481.65L35.44,479.8L36.08,479.03L39.31,475.18L39.95,472.55L41.24,468.91L41.88,466.7L43.17,463.85L43.82,460.87L44.46,459.73L45.11,456.91L47.68,451.12L48.33,449.56L50.26,443.35L50.9,442L53.48,437.78L54.13,436.69L59.28,430.93L59.93,430.52L61.86,428.89L62.5,428.31L68.95,424.49L69.59,423.47L71.52,423.43L72.17,423.25L75.39,422.45L76.03,422.45L86.99,420.76L87.63,420.74L110.83,419.12L111.47,419.15L142.4,417.96L143.05,417.88L155.29,415.86L155.93,415.68L169.47,411.9L170.11,411.31L173.98,408.96L174.62,407.85L178.49,403.84L179.13,401.15L179.78,401.22L180.42,400.47L181.71,398.09L182.35,397.52L184.93,392.22L185.58,390.26L187.51,387.81L188.15,385.25L189.44,383.46L190.09,381.07L192.02,379.03L192.66,376.91L193.95,375.4L194.6,373.39L196.53,371.67L197.17,370.04L201.04,365.8L201.68,364.06L205.55,360L206.2,358.34L210.06,354.49L210.71,352.8L214.57,349.85L215.22,347.81L217.79,346.03L218.44,345.79L234.55,325.26L235.19,323.53L237.12,321.66L237.77,320.13L239.06,319.38L239.7,317.26L241.63,315.53L242.28,314.01L246.15,309.64L246.79,308.41L262.25,293.04L262.9,292.68L264.19,291.68L264.83,290.83L270.63,286.18L271.28,284.3L273.85,282.06L274.5,281.42L294.47,262.35L295.12,262.12L298.98,259.05L299.63,258.81L302.85,256.64L303.49,256.4L306.07,255.04L306.72,254.76L317.67,251.21L318.31,251.07L327.98,249.45L328.62,249.38L342.15,248.21L342.8,248.18L358.91,246.33L359.55,246.19L366.64,244.11L367.28,243.87L383.39,238.82L384.04,238.62L412.39,235.02L413.03,235.01L417.54,234.4L418.19,234.31L430.43,232.42L431.08,232.16L442.03,227.62L442.67,227.28L445.25,225.99L445.9,225.64L458.14,218.06L458.78,217.34L471.67,207.06L472.32,206.29L476.18,202.9L476.83,201.44L477.47,201.44L478.11,200.07L484.56,195.17L485.2,195.12L487.14,192.7L487.78,192.3L491,190.61L491.65,190.23L496.8,187.95L497.45,187.84L499.38,187.08L500.02,186.72L526.44,176.6L527.09,176.28L535.46,173.33L536.11,173.13L546.42,170.91L547.06,170.91L552.86,170.2L553.5,169.94L559.95,169L560.59,169L565.75,168.41L566.39,168.23L575.41,166.6L576.06,166.34L578.63,166.11L579.28,166.11L581.21,164.66L581.86,164.38L587.66,162.81L588.3,162.81L590.88,161.81L591.52,161.64L594.1,161.04L594.74,160.86L605.05,158.87L605.7,158.87L610.85,158.17L611.5,157.99L619.23,157.15L619.87,157.15L626.32,156.37L626.96,156.3L637.92,154.75L638.56,154.4L646.29,152.61L646.94,152.61L650.16,151.67L650.8,151.67L653.38,150.96L654.02,150.84L657.89,150.15L658.54,149.96L674,146.76" style="vector-effect: non-scaling-stroke; fill: none; stroke: rgb(8, 48, 107); stroke-opacity: 1; stroke-width: 2px; opacity: 1;"/></g><g class="points"/><g class="text"/></g><g class="trace scatter trace6930b1" style="stroke-miterlimit: 2; opacity: 1;"><g class="fills"/><g class="errorbars"/><g class="lines"><path class="js-line" d="M9.02,482.6L64.44,481.85L65.08,481.83L99.88,481.48L100.52,481.48L163.67,480.73L164.31,480.72L198.46,480L199.11,479.95L219.73,478.28L220.37,478.2L239.06,475.49L239.7,475.37L255.81,473.38L256.46,473.31L270.63,472.28L271.28,472.24L300.92,469.84L301.56,469.71L326.69,466L327.33,465.96L346.02,465.25L346.67,465.22L369.22,464.47L369.86,464.41L400.15,461.9L400.79,461.86L424.63,461.5L425.28,461.49L472.96,460.78L473.6,460.67L481.98,458.45L482.63,458.14L501.31,451.58L501.96,451.47L528.37,448.59L529.02,448.57L587.66,445.17L588.3,445.07L593.46,443.65L594.1,443.33L618.59,432.48L619.23,432.32L665.62,425.89L666.27,425.71L674,423.1" style="vector-effect: non-scaling-stroke; fill: none; stroke: rgb(8, 81, 156); stroke-opacity: 1; stroke-width: 2px; opacity: 1; stroke-dasharray: 9px, 9px;"/></g><g class="points"/><g class="text"/></g><g class="trace scatter trace42b450" style="stroke-miterlimit: 2; opacity: 1;"><g class="fills"/><g class="errorbars"/><g class="lines"><path class="js-line" d="M13.53,482.6L109.54,481.79L110.19,481.79L202.33,481.05L202.97,481.03L219.08,479.83L219.73,479.77L245.5,478.4L246.15,478.38L401.44,475.37L402.08,475.32L429.14,472.99L429.79,472.83L437.52,471.23L438.16,471.01L445.25,469.1L445.9,468.8L463.94,464.76L464.58,464.71L485.85,461.66L486.49,461.44L492.29,458.39L492.93,457.95L496.16,455.42L496.8,454.68L501.96,448.39L502.6,447.49L510.33,436L510.98,435.16L513.55,432.01L514.2,430.98L518.07,426.58L518.71,425.85L521.29,423.82L521.93,423.37L528.37,419.86L529.02,419.64L536.75,417.62L537.4,417.47L547.71,416.08L548.35,416.06L567.04,415.06L567.68,415.03L586.37,413.81L587.01,413.71L595.39,412.41L596.03,412.23L608.92,408.45L609.56,408.24L616.01,406.82L616.65,406.82L619.23,406L619.87,405.9L626.96,404.41L627.61,404.31L635.34,403.47L635.98,403.38L657.89,400.41L658.54,400.23L669.49,397.91L670.13,397.84L674,397" style="vector-effect: non-scaling-stroke; fill: none; stroke: rgb(33, 113, 181); stroke-opacity: 1; stroke-width: 2px; opacity: 1; stroke-dasharray: 3px, 3px;"/></g><g class="points"/><g class="text"/></g><g class="trace scatter trace4f72eb" style="stroke-miterlimit: 2; opacity: 1;"><g class="fills"/><g class="errorbars"/><g class="lines"><path class="js-line" d="M0,482.6L30.93,481.99L31.57,481.82L34.8,479.89L35.44,479.18L38.66,473.49L39.31,471.74L43.17,457.95L43.82,455.21L50.9,424.7L51.55,422.33L56.7,405.28L57.35,403.59L62.5,391.56L63.15,390.23L67.66,383.06L68.3,382.18L73.46,376.15L74.1,375.55L81.19,369.99L81.83,369.6L90.85,365.83L91.5,365.65L104.39,362.78L105.03,362.7L130.16,360.63L130.8,360.6L152.07,359.25L152.71,359.13L161.09,357.5L161.73,357.27L168.18,354.54L168.82,354.19L174.62,349.66L175.27,349.07L181.71,341.36L182.35,340.45L199.11,314.64L199.75,313.78L207.48,301.44L208.13,300.2L213.93,288.28L214.57,286.75L219.08,274.84L219.73,272.78L224.88,253.21L225.53,250.38L236.48,204.62L237.12,202.49L242.28,188.37L242.92,186.87L248.72,175.92L249.37,174.97L254.52,169.08L255.17,168.45L261.61,164.14L262.25,163.86L270.63,160.82L271.28,160.67L284.16,158.54L284.81,158.48L297.05,157.48L297.69,157.45L342.8,154.51L343.44,154.39L353.11,151.89L353.75,151.69L371.15,145.68L371.8,145.38L378.24,142.37L378.88,141.99L397.57,133.54L398.21,133.29L405.95,129.66L406.59,129.34L425.92,119.04L426.57,118.76L442.67,111.77L443.32,111.55L453.63,106.77L454.27,106.34L459.43,102.55L460.07,102.05L472.96,92.91L473.6,92.51L485.2,87.24L485.85,86.99L504.53,79.18L505.18,78.84L527.09,66.24L527.73,65.97L538.68,62.75L539.33,62.61L548.99,61.05L549.64,61L570.9,57.32L571.55,57.1L583.15,52.18L583.79,51.91L596.68,47.84L597.32,47.65L605.7,45.93L606.34,45.8L632.76,41.04L633.41,40.84L656.6,34.31L657.25,34.22L668.2,34.09L668.85,34.09L671.42,34.09L672.07,33.1L674,33.1" style="vector-effect: non-scaling-stroke; fill: none; stroke: rgb(66, 146, 198); stroke-opacity: 1; stroke-width: 2px; opacity: 1; stroke-dasharray: 9px, 3px, 3px, 3px;"/></g><g class="points"/><g class="text"/></g><g class="trace scatter trace198efa" style="stroke-miterlimit: 2; opacity: 1;"><g class="fills"/><g class="errorbars"/><g class="lines"><path class="js-line" d="M19.33,482.6L36.08,481.85L36.73,481.63L39.95,479.65L40.59,479L43.82,475.19L44.46,474.28L59.93,452.98L60.57,452.47L63.15,449.19L63.79,448.45L73.46,440.12L74.1,439.85L76.68,438.26L77.32,437.79L86.99,432.78L87.63,432.64L93.43,430.43L94.08,430.11L106.32,425.24L106.96,424.86L121.14,415.67L121.78,415.17L127.58,411.19L128.23,410.93L130.8,409.46L131.45,409L141.76,403.3L142.4,403.17L144.98,401.64L145.63,401.33L148.85,399.73L149.49,399.33L162.38,393.32L163.02,392.92L171.4,388.8L172.04,388.4L184.29,380.51L184.93,379.98L189.44,375.78L190.09,374.95L197.82,366.31L198.46,365.09L213.28,340.71L213.93,340.11L215.22,337.8L215.86,336.18L218.44,332.21L219.08,331.36L227.46,312.72L228.1,312.05L229.39,309.19L230.04,307.46L235.19,296.36L235.84,295.15L237.77,292.1L238.41,290.47L240.99,285.52L241.63,284.91L245.5,278.25L246.15,277.85L248.72,274.01L249.37,273.2L251.3,271.23L251.94,269.87L254.52,266.86L255.17,266.3L259.03,261.96L259.68,261.66L262.9,258.61L263.54,258.4L265.48,257.07L266.12,256.38L276.43,250.24L277.07,250.11L278.36,249.57L279.01,248.47L284.16,245.88L284.81,245.52L304.14,237.26L304.78,237.09L312.51,233.84L313.16,233.78L316.38,232.71L317.02,232.47L324.11,231.01L324.76,230.88L328.62,230.11L329.27,229.96L333.78,229.19L334.42,229.01L342.15,227.86L342.8,227.71L348.6,226.68L349.24,226.64L355.69,224.88L356.33,224.66L358.26,224.01L358.91,223.79L365.35,219.88L366,219.27L368.57,217.76L369.22,217.11L371.15,215.16L371.8,215.02L376.31,210.29L376.95,210.03L381.46,204.35L382.11,203.54L384.68,199.45L385.33,199.28L393.06,187.87L393.7,187.51L394.99,186.47L395.64,185.67L398.21,182.55L398.86,182.35L400.15,180.88L400.79,179.54L402.72,177.6L403.37,177.39L407.88,172.48L408.52,171.86L412.39,168.52L413.03,167.99L425.28,157.98L425.92,157.88L429.14,155.69L429.79,155.55L431.08,154.63L431.72,153.93L434.3,150.48L434.94,150.3L443.32,142.7L443.96,142.57L445.25,141.11L445.9,139.34L447.83,138.36L448.47,138.2L451.7,134.52L452.34,134.35L453.63,133.38L454.27,132.39L461.36,123.1L462.01,122.78L463.29,121.19L463.94,119.72L465.87,116.62L466.52,116.31L469.09,111.33L469.74,109.6L471.67,107.79L472.32,106.37L474.89,101.69L475.54,101.49L479.4,94.74L480.05,94.5L483.91,88.13L484.56,87.94L485.85,86.64L486.49,85.33L488.42,82.89L489.07,82.79L492.29,78.81L492.93,78.68L494.22,77.87L494.87,77.27L497.45,74.86L498.09,74.78L501.96,71.89L502.6,71.85L505.82,69.67L506.47,69.6L507.76,69.15L508.4,68.73L510.98,67.6L511.62,67.58L520,64.63L520.64,64.63L530.95,62.22L531.6,61.39L553.5,56.91L554.15,56.4L572.84,52.32L573.48,52.09L576.06,51.62L576.7,51.21L586.37,48.48L587.01,48.22L589.59,47.74L590.23,47.28L596.68,45.27L597.32,45.27L623.74,37.12L624.38,37.11L655.31,29.47L655.96,29.47L667.56,26.72L668.2,26.6L671.42,25.82L672.07,25.49L674,25.4" style="vector-effect: non-scaling-stroke; fill: none; stroke: rgb(107, 174, 214); stroke-opacity: 1; stroke-width: 2px; opacity: 1; stroke-dasharray: 15px, 15px;"/></g><g class="points"/><g class="text"/></g></g></g><g class="overplot"/><path class="xlines-above crisp" d="M0,0" style="fill: none;"/><path class="ylines-above crisp" d="M0,0" style="fill: none;"/><g class="overlines-above"/><g class="xaxislayer-above"><g class="xtick"><text text-anchor="middle" x="0" y="571" transform="translate(156.59,0)" style="font-family: 'Open Sans', verdana, arial, sans-serif; font-size: 12px; fill: rgb(68, 68, 68); fill-opacity: 1; white-space: pre; opacity: 1;">Jul 2020</text></g><g class="xtick"><text text-anchor="middle" x="0" y="571" style="font-family: 'Open Sans', verdana, arial, sans-serif; font-size: 12px; fill: rgb(68, 68, 68); fill-opacity: 1; white-space: pre; opacity: 1;" transform="translate(275.15,0)">Jan 2021</text></g><g class="xtick"><text text-anchor="middle" x="0" y="571" style="font-family: 'Open Sans', verdana, arial, sans-serif; font-size: 12px; fill: rgb(68, 68, 68); fill-opacity: 1; white-space: pre; opacity: 1;" transform="translate(391.78,0)">Jul 2021</text></g><g class="xtick"><text text-anchor="middle" x="0" y="571" style="font-family: 'Open Sans', verdana, arial, sans-serif; font-size: 12px; fill: rgb(68, 68, 68); fill-opacity: 1; white-space: pre; opacity: 1;" transform="translate(510.34,0)">Jan 2022</text></g><g class="xtick"><text text-anchor="middle" x="0" y="571" style="font-family: 'Open Sans', verdana, arial, sans-serif; font-size: 12px; fill: rgb(68, 68, 68); fill-opacity: 1; white-space: pre; opacity: 1;" transform="translate(626.97,0)">Jul 2022</text></g></g><g class="yaxislayer-above"><g class="ytick"><text text-anchor="end" x="57" y="4.199999999999999" transform="translate(0,532.6)" style="font-family: 'Open Sans', verdana, arial, sans-serif; font-size: 12px; fill: rgb(68, 68, 68); fill-opacity: 1; white-space: pre; opacity: 1;">0</text></g><g class="ytick"><text text-anchor="end" x="57" y="4.199999999999999" style="font-family: 'Open Sans', verdana, arial, sans-serif; font-size: 12px; fill: rgb(68, 68, 68); fill-opacity: 1; white-space: pre; opacity: 1;" transform="translate(0,461.29)">500</text></g><g class="ytick"><text text-anchor="end" x="57" y="4.199999999999999" style="font-family: 'Open Sans', verdana, arial, sans-serif; font-size: 12px; fill: rgb(68, 68, 68); fill-opacity: 1; white-space: pre; opacity: 1;" transform="translate(0,389.98)">1000</text></g><g class="ytick"><text text-anchor="end" x="57" y="4.199999999999999" style="font-family: 'Open Sans', verdana, arial, sans-serif; font-size: 12px; fill: rgb(68, 68, 68); fill-opacity: 1; white-space: pre; opacity: 1;" transform="translate(0,318.67)">1500</text></g><g class="ytick"><text text-anchor="end" x="57" y="4.199999999999999" style="font-family: 'Open Sans', verdana, arial, sans-serif; font-size: 12px; fill: rgb(68, 68, 68); fill-opacity: 1; white-space: pre; opacity: 1;" transform="translate(0,247.35)">2000</text></g><g class="ytick"><text text-anchor="end" x="57" y="4.199999999999999" style="font-family: 'Open Sans', verdana, arial, sans-serif; font-size: 12px; fill: rgb(68, 68, 68); fill-opacity: 1; white-space: pre; opacity: 1;" transform="translate(0,176.04000000000002)">2500</text></g><g class="ytick"><text text-anchor="end" x="57" y="4.199999999999999" style="font-family: 'Open Sans', verdana, arial, sans-serif; font-size: 12px; fill: rgb(68, 68, 68); fill-opacity: 1; white-space: pre; opacity: 1;" transform="translate(0,104.72999999999999)">3000</text></g></g><g class="overaxes-above"/></g></g><g class="polarlayer"/><g class="ternarylayer"/><g class="geolayer"/><g class="funnelarealayer"/><g class="pielayer"/><g class="iciclelayer"/><g class="treemaplayer"/><g class="sunburstlayer"/><g class="glimages"/><defs id="topdefs-c83621"><g class="clips"/><clipPath id="legendc83621"><rect width="142" height="105" x="0" y="0"/></clipPath></defs><g class="layer-above"><g class="imagelayer"/><g class="shapelayer"/></g><g class="infolayer"><g class="legend" pointer-events="all" transform="translate(745.48,50)"><rect class="bg" shape-rendering="crispEdges" width="142" height="105" x="0" y="0" style="stroke: rgb(68, 68, 68); stroke-opacity: 1; fill: rgb(255, 255, 255); fill-opacity: 1; stroke-width: 0px;"/><g class="scrollbox" transform="" clip-path="url(#legendc83621)"><g class="groups"><g class="traces" transform="translate(0,14.5)" style="opacity: 1;"><text class="legendtext" text-anchor="start" x="40" y="4.680000000000001" style="font-family: 'Open Sans', verdana, arial, sans-serif; font-size: 12px; fill: rgb(68, 68, 68); fill-opacity: 1; white-space: pre;">France</text><g class="layers" style="opacity: 1;"><g class="legendfill"/><g class="legendlines"><path class="js-line" d="M5,0h30" style="fill: none; stroke: rgb(8, 48, 107); stroke-opacity: 1; stroke-width: 2px;"/></g><g class="legendsymbols"><g class="legendpoints"/></g></g><rect class="legendtoggle" x="0" y="-9.5" width="136.34410095214844" height="19" style="fill: rgb(0, 0, 0); fill-opacity: 0;"/></g><g class="traces" transform="translate(0,33.5)" style="opacity: 1;"><text class="legendtext" text-anchor="start" x="40" y="4.680000000000001" style="font-family: 'Open Sans', verdana, arial, sans-serif; font-size: 12px; fill: rgb(68, 68, 68); fill-opacity: 1; white-space: pre;">Japan</text><g class="layers" style="opacity: 1;"><g class="legendfill"/><g class="legendlines"><path class="js-line" d="M5,0h30" style="fill: none; stroke: rgb(8, 81, 156); stroke-opacity: 1; stroke-dasharray: 9px, 9px; stroke-width: 2px;"/></g><g class="legendsymbols"><g class="legendpoints"/></g></g><rect class="legendtoggle" x="0" y="-9.5" width="136.34410095214844" height="19" style="fill: rgb(0, 0, 0); fill-opacity: 0;"/></g><g class="traces" transform="translate(0,52.5)" style="opacity: 1;"><text class="legendtext" text-anchor="start" x="40" y="4.680000000000001" style="font-family: 'Open Sans', verdana, arial, sans-serif; font-size: 12px; fill: rgb(68, 68, 68); fill-opacity: 1; white-space: pre;">South Korea</text><g class="layers" style="opacity: 1;"><g class="legendfill"/><g class="legendlines"><path class="js-line" d="M5,0h30" style="fill: none; stroke: rgb(33, 113, 181); stroke-opacity: 1; stroke-dasharray: 3px, 3px; stroke-width: 2px;"/></g><g class="legendsymbols"><g class="legendpoints"/></g></g><rect class="legendtoggle" x="0" y="-9.5" width="136.34410095214844" height="19" style="fill: rgb(0, 0, 0); fill-opacity: 0;"/></g><g class="traces" transform="translate(0,71.5)" style="opacity: 1;"><text class="legendtext" text-anchor="start" x="40" y="4.680000000000001" style="font-family: 'Open Sans', verdana, arial, sans-serif; font-size: 12px; fill: rgb(68, 68, 68); fill-opacity: 1; white-space: pre;">United Kingdom</text><g class="layers" style="opacity: 1;"><g class="legendfill"/><g class="legendlines"><path class="js-line" d="M5,0h30" style="fill: none; stroke: rgb(66, 146, 198); stroke-opacity: 1; stroke-dasharray: 9px, 3px, 3px, 3px; stroke-width: 2px;"/></g><g class="legendsymbols"><g class="legendpoints"/></g></g><rect class="legendtoggle" x="0" y="-9.5" width="136.34410095214844" height="19" style="fill: rgb(0, 0, 0); fill-opacity: 0;"/></g><g class="traces" transform="translate(0,90.5)" style="opacity: 1;"><text class="legendtext" text-anchor="start" x="40" y="4.680000000000001" style="font-family: 'Open Sans', verdana, arial, sans-serif; font-size: 12px; fill: rgb(68, 68, 68); fill-opacity: 1; white-space: pre;">United States</text><g class="layers" style="opacity: 1;"><g class="legendfill"/><g class="legendlines"><path class="js-line" d="M5,0h30" style="fill: none; stroke: rgb(107, 174, 214); stroke-opacity: 1; stroke-dasharray: 15px, 15px; stroke-width: 2px;"/></g><g class="legendsymbols"><g class="legendpoints"/></g></g><rect class="legendtoggle" x="0" y="-9.5" width="136.34410095214844" height="19" style="fill: rgb(0, 0, 0); fill-opacity: 0;"/></g></g></g><rect class="scrollbar" rx="20" ry="3" width="0" height="0" x="0" y="0" style="fill: rgb(128, 139, 164); fill-opacity: 1;"/></g><g class="g-gtitle"><text class="gtitle" x="450" y="25" text-anchor="middle" dy="0em" style="font-family: 'Open Sans', verdana, arial, sans-serif; font-size: 17px; fill: rgb(68, 68, 68); opacity: 1; font-weight: normal; white-space: pre;">코로나 19 사망자수 추세</text></g><g class="g-xtitle"/><g class="g-ytitle"><text class="ytitle" transform="rotate(-90,20,304)" x="20" y="304" text-anchor="middle" style="font-family: 'Open Sans', verdana, arial, sans-serif; font-size: 14px; fill: rgb(68, 68, 68); opacity: 1; font-weight: normal; white-space: pre;">10만명당 사망자수 누계</text></g></g></svg>