<svg class="main-svg" xmlns="http://www.w3.org/2000/svg" xmlns:xlink="http://www.w3.org/1999/xlink" width="900" height="600" style="" viewBox="0 0 900 600"><rect x="0" y="0" width="900" height="600" style="fill: rgb(255, 255, 255); fill-opacity: 1;"/><defs id="defs-188197"><g class="clips"><clipPath id="clip188197xyplot" class="plotclip"><rect width="840" height="493"/></clipPath><clipPath class="axesclip" id="clip188197x"><rect x="35" y="0" width="840" height="600"/></clipPath><clipPath class="axesclip" id="clip188197y"><rect x="0" y="50" width="900" height="493"/></clipPath><clipPath class="axesclip" id="clip188197xy"><rect x="35" y="50" width="840" height="493"/></clipPath></g><g class="gradients"/><g class="patterns"/></defs><g class="bglayer"/><g class="layer-below"><g class="imagelayer"/><g class="shapelayer"/></g><g class="cartesianlayer"><g class="subplot xy"><g class="layer-subplot"><g class="shapelayer"/><g class="imagelayer"/></g><g class="gridlayer"><g class="x"><path class="xgrid crisp" transform="translate(89.6,0)" d="M0,50v493" style="stroke: rgb(238, 238, 238); stroke-opacity: 1; stroke-width: 1px;"/><path class="xgrid crisp" transform="translate(207.2,0)" d="M0,50v493" style="stroke: rgb(238, 238, 238); stroke-opacity: 1; stroke-width: 1px;"/><path class="xgrid crisp" transform="translate(324.8,0)" d="M0,50v493" style="stroke: rgb(238, 238, 238); stroke-opacity: 1; stroke-width: 1px;"/><path class="xgrid crisp" transform="translate(442.4,0)" d="M0,50v493" style="stroke: rgb(238, 238, 238); stroke-opacity: 1; stroke-width: 1px;"/><path class="xgrid crisp" transform="translate(560,0)" d="M0,50v493" style="stroke: rgb(238, 238, 238); stroke-opacity: 1; stroke-width: 1px;"/><path class="xgrid crisp" transform="translate(677.6,0)" d="M0,50v493" style="stroke: rgb(238, 238, 238); stroke-opacity: 1; stroke-width: 1px;"/><path class="xgrid crisp" transform="translate(795.2,0)" d="M0,50v493" style="stroke: rgb(238, 238, 238); stroke-opacity: 1; stroke-width: 1px;"/></g><g class="y"><path class="ygrid crisp" transform="translate(0,510.57)" d="M35,0h840" style="stroke: rgb(238, 238, 238); stroke-opacity: 1; stroke-width: 1px;"/><path class="ygrid crisp" transform="translate(0,432.72)" d="M35,0h840" style="stroke: rgb(238, 238, 238); stroke-opacity: 1; stroke-width: 1px;"/><path class="ygrid crisp" transform="translate(0,354.88)" d="M35,0h840" style="stroke: rgb(238, 238, 238); stroke-opacity: 1; stroke-width: 1px;"/><path class="ygrid crisp" transform="translate(0,277.03999999999996)" d="M35,0h840" style="stroke: rgb(238, 238, 238); stroke-opacity: 1; stroke-width: 1px;"/><path class="ygrid crisp" transform="translate(0,199.2)" d="M35,0h840" style="stroke: rgb(238, 238, 238); stroke-opacity: 1; stroke-width: 1px;"/><path class="ygrid crisp" transform="translate(0,121.36)" d="M35,0h840" style="stroke: rgb(238, 238, 238); stroke-opacity: 1; stroke-width: 1px;"/></g></g><g class="zerolinelayer"/><path class="xlines-below"/><path class="ylines-below"/><g class="overlines-below"/><g class="xaxislayer-below"/><g class="yaxislayer-below"/><g class="overaxes-below"/><g class="plot" transform="translate(35,50)" clip-path="url(#clip188197xyplot)"><g class="boxlayer mlayer"><g class="trace boxes" style="opacity: 1;"><path class="box" d="M2.14,261.07H6.26M2.14,262.07H6.26V250.39H2.14ZM4.2,262.07V273.74M4.2,250.39V234.82" style="vector-effect: non-scaling-stroke; stroke-width: 2px; stroke: rgb(0, 0, 255); stroke-opacity: 1; fill: rgb(0, 0, 255); fill-opacity: 0.5; opacity: 1;"/><path class="box" d="M10.54,261.07H14.66M10.54,262.07H14.66V258.18H10.54ZM12.6,262.07V269.85M12.6,258.18V242.61" style="vector-effect: non-scaling-stroke; stroke-width: 2px; stroke: rgb(0, 0, 255); stroke-opacity: 1; fill: rgb(0, 0, 255); fill-opacity: 0.5; opacity: 1;"/><path class="box" d="M18.94,303.88H23.06M18.94,304.88H23.06V277.64H18.94ZM21,304.88V308.77M21,277.64V277.64" style="vector-effect: non-scaling-stroke; stroke-width: 2px; stroke: rgb(0, 0, 255); stroke-opacity: 1; fill: rgb(0, 0, 255); fill-opacity: 0.5; opacity: 1;"/><path class="box" d="M27.34,319.45H31.46M27.34,320.45H31.46V297.1H27.34ZM29.4,320.45V320.45M29.4,297.1V289.31" style="vector-effect: non-scaling-stroke; stroke-width: 2px; stroke: rgb(0, 0, 255); stroke-opacity: 1; fill: rgb(0, 0, 255); fill-opacity: 0.5; opacity: 1;"/><path class="box" d="M69.34,224.15H73.46M69.34,265.96H73.46V223.15H69.34ZM71.4,265.96V273.74M71.4,223.15V207.58" style="vector-effect: non-scaling-stroke; stroke-width: 2px; stroke: rgb(255, 0, 0); stroke-opacity: 1; fill: rgb(255, 0, 0); fill-opacity: 0.5; opacity: 1;"/><path class="box" d="M77.74,274.74H81.86M77.74,297.1H81.86V273.74H77.74ZM79.8,297.1V300.99M79.8,273.74V258.18" style="vector-effect: non-scaling-stroke; stroke-width: 2px; stroke: rgb(255, 0, 0); stroke-opacity: 1; fill: rgb(255, 0, 0); fill-opacity: 0.5; opacity: 1;"/><path class="box" d="M86.14,303.88H90.26M86.14,304.88H90.26V265.96H86.14ZM88.2,304.88V304.88M88.2,265.96V262.07" style="vector-effect: non-scaling-stroke; stroke-width: 2px; stroke: rgb(0, 0, 255); stroke-opacity: 1; fill: rgb(0, 0, 255); fill-opacity: 0.5; opacity: 1;"/><path class="box" d="M94.54,298.1H98.66M94.54,320.45H98.66V297.1H94.54ZM96.6,320.45V324.34M96.6,297.1V289.31" style="vector-effect: non-scaling-stroke; stroke-width: 2px; stroke: rgb(255, 0, 0); stroke-opacity: 1; fill: rgb(255, 0, 0); fill-opacity: 0.5; opacity: 1;"/><path class="box" d="M119.74,290.31H123.86M119.74,293.21H123.86V289.31H119.74ZM121.8,293.21V304.88M121.8,289.31V265.96" style="vector-effect: non-scaling-stroke; stroke-width: 2px; stroke: rgb(255, 0, 0); stroke-opacity: 1; fill: rgb(255, 0, 0); fill-opacity: 0.5; opacity: 1;"/><path class="box" d="M128.14,311.67H132.26M128.14,312.67H132.26V289.31H128.14ZM130.2,312.67V312.67M130.2,289.31V265.96" style="vector-effect: non-scaling-stroke; stroke-width: 2px; stroke: rgb(0, 0, 255); stroke-opacity: 1; fill: rgb(0, 0, 255); fill-opacity: 0.5; opacity: 1;"/><path class="box" d="M136.54,331.13H140.66M136.54,332.13H140.66V328.23H136.54ZM138.6,332.13V343.8M138.6,328.23V324.34" style="vector-effect: non-scaling-stroke; stroke-width: 2px; stroke: rgb(0, 0, 255); stroke-opacity: 1; fill: rgb(0, 0, 255); fill-opacity: 0.5; opacity: 1;"/><path class="box" d="M144.94,366.16H149.06M144.94,367.16H149.06V359.37H144.94ZM147,367.16V371.05M147,359.37V355.48" style="vector-effect: non-scaling-stroke; stroke-width: 2px; stroke: rgb(0, 0, 255); stroke-opacity: 1; fill: rgb(0, 0, 255); fill-opacity: 0.5; opacity: 1;"/><path class="box" d="M153.34,364.26H157.46M153.34,367.16H157.46V363.26H153.34ZM155.4,367.16V374.94M155.4,363.26V347.69" style="vector-effect: non-scaling-stroke; stroke-width: 2px; stroke: rgb(255, 0, 0); stroke-opacity: 1; fill: rgb(255, 0, 0); fill-opacity: 0.5; opacity: 1;"/><path class="box" d="M178.54,387.62H182.66M178.54,394.4H182.66V386.62H178.54ZM180.6,394.4V398.29M180.6,386.62V374.94" style="vector-effect: non-scaling-stroke; stroke-width: 2px; stroke: rgb(255, 0, 0); stroke-opacity: 1; fill: rgb(255, 0, 0); fill-opacity: 0.5; opacity: 1;"/><path class="box" d="M186.94,375.94H191.06M186.94,390.51H191.06V374.94H186.94ZM189,390.51V402.18M189,374.94V374.94" style="vector-effect: non-scaling-stroke; stroke-width: 2px; stroke: rgb(255, 0, 0); stroke-opacity: 1; fill: rgb(255, 0, 0); fill-opacity: 0.5; opacity: 1;"/><path class="box" d="M195.34,424.54H199.46M195.34,425.54H199.46V386.62H195.34ZM197.4,425.54V441.11M197.4,386.62V367.16" style="vector-effect: non-scaling-stroke; stroke-width: 2px; stroke: rgb(0, 0, 255); stroke-opacity: 1; fill: rgb(0, 0, 255); fill-opacity: 0.5; opacity: 1;"/><path class="box" d="M203.74,436.21H207.86M203.74,437.21H207.86V409.97H203.74ZM205.8,437.21V437.21M205.8,409.97V394.4" style="vector-effect: non-scaling-stroke; stroke-width: 2px; stroke: rgb(0, 0, 255); stroke-opacity: 1; fill: rgb(0, 0, 255); fill-opacity: 0.5; opacity: 1;"/><path class="box" d="M212.14,418.75H216.26M212.14,448.89H216.26V417.75H212.14ZM214.2,448.89V468.35M214.2,417.75V398.29" style="vector-effect: non-scaling-stroke; stroke-width: 2px; stroke: rgb(255, 0, 0); stroke-opacity: 1; fill: rgb(255, 0, 0); fill-opacity: 0.5; opacity: 1;"/><path class="box" d="M245.74,335.02H249.86M245.74,336.02H249.86V332.13H245.74ZM247.8,336.02V363.26M247.8,332.13V328.23" style="vector-effect: non-scaling-stroke; stroke-width: 2px; stroke: rgb(0, 0, 255); stroke-opacity: 1; fill: rgb(0, 0, 255); fill-opacity: 0.5; opacity: 1;"/><path class="box" d="M254.14,303.88H258.26M254.14,304.88H258.26V269.85H254.14ZM256.2,304.88V328.23M256.2,269.85V258.18" style="vector-effect: non-scaling-stroke; stroke-width: 2px; stroke: rgb(0, 0, 255); stroke-opacity: 1; fill: rgb(0, 0, 255); fill-opacity: 0.5; opacity: 1;"/><path class="box" d="M262.54,292.21H266.66M262.54,293.21H266.66V277.64H262.54ZM264.6,293.21V293.21M264.6,277.64V254.28" style="vector-effect: non-scaling-stroke; stroke-width: 2px; stroke: rgb(0, 0, 255); stroke-opacity: 1; fill: rgb(0, 0, 255); fill-opacity: 0.5; opacity: 1;"/><path class="box" d="M270.94,298.1H275.06M270.94,308.77H275.06V297.1H270.94ZM273,308.77V336.02M273,297.1V269.85" style="vector-effect: non-scaling-stroke; stroke-width: 2px; stroke: rgb(255, 0, 0); stroke-opacity: 1; fill: rgb(255, 0, 0); fill-opacity: 0.5; opacity: 1;"/><path class="box" d="M304.54,329.23H308.66M304.54,367.16H308.66V328.23H304.54ZM306.6,367.16V382.72M306.6,328.23V316.56" style="vector-effect: non-scaling-stroke; stroke-width: 2px; stroke: rgb(255, 0, 0); stroke-opacity: 1; fill: rgb(255, 0, 0); fill-opacity: 0.5; opacity: 1;"/><path class="box" d="M312.94,313.67H317.06M312.94,316.56H317.06V312.67H312.94ZM315,316.56V336.02M315,312.67V265.96" style="vector-effect: non-scaling-stroke; stroke-width: 2px; stroke: rgb(255, 0, 0); stroke-opacity: 1; fill: rgb(255, 0, 0); fill-opacity: 0.5; opacity: 1;"/><path class="box" d="M321.34,335.02H325.46M321.34,336.02H325.46V328.23H321.34ZM323.4,336.02V336.02M323.4,328.23V300.99" style="vector-effect: non-scaling-stroke; stroke-width: 2px; stroke: rgb(0, 0, 255); stroke-opacity: 1; fill: rgb(0, 0, 255); fill-opacity: 0.5; opacity: 1;"/><path class="box" d="M329.74,294.21H333.86M329.74,297.1H333.86V293.21H329.74ZM331.8,297.1V312.67M331.8,293.21V285.42" style="vector-effect: non-scaling-stroke; stroke-width: 2px; stroke: rgb(255, 0, 0); stroke-opacity: 1; fill: rgb(255, 0, 0); fill-opacity: 0.5; opacity: 1;"/><path class="box" d="M354.94,282.53H359.06M354.94,312.67H359.06V281.53H354.94ZM357,312.67V316.56M357,281.53V265.96" style="vector-effect: non-scaling-stroke; stroke-width: 2px; stroke: rgb(255, 0, 0); stroke-opacity: 1; fill: rgb(255, 0, 0); fill-opacity: 0.5; opacity: 1;"/><path class="box" d="M363.34,284.42H367.46M363.34,285.42H367.46V277.64H363.34ZM365.4,285.42V312.67M365.4,277.64V262.07" style="vector-effect: non-scaling-stroke; stroke-width: 2px; stroke: rgb(0, 0, 255); stroke-opacity: 1; fill: rgb(0, 0, 255); fill-opacity: 0.5; opacity: 1;"/><path class="box" d="M371.74,311.67H375.86M371.74,312.67H375.86V277.64H371.74ZM373.8,312.67V316.56M373.8,277.64V269.85" style="vector-effect: non-scaling-stroke; stroke-width: 2px; stroke: rgb(0, 0, 255); stroke-opacity: 1; fill: rgb(0, 0, 255); fill-opacity: 0.5; opacity: 1;"/><path class="box" d="M380.14,325.34H384.26M380.14,336.02H384.26V324.34H380.14ZM382.2,336.02V339.91M382.2,324.34V304.88" style="vector-effect: non-scaling-stroke; stroke-width: 2px; stroke: rgb(255, 0, 0); stroke-opacity: 1; fill: rgb(255, 0, 0); fill-opacity: 0.5; opacity: 1;"/><path class="box" d="M388.54,309.77H392.66M388.54,339.91H392.66V308.77H388.54ZM390.6,339.91V339.91M390.6,308.77V293.21" style="vector-effect: non-scaling-stroke; stroke-width: 2px; stroke: rgb(255, 0, 0); stroke-opacity: 1; fill: rgb(255, 0, 0); fill-opacity: 0.5; opacity: 1;"/><path class="box" d="M413.74,247.5H417.86M413.74,265.96H417.86V246.5H413.74ZM415.8,265.96V277.64M415.8,246.5V246.5" style="vector-effect: non-scaling-stroke; stroke-width: 2px; stroke: rgb(255, 0, 0); stroke-opacity: 1; fill: rgb(255, 0, 0); fill-opacity: 0.5; opacity: 1;"/><path class="box" d="M422.14,239.72H426.26M422.14,265.96H426.26V238.72H422.14ZM424.2,265.96V265.96M424.2,238.72V203.69" style="vector-effect: non-scaling-stroke; stroke-width: 2px; stroke: rgb(255, 0, 0); stroke-opacity: 1; fill: rgb(255, 0, 0); fill-opacity: 0.5; opacity: 1;"/><path class="box" d="M430.54,173.55H434.66M430.54,227.04H434.66V172.55H430.54ZM432.6,227.04V238.72M432.6,172.55V164.77" style="vector-effect: non-scaling-stroke; stroke-width: 2px; stroke: rgb(255, 0, 0); stroke-opacity: 1; fill: rgb(255, 0, 0); fill-opacity: 0.5; opacity: 1;"/><path class="box" d="M438.94,167.66H443.06M438.94,168.66H443.06V160.87H438.94ZM441,168.66V192.01M441,160.87V145.31" style="vector-effect: non-scaling-stroke; stroke-width: 2px; stroke: rgb(0, 0, 255); stroke-opacity: 1; fill: rgb(0, 0, 255); fill-opacity: 0.5; opacity: 1;"/><path class="box" d="M447.34,253.28H451.46M447.34,254.28H451.46V192.01H447.34ZM449.4,254.28V258.18M449.4,192.01V180.33" style="vector-effect: non-scaling-stroke; stroke-width: 2px; stroke: rgb(0, 0, 255); stroke-opacity: 1; fill: rgb(0, 0, 255); fill-opacity: 0.5; opacity: 1;"/><path class="box" d="M472.54,173.55H476.66M472.54,223.15H476.66V172.55H472.54ZM474.6,223.15V227.04M474.6,172.55V153.09" style="vector-effect: non-scaling-stroke; stroke-width: 2px; stroke: rgb(255, 0, 0); stroke-opacity: 1; fill: rgb(255, 0, 0); fill-opacity: 0.5; opacity: 1;"/><path class="box" d="M480.94,150.2H485.06M480.94,153.09H485.06V149.2H480.94ZM483,153.09V168.66M483,149.2V137.52" style="vector-effect: non-scaling-stroke; stroke-width: 2px; stroke: rgb(255, 0, 0); stroke-opacity: 1; fill: rgb(255, 0, 0); fill-opacity: 0.5; opacity: 1;"/><path class="box" d="M489.34,163.77H493.46M489.34,164.77H493.46V160.87H489.34ZM491.4,164.77V176.44M491.4,160.87V149.2" style="vector-effect: non-scaling-stroke; stroke-width: 2px; stroke: rgb(0, 0, 255); stroke-opacity: 1; fill: rgb(0, 0, 255); fill-opacity: 0.5; opacity: 1;"/><path class="box" d="M497.74,181.33H501.86M497.74,203.69H501.86V180.33H497.74ZM499.8,203.69V223.15M499.8,180.33V156.98" style="vector-effect: non-scaling-stroke; stroke-width: 2px; stroke: rgb(255, 0, 0); stroke-opacity: 1; fill: rgb(255, 0, 0); fill-opacity: 0.5; opacity: 1;"/><path class="box" d="M506.14,173.55H510.26M506.14,184.23H510.26V172.55H506.14ZM508.2,184.23V211.47M508.2,172.55V168.66" style="vector-effect: non-scaling-stroke; stroke-width: 2px; stroke: rgb(255, 0, 0); stroke-opacity: 1; fill: rgb(255, 0, 0); fill-opacity: 0.5; opacity: 1;"/><path class="box" d="M531.34,142.41H535.46M531.34,160.87H535.46V141.41H531.34ZM533.4,160.87V172.55M533.4,141.41V137.52" style="vector-effect: non-scaling-stroke; stroke-width: 2px; stroke: rgb(255, 0, 0); stroke-opacity: 1; fill: rgb(255, 0, 0); fill-opacity: 0.5; opacity: 1;"/><path class="box" d="M539.74,80.14H543.86M539.74,129.74H543.86V79.14H539.74ZM541.8,129.74V129.74M541.8,79.14V75.25" style="vector-effect: non-scaling-stroke; stroke-width: 2px; stroke: rgb(255, 0, 0); stroke-opacity: 1; fill: rgb(255, 0, 0); fill-opacity: 0.5; opacity: 1;"/><path class="box" d="M548.14,71.36H552.26M548.14,71.36H552.26V71.36H548.14ZM550.2,71.36V98.6M550.2,71.36V63.57" style="vector-effect: non-scaling-stroke; stroke-width: 2px; stroke: rgb(255, 0, 0); stroke-opacity: 1; fill: rgb(255, 0, 0); fill-opacity: 0.5; opacity: 1;"/><path class="box" d="M556.54,132.63H560.66M556.54,133.63H560.66V94.71H556.54ZM558.6,133.63V133.63M558.6,94.71V90.82" style="vector-effect: non-scaling-stroke; stroke-width: 2px; stroke: rgb(0, 0, 255); stroke-opacity: 1; fill: rgb(0, 0, 255); fill-opacity: 0.5; opacity: 1;"/><path class="box" d="M564.94,35.33H569.06M564.94,36.33H569.06V28.54H564.94ZM567,36.33V59.68M567,28.54V24.65" style="vector-effect: non-scaling-stroke; stroke-width: 2px; stroke: rgb(0, 0, 255); stroke-opacity: 1; fill: rgb(0, 0, 255); fill-opacity: 0.5; opacity: 1;"/><path class="box" d="M590.14,74.25H594.26M590.14,75.25H594.26V36.33H590.14ZM592.2,75.25V83.03M592.2,36.33V36.33" style="vector-effect: non-scaling-stroke; stroke-width: 2px; stroke: rgb(0, 0, 255); stroke-opacity: 1; fill: rgb(0, 0, 255); fill-opacity: 0.5; opacity: 1;"/><path class="box" d="M598.54,56.79H602.66M598.54,63.57H602.66V55.79H598.54ZM600.6,63.57V86.92M600.6,55.79V51.89" style="vector-effect: non-scaling-stroke; stroke-width: 2px; stroke: rgb(255, 0, 0); stroke-opacity: 1; fill: rgb(255, 0, 0); fill-opacity: 0.5; opacity: 1;"/><path class="box" d="M606.94,45.11H611.06M606.94,55.79H611.06V44.11H606.94ZM609,55.79V83.03M609,44.11V44.11" style="vector-effect: non-scaling-stroke; stroke-width: 2px; stroke: rgb(255, 0, 0); stroke-opacity: 1; fill: rgb(255, 0, 0); fill-opacity: 0.5; opacity: 1;"/><path class="box" d="M615.34,93.71H619.46M615.34,94.71H619.46V71.36H615.34ZM617.4,94.71V98.6M617.4,71.36V71.36" style="vector-effect: non-scaling-stroke; stroke-width: 2px; stroke: rgb(0, 0, 255); stroke-opacity: 1; fill: rgb(0, 0, 255); fill-opacity: 0.5; opacity: 1;"/><path class="box" d="M623.74,79.14H627.86M623.74,79.14H627.86V79.14H623.74ZM625.8,79.14V94.71M625.8,79.14V55.79" style="vector-effect: non-scaling-stroke; stroke-width: 2px; stroke: rgb(255, 0, 0); stroke-opacity: 1; fill: rgb(255, 0, 0); fill-opacity: 0.5; opacity: 1;"/><path class="box" d="M648.94,94.71H653.06M648.94,94.71H653.06V94.71H648.94ZM651,94.71V118.06M651,94.71V79.14" style="vector-effect: non-scaling-stroke; stroke-width: 2px; stroke: rgb(0, 0, 255); stroke-opacity: 1; fill: rgb(0, 0, 255); fill-opacity: 0.5; opacity: 1;"/><path class="box" d="M657.34,124.84H661.46M657.34,125.84H661.46V114.17H657.34ZM659.4,125.84V137.52M659.4,114.17V102.49" style="vector-effect: non-scaling-stroke; stroke-width: 2px; stroke: rgb(0, 0, 255); stroke-opacity: 1; fill: rgb(0, 0, 255); fill-opacity: 0.5; opacity: 1;"/><path class="box" d="M665.74,109.28H669.86M665.74,110.28H669.86V102.49H665.74ZM667.8,110.28V121.95M667.8,102.49V98.6" style="vector-effect: non-scaling-stroke; stroke-width: 2px; stroke: rgb(0, 0, 255); stroke-opacity: 1; fill: rgb(0, 0, 255); fill-opacity: 0.5; opacity: 1;"/><path class="box" d="M674.14,95.71H678.26M674.14,102.49H678.26V94.71H674.14ZM676.2,102.49V114.17M676.2,94.71V83.03" style="vector-effect: non-scaling-stroke; stroke-width: 2px; stroke: rgb(255, 0, 0); stroke-opacity: 1; fill: rgb(255, 0, 0); fill-opacity: 0.5; opacity: 1;"/><path class="box" d="M682.54,109.28H686.66M682.54,110.28H686.66V94.71H682.54ZM684.6,110.28V118.06M684.6,94.71V83.03" style="vector-effect: non-scaling-stroke; stroke-width: 2px; stroke: rgb(0, 0, 255); stroke-opacity: 1; fill: rgb(0, 0, 255); fill-opacity: 0.5; opacity: 1;"/><path class="box" d="M707.74,144.31H711.86M707.74,145.31H711.86V129.74H707.74ZM709.8,145.31V156.98M709.8,129.74V129.74" style="vector-effect: non-scaling-stroke; stroke-width: 2px; stroke: rgb(0, 0, 255); stroke-opacity: 1; fill: rgb(0, 0, 255); fill-opacity: 0.5; opacity: 1;"/><path class="box" d="M716.14,126.84H720.26M716.14,153.09H720.26V125.84H716.14ZM718.2,153.09V156.98M718.2,125.84V125.84" style="vector-effect: non-scaling-stroke; stroke-width: 2px; stroke: rgb(255, 0, 0); stroke-opacity: 1; fill: rgb(255, 0, 0); fill-opacity: 0.5; opacity: 1;"/><path class="box" d="M724.54,64.57H728.66M724.54,133.63H728.66V63.57H724.54ZM726.6,133.63V141.41M726.6,63.57V63.57" style="vector-effect: non-scaling-stroke; stroke-width: 2px; stroke: rgb(255, 0, 0); stroke-opacity: 1; fill: rgb(255, 0, 0); fill-opacity: 0.5; opacity: 1;"/><path class="box" d="M732.94,47H737.06M732.94,48H737.06V28.54H732.94ZM735,48V59.68M735,28.54V24.65" style="vector-effect: non-scaling-stroke; stroke-width: 2px; stroke: rgb(0, 0, 255); stroke-opacity: 1; fill: rgb(0, 0, 255); fill-opacity: 0.5; opacity: 1;"/><path class="box" d="M741.34,132.63H745.46M741.34,133.63H745.46V51.89H741.34ZM743.4,133.63V133.63M743.4,51.89V51.89" style="vector-effect: non-scaling-stroke; stroke-width: 2px; stroke: rgb(0, 0, 255); stroke-opacity: 1; fill: rgb(0, 0, 255); fill-opacity: 0.5; opacity: 1;"/><path class="box" d="M766.54,136.52H770.66M766.54,137.52H770.66V114.17H766.54ZM768.6,137.52V149.2M768.6,114.17V106.38" style="vector-effect: non-scaling-stroke; stroke-width: 2px; stroke: rgb(0, 0, 255); stroke-opacity: 1; fill: rgb(0, 0, 255); fill-opacity: 0.5; opacity: 1;"/><path class="box" d="M774.94,179.33H779.06M774.94,180.33H779.06V156.98H774.94ZM777,180.33V180.33M777,156.98V145.31" style="vector-effect: non-scaling-stroke; stroke-width: 2px; stroke: rgb(0, 0, 255); stroke-opacity: 1; fill: rgb(0, 0, 255); fill-opacity: 0.5; opacity: 1;"/><path class="box" d="M783.34,193.01H787.46M783.34,195.9H787.46V192.01H783.34ZM785.4,195.9V207.58M785.4,192.01V164.77" style="vector-effect: non-scaling-stroke; stroke-width: 2px; stroke: rgb(255, 0, 0); stroke-opacity: 1; fill: rgb(255, 0, 0); fill-opacity: 0.5; opacity: 1;"/><path class="box" d="M791.74,181.33H795.86M791.74,199.79H795.86V180.33H791.74ZM793.8,199.79V203.69M793.8,180.33V180.33" style="vector-effect: non-scaling-stroke; stroke-width: 2px; stroke: rgb(255, 0, 0); stroke-opacity: 1; fill: rgb(255, 0, 0); fill-opacity: 0.5; opacity: 1;"/><path class="box" d="M800.14,134.63H804.26M800.14,176.44H804.26V133.63H800.14ZM802.2,176.44V176.44M802.2,133.63V125.84" style="vector-effect: non-scaling-stroke; stroke-width: 2px; stroke: rgb(255, 0, 0); stroke-opacity: 1; fill: rgb(255, 0, 0); fill-opacity: 0.5; opacity: 1;"/><path class="box" d="M825.34,167.66H829.46M825.34,168.66H829.46V153.09H825.34ZM827.4,168.66V172.55M827.4,153.09V149.2" style="vector-effect: non-scaling-stroke; stroke-width: 2px; stroke: rgb(0, 0, 255); stroke-opacity: 1; fill: rgb(0, 0, 255); fill-opacity: 0.5; opacity: 1;"/><path class="box" d="M833.74,161.87H837.86M833.74,164.77H837.86V160.87H833.74ZM835.8,164.77V172.55M835.8,160.87V137.52" style="vector-effect: non-scaling-stroke; stroke-width: 2px; stroke: rgb(255, 0, 0); stroke-opacity: 1; fill: rgb(255, 0, 0); fill-opacity: 0.5; opacity: 1;"/></g></g></g><g class="overplot"/><path class="xlines-above crisp" d="M0,0" style="fill: none;"/><path class="ylines-above crisp" d="M0,0" style="fill: none;"/><g class="overlines-above"/><g class="xaxislayer-above"><g class="xtick"><text text-anchor="middle" x="0" y="556" transform="translate(89.6,0)" style="font-family: 'Open Sans', verdana, arial, sans-serif; font-size: 12px; fill: rgb(68, 68, 68); fill-opacity: 1; white-space: pre; opacity: 1;"><tspan class="line" dy="0em" x="0" y="556">Sep 11</tspan><tspan class="line" dy="1.3em" x="0" y="556">2022</tspan></text></g><g class="xtick"><text text-anchor="middle" x="0" y="556" style="font-family: 'Open Sans', verdana, arial, sans-serif; font-size: 12px; fill: rgb(68, 68, 68); fill-opacity: 1; white-space: pre; opacity: 1;" transform="translate(207.2,0)">Sep 25</text></g><g class="xtick"><text text-anchor="middle" x="0" y="556" style="font-family: 'Open Sans', verdana, arial, sans-serif; font-size: 12px; fill: rgb(68, 68, 68); fill-opacity: 1; white-space: pre; opacity: 1;" transform="translate(324.8,0)">Oct 9</text></g><g class="xtick"><text text-anchor="middle" x="0" y="556" style="font-family: 'Open Sans', verdana, arial, sans-serif; font-size: 12px; fill: rgb(68, 68, 68); fill-opacity: 1; white-space: pre; opacity: 1;" transform="translate(442.4,0)">Oct 23</text></g><g class="xtick"><text text-anchor="middle" x="0" y="556" style="font-family: 'Open Sans', verdana, arial, sans-serif; font-size: 12px; fill: rgb(68, 68, 68); fill-opacity: 1; white-space: pre; opacity: 1;" transform="translate(560,0)">Nov 6</text></g><g class="xtick"><text text-anchor="middle" x="0" y="556" style="font-family: 'Open Sans', verdana, arial, sans-serif; font-size: 12px; fill: rgb(68, 68, 68); fill-opacity: 1; white-space: pre; opacity: 1;" transform="translate(677.6,0)">Nov 20</text></g><g class="xtick"><text text-anchor="middle" x="0" y="556" style="font-family: 'Open Sans', verdana, arial, sans-serif; font-size: 12px; fill: rgb(68, 68, 68); fill-opacity: 1; white-space: pre; opacity: 1;" transform="translate(795.2,0)">Dec 4</text></g></g><g class="yaxislayer-above"><g class="ytick"><text text-anchor="end" x="34" y="4.199999999999999" transform="translate(0,510.57)" style="font-family: 'Open Sans', verdana, arial, sans-serif; font-size: 12px; fill: rgb(68, 68, 68); fill-opacity: 1; white-space: pre; opacity: 1;">52k</text></g><g class="ytick"><text text-anchor="end" x="34" y="4.199999999999999" style="font-family: 'Open Sans', verdana, arial, sans-serif; font-size: 12px; fill: rgb(68, 68, 68); fill-opacity: 1; white-space: pre; opacity: 1;" transform="translate(0,432.72)">54k</text></g><g class="ytick"><text text-anchor="end" x="34" y="4.199999999999999" style="font-family: 'Open Sans', verdana, arial, sans-serif; font-size: 12px; fill: rgb(68, 68, 68); fill-opacity: 1; white-space: pre; opacity: 1;" transform="translate(0,354.88)">56k</text></g><g class="ytick"><text text-anchor="end" x="34" y="4.199999999999999" style="font-family: 'Open Sans', verdana, arial, sans-serif; font-size: 12px; fill: rgb(68, 68, 68); fill-opacity: 1; white-space: pre; opacity: 1;" transform="translate(0,277.03999999999996)">58k</text></g><g class="ytick"><text text-anchor="end" x="34" y="4.199999999999999" style="font-family: 'Open Sans', verdana, arial, sans-serif; font-size: 12px; fill: rgb(68, 68, 68); fill-opacity: 1; white-space: pre; opacity: 1;" transform="translate(0,199.2)">60k</text></g><g class="ytick"><text text-anchor="end" x="34" y="4.199999999999999" style="font-family: 'Open Sans', verdana, arial, sans-serif; font-size: 12px; fill: rgb(68, 68, 68); fill-opacity: 1; white-space: pre; opacity: 1;" transform="translate(0,121.36)">62k</text></g></g><g class="overaxes-above"/></g></g><g class="polarlayer"/><g class="ternarylayer"/><g class="geolayer"/><g class="funnelarealayer"/><g class="pielayer"/><g class="iciclelayer"/><g class="treemaplayer"/><g class="sunburstlayer"/><g class="glimages"/><defs id="topdefs-188197"><g class="clips"/></defs><g class="layer-above"><g class="imagelayer"/><g class="shapelayer"/></g><g class="infolayer"><g class="g-gtitle"><text class="gtitle" x="450" y="25" text-anchor="middle" dy="0em" style="font-family: 'Open Sans', verdana, arial, sans-serif; font-size: 17px; fill: rgb(68, 68, 68); opacity: 1; font-weight: normal; white-space: pre;">삼성전자 Candlestick Chart</text></g><g class="g-xtitle"><text class="xtitle" x="455" y="595" text-anchor="middle" style="font-family: 'Open Sans', verdana, arial, sans-serif; font-size: 14px; fill: rgb(68, 68, 68); opacity: 1; font-weight: normal; white-space: pre;">date</text></g><g class="g-ytitle"/></g></svg>