<svg class="main-svg" xmlns="http://www.w3.org/2000/svg" xmlns:xlink="http://www.w3.org/1999/xlink" width="900" height="600" style="" viewBox="0 0 900 600"><rect x="0" y="0" width="900" height="600" style="fill: rgb(255, 255, 255); fill-opacity: 1;"/><defs id="defs-b5300d"><g class="clips"><clipPath id="clipb5300dxyplot" class="plotclip"><rect width="837" height="352.91999999999996"/></clipPath><clipPath id="clipb5300dxy2plot" class="plotclip"><rect width="837" height="93.42"/></clipPath><clipPath class="axesclip" id="clipb5300dx"><rect x="38" y="0" width="837" height="600"/></clipPath><clipPath class="axesclip" id="clipb5300dy"><rect x="0" y="75.95000000000002" width="900" height="352.91999999999996"/></clipPath><clipPath class="axesclip" id="clipb5300dxy"><rect x="38" y="75.95000000000002" width="837" height="352.91999999999996"/></clipPath><clipPath class="axesclip" id="clipb5300dy2"><rect x="0" y="449.63" width="900" height="93.42"/></clipPath><clipPath class="axesclip" id="clipb5300dxy2"><rect x="38" y="449.63" width="837" height="93.42"/></clipPath></g><g class="gradients"/><g class="patterns"/></defs><g class="bglayer"/><g class="layer-below"><g class="imagelayer"/><g class="shapelayer"/></g><g class="cartesianlayer"><g class="subplot xy"><g class="layer-subplot"><g class="shapelayer"/><g class="imagelayer"/></g><g class="gridlayer"><g class="x"/><g class="y"><path class="ygrid crisp" transform="translate(0,405.65)" d="M38,0h837" style="stroke: rgb(238, 238, 238); stroke-opacity: 1; stroke-width: 1px;"/><path class="ygrid crisp" transform="translate(0,349.93000000000006)" d="M38,0h837" style="stroke: rgb(238, 238, 238); stroke-opacity: 1; stroke-width: 1px;"/><path class="ygrid crisp" transform="translate(0,294.20000000000005)" d="M38,0h837" style="stroke: rgb(238, 238, 238); stroke-opacity: 1; stroke-width: 1px;"/><path class="ygrid crisp" transform="translate(0,238.48000000000002)" d="M38,0h837" style="stroke: rgb(238, 238, 238); stroke-opacity: 1; stroke-width: 1px;"/><path class="ygrid crisp" transform="translate(0,182.75)" d="M38,0h837" style="stroke: rgb(238, 238, 238); stroke-opacity: 1; stroke-width: 1px;"/><path class="ygrid crisp" transform="translate(0,127.03000000000002)" d="M38,0h837" style="stroke: rgb(238, 238, 238); stroke-opacity: 1; stroke-width: 1px;"/></g></g><g class="zerolinelayer"/><path class="xlines-below"/><path class="ylines-below"/><g class="overlines-below"/><g class="xaxislayer-below"/><g class="yaxislayer-below"/><g class="overaxes-below"/><g class="plot" transform="translate(38,75.95000000000002)" clip-path="url(#clipb5300dxyplot)"><g class="boxlayer mlayer"><g class="trace boxes" style="opacity: 1;"><path class="box" d="M2.13,186.6H6.24M2.13,187.6H6.24V179.25H2.13ZM4.18,187.6V195.96M4.18,179.25V168.1" style="vector-effect: non-scaling-stroke; stroke-width: 2px; stroke: rgb(0, 0, 255); stroke-opacity: 1; fill: rgb(0, 0, 255); fill-opacity: 0.5; opacity: 1;"/><path class="box" d="M10.5,186.6H14.61M10.5,187.6H14.61V184.82H10.5ZM12.55,187.6V193.18M12.55,184.82V173.67" style="vector-effect: non-scaling-stroke; stroke-width: 2px; stroke: rgb(0, 0, 255); stroke-opacity: 1; fill: rgb(0, 0, 255); fill-opacity: 0.5; opacity: 1;"/><path class="box" d="M18.87,217.25H22.98M18.87,218.25H22.98V198.75H18.87ZM20.93,218.25V221.04M20.93,198.75V198.75" style="vector-effect: non-scaling-stroke; stroke-width: 2px; stroke: rgb(0, 0, 255); stroke-opacity: 1; fill: rgb(0, 0, 255); fill-opacity: 0.5; opacity: 1;"/><path class="box" d="M27.24,228.4H31.35M27.24,229.4H31.35V212.68H27.24ZM29.3,229.4V229.4M29.3,212.68V207.11" style="vector-effect: non-scaling-stroke; stroke-width: 2px; stroke: rgb(0, 0, 255); stroke-opacity: 1; fill: rgb(0, 0, 255); fill-opacity: 0.5; opacity: 1;"/><path class="box" d="M69.09,160.74H73.2M69.09,190.39H73.2V159.74H69.09ZM71.15,190.39V195.96M71.15,159.74V148.6" style="vector-effect: non-scaling-stroke; stroke-width: 2px; stroke: rgb(255, 0, 0); stroke-opacity: 1; fill: rgb(255, 0, 0); fill-opacity: 0.5; opacity: 1;"/><path class="box" d="M77.46,196.96H81.57M77.46,212.68H81.57V195.96H77.46ZM79.52,212.68V215.47M79.52,195.96V184.82" style="vector-effect: non-scaling-stroke; stroke-width: 2px; stroke: rgb(255, 0, 0); stroke-opacity: 1; fill: rgb(255, 0, 0); fill-opacity: 0.5; opacity: 1;"/><path class="box" d="M85.83,217.25H89.94M85.83,218.25H89.94V190.39H85.83ZM87.89,218.25V218.25M87.89,190.39V187.6" style="vector-effect: non-scaling-stroke; stroke-width: 2px; stroke: rgb(0, 0, 255); stroke-opacity: 1; fill: rgb(0, 0, 255); fill-opacity: 0.5; opacity: 1;"/><path class="box" d="M94.2,213.68H98.31M94.2,229.4H98.31V212.68H94.2ZM96.26,229.4V232.18M96.26,212.68V207.11" style="vector-effect: non-scaling-stroke; stroke-width: 2px; stroke: rgb(255, 0, 0); stroke-opacity: 1; fill: rgb(255, 0, 0); fill-opacity: 0.5; opacity: 1;"/><path class="box" d="M119.31,208.11H123.42M119.31,209.89H123.42V207.11H119.31ZM121.37,209.89V218.25M121.37,207.11V190.39" style="vector-effect: non-scaling-stroke; stroke-width: 2px; stroke: rgb(255, 0, 0); stroke-opacity: 1; fill: rgb(255, 0, 0); fill-opacity: 0.5; opacity: 1;"/><path class="box" d="M127.68,222.83H131.79M127.68,223.83H131.79V207.11H127.68ZM129.74,223.83V223.83M129.74,207.11V190.39" style="vector-effect: non-scaling-stroke; stroke-width: 2px; stroke: rgb(0, 0, 255); stroke-opacity: 1; fill: rgb(0, 0, 255); fill-opacity: 0.5; opacity: 1;"/><path class="box" d="M136.05,236.76H140.16M136.05,237.76H140.16V234.97H136.05ZM138.11,237.76V246.12M138.11,234.97V232.18" style="vector-effect: non-scaling-stroke; stroke-width: 2px; stroke: rgb(0, 0, 255); stroke-opacity: 1; fill: rgb(0, 0, 255); fill-opacity: 0.5; opacity: 1;"/><path class="box" d="M144.42,261.83H148.53M144.42,262.83H148.53V257.26H144.42ZM146.48,262.83V265.62M146.48,257.26V254.47" style="vector-effect: non-scaling-stroke; stroke-width: 2px; stroke: rgb(0, 0, 255); stroke-opacity: 1; fill: rgb(0, 0, 255); fill-opacity: 0.5; opacity: 1;"/><path class="box" d="M152.79,261.05H156.9M152.79,262.83H156.9V260.05H152.79ZM154.85,262.83V268.4M154.85,260.05V248.9" style="vector-effect: non-scaling-stroke; stroke-width: 2px; stroke: rgb(255, 0, 0); stroke-opacity: 1; fill: rgb(255, 0, 0); fill-opacity: 0.5; opacity: 1;"/><path class="box" d="M177.9,277.76H182.01M177.9,282.34H182.01V276.76H177.9ZM179.96,282.34V285.12M179.96,276.76V268.4" style="vector-effect: non-scaling-stroke; stroke-width: 2px; stroke: rgb(255, 0, 0); stroke-opacity: 1; fill: rgb(255, 0, 0); fill-opacity: 0.5; opacity: 1;"/><path class="box" d="M186.27,269.4H190.38M186.27,279.55H190.38V268.4H186.27ZM188.33,279.55V287.91M188.33,268.4V268.4" style="vector-effect: non-scaling-stroke; stroke-width: 2px; stroke: rgb(255, 0, 0); stroke-opacity: 1; fill: rgb(255, 0, 0); fill-opacity: 0.5; opacity: 1;"/><path class="box" d="M194.64,303.63H198.75M194.64,304.63H198.75V276.76H194.64ZM196.7,304.63V315.77M196.7,276.76V262.83" style="vector-effect: non-scaling-stroke; stroke-width: 2px; stroke: rgb(0, 0, 255); stroke-opacity: 1; fill: rgb(0, 0, 255); fill-opacity: 0.5; opacity: 1;"/><path class="box" d="M203.01,311.98H207.12M203.01,312.98H207.12V293.48H203.01ZM205.07,312.98V312.98M205.07,293.48V282.34" style="vector-effect: non-scaling-stroke; stroke-width: 2px; stroke: rgb(0, 0, 255); stroke-opacity: 1; fill: rgb(0, 0, 255); fill-opacity: 0.5; opacity: 1;"/><path class="box" d="M211.38,300.05H215.49M211.38,321.34H215.49V299.05H211.38ZM213.43,321.34V335.27M213.43,299.05V285.12" style="vector-effect: non-scaling-stroke; stroke-width: 2px; stroke: rgb(255, 0, 0); stroke-opacity: 1; fill: rgb(255, 0, 0); fill-opacity: 0.5; opacity: 1;"/><path class="box" d="M244.86,239.54H248.97M244.86,240.54H248.97V237.76H244.86ZM246.92,240.54V260.05M246.92,237.76V234.97" style="vector-effect: non-scaling-stroke; stroke-width: 2px; stroke: rgb(0, 0, 255); stroke-opacity: 1; fill: rgb(0, 0, 255); fill-opacity: 0.5; opacity: 1;"/><path class="box" d="M253.23,217.25H257.34M253.23,218.25H257.34V193.18H253.23ZM255.29,218.25V234.97M255.29,193.18V184.82" style="vector-effect: non-scaling-stroke; stroke-width: 2px; stroke: rgb(0, 0, 255); stroke-opacity: 1; fill: rgb(0, 0, 255); fill-opacity: 0.5; opacity: 1;"/><path class="box" d="M261.6,208.89H265.71M261.6,209.89H265.71V198.75H261.6ZM263.65,209.89V209.89M263.65,198.75V182.03" style="vector-effect: non-scaling-stroke; stroke-width: 2px; stroke: rgb(0, 0, 255); stroke-opacity: 1; fill: rgb(0, 0, 255); fill-opacity: 0.5; opacity: 1;"/><path class="box" d="M269.97,213.68H274.08M269.97,221.04H274.08V212.68H269.97ZM272.02,221.04V240.54M272.02,212.68V193.18" style="vector-effect: non-scaling-stroke; stroke-width: 2px; stroke: rgb(255, 0, 0); stroke-opacity: 1; fill: rgb(255, 0, 0); fill-opacity: 0.5; opacity: 1;"/><path class="box" d="M303.45,235.97H307.56M303.45,262.83H307.56V234.97H303.45ZM305.51,262.83V273.98M305.51,234.97V226.61" style="vector-effect: non-scaling-stroke; stroke-width: 2px; stroke: rgb(255, 0, 0); stroke-opacity: 1; fill: rgb(255, 0, 0); fill-opacity: 0.5; opacity: 1;"/><path class="box" d="M311.82,224.83H315.93M311.82,226.61H315.93V223.83H311.82ZM313.88,226.61V240.54M313.88,223.83V190.39" style="vector-effect: non-scaling-stroke; stroke-width: 2px; stroke: rgb(255, 0, 0); stroke-opacity: 1; fill: rgb(255, 0, 0); fill-opacity: 0.5; opacity: 1;"/><path class="box" d="M320.19,239.54H324.3M320.19,240.54H324.3V234.97H320.19ZM322.24,240.54V240.54M322.24,234.97V215.47" style="vector-effect: non-scaling-stroke; stroke-width: 2px; stroke: rgb(0, 0, 255); stroke-opacity: 1; fill: rgb(0, 0, 255); fill-opacity: 0.5; opacity: 1;"/><path class="box" d="M328.56,210.89H332.67M328.56,212.68H332.67V209.89H328.56ZM330.62,212.68V223.83M330.62,209.89V204.32" style="vector-effect: non-scaling-stroke; stroke-width: 2px; stroke: rgb(255, 0, 0); stroke-opacity: 1; fill: rgb(255, 0, 0); fill-opacity: 0.5; opacity: 1;"/><path class="box" d="M353.67,202.54H357.78M353.67,223.83H357.78V201.54H353.67ZM355.73,223.83V226.61M355.73,201.54V190.39" style="vector-effect: non-scaling-stroke; stroke-width: 2px; stroke: rgb(255, 0, 0); stroke-opacity: 1; fill: rgb(255, 0, 0); fill-opacity: 0.5; opacity: 1;"/><path class="box" d="M362.04,203.32H366.15M362.04,204.32H366.15V198.75H362.04ZM364.1,204.32V223.83M364.1,198.75V187.6" style="vector-effect: non-scaling-stroke; stroke-width: 2px; stroke: rgb(0, 0, 255); stroke-opacity: 1; fill: rgb(0, 0, 255); fill-opacity: 0.5; opacity: 1;"/><path class="box" d="M370.41,222.83H374.52M370.41,223.83H374.52V198.75H370.41ZM372.46,223.83V226.61M372.46,198.75V193.18" style="vector-effect: non-scaling-stroke; stroke-width: 2px; stroke: rgb(0, 0, 255); stroke-opacity: 1; fill: rgb(0, 0, 255); fill-opacity: 0.5; opacity: 1;"/><path class="box" d="M378.78,233.18H382.89M378.78,240.54H382.89V232.18H378.78ZM380.84,240.54V243.33M380.84,232.18V218.25" style="vector-effect: non-scaling-stroke; stroke-width: 2px; stroke: rgb(255, 0, 0); stroke-opacity: 1; fill: rgb(255, 0, 0); fill-opacity: 0.5; opacity: 1;"/><path class="box" d="M387.15,222.04H391.26M387.15,243.33H391.26V221.04H387.15ZM389.21,243.33V243.33M389.21,221.04V209.89" style="vector-effect: non-scaling-stroke; stroke-width: 2px; stroke: rgb(255, 0, 0); stroke-opacity: 1; fill: rgb(255, 0, 0); fill-opacity: 0.5; opacity: 1;"/><path class="box" d="M412.26,177.46H416.37M412.26,190.39H416.37V176.46H412.26ZM414.32,190.39V198.75M414.32,176.46V176.46" style="vector-effect: non-scaling-stroke; stroke-width: 2px; stroke: rgb(255, 0, 0); stroke-opacity: 1; fill: rgb(255, 0, 0); fill-opacity: 0.5; opacity: 1;"/><path class="box" d="M420.63,171.89H424.74M420.63,190.39H424.74V170.89H420.63ZM422.68,190.39V190.39M422.68,170.89V145.81" style="vector-effect: non-scaling-stroke; stroke-width: 2px; stroke: rgb(255, 0, 0); stroke-opacity: 1; fill: rgb(255, 0, 0); fill-opacity: 0.5; opacity: 1;"/><path class="box" d="M429,124.52H433.11M429,162.53H433.11V123.52H429ZM431.05,162.53V170.89M431.05,123.52V117.95" style="vector-effect: non-scaling-stroke; stroke-width: 2px; stroke: rgb(255, 0, 0); stroke-opacity: 1; fill: rgb(255, 0, 0); fill-opacity: 0.5; opacity: 1;"/><path class="box" d="M437.37,119.74H441.48M437.37,120.74H441.48V115.16H437.37ZM439.43,120.74V137.45M439.43,115.16V104.02" style="vector-effect: non-scaling-stroke; stroke-width: 2px; stroke: rgb(0, 0, 255); stroke-opacity: 1; fill: rgb(0, 0, 255); fill-opacity: 0.5; opacity: 1;"/><path class="box" d="M445.74,181.03H449.85M445.74,182.03H449.85V137.45H445.74ZM447.8,182.03V184.82M447.8,137.45V129.09" style="vector-effect: non-scaling-stroke; stroke-width: 2px; stroke: rgb(0, 0, 255); stroke-opacity: 1; fill: rgb(0, 0, 255); fill-opacity: 0.5; opacity: 1;"/><path class="box" d="M470.85,124.52H474.96M470.85,159.74H474.96V123.52H470.85ZM472.9,159.74V162.53M472.9,123.52V109.59" style="vector-effect: non-scaling-stroke; stroke-width: 2px; stroke: rgb(255, 0, 0); stroke-opacity: 1; fill: rgb(255, 0, 0); fill-opacity: 0.5; opacity: 1;"/><path class="box" d="M479.22,107.8H483.33M479.22,109.59H483.33V106.8H479.22ZM481.27,109.59V120.74M481.27,106.8V98.45" style="vector-effect: non-scaling-stroke; stroke-width: 2px; stroke: rgb(255, 0, 0); stroke-opacity: 1; fill: rgb(255, 0, 0); fill-opacity: 0.5; opacity: 1;"/><path class="box" d="M487.59,116.95H491.7M487.59,117.95H491.7V115.16H487.59ZM489.65,117.95V126.31M489.65,115.16V106.8" style="vector-effect: non-scaling-stroke; stroke-width: 2px; stroke: rgb(0, 0, 255); stroke-opacity: 1; fill: rgb(0, 0, 255); fill-opacity: 0.5; opacity: 1;"/><path class="box" d="M495.96,130.09H500.07M495.96,145.81H500.07V129.09H495.96ZM498.02,145.81V159.74M498.02,129.09V112.38" style="vector-effect: non-scaling-stroke; stroke-width: 2px; stroke: rgb(255, 0, 0); stroke-opacity: 1; fill: rgb(255, 0, 0); fill-opacity: 0.5; opacity: 1;"/><path class="box" d="M504.33,124.52H508.44M504.33,131.88H508.44V123.52H504.33ZM506.39,131.88V151.38M506.39,123.52V120.74" style="vector-effect: non-scaling-stroke; stroke-width: 2px; stroke: rgb(255, 0, 0); stroke-opacity: 1; fill: rgb(255, 0, 0); fill-opacity: 0.5; opacity: 1;"/><path class="box" d="M529.44,102.23H533.55M529.44,115.16H533.55V101.23H529.44ZM531.49,115.16V123.52M531.49,101.23V98.45" style="vector-effect: non-scaling-stroke; stroke-width: 2px; stroke: rgb(255, 0, 0); stroke-opacity: 1; fill: rgb(255, 0, 0); fill-opacity: 0.5; opacity: 1;"/><path class="box" d="M537.81,57.65H541.92M537.81,92.87H541.92V56.65H537.81ZM539.87,92.87V92.87M539.87,56.65V53.87" style="vector-effect: non-scaling-stroke; stroke-width: 2px; stroke: rgb(255, 0, 0); stroke-opacity: 1; fill: rgb(255, 0, 0); fill-opacity: 0.5; opacity: 1;"/><path class="box" d="M546.18,51.08H550.29M546.18,51.08H550.29V51.08H546.18ZM548.24,51.08V70.58M548.24,51.08V45.51" style="vector-effect: non-scaling-stroke; stroke-width: 2px; stroke: rgb(255, 0, 0); stroke-opacity: 1; fill: rgb(255, 0, 0); fill-opacity: 0.5; opacity: 1;"/><path class="box" d="M554.55,94.66H558.66M554.55,95.66H558.66V67.8H554.55ZM556.61,95.66V95.66M556.61,67.8V65.01" style="vector-effect: non-scaling-stroke; stroke-width: 2px; stroke: rgb(0, 0, 255); stroke-opacity: 1; fill: rgb(0, 0, 255); fill-opacity: 0.5; opacity: 1;"/><path class="box" d="M562.92,25H567.03M562.92,26H567.03V20.43H562.92ZM564.98,26V42.72M564.98,20.43V17.65" style="vector-effect: non-scaling-stroke; stroke-width: 2px; stroke: rgb(0, 0, 255); stroke-opacity: 1; fill: rgb(0, 0, 255); fill-opacity: 0.5; opacity: 1;"/><path class="box" d="M588.03,52.87H592.14M588.03,53.87H592.14V26H588.03ZM590.09,53.87V59.44M590.09,26V26" style="vector-effect: non-scaling-stroke; stroke-width: 2px; stroke: rgb(0, 0, 255); stroke-opacity: 1; fill: rgb(0, 0, 255); fill-opacity: 0.5; opacity: 1;"/><path class="box" d="M596.4,40.94H600.51M596.4,45.51H600.51V39.94H596.4ZM598.46,45.51V62.23M598.46,39.94V37.15" style="vector-effect: non-scaling-stroke; stroke-width: 2px; stroke: rgb(255, 0, 0); stroke-opacity: 1; fill: rgb(255, 0, 0); fill-opacity: 0.5; opacity: 1;"/><path class="box" d="M604.77,32.58H608.88M604.77,39.94H608.88V31.58H604.77ZM606.83,39.94V59.44M606.83,31.58V31.58" style="vector-effect: non-scaling-stroke; stroke-width: 2px; stroke: rgb(255, 0, 0); stroke-opacity: 1; fill: rgb(255, 0, 0); fill-opacity: 0.5; opacity: 1;"/><path class="box" d="M613.14,66.8H617.25M613.14,67.8H617.25V51.08H613.14ZM615.2,67.8V70.58M615.2,51.08V51.08" style="vector-effect: non-scaling-stroke; stroke-width: 2px; stroke: rgb(0, 0, 255); stroke-opacity: 1; fill: rgb(0, 0, 255); fill-opacity: 0.5; opacity: 1;"/><path class="box" d="M621.51,56.65H625.62M621.51,56.65H625.62V56.65H621.51ZM623.57,56.65V67.8M623.57,56.65V39.94" style="vector-effect: non-scaling-stroke; stroke-width: 2px; stroke: rgb(255, 0, 0); stroke-opacity: 1; fill: rgb(255, 0, 0); fill-opacity: 0.5; opacity: 1;"/><path class="box" d="M646.62,67.8H650.73M646.62,67.8H650.73V67.8H646.62ZM648.68,67.8V84.52M648.68,67.8V56.65" style="vector-effect: non-scaling-stroke; stroke-width: 2px; stroke: rgb(0, 0, 255); stroke-opacity: 1; fill: rgb(0, 0, 255); fill-opacity: 0.5; opacity: 1;"/><path class="box" d="M654.99,89.09H659.1M654.99,90.09H659.1V81.73H654.99ZM657.05,90.09V98.45M657.05,81.73V73.37" style="vector-effect: non-scaling-stroke; stroke-width: 2px; stroke: rgb(0, 0, 255); stroke-opacity: 1; fill: rgb(0, 0, 255); fill-opacity: 0.5; opacity: 1;"/><path class="box" d="M663.36,77.94H667.47M663.36,78.94H667.47V73.37H663.36ZM665.42,78.94V87.3M665.42,73.37V70.58" style="vector-effect: non-scaling-stroke; stroke-width: 2px; stroke: rgb(0, 0, 255); stroke-opacity: 1; fill: rgb(0, 0, 255); fill-opacity: 0.5; opacity: 1;"/><path class="box" d="M671.73,68.8H675.84M671.73,73.37H675.84V67.8H671.73ZM673.79,73.37V81.73M673.79,67.8V59.44" style="vector-effect: non-scaling-stroke; stroke-width: 2px; stroke: rgb(255, 0, 0); stroke-opacity: 1; fill: rgb(255, 0, 0); fill-opacity: 0.5; opacity: 1;"/><path class="box" d="M680.1,77.94H684.21M680.1,78.94H684.21V67.8H680.1ZM682.15,78.94V84.52M682.15,67.8V59.44" style="vector-effect: non-scaling-stroke; stroke-width: 2px; stroke: rgb(0, 0, 255); stroke-opacity: 1; fill: rgb(0, 0, 255); fill-opacity: 0.5; opacity: 1;"/><path class="box" d="M705.21,103.02H709.32M705.21,104.02H709.32V92.87H705.21ZM707.27,104.02V112.38M707.27,92.87V92.87" style="vector-effect: non-scaling-stroke; stroke-width: 2px; stroke: rgb(0, 0, 255); stroke-opacity: 1; fill: rgb(0, 0, 255); fill-opacity: 0.5; opacity: 1;"/><path class="box" d="M713.58,91.09H717.69M713.58,109.59H717.69V90.09H713.58ZM715.64,109.59V112.38M715.64,90.09V90.09" style="vector-effect: non-scaling-stroke; stroke-width: 2px; stroke: rgb(255, 0, 0); stroke-opacity: 1; fill: rgb(255, 0, 0); fill-opacity: 0.5; opacity: 1;"/><path class="box" d="M721.95,46.51H726.06M721.95,95.66H726.06V45.51H721.95ZM724.01,95.66V101.23M724.01,45.51V45.51" style="vector-effect: non-scaling-stroke; stroke-width: 2px; stroke: rgb(255, 0, 0); stroke-opacity: 1; fill: rgb(255, 0, 0); fill-opacity: 0.5; opacity: 1;"/><path class="box" d="M730.32,33.36H734.43M730.32,34.36H734.43V20.43H730.32ZM732.38,34.36V42.72M732.38,20.43V17.65" style="vector-effect: non-scaling-stroke; stroke-width: 2px; stroke: rgb(0, 0, 255); stroke-opacity: 1; fill: rgb(0, 0, 255); fill-opacity: 0.5; opacity: 1;"/><path class="box" d="M738.69,94.66H742.8M738.69,95.66H742.8V37.15H738.69ZM740.74,95.66V95.66M740.74,37.15V37.15" style="vector-effect: non-scaling-stroke; stroke-width: 2px; stroke: rgb(0, 0, 255); stroke-opacity: 1; fill: rgb(0, 0, 255); fill-opacity: 0.5; opacity: 1;"/><path class="box" d="M763.8,97.45H767.91M763.8,98.45H767.91V81.73H763.8ZM765.86,98.45V106.8M765.86,81.73V76.16" style="vector-effect: non-scaling-stroke; stroke-width: 2px; stroke: rgb(0, 0, 255); stroke-opacity: 1; fill: rgb(0, 0, 255); fill-opacity: 0.5; opacity: 1;"/><path class="box" d="M772.17,128.09H776.28M772.17,129.09H776.28V112.38H772.17ZM774.23,129.09V129.09M774.23,112.38V104.02" style="vector-effect: non-scaling-stroke; stroke-width: 2px; stroke: rgb(0, 0, 255); stroke-opacity: 1; fill: rgb(0, 0, 255); fill-opacity: 0.5; opacity: 1;"/><path class="box" d="M780.54,138.45H784.65M780.54,140.24H784.65V137.45H780.54ZM782.6,140.24V148.6M782.6,137.45V117.95" style="vector-effect: non-scaling-stroke; stroke-width: 2px; stroke: rgb(255, 0, 0); stroke-opacity: 1; fill: rgb(255, 0, 0); fill-opacity: 0.5; opacity: 1;"/><path class="box" d="M788.91,130.09H793.02M788.91,143.03H793.02V129.09H788.91ZM790.96,143.03V145.81M790.96,129.09V129.09" style="vector-effect: non-scaling-stroke; stroke-width: 2px; stroke: rgb(255, 0, 0); stroke-opacity: 1; fill: rgb(255, 0, 0); fill-opacity: 0.5; opacity: 1;"/><path class="box" d="M797.28,96.66H801.39M797.28,126.31H801.39V95.66H797.28ZM799.34,126.31V126.31M799.34,95.66V90.09" style="vector-effect: non-scaling-stroke; stroke-width: 2px; stroke: rgb(255, 0, 0); stroke-opacity: 1; fill: rgb(255, 0, 0); fill-opacity: 0.5; opacity: 1;"/><path class="box" d="M822.39,119.74H826.5M822.39,120.74H826.5V109.59H822.39ZM824.45,120.74V123.52M824.45,109.59V106.8" style="vector-effect: non-scaling-stroke; stroke-width: 2px; stroke: rgb(0, 0, 255); stroke-opacity: 1; fill: rgb(0, 0, 255); fill-opacity: 0.5; opacity: 1;"/><path class="box" d="M830.76,116.16H834.87M830.76,117.95H834.87V115.16H830.76ZM832.82,117.95V123.52M832.82,115.16V98.45" style="vector-effect: non-scaling-stroke; stroke-width: 2px; stroke: rgb(255, 0, 0); stroke-opacity: 1; fill: rgb(255, 0, 0); fill-opacity: 0.5; opacity: 1;"/></g></g></g><g class="overplot"/><path class="xlines-above crisp" d="M0,0" style="fill: none;"/><path class="ylines-above crisp" d="M0,0" style="fill: none;"/><g class="overlines-above"/><g class="xaxislayer-above"/><g class="yaxislayer-above"><g class="ytick"><text text-anchor="end" x="37" y="4.199999999999999" transform="translate(0,405.65)" style="font-family: 'Open Sans', verdana, arial, sans-serif; font-size: 12px; fill: rgb(68, 68, 68); fill-opacity: 1; white-space: pre; opacity: 1;">52k</text></g><g class="ytick"><text text-anchor="end" x="37" y="4.199999999999999" style="font-family: 'Open Sans', verdana, arial, sans-serif; font-size: 12px; fill: rgb(68, 68, 68); fill-opacity: 1; white-space: pre; opacity: 1;" transform="translate(0,349.93000000000006)">54k</text></g><g class="ytick"><text text-anchor="end" x="37" y="4.199999999999999" style="font-family: 'Open Sans', verdana, arial, sans-serif; font-size: 12px; fill: rgb(68, 68, 68); fill-opacity: 1; white-space: pre; opacity: 1;" transform="translate(0,294.20000000000005)">56k</text></g><g class="ytick"><text text-anchor="end" x="37" y="4.199999999999999" style="font-family: 'Open Sans', verdana, arial, sans-serif; font-size: 12px; fill: rgb(68, 68, 68); fill-opacity: 1; white-space: pre; opacity: 1;" transform="translate(0,238.48000000000002)">58k</text></g><g class="ytick"><text text-anchor="end" x="37" y="4.199999999999999" style="font-family: 'Open Sans', verdana, arial, sans-serif; font-size: 12px; fill: rgb(68, 68, 68); fill-opacity: 1; white-space: pre; opacity: 1;" transform="translate(0,182.75)">60k</text></g><g class="ytick"><text text-anchor="end" x="37" y="4.199999999999999" style="font-family: 'Open Sans', verdana, arial, sans-serif; font-size: 12px; fill: rgb(68, 68, 68); fill-opacity: 1; white-space: pre; opacity: 1;" transform="translate(0,127.03000000000002)">62k</text></g></g><g class="overaxes-above"/></g><g class="subplot xy2"><g class="layer-subplot"><g class="shapelayer"/><g class="imagelayer"/></g><g class="gridlayer"><g class="x"/><g class="y2"><path class="y2grid crisp" transform="translate(0,523.33)" d="M38,0h837" style="stroke: rgb(238, 238, 238); stroke-opacity: 1; stroke-width: 1px;"/><path class="y2grid crisp" transform="translate(0,503.61)" d="M38,0h837" style="stroke: rgb(238, 238, 238); stroke-opacity: 1; stroke-width: 1px;"/><path class="y2grid crisp" transform="translate(0,483.89)" d="M38,0h837" style="stroke: rgb(238, 238, 238); stroke-opacity: 1; stroke-width: 1px;"/><path class="y2grid crisp" transform="translate(0,464.17)" d="M38,0h837" style="stroke: rgb(238, 238, 238); stroke-opacity: 1; stroke-width: 1px;"/></g></g><g class="zerolinelayer"><path class="y2zl zl crisp" transform="translate(0,543.05)" d="M38,0h837" style="stroke: rgb(68, 68, 68); stroke-opacity: 1; stroke-width: 1px;"/></g><path class="xlines-below"/><path class="ylines-below"/><g class="overlines-below"/><g class="xaxislayer-below"/><g class="yaxislayer-below"/><g class="overaxes-below"/><g class="plot" transform="translate(38,449.63)" clip-path="url(#clipb5300dxy2plot)"><g class="barlayer mlayer"><g class="trace bars" style="opacity: 1;"><g class="points"><g class="point"><path d="M0.84,93.42V48.36H7.53V93.42Z" style="vector-effect: non-scaling-stroke; opacity: 1; stroke-width: 0px; fill: rgb(190, 190, 190); fill-opacity: 1;"/></g><g class="point"><path d="M9.21,93.42V63.83H15.9V93.42Z" style="vector-effect: non-scaling-stroke; opacity: 1; stroke-width: 0px; fill: rgb(190, 190, 190); fill-opacity: 1;"/></g><g class="point"><path d="M17.58,93.42V24.86H24.27V93.42Z" style="vector-effect: non-scaling-stroke; opacity: 1; stroke-width: 0px; fill: rgb(190, 190, 190); fill-opacity: 1;"/></g><g class="point"><path d="M25.95,93.42V22.43H32.64V93.42Z" style="vector-effect: non-scaling-stroke; opacity: 1; stroke-width: 0px; fill: rgb(190, 190, 190); fill-opacity: 1;"/></g><g class="point"><path d="M67.8,93.42V25.72H74.49V93.42Z" style="vector-effect: non-scaling-stroke; opacity: 1; stroke-width: 0px; fill: rgb(190, 190, 190); fill-opacity: 1;"/></g><g class="point"><path d="M76.17,93.42V44.02H82.86V93.42Z" style="vector-effect: non-scaling-stroke; opacity: 1; stroke-width: 0px; fill: rgb(190, 190, 190); fill-opacity: 1;"/></g><g class="point"><path d="M84.54,93.42V47.42H91.23V93.42Z" style="vector-effect: non-scaling-stroke; opacity: 1; stroke-width: 0px; fill: rgb(190, 190, 190); fill-opacity: 1;"/></g><g class="point"><path d="M92.91,93.42V40.35H99.6V93.42Z" style="vector-effect: non-scaling-stroke; opacity: 1; stroke-width: 0px; fill: rgb(190, 190, 190); fill-opacity: 1;"/></g><g class="point"><path d="M118.02,93.42V45H124.71V93.42Z" style="vector-effect: non-scaling-stroke; opacity: 1; stroke-width: 0px; fill: rgb(190, 190, 190); fill-opacity: 1;"/></g><g class="point"><path d="M126.39,93.42V38.04H133.08V93.42Z" style="vector-effect: non-scaling-stroke; opacity: 1; stroke-width: 0px; fill: rgb(190, 190, 190); fill-opacity: 1;"/></g><g class="point"><path d="M134.76,93.42V46.63H141.45V93.42Z" style="vector-effect: non-scaling-stroke; opacity: 1; stroke-width: 0px; fill: rgb(190, 190, 190); fill-opacity: 1;"/></g><g class="point"><path d="M143.13,93.42V42.99H149.82V93.42Z" style="vector-effect: non-scaling-stroke; opacity: 1; stroke-width: 0px; fill: rgb(190, 190, 190); fill-opacity: 1;"/></g><g class="point"><path d="M151.5,93.42V51.79H158.19V93.42Z" style="vector-effect: non-scaling-stroke; opacity: 1; stroke-width: 0px; fill: rgb(190, 190, 190); fill-opacity: 1;"/></g><g class="point"><path d="M176.61,93.42V34.23H183.3V93.42Z" style="vector-effect: non-scaling-stroke; opacity: 1; stroke-width: 0px; fill: rgb(190, 190, 190); fill-opacity: 1;"/></g><g class="point"><path d="M184.98,93.42V27.83H191.67V93.42Z" style="vector-effect: non-scaling-stroke; opacity: 1; stroke-width: 0px; fill: rgb(190, 190, 190); fill-opacity: 1;"/></g><g class="point"><path d="M193.35,93.42V14.58H200.04V93.42Z" style="vector-effect: non-scaling-stroke; opacity: 1; stroke-width: 0px; fill: rgb(190, 190, 190); fill-opacity: 1;"/></g><g class="point"><path d="M201.72,93.42V38.67H208.41V93.42Z" style="vector-effect: non-scaling-stroke; opacity: 1; stroke-width: 0px; fill: rgb(190, 190, 190); fill-opacity: 1;"/></g><g class="point"><path d="M210.09,93.42V4.67H216.78V93.42Z" style="vector-effect: non-scaling-stroke; opacity: 1; stroke-width: 0px; fill: rgb(190, 190, 190); fill-opacity: 1;"/></g><g class="point"><path d="M243.57,93.42V17.9H250.26V93.42Z" style="vector-effect: non-scaling-stroke; opacity: 1; stroke-width: 0px; fill: rgb(190, 190, 190); fill-opacity: 1;"/></g><g class="point"><path d="M251.94,93.42V4.85H258.63V93.42Z" style="vector-effect: non-scaling-stroke; opacity: 1; stroke-width: 0px; fill: rgb(190, 190, 190); fill-opacity: 1;"/></g><g class="point"><path d="M260.31,93.42V34.48H267V93.42Z" style="vector-effect: non-scaling-stroke; opacity: 1; stroke-width: 0px; fill: rgb(190, 190, 190); fill-opacity: 1;"/></g><g class="point"><path d="M268.68,93.42V26.82H275.37V93.42Z" style="vector-effect: non-scaling-stroke; opacity: 1; stroke-width: 0px; fill: rgb(190, 190, 190); fill-opacity: 1;"/></g><g class="point"><path d="M302.16,93.42V8.87H308.85V93.42Z" style="vector-effect: non-scaling-stroke; opacity: 1; stroke-width: 0px; fill: rgb(190, 190, 190); fill-opacity: 1;"/></g><g class="point"><path d="M310.53,93.42V20.82H317.22V93.42Z" style="vector-effect: non-scaling-stroke; opacity: 1; stroke-width: 0px; fill: rgb(190, 190, 190); fill-opacity: 1;"/></g><g class="point"><path d="M318.9,93.42V39.06H325.59V93.42Z" style="vector-effect: non-scaling-stroke; opacity: 1; stroke-width: 0px; fill: rgb(190, 190, 190); fill-opacity: 1;"/></g><g class="point"><path d="M327.27,93.42V42.45H333.96V93.42Z" style="vector-effect: non-scaling-stroke; opacity: 1; stroke-width: 0px; fill: rgb(190, 190, 190); fill-opacity: 1;"/></g><g class="point"><path d="M352.38,93.42V39.62H359.07V93.42Z" style="vector-effect: non-scaling-stroke; opacity: 1; stroke-width: 0px; fill: rgb(190, 190, 190); fill-opacity: 1;"/></g><g class="point"><path d="M360.75,93.42V34.97H367.44V93.42Z" style="vector-effect: non-scaling-stroke; opacity: 1; stroke-width: 0px; fill: rgb(190, 190, 190); fill-opacity: 1;"/></g><g class="point"><path d="M369.12,93.42V43.49H375.81V93.42Z" style="vector-effect: non-scaling-stroke; opacity: 1; stroke-width: 0px; fill: rgb(190, 190, 190); fill-opacity: 1;"/></g><g class="point"><path d="M377.49,93.42V25.95H384.18V93.42Z" style="vector-effect: non-scaling-stroke; opacity: 1; stroke-width: 0px; fill: rgb(190, 190, 190); fill-opacity: 1;"/></g><g class="point"><path d="M385.86,93.42V48.24H392.55V93.42Z" style="vector-effect: non-scaling-stroke; opacity: 1; stroke-width: 0px; fill: rgb(190, 190, 190); fill-opacity: 1;"/></g><g class="point"><path d="M410.97,93.42V26.59H417.66V93.42Z" style="vector-effect: non-scaling-stroke; opacity: 1; stroke-width: 0px; fill: rgb(190, 190, 190); fill-opacity: 1;"/></g><g class="point"><path d="M419.34,93.42V24.77H426.03V93.42Z" style="vector-effect: non-scaling-stroke; opacity: 1; stroke-width: 0px; fill: rgb(190, 190, 190); fill-opacity: 1;"/></g><g class="point"><path d="M427.71,93.42V11.29H434.4V93.42Z" style="vector-effect: non-scaling-stroke; opacity: 1; stroke-width: 0px; fill: rgb(190, 190, 190); fill-opacity: 1;"/></g><g class="point"><path d="M436.08,93.42V7.62H442.77V93.42Z" style="vector-effect: non-scaling-stroke; opacity: 1; stroke-width: 0px; fill: rgb(190, 190, 190); fill-opacity: 1;"/></g><g class="point"><path d="M444.45,93.42V10.9H451.14V93.42Z" style="vector-effect: non-scaling-stroke; opacity: 1; stroke-width: 0px; fill: rgb(190, 190, 190); fill-opacity: 1;"/></g><g class="point"><path d="M469.56,93.42V18.49H476.25V93.42Z" style="vector-effect: non-scaling-stroke; opacity: 1; stroke-width: 0px; fill: rgb(190, 190, 190); fill-opacity: 1;"/></g><g class="point"><path d="M477.93,93.42V25.58H484.62V93.42Z" style="vector-effect: non-scaling-stroke; opacity: 1; stroke-width: 0px; fill: rgb(190, 190, 190); fill-opacity: 1;"/></g><g class="point"><path d="M486.3,93.42V41.35H492.99V93.42Z" style="vector-effect: non-scaling-stroke; opacity: 1; stroke-width: 0px; fill: rgb(190, 190, 190); fill-opacity: 1;"/></g><g class="point"><path d="M494.67,93.42V24.43H501.36V93.42Z" style="vector-effect: non-scaling-stroke; opacity: 1; stroke-width: 0px; fill: rgb(190, 190, 190); fill-opacity: 1;"/></g><g class="point"><path d="M503.04,93.42V44.34H509.73V93.42Z" style="vector-effect: non-scaling-stroke; opacity: 1; stroke-width: 0px; fill: rgb(190, 190, 190); fill-opacity: 1;"/></g><g class="point"><path d="M528.15,93.42V44.37H534.84V93.42Z" style="vector-effect: non-scaling-stroke; opacity: 1; stroke-width: 0px; fill: rgb(190, 190, 190); fill-opacity: 1;"/></g><g class="point"><path d="M536.52,93.42V21.35H543.21V93.42Z" style="vector-effect: non-scaling-stroke; opacity: 1; stroke-width: 0px; fill: rgb(190, 190, 190); fill-opacity: 1;"/></g><g class="point"><path d="M544.89,93.42V38.03H551.58V93.42Z" style="vector-effect: non-scaling-stroke; opacity: 1; stroke-width: 0px; fill: rgb(190, 190, 190); fill-opacity: 1;"/></g><g class="point"><path d="M553.26,93.42V10.25H559.95V93.42Z" style="vector-effect: non-scaling-stroke; opacity: 1; stroke-width: 0px; fill: rgb(190, 190, 190); fill-opacity: 1;"/></g><g class="point"><path d="M561.63,93.42V14.4H568.32V93.42Z" style="vector-effect: non-scaling-stroke; opacity: 1; stroke-width: 0px; fill: rgb(190, 190, 190); fill-opacity: 1;"/></g><g class="point"><path d="M586.74,93.42V30.42H593.43V93.42Z" style="vector-effect: non-scaling-stroke; opacity: 1; stroke-width: 0px; fill: rgb(190, 190, 190); fill-opacity: 1;"/></g><g class="point"><path d="M595.11,93.42V44.87H601.8V93.42Z" style="vector-effect: non-scaling-stroke; opacity: 1; stroke-width: 0px; fill: rgb(190, 190, 190); fill-opacity: 1;"/></g><g class="point"><path d="M603.48,93.42V42.51H610.17V93.42Z" style="vector-effect: non-scaling-stroke; opacity: 1; stroke-width: 0px; fill: rgb(190, 190, 190); fill-opacity: 1;"/></g><g class="point"><path d="M611.85,93.42V40.97H618.54V93.42Z" style="vector-effect: non-scaling-stroke; opacity: 1; stroke-width: 0px; fill: rgb(190, 190, 190); fill-opacity: 1;"/></g><g class="point"><path d="M620.22,93.42V45.16H626.91V93.42Z" style="vector-effect: non-scaling-stroke; opacity: 1; stroke-width: 0px; fill: rgb(190, 190, 190); fill-opacity: 1;"/></g><g class="point"><path d="M645.33,93.42V56.43H652.02V93.42Z" style="vector-effect: non-scaling-stroke; opacity: 1; stroke-width: 0px; fill: rgb(190, 190, 190); fill-opacity: 1;"/></g><g class="point"><path d="M653.7,93.42V56.3H660.39V93.42Z" style="vector-effect: non-scaling-stroke; opacity: 1; stroke-width: 0px; fill: rgb(190, 190, 190); fill-opacity: 1;"/></g><g class="point"><path d="M662.07,93.42V58.85H668.76V93.42Z" style="vector-effect: non-scaling-stroke; opacity: 1; stroke-width: 0px; fill: rgb(190, 190, 190); fill-opacity: 1;"/></g><g class="point"><path d="M670.44,93.42V61.38H677.13V93.42Z" style="vector-effect: non-scaling-stroke; opacity: 1; stroke-width: 0px; fill: rgb(190, 190, 190); fill-opacity: 1;"/></g><g class="point"><path d="M678.81,93.42V67.08H685.5V93.42Z" style="vector-effect: non-scaling-stroke; opacity: 1; stroke-width: 0px; fill: rgb(190, 190, 190); fill-opacity: 1;"/></g><g class="point"><path d="M703.92,93.42V59.55H710.61V93.42Z" style="vector-effect: non-scaling-stroke; opacity: 1; stroke-width: 0px; fill: rgb(190, 190, 190); fill-opacity: 1;"/></g><g class="point"><path d="M712.29,93.42V65.76H718.98V93.42Z" style="vector-effect: non-scaling-stroke; opacity: 1; stroke-width: 0px; fill: rgb(190, 190, 190); fill-opacity: 1;"/></g><g class="point"><path d="M720.66,93.42V15.45H727.35V93.42Z" style="vector-effect: non-scaling-stroke; opacity: 1; stroke-width: 0px; fill: rgb(190, 190, 190); fill-opacity: 1;"/></g><g class="point"><path d="M729.03,93.42V27.83H735.72V93.42Z" style="vector-effect: non-scaling-stroke; opacity: 1; stroke-width: 0px; fill: rgb(190, 190, 190); fill-opacity: 1;"/></g><g class="point"><path d="M737.4,93.42V32.96H744.09V93.42Z" style="vector-effect: non-scaling-stroke; opacity: 1; stroke-width: 0px; fill: rgb(190, 190, 190); fill-opacity: 1;"/></g><g class="point"><path d="M762.51,93.42V39.12H769.2V93.42Z" style="vector-effect: non-scaling-stroke; opacity: 1; stroke-width: 0px; fill: rgb(190, 190, 190); fill-opacity: 1;"/></g><g class="point"><path d="M770.88,93.42V38.65H777.57V93.42Z" style="vector-effect: non-scaling-stroke; opacity: 1; stroke-width: 0px; fill: rgb(190, 190, 190); fill-opacity: 1;"/></g><g class="point"><path d="M779.25,93.42V45.7H785.94V93.42Z" style="vector-effect: non-scaling-stroke; opacity: 1; stroke-width: 0px; fill: rgb(190, 190, 190); fill-opacity: 1;"/></g><g class="point"><path d="M787.62,93.42V42.2H794.31V93.42Z" style="vector-effect: non-scaling-stroke; opacity: 1; stroke-width: 0px; fill: rgb(190, 190, 190); fill-opacity: 1;"/></g><g class="point"><path d="M795.99,93.42V51.89H802.68V93.42Z" style="vector-effect: non-scaling-stroke; opacity: 1; stroke-width: 0px; fill: rgb(190, 190, 190); fill-opacity: 1;"/></g><g class="point"><path d="M821.1,93.42V57.78H827.79V93.42Z" style="vector-effect: non-scaling-stroke; opacity: 1; stroke-width: 0px; fill: rgb(190, 190, 190); fill-opacity: 1;"/></g><g class="point"><path d="M829.47,93.42V57.88H836.16V93.42Z" style="vector-effect: non-scaling-stroke; opacity: 1; stroke-width: 0px; fill: rgb(190, 190, 190); fill-opacity: 1;"/></g></g></g></g></g><g class="overplot"/><path class="xlines-above crisp" d="M0,0" style="fill: none;"/><path class="ylines-above crisp" d="M0,0" style="fill: none;"/><g class="overlines-above"/><g class="xaxislayer-above"><g class="xtick"><text text-anchor="middle" x="0" y="556.05" transform="translate(92.4,0)" style="font-family: 'Open Sans', verdana, arial, sans-serif; font-size: 12px; fill: rgb(68, 68, 68); fill-opacity: 1; white-space: pre; opacity: 1;"><tspan class="line" dy="0em" x="0" y="556.05">Sep 11</tspan><tspan class="line" dy="1.3em" x="0" y="556.05">2022</tspan></text></g><g class="xtick"><text text-anchor="middle" x="0" y="556.05" style="font-family: 'Open Sans', verdana, arial, sans-serif; font-size: 12px; fill: rgb(68, 68, 68); fill-opacity: 1; white-space: pre; opacity: 1;" transform="translate(209.59,0)">Sep 25</text></g><g class="xtick"><text text-anchor="middle" x="0" y="556.05" style="font-family: 'Open Sans', verdana, arial, sans-serif; font-size: 12px; fill: rgb(68, 68, 68); fill-opacity: 1; white-space: pre; opacity: 1;" transform="translate(326.77,0)">Oct 9</text></g><g class="xtick"><text text-anchor="middle" x="0" y="556.05" style="font-family: 'Open Sans', verdana, arial, sans-serif; font-size: 12px; fill: rgb(68, 68, 68); fill-opacity: 1; white-space: pre; opacity: 1;" transform="translate(443.95,0)">Oct 23</text></g><g class="xtick"><text text-anchor="middle" x="0" y="556.05" style="font-family: 'Open Sans', verdana, arial, sans-serif; font-size: 12px; fill: rgb(68, 68, 68); fill-opacity: 1; white-space: pre; opacity: 1;" transform="translate(561.13,0)">Nov 6</text></g><g class="xtick"><text text-anchor="middle" x="0" y="556.05" style="font-family: 'Open Sans', verdana, arial, sans-serif; font-size: 12px; fill: rgb(68, 68, 68); fill-opacity: 1; white-space: pre; opacity: 1;" transform="translate(678.3,0)">Nov 20</text></g><g class="xtick"><text text-anchor="middle" x="0" y="556.05" style="font-family: 'Open Sans', verdana, arial, sans-serif; font-size: 12px; fill: rgb(68, 68, 68); fill-opacity: 1; white-space: pre; opacity: 1;" transform="translate(795.49,0)">Dec 4</text></g></g><g class="yaxislayer-above"><g class="y2tick"><text text-anchor="end" x="37" y="4.199999999999999" transform="translate(0,543.05)" style="font-family: 'Open Sans', verdana, arial, sans-serif; font-size: 12px; fill: rgb(68, 68, 68); fill-opacity: 1; white-space: pre; opacity: 1;">0</text></g><g class="y2tick"><text text-anchor="end" x="37" y="4.199999999999999" style="font-family: 'Open Sans', verdana, arial, sans-serif; font-size: 12px; fill: rgb(68, 68, 68); fill-opacity: 1; white-space: pre; opacity: 1;" transform="translate(0,523.33)">5M</text></g><g class="y2tick"><text text-anchor="end" x="37" y="4.199999999999999" style="font-family: 'Open Sans', verdana, arial, sans-serif; font-size: 12px; fill: rgb(68, 68, 68); fill-opacity: 1; white-space: pre; opacity: 1;" transform="translate(0,503.61)">10M</text></g><g class="y2tick"><text text-anchor="end" x="37" y="4.199999999999999" style="font-family: 'Open Sans', verdana, arial, sans-serif; font-size: 12px; fill: rgb(68, 68, 68); fill-opacity: 1; white-space: pre; opacity: 1;" transform="translate(0,483.89)">15M</text></g><g class="y2tick"><text text-anchor="end" x="37" y="4.199999999999999" style="font-family: 'Open Sans', verdana, arial, sans-serif; font-size: 12px; fill: rgb(68, 68, 68); fill-opacity: 1; white-space: pre; opacity: 1;" transform="translate(0,464.17)">20M</text></g></g><g class="overaxes-above"/></g></g><g class="polarlayer"/><g class="ternarylayer"/><g class="geolayer"/><g class="funnelarealayer"/><g class="pielayer"/><g class="iciclelayer"/><g class="treemaplayer"/><g class="sunburstlayer"/><g class="glimages"/><defs id="topdefs-b5300d"><g class="clips"/></defs><g class="layer-above"><g class="imagelayer"/><g class="shapelayer"/></g><g class="infolayer"><g class="g-gtitle"><text class="gtitle" x="450" y="25" text-anchor="middle" dy="0em" style="font-family: 'Open Sans', verdana, arial, sans-serif; font-size: 17px; fill: rgb(68, 68, 68); opacity: 1; font-weight: normal; white-space: pre;">삼성전자 Candlestick Chart</text></g><g class="g-xtitle"><text class="xtitle" x="456.5" y="595.05" text-anchor="middle" style="font-family: 'Open Sans', verdana, arial, sans-serif; font-size: 14px; fill: rgb(68, 68, 68); opacity: 1; font-weight: normal; white-space: pre;">date</text></g><g class="g-ytitle"/><g class="g-y2title"/></g></svg>