<svg class="main-svg" xmlns="http://www.w3.org/2000/svg" xmlns:xlink="http://www.w3.org/1999/xlink" width="900" height="600" style="" viewBox="0 0 900 600"><rect x="0" y="0" width="900" height="600" style="fill: rgb(255, 255, 255); fill-opacity: 1;"/><defs id="defs-aa4446"><g class="clips"><clipPath id="clipaa4446xyplot" class="plotclip"><rect width="837" height="352.91999999999996"/></clipPath><clipPath id="clipaa4446xy2plot" class="plotclip"><rect width="837" height="93.42"/></clipPath><clipPath class="axesclip" id="clipaa4446x"><rect x="38" y="0" width="837" height="600"/></clipPath><clipPath class="axesclip" id="clipaa4446y"><rect x="0" y="75.95000000000002" width="900" height="352.91999999999996"/></clipPath><clipPath class="axesclip" id="clipaa4446xy"><rect x="38" y="75.95000000000002" width="837" height="352.91999999999996"/></clipPath><clipPath class="axesclip" id="clipaa4446y2"><rect x="0" y="449.63" width="900" height="93.42"/></clipPath><clipPath class="axesclip" id="clipaa4446xy2"><rect x="38" y="449.63" width="837" height="93.42"/></clipPath></g><g class="gradients"/><g class="patterns"/></defs><g class="bglayer"/><g class="layer-below"><g class="imagelayer"/><g class="shapelayer"/></g><g class="cartesianlayer"><g class="subplot xy"><g class="layer-subplot"><g class="shapelayer"/><g class="imagelayer"/></g><g class="gridlayer"><g class="x"/><g class="y"><path class="ygrid crisp" transform="translate(0,405.65)" d="M38,0h837" style="stroke: rgb(238, 238, 238); stroke-opacity: 1; stroke-width: 1px;"/><path class="ygrid crisp" transform="translate(0,349.93000000000006)" d="M38,0h837" style="stroke: rgb(238, 238, 238); stroke-opacity: 1; stroke-width: 1px;"/><path class="ygrid crisp" transform="translate(0,294.20000000000005)" d="M38,0h837" style="stroke: rgb(238, 238, 238); stroke-opacity: 1; stroke-width: 1px;"/><path class="ygrid crisp" transform="translate(0,238.48000000000002)" d="M38,0h837" style="stroke: rgb(238, 238, 238); stroke-opacity: 1; stroke-width: 1px;"/><path class="ygrid crisp" transform="translate(0,182.75)" d="M38,0h837" style="stroke: rgb(238, 238, 238); stroke-opacity: 1; stroke-width: 1px;"/><path class="ygrid crisp" transform="translate(0,127.03000000000002)" d="M38,0h837" style="stroke: rgb(238, 238, 238); stroke-opacity: 1; stroke-width: 1px;"/></g></g><g class="zerolinelayer"/><path class="xlines-below"/><path class="ylines-below"/><g class="overlines-below"/><g class="xaxislayer-below"/><g class="yaxislayer-below"/><g class="overaxes-below"/><g class="plot" transform="translate(38,75.95000000000002)" clip-path="url(#clipaa4446xyplot)"><g class="boxlayer mlayer"><g class="trace boxes" style="opacity: 1;"><path class="box" d="M3.14,186.6H9.17M3.14,187.6H9.17V179.25H3.14ZM6.155,187.6V195.96M6.155,179.25V168.1" style="vector-effect: non-scaling-stroke; stroke-width: 2px; stroke: rgb(0, 0, 255); stroke-opacity: 1; fill: rgb(0, 0, 255); fill-opacity: 0.5; opacity: 1;"/><path class="box" d="M15.45,186.6H21.48M15.45,187.6H21.48V184.82H15.45ZM18.465,187.6V193.18M18.465,184.82V173.67" style="vector-effect: non-scaling-stroke; stroke-width: 2px; stroke: rgb(0, 0, 255); stroke-opacity: 1; fill: rgb(0, 0, 255); fill-opacity: 0.5; opacity: 1;"/><path class="box" d="M27.76,217.25H33.79M27.76,218.25H33.79V198.75H27.76ZM30.775,218.25V221.04M30.775,198.75V198.75" style="vector-effect: non-scaling-stroke; stroke-width: 2px; stroke: rgb(0, 0, 255); stroke-opacity: 1; fill: rgb(0, 0, 255); fill-opacity: 0.5; opacity: 1;"/><path class="box" d="M40.07,228.4H46.1M40.07,229.4H46.1V212.68H40.07ZM43.085,229.4V229.4M43.085,212.68V207.11" style="vector-effect: non-scaling-stroke; stroke-width: 2px; stroke: rgb(0, 0, 255); stroke-opacity: 1; fill: rgb(0, 0, 255); fill-opacity: 0.5; opacity: 1;"/><path class="box" d="M52.37,160.74H58.41M52.37,190.39H58.41V159.74H52.37ZM55.39,190.39V195.96M55.39,159.74V148.6" style="vector-effect: non-scaling-stroke; stroke-width: 2px; stroke: rgb(255, 0, 0); stroke-opacity: 1; fill: rgb(255, 0, 0); fill-opacity: 0.5; opacity: 1;"/><path class="box" d="M64.68,196.96H70.71M64.68,212.68H70.71V195.96H64.68ZM67.695,212.68V215.47M67.695,195.96V184.82" style="vector-effect: non-scaling-stroke; stroke-width: 2px; stroke: rgb(255, 0, 0); stroke-opacity: 1; fill: rgb(255, 0, 0); fill-opacity: 0.5; opacity: 1;"/><path class="box" d="M76.99,217.25H83.02M76.99,218.25H83.02V190.39H76.99ZM80.005,218.25V218.25M80.005,190.39V187.6" style="vector-effect: non-scaling-stroke; stroke-width: 2px; stroke: rgb(0, 0, 255); stroke-opacity: 1; fill: rgb(0, 0, 255); fill-opacity: 0.5; opacity: 1;"/><path class="box" d="M89.3,213.68H95.33M89.3,229.4H95.33V212.68H89.3ZM92.315,229.4V232.18M92.315,212.68V207.11" style="vector-effect: non-scaling-stroke; stroke-width: 2px; stroke: rgb(255, 0, 0); stroke-opacity: 1; fill: rgb(255, 0, 0); fill-opacity: 0.5; opacity: 1;"/><path class="box" d="M101.61,208.11H107.64M101.61,209.89H107.64V207.11H101.61ZM104.625,209.89V218.25M104.625,207.11V190.39" style="vector-effect: non-scaling-stroke; stroke-width: 2px; stroke: rgb(255, 0, 0); stroke-opacity: 1; fill: rgb(255, 0, 0); fill-opacity: 0.5; opacity: 1;"/><path class="box" d="M113.92,222.83H119.95M113.92,223.83H119.95V207.11H113.92ZM116.935,223.83V223.83M116.935,207.11V190.39" style="vector-effect: non-scaling-stroke; stroke-width: 2px; stroke: rgb(0, 0, 255); stroke-opacity: 1; fill: rgb(0, 0, 255); fill-opacity: 0.5; opacity: 1;"/><path class="box" d="M126.23,236.76H132.26M126.23,237.76H132.26V234.97H126.23ZM129.245,237.76V246.12M129.245,234.97V232.18" style="vector-effect: non-scaling-stroke; stroke-width: 2px; stroke: rgb(0, 0, 255); stroke-opacity: 1; fill: rgb(0, 0, 255); fill-opacity: 0.5; opacity: 1;"/><path class="box" d="M138.54,261.83H144.57M138.54,262.83H144.57V257.26H138.54ZM141.555,262.83V265.62M141.555,257.26V254.47" style="vector-effect: non-scaling-stroke; stroke-width: 2px; stroke: rgb(0, 0, 255); stroke-opacity: 1; fill: rgb(0, 0, 255); fill-opacity: 0.5; opacity: 1;"/><path class="box" d="M150.84,261.05H156.88M150.84,262.83H156.88V260.05H150.84ZM153.86,262.83V268.4M153.86,260.05V248.9" style="vector-effect: non-scaling-stroke; stroke-width: 2px; stroke: rgb(255, 0, 0); stroke-opacity: 1; fill: rgb(255, 0, 0); fill-opacity: 0.5; opacity: 1;"/><path class="box" d="M163.15,277.76H169.18M163.15,282.34H169.18V276.76H163.15ZM166.16500000000002,282.34V285.12M166.16500000000002,276.76V268.4" style="vector-effect: non-scaling-stroke; stroke-width: 2px; stroke: rgb(255, 0, 0); stroke-opacity: 1; fill: rgb(255, 0, 0); fill-opacity: 0.5; opacity: 1;"/><path class="box" d="M175.46,269.4H181.49M175.46,279.55H181.49V268.4H175.46ZM178.47500000000002,279.55V287.91M178.47500000000002,268.4V268.4" style="vector-effect: non-scaling-stroke; stroke-width: 2px; stroke: rgb(255, 0, 0); stroke-opacity: 1; fill: rgb(255, 0, 0); fill-opacity: 0.5; opacity: 1;"/><path class="box" d="M187.77,303.63H193.8M187.77,304.63H193.8V276.76H187.77ZM190.78500000000003,304.63V315.77M190.78500000000003,276.76V262.83" style="vector-effect: non-scaling-stroke; stroke-width: 2px; stroke: rgb(0, 0, 255); stroke-opacity: 1; fill: rgb(0, 0, 255); fill-opacity: 0.5; opacity: 1;"/><path class="box" d="M200.08,311.98H206.11M200.08,312.98H206.11V293.48H200.08ZM203.09500000000003,312.98V312.98M203.09500000000003,293.48V282.34" style="vector-effect: non-scaling-stroke; stroke-width: 2px; stroke: rgb(0, 0, 255); stroke-opacity: 1; fill: rgb(0, 0, 255); fill-opacity: 0.5; opacity: 1;"/><path class="box" d="M212.39,300.05H218.42M212.39,321.34H218.42V299.05H212.39ZM215.40499999999997,321.34V335.27M215.40499999999997,299.05V285.12" style="vector-effect: non-scaling-stroke; stroke-width: 2px; stroke: rgb(255, 0, 0); stroke-opacity: 1; fill: rgb(255, 0, 0); fill-opacity: 0.5; opacity: 1;"/><path class="box" d="M224.7,239.54H230.73M224.7,240.54H230.73V237.76H224.7ZM227.71499999999997,240.54V260.05M227.71499999999997,237.76V234.97" style="vector-effect: non-scaling-stroke; stroke-width: 2px; stroke: rgb(0, 0, 255); stroke-opacity: 1; fill: rgb(0, 0, 255); fill-opacity: 0.5; opacity: 1;"/><path class="box" d="M237.01,217.25H243.04M237.01,218.25H243.04V193.18H237.01ZM240.02499999999998,218.25V234.97M240.02499999999998,193.18V184.82" style="vector-effect: non-scaling-stroke; stroke-width: 2px; stroke: rgb(0, 0, 255); stroke-opacity: 1; fill: rgb(0, 0, 255); fill-opacity: 0.5; opacity: 1;"/><path class="box" d="M249.32,208.89H255.35M249.32,209.89H255.35V198.75H249.32ZM252.33499999999998,209.89V209.89M252.33499999999998,198.75V182.03" style="vector-effect: non-scaling-stroke; stroke-width: 2px; stroke: rgb(0, 0, 255); stroke-opacity: 1; fill: rgb(0, 0, 255); fill-opacity: 0.5; opacity: 1;"/><path class="box" d="M261.62,213.68H267.66M261.62,221.04H267.66V212.68H261.62ZM264.64,221.04V240.54M264.64,212.68V193.18" style="vector-effect: non-scaling-stroke; stroke-width: 2px; stroke: rgb(255, 0, 0); stroke-opacity: 1; fill: rgb(255, 0, 0); fill-opacity: 0.5; opacity: 1;"/><path class="box" d="M273.93,235.97H279.96M273.93,262.83H279.96V234.97H273.93ZM276.945,262.83V273.98M276.945,234.97V226.61" style="vector-effect: non-scaling-stroke; stroke-width: 2px; stroke: rgb(255, 0, 0); stroke-opacity: 1; fill: rgb(255, 0, 0); fill-opacity: 0.5; opacity: 1;"/><path class="box" d="M286.24,224.83H292.27M286.24,226.61H292.27V223.83H286.24ZM289.255,226.61V240.54M289.255,223.83V190.39" style="vector-effect: non-scaling-stroke; stroke-width: 2px; stroke: rgb(255, 0, 0); stroke-opacity: 1; fill: rgb(255, 0, 0); fill-opacity: 0.5; opacity: 1;"/><path class="box" d="M298.55,239.54H304.58M298.55,240.54H304.58V234.97H298.55ZM301.565,240.54V240.54M301.565,234.97V215.47" style="vector-effect: non-scaling-stroke; stroke-width: 2px; stroke: rgb(0, 0, 255); stroke-opacity: 1; fill: rgb(0, 0, 255); fill-opacity: 0.5; opacity: 1;"/><path class="box" d="M310.86,210.89H316.89M310.86,212.68H316.89V209.89H310.86ZM313.875,212.68V223.83M313.875,209.89V204.32" style="vector-effect: non-scaling-stroke; stroke-width: 2px; stroke: rgb(255, 0, 0); stroke-opacity: 1; fill: rgb(255, 0, 0); fill-opacity: 0.5; opacity: 1;"/><path class="box" d="M323.17,202.54H329.2M323.17,223.83H329.2V201.54H323.17ZM326.185,223.83V226.61M326.185,201.54V190.39" style="vector-effect: non-scaling-stroke; stroke-width: 2px; stroke: rgb(255, 0, 0); stroke-opacity: 1; fill: rgb(255, 0, 0); fill-opacity: 0.5; opacity: 1;"/><path class="box" d="M335.48,203.32H341.51M335.48,204.32H341.51V198.75H335.48ZM338.495,204.32V223.83M338.495,198.75V187.6" style="vector-effect: non-scaling-stroke; stroke-width: 2px; stroke: rgb(0, 0, 255); stroke-opacity: 1; fill: rgb(0, 0, 255); fill-opacity: 0.5; opacity: 1;"/><path class="box" d="M347.79,222.83H353.82M347.79,223.83H353.82V198.75H347.79ZM350.805,223.83V226.61M350.805,198.75V193.18" style="vector-effect: non-scaling-stroke; stroke-width: 2px; stroke: rgb(0, 0, 255); stroke-opacity: 1; fill: rgb(0, 0, 255); fill-opacity: 0.5; opacity: 1;"/><path class="box" d="M360.09,233.18H366.13M360.09,240.54H366.13V232.18H360.09ZM363.11,240.54V243.33M363.11,232.18V218.25" style="vector-effect: non-scaling-stroke; stroke-width: 2px; stroke: rgb(255, 0, 0); stroke-opacity: 1; fill: rgb(255, 0, 0); fill-opacity: 0.5; opacity: 1;"/><path class="box" d="M372.4,222.04H378.43M372.4,243.33H378.43V221.04H372.4ZM375.41499999999996,243.33V243.33M375.41499999999996,221.04V209.89" style="vector-effect: non-scaling-stroke; stroke-width: 2px; stroke: rgb(255, 0, 0); stroke-opacity: 1; fill: rgb(255, 0, 0); fill-opacity: 0.5; opacity: 1;"/><path class="box" d="M384.71,177.46H390.74M384.71,190.39H390.74V176.46H384.71ZM387.725,190.39V198.75M387.725,176.46V176.46" style="vector-effect: non-scaling-stroke; stroke-width: 2px; stroke: rgb(255, 0, 0); stroke-opacity: 1; fill: rgb(255, 0, 0); fill-opacity: 0.5; opacity: 1;"/><path class="box" d="M397.02,171.89H403.05M397.02,190.39H403.05V170.89H397.02ZM400.03499999999997,190.39V190.39M400.03499999999997,170.89V145.81" style="vector-effect: non-scaling-stroke; stroke-width: 2px; stroke: rgb(255, 0, 0); stroke-opacity: 1; fill: rgb(255, 0, 0); fill-opacity: 0.5; opacity: 1;"/><path class="box" d="M409.33,124.52H415.36M409.33,162.53H415.36V123.52H409.33ZM412.345,162.53V170.89M412.345,123.52V117.95" style="vector-effect: non-scaling-stroke; stroke-width: 2px; stroke: rgb(255, 0, 0); stroke-opacity: 1; fill: rgb(255, 0, 0); fill-opacity: 0.5; opacity: 1;"/><path class="box" d="M421.64,119.74H427.67M421.64,120.74H427.67V115.16H421.64ZM424.655,120.74V137.45M424.655,115.16V104.02" style="vector-effect: non-scaling-stroke; stroke-width: 2px; stroke: rgb(0, 0, 255); stroke-opacity: 1; fill: rgb(0, 0, 255); fill-opacity: 0.5; opacity: 1;"/><path class="box" d="M433.95,181.03H439.98M433.95,182.03H439.98V137.45H433.95ZM436.96500000000003,182.03V184.82M436.96500000000003,137.45V129.09" style="vector-effect: non-scaling-stroke; stroke-width: 2px; stroke: rgb(0, 0, 255); stroke-opacity: 1; fill: rgb(0, 0, 255); fill-opacity: 0.5; opacity: 1;"/><path class="box" d="M446.26,124.52H452.29M446.26,159.74H452.29V123.52H446.26ZM449.275,159.74V162.53M449.275,123.52V109.59" style="vector-effect: non-scaling-stroke; stroke-width: 2px; stroke: rgb(255, 0, 0); stroke-opacity: 1; fill: rgb(255, 0, 0); fill-opacity: 0.5; opacity: 1;"/><path class="box" d="M458.57,107.8H464.6M458.57,109.59H464.6V106.8H458.57ZM461.58500000000004,109.59V120.74M461.58500000000004,106.8V98.45" style="vector-effect: non-scaling-stroke; stroke-width: 2px; stroke: rgb(255, 0, 0); stroke-opacity: 1; fill: rgb(255, 0, 0); fill-opacity: 0.5; opacity: 1;"/><path class="box" d="M470.87,116.95H476.91M470.87,117.95H476.91V115.16H470.87ZM473.89,117.95V126.31M473.89,115.16V106.8" style="vector-effect: non-scaling-stroke; stroke-width: 2px; stroke: rgb(0, 0, 255); stroke-opacity: 1; fill: rgb(0, 0, 255); fill-opacity: 0.5; opacity: 1;"/><path class="box" d="M483.18,130.09H489.21M483.18,145.81H489.21V129.09H483.18ZM486.195,145.81V159.74M486.195,129.09V112.38" style="vector-effect: non-scaling-stroke; stroke-width: 2px; stroke: rgb(255, 0, 0); stroke-opacity: 1; fill: rgb(255, 0, 0); fill-opacity: 0.5; opacity: 1;"/><path class="box" d="M495.49,124.52H501.52M495.49,131.88H501.52V123.52H495.49ZM498.505,131.88V151.38M498.505,123.52V120.74" style="vector-effect: non-scaling-stroke; stroke-width: 2px; stroke: rgb(255, 0, 0); stroke-opacity: 1; fill: rgb(255, 0, 0); fill-opacity: 0.5; opacity: 1;"/><path class="box" d="M507.8,102.23H513.83M507.8,115.16H513.83V101.23H507.8ZM510.81500000000005,115.16V123.52M510.81500000000005,101.23V98.45" style="vector-effect: non-scaling-stroke; stroke-width: 2px; stroke: rgb(255, 0, 0); stroke-opacity: 1; fill: rgb(255, 0, 0); fill-opacity: 0.5; opacity: 1;"/><path class="box" d="M520.11,57.65H526.14M520.11,92.87H526.14V56.65H520.11ZM523.125,92.87V92.87M523.125,56.65V53.87" style="vector-effect: non-scaling-stroke; stroke-width: 2px; stroke: rgb(255, 0, 0); stroke-opacity: 1; fill: rgb(255, 0, 0); fill-opacity: 0.5; opacity: 1;"/><path class="box" d="M532.42,51.08H538.45M532.42,51.08H538.45V51.08H532.42ZM535.435,51.08V70.58M535.435,51.08V45.51" style="vector-effect: non-scaling-stroke; stroke-width: 2px; stroke: rgb(255, 0, 0); stroke-opacity: 1; fill: rgb(255, 0, 0); fill-opacity: 0.5; opacity: 1;"/><path class="box" d="M544.73,94.66H550.76M544.73,95.66H550.76V67.8H544.73ZM547.745,95.66V95.66M547.745,67.8V65.01" style="vector-effect: non-scaling-stroke; stroke-width: 2px; stroke: rgb(0, 0, 255); stroke-opacity: 1; fill: rgb(0, 0, 255); fill-opacity: 0.5; opacity: 1;"/><path class="box" d="M557.04,25H563.07M557.04,26H563.07V20.43H557.04ZM560.0550000000001,26V42.72M560.0550000000001,20.43V17.65" style="vector-effect: non-scaling-stroke; stroke-width: 2px; stroke: rgb(0, 0, 255); stroke-opacity: 1; fill: rgb(0, 0, 255); fill-opacity: 0.5; opacity: 1;"/><path class="box" d="M569.34,52.87H575.38M569.34,53.87H575.38V26H569.34ZM572.36,53.87V59.44M572.36,26V26" style="vector-effect: non-scaling-stroke; stroke-width: 2px; stroke: rgb(0, 0, 255); stroke-opacity: 1; fill: rgb(0, 0, 255); fill-opacity: 0.5; opacity: 1;"/><path class="box" d="M581.65,40.94H587.68M581.65,45.51H587.68V39.94H581.65ZM584.665,45.51V62.23M584.665,39.94V37.15" style="vector-effect: non-scaling-stroke; stroke-width: 2px; stroke: rgb(255, 0, 0); stroke-opacity: 1; fill: rgb(255, 0, 0); fill-opacity: 0.5; opacity: 1;"/><path class="box" d="M593.96,32.58H599.99M593.96,39.94H599.99V31.58H593.96ZM596.975,39.94V59.44M596.975,31.58V31.58" style="vector-effect: non-scaling-stroke; stroke-width: 2px; stroke: rgb(255, 0, 0); stroke-opacity: 1; fill: rgb(255, 0, 0); fill-opacity: 0.5; opacity: 1;"/><path class="box" d="M606.27,66.8H612.3M606.27,67.8H612.3V51.08H606.27ZM609.285,67.8V70.58M609.285,51.08V51.08" style="vector-effect: non-scaling-stroke; stroke-width: 2px; stroke: rgb(0, 0, 255); stroke-opacity: 1; fill: rgb(0, 0, 255); fill-opacity: 0.5; opacity: 1;"/><path class="box" d="M618.58,56.65H624.61M618.58,56.65H624.61V56.65H618.58ZM621.595,56.65V67.8M621.595,56.65V39.94" style="vector-effect: non-scaling-stroke; stroke-width: 2px; stroke: rgb(255, 0, 0); stroke-opacity: 1; fill: rgb(255, 0, 0); fill-opacity: 0.5; opacity: 1;"/><path class="box" d="M630.89,67.8H636.92M630.89,67.8H636.92V67.8H630.89ZM633.905,67.8V84.52M633.905,67.8V56.65" style="vector-effect: non-scaling-stroke; stroke-width: 2px; stroke: rgb(0, 0, 255); stroke-opacity: 1; fill: rgb(0, 0, 255); fill-opacity: 0.5; opacity: 1;"/><path class="box" d="M643.2,89.09H649.23M643.2,90.09H649.23V81.73H643.2ZM646.215,90.09V98.45M646.215,81.73V73.37" style="vector-effect: non-scaling-stroke; stroke-width: 2px; stroke: rgb(0, 0, 255); stroke-opacity: 1; fill: rgb(0, 0, 255); fill-opacity: 0.5; opacity: 1;"/><path class="box" d="M655.51,77.94H661.54M655.51,78.94H661.54V73.37H655.51ZM658.525,78.94V87.3M658.525,73.37V70.58" style="vector-effect: non-scaling-stroke; stroke-width: 2px; stroke: rgb(0, 0, 255); stroke-opacity: 1; fill: rgb(0, 0, 255); fill-opacity: 0.5; opacity: 1;"/><path class="box" d="M667.82,68.8H673.85M667.82,73.37H673.85V67.8H667.82ZM670.835,73.37V81.73M670.835,67.8V59.44" style="vector-effect: non-scaling-stroke; stroke-width: 2px; stroke: rgb(255, 0, 0); stroke-opacity: 1; fill: rgb(255, 0, 0); fill-opacity: 0.5; opacity: 1;"/><path class="box" d="M680.12,77.94H686.16M680.12,78.94H686.16V67.8H680.12ZM683.14,78.94V84.52M683.14,67.8V59.44" style="vector-effect: non-scaling-stroke; stroke-width: 2px; stroke: rgb(0, 0, 255); stroke-opacity: 1; fill: rgb(0, 0, 255); fill-opacity: 0.5; opacity: 1;"/><path class="box" d="M692.43,103.02H698.46M692.43,104.02H698.46V92.87H692.43ZM695.4449999999999,104.02V112.38M695.4449999999999,92.87V92.87" style="vector-effect: non-scaling-stroke; stroke-width: 2px; stroke: rgb(0, 0, 255); stroke-opacity: 1; fill: rgb(0, 0, 255); fill-opacity: 0.5; opacity: 1;"/><path class="box" d="M704.74,91.09H710.77M704.74,109.59H710.77V90.09H704.74ZM707.755,109.59V112.38M707.755,90.09V90.09" style="vector-effect: non-scaling-stroke; stroke-width: 2px; stroke: rgb(255, 0, 0); stroke-opacity: 1; fill: rgb(255, 0, 0); fill-opacity: 0.5; opacity: 1;"/><path class="box" d="M717.05,46.51H723.08M717.05,95.66H723.08V45.51H717.05ZM720.065,95.66V101.23M720.065,45.51V45.51" style="vector-effect: non-scaling-stroke; stroke-width: 2px; stroke: rgb(255, 0, 0); stroke-opacity: 1; fill: rgb(255, 0, 0); fill-opacity: 0.5; opacity: 1;"/><path class="box" d="M729.36,33.36H735.39M729.36,34.36H735.39V20.43H729.36ZM732.375,34.36V42.72M732.375,20.43V17.65" style="vector-effect: non-scaling-stroke; stroke-width: 2px; stroke: rgb(0, 0, 255); stroke-opacity: 1; fill: rgb(0, 0, 255); fill-opacity: 0.5; opacity: 1;"/><path class="box" d="M741.67,94.66H747.7M741.67,95.66H747.7V37.15H741.67ZM744.685,95.66V95.66M744.685,37.15V37.15" style="vector-effect: non-scaling-stroke; stroke-width: 2px; stroke: rgb(0, 0, 255); stroke-opacity: 1; fill: rgb(0, 0, 255); fill-opacity: 0.5; opacity: 1;"/><path class="box" d="M753.98,97.45H760.01M753.98,98.45H760.01V81.73H753.98ZM756.995,98.45V106.8M756.995,81.73V76.16" style="vector-effect: non-scaling-stroke; stroke-width: 2px; stroke: rgb(0, 0, 255); stroke-opacity: 1; fill: rgb(0, 0, 255); fill-opacity: 0.5; opacity: 1;"/><path class="box" d="M766.29,128.09H772.32M766.29,129.09H772.32V112.38H766.29ZM769.3050000000001,129.09V129.09M769.3050000000001,112.38V104.02" style="vector-effect: non-scaling-stroke; stroke-width: 2px; stroke: rgb(0, 0, 255); stroke-opacity: 1; fill: rgb(0, 0, 255); fill-opacity: 0.5; opacity: 1;"/><path class="box" d="M778.59,138.45H784.63M778.59,140.24H784.63V137.45H778.59ZM781.61,140.24V148.6M781.61,137.45V117.95" style="vector-effect: non-scaling-stroke; stroke-width: 2px; stroke: rgb(255, 0, 0); stroke-opacity: 1; fill: rgb(255, 0, 0); fill-opacity: 0.5; opacity: 1;"/><path class="box" d="M790.9,130.09H796.93M790.9,143.03H796.93V129.09H790.9ZM793.915,143.03V145.81M793.915,129.09V129.09" style="vector-effect: non-scaling-stroke; stroke-width: 2px; stroke: rgb(255, 0, 0); stroke-opacity: 1; fill: rgb(255, 0, 0); fill-opacity: 0.5; opacity: 1;"/><path class="box" d="M803.21,96.66H809.24M803.21,126.31H809.24V95.66H803.21ZM806.225,126.31V126.31M806.225,95.66V90.09" style="vector-effect: non-scaling-stroke; stroke-width: 2px; stroke: rgb(255, 0, 0); stroke-opacity: 1; fill: rgb(255, 0, 0); fill-opacity: 0.5; opacity: 1;"/><path class="box" d="M815.52,119.74H821.55M815.52,120.74H821.55V109.59H815.52ZM818.535,120.74V123.52M818.535,109.59V106.8" style="vector-effect: non-scaling-stroke; stroke-width: 2px; stroke: rgb(0, 0, 255); stroke-opacity: 1; fill: rgb(0, 0, 255); fill-opacity: 0.5; opacity: 1;"/><path class="box" d="M827.83,116.16H833.86M827.83,117.95H833.86V115.16H827.83ZM830.845,117.95V123.52M830.845,115.16V98.45" style="vector-effect: non-scaling-stroke; stroke-width: 2px; stroke: rgb(255, 0, 0); stroke-opacity: 1; fill: rgb(255, 0, 0); fill-opacity: 0.5; opacity: 1;"/></g></g></g><g class="overplot"/><path class="xlines-above crisp" d="M0,0" style="fill: none;"/><path class="ylines-above crisp" d="M0,0" style="fill: none;"/><g class="overlines-above"/><g class="xaxislayer-above"/><g class="yaxislayer-above"><g class="ytick"><text text-anchor="end" x="37" y="4.199999999999999" transform="translate(0,405.65)" style="font-family: 'Open Sans', verdana, arial, sans-serif; font-size: 12px; fill: rgb(68, 68, 68); fill-opacity: 1; white-space: pre; opacity: 1;">52k</text></g><g class="ytick"><text text-anchor="end" x="37" y="4.199999999999999" style="font-family: 'Open Sans', verdana, arial, sans-serif; font-size: 12px; fill: rgb(68, 68, 68); fill-opacity: 1; white-space: pre; opacity: 1;" transform="translate(0,349.93000000000006)">54k</text></g><g class="ytick"><text text-anchor="end" x="37" y="4.199999999999999" style="font-family: 'Open Sans', verdana, arial, sans-serif; font-size: 12px; fill: rgb(68, 68, 68); fill-opacity: 1; white-space: pre; opacity: 1;" transform="translate(0,294.20000000000005)">56k</text></g><g class="ytick"><text text-anchor="end" x="37" y="4.199999999999999" style="font-family: 'Open Sans', verdana, arial, sans-serif; font-size: 12px; fill: rgb(68, 68, 68); fill-opacity: 1; white-space: pre; opacity: 1;" transform="translate(0,238.48000000000002)">58k</text></g><g class="ytick"><text text-anchor="end" x="37" y="4.199999999999999" style="font-family: 'Open Sans', verdana, arial, sans-serif; font-size: 12px; fill: rgb(68, 68, 68); fill-opacity: 1; white-space: pre; opacity: 1;" transform="translate(0,182.75)">60k</text></g><g class="ytick"><text text-anchor="end" x="37" y="4.199999999999999" style="font-family: 'Open Sans', verdana, arial, sans-serif; font-size: 12px; fill: rgb(68, 68, 68); fill-opacity: 1; white-space: pre; opacity: 1;" transform="translate(0,127.03000000000002)">62k</text></g></g><g class="overaxes-above"/></g><g class="subplot xy2"><g class="layer-subplot"><g class="shapelayer"/><g class="imagelayer"/></g><g class="gridlayer"><g class="x"/><g class="y2"><path class="y2grid crisp" transform="translate(0,523.33)" d="M38,0h837" style="stroke: rgb(238, 238, 238); stroke-opacity: 1; stroke-width: 1px;"/><path class="y2grid crisp" transform="translate(0,503.61)" d="M38,0h837" style="stroke: rgb(238, 238, 238); stroke-opacity: 1; stroke-width: 1px;"/><path class="y2grid crisp" transform="translate(0,483.89)" d="M38,0h837" style="stroke: rgb(238, 238, 238); stroke-opacity: 1; stroke-width: 1px;"/><path class="y2grid crisp" transform="translate(0,464.17)" d="M38,0h837" style="stroke: rgb(238, 238, 238); stroke-opacity: 1; stroke-width: 1px;"/></g></g><g class="zerolinelayer"><path class="y2zl zl crisp" transform="translate(0,543.05)" d="M38,0h837" style="stroke: rgb(68, 68, 68); stroke-opacity: 1; stroke-width: 1px;"/></g><path class="xlines-below"/><path class="ylines-below"/><g class="overlines-below"/><g class="xaxislayer-below"/><g class="yaxislayer-below"/><g class="overaxes-below"/><g class="plot" transform="translate(38,449.63)" clip-path="url(#clipaa4446xy2plot)"><g class="barlayer mlayer"><g class="trace bars" style="opacity: 1;"><g class="points"><g class="point"><path d="M1.23,93.42V48.36H11.08V93.42Z" style="vector-effect: non-scaling-stroke; opacity: 1; stroke-width: 0px; fill: rgb(190, 190, 190); fill-opacity: 1;"/></g><g class="point"><path d="M13.54,93.42V63.83H23.39V93.42Z" style="vector-effect: non-scaling-stroke; opacity: 1; stroke-width: 0px; fill: rgb(190, 190, 190); fill-opacity: 1;"/></g><g class="point"><path d="M25.85,93.42V24.86H35.7V93.42Z" style="vector-effect: non-scaling-stroke; opacity: 1; stroke-width: 0px; fill: rgb(190, 190, 190); fill-opacity: 1;"/></g><g class="point"><path d="M38.16,93.42V22.43H48V93.42Z" style="vector-effect: non-scaling-stroke; opacity: 1; stroke-width: 0px; fill: rgb(190, 190, 190); fill-opacity: 1;"/></g><g class="point"><path d="M50.47,93.42V25.72H60.31V93.42Z" style="vector-effect: non-scaling-stroke; opacity: 1; stroke-width: 0px; fill: rgb(190, 190, 190); fill-opacity: 1;"/></g><g class="point"><path d="M62.78,93.42V44.02H72.62V93.42Z" style="vector-effect: non-scaling-stroke; opacity: 1; stroke-width: 0px; fill: rgb(190, 190, 190); fill-opacity: 1;"/></g><g class="point"><path d="M75.08,93.42V47.42H84.93V93.42Z" style="vector-effect: non-scaling-stroke; opacity: 1; stroke-width: 0px; fill: rgb(190, 190, 190); fill-opacity: 1;"/></g><g class="point"><path d="M87.39,93.42V40.35H97.24V93.42Z" style="vector-effect: non-scaling-stroke; opacity: 1; stroke-width: 0px; fill: rgb(190, 190, 190); fill-opacity: 1;"/></g><g class="point"><path d="M99.7,93.42V45H109.55V93.42Z" style="vector-effect: non-scaling-stroke; opacity: 1; stroke-width: 0px; fill: rgb(190, 190, 190); fill-opacity: 1;"/></g><g class="point"><path d="M112.01,93.42V38.04H121.86V93.42Z" style="vector-effect: non-scaling-stroke; opacity: 1; stroke-width: 0px; fill: rgb(190, 190, 190); fill-opacity: 1;"/></g><g class="point"><path d="M124.32,93.42V46.63H134.17V93.42Z" style="vector-effect: non-scaling-stroke; opacity: 1; stroke-width: 0px; fill: rgb(190, 190, 190); fill-opacity: 1;"/></g><g class="point"><path d="M136.63,93.42V42.99H146.48V93.42Z" style="vector-effect: non-scaling-stroke; opacity: 1; stroke-width: 0px; fill: rgb(190, 190, 190); fill-opacity: 1;"/></g><g class="point"><path d="M148.94,93.42V51.79H158.78V93.42Z" style="vector-effect: non-scaling-stroke; opacity: 1; stroke-width: 0px; fill: rgb(190, 190, 190); fill-opacity: 1;"/></g><g class="point"><path d="M161.25,93.42V34.23H171.09V93.42Z" style="vector-effect: non-scaling-stroke; opacity: 1; stroke-width: 0px; fill: rgb(190, 190, 190); fill-opacity: 1;"/></g><g class="point"><path d="M173.55,93.42V27.83H183.4V93.42Z" style="vector-effect: non-scaling-stroke; opacity: 1; stroke-width: 0px; fill: rgb(190, 190, 190); fill-opacity: 1;"/></g><g class="point"><path d="M185.86,93.42V14.58H195.71V93.42Z" style="vector-effect: non-scaling-stroke; opacity: 1; stroke-width: 0px; fill: rgb(190, 190, 190); fill-opacity: 1;"/></g><g class="point"><path d="M198.17,93.42V38.67H208.02V93.42Z" style="vector-effect: non-scaling-stroke; opacity: 1; stroke-width: 0px; fill: rgb(190, 190, 190); fill-opacity: 1;"/></g><g class="point"><path d="M210.48,93.42V4.67H220.33V93.42Z" style="vector-effect: non-scaling-stroke; opacity: 1; stroke-width: 0px; fill: rgb(190, 190, 190); fill-opacity: 1;"/></g><g class="point"><path d="M222.79,93.42V17.9H232.64V93.42Z" style="vector-effect: non-scaling-stroke; opacity: 1; stroke-width: 0px; fill: rgb(190, 190, 190); fill-opacity: 1;"/></g><g class="point"><path d="M235.1,93.42V4.85H244.95V93.42Z" style="vector-effect: non-scaling-stroke; opacity: 1; stroke-width: 0px; fill: rgb(190, 190, 190); fill-opacity: 1;"/></g><g class="point"><path d="M247.41,93.42V34.48H257.25V93.42Z" style="vector-effect: non-scaling-stroke; opacity: 1; stroke-width: 0px; fill: rgb(190, 190, 190); fill-opacity: 1;"/></g><g class="point"><path d="M259.72,93.42V26.82H269.56V93.42Z" style="vector-effect: non-scaling-stroke; opacity: 1; stroke-width: 0px; fill: rgb(190, 190, 190); fill-opacity: 1;"/></g><g class="point"><path d="M272.03,93.42V8.87H281.87V93.42Z" style="vector-effect: non-scaling-stroke; opacity: 1; stroke-width: 0px; fill: rgb(190, 190, 190); fill-opacity: 1;"/></g><g class="point"><path d="M284.33,93.42V20.82H294.18V93.42Z" style="vector-effect: non-scaling-stroke; opacity: 1; stroke-width: 0px; fill: rgb(190, 190, 190); fill-opacity: 1;"/></g><g class="point"><path d="M296.64,93.42V39.06H306.49V93.42Z" style="vector-effect: non-scaling-stroke; opacity: 1; stroke-width: 0px; fill: rgb(190, 190, 190); fill-opacity: 1;"/></g><g class="point"><path d="M308.95,93.42V42.45H318.8V93.42Z" style="vector-effect: non-scaling-stroke; opacity: 1; stroke-width: 0px; fill: rgb(190, 190, 190); fill-opacity: 1;"/></g><g class="point"><path d="M321.26,93.42V39.62H331.11V93.42Z" style="vector-effect: non-scaling-stroke; opacity: 1; stroke-width: 0px; fill: rgb(190, 190, 190); fill-opacity: 1;"/></g><g class="point"><path d="M333.57,93.42V34.97H343.42V93.42Z" style="vector-effect: non-scaling-stroke; opacity: 1; stroke-width: 0px; fill: rgb(190, 190, 190); fill-opacity: 1;"/></g><g class="point"><path d="M345.88,93.42V43.49H355.73V93.42Z" style="vector-effect: non-scaling-stroke; opacity: 1; stroke-width: 0px; fill: rgb(190, 190, 190); fill-opacity: 1;"/></g><g class="point"><path d="M358.19,93.42V25.95H368.03V93.42Z" style="vector-effect: non-scaling-stroke; opacity: 1; stroke-width: 0px; fill: rgb(190, 190, 190); fill-opacity: 1;"/></g><g class="point"><path d="M370.5,93.42V48.24H380.34V93.42Z" style="vector-effect: non-scaling-stroke; opacity: 1; stroke-width: 0px; fill: rgb(190, 190, 190); fill-opacity: 1;"/></g><g class="point"><path d="M382.8,93.42V26.59H392.65V93.42Z" style="vector-effect: non-scaling-stroke; opacity: 1; stroke-width: 0px; fill: rgb(190, 190, 190); fill-opacity: 1;"/></g><g class="point"><path d="M395.11,93.42V24.77H404.96V93.42Z" style="vector-effect: non-scaling-stroke; opacity: 1; stroke-width: 0px; fill: rgb(190, 190, 190); fill-opacity: 1;"/></g><g class="point"><path d="M407.42,93.42V11.29H417.27V93.42Z" style="vector-effect: non-scaling-stroke; opacity: 1; stroke-width: 0px; fill: rgb(190, 190, 190); fill-opacity: 1;"/></g><g class="point"><path d="M419.73,93.42V7.62H429.58V93.42Z" style="vector-effect: non-scaling-stroke; opacity: 1; stroke-width: 0px; fill: rgb(190, 190, 190); fill-opacity: 1;"/></g><g class="point"><path d="M432.04,93.42V10.9H441.89V93.42Z" style="vector-effect: non-scaling-stroke; opacity: 1; stroke-width: 0px; fill: rgb(190, 190, 190); fill-opacity: 1;"/></g><g class="point"><path d="M444.35,93.42V18.49H454.2V93.42Z" style="vector-effect: non-scaling-stroke; opacity: 1; stroke-width: 0px; fill: rgb(190, 190, 190); fill-opacity: 1;"/></g><g class="point"><path d="M456.66,93.42V25.58H466.5V93.42Z" style="vector-effect: non-scaling-stroke; opacity: 1; stroke-width: 0px; fill: rgb(190, 190, 190); fill-opacity: 1;"/></g><g class="point"><path d="M468.97,93.42V41.35H478.81V93.42Z" style="vector-effect: non-scaling-stroke; opacity: 1; stroke-width: 0px; fill: rgb(190, 190, 190); fill-opacity: 1;"/></g><g class="point"><path d="M481.28,93.42V24.43H491.12V93.42Z" style="vector-effect: non-scaling-stroke; opacity: 1; stroke-width: 0px; fill: rgb(190, 190, 190); fill-opacity: 1;"/></g><g class="point"><path d="M493.58,93.42V44.34H503.43V93.42Z" style="vector-effect: non-scaling-stroke; opacity: 1; stroke-width: 0px; fill: rgb(190, 190, 190); fill-opacity: 1;"/></g><g class="point"><path d="M505.89,93.42V44.37H515.74V93.42Z" style="vector-effect: non-scaling-stroke; opacity: 1; stroke-width: 0px; fill: rgb(190, 190, 190); fill-opacity: 1;"/></g><g class="point"><path d="M518.2,93.42V21.35H528.05V93.42Z" style="vector-effect: non-scaling-stroke; opacity: 1; stroke-width: 0px; fill: rgb(190, 190, 190); fill-opacity: 1;"/></g><g class="point"><path d="M530.51,93.42V38.03H540.36V93.42Z" style="vector-effect: non-scaling-stroke; opacity: 1; stroke-width: 0px; fill: rgb(190, 190, 190); fill-opacity: 1;"/></g><g class="point"><path d="M542.82,93.42V10.25H552.67V93.42Z" style="vector-effect: non-scaling-stroke; opacity: 1; stroke-width: 0px; fill: rgb(190, 190, 190); fill-opacity: 1;"/></g><g class="point"><path d="M555.13,93.42V14.4H564.98V93.42Z" style="vector-effect: non-scaling-stroke; opacity: 1; stroke-width: 0px; fill: rgb(190, 190, 190); fill-opacity: 1;"/></g><g class="point"><path d="M567.44,93.42V30.42H577.28V93.42Z" style="vector-effect: non-scaling-stroke; opacity: 1; stroke-width: 0px; fill: rgb(190, 190, 190); fill-opacity: 1;"/></g><g class="point"><path d="M579.75,93.42V44.87H589.59V93.42Z" style="vector-effect: non-scaling-stroke; opacity: 1; stroke-width: 0px; fill: rgb(190, 190, 190); fill-opacity: 1;"/></g><g class="point"><path d="M592.05,93.42V42.51H601.9V93.42Z" style="vector-effect: non-scaling-stroke; opacity: 1; stroke-width: 0px; fill: rgb(190, 190, 190); fill-opacity: 1;"/></g><g class="point"><path d="M604.36,93.42V40.97H614.21V93.42Z" style="vector-effect: non-scaling-stroke; opacity: 1; stroke-width: 0px; fill: rgb(190, 190, 190); fill-opacity: 1;"/></g><g class="point"><path d="M616.67,93.42V45.16H626.52V93.42Z" style="vector-effect: non-scaling-stroke; opacity: 1; stroke-width: 0px; fill: rgb(190, 190, 190); fill-opacity: 1;"/></g><g class="point"><path d="M628.98,93.42V56.43H638.83V93.42Z" style="vector-effect: non-scaling-stroke; opacity: 1; stroke-width: 0px; fill: rgb(190, 190, 190); fill-opacity: 1;"/></g><g class="point"><path d="M641.29,93.42V56.3H651.14V93.42Z" style="vector-effect: non-scaling-stroke; opacity: 1; stroke-width: 0px; fill: rgb(190, 190, 190); fill-opacity: 1;"/></g><g class="point"><path d="M653.6,93.42V58.85H663.45V93.42Z" style="vector-effect: non-scaling-stroke; opacity: 1; stroke-width: 0px; fill: rgb(190, 190, 190); fill-opacity: 1;"/></g><g class="point"><path d="M665.91,93.42V61.38H675.75V93.42Z" style="vector-effect: non-scaling-stroke; opacity: 1; stroke-width: 0px; fill: rgb(190, 190, 190); fill-opacity: 1;"/></g><g class="point"><path d="M678.22,93.42V67.08H688.06V93.42Z" style="vector-effect: non-scaling-stroke; opacity: 1; stroke-width: 0px; fill: rgb(190, 190, 190); fill-opacity: 1;"/></g><g class="point"><path d="M690.53,93.42V59.55H700.37V93.42Z" style="vector-effect: non-scaling-stroke; opacity: 1; stroke-width: 0px; fill: rgb(190, 190, 190); fill-opacity: 1;"/></g><g class="point"><path d="M702.83,93.42V65.76H712.68V93.42Z" style="vector-effect: non-scaling-stroke; opacity: 1; stroke-width: 0px; fill: rgb(190, 190, 190); fill-opacity: 1;"/></g><g class="point"><path d="M715.14,93.42V15.45H724.99V93.42Z" style="vector-effect: non-scaling-stroke; opacity: 1; stroke-width: 0px; fill: rgb(190, 190, 190); fill-opacity: 1;"/></g><g class="point"><path d="M727.45,93.42V27.83H737.3V93.42Z" style="vector-effect: non-scaling-stroke; opacity: 1; stroke-width: 0px; fill: rgb(190, 190, 190); fill-opacity: 1;"/></g><g class="point"><path d="M739.76,93.42V32.96H749.61V93.42Z" style="vector-effect: non-scaling-stroke; opacity: 1; stroke-width: 0px; fill: rgb(190, 190, 190); fill-opacity: 1;"/></g><g class="point"><path d="M752.07,93.42V39.12H761.92V93.42Z" style="vector-effect: non-scaling-stroke; opacity: 1; stroke-width: 0px; fill: rgb(190, 190, 190); fill-opacity: 1;"/></g><g class="point"><path d="M764.38,93.42V38.65H774.23V93.42Z" style="vector-effect: non-scaling-stroke; opacity: 1; stroke-width: 0px; fill: rgb(190, 190, 190); fill-opacity: 1;"/></g><g class="point"><path d="M776.69,93.42V45.7H786.53V93.42Z" style="vector-effect: non-scaling-stroke; opacity: 1; stroke-width: 0px; fill: rgb(190, 190, 190); fill-opacity: 1;"/></g><g class="point"><path d="M789,93.42V42.2H798.84V93.42Z" style="vector-effect: non-scaling-stroke; opacity: 1; stroke-width: 0px; fill: rgb(190, 190, 190); fill-opacity: 1;"/></g><g class="point"><path d="M801.3,93.42V51.89H811.15V93.42Z" style="vector-effect: non-scaling-stroke; opacity: 1; stroke-width: 0px; fill: rgb(190, 190, 190); fill-opacity: 1;"/></g><g class="point"><path d="M813.61,93.42V57.78H823.46V93.42Z" style="vector-effect: non-scaling-stroke; opacity: 1; stroke-width: 0px; fill: rgb(190, 190, 190); fill-opacity: 1;"/></g><g class="point"><path d="M825.92,93.42V57.88H835.77V93.42Z" style="vector-effect: non-scaling-stroke; opacity: 1; stroke-width: 0px; fill: rgb(190, 190, 190); fill-opacity: 1;"/></g></g></g></g></g><g class="overplot"/><path class="xlines-above crisp" d="M0,0" style="fill: none;"/><path class="ylines-above crisp" d="M0,0" style="fill: none;"/><g class="overlines-above"/><g class="xaxislayer-above"><g class="xtick"><text text-anchor="middle" x="0" y="556.05" transform="translate(93.39,0)" style="font-family: 'Open Sans', verdana, arial, sans-serif; font-size: 12px; fill: rgb(68, 68, 68); fill-opacity: 1; white-space: pre; opacity: 1;"><tspan class="line" dy="0em" x="0" y="556.05">Sep 13</tspan><tspan class="line" dy="1.3em" x="0" y="556.05">2022</tspan></text></g><g class="xtick"><text text-anchor="middle" x="0" y="556.05" style="font-family: 'Open Sans', verdana, arial, sans-serif; font-size: 12px; fill: rgb(68, 68, 68); fill-opacity: 1; white-space: pre; opacity: 1;" transform="translate(204.17,0)">Sep 26</text></g><g class="xtick"><text text-anchor="middle" x="0" y="556.05" style="font-family: 'Open Sans', verdana, arial, sans-serif; font-size: 12px; fill: rgb(68, 68, 68); fill-opacity: 1; white-space: pre; opacity: 1;" transform="translate(314.95,0)">Oct 11</text></g><g class="xtick"><text text-anchor="middle" x="0" y="556.05" style="font-family: 'Open Sans', verdana, arial, sans-serif; font-size: 12px; fill: rgb(68, 68, 68); fill-opacity: 1; white-space: pre; opacity: 1;" transform="translate(425.73,0)">Oct 24</text></g><g class="xtick"><text text-anchor="middle" x="0" y="556.05" style="font-family: 'Open Sans', verdana, arial, sans-serif; font-size: 12px; fill: rgb(68, 68, 68); fill-opacity: 1; white-space: pre; opacity: 1;" transform="translate(548.8199999999999,0)">Nov 7</text></g><g class="xtick"><text text-anchor="middle" x="0" y="556.05" style="font-family: 'Open Sans', verdana, arial, sans-serif; font-size: 12px; fill: rgb(68, 68, 68); fill-opacity: 1; white-space: pre; opacity: 1;" transform="translate(671.9,0)">Nov 21</text></g><g class="xtick"><text text-anchor="middle" x="0" y="556.05" style="font-family: 'Open Sans', verdana, arial, sans-serif; font-size: 12px; fill: rgb(68, 68, 68); fill-opacity: 1; white-space: pre; opacity: 1;" transform="translate(794.99,0)">Dec 5</text></g></g><g class="yaxislayer-above"><g class="y2tick"><text text-anchor="end" x="37" y="4.199999999999999" transform="translate(0,543.05)" style="font-family: 'Open Sans', verdana, arial, sans-serif; font-size: 12px; fill: rgb(68, 68, 68); fill-opacity: 1; white-space: pre; opacity: 1;">0</text></g><g class="y2tick"><text text-anchor="end" x="37" y="4.199999999999999" style="font-family: 'Open Sans', verdana, arial, sans-serif; font-size: 12px; fill: rgb(68, 68, 68); fill-opacity: 1; white-space: pre; opacity: 1;" transform="translate(0,523.33)">5M</text></g><g class="y2tick"><text text-anchor="end" x="37" y="4.199999999999999" style="font-family: 'Open Sans', verdana, arial, sans-serif; font-size: 12px; fill: rgb(68, 68, 68); fill-opacity: 1; white-space: pre; opacity: 1;" transform="translate(0,503.61)">10M</text></g><g class="y2tick"><text text-anchor="end" x="37" y="4.199999999999999" style="font-family: 'Open Sans', verdana, arial, sans-serif; font-size: 12px; fill: rgb(68, 68, 68); fill-opacity: 1; white-space: pre; opacity: 1;" transform="translate(0,483.89)">15M</text></g><g class="y2tick"><text text-anchor="end" x="37" y="4.199999999999999" style="font-family: 'Open Sans', verdana, arial, sans-serif; font-size: 12px; fill: rgb(68, 68, 68); fill-opacity: 1; white-space: pre; opacity: 1;" transform="translate(0,464.17)">20M</text></g></g><g class="overaxes-above"/></g></g><g class="polarlayer"/><g class="ternarylayer"/><g class="geolayer"/><g class="funnelarealayer"/><g class="pielayer"/><g class="iciclelayer"/><g class="treemaplayer"/><g class="sunburstlayer"/><g class="glimages"/><defs id="topdefs-aa4446"><g class="clips"/></defs><g class="layer-above"><g class="imagelayer"/><g class="shapelayer"/></g><g class="infolayer"><g class="g-gtitle"><text class="gtitle" x="450" y="25" text-anchor="middle" dy="0em" style="font-family: 'Open Sans', verdana, arial, sans-serif; font-size: 17px; fill: rgb(68, 68, 68); opacity: 1; font-weight: normal; white-space: pre;">삼성전자 Candlestick Chart</text></g><g class="g-xtitle"><text class="xtitle" x="456.5" y="595.05" text-anchor="middle" style="font-family: 'Open Sans', verdana, arial, sans-serif; font-size: 14px; fill: rgb(68, 68, 68); opacity: 1; font-weight: normal; white-space: pre;">date</text></g><g class="g-ytitle"/><g class="g-y2title"/></g></svg>