<svg class="main-svg" xmlns="http://www.w3.org/2000/svg" xmlns:xlink="http://www.w3.org/1999/xlink" width="900" height="600" style="" viewBox="0 0 900 600"><rect x="0" y="0" width="900" height="600" style="fill: rgb(255, 255, 255); fill-opacity: 1;"/><defs id="defs-016d2a"><g class="clips"><clipPath id="clip016d2axyplot" class="plotclip"><rect width="832" height="228.14999999999998"/></clipPath><clipPath id="clip016d2ax2y2plot" class="plotclip"><rect width="832" height="228.15"/></clipPath><clipPath class="axesclip" id="clip016d2ax"><rect x="43" y="0" width="832" height="600"/></clipPath><clipPath class="axesclip" id="clip016d2ay"><rect x="0" y="50" width="900" height="228.14999999999998"/></clipPath><clipPath class="axesclip" id="clip016d2axy"><rect x="43" y="50" width="832" height="228.14999999999998"/></clipPath><clipPath class="axesclip" id="clip016d2ay2"><rect x="0" y="328.85" width="900" height="228.15"/></clipPath><clipPath class="axesclip" id="clip016d2axy2"><rect x="43" y="328.85" width="832" height="228.15"/></clipPath><clipPath class="axesclip" id="clip016d2ax2"><rect x="43" y="0" width="832" height="600"/></clipPath><clipPath class="axesclip" id="clip016d2ax2y"><rect x="43" y="50" width="832" height="228.14999999999998"/></clipPath><clipPath class="axesclip" id="clip016d2ax2y2"><rect x="43" y="328.85" width="832" height="228.15"/></clipPath></g><g class="gradients"/><g class="patterns"/></defs><g class="bglayer"/><g class="layer-below"><g class="imagelayer"/><g class="shapelayer"/></g><g class="cartesianlayer"><g class="subplot xy"><g class="layer-subplot"><g class="shapelayer"/><g class="imagelayer"/></g><g class="gridlayer"><g class="x"><path class="xgrid crisp" transform="translate(110.23,0)" d="M0,50v228.14999999999998" style="stroke: rgb(238, 238, 238); stroke-opacity: 1; stroke-width: 1px;"/><path class="xgrid crisp" transform="translate(227.89,0)" d="M0,50v228.14999999999998" style="stroke: rgb(238, 238, 238); stroke-opacity: 1; stroke-width: 1px;"/><path class="xgrid crisp" transform="translate(345.55,0)" d="M0,50v228.14999999999998" style="stroke: rgb(238, 238, 238); stroke-opacity: 1; stroke-width: 1px;"/><path class="xgrid crisp" transform="translate(463.2,0)" d="M0,50v228.14999999999998" style="stroke: rgb(238, 238, 238); stroke-opacity: 1; stroke-width: 1px;"/><path class="xgrid crisp" transform="translate(580.86,0)" d="M0,50v228.14999999999998" style="stroke: rgb(238, 238, 238); stroke-opacity: 1; stroke-width: 1px;"/><path class="xgrid crisp" transform="translate(698.52,0)" d="M0,50v228.14999999999998" style="stroke: rgb(238, 238, 238); stroke-opacity: 1; stroke-width: 1px;"/><path class="xgrid crisp" transform="translate(816.17,0)" d="M0,50v228.14999999999998" style="stroke: rgb(238, 238, 238); stroke-opacity: 1; stroke-width: 1px;"/></g><g class="y"><path class="ygrid crisp" transform="translate(0,204.65)" d="M43,0h832" style="stroke: rgb(238, 238, 238); stroke-opacity: 1; stroke-width: 1px;"/><path class="ygrid crisp" transform="translate(0,142.55)" d="M43,0h832" style="stroke: rgb(238, 238, 238); stroke-opacity: 1; stroke-width: 1px;"/><path class="ygrid crisp" transform="translate(0,80.45)" d="M43,0h832" style="stroke: rgb(238, 238, 238); stroke-opacity: 1; stroke-width: 1px;"/></g></g><g class="zerolinelayer"><path class="yzl zl crisp" transform="translate(0,266.74)" d="M43,0h832" style="stroke: rgb(68, 68, 68); stroke-opacity: 1; stroke-width: 1px;"/></g><path class="xlines-below"/><path class="ylines-below"/><g class="overlines-below"/><g class="xaxislayer-below"/><g class="yaxislayer-below"/><g class="overaxes-below"/><g class="plot" transform="translate(43,50)" clip-path="url(#clip016d2axyplot)"><g class="scatterlayer mlayer"><g class="trace scatter trace42f419" style="stroke-miterlimit: 2; opacity: 1;"><g class="fills"/><g class="errorbars"/><g class="lines"><path class="js-line" d="M0,127.15L8.4,170.11L16.81,92.88L33.62,126.58L42.02,130.57L50.42,163.68L58.83,181.7L67.23,170.87L75.64,145.57L84.04,216.74L92.44,11.41L100.85,152.37L109.25,162.84L117.66,173.57L126.06,192.64L134.46,157.3L142.87,165.54L151.27,175.79L159.68,180.63L168.08,180.34L176.48,184.71L184.89,199.15L193.29,167.85L201.7,171.88L210.1,178.43L218.51,181.39L226.91,183.32L235.31,187.44L243.72,201.65L252.12,196.35L260.53,173.64L277.33,189.1L285.74,192.68L294.14,194.82L302.55,205.59L310.95,197.52L319.35,178.86L336.16,187.48L344.57,188.48L352.97,190.08L361.37,203.03L369.78,175.52L378.18,180.13L386.59,185.24L394.99,186.06L403.39,183.43L411.8,184.13L420.2,198.98L428.61,162.45L437.01,166.07L445.41,173.34L462.22,170.42L470.63,173.88L479.03,193.75L487.43,144.27L495.84,148.76L504.24,158.53L512.65,162.81L521.05,165.99L529.45,171.19L537.86,193.55L546.26,139.4L554.67,139.16L563.07,147.98L571.47,149.03L579.88,149.4L588.28,156.55L596.69,187.23L605.09,126.23L613.49,134.05L621.9,147.89L630.3,155.37L638.71,154.11L647.11,159.6L655.52,188.07L663.92,126.24L672.32,129.41L680.73,143.36L689.13,150.05L697.54,151.36L705.94,158.34L714.34,189.01L722.75,127.97L731.15,133.02L739.56,145.85L747.96,150.94L756.36,151.26L764.77,158.91L773.17,187.98L781.58,120.36L789.98,123.95L798.38,135.7L806.79,138.83L815.19,138.99L823.6,149.28L832,184.87" style="vector-effect: non-scaling-stroke; fill: none; stroke: rgb(0, 0, 139); stroke-opacity: 1; stroke-width: 2px; opacity: 1;"/></g><g class="points"/><g class="text"/></g></g></g><g class="overplot"/><path class="xlines-above crisp" d="M0,0" style="fill: none;"/><path class="ylines-above crisp" d="M0,0" style="fill: none;"/><g class="overlines-above"/><g class="xaxislayer-above"><g class="xtick"><text text-anchor="middle" x="0" y="291.15" transform="translate(110.23,0)" style="font-family: 'Open Sans', verdana, arial, sans-serif; font-size: 12px; fill: rgb(68, 68, 68); fill-opacity: 1; white-space: pre; opacity: 1;"><tspan class="line" dy="0em" x="0" y="291.15">Sep 11</tspan><tspan class="line" dy="1.3em" x="0" y="291.15">2022</tspan></text></g><g class="xtick"><text text-anchor="middle" x="0" y="291.15" style="font-family: 'Open Sans', verdana, arial, sans-serif; font-size: 12px; fill: rgb(68, 68, 68); fill-opacity: 1; white-space: pre; opacity: 1;" transform="translate(227.89,0)">Sep 25</text></g><g class="xtick"><text text-anchor="middle" x="0" y="291.15" style="font-family: 'Open Sans', verdana, arial, sans-serif; font-size: 12px; fill: rgb(68, 68, 68); fill-opacity: 1; white-space: pre; opacity: 1;" transform="translate(345.55,0)">Oct 9</text></g><g class="xtick"><text text-anchor="middle" x="0" y="291.15" style="font-family: 'Open Sans', verdana, arial, sans-serif; font-size: 12px; fill: rgb(68, 68, 68); fill-opacity: 1; white-space: pre; opacity: 1;" transform="translate(463.2,0)">Oct 23</text></g><g class="xtick"><text text-anchor="middle" x="0" y="291.15" style="font-family: 'Open Sans', verdana, arial, sans-serif; font-size: 12px; fill: rgb(68, 68, 68); fill-opacity: 1; white-space: pre; opacity: 1;" transform="translate(580.86,0)">Nov 6</text></g><g class="xtick"><text text-anchor="middle" x="0" y="291.15" style="font-family: 'Open Sans', verdana, arial, sans-serif; font-size: 12px; fill: rgb(68, 68, 68); fill-opacity: 1; white-space: pre; opacity: 1;" transform="translate(698.52,0)">Nov 20</text></g><g class="xtick"><text text-anchor="middle" x="0" y="291.15" style="font-family: 'Open Sans', verdana, arial, sans-serif; font-size: 12px; fill: rgb(68, 68, 68); fill-opacity: 1; white-space: pre; opacity: 1;" transform="translate(816.17,0)">Dec 4</text></g></g><g class="yaxislayer-above"><g class="ytick"><text text-anchor="end" x="42" y="4.199999999999999" transform="translate(0,266.74)" style="font-family: 'Open Sans', verdana, arial, sans-serif; font-size: 12px; fill: rgb(68, 68, 68); fill-opacity: 1; white-space: pre; opacity: 1;">0</text></g><g class="ytick"><text text-anchor="end" x="42" y="4.199999999999999" style="font-family: 'Open Sans', verdana, arial, sans-serif; font-size: 12px; fill: rgb(68, 68, 68); fill-opacity: 1; white-space: pre; opacity: 1;" transform="translate(0,204.65)">50k</text></g><g class="ytick"><text text-anchor="end" x="42" y="4.199999999999999" style="font-family: 'Open Sans', verdana, arial, sans-serif; font-size: 12px; fill: rgb(68, 68, 68); fill-opacity: 1; white-space: pre; opacity: 1;" transform="translate(0,142.55)">100k</text></g><g class="ytick"><text text-anchor="end" x="42" y="4.199999999999999" style="font-family: 'Open Sans', verdana, arial, sans-serif; font-size: 12px; fill: rgb(68, 68, 68); fill-opacity: 1; white-space: pre; opacity: 1;" transform="translate(0,80.45)">150k</text></g></g><g class="overaxes-above"/></g><g class="subplot x2y2"><g class="layer-subplot"><g class="shapelayer"/><g class="imagelayer"/></g><g class="gridlayer"><g class="x2"><path class="x2grid crisp" transform="translate(114.31,0)" d="M0,328.85v228.15" style="stroke: rgb(238, 238, 238); stroke-opacity: 1; stroke-width: 1px;"/><path class="x2grid crisp" transform="translate(233.17,0)" d="M0,328.85v228.15" style="stroke: rgb(238, 238, 238); stroke-opacity: 1; stroke-width: 1px;"/><path class="x2grid crisp" transform="translate(352.03,0)" d="M0,328.85v228.15" style="stroke: rgb(238, 238, 238); stroke-opacity: 1; stroke-width: 1px;"/><path class="x2grid crisp" transform="translate(470.89,0)" d="M0,328.85v228.15" style="stroke: rgb(238, 238, 238); stroke-opacity: 1; stroke-width: 1px;"/><path class="x2grid crisp" transform="translate(589.74,0)" d="M0,328.85v228.15" style="stroke: rgb(238, 238, 238); stroke-opacity: 1; stroke-width: 1px;"/><path class="x2grid crisp" transform="translate(708.6,0)" d="M0,328.85v228.15" style="stroke: rgb(238, 238, 238); stroke-opacity: 1; stroke-width: 1px;"/><path class="x2grid crisp" transform="translate(827.46,0)" d="M0,328.85v228.15" style="stroke: rgb(238, 238, 238); stroke-opacity: 1; stroke-width: 1px;"/></g><g class="y2"><path class="y2grid crisp" transform="translate(0,483.5)" d="M43,0h832" style="stroke: rgb(238, 238, 238); stroke-opacity: 1; stroke-width: 1px;"/><path class="y2grid crisp" transform="translate(0,421.40000000000003)" d="M43,0h832" style="stroke: rgb(238, 238, 238); stroke-opacity: 1; stroke-width: 1px;"/><path class="y2grid crisp" transform="translate(0,359.3)" d="M43,0h832" style="stroke: rgb(238, 238, 238); stroke-opacity: 1; stroke-width: 1px;"/></g></g><g class="zerolinelayer"><path class="y2zl zl crisp" transform="translate(0,545.59)" d="M43,0h832" style="stroke: rgb(68, 68, 68); stroke-opacity: 1; stroke-width: 1px;"/></g><path class="xlines-below"/><path class="ylines-below"/><g class="overlines-below"/><g class="xaxislayer-below"/><g class="yaxislayer-below"/><g class="overaxes-below"/><g class="plot" transform="translate(43,328.85)" clip-path="url(#clip016d2ax2y2plot)"><g class="scatterlayer mlayer"><g class="trace scatter tracec08fdc" style="stroke-miterlimit: 2; opacity: 1;"><g class="fills"/><g class="errorbars"/><g class="lines"><path class="js-line" d="M0,127.15L11.89,110.58L23.77,126.58L35.66,130.57L47.54,163.68L59.43,181.7L71.31,216.74L83.2,11.41L95.09,152.37L118.86,173.57L130.74,165.54L142.63,175.79L154.51,180.63L166.4,180.34L178.29,184.71L190.17,171.88L202.06,178.43L213.94,181.39L225.83,183.32L237.71,187.44L249.6,173.64L273.37,189.1L285.26,192.68L297.14,194.82L309.03,178.86L332.8,187.48L344.69,188.48L356.57,190.08L368.46,180.13L380.34,185.24L392.23,186.06L404.11,183.43L416,184.13L427.89,166.07L439.77,173.34L463.54,170.42L475.43,173.88L487.31,148.76L499.2,158.53L511.09,162.81L522.97,165.99L534.86,171.19L546.74,139.16L558.63,147.98L570.51,149.03L582.4,149.4L594.29,156.55L606.17,134.05L618.06,147.89L629.94,155.37L641.83,154.11L653.71,159.6L665.6,129.41L677.49,143.36L689.37,150.05L701.26,151.36L713.14,158.34L725.03,133.02L736.91,145.85L748.8,150.94L760.69,151.26L772.57,158.91L784.46,123.95L796.34,135.7L808.23,138.83L820.11,138.99L832,149.28" style="vector-effect: non-scaling-stroke; fill: none; stroke: rgb(0, 0, 139); stroke-opacity: 1; stroke-width: 2px; opacity: 1;"/></g><g class="points"/><g class="text"/></g></g></g><g class="overplot"/><path class="xlines-above crisp" d="M0,0" style="fill: none;"/><path class="ylines-above crisp" d="M0,0" style="fill: none;"/><g class="overlines-above"/><g class="xaxislayer-above"><g class="x2tick"><text text-anchor="middle" x="0" y="570" transform="translate(114.31,0)" style="font-family: 'Open Sans', verdana, arial, sans-serif; font-size: 12px; fill: rgb(68, 68, 68); fill-opacity: 1; white-space: pre; opacity: 1;"><tspan class="line" dy="0em" x="0" y="570">Sep 13</tspan><tspan class="line" dy="1.3em" x="0" y="570">2022</tspan></text></g><g class="x2tick"><text text-anchor="middle" x="0" y="570" style="font-family: 'Open Sans', verdana, arial, sans-serif; font-size: 12px; fill: rgb(68, 68, 68); fill-opacity: 1; white-space: pre; opacity: 1;" transform="translate(233.17,0)">Sep 27</text></g><g class="x2tick"><text text-anchor="middle" x="0" y="570" style="font-family: 'Open Sans', verdana, arial, sans-serif; font-size: 12px; fill: rgb(68, 68, 68); fill-opacity: 1; white-space: pre; opacity: 1;" transform="translate(352.03,0)">Oct 11</text></g><g class="x2tick"><text text-anchor="middle" x="0" y="570" style="font-family: 'Open Sans', verdana, arial, sans-serif; font-size: 12px; fill: rgb(68, 68, 68); fill-opacity: 1; white-space: pre; opacity: 1;" transform="translate(470.89,0)">Oct 25</text></g><g class="x2tick"><text text-anchor="middle" x="0" y="570" style="font-family: 'Open Sans', verdana, arial, sans-serif; font-size: 12px; fill: rgb(68, 68, 68); fill-opacity: 1; white-space: pre; opacity: 1;" transform="translate(589.74,0)">Nov 8</text></g><g class="x2tick"><text text-anchor="middle" x="0" y="570" style="font-family: 'Open Sans', verdana, arial, sans-serif; font-size: 12px; fill: rgb(68, 68, 68); fill-opacity: 1; white-space: pre; opacity: 1;" transform="translate(708.6,0)">Nov 22</text></g><g class="x2tick"><text text-anchor="middle" x="0" y="570" style="font-family: 'Open Sans', verdana, arial, sans-serif; font-size: 12px; fill: rgb(68, 68, 68); fill-opacity: 1; white-space: pre; opacity: 1;" transform="translate(827.46,0)">Dec 6</text></g></g><g class="yaxislayer-above"><g class="y2tick"><text text-anchor="end" x="42" y="4.199999999999999" transform="translate(0,545.59)" style="font-family: 'Open Sans', verdana, arial, sans-serif; font-size: 12px; fill: rgb(68, 68, 68); fill-opacity: 1; white-space: pre; opacity: 1;">0</text></g><g class="y2tick"><text text-anchor="end" x="42" y="4.199999999999999" style="font-family: 'Open Sans', verdana, arial, sans-serif; font-size: 12px; fill: rgb(68, 68, 68); fill-opacity: 1; white-space: pre; opacity: 1;" transform="translate(0,483.5)">50k</text></g><g class="y2tick"><text text-anchor="end" x="42" y="4.199999999999999" style="font-family: 'Open Sans', verdana, arial, sans-serif; font-size: 12px; fill: rgb(68, 68, 68); fill-opacity: 1; white-space: pre; opacity: 1;" transform="translate(0,421.40000000000003)">100k</text></g><g class="y2tick"><text text-anchor="end" x="42" y="4.199999999999999" style="font-family: 'Open Sans', verdana, arial, sans-serif; font-size: 12px; fill: rgb(68, 68, 68); fill-opacity: 1; white-space: pre; opacity: 1;" transform="translate(0,359.3)">150k</text></g></g><g class="overaxes-above"/></g></g><g class="polarlayer"/><g class="ternarylayer"/><g class="geolayer"/><g class="funnelarealayer"/><g class="pielayer"/><g class="iciclelayer"/><g class="treemaplayer"/><g class="sunburstlayer"/><g class="glimages"/><defs id="topdefs-016d2a"><g class="clips"/></defs><g class="layer-above"><g class="imagelayer"/><g class="shapelayer"/></g><g class="infolayer"><g class="g-gtitle"><text class="gtitle" x="450" y="25" text-anchor="middle" dy="0em" style="font-family: 'Open Sans', verdana, arial, sans-serif; font-size: 17px; fill: rgb(68, 68, 68); opacity: 1; font-weight: normal; white-space: pre;">우리나라의 코로나19 확진자수 추세</text></g><g class="g-xtitle"/><g class="g-x2title"/><g class="g-ytitle"/><g class="g-y2title"/><g class="annotation" data-index="0" style="opacity: 1;"><g class="annotation-text-g" transform="rotate(0,459,48.092500000000015)"><g class="cursor-pointer" transform="translate(393,39)"><rect class="bg" x="0.5" y="0.5" width="131" height="18" style="stroke-width: 1px; stroke: rgb(0, 0, 0); stroke-opacity: 0; fill: rgb(0, 0, 0); fill-opacity: 0;"/><text class="annotation-text" text-anchor="middle" x="66.2021484375" y="13.8125" style="font-family: 'Open Sans', verdana, arial, sans-serif; font-size: 12px; fill: rgb(68, 68, 68); fill-opacity: 1; white-space: pre;">주말이 포함된 확진자수</text></g></g></g><g class="annotation" data-index="1" style="opacity: 1;"><g class="annotation-text-g" transform="rotate(0,459,317.44250000000005)"><g class="cursor-pointer" transform="translate(393,308)"><rect class="bg" x="0.5" y="0.5" width="131" height="18" style="stroke-width: 1px; stroke: rgb(0, 0, 0); stroke-opacity: 0; fill: rgb(0, 0, 0); fill-opacity: 0;"/><text class="annotation-text" text-anchor="middle" x="66.2021484375" y="13.8125" style="font-family: 'Open Sans', verdana, arial, sans-serif; font-size: 12px; fill: rgb(68, 68, 68); fill-opacity: 1; white-space: pre;">주말이 제거된 확진자수</text></g></g></g></g></svg>