<svg class="main-svg" xmlns="http://www.w3.org/2000/svg" xmlns:xlink="http://www.w3.org/1999/xlink" width="900" height="600" style="" viewBox="0 0 900 600"><rect x="0" y="0" width="900" height="600" style="fill: rgb(255, 255, 255); fill-opacity: 1;"/><defs id="defs-549419"><g class="clips"/><g class="gradients"/><g class="patterns"/></defs><g class="bglayer"/><g class="layer-below"><g class="imagelayer"/><g class="shapelayer"/></g><g class="cartesianlayer"/><g class="polarlayer"/><g class="ternarylayer"/><g class="geolayer"/><g class="funnelarealayer"/><g class="pielayer"/><g class="iciclelayer"/><g class="treemaplayer"/><g class="sunburstlayer"/><g class="glimages"/><g class="sankey" transform="translate(25,50)matrix(1 0 0 1 0 0)" style="box-sizing: content-box; position: absolute; left: 0px; shape-rendering: geometricPrecision; pointer-events: auto;"><g class="sankey-links" style="fill: none;"><path class="sankey-link" d="M20,337.64614538275725C425,337.64614538275725 425,142.63311911127005 830,142.63311911127005L830,227.39263905268865C425,227.39263905268865 425,422.40566532417586 20,422.40566532417586Z" style="stroke: rgb(68, 68, 68); stroke-opacity: 1; fill: rgb(0, 0, 0); fill-opacity: 0.2; stroke-width: 0; opacity: 1;"/><path class="sankey-link" d="M20,460.2658886474574C425,460.2658886474574 425,446.65130989463074 830,446.65130989463074L830,455.94809361988683C425,455.94809361988683 425,469.5626723727135 20,469.5626723727135Z" style="stroke: rgb(68, 68, 68); stroke-opacity: 1; fill: rgb(0, 0, 0); fill-opacity: 0.2; stroke-width: 0; opacity: 1;"/><path class="sankey-link" d="M20,471.18256650665955C425,471.18256650665955 425,493.4240971303565 830,493.4240971303565L830,493.48252216582C425,493.48252216582 425,471.2409915421231 20,471.2409915421231Z" style="stroke: rgb(0, 0, 0); stroke-opacity: 0.2; fill: rgb(0, 0, 0); fill-opacity: 0.2; stroke-width: 1; opacity: 1;"/><path class="sankey-link" d="M20,471.240991542123C425,471.240991542123 425,517.308704235562 830,517.308704235562L830,518.5796488426305C425,518.5796488426305 425,472.5119361491914 20,472.5119361491914Z" style="stroke: rgb(68, 68, 68); stroke-opacity: 1; fill: rgb(0, 0, 0); fill-opacity: 0.2; stroke-width: 0; opacity: 1;"/><path class="sankey-link" d="M20,469.56267237271345C425,469.56267237271345 425,476.3464068281213 830,476.3464068281213L830,477.9663009620674C425,477.9663009620674 425,471.18256650665955 20,471.18256650665955Z" style="stroke: rgb(68, 68, 68); stroke-opacity: 1; fill: rgb(0, 0, 0); fill-opacity: 0.2; stroke-width: 0; opacity: 1;"/><path class="sankey-link" d="M20,422.40566532417586C425,422.40566532417586 425,352.13566456982994 830,352.13566456982994L830,388.99786023252307C425,388.99786023252307 425,459.267860986869 20,459.267860986869Z" style="stroke: rgb(68, 68, 68); stroke-opacity: 1; fill: rgb(0, 0, 0); fill-opacity: 0.2; stroke-width: 0; opacity: 1;"/><path class="sankey-link" d="M20,459.26786098686904C425,459.26786098686904 425,412.7592145231887 830,412.7592145231887L830,413.75724218377707C425,413.75724218377707 425,460.2658886474574 20,460.2658886474574Z" style="stroke: rgb(0, 0, 0); stroke-opacity: 0.2; fill: rgb(0, 0, 0); fill-opacity: 0.2; stroke-width: 1; opacity: 1;"/><path class="sankey-link" d="M20,60.00000000000027C425,60.00000000000027 425,3.410605131648481e-13 830,3.410605131648481e-13L830,142.63311911127008C425,142.63311911127008 425,202.63311911127 20,202.63311911127Z" style="stroke: rgb(68, 68, 68); stroke-opacity: 1; fill: rgb(0, 0, 0); fill-opacity: 0.2; stroke-width: 0; opacity: 1;"/><path class="sankey-link" d="M20,293.4032146188622C425,293.4032146188622 425,429.2838678459 830,429.2838678459L830,446.6513098946307C425,446.6513098946307 425,310.7706566675929 20,310.7706566675929Z" style="stroke: rgb(68, 68, 68); stroke-opacity: 1; fill: rgb(0, 0, 0); fill-opacity: 0.2; stroke-width: 0; opacity: 1;"/><path class="sankey-link" d="M20,313.7671406782127C425,313.7671406782127 425,493.35446729357125 830,493.35446729357125L830,493.4240971303565C425,493.4240971303565 425,313.8367705149979 20,313.8367705149979Z" style="stroke: rgb(0, 0, 0); stroke-opacity: 0.2; fill: rgb(0, 0, 0); fill-opacity: 0.2; stroke-width: 1; opacity: 1;"/><path class="sankey-link" d="M20,313.8367705149979C425,313.8367705149979 425,508.49932936780266 830,508.49932936780266L830,517.3087042355621C425,517.3087042355621 425,322.6461453827573 20,322.6461453827573Z" style="stroke: rgb(68, 68, 68); stroke-opacity: 1; fill: rgb(0, 0, 0); fill-opacity: 0.2; stroke-width: 0; opacity: 1;"/><path class="sankey-link" d="M20,310.77065666759296C425,310.77065666759296 425,473.3499228175016 830,473.3499228175016L830,476.3464068281213C425,476.3464068281213 425,313.7671406782127 20,313.7671406782127Z" style="stroke: rgb(68, 68, 68); stroke-opacity: 1; fill: rgb(0, 0, 0); fill-opacity: 0.2; stroke-width: 0; opacity: 1;"/><path class="sankey-link" d="M20,202.63311911127C425,202.63311911127 425,265.05114835414577 830,265.05114835414577L830,352.13566456982994C425,352.13566456982994 425,289.71763532695417 20,289.71763532695417Z" style="stroke: rgb(68, 68, 68); stroke-opacity: 1; fill: rgb(0, 0, 0); fill-opacity: 0.2; stroke-width: 0; opacity: 1;"/><path class="sankey-link" d="M20,289.7176353269541C425,289.7176353269541 425,409.0736352312806 830,409.0736352312806L830,412.7592145231887C425,412.7592145231887 425,293.4032146188622 20,293.4032146188622Z" style="stroke: rgb(68, 68, 68); stroke-opacity: 1; fill: rgb(0, 0, 0); fill-opacity: 0.2; stroke-width: 0; opacity: 1;"/><path class="sankey-link" d="M20,487.51193614919146C425,487.51193614919146 425,227.39263905268865 830,227.39263905268865L830,250.05114835414565C425,250.05114835414565 425,510.17044545064846 20,510.17044545064846Z" style="stroke: rgb(68, 68, 68); stroke-opacity: 1; fill: rgb(0, 0, 0); fill-opacity: 0.2; stroke-width: 0; opacity: 1;"/><path class="sankey-link" d="M20,515.7728461115294C425,515.7728461115294 425,455.9480936198868 830,455.9480936198868L830,458.3499228175016C425,458.3499228175016 425,518.174675309144 20,518.174675309144Z" style="stroke: rgb(68, 68, 68); stroke-opacity: 1; fill: rgb(0, 0, 0); fill-opacity: 0.2; stroke-width: 0; opacity: 1;"/><path class="sankey-link" d="M20,518.562841640648C425,518.562841640648 425,493.48252216581994 830,493.48252216581994L830,493.49932936780255C425,493.49932936780255 425,518.5796488426306 20,518.5796488426306Z" style="stroke: rgb(0, 0, 0); stroke-opacity: 0.2; fill: rgb(0, 0, 0); fill-opacity: 0.2; stroke-width: 1; opacity: 1;"/><path class="sankey-link" d="M20,518.5796488426306C425,518.5796488426306 425,518.5796488426304 830,518.5796488426304L830,524.9999999999998C425,524.9999999999998 425,525 20,525Z" style="stroke: rgb(68, 68, 68); stroke-opacity: 1; fill: rgb(0, 0, 0); fill-opacity: 0.2; stroke-width: 0; opacity: 1;"/><path class="sankey-link" d="M20,518.1746753091442C425,518.1746753091442 425,477.9663009620674 830,477.9663009620674L830,478.35446729357125C425,478.35446729357125 425,518.5628416406481 20,518.5628416406481Z" style="stroke: rgb(0, 0, 0); stroke-opacity: 0.2; fill: rgb(0, 0, 0); fill-opacity: 0.2; stroke-width: 1; opacity: 1;"/><path class="sankey-link" d="M20,510.17044545064846C425,510.17044545064846 425,388.9978602325231 830,388.9978602325231L830,394.07363523128123C425,394.07363523128123 425,515.2462204494066 20,515.2462204494066Z" style="stroke: rgb(68, 68, 68); stroke-opacity: 1; fill: rgb(0, 0, 0); fill-opacity: 0.2; stroke-width: 0; opacity: 1;"/><path class="sankey-link" d="M20,515.2462204494066C425,515.2462204494066 425,413.75724218377707 830,413.75724218377707L830,414.28386784589986C425,414.28386784589986 425,515.7728461115294 20,515.7728461115294Z" style="stroke: rgb(0, 0, 0); stroke-opacity: 0.2; fill: rgb(0, 0, 0); fill-opacity: 0.2; stroke-width: 1; opacity: 1;"/></g><g class="sankey-node-set" style="cursor: move;"><g class="sankey-node" transform="translate(0.000,337.646)" style="opacity: 1;"><rect class="node-rect" width="20" height="134.8657907664342" style="stroke-width: 0.5; stroke: rgb(0, 0, 0); stroke-opacity: 1; fill: rgb(173, 216, 230); fill-opacity: 1;"/><text class="node-label" data-notex="1" x="0" y="0" text-anchor="start" transform="translate(23.25,71.6328953832171)" style="cursor: default; font-family: 'Open Sans', verdana, arial, sans-serif; font-size: 12px; fill: rgb(68, 68, 68); fill-opacity: 1; white-space: pre; text-shadow: rgb(255, 255, 255) 1px 1px 1px, rgb(255, 255, 255) -1px -1px 1px, rgb(255, 255, 255) 1px -1px 1px, rgb(255, 255, 255) -1px 1px 1px;">전문대학과정</text></g><g class="sankey-node" transform="translate(0.000,60.000)" style="opacity: 1;"><rect class="node-rect" width="20" height="262.64614538275697" style="stroke-width: 0.5; stroke: rgb(0, 0, 0); stroke-opacity: 1; fill: rgb(173, 216, 230); fill-opacity: 1;"/><text class="node-label" data-notex="1" x="0" y="0" text-anchor="start" transform="translate(23.25,135.52307269137847)" style="cursor: default; font-family: 'Open Sans', verdana, arial, sans-serif; font-size: 12px; fill: rgb(68, 68, 68); fill-opacity: 1; white-space: pre; text-shadow: rgb(255, 255, 255) 1px 1px 1px, rgb(255, 255, 255) -1px -1px 1px, rgb(255, 255, 255) 1px -1px 1px, rgb(255, 255, 255) -1px 1px 1px;">대학과정</text></g><g class="sankey-node" transform="translate(0.000,487.512)" style="opacity: 1;"><rect class="node-rect" width="20" height="37.488063850808544" style="stroke-width: 0.5; stroke: rgb(0, 0, 0); stroke-opacity: 1; fill: rgb(173, 216, 230); fill-opacity: 1;"/><text class="node-label" data-notex="1" x="0" y="0" text-anchor="start" transform="translate(23.25,22.94403192540427)" style="cursor: default; font-family: 'Open Sans', verdana, arial, sans-serif; font-size: 12px; fill: rgb(68, 68, 68); fill-opacity: 1; white-space: pre; text-shadow: rgb(255, 255, 255) 1px 1px 1px, rgb(255, 255, 255) -1px -1px 1px, rgb(255, 255, 255) 1px -1px 1px, rgb(255, 255, 255) -1px 1px 1px;">대학원과정</text></g><g class="sankey-node" transform="translate(830.000,0.000)" style="opacity: 1;"><rect class="node-rect" width="20" height="250.05114835414543" style="stroke-width: 0.5; stroke: rgb(0, 0, 0); stroke-opacity: 1; fill: rgb(0, 0, 139); fill-opacity: 1;"/><text class="node-label" data-notex="1" x="0" y="0" text-anchor="end" transform="translate(-3.25,129.2255741770727)" style="cursor: default; font-family: 'Open Sans', verdana, arial, sans-serif; font-size: 12px; fill: rgb(68, 68, 68); fill-opacity: 1; white-space: pre; text-shadow: rgb(255, 255, 255) 1px 1px 1px, rgb(255, 255, 255) -1px -1px 1px, rgb(255, 255, 255) 1px -1px 1px, rgb(255, 255, 255) -1px 1px 1px;">취업</text></g><g class="sankey-node" transform="translate(830.000,429.284)" style="opacity: 1;"><rect class="node-rect" width="20" height="29.066054971601602" style="stroke-width: 0.5; stroke: rgb(0, 0, 0); stroke-opacity: 1; fill: rgb(0, 0, 139); fill-opacity: 1;"/><text class="node-label" data-notex="1" x="0" y="0" text-anchor="end" transform="translate(-3.25,18.7330274858008)" style="cursor: default; font-family: 'Open Sans', verdana, arial, sans-serif; font-size: 12px; fill: rgb(68, 68, 68); fill-opacity: 1; white-space: pre; text-shadow: rgb(255, 255, 255) 1px 1px 1px, rgb(255, 255, 255) -1px -1px 1px, rgb(255, 255, 255) 1px -1px 1px, rgb(255, 255, 255) -1px 1px 1px;">진학</text></g><g class="sankey-node" transform="translate(830.000,493.354)" style="opacity: 1;"><rect class="node-rect" width="20" height="0.5" style="stroke-width: 0.5; stroke: rgb(0, 0, 0); stroke-opacity: 1; fill: rgb(0, 0, 139); fill-opacity: 1;"/><text class="node-label" data-notex="1" x="0" y="0" text-anchor="end" transform="translate(-3.25,4.449999999999999)" style="cursor: default; font-family: 'Open Sans', verdana, arial, sans-serif; font-size: 12px; fill: rgb(68, 68, 68); fill-opacity: 1; white-space: pre; text-shadow: rgb(255, 255, 255) 1px 1px 1px, rgb(255, 255, 255) -1px -1px 1px, rgb(255, 255, 255) 1px -1px 1px, rgb(255, 255, 255) -1px 1px 1px;">취업불가</text></g><g class="sankey-node" transform="translate(830.000,508.499)" style="opacity: 1;"><rect class="node-rect" width="20" height="16.500670632197398" style="stroke-width: 0.5; stroke: rgb(0, 0, 0); stroke-opacity: 1; fill: rgb(0, 0, 139); fill-opacity: 1;"/><text class="node-label" data-notex="1" x="0" y="0" text-anchor="end" transform="translate(-3.25,12.450335316098698)" style="cursor: default; font-family: 'Open Sans', verdana, arial, sans-serif; font-size: 12px; fill: rgb(68, 68, 68); fill-opacity: 1; white-space: pre; text-shadow: rgb(255, 255, 255) 1px 1px 1px, rgb(255, 255, 255) -1px -1px 1px, rgb(255, 255, 255) 1px -1px 1px, rgb(255, 255, 255) -1px 1px 1px;">외국인</text></g><g class="sankey-node" transform="translate(830.000,473.350)" style="opacity: 1;"><rect class="node-rect" width="20" height="5.004544476069668" style="stroke-width: 0.5; stroke: rgb(0, 0, 0); stroke-opacity: 1; fill: rgb(0, 0, 139); fill-opacity: 1;"/><text class="node-label" data-notex="1" x="0" y="0" text-anchor="end" transform="translate(-3.25,6.702272238034833)" style="cursor: default; font-family: 'Open Sans', verdana, arial, sans-serif; font-size: 12px; fill: rgb(68, 68, 68); fill-opacity: 1; white-space: pre; text-shadow: rgb(255, 255, 255) 1px 1px 1px, rgb(255, 255, 255) -1px -1px 1px, rgb(255, 255, 255) 1px -1px 1px, rgb(255, 255, 255) -1px 1px 1px;">제외인정</text></g><g class="sankey-node" transform="translate(830.000,265.051)" style="opacity: 1;"><rect class="node-rect" width="20" height="129.02248687713484" style="stroke-width: 0.5; stroke: rgb(0, 0, 0); stroke-opacity: 1; fill: rgb(0, 0, 139); fill-opacity: 1;"/><text class="node-label" data-notex="1" x="0" y="0" text-anchor="end" transform="translate(-3.25,68.71124343856742)" style="cursor: default; font-family: 'Open Sans', verdana, arial, sans-serif; font-size: 12px; fill: rgb(68, 68, 68); fill-opacity: 1; white-space: pre; text-shadow: rgb(255, 255, 255) 1px 1px 1px, rgb(255, 255, 255) -1px -1px 1px, rgb(255, 255, 255) 1px -1px 1px, rgb(255, 255, 255) -1px 1px 1px;">기타</text></g><g class="sankey-node" transform="translate(830.000,409.074)" style="opacity: 1;"><rect class="node-rect" width="20" height="5.210232614619372" style="stroke-width: 0.5; stroke: rgb(0, 0, 0); stroke-opacity: 1; fill: rgb(0, 0, 139); fill-opacity: 1;"/><text class="node-label" data-notex="1" x="0" y="0" text-anchor="end" transform="translate(-3.25,6.805116307309685)" style="cursor: default; font-family: 'Open Sans', verdana, arial, sans-serif; font-size: 12px; fill: rgb(68, 68, 68); fill-opacity: 1; white-space: pre; text-shadow: rgb(255, 255, 255) 1px 1px 1px, rgb(255, 255, 255) -1px -1px 1px, rgb(255, 255, 255) 1px -1px 1px, rgb(255, 255, 255) -1px 1px 1px;">미상</text></g></g></g><defs id="topdefs-549419"><g class="clips"/></defs><g class="layer-above"><g class="imagelayer"/><g class="shapelayer"/></g><g class="infolayer"><g class="g-gtitle"><text class="gtitle" x="450" y="25" text-anchor="middle" dy="0em" style="font-family: 'Open Sans', verdana, arial, sans-serif; font-size: 17px; fill: rgb(68, 68, 68); opacity: 1; font-weight: normal; white-space: pre;">대학과정별 졸업자의 졸업 후 진로</text></g><g class="first-render"/></g></svg>