<svg class="main-svg" xmlns="http://www.w3.org/2000/svg" xmlns:xlink="http://www.w3.org/1999/xlink" width="900" height="600" style="" viewBox="0 0 900 600"><rect x="0" y="0" width="900" height="600" style="fill: rgb(255, 255, 255); fill-opacity: 1;"/><defs id="defs-72636c"><g class="clips"><clipPath id="clip72636cxyplot" class="plotclip"><rect width="817" height="508"/></clipPath><clipPath class="axesclip" id="clip72636cx"><rect x="58" y="0" width="817" height="600"/></clipPath><clipPath class="axesclip" id="clip72636cy"><rect x="0" y="50" width="900" height="508"/></clipPath><clipPath class="axesclip" id="clip72636cxy"><rect x="58" y="50" width="817" height="508"/></clipPath></g><g class="gradients"/><g class="patterns"/></defs><g class="bglayer"/><g class="layer-below"><g class="imagelayer"/><g class="shapelayer"/></g><g class="cartesianlayer"><g class="subplot xy"><g class="layer-subplot"><g class="shapelayer"/><g class="imagelayer"/></g><g class="gridlayer"><g class="x"><path class="xgrid crisp" transform="translate(150.5,0)" d="M0,50v508" style="stroke: rgb(238, 238, 238); stroke-opacity: 1; stroke-width: 1px;"/><path class="xgrid crisp" transform="translate(274.74,0)" d="M0,50v508" style="stroke: rgb(238, 238, 238); stroke-opacity: 1; stroke-width: 1px;"/><path class="xgrid crisp" transform="translate(396.95,0)" d="M0,50v508" style="stroke: rgb(238, 238, 238); stroke-opacity: 1; stroke-width: 1px;"/><path class="xgrid crisp" transform="translate(521.19,0)" d="M0,50v508" style="stroke: rgb(238, 238, 238); stroke-opacity: 1; stroke-width: 1px;"/><path class="xgrid crisp" transform="translate(643.4,0)" d="M0,50v508" style="stroke: rgb(238, 238, 238); stroke-opacity: 1; stroke-width: 1px;"/><path class="xgrid crisp" transform="translate(767.64,0)" d="M0,50v508" style="stroke: rgb(238, 238, 238); stroke-opacity: 1; stroke-width: 1px;"/></g><g class="y"><path class="ygrid crisp" transform="translate(0,461.29)" d="M58,0h817" style="stroke: rgb(238, 238, 238); stroke-opacity: 1; stroke-width: 1px;"/><path class="ygrid crisp" transform="translate(0,389.98)" d="M58,0h817" style="stroke: rgb(238, 238, 238); stroke-opacity: 1; stroke-width: 1px;"/><path class="ygrid crisp" transform="translate(0,318.67)" d="M58,0h817" style="stroke: rgb(238, 238, 238); stroke-opacity: 1; stroke-width: 1px;"/><path class="ygrid crisp" transform="translate(0,247.35)" d="M58,0h817" style="stroke: rgb(238, 238, 238); stroke-opacity: 1; stroke-width: 1px;"/><path class="ygrid crisp" transform="translate(0,176.04000000000002)" d="M58,0h817" style="stroke: rgb(238, 238, 238); stroke-opacity: 1; stroke-width: 1px;"/><path class="ygrid crisp" transform="translate(0,104.72999999999999)" d="M58,0h817" style="stroke: rgb(238, 238, 238); stroke-opacity: 1; stroke-width: 1px;"/></g></g><g class="zerolinelayer"><path class="yzl zl crisp" transform="translate(0,532.6)" d="M58,0h817" style="stroke: rgb(68, 68, 68); stroke-opacity: 1; stroke-width: 1px;"/></g><path class="xlines-below"/><path class="ylines-below"/><g class="overlines-below"/><g class="xaxislayer-below"/><g class="yaxislayer-below"/><g class="overaxes-below"/><g class="plot" transform="translate(58,50)" clip-path="url(#clip72636cxyplot)"><g class="scatterlayer mlayer"><g class="trace scatter trace2a632c" style="stroke-miterlimit: 2; opacity: 1;"><g class="fills"/><g class="errorbars"/><g class="lines"><path class="js-line" d="M0,482.6L22.28,482.09L22.96,481.65L26.33,479.8L27.01,479.03L30.38,475.18L31.06,472.55L32.41,468.91L33.09,466.7L34.44,463.85L35.11,460.87L35.79,459.73L36.46,456.91L38.49,452.32L39.16,451.12L44.56,438.92L45.24,437.78L48.61,433.67L49.29,432.89L51.99,430.52L52.67,430.24L56.72,427.26L57.39,427.11L62.79,423.2L63.47,423.66L69.55,422.31L70.22,422.2L85.08,420.27L85.75,420.25L112.76,418.94L113.43,418.94L133.02,418.21L133.69,418.15L149.9,416.31L150.57,415.99L158.67,414.34L159.35,414.19L168.8,410.64L169.48,410.01L171.5,408.96L172.18,407.85L176.23,403.84L176.9,401.15L177.58,401.22L178.25,400.47L179.6,398.09L180.28,397.52L182.98,392.22L183.66,390.26L185.68,387.81L186.36,385.25L187.71,383.46L188.38,381.07L190.41,379.03L191.08,376.91L192.43,375.4L193.11,373.39L195.13,371.67L195.81,370.04L199.86,365.8L200.54,364.06L204.59,360L205.26,358.34L209.31,354.49L209.99,352.8L214.04,349.85L214.72,347.81L217.42,346.03L218.09,345.79L234.97,325.26L235.65,323.53L237.67,321.66L238.35,320.13L239.7,319.38L240.37,317.26L242.4,315.53L243.07,314.01L247.13,309.64L247.8,308.41L264.01,293.04L264.68,292.68L266.03,291.68L266.71,290.83L272.78,286.18L273.46,284.3L276.16,282.06L276.83,281.42L297.77,262.35L298.44,262.12L302.49,259.05L303.17,258.81L306.54,256.64L307.22,256.4L309.92,255.04L310.6,254.76L322.07,251.21L322.75,251.07L332.2,249.56L332.88,249.45L367.99,245.71L368.66,245.6L372.71,244.34L373.39,244.11L387.57,239.61L388.24,239.55L395.67,237.82L396.35,237.65L402.42,236.92L403.1,236.8L411.2,235.9L411.88,235.89L441.59,231.92L442.26,231.71L450.36,228.67L451.04,228.34L461.84,222.61L462.52,222.22L464.54,221.22L465.22,220.49L472.64,215.63L473.32,215.46L477.37,212.17L478.05,211.93L481.42,208.46L482.1,208.09L483.45,207.06L484.12,206.29L488.17,202.9L488.85,201.44L489.52,201.44L490.2,200.07L496.95,195.17L497.63,195.12L498.98,193.29L499.65,192.7L507.08,189.16L507.76,188.81L514.51,186.24L515.18,186.11L517.88,185.21L518.56,184.97L552.32,172.75L552.99,172.72L555.02,172.09L555.7,171.92L567.17,170.2L567.85,170.2L573.25,169.61L573.93,169.3L596.21,166.11L596.88,165.22L603.63,162.99L604.31,162.81L607.01,162.18L607.69,161.99L619.16,159.61L619.84,159.61L623.89,158.87L624.57,158.87L628.62,158.17L629.29,158.17L635.37,157.32L636.04,157.28L657.65,154.75L658.33,154.4L666.43,152.61L667.1,152.61L670.48,151.67L671.16,151.67L673.86,150.96L674.53,150.84L678.58,150.15L679.26,149.96L695.46,146.76" style="vector-effect: non-scaling-stroke; fill: none; stroke: rgb(158, 202, 225); stroke-opacity: 1; stroke-width: 2px; opacity: 1;"/></g><g class="points"/><g class="text"/></g><g class="trace scatter trace8072d0" style="stroke-miterlimit: 2; opacity: 1;"><g class="fills"/><g class="errorbars"/><g class="lines"><path class="js-line" d="M-1.35,482.6L56.72,481.85L57.39,481.83L94.53,481.48L95.2,481.48L160.7,480.73L161.37,480.72L197.16,480L197.84,479.95L219.44,478.28L220.12,478.2L240.37,475.37L241.05,475.26L282.24,471.86L282.91,471.82L301.14,470.39L301.82,470.22L334.23,465.8L334.9,465.76L386.89,463.38L387.57,463.31L425.38,461.53L426.06,461.53L484.8,460.78L485.47,460.67L494.25,458.45L494.93,458.14L514.51,451.58L515.18,451.47L543.54,448.57L544.22,448.54L591.48,446.43L592.16,446.42L604.99,445.17L605.66,445.07L611.06,443.65L611.74,443.33L637.4,432.48L638.07,432.32L686.01,426.01L686.69,425.89L695.46,423.1" style="vector-effect: non-scaling-stroke; fill: none; stroke: rgb(107, 174, 214); stroke-opacity: 1; stroke-width: 2px; opacity: 1; stroke-dasharray: 9px, 9px;"/></g><g class="points"/><g class="text"/></g><g class="trace scatter trace02951a" style="stroke-miterlimit: 2; opacity: 1;"><g class="fills"/><g class="errorbars"/><g class="lines"><path class="js-line" d="M3.38,482.6L103.31,481.79L103.98,481.79L201.21,481.05L201.89,481.03L219.44,479.77L220.12,479.72L231.6,478.89L232.27,478.86L270.76,477.91L271.43,477.9L324.77,477.15L325.45,477.14L376.09,476.39L376.77,476.37L435.51,473.52L436.18,473.44L449.69,470.78L450.36,470.53L470.62,465.51L471.29,465.37L494.93,462.55L495.6,462.36L501.68,460.42L502.35,460.11L505.05,458.39L505.73,457.95L509.11,455.42L509.78,454.68L515.18,448.39L515.86,447.49L523.96,436L524.64,435.16L527.34,432.01L528.01,430.98L532.06,426.58L532.74,425.85L535.44,423.82L536.11,423.37L542.87,419.86L543.54,419.64L551.64,417.62L552.32,417.47L563.12,416.08L563.8,416.06L582.7,415.08L583.38,415.06L607.69,413.39L608.36,413.26L621.19,410.42L621.87,410.12L633.34,406.97L634.02,406.91L641.45,405.32L642.12,405.14L648.2,404.13L648.87,404.08L672.51,401.62L673.18,401.46L695.46,397" style="vector-effect: non-scaling-stroke; fill: none; stroke: rgb(66, 146, 198); stroke-opacity: 1; stroke-width: 2px; opacity: 1; stroke-dasharray: 3px, 3px;"/></g><g class="points"/><g class="text"/></g><g class="trace scatter traceea1237" style="stroke-miterlimit: 2; opacity: 1;"><g class="fills"/><g class="errorbars"/><g class="lines"><path class="js-line" d="M-10.8,482.6L21.61,481.99L22.28,481.82L25.66,479.89L26.33,479.18L29.03,475L29.71,473.49L33.09,462.99L33.76,460.42L39.16,438.04L39.84,435.39L46.59,410.94L47.26,409L53.34,394.24L54.02,392.88L58.74,385.01L59.42,384.05L64.82,377.38L65.5,376.75L73.6,370.37L74.27,369.99L81.02,366.91L81.7,366.69L89.8,364.34L90.48,364.19L101.96,362.36L102.63,362.32L126.26,360.6L126.94,360.58L151.92,358.75L152.6,358.64L160.02,356.86L160.7,356.63L167.45,353.34L168.13,352.85L174.88,346.93L175.55,346.17L180.28,340.45L180.96,339.4L189.06,327.8L189.73,326.72L200.54,310.87L201.21,309.93L209.99,295.28L210.66,293.95L216.07,281.9L216.74,280.19L221.47,266.18L222.14,263.87L227.54,241.71L228.22,238.75L234.3,213.92L234.97,211.34L239.7,196.65L240.37,194.8L246.45,181.58L247.13,180.28L251.85,173.3L252.53,172.49L257.25,167.94L257.93,167.48L264.01,163.86L264.68,163.57L272.78,160.82L273.46,160.67L286.96,158.54L287.64,158.48L300.47,157.48L301.14,157.45L348.41,154.51L349.08,154.39L359.21,151.89L359.89,151.69L379.47,145.15L380.14,144.88L388.92,140.82L389.59,140.46L399.72,135.89L400.4,135.62L421.33,125.98L422,125.58L438.88,117.61L439.56,117.35L454.41,111.3L455.09,111.01L463.87,107.15L464.54,106.77L474,99.98L474.67,99.48L488.17,91.18L488.85,90.85L501,86.01L501.68,85.76L515.18,80.57L515.86,80.21L528.01,73.31L528.69,72.81L542.19,65.97L542.87,65.74L555.02,62.46L555.7,62.36L586.08,57.64L586.75,57.5L594.86,54.64L595.53,54.4L604.31,50.69L604.99,50.53L619.84,46.64L620.51,46.51L630.64,44.89L631.32,44.76L650.22,41.62L650.9,41.43L674.53,34.7L675.21,34.57L686.01,34.09L686.69,34.09L692.76,34.09L693.44,33.1L695.46,33.1" style="vector-effect: non-scaling-stroke; fill: none; stroke: rgb(33, 113, 181); stroke-opacity: 1; stroke-width: 2px; opacity: 1; stroke-dasharray: 9px, 3px, 3px, 3px;"/></g><g class="points"/><g class="text"/></g><g class="trace scatter tracebd76c7" style="stroke-miterlimit: 2; opacity: 1;"><g class="fills"/><g class="errorbars"/><g class="lines"><path class="js-line" d="M9.45,482.6L27.01,481.85L27.68,481.63L31.06,479.65L31.73,479L35.11,475.19L35.79,474.28L50.64,454.51L51.32,453.71L61.44,443.66L62.12,443.32L70.22,437.79L70.9,437.4L79.67,433.08L80.35,432.78L85.75,430.9L86.43,430.74L93.85,427.99L94.53,427.86L97.23,426.72L97.9,426.28L110.73,419.35L111.41,418.74L118.16,414.17L118.84,413.93L120.86,412.61L121.54,412.18L124.91,410.21L125.59,409.92L132.34,405.94L133.02,405.75L135.72,404.22L136.39,403.82L161.37,392.45L162.05,392.28L173.53,386.27L174.2,385.82L181.63,381.12L182.31,380.51L187.71,375.78L188.38,374.95L196.49,366.31L197.16,365.09L203.91,354.96L204.59,354.25L212.01,341.52L212.69,340.71L214.04,339.31L214.72,337.8L217.42,332.81L218.09,332.21L219.44,329.86L220.12,328.22L222.82,322.56L223.49,321.77L227.54,312.72L228.22,312.05L229.57,309.19L230.25,307.46L235.65,296.36L236.32,295.15L238.35,292.1L239.02,290.47L241.72,285.52L242.4,284.91L246.45,278.25L247.13,277.85L249.83,274.01L250.5,273.2L252.53,271.23L253.2,269.87L255.9,266.86L256.58,266.3L260.63,261.96L261.3,261.66L264.68,258.61L265.36,258.4L268.06,256.38L268.73,255.95L276.83,251.4L277.51,250.94L288.99,245.07L289.66,244.86L301.82,239.33L302.49,239.06L305.87,237.86L306.54,237.59L326.12,231.43L326.8,231.38L338.28,229.31L338.95,229.19L345.03,228.3L345.71,228.25L360.56,225.36L361.24,225.11L370.01,221.58L370.69,221.14L376.77,216.17L377.44,215.44L380.14,213.69L380.82,212.83L382.84,210.47L383.52,210.29L384.87,209.15L385.54,208.17L387.57,205.42L388.24,205.26L397.02,193.34L397.7,193.09L401.75,187.51L402.42,187.28L406.47,182.55L407.15,182.35L408.5,180.88L409.18,179.54L411.2,177.6L411.88,177.39L415.93,172.59L416.6,172.48L421.33,168.52L422,167.99L434.83,157.98L435.51,157.88L438.88,155.69L439.56,155.55L440.91,154.63L441.59,153.93L444.29,150.48L444.96,150.3L453.74,142.7L454.41,142.57L455.76,141.11L456.44,139.34L458.47,138.36L459.14,138.2L462.52,134.52L463.19,134.35L464.54,133.38L465.22,132.39L468.59,128.91L469.27,128.05L473.32,122.78L474,122.34L477.37,116.62L478.05,116.31L480.75,111.33L481.42,109.6L483.45,107.79L484.12,106.37L486.82,101.69L487.5,101.49L491.55,94.74L492.23,94.5L495.6,88.41L496.28,88.13L497.63,87.55L498.3,86.64L501,82.89L501.68,82.79L505.05,78.81L505.73,78.68L507.08,77.87L507.76,77.27L510.46,74.86L511.13,74.78L515.18,71.89L515.86,71.85L519.23,69.67L519.91,69.6L521.26,69.15L521.93,68.73L524.64,67.6L525.31,67.58L534.09,64.63L534.76,64.63L545.57,62.22L546.24,61.39L569.2,56.91L569.87,56.4L589.46,52.32L590.13,52.09L592.83,51.62L593.51,51.21L607.01,47.74L607.69,47.28L614.44,45.27L615.11,45.27L642.8,37.12L643.47,37.11L675.88,29.47L676.56,29.47L688.71,26.72L689.39,26.6L692.76,25.82L693.44,25.49L695.46,25.4" style="vector-effect: non-scaling-stroke; fill: none; stroke: rgb(8, 69, 148); stroke-opacity: 1; stroke-width: 2px; opacity: 1; stroke-dasharray: 15px, 15px;"/></g><g class="points"/><g class="text"/></g></g></g><g class="overplot"/><path class="xlines-above crisp" d="M0,0" style="fill: none;"/><path class="ylines-above crisp" d="M0,0" style="fill: none;"/><g class="overlines-above"/><g class="xaxislayer-above"><g class="xtick"><text text-anchor="middle" x="0" y="571" transform="translate(150.5,0)" style="font-family: 'Open Sans', verdana, arial, sans-serif; font-size: 12px; fill: rgb(68, 68, 68); fill-opacity: 1; white-space: pre; opacity: 1;">Jul 2020</text></g><g class="xtick"><text text-anchor="middle" x="0" y="571" style="font-family: 'Open Sans', verdana, arial, sans-serif; font-size: 12px; fill: rgb(68, 68, 68); fill-opacity: 1; white-space: pre; opacity: 1;" transform="translate(274.74,0)">Jan 2021</text></g><g class="xtick"><text text-anchor="middle" x="0" y="571" style="font-family: 'Open Sans', verdana, arial, sans-serif; font-size: 12px; fill: rgb(68, 68, 68); fill-opacity: 1; white-space: pre; opacity: 1;" transform="translate(396.95,0)">Jul 2021</text></g><g class="xtick"><text text-anchor="middle" x="0" y="571" style="font-family: 'Open Sans', verdana, arial, sans-serif; font-size: 12px; fill: rgb(68, 68, 68); fill-opacity: 1; white-space: pre; opacity: 1;" transform="translate(521.19,0)">Jan 2022</text></g><g class="xtick"><text text-anchor="middle" x="0" y="571" style="font-family: 'Open Sans', verdana, arial, sans-serif; font-size: 12px; fill: rgb(68, 68, 68); fill-opacity: 1; white-space: pre; opacity: 1;" transform="translate(643.4,0)">Jul 2022</text></g><g class="xtick"><text text-anchor="middle" x="0" y="571" style="font-family: 'Open Sans', verdana, arial, sans-serif; font-size: 12px; fill: rgb(68, 68, 68); fill-opacity: 1; white-space: pre; opacity: 1;" transform="translate(767.64,0)">Jan 2023</text></g></g><g class="yaxislayer-above"><g class="ytick"><text text-anchor="end" x="57" y="4.199999999999999" transform="translate(0,532.6)" style="font-family: 'Open Sans', verdana, arial, sans-serif; font-size: 12px; fill: rgb(68, 68, 68); fill-opacity: 1; white-space: pre; opacity: 1;">0</text></g><g class="ytick"><text text-anchor="end" x="57" y="4.199999999999999" style="font-family: 'Open Sans', verdana, arial, sans-serif; font-size: 12px; fill: rgb(68, 68, 68); fill-opacity: 1; white-space: pre; opacity: 1;" transform="translate(0,461.29)">500</text></g><g class="ytick"><text text-anchor="end" x="57" y="4.199999999999999" style="font-family: 'Open Sans', verdana, arial, sans-serif; font-size: 12px; fill: rgb(68, 68, 68); fill-opacity: 1; white-space: pre; opacity: 1;" transform="translate(0,389.98)">1000</text></g><g class="ytick"><text text-anchor="end" x="57" y="4.199999999999999" style="font-family: 'Open Sans', verdana, arial, sans-serif; font-size: 12px; fill: rgb(68, 68, 68); fill-opacity: 1; white-space: pre; opacity: 1;" transform="translate(0,318.67)">1500</text></g><g class="ytick"><text text-anchor="end" x="57" y="4.199999999999999" style="font-family: 'Open Sans', verdana, arial, sans-serif; font-size: 12px; fill: rgb(68, 68, 68); fill-opacity: 1; white-space: pre; opacity: 1;" transform="translate(0,247.35)">2000</text></g><g class="ytick"><text text-anchor="end" x="57" y="4.199999999999999" style="font-family: 'Open Sans', verdana, arial, sans-serif; font-size: 12px; fill: rgb(68, 68, 68); fill-opacity: 1; white-space: pre; opacity: 1;" transform="translate(0,176.04000000000002)">2500</text></g><g class="ytick"><text text-anchor="end" x="57" y="4.199999999999999" style="font-family: 'Open Sans', verdana, arial, sans-serif; font-size: 12px; fill: rgb(68, 68, 68); fill-opacity: 1; white-space: pre; opacity: 1;" transform="translate(0,104.72999999999999)">3000</text></g></g><g class="overaxes-above"/></g></g><g class="polarlayer"/><g class="ternarylayer"/><g class="geolayer"/><g class="funnelarealayer"/><g class="pielayer"/><g class="iciclelayer"/><g class="treemaplayer"/><g class="sunburstlayer"/><g class="glimages"/><defs id="topdefs-72636c"><g class="clips"/></defs><g class="layer-above"><g class="imagelayer"/><g class="shapelayer"/></g><g class="infolayer"><g class="g-gtitle"><text class="gtitle" x="450" y="25" text-anchor="middle" dy="0em" style="font-family: 'Open Sans', verdana, arial, sans-serif; font-size: 17px; fill: rgb(68, 68, 68); opacity: 1; font-weight: normal; white-space: pre;">코로나 19 사망자수 추세</text></g><g class="g-xtitle"/><g class="g-ytitle"><text class="ytitle" transform="rotate(-90,20,304)" x="20" y="304" text-anchor="middle" style="font-family: 'Open Sans', verdana, arial, sans-serif; font-size: 14px; fill: rgb(68, 68, 68); opacity: 1; font-weight: normal; white-space: pre;">10만명당 사망자수 누계</text></g><g class="annotation" data-index="0" style="opacity: 1;"><g class="annotation-text-g" transform="rotate(0,775.46,196.76)"><g class="cursor-pointer" transform="translate(753,187)"><rect class="bg" x="0.5" y="0.5" width="43" height="18" style="stroke-width: 1px; stroke: rgb(0, 0, 0); stroke-opacity: 0; fill: rgb(0, 0, 0); fill-opacity: 0;"/><text class="annotation-text" text-anchor="middle" x="22" y="13.8125" style="font-family: 'Open Sans', verdana, arial, sans-serif; font-size: 12px; fill: rgb(68, 68, 68); fill-opacity: 1; white-space: pre;">France</text></g></g></g><g class="annotation" data-index="1" style="opacity: 1;"><g class="annotation-text-g" transform="rotate(0,772.96,473.1)"><g class="cursor-pointer" transform="translate(753,464)"><rect class="bg" x="0.5" y="0.5" width="38" height="18" style="stroke-width: 1px; stroke: rgb(0, 0, 0); stroke-opacity: 0; fill: rgb(0, 0, 0); fill-opacity: 0;"/><text class="annotation-text" text-anchor="middle" x="19.46875" y="13.8125" style="font-family: 'Open Sans', verdana, arial, sans-serif; font-size: 12px; fill: rgb(68, 68, 68); fill-opacity: 1; white-space: pre;">Japan</text></g></g></g><g class="annotation" data-index="2" style="opacity: 1;"><g class="annotation-text-g" transform="rotate(0,792.46,447)"><g class="cursor-pointer" transform="translate(753,438)"><rect class="bg" x="0.5" y="0.5" width="77" height="18" style="stroke-width: 1px; stroke: rgb(0, 0, 0); stroke-opacity: 0; fill: rgb(0, 0, 0); fill-opacity: 0;"/><text class="annotation-text" text-anchor="middle" x="39.1396484375" y="13.8125" style="font-family: 'Open Sans', verdana, arial, sans-serif; font-size: 12px; fill: rgb(68, 68, 68); fill-opacity: 1; white-space: pre;">South Korea</text></g></g></g><g class="annotation" data-index="3" style="opacity: 1;"><g class="annotation-text-g" transform="rotate(0,803.46,83.1)"><g class="cursor-pointer" transform="translate(753,74)"><rect class="bg" x="0.5" y="0.5" width="99" height="18" style="stroke-width: 1px; stroke: rgb(0, 0, 0); stroke-opacity: 0; fill: rgb(0, 0, 0); fill-opacity: 0;"/><text class="annotation-text" text-anchor="middle" x="50.171875" y="13.8125" style="font-family: 'Open Sans', verdana, arial, sans-serif; font-size: 12px; fill: rgb(68, 68, 68); fill-opacity: 1; white-space: pre;">United Kingdom</text></g></g></g><g class="annotation" data-index="4" style="opacity: 1;"><g class="annotation-text-g" transform="rotate(0,796.46,75.4)"><g class="cursor-pointer" transform="translate(753,66)"><rect class="bg" x="0.5" y="0.5" width="85" height="18" style="stroke-width: 1px; stroke: rgb(0, 0, 0); stroke-opacity: 0; fill: rgb(0, 0, 0); fill-opacity: 0;"/><text class="annotation-text" text-anchor="middle" x="42.75" y="13.8125" style="font-family: 'Open Sans', verdana, arial, sans-serif; font-size: 12px; fill: rgb(68, 68, 68); fill-opacity: 1; white-space: pre;">United States</text></g></g></g><g class="annotation" data-index="5" style="opacity: 1;"><g class="annotation-text-g" transform="rotate(0,518.12,483.9200000000001)"><g class="cursor-pointer" transform="translate(504,474)"><rect class="bg" x="0.5" y="0.5" width="27" height="18" style="stroke-width: 1px; stroke: rgb(0, 0, 0); stroke-opacity: 0; fill: rgb(0, 0, 0); fill-opacity: 0;"/><text class="annotation-text" text-anchor="middle" x="13.9833984375" y="13.8125" style="font-family: 'Open Sans', verdana, arial, sans-serif; font-size: 12px; fill: rgb(68, 68, 68); fill-opacity: 1; white-space: pre;">설날</text></g></g><g class="annotation-arrow-g" style="opacity: 1;"><path d="M532.12,483.9200000000001L542.12,513.9200000000001" style="stroke-width: 2px; stroke: rgb(68, 68, 68); stroke-opacity: 1; stroke-dasharray: 0px, 0px, 30.4227px, 31.6227px;"/><path d="M-2.4,-3V3L0.6,0Z" transform="translate(541.7405395507812,512.7815551757812)rotate(71.56505117707799)scale(2)" style="fill: rgb(68, 68, 68); stroke-width: 0;"/></g></g></g></svg>