<svg class="main-svg" xmlns="http://www.w3.org/2000/svg" xmlns:xlink="http://www.w3.org/1999/xlink" width="900" height="600" style="" viewBox="0 0 900 600"><rect x="0" y="0" width="900" height="600" style="fill: rgb(255, 255, 255); fill-opacity: 1;"/><defs id="defs-c0aaa9"><g class="clips"><clipPath id="clipc0aaa9xyplot" class="plotclip"><rect width="674" height="410"/></clipPath><clipPath class="axesclip" id="clipc0aaa9x"><rect x="58" y="0" width="674" height="600"/></clipPath><clipPath class="axesclip" id="clipc0aaa9y"><rect x="0" y="50" width="900" height="410"/></clipPath><clipPath class="axesclip" id="clipc0aaa9xy"><rect x="58" y="50" width="674" height="410"/></clipPath></g><g class="gradients"/><g class="patterns"/></defs><g class="bglayer"/><g class="layer-below"><g class="imagelayer"/><g class="shapelayer"/></g><g class="cartesianlayer"><g class="subplot xy"><g class="layer-subplot"><g class="shapelayer"/><g class="imagelayer"/></g><g class="gridlayer"><g class="x"><path class="xgrid crisp" transform="translate(156.59,0)" d="M0,50v410" style="stroke: rgb(238, 238, 238); stroke-opacity: 1; stroke-width: 1px;"/><path class="xgrid crisp" transform="translate(275.15,0)" d="M0,50v410" style="stroke: rgb(238, 238, 238); stroke-opacity: 1; stroke-width: 1px;"/><path class="xgrid crisp" transform="translate(391.78,0)" d="M0,50v410" style="stroke: rgb(238, 238, 238); stroke-opacity: 1; stroke-width: 1px;"/><path class="xgrid crisp" transform="translate(510.34,0)" d="M0,50v410" style="stroke: rgb(238, 238, 238); stroke-opacity: 1; stroke-width: 1px;"/><path class="xgrid crisp" transform="translate(626.97,0)" d="M0,50v410" style="stroke: rgb(238, 238, 238); stroke-opacity: 1; stroke-width: 1px;"/></g><g class="y"><path class="ygrid crisp" transform="translate(0,381.95)" d="M58,0h674" style="stroke: rgb(238, 238, 238); stroke-opacity: 1; stroke-width: 1px;"/><path class="ygrid crisp" transform="translate(0,324.39)" d="M58,0h674" style="stroke: rgb(238, 238, 238); stroke-opacity: 1; stroke-width: 1px;"/><path class="ygrid crisp" transform="translate(0,266.84000000000003)" d="M58,0h674" style="stroke: rgb(238, 238, 238); stroke-opacity: 1; stroke-width: 1px;"/><path class="ygrid crisp" transform="translate(0,209.28)" d="M58,0h674" style="stroke: rgb(238, 238, 238); stroke-opacity: 1; stroke-width: 1px;"/><path class="ygrid crisp" transform="translate(0,151.73000000000002)" d="M58,0h674" style="stroke: rgb(238, 238, 238); stroke-opacity: 1; stroke-width: 1px;"/><path class="ygrid crisp" transform="translate(0,94.17)" d="M58,0h674" style="stroke: rgb(238, 238, 238); stroke-opacity: 1; stroke-width: 1px;"/></g></g><g class="zerolinelayer"><path class="yzl zl crisp" transform="translate(0,439.5)" d="M58,0h674" style="stroke: rgb(68, 68, 68); stroke-opacity: 1; stroke-width: 1px;"/></g><path class="xlines-below"/><path class="ylines-below"/><g class="overlines-below"/><g class="xaxislayer-below"/><g class="yaxislayer-below"/><g class="overaxes-below"/><g class="plot" transform="translate(58,50)" clip-path="url(#clipc0aaa9xyplot)"><g class="scatterlayer mlayer"><g class="trace scatter trace24624d" style="stroke-miterlimit: 2; opacity: 1;"><g class="fills"/><g class="errorbars"/><g class="lines"><path class="js-line" d="M10.31,389.5L31.57,389.09L32.22,388.73L35.44,387.24L36.08,386.62L39.31,383.52L39.95,381.39L41.24,378.45L41.88,376.66L43.17,374.37L43.82,371.97L44.46,371.04L45.11,368.77L47.68,364.09L48.33,362.83L50.26,357.82L50.9,356.73L59.93,347.47L60.57,347.24L64.44,344.84L65.08,344.72L70.24,341.56L70.88,341.93L77.32,340.75L77.97,340.66L111.47,338.29L112.12,338.28L148.85,336.7L149.49,336.44L156.58,335.37L157.22,335.23L168.82,332.69L169.47,332.44L172.69,330.68L173.33,330.72L178.49,325.93L179.13,323.76L180.42,323.22L181.07,321.81L183,319.9L183.64,317.82L184.93,316.56L185.58,314.98L187.51,313L188.15,310.93L189.44,309.49L190.09,307.55L192.02,305.91L192.66,304.2L198.46,297.58L199.11,296.51L201.04,295.24L201.68,293.83L205.55,290.55L206.2,289.21L210.06,286.11L210.71,284.74L214.57,282.36L215.22,280.71L219.08,278.44L219.73,276.97L225.53,271.82L226.17,270.74L228.1,269.49L228.75,268.38L233.26,263.69L233.9,263.09L237.12,259.6L237.77,258.37L239.06,257.77L239.7,256.06L241.63,254.66L242.28,253.43L246.15,249.91L246.79,248.91L262.25,236.51L262.9,236.22L264.83,234.72L265.48,234.31L270.63,230.97L271.28,229.45L274.5,227.13L275.14,226.61L284.81,219.05L285.45,218.72L286.74,217.73L287.38,217.07L296.41,210.59L297.05,210.17L305.43,206.08L306.07,205.84L317.02,202.8L317.67,202.74L333.78,200.85L334.42,200.81L356.98,199.05L357.62,198.99L364.06,197.78L364.71,197.57L375.66,194.52L376.31,194.44L383.39,192.75L384.04,192.59L432.37,187.01L433.01,186.84L448.47,181.22L449.12,180.78L452.34,179.16L452.98,179.01L460.72,174.29L461.36,174.03L462.65,173.37L463.29,172.73L463.94,172.71L464.58,171.92L471.67,167.12L472.32,166.49L476.18,163.76L476.83,162.58L477.47,162.58L478.11,161.47L484.56,157.52L485.2,157.48L487.14,155.53L487.78,155.21L492.29,153.23L492.93,153.02L495.51,152.13L496.16,151.94L503.89,149.67L504.53,149.48L526.44,142.53L527.09,142.27L537.4,139.42L538.04,139.4L541.26,138.64L541.91,138.53L547.71,137.94L548.35,137.73L556.73,136.89L557.37,136.89L560.59,136.4L561.24,136.4L574.12,134.74L574.77,134.74L577.99,134.06L578.63,134.06L579.92,133.35L580.57,133.1L587.66,131.4L588.3,131.4L591.52,130.46L592.17,130.46L594.74,129.83L595.39,129.69L608.28,127.82L608.92,127.75L619.23,126.83L619.87,126.83L627.61,126.09L628.25,126.09L634.05,125.37L634.69,125.23L661.11,120.61L661.76,120.46L674,118.45" style="vector-effect: non-scaling-stroke; fill: none; stroke: rgb(158, 202, 225); stroke-opacity: 1; stroke-width: 2px; opacity: 1;"/></g><g class="points"/><g class="text"/></g><g class="trace scatter trace4d8821" style="stroke-miterlimit: 2; opacity: 1;"><g class="fills"/><g class="errorbars"/><g class="lines"><path class="js-line" d="M9.02,389.5L70.88,388.75L71.52,388.74L179.13,387.83L179.78,387.83L211.99,386.6L212.64,386.54L233.9,384.5L234.55,384.39L257.1,381.94L257.74,381.89L304.78,378.69L305.43,378.49L327.98,376.03L328.62,375.98L349.24,375.45L349.89,375.44L376.31,374.31L376.95,374.27L400.15,372.79L400.79,372.76L423.34,372.47L423.99,372.47L473.6,371.8L474.25,371.71L483.91,369.36L484.56,369.21L506.47,363.76L507.11,363.7L535.46,361.73L536.11,361.69L589.59,358.99L590.23,358.84L599.25,356.07L599.9,355.8L616.65,349.54L617.3,349.37L625.03,348.19L625.67,348.1L642.43,346.43L643.07,346.4L661.11,344.6L661.76,344.47L674,341.48" style="vector-effect: non-scaling-stroke; fill: none; stroke: rgb(107, 174, 214); stroke-opacity: 1; stroke-width: 2px; opacity: 1; stroke-dasharray: 9px, 9px;"/></g><g class="points"/><g class="text"/></g><g class="trace scatter trace99cd45" style="stroke-miterlimit: 2; opacity: 1;"><g class="fills"/><g class="errorbars"/><g class="lines"><path class="js-line" d="M13.53,389.5L141.76,388.75L142.4,388.74L208.77,388L209.42,387.95L240.99,386.23L241.63,386.21L410.46,383.24L411.1,383.21L433.01,381.19L433.65,381.04L445.25,378.6L445.9,378.36L466.52,374.92L467.16,374.86L486.49,372.42L487.14,372.21L494.22,368.88L494.87,368.53L500.02,364L500.67,363.33L518.71,343.7L519.35,343.1L524.51,340.33L525.15,340.09L527.09,339.59L527.73,339.02L539.97,336.62L540.62,336.54L550.93,335.66L551.57,335.61L570.26,334.91L570.9,334.9L586.37,333.98L587.01,333.9L596.68,332.58L597.32,332.47L603.76,331L604.41,330.82L614.72,328.46L615.36,328.41L623.1,326.99L623.74,326.82L663.69,322.12L664.33,322.04L674,320.41" style="vector-effect: non-scaling-stroke; fill: none; stroke: rgb(66, 146, 198); stroke-opacity: 1; stroke-width: 2px; opacity: 1; stroke-dasharray: 3px, 3px;"/></g><g class="points"/><g class="text"/></g><g class="trace scatter tracea4f3aa" style="stroke-miterlimit: 2; opacity: 1;"><g class="fills"/><g class="errorbars"/><g class="lines"><path class="js-line" d="M0,389.5L31.57,388.87L32.22,388.67L35.44,386.74L36.08,386.03L38.66,382.15L39.31,380.73L43.17,369.6L43.82,367.4L50.9,342.77L51.55,340.86L56.7,327.1L57.35,325.73L62.5,316.02L63.15,314.95L68.3,308.45L68.95,307.73L76.03,301.63L76.68,301.14L82.48,298.04L83.12,297.76L90.85,295.26L91.5,295.11L105.67,292.68L106.32,292.6L124.36,291.35L125.01,291.32L159.16,288.9L159.8,288.79L166.24,287L166.89,286.74L173.33,283.17L173.98,282.69L180.42,276.93L181.07,276.22L191.37,263.69L192.02,262.82L211.35,237.24L211.99,236.19L217.79,224.72L218.44,223.34L222.95,210.97L223.59,208.85L237.12,163.43L237.77,161.79L242.28,152.03L242.92,150.82L248.72,141.98L249.37,141.21L255.17,135.96L255.81,135.54L264.19,131.54L264.83,131.35L272.56,129.48L273.21,129.36L289.96,127.47L290.61,127.43L320.25,126.32L320.89,126.29L340.87,124.96L341.51,124.88L351.82,122.93L352.46,122.75L373.08,116.93L373.73,116.72L409.17,103.25L409.81,102.95L420.77,98.01L421.41,97.78L431.08,94.22L431.72,94.01L456.21,84.76L456.85,84.4L471.67,75.65L472.32,75.3L480.69,71.9L481.34,71.67L507.76,62.48L508.4,62.15L528.37,53.06L529.02,52.88L539.97,50.41L540.62,50.33L572.19,45.9L572.84,45.73L584.43,41.7L585.08,41.5L598.61,38.19L599.25,38.09L635.34,32.43L635.98,32.24L654.02,28L654.67,27.9L666.27,27.51L666.91,27.51L671.42,27.51L672.07,26.71L674,26.71" style="vector-effect: non-scaling-stroke; fill: none; stroke: rgb(33, 113, 181); stroke-opacity: 1; stroke-width: 2px; opacity: 1; stroke-dasharray: 9px, 3px, 3px, 3px;"/></g><g class="points"/><g class="text"/></g><g class="trace scatter trace7cd8bc" style="stroke-miterlimit: 2; opacity: 1;"><g class="fills"/><g class="errorbars"/><g class="lines"><path class="js-line" d="M19.33,389.5L36.08,388.89L36.73,388.72L40.59,386.59L41.24,386.11L45.75,381.26L46.39,380.55L52.19,373.92L52.84,373.09L57.35,368.38L57.99,367.57L63.79,361.94L64.44,361.44L67.66,359.03L68.3,358.47L78.61,352.8L79.26,352.54L86.99,349.29L87.63,349.18L94.72,346.95L95.37,346.74L106.32,343.2L106.96,342.9L126.29,332.66L126.94,332.22L136.6,327.63L137.25,327.48L140.47,325.92L141.11,325.65L146.91,323.63L147.56,323.22L155.29,320.15L155.93,320.04L164.31,316.74L164.96,316.61L178.49,310.69L179.13,310.14L188.8,303.97L189.44,303.29L195.24,298.29L195.89,297.93L197.82,295.65L198.46,294.66L213.28,274.98L213.93,274.5L215.22,272.64L215.86,271.32L218.44,268.12L219.08,267.44L227.46,252.39L228.1,251.85L229.39,249.54L230.04,248.14L235.84,238.21L236.48,237.56L237.77,235.75L238.41,234.43L240.99,230.44L241.63,229.95L245.5,224.57L246.15,224.25L251.3,218.9L251.94,217.81L255.17,214.93L255.81,214.28L258.39,211.67L259.03,211.43L260.97,210.06L261.61,209.54L266.12,206.92L266.76,206.57L275.14,202.53L275.79,202.23L298.98,192.94L299.63,192.85L306.07,190.86L306.72,190.63L318.31,187.46L318.96,187.35L327.98,185.85L328.62,185.72L343.44,183.63L344.09,183.61L351.82,182.44L352.46,182.14L356.33,181.32L356.98,180.93L360.84,179.71L361.49,179.35L364.06,178.48L364.71,178.07L366.64,176.77L367.28,176.7L373.73,171.77L374.37,170.75L376.31,169.72L376.95,169.51L384.68,160.97L385.33,160.84L393.06,151.63L393.7,151.34L394.99,150.5L395.64,149.85L398.21,147.34L398.86,147.17L400.15,145.99L400.79,144.9L402.72,143.34L403.37,143.17L408.52,138.7L409.17,138.16L411.75,136.1L412.39,136.01L425.28,127.51L425.92,127.42L429.79,125.54L430.43,125.45L434.94,121.31L435.59,120.82L443.32,115.17L443.96,115.06L445.25,113.88L445.9,112.46L447.83,111.66L448.47,111.54L452.34,108.43L452.98,108.29L460.07,100.65L460.72,99.7L463.29,97.81L463.94,96.63L465.87,94.12L466.52,93.87L469.09,89.85L469.74,88.46L471.67,86.99L472.32,85.85L474.89,82.07L475.54,81.91L479.4,76.47L480.05,76.27L483.91,71.13L484.56,70.97L485.85,69.92L486.49,68.87L488.42,66.9L489.07,66.82L492.93,63.5L493.58,63.43L497.45,60.42L498.09,60.35L501.96,58.02L502.6,57.99L506.47,56.18L507.11,56.16L510.98,54.56L511.62,54.54L521.29,52.07L521.93,51.92L524.51,51.28L525.15,51.27L530.95,50.22L531.6,49.55L558.66,44.79L559.3,44.63L576.06,41.67L576.7,41.33L589.59,38.53L590.23,38.16L597.97,36.37L598.61,36.2L601.83,35.13L602.48,35.22L610.85,32.98L611.5,32.95L619.23,30.97L619.87,30.97L651.45,24.43L652.09,24.39L661.76,22.67L662.4,22.32L670.78,21.19L671.42,20.84L674,20.5" style="vector-effect: non-scaling-stroke; fill: none; stroke: rgb(8, 69, 148); stroke-opacity: 1; stroke-width: 2px; opacity: 1; stroke-dasharray: 15px, 15px;"/></g><g class="points"/><g class="text"/></g></g></g><g class="overplot"/><path class="xlines-above crisp" d="M0,0" style="fill: none;"/><path class="ylines-above crisp" d="M0,0" style="fill: none;"/><g class="overlines-above"/><g class="xaxislayer-above"><g class="xtick"><text text-anchor="middle" x="0" y="473" transform="translate(156.59,0)" style="font-family: 'Open Sans', verdana, arial, sans-serif; font-size: 12px; fill: rgb(68, 68, 68); fill-opacity: 1; white-space: pre; opacity: 1;">Jul 2020</text></g><g class="xtick"><text text-anchor="middle" x="0" y="473" style="font-family: 'Open Sans', verdana, arial, sans-serif; font-size: 12px; fill: rgb(68, 68, 68); fill-opacity: 1; white-space: pre; opacity: 1;" transform="translate(275.15,0)">Jan 2021</text></g><g class="xtick"><text text-anchor="middle" x="0" y="473" style="font-family: 'Open Sans', verdana, arial, sans-serif; font-size: 12px; fill: rgb(68, 68, 68); fill-opacity: 1; white-space: pre; opacity: 1;" transform="translate(391.78,0)">Jul 2021</text></g><g class="xtick"><text text-anchor="middle" x="0" y="473" style="font-family: 'Open Sans', verdana, arial, sans-serif; font-size: 12px; fill: rgb(68, 68, 68); fill-opacity: 1; white-space: pre; opacity: 1;" transform="translate(510.34,0)">Jan 2022</text></g><g class="xtick"><text text-anchor="middle" x="0" y="473" style="font-family: 'Open Sans', verdana, arial, sans-serif; font-size: 12px; fill: rgb(68, 68, 68); fill-opacity: 1; white-space: pre; opacity: 1;" transform="translate(626.97,0)">Jul 2022</text></g></g><g class="yaxislayer-above"><g class="ytick"><text text-anchor="end" x="57" y="4.199999999999999" transform="translate(0,439.5)" style="font-family: 'Open Sans', verdana, arial, sans-serif; font-size: 12px; fill: rgb(68, 68, 68); fill-opacity: 1; white-space: pre; opacity: 1;">0</text></g><g class="ytick"><text text-anchor="end" x="57" y="4.199999999999999" style="font-family: 'Open Sans', verdana, arial, sans-serif; font-size: 12px; fill: rgb(68, 68, 68); fill-opacity: 1; white-space: pre; opacity: 1;" transform="translate(0,381.95)">500</text></g><g class="ytick"><text text-anchor="end" x="57" y="4.199999999999999" style="font-family: 'Open Sans', verdana, arial, sans-serif; font-size: 12px; fill: rgb(68, 68, 68); fill-opacity: 1; white-space: pre; opacity: 1;" transform="translate(0,324.39)">1000</text></g><g class="ytick"><text text-anchor="end" x="57" y="4.199999999999999" style="font-family: 'Open Sans', verdana, arial, sans-serif; font-size: 12px; fill: rgb(68, 68, 68); fill-opacity: 1; white-space: pre; opacity: 1;" transform="translate(0,266.84000000000003)">1500</text></g><g class="ytick"><text text-anchor="end" x="57" y="4.199999999999999" style="font-family: 'Open Sans', verdana, arial, sans-serif; font-size: 12px; fill: rgb(68, 68, 68); fill-opacity: 1; white-space: pre; opacity: 1;" transform="translate(0,209.28)">2000</text></g><g class="ytick"><text text-anchor="end" x="57" y="4.199999999999999" style="font-family: 'Open Sans', verdana, arial, sans-serif; font-size: 12px; fill: rgb(68, 68, 68); fill-opacity: 1; white-space: pre; opacity: 1;" transform="translate(0,151.73000000000002)">2500</text></g><g class="ytick"><text text-anchor="end" x="57" y="4.199999999999999" style="font-family: 'Open Sans', verdana, arial, sans-serif; font-size: 12px; fill: rgb(68, 68, 68); fill-opacity: 1; white-space: pre; opacity: 1;" transform="translate(0,94.17)">3000</text></g></g><g class="overaxes-above"/></g></g><g class="polarlayer"/><g class="ternarylayer"/><g class="geolayer"/><g class="funnelarealayer"/><g class="pielayer"/><g class="iciclelayer"/><g class="treemaplayer"/><g class="sunburstlayer"/><g class="glimages"/><defs id="topdefs-c0aaa9"><g class="clips"/><clipPath id="legendc0aaa9"><rect width="142" height="105" x="0" y="0"/></clipPath><clipPath id="rangesliderx-c0aaa9"><rect x="0" y="0" width="674" height="78.75"/></clipPath></defs><g class="layer-above"><g class="imagelayer"/><g class="shapelayer"/></g><g class="infolayer"><g class="legend" pointer-events="all" transform="translate(745.48,50)"><rect class="bg" shape-rendering="crispEdges" width="142" height="105" x="0" y="0" style="stroke: rgb(68, 68, 68); stroke-opacity: 1; fill: rgb(255, 255, 255); fill-opacity: 1; stroke-width: 0px;"/><g class="scrollbox" transform="" clip-path="url(#legendc0aaa9)"><g class="groups"><g class="traces" transform="translate(0,14.5)" style="opacity: 1;"><text class="legendtext" text-anchor="start" x="40" y="4.680000000000001" style="font-family: 'Open Sans', verdana, arial, sans-serif; font-size: 12px; fill: rgb(68, 68, 68); fill-opacity: 1; white-space: pre;">France</text><g class="layers" style="opacity: 1;"><g class="legendfill"/><g class="legendlines"><path class="js-line" d="M5,0h30" style="fill: none; stroke: rgb(158, 202, 225); stroke-opacity: 1; stroke-width: 2px;"/></g><g class="legendsymbols"><g class="legendpoints"/></g></g><rect class="legendtoggle" x="0" y="-9.5" width="136.34410095214844" height="19" style="fill: rgb(0, 0, 0); fill-opacity: 0;"/></g><g class="traces" transform="translate(0,33.5)" style="opacity: 1;"><text class="legendtext" text-anchor="start" x="40" y="4.680000000000001" style="font-family: 'Open Sans', verdana, arial, sans-serif; font-size: 12px; fill: rgb(68, 68, 68); fill-opacity: 1; white-space: pre;">Japan</text><g class="layers" style="opacity: 1;"><g class="legendfill"/><g class="legendlines"><path class="js-line" d="M5,0h30" style="fill: none; stroke: rgb(107, 174, 214); stroke-opacity: 1; stroke-dasharray: 9px, 9px; stroke-width: 2px;"/></g><g class="legendsymbols"><g class="legendpoints"/></g></g><rect class="legendtoggle" x="0" y="-9.5" width="136.34410095214844" height="19" style="fill: rgb(0, 0, 0); fill-opacity: 0;"/></g><g class="traces" transform="translate(0,52.5)" style="opacity: 1;"><text class="legendtext" text-anchor="start" x="40" y="4.680000000000001" style="font-family: 'Open Sans', verdana, arial, sans-serif; font-size: 12px; fill: rgb(68, 68, 68); fill-opacity: 1; white-space: pre;">South Korea</text><g class="layers" style="opacity: 1;"><g class="legendfill"/><g class="legendlines"><path class="js-line" d="M5,0h30" style="fill: none; stroke: rgb(66, 146, 198); stroke-opacity: 1; stroke-dasharray: 3px, 3px; stroke-width: 2px;"/></g><g class="legendsymbols"><g class="legendpoints"/></g></g><rect class="legendtoggle" x="0" y="-9.5" width="136.34410095214844" height="19" style="fill: rgb(0, 0, 0); fill-opacity: 0;"/></g><g class="traces" transform="translate(0,71.5)" style="opacity: 1;"><text class="legendtext" text-anchor="start" x="40" y="4.680000000000001" style="font-family: 'Open Sans', verdana, arial, sans-serif; font-size: 12px; fill: rgb(68, 68, 68); fill-opacity: 1; white-space: pre;">United Kingdom</text><g class="layers" style="opacity: 1;"><g class="legendfill"/><g class="legendlines"><path class="js-line" d="M5,0h30" style="fill: none; stroke: rgb(33, 113, 181); stroke-opacity: 1; stroke-dasharray: 9px, 3px, 3px, 3px; stroke-width: 2px;"/></g><g class="legendsymbols"><g class="legendpoints"/></g></g><rect class="legendtoggle" x="0" y="-9.5" width="136.34410095214844" height="19" style="fill: rgb(0, 0, 0); fill-opacity: 0;"/></g><g class="traces" transform="translate(0,90.5)" style="opacity: 1;"><text class="legendtext" text-anchor="start" x="40" y="4.680000000000001" style="font-family: 'Open Sans', verdana, arial, sans-serif; font-size: 12px; fill: rgb(68, 68, 68); fill-opacity: 1; white-space: pre;">United States</text><g class="layers" style="opacity: 1;"><g class="legendfill"/><g class="legendlines"><path class="js-line" d="M5,0h30" style="fill: none; stroke: rgb(8, 69, 148); stroke-opacity: 1; stroke-dasharray: 15px, 15px; stroke-width: 2px;"/></g><g class="legendsymbols"><g class="legendpoints"/></g></g><rect class="legendtoggle" x="0" y="-9.5" width="136.34410095214844" height="19" style="fill: rgb(0, 0, 0); fill-opacity: 0;"/></g></g></g><rect class="scrollbar" rx="20" ry="3" width="0" height="0" x="0" y="0" style="fill: rgb(128, 139, 164); fill-opacity: 1;"/></g><g class="g-gtitle"><text class="gtitle" x="450" y="25" text-anchor="middle" dy="0em" style="font-family: 'Open Sans', verdana, arial, sans-serif; font-size: 17px; fill: rgb(68, 68, 68); opacity: 1; font-weight: normal; white-space: pre;">코로나 19 사망자수 추세</text></g><g class="rangeslider-container" pointer-events="all" transform="translate(58,491)"><rect class="rangeslider-bg" x="0" y="0" shape-rendering="crispEdges" width="674" height="78.75" transform="" fill="#fff" stroke="#444" stroke-width="0"/><g class="rangeslider-rangeplot xy" clip-path="url(#rangesliderx-c0aaa9)"><g class="layer-subplot"><g class="shapelayer"/><g class="imagelayer"/></g><g class="gridlayer"><g class="x"/><g class="y"/></g><g class="zerolinelayer"/><path class="xlines-below"/><path class="ylines-below"/><g class="overlines-below"/><g class="xaxislayer-below"/><g class="yaxislayer-below"/><g class="overaxes-below"/><g class="plot"><g class="scatterlayer mlayer rangeplot"><g class="trace scatter trace24624d" style="stroke-miterlimit: 2; opacity: 1;"><g class="fills"/><g class="errorbars"/><g class="lines"><path class="js-line" d="M10.31,75.05L36.73,74.4L37.37,74.29L40.59,73.29L41.24,72.92L50.26,68.95L50.9,68.74L66.37,66.22L67.01,66.19L73.46,65.74L74.1,65.77L100.52,65.27L101.16,65.27L171.4,63.86L172.04,63.76L178.49,62.8L179.13,62.38L182.35,61.82L183,61.64L185.58,60.69L186.22,60.57L189.44,59.63L190.09,59.26L196.53,57.8L197.17,57.55L234.55,50.58L235.19,50.31L243.57,48.62L244.21,48.41L257.1,46.32L257.74,46.17L270.63,44.5L271.28,44.21L284.81,42.21L285.45,42.14L293.18,40.96L293.83,40.86L320.89,38.95L321.54,38.94L362.13,38.19L362.77,38.18L398.21,36.75L398.86,36.75L442.67,35.35L443.32,35.32L458.14,33.91L458.78,33.8L500.67,29L501.31,28.96L526.44,27.46L527.09,27.41L554.79,26.39L555.44,26.39L593.46,25.08L594.1,25.04L674,22.82" style="vector-effect: non-scaling-stroke; fill: none; stroke: rgb(158, 202, 225); stroke-opacity: 1; stroke-width: 2px; opacity: 1;"/></g><g class="points"/><g class="text"/></g><g class="trace scatter trace4d8821" style="stroke-miterlimit: 2; opacity: 1;"><g class="fills"/><g class="errorbars"/><g class="lines"><path class="js-line" d="M9.02,75.05L224.24,74.3L224.88,74.28L419.48,71.77L420.12,71.77L485.85,71.05L486.49,71.01L516.13,69.92L516.78,69.91L603.12,68.31L603.76,68.26L629.54,66.97L630.18,66.96L674,65.8" style="vector-effect: non-scaling-stroke; fill: none; stroke: rgb(107, 174, 214); stroke-opacity: 1; stroke-width: 2px; opacity: 1; stroke-dasharray: 9px, 9px;"/></g><g class="points"/><g class="text"/></g><g class="trace scatter trace99cd45" style="stroke-miterlimit: 2; opacity: 1;"><g class="fills"/><g class="errorbars"/><g class="lines"><path class="js-line" d="M13.53,75.05L279.01,74.3L279.65,74.29L429.14,73.56L429.79,73.53L480.05,72.01L480.69,71.98L494.22,71.08L494.87,71.01L507.76,68.45L508.4,68.26L520.64,65.97L521.29,65.91L536.75,64.95L537.4,64.92L574.77,64.49L575.41,64.49L604.41,63.74L605.05,63.71L645,62.59L645.65,62.58L674,61.74" style="vector-effect: non-scaling-stroke; fill: none; stroke: rgb(66, 146, 198); stroke-opacity: 1; stroke-width: 2px; opacity: 1; stroke-dasharray: 3px, 3px;"/></g><g class="points"/><g class="text"/></g><g class="trace scatter tracea4f3aa" style="stroke-miterlimit: 2; opacity: 1;"><g class="fills"/><g class="errorbars"/><g class="lines"><path class="js-line" d="M0,75.05L36.08,74.38L36.73,74.23L41.24,72.38L41.88,72L57.99,62.49L58.64,62.24L66.37,59.87L67.01,59.72L78.61,57.81L79.26,57.74L92.14,56.84L92.79,56.81L122.43,56.16L123.07,56.15L164.31,55.42L164.96,55.38L177.84,53.83L178.49,53.72L195.24,49.85L195.89,49.69L215.86,44.11L216.5,43.84L223.59,40.24L224.24,39.81L238.41,30.85L239.06,30.58L246.79,27.85L247.43,27.68L256.46,26.04L257.1,25.97L273.21,24.92L273.85,24.91L299.63,24.47L300.27,24.47L366,22.98L366.64,22.94L427.85,18.38L428.5,18.33L464.58,15.33L465.23,15.25L489.71,13.3L490.36,13.27L545.13,9.58L545.77,9.56L580.57,8.3L581.21,8.23L614.07,6.93L614.72,6.92L646.29,5.68L646.94,5.65L670.13,5.3L670.78,5.3L674,5.15" style="vector-effect: non-scaling-stroke; fill: none; stroke: rgb(33, 113, 181); stroke-opacity: 1; stroke-width: 2px; opacity: 1; stroke-dasharray: 9px, 3px, 3px, 3px;"/></g><g class="points"/><g class="text"/></g><g class="trace scatter trace7cd8bc" style="stroke-miterlimit: 2; opacity: 1;"><g class="fills"/><g class="errorbars"/><g class="lines"><path class="js-line" d="M19.33,75.05L41.24,74.4L41.88,74.29L57.99,70.82L58.64,70.68L74.75,68.36L75.39,68.32L86.34,67.35L86.99,67.3L108.9,65.88L109.54,65.83L126.29,64.1L126.94,64.01L193.95,57.67L194.6,57.57L202.97,55.69L203.62,55.47L224.88,49.49L225.53,49.24L235.84,45.9L236.48,45.77L242.28,44.11L242.92,43.89L249.37,42.49L250.01,42.41L285.45,38.13L286.1,38.11L369.86,33.62L370.51,33.5L378.24,32.37L378.88,32.16L394.35,29.12L394.99,29L412.39,26.21L413.03,26.12L454.92,20.44L455.56,20.31L488.42,12.89L489.07,12.88L497.45,11.64L498.09,11.63L510.98,10.51L511.62,10.51L547.06,9.03L547.71,9.03L570.9,8.29L571.55,8.26L596.03,7.04L596.68,7.04L612.14,6.31L612.79,6.26L633.41,5.37L634.05,5.36L662.4,4.3L663.05,4.29L674,3.95" style="vector-effect: non-scaling-stroke; fill: none; stroke: rgb(8, 69, 148); stroke-opacity: 1; stroke-width: 2px; opacity: 1; stroke-dasharray: 15px, 15px;"/></g><g class="points"/><g class="text"/></g></g></g><g class="overplot"/><path class="xlines-above crisp" style="fill: none;"/><path class="ylines-above crisp" style="fill: none;"/><g class="overlines-above"/><g class="xaxislayer-above"/><g class="yaxislayer-above"/><g class="overaxes-above"/></g><rect class="rangeslider-mask-min" x="0" y="0" shape-rendering="crispEdges" height="78.75" width="0" style="fill: rgb(0, 0, 0); fill-opacity: 0.4;"/><rect class="rangeslider-mask-max" y="0" shape-rendering="crispEdges" height="78.75" x="674" width="0" style="fill: rgb(0, 0, 0); fill-opacity: 0.4;"/><g class="rangeslider-grabber-min" transform="translate(-2.5,0.5)"><rect class="rangeslider-handle-min" x="0" width="4" rx="1" fill="#fff" stroke="#444" stroke-width="1" shape-rendering="crispEdges" y="20" height="39"/><rect class="rangeslider-grabarea-min" width="10" x="0" y="0" fill="transparent" height="78.75"/></g><g class="rangeslider-grabber-max" transform="translate(672.5,0.5)"><rect class="rangeslider-handle-max" x="0" width="4" rx="1" fill="#fff" stroke="#444" stroke-width="1" shape-rendering="crispEdges" y="20" height="39"/><rect class="rangeslider-grabarea-max" width="10" x="0" y="0" fill="transparent" height="78.75"/></g></g><g class="g-ytitle"><text class="ytitle" transform="rotate(-90,20,255)" x="20" y="255" text-anchor="middle" style="font-family: 'Open Sans', verdana, arial, sans-serif; font-size: 14px; fill: rgb(68, 68, 68); opacity: 1; font-weight: normal; white-space: pre;">10만명당 사망자수 누계</text></g><g class="g-xtitle"/></g></svg>