<svg class="main-svg" xmlns="http://www.w3.org/2000/svg" xmlns:xlink="http://www.w3.org/1999/xlink" width="900" height="600" style="" viewBox="0 0 900 600"><rect x="0" y="0" width="900" height="600" style="fill: rgb(255, 255, 255); fill-opacity: 1;"/><defs id="defs-1d7a27"><g class="clips"><clipPath id="clip1d7a27xyplot" class="plotclip"><rect width="674" height="388"/></clipPath><clipPath class="axesclip" id="clip1d7a27x"><rect x="58" y="0" width="674" height="600"/></clipPath><clipPath class="axesclip" id="clip1d7a27y"><rect x="0" y="75" width="900" height="388"/></clipPath><clipPath class="axesclip" id="clip1d7a27xy"><rect x="58" y="75" width="674" height="388"/></clipPath></g><g class="gradients"/><g class="patterns"/></defs><g class="bglayer"/><g class="layer-below"><g class="imagelayer"/><g class="shapelayer"/></g><g class="cartesianlayer"><g class="subplot xy"><g class="layer-subplot"><g class="shapelayer"/><g class="imagelayer"/></g><g class="gridlayer"><g class="x"><path class="xgrid crisp" transform="translate(156.59,0)" d="M0,75v388" style="stroke: rgb(238, 238, 238); stroke-opacity: 1; stroke-width: 1px;"/><path class="xgrid crisp" transform="translate(275.15,0)" d="M0,75v388" style="stroke: rgb(238, 238, 238); stroke-opacity: 1; stroke-width: 1px;"/><path class="xgrid crisp" transform="translate(391.78,0)" d="M0,75v388" style="stroke: rgb(238, 238, 238); stroke-opacity: 1; stroke-width: 1px;"/><path class="xgrid crisp" transform="translate(510.34,0)" d="M0,75v388" style="stroke: rgb(238, 238, 238); stroke-opacity: 1; stroke-width: 1px;"/><path class="xgrid crisp" transform="translate(626.97,0)" d="M0,75v388" style="stroke: rgb(238, 238, 238); stroke-opacity: 1; stroke-width: 1px;"/></g><g class="y"><path class="ygrid crisp" transform="translate(0,389.13)" d="M58,0h674" style="stroke: rgb(238, 238, 238); stroke-opacity: 1; stroke-width: 1px;"/><path class="ygrid crisp" transform="translate(0,334.67)" d="M58,0h674" style="stroke: rgb(238, 238, 238); stroke-opacity: 1; stroke-width: 1px;"/><path class="ygrid crisp" transform="translate(0,280.2)" d="M58,0h674" style="stroke: rgb(238, 238, 238); stroke-opacity: 1; stroke-width: 1px;"/><path class="ygrid crisp" transform="translate(0,225.73)" d="M58,0h674" style="stroke: rgb(238, 238, 238); stroke-opacity: 1; stroke-width: 1px;"/><path class="ygrid crisp" transform="translate(0,171.26999999999998)" d="M58,0h674" style="stroke: rgb(238, 238, 238); stroke-opacity: 1; stroke-width: 1px;"/><path class="ygrid crisp" transform="translate(0,116.8)" d="M58,0h674" style="stroke: rgb(238, 238, 238); stroke-opacity: 1; stroke-width: 1px;"/></g></g><g class="zerolinelayer"><path class="yzl zl crisp" transform="translate(0,443.6)" d="M58,0h674" style="stroke: rgb(68, 68, 68); stroke-opacity: 1; stroke-width: 1px;"/></g><path class="xlines-below"/><path class="ylines-below"/><g class="overlines-below"/><g class="xaxislayer-below"/><g class="yaxislayer-below"/><g class="overaxes-below"/><g class="plot" transform="translate(58,75)" clip-path="url(#clip1d7a27xyplot)"><g class="scatterlayer mlayer"><g class="trace scatter tracec872c3" style="stroke-miterlimit: 2; opacity: 1;"><g class="fills"/><g class="errorbars"/><g class="lines"><path class="js-line" d="M10.31,368.6L32.22,367.88L32.86,367.7L35.44,366.46L36.08,365.87L39.31,362.94L39.95,360.92L41.24,358.14L41.88,356.45L43.17,354.28L43.82,352.01L45.11,348.98L45.75,347.4L48.33,343.36L48.97,341.05L52.84,335.24L53.48,334.36L56.7,331.22L57.35,330.64L59.93,328.82L60.57,328.6L64.44,326.33L65.08,326.22L70.24,323.23L70.88,323.58L77.32,322.47L77.97,322.38L110.83,320.12L111.47,320.14L146.91,318.87L147.56,318.79L164.96,315.89L165.6,315.68L171.4,313.64L172.04,313.16L173.98,312.36L174.62,311.51L178.49,308.45L179.13,306.39L180.42,305.87L181.07,304.54L183,302.74L183.64,300.76L184.93,299.57L185.58,298.07L187.51,296.2L188.15,294.24L189.44,292.88L190.09,291.05L192.02,289.5L192.66,287.88L198.46,281.61L199.11,280.6L201.04,279.39L201.68,278.06L205.55,274.96L206.2,273.69L210.06,270.75L210.71,269.46L214.57,267.2L215.22,265.65L219.08,263.5L219.73,262.11L225.53,257.24L226.17,256.22L228.1,255.03L228.75,253.98L233.26,249.54L233.9,248.98L237.12,245.67L237.77,244.51L239.06,243.93L239.7,242.32L241.63,241L242.28,239.84L248.08,234.62L248.72,233.7L251.3,231.97L251.94,231.52L257.1,227.49L257.74,226.78L260.32,225.13L260.97,224.6L270.63,218.58L271.28,217.14L274.5,214.95L275.14,214.45L285.45,206.99L286.1,206.76L289.96,203.58L290.61,203.35L294.47,200.38L295.12,200.2L298.98,197.86L299.63,197.67L302.85,196.02L303.49,195.84L309.29,194.03L309.94,193.67L317.02,191.92L317.67,191.87L330.56,190.33L331.2,190.3L346.67,189.36L347.31,189.35L364.06,187.16L364.71,186.97L375.66,184.08L376.31,184.01L384.04,182.26L384.68,182.19L422.7,178.55L423.34,178.46L434.94,176.49L435.59,176.17L454.92,168.01L455.56,167.68L463.94,163.44L464.58,162.7L471.67,158.15L472.32,157.56L477.47,153.86L478.11,152.81L484.56,149.07L485.2,149.03L487.14,147.18L487.78,146.88L491.65,145.3L492.29,145.01L515.49,138.39L516.13,138.32L520.64,136.92L521.29,136.84L529.02,134.07L529.66,134.02L534.17,132.8L534.82,132.58L541.91,131.1L542.55,131.1L548.35,130.34L548.99,130.22L568.97,128.2L569.61,128.2L574.77,127.51L575.41,127.25L578.63,126.87L579.28,126.87L581.21,125.76L581.86,125.55L591.52,123.46L592.17,123.46L595.39,122.73L596.03,122.61L601.83,121.91L602.48,121.72L609.56,120.8L610.21,120.8L617.94,120.07L618.59,120.03L628.89,119.32L629.54,119.18L674,112.1" style="vector-effect: non-scaling-stroke; fill: none; stroke: rgb(158, 202, 225); stroke-opacity: 1; stroke-width: 2px; opacity: 1;"/></g><g class="points"/><g class="text"/></g><g class="trace scatter tracee8200c" style="stroke-miterlimit: 2; opacity: 1;"><g class="fills"/><g class="errorbars"/><g class="lines"><path class="js-line" d="M9.02,368.6L74.75,367.85L75.39,367.84L173.33,367.09L173.98,367.08L204.26,366.33L204.91,366.31L235.19,363.68L235.84,363.6L272.56,360.63L273.21,360.61L302.85,358.6L303.49,358.51L313.16,357.19L313.8,357.12L328.62,355.8L329.27,355.76L382.11,353.74L382.75,353.68L400.15,352.79L400.79,352.76L422.7,352.49L423.34,352.49L476.18,351.5L476.83,351.36L487.78,348.32L488.42,348.1L510.33,343.82L510.98,343.77L589.59,339.73L590.23,339.58L599.25,336.96L599.9,336.71L615.36,331.11L616.01,330.98L622.45,329.76L623.1,329.68L666.27,325.15L666.91,324.96L674,323.16" style="vector-effect: non-scaling-stroke; fill: none; stroke: rgb(107, 174, 214); stroke-opacity: 1; stroke-width: 2px; opacity: 1; stroke-dasharray: 9px, 9px;"/></g><g class="points"/><g class="text"/></g><g class="trace scatter trace2c0565" style="stroke-miterlimit: 2; opacity: 1;"><g class="fills"/><g class="errorbars"/><g class="lines"><path class="js-line" d="M13.53,368.6L145.63,367.85L146.27,367.84L220.37,366.4L221.02,366.33L248.08,365.34L248.72,365.34L413.03,362.56L413.68,362.52L435.59,360.28L436.23,360.15L465.87,354.85L466.52,354.8L485.85,352.61L486.49,352.44L492.93,349.77L493.58,349.48L499.38,345.37L500.02,344.46L507.76,336.18L508.4,335.27L514.84,328.46L515.49,327.77L521.29,323.71L521.93,323.36L529.66,320.34L530.31,320.23L541.26,318.39L541.91,318.33L549.64,317.7L550.28,317.66L590.23,315.74L590.88,315.64L604.41,313.07L605.05,312.89L622.45,309.57L623.1,309.44L629.54,308.63L630.18,308.59L661.76,305.19L662.4,305.06L674,303.22" style="vector-effect: non-scaling-stroke; fill: none; stroke: rgb(66, 146, 198); stroke-opacity: 1; stroke-width: 2px; opacity: 1; stroke-dasharray: 3px, 3px;"/></g><g class="points"/><g class="text"/></g><g class="trace scatter trace50d1c7" style="stroke-miterlimit: 2; opacity: 1;"><g class="fills"/><g class="errorbars"/><g class="lines"><path class="js-line" d="M0,368.6L31.57,368.01L32.22,367.82L35.44,365.98L36.08,365.32L38.66,361.65L39.31,360.3L43.17,349.77L43.82,347.68L50.9,324.38L51.55,322.57L56.7,309.55L57.35,308.25L63.15,298.05L63.79,297.13L69.59,290.61L70.24,289.96L76.03,285.45L76.68,284.98L83.12,281.78L83.77,281.52L94.08,278.69L94.72,278.52L106.96,276.83L107.61,276.77L159.8,273.3L160.45,273.19L168.18,270.79L168.82,270.52L174.62,267.06L175.27,266.61L182.35,260.03L183,259.23L191.37,249.54L192.02,248.72L211.99,223.52L212.64,222.46L219.08,209.91L219.73,208.34L224.88,193.4L225.53,191.24L236.48,156.28L237.12,154.66L242.28,143.88L242.92,142.73L248.72,134.36L249.37,133.64L254.52,129.14L255.17,128.66L262.25,125.15L262.9,124.93L271.92,122.61L272.56,122.53L284.16,121.09L284.81,121.04L298.98,120.2L299.63,120.18L341.51,118.18L342.15,118.1L355.04,115.58L355.69,115.43L375.02,109.99L375.66,109.75L394.99,102.81L395.64,102.59L406.59,98.78L407.24,98.51L429.79,89.63L430.43,89.39L456.85,79.87L457.5,79.48L472.32,71.26L472.96,70.96L480.69,68.04L481.34,67.83L496.16,63.52L496.8,63.32L505.82,59.92L506.47,59.67L516.78,54.72L517.42,54.4L524.51,51.43L525.15,51.22L536.11,48.37L536.75,48.26L550.28,46.51L550.93,46.47L569.61,44.03L570.26,43.92L579.92,41.09L580.57,40.74L585.72,39.09L586.37,38.9L597.32,36.39L597.97,36.25L616.65,33.8L617.3,33.73L634.05,31.05L634.69,30.89L648.23,27.48L648.87,27.37L657.89,26.09L658.54,26.05L674,25.28" style="vector-effect: non-scaling-stroke; fill: none; stroke: rgb(33, 113, 181); stroke-opacity: 1; stroke-width: 2px; opacity: 1; stroke-dasharray: 9px, 3px, 3px, 3px;"/></g><g class="points"/><g class="text"/></g><g class="trace scatter trace97ebb2" style="stroke-miterlimit: 2; opacity: 1;"><g class="fills"/><g class="errorbars"/><g class="lines"><path class="js-line" d="M19.33,368.6L36.73,367.86L37.37,367.63L39.95,366.35L40.59,365.85L44.46,362.24L45.11,361.52L59.93,345.98L60.57,345.59L67.01,340.33L67.66,339.76L72.81,336.5L73.46,336.16L79.9,333.31L80.54,332.99L86.99,330.55L87.63,330.44L95.37,328.13L96.01,327.97L101.81,326.56L102.45,326.19L116.63,319.83L117.27,319.41L128.23,313.86L128.87,313.71L134.67,311.01L135.32,310.65L146.27,306.4L146.91,306.26L150.78,304.7L151.42,304.57L158.51,301.73L159.16,301.51L163.02,300.1L163.67,299.89L169.47,297.92L170.11,297.61L176.55,294.68L177.2,294.38L179.78,293.14L180.42,292.76L189.44,287.01L190.09,286.38L197.82,279.78L198.46,278.85L213.28,260.23L213.93,259.77L215.22,258.01L215.86,256.76L218.44,253.74L219.08,253.09L227.46,238.85L228.1,238.34L229.39,236.15L230.04,234.83L235.19,226.35L235.84,225.43L237.77,223.1L238.41,221.85L240.99,218.08L241.63,217.61L245.5,212.52L246.15,212.22L251.3,207.16L251.94,206.12L255.17,203.4L255.81,202.78L258.39,200.31L259.03,200.08L260.97,198.79L261.61,198.29L266.76,195.49L267.41,195.24L274.5,192.02L275.14,191.66L289.96,185.67L290.61,185.57L297.05,183.3L297.69,183.04L307.36,180.21L308,180.05L310.58,179.32L311.23,178.88L322.18,176.73L322.82,176.67L343.44,173.78L344.09,173.75L351.82,172.65L352.46,172.36L356.33,171.59L356.98,171.22L360.84,170.07L361.49,169.73L364.06,168.91L364.71,168.52L366.64,167.29L367.28,167.21L373.73,162.56L374.37,161.59L376.31,160.61L376.95,160.42L384.68,152.34L385.33,152.2L393.06,143.49L393.7,143.22L394.99,142.42L395.64,141.81L398.21,139.43L398.86,139.27L400.15,138.16L400.79,137.13L402.72,135.64L403.37,135.49L408.52,131.26L409.17,130.74L411.75,128.8L412.39,128.71L427.85,119.2L428.5,119.04L431.08,118.1L431.72,117.57L434.94,114.8L435.59,114.34L443.32,108.99L443.96,108.89L445.25,107.77L445.9,106.43L447.83,105.67L448.47,105.55L452.34,102.61L452.98,102.48L460.07,95.25L460.72,94.35L463.29,92.56L463.94,91.44L465.87,89.07L466.52,88.84L469.09,85.03L469.74,83.71L471.67,82.33L472.32,81.24L474.89,77.67L475.54,77.52L479.4,72.36L480.05,72.18L483.91,67.31L484.56,67.17L485.85,66.17L486.49,65.17L488.42,63.31L489.07,63.24L492.93,60.09L493.58,60.02L498.09,57.11L498.73,56.69L505.82,53.21L506.47,53.16L508.4,52.5L509.04,52.12L524.51,48.53L525.15,48.52L530.95,47.52L531.6,46.89L554.15,43.08L554.79,42.98L580.57,38.45L581.21,38.16L623.74,28.35L624.38,28.34L664.33,21.03L664.98,21.03L674,19.4" style="vector-effect: non-scaling-stroke; fill: none; stroke: rgb(8, 69, 148); stroke-opacity: 1; stroke-width: 2px; opacity: 1; stroke-dasharray: 15px, 15px;"/></g><g class="points"/><g class="text"/></g></g></g><g class="overplot"/><path class="xlines-above crisp" d="M0,0" style="fill: none;"/><path class="ylines-above crisp" d="M0,0" style="fill: none;"/><g class="overlines-above"/><g class="xaxislayer-above"><g class="xtick"><text text-anchor="middle" x="0" y="476" transform="translate(156.59,0)" style="font-family: 'Open Sans', verdana, arial, sans-serif; font-size: 12px; fill: rgb(68, 68, 68); fill-opacity: 1; white-space: pre; opacity: 1;">Jul 2020</text></g><g class="xtick"><text text-anchor="middle" x="0" y="476" style="font-family: 'Open Sans', verdana, arial, sans-serif; font-size: 12px; fill: rgb(68, 68, 68); fill-opacity: 1; white-space: pre; opacity: 1;" transform="translate(275.15,0)">Jan 2021</text></g><g class="xtick"><text text-anchor="middle" x="0" y="476" style="font-family: 'Open Sans', verdana, arial, sans-serif; font-size: 12px; fill: rgb(68, 68, 68); fill-opacity: 1; white-space: pre; opacity: 1;" transform="translate(391.78,0)">Jul 2021</text></g><g class="xtick"><text text-anchor="middle" x="0" y="476" style="font-family: 'Open Sans', verdana, arial, sans-serif; font-size: 12px; fill: rgb(68, 68, 68); fill-opacity: 1; white-space: pre; opacity: 1;" transform="translate(510.34,0)">Jan 2022</text></g><g class="xtick"><text text-anchor="middle" x="0" y="476" style="font-family: 'Open Sans', verdana, arial, sans-serif; font-size: 12px; fill: rgb(68, 68, 68); fill-opacity: 1; white-space: pre; opacity: 1;" transform="translate(626.97,0)">Jul 2022</text></g></g><g class="yaxislayer-above"><g class="ytick"><text text-anchor="end" x="57" y="4.199999999999999" transform="translate(0,443.6)" style="font-family: 'Open Sans', verdana, arial, sans-serif; font-size: 12px; fill: rgb(68, 68, 68); fill-opacity: 1; white-space: pre; opacity: 1;">0</text></g><g class="ytick"><text text-anchor="end" x="57" y="4.199999999999999" style="font-family: 'Open Sans', verdana, arial, sans-serif; font-size: 12px; fill: rgb(68, 68, 68); fill-opacity: 1; white-space: pre; opacity: 1;" transform="translate(0,389.13)">500</text></g><g class="ytick"><text text-anchor="end" x="57" y="4.199999999999999" style="font-family: 'Open Sans', verdana, arial, sans-serif; font-size: 12px; fill: rgb(68, 68, 68); fill-opacity: 1; white-space: pre; opacity: 1;" transform="translate(0,334.67)">1000</text></g><g class="ytick"><text text-anchor="end" x="57" y="4.199999999999999" style="font-family: 'Open Sans', verdana, arial, sans-serif; font-size: 12px; fill: rgb(68, 68, 68); fill-opacity: 1; white-space: pre; opacity: 1;" transform="translate(0,280.2)">1500</text></g><g class="ytick"><text text-anchor="end" x="57" y="4.199999999999999" style="font-family: 'Open Sans', verdana, arial, sans-serif; font-size: 12px; fill: rgb(68, 68, 68); fill-opacity: 1; white-space: pre; opacity: 1;" transform="translate(0,225.73)">2000</text></g><g class="ytick"><text text-anchor="end" x="57" y="4.199999999999999" style="font-family: 'Open Sans', verdana, arial, sans-serif; font-size: 12px; fill: rgb(68, 68, 68); fill-opacity: 1; white-space: pre; opacity: 1;" transform="translate(0,171.26999999999998)">2500</text></g><g class="ytick"><text text-anchor="end" x="57" y="4.199999999999999" style="font-family: 'Open Sans', verdana, arial, sans-serif; font-size: 12px; fill: rgb(68, 68, 68); fill-opacity: 1; white-space: pre; opacity: 1;" transform="translate(0,116.8)">3000</text></g></g><g class="overaxes-above"/></g></g><g class="polarlayer"/><g class="ternarylayer"/><g class="geolayer"/><g class="funnelarealayer"/><g class="pielayer"/><g class="iciclelayer"/><g class="treemaplayer"/><g class="sunburstlayer"/><g class="glimages"/><defs id="topdefs-1d7a27"><g class="clips"/><clipPath id="legend1d7a27"><rect width="142" height="105" x="0" y="0"/></clipPath><clipPath id="rangesliderx-1d7a27"><rect x="0" y="0" width="674" height="75"/></clipPath></defs><g class="layer-above"><g class="imagelayer"/><g class="shapelayer"/></g><g class="infolayer"><g class="legend" pointer-events="all" transform="translate(745.48,75)"><rect class="bg" shape-rendering="crispEdges" width="142" height="105" x="0" y="0" style="stroke: rgb(68, 68, 68); stroke-opacity: 1; fill: rgb(255, 255, 255); fill-opacity: 1; stroke-width: 0px;"/><g class="scrollbox" transform="" clip-path="url(#legend1d7a27)"><g class="groups"><g class="traces" transform="translate(0,14.5)" style="opacity: 1;"><text class="legendtext" text-anchor="start" x="40" y="4.680000000000001" style="font-family: 'Open Sans', verdana, arial, sans-serif; font-size: 12px; fill: rgb(68, 68, 68); fill-opacity: 1; white-space: pre;">France</text><g class="layers" style="opacity: 1;"><g class="legendfill"/><g class="legendlines"><path class="js-line" d="M5,0h30" style="fill: none; stroke: rgb(158, 202, 225); stroke-opacity: 1; stroke-width: 2px;"/></g><g class="legendsymbols"><g class="legendpoints"/></g></g><rect class="legendtoggle" x="0" y="-9.5" width="136.34410095214844" height="19" style="fill: rgb(0, 0, 0); fill-opacity: 0;"/></g><g class="traces" transform="translate(0,33.5)" style="opacity: 1;"><text class="legendtext" text-anchor="start" x="40" y="4.680000000000001" style="font-family: 'Open Sans', verdana, arial, sans-serif; font-size: 12px; fill: rgb(68, 68, 68); fill-opacity: 1; white-space: pre;">Japan</text><g class="layers" style="opacity: 1;"><g class="legendfill"/><g class="legendlines"><path class="js-line" d="M5,0h30" style="fill: none; stroke: rgb(107, 174, 214); stroke-opacity: 1; stroke-dasharray: 9px, 9px; stroke-width: 2px;"/></g><g class="legendsymbols"><g class="legendpoints"/></g></g><rect class="legendtoggle" x="0" y="-9.5" width="136.34410095214844" height="19" style="fill: rgb(0, 0, 0); fill-opacity: 0;"/></g><g class="traces" transform="translate(0,52.5)" style="opacity: 1;"><text class="legendtext" text-anchor="start" x="40" y="4.680000000000001" style="font-family: 'Open Sans', verdana, arial, sans-serif; font-size: 12px; fill: rgb(68, 68, 68); fill-opacity: 1; white-space: pre;">South Korea</text><g class="layers" style="opacity: 1;"><g class="legendfill"/><g class="legendlines"><path class="js-line" d="M5,0h30" style="fill: none; stroke: rgb(66, 146, 198); stroke-opacity: 1; stroke-dasharray: 3px, 3px; stroke-width: 2px;"/></g><g class="legendsymbols"><g class="legendpoints"/></g></g><rect class="legendtoggle" x="0" y="-9.5" width="136.34410095214844" height="19" style="fill: rgb(0, 0, 0); fill-opacity: 0;"/></g><g class="traces" transform="translate(0,71.5)" style="opacity: 1;"><text class="legendtext" text-anchor="start" x="40" y="4.680000000000001" style="font-family: 'Open Sans', verdana, arial, sans-serif; font-size: 12px; fill: rgb(68, 68, 68); fill-opacity: 1; white-space: pre;">United Kingdom</text><g class="layers" style="opacity: 1;"><g class="legendfill"/><g class="legendlines"><path class="js-line" d="M5,0h30" style="fill: none; stroke: rgb(33, 113, 181); stroke-opacity: 1; stroke-dasharray: 9px, 3px, 3px, 3px; stroke-width: 2px;"/></g><g class="legendsymbols"><g class="legendpoints"/></g></g><rect class="legendtoggle" x="0" y="-9.5" width="136.34410095214844" height="19" style="fill: rgb(0, 0, 0); fill-opacity: 0;"/></g><g class="traces" transform="translate(0,90.5)" style="opacity: 1;"><text class="legendtext" text-anchor="start" x="40" y="4.680000000000001" style="font-family: 'Open Sans', verdana, arial, sans-serif; font-size: 12px; fill: rgb(68, 68, 68); fill-opacity: 1; white-space: pre;">United States</text><g class="layers" style="opacity: 1;"><g class="legendfill"/><g class="legendlines"><path class="js-line" d="M5,0h30" style="fill: none; stroke: rgb(8, 69, 148); stroke-opacity: 1; stroke-dasharray: 15px, 15px; stroke-width: 2px;"/></g><g class="legendsymbols"><g class="legendpoints"/></g></g><rect class="legendtoggle" x="0" y="-9.5" width="136.34410095214844" height="19" style="fill: rgb(0, 0, 0); fill-opacity: 0;"/></g></g></g><rect class="scrollbar" rx="20" ry="3" width="0" height="0" x="0" y="0" style="fill: rgb(128, 139, 164); fill-opacity: 1;"/></g><g class="rangeselector" transform="translate(25,46)" style="cursor: pointer; pointer-events: all;"><g class="button" transform=""><rect class="selector-rect" shape-rendering="crispEdges" rx="3" ry="3" x="0" y="0" width="97.25052642822266" height="19" style="stroke: rgb(68, 68, 68); stroke-opacity: 1; fill: rgb(238, 238, 238); fill-opacity: 1; stroke-width: 0px;"/><text class="selector-text" text-anchor="middle" x="48.62526321411133" y="12.5" style="font-family: 'Open Sans', verdana, arial, sans-serif; font-size: 12px; fill: rgb(68, 68, 68); fill-opacity: 1; white-space: pre;">1 Week before</text></g><g class="button" transform="translate(102.25052642822266,0)"><rect class="selector-rect" shape-rendering="crispEdges" rx="3" ry="3" x="0" y="0" width="103.45347595214844" height="19" style="stroke: rgb(68, 68, 68); stroke-opacity: 1; fill: rgb(238, 238, 238); fill-opacity: 1; stroke-width: 0px;"/><text class="selector-text" text-anchor="middle" x="51.72673797607422" y="12.5" style="font-family: 'Open Sans', verdana, arial, sans-serif; font-size: 12px; fill: rgb(68, 68, 68); fill-opacity: 1; white-space: pre;">1 month before</text></g><g class="button" transform="translate(210.7040023803711,0)"><rect class="selector-rect" shape-rendering="crispEdges" rx="3" ry="3" x="0" y="0" width="109.70347595214844" height="19" style="stroke: rgb(68, 68, 68); stroke-opacity: 1; fill: rgb(238, 238, 238); fill-opacity: 1; stroke-width: 0px;"/><text class="selector-text" text-anchor="middle" x="54.85173797607422" y="12.5" style="font-family: 'Open Sans', verdana, arial, sans-serif; font-size: 12px; fill: rgb(68, 68, 68); fill-opacity: 1; white-space: pre;">6 months before</text></g><g class="button" transform="translate(325.40747833251953,0)"><rect class="selector-rect" shape-rendering="crispEdges" rx="3" ry="3" x="0" y="0" width="97.578125" height="19" style="stroke: rgb(68, 68, 68); stroke-opacity: 1; fill: rgb(238, 238, 238); fill-opacity: 1; stroke-width: 0px;"/><text class="selector-text" text-anchor="middle" x="48.7890625" y="12.5" style="font-family: 'Open Sans', verdana, arial, sans-serif; font-size: 12px; fill: rgb(68, 68, 68); fill-opacity: 1; white-space: pre;">new years day</text></g><g class="button" transform="translate(427.98560333251953,0)"><rect class="selector-rect" shape-rendering="crispEdges" rx="3" ry="3" x="0" y="0" width="91.04669189453125" height="19" style="stroke: rgb(68, 68, 68); stroke-opacity: 1; fill: rgb(238, 238, 238); fill-opacity: 1; stroke-width: 0px;"/><text class="selector-text" text-anchor="middle" x="45.523345947265625" y="12.5" style="font-family: 'Open Sans', verdana, arial, sans-serif; font-size: 12px; fill: rgb(68, 68, 68); fill-opacity: 1; white-space: pre;">1 year before</text></g></g><g class="g-gtitle"><text class="gtitle" x="450" y="37.5" text-anchor="middle" dy="0em" style="font-family: 'Open Sans', verdana, arial, sans-serif; font-size: 17px; fill: rgb(68, 68, 68); opacity: 1; font-weight: normal; white-space: pre;">코로나 19 사망자수 추세</text></g><g class="rangeslider-container" pointer-events="all" transform="translate(58,494)"><rect class="rangeslider-bg" x="0" y="0" shape-rendering="crispEdges" width="674" height="75" transform="" fill="#fff" stroke="#444" stroke-width="0"/><g class="rangeslider-rangeplot xy" clip-path="url(#rangesliderx-1d7a27)"><g class="layer-subplot"><g class="shapelayer"/><g class="imagelayer"/></g><g class="gridlayer"><g class="x"/><g class="y"/></g><g class="zerolinelayer"/><path class="xlines-below"/><path class="ylines-below"/><g class="overlines-below"/><g class="xaxislayer-below"/><g class="yaxislayer-below"/><g class="overaxes-below"/><g class="plot"><g class="scatterlayer mlayer rangeplot"><g class="trace scatter tracec872c3" style="stroke-miterlimit: 2; opacity: 1;"><g class="fills"/><g class="errorbars"/><g class="lines"><path class="js-line" d="M10.31,71.25L37.37,70.53L38.02,70.44L41.88,68.9L42.53,68.74L54.13,64.47L54.77,64.35L68.3,62.7L68.95,62.67L72.81,62.44L73.46,62.42L87.63,62.12L88.28,62.11L102.45,61.95L103.1,61.95L173.33,60.5L173.98,60.38L200.4,54.12L201.04,54.01L204.26,53.31L204.91,53.26L268.7,42.49L269.34,42.4L311.87,37.31L312.51,37.29L449.76,32.98L450.41,32.92L471.67,30.57L472.32,30.46L495.51,27.83L496.16,27.79L550.28,25.14L550.93,25.13L579.92,24.39L580.57,24.35L607.63,23.4L608.28,23.38L674,21.67" style="vector-effect: non-scaling-stroke; fill: none; stroke: rgb(158, 202, 225); stroke-opacity: 1; stroke-width: 2px; opacity: 1;"/></g><g class="points"/><g class="text"/></g><g class="trace scatter tracee8200c" style="stroke-miterlimit: 2; opacity: 1;"><g class="fills"/><g class="errorbars"/><g class="lines"><path class="js-line" d="M9.02,71.25L226.17,70.5L226.81,70.49L416.9,68.14L417.54,68.14L486.49,67.41L487.14,67.38L507.76,66.52L508.4,66.51L546.42,66.07L547.06,66.06L596.03,65.34L596.68,65.3L645,63.34L645.65,63.33L674,62.47" style="vector-effect: non-scaling-stroke; fill: none; stroke: rgb(107, 174, 214); stroke-opacity: 1; stroke-width: 2px; opacity: 1; stroke-dasharray: 9px, 9px;"/></g><g class="points"/><g class="text"/></g><g class="trace scatter trace2c0565" style="stroke-miterlimit: 2; opacity: 1;"><g class="fills"/><g class="errorbars"/><g class="lines"><path class="js-line" d="M13.53,71.25L297.05,70.5L297.69,70.49L432.37,69.74L433.01,69.73L476.18,68.44L476.83,68.43L494.87,67.41L495.51,67.33L508.4,64.81L509.04,64.65L523.22,62.36L523.86,62.3L549.64,61.41L550.28,61.4L601.19,60.67L601.83,60.64L674,58.61" style="vector-effect: non-scaling-stroke; fill: none; stroke: rgb(66, 146, 198); stroke-opacity: 1; stroke-width: 2px; opacity: 1; stroke-dasharray: 3px, 3px;"/></g><g class="points"/><g class="text"/></g><g class="trace scatter trace50d1c7" style="stroke-miterlimit: 2; opacity: 1;"><g class="fills"/><g class="errorbars"/><g class="lines"><path class="js-line" d="M0,71.25L36.08,70.62L36.73,70.47L41.24,68.71L41.88,68.36L57.99,59.33L58.64,59.09L66.37,56.84L67.01,56.7L77.97,54.94L78.61,54.88L99.23,53.69L99.88,53.67L139.18,53.18L139.83,53.18L166.89,52.45L167.53,52.4L181.71,50.4L182.35,50.26L215.86,41.88L216.5,41.62L223.59,38.2L224.24,37.79L239.06,29.03L239.7,28.76L249.37,25.83L250.01,25.7L263.54,24.11L264.19,24.06L296.41,23.26L297.05,23.25L351.18,22.51L351.82,22.49L456.85,15.44L457.5,15.36L487.78,12.73L488.42,12.7L552.22,8.96L552.86,8.95L582.5,7.74L583.15,7.7L612.14,6.63L612.79,6.61L674,4.89" style="vector-effect: non-scaling-stroke; fill: none; stroke: rgb(33, 113, 181); stroke-opacity: 1; stroke-width: 2px; opacity: 1; stroke-dasharray: 9px, 3px, 3px, 3px;"/></g><g class="points"/><g class="text"/></g><g class="trace scatter trace97ebb2" style="stroke-miterlimit: 2; opacity: 1;"><g class="fills"/><g class="errorbars"/><g class="lines"><path class="js-line" d="M19.33,71.25L41.88,70.53L42.53,70.43L77.32,64.64L77.97,64.58L126.29,60.85L126.94,60.77L168.18,57.65L168.82,57.62L184.29,56.18L184.93,56.1L200.4,53.5L201.04,53.4L233.9,44.21L234.55,43.98L244.21,41.29L244.86,41.15L255.17,39.32L255.81,39.2L262.9,38.18L263.54,38.15L335.07,33.8L335.71,33.8L364.06,32.65L364.71,32.57L416.9,24.35L417.54,24.27L464.58,17.49L465.23,17.28L471.03,16.08L471.67,15.91L480.69,13.75L481.34,13.59L487.78,12.28L488.42,12.24L495.51,11.28L496.16,11.17L506.47,10.28L507.11,10.27L524.51,9.38L525.15,9.38L612.79,5.94L613.43,5.9L645.65,4.62L646.29,4.62L670.78,3.88L671.42,3.81L674,3.75" style="vector-effect: non-scaling-stroke; fill: none; stroke: rgb(8, 69, 148); stroke-opacity: 1; stroke-width: 2px; opacity: 1; stroke-dasharray: 15px, 15px;"/></g><g class="points"/><g class="text"/></g></g></g><g class="overplot"/><path class="xlines-above crisp" style="fill: none;"/><path class="ylines-above crisp" style="fill: none;"/><g class="overlines-above"/><g class="xaxislayer-above"/><g class="yaxislayer-above"/><g class="overaxes-above"/></g><rect class="rangeslider-mask-min" x="0" y="0" shape-rendering="crispEdges" height="75" width="0" style="fill: rgb(0, 0, 0); fill-opacity: 0.4;"/><rect class="rangeslider-mask-max" y="0" shape-rendering="crispEdges" height="75" x="674" width="0" style="fill: rgb(0, 0, 0); fill-opacity: 0.4;"/><g class="rangeslider-grabber-min" transform="translate(-2.5,0.5)"><rect class="rangeslider-handle-min" x="0" width="4" rx="1" fill="#fff" stroke="#444" stroke-width="1" shape-rendering="crispEdges" y="19" height="38"/><rect class="rangeslider-grabarea-min" width="10" x="0" y="0" fill="transparent" height="75"/></g><g class="rangeslider-grabber-max" transform="translate(672.5,0.5)"><rect class="rangeslider-handle-max" x="0" width="4" rx="1" fill="#fff" stroke="#444" stroke-width="1" shape-rendering="crispEdges" y="19" height="38"/><rect class="rangeslider-grabarea-max" width="10" x="0" y="0" fill="transparent" height="75"/></g></g><g class="g-ytitle"><text class="ytitle" transform="rotate(-90,20,269)" x="20" y="269" text-anchor="middle" style="font-family: 'Open Sans', verdana, arial, sans-serif; font-size: 14px; fill: rgb(68, 68, 68); opacity: 1; font-weight: normal; white-space: pre;">10만명당 사망자수 누계</text></g><g class="g-xtitle"/></g></svg>