<svg class="main-svg" xmlns="http://www.w3.org/2000/svg" xmlns:xlink="http://www.w3.org/1999/xlink" width="900" height="600" style="" viewBox="0 0 900 600"><rect x="0" y="0" width="900" height="600" style="fill: rgb(255, 255, 255); fill-opacity: 1;"/><defs id="defs-373b93"><g class="clips"><clipPath id="clip373b93xyplot" class="plotclip"><rect width="674" height="472"/></clipPath><clipPath class="axesclip" id="clip373b93x"><rect x="58" y="0" width="674" height="600"/></clipPath><clipPath class="axesclip" id="clip373b93y"><rect x="0" y="50" width="900" height="472"/></clipPath><clipPath class="axesclip" id="clip373b93xy"><rect x="58" y="50" width="674" height="472"/></clipPath></g><g class="gradients"/><g class="patterns"/></defs><g class="bglayer"/><g class="layer-below"><g class="imagelayer"/><g class="shapelayer"/></g><g class="cartesianlayer"><g class="subplot xy"><g class="layer-subplot"><g class="shapelayer"/><g class="imagelayer"/></g><g class="gridlayer"><g class="x"><path class="xgrid crisp" transform="translate(97.95,0)" d="M0,50v472" style="stroke: rgb(238, 238, 238); stroke-opacity: 1; stroke-width: 1px;"/><path class="xgrid crisp" transform="translate(156.59,0)" d="M0,50v472" style="stroke: rgb(238, 238, 238); stroke-opacity: 1; stroke-width: 1px;"/><path class="xgrid crisp" transform="translate(215.87,0)" d="M0,50v472" style="stroke: rgb(238, 238, 238); stroke-opacity: 1; stroke-width: 1px;"/><path class="xgrid crisp" transform="translate(275.15,0)" d="M0,50v472" style="stroke: rgb(238, 238, 238); stroke-opacity: 1; stroke-width: 1px;"/><path class="xgrid crisp" transform="translate(333.14,0)" d="M0,50v472" style="stroke: rgb(238, 238, 238); stroke-opacity: 1; stroke-width: 1px;"/><path class="xgrid crisp" transform="translate(391.78,0)" d="M0,50v472" style="stroke: rgb(238, 238, 238); stroke-opacity: 1; stroke-width: 1px;"/><path class="xgrid crisp" transform="translate(451.06,0)" d="M0,50v472" style="stroke: rgb(238, 238, 238); stroke-opacity: 1; stroke-width: 1px;"/><path class="xgrid crisp" transform="translate(510.34,0)" d="M0,50v472" style="stroke: rgb(238, 238, 238); stroke-opacity: 1; stroke-width: 1px;"/><path class="xgrid crisp" transform="translate(568.3299999999999,0)" d="M0,50v472" style="stroke: rgb(238, 238, 238); stroke-opacity: 1; stroke-width: 1px;"/><path class="xgrid crisp" transform="translate(626.97,0)" d="M0,50v472" style="stroke: rgb(238, 238, 238); stroke-opacity: 1; stroke-width: 1px;"/><path class="xgrid crisp" transform="translate(686.25,0)" d="M0,50v472" style="stroke: rgb(238, 238, 238); stroke-opacity: 1; stroke-width: 1px;"/></g><g class="y"><path class="ygrid crisp" transform="translate(0,432.14)" d="M58,0h674" style="stroke: rgb(238, 238, 238); stroke-opacity: 1; stroke-width: 1px;"/><path class="ygrid crisp" transform="translate(0,365.88)" d="M58,0h674" style="stroke: rgb(238, 238, 238); stroke-opacity: 1; stroke-width: 1px;"/><path class="ygrid crisp" transform="translate(0,299.63)" d="M58,0h674" style="stroke: rgb(238, 238, 238); stroke-opacity: 1; stroke-width: 1px;"/><path class="ygrid crisp" transform="translate(0,233.37)" d="M58,0h674" style="stroke: rgb(238, 238, 238); stroke-opacity: 1; stroke-width: 1px;"/><path class="ygrid crisp" transform="translate(0,167.11)" d="M58,0h674" style="stroke: rgb(238, 238, 238); stroke-opacity: 1; stroke-width: 1px;"/><path class="ygrid crisp" transform="translate(0,100.85)" d="M58,0h674" style="stroke: rgb(238, 238, 238); stroke-opacity: 1; stroke-width: 1px;"/></g></g><g class="zerolinelayer"><path class="yzl zl crisp" transform="translate(0,498.4)" d="M58,0h674" style="stroke: rgb(68, 68, 68); stroke-opacity: 1; stroke-width: 1px;"/></g><path class="xlines-below"/><path class="ylines-below"/><g class="overlines-below"/><g class="xaxislayer-below"/><g class="yaxislayer-below"/><g class="overaxes-below"/><g class="plot" transform="translate(58,50)" clip-path="url(#clip373b93xyplot)"><g class="scatterlayer mlayer"><g class="trace scatter tracef7939e" style="stroke-miterlimit: 2; opacity: 1;"><g class="fills"/><g class="errorbars"/><g class="lines"><path class="js-line" d="M10.31,448.4L31.57,447.92L32.22,447.52L35.44,445.8L36.08,445.08L39.31,441.51L39.95,439.06L41.24,435.68L41.88,433.62L43.17,430.98L43.82,428.21L44.46,427.15L45.11,424.53L47.68,419.15L48.33,417.7L50.26,411.93L50.9,410.68L53.48,406.75L54.13,405.74L59.93,400.01L60.57,399.75L64.44,396.98L65.08,396.84L70.24,393.21L70.88,393.64L76.68,392.38L77.32,392.28L92.14,390.47L92.79,390.42L99.88,389.98L100.52,389.98L119.21,389.25L119.85,389.19L138.54,388.46L139.18,388.41L150.78,387.24L151.42,387.14L169.47,382.71L170.11,382.16L173.98,379.98L174.62,378.95L178.49,375.22L179.13,372.72L179.78,372.79L180.42,372.09L181.71,369.88L182.35,369.35L187.51,360.33L188.15,357.95L189.44,356.29L190.09,354.06L192.02,352.17L192.66,350.2L196.53,345.33L197.17,343.82L201.04,339.88L201.68,338.26L205.55,334.49L206.2,332.94L210.06,329.37L210.71,327.8L214.57,325.05L215.22,323.16L217.79,321.51L218.44,321.29L234.55,302.21L235.19,300.6L237.12,298.86L237.77,297.44L239.06,296.75L239.7,294.78L241.63,293.17L242.28,291.76L246.15,287.7L246.79,286.55L262.25,272.27L262.9,271.94L264.19,271.01L264.83,270.22L270.63,265.9L271.28,264.15L273.85,262.07L274.5,261.48L289.96,247.66L290.61,247.37L294.47,243.76L295.12,243.54L298.98,240.69L299.63,240.47L302.85,238.45L303.49,238.23L306.72,236.71L307.36,236.47L324.11,232.26L324.76,232.16L331.2,231.5L331.85,231.41L342.8,230.59L343.44,230.55L356.33,229.27L356.98,229.15L364.06,227.68L364.71,227.45L374.37,224.29L375.02,224.1L391.13,220.5L391.77,220.42L402.08,219.21L402.72,219.19L413.03,218.35L413.68,218.18L431.08,215.71L431.72,215.48L440.1,212.47L440.74,212.16L452.98,206.08L453.63,205.55L456.21,203.6L456.85,203.33L458.14,202.6L458.78,201.94L471.67,192.39L472.32,191.67L476.18,188.52L476.83,187.17L477.47,187.17L478.11,185.89L484.56,181.34L485.2,181.29L487.14,179.04L487.78,178.68L491.65,176.75L492.29,176.4L538.04,160.48L538.68,160.47L541.26,159.61L541.91,159.48L547.71,158.8L548.35,158.56L554.79,157.67L555.44,157.67L576.06,154.55L576.7,154.34L579.28,154.34L579.92,153.51L587.01,151.27L587.66,151.27L589.59,150.69L590.23,150.51L601.19,148.3L601.83,148.3L605.7,147.61L606.34,147.61L610.21,146.96L610.85,146.96L616.65,146.17L617.3,146.13L637.92,143.78L638.56,143.46L646.29,141.79L646.94,141.79L650.16,140.92L650.8,140.92L653.38,140.26L654.02,140.15L657.89,139.51L658.54,139.34L674,136.36" style="vector-effect: non-scaling-stroke; fill: none; stroke: rgb(158, 202, 225); stroke-opacity: 1; stroke-width: 2px; opacity: 1;"/></g><g class="points"/><g class="text"/></g><g class="trace scatter traced81dc7" style="stroke-miterlimit: 2; opacity: 1;"><g class="fills"/><g class="errorbars"/><g class="lines"><path class="js-line" d="M9.02,448.4L65.72,447.67L66.37,447.64L99.23,447.36L99.88,447.36L169.47,446.61L170.11,446.6L200.4,445.88L201.04,445.84L233.9,442.64L234.55,442.52L257.1,439.69L257.74,439.64L304.78,435.95L305.43,435.72L327.98,432.89L328.62,432.83L351.18,432.19L351.82,432.18L374.37,431.08L375.02,431.01L402.72,429.06L403.37,429.05L435.59,428.77L436.23,428.77L474.89,427.79L475.54,427.72L482.63,425.67L483.27,425.45L499.38,420.11L500.02,419.93L507.11,418.7L507.76,418.63L523.22,417.17L523.86,417.12L571.55,414.88L572.19,414.87L587.01,413.73L587.66,413.62L593.46,412.21L594.1,411.92L619.23,401.68L619.87,401.61L646.94,398.43L647.58,398.4L661.76,396.56L662.4,396.39L673.36,393.32L674,393.12" style="vector-effect: non-scaling-stroke; fill: none; stroke: rgb(107, 174, 214); stroke-opacity: 1; stroke-width: 2px; opacity: 1; stroke-dasharray: 9px, 9px;"/></g><g class="points"/><g class="text"/></g><g class="trace scatter trace7171df" style="stroke-miterlimit: 2; opacity: 1;"><g class="fills"/><g class="errorbars"/><g class="lines"><path class="js-line" d="M13.53,448.4L109.54,447.65L110.19,447.64L204.91,446.9L205.55,446.87L266.12,444.08L266.76,444.07L404.01,441.52L404.66,441.5L427.85,439.7L428.5,439.6L446.54,435.43L447.19,435.16L460.72,432.34L461.36,432.26L483.91,429.46L484.56,429.35L490.36,427.26L491,426.93L499.38,420.14L500.02,419.04L507.76,408.96L508.4,407.85L514.2,400.44L514.84,399.57L518.71,395.68L519.35,394.98L524.51,391.8L525.15,391.52L527.09,390.94L527.73,390.29L539.97,387.53L540.62,387.43L550.93,386.41L551.57,386.36L572.84,385.47L573.48,385.43L595.39,383.19L596.03,383.02L628.89,375.49L629.54,375.44L648.87,373.52L649.51,373.43L668.2,369.97L668.85,369.81L674,368.87" style="vector-effect: non-scaling-stroke; fill: none; stroke: rgb(66, 146, 198); stroke-opacity: 1; stroke-width: 2px; opacity: 1; stroke-dasharray: 3px, 3px;"/></g><g class="points"/><g class="text"/></g><g class="trace scatter traceffb382" style="stroke-miterlimit: 2; opacity: 1;"><g class="fills"/><g class="errorbars"/><g class="lines"><path class="js-line" d="M0,448.4L31.57,447.68L32.22,447.45L35.44,445.22L36.08,444.41L38.66,439.94L39.31,438.31L43.17,425.49L43.82,422.95L50.9,394.6L51.55,392.4L56.7,376.56L57.35,374.99L62.5,363.81L63.15,362.57L68.3,355.09L68.95,354.27L75.39,347.8L76.03,347.25L80.54,344.13L81.19,343.77L87.63,340.91L88.28,340.7L96.01,338.52L96.65,338.38L107.61,336.68L108.25,336.64L135.32,334.85L135.96,334.83L154,333.53L154.65,333.44L164.31,331.11L164.96,330.87L170.11,328.3L170.76,327.84L177.2,322.34L177.84,321.64L183,315.35L183.64,314.55L190.73,304.57L191.37,303.56L211.35,273.12L211.99,271.91L217.15,260.34L217.79,258.7L221.02,249.39L221.66,247.32L226.17,230.04L226.81,227.25L236.48,190.12L237.12,188.14L242.28,175.02L242.92,173.63L248.72,163.45L249.37,162.57L254.52,157.1L255.17,156.52L261.61,152.51L262.25,152.24L271.92,149.15L272.56,149.06L284.16,147.31L284.81,147.25L296.41,146.37L297.05,146.32L342.15,143.67L342.8,143.56L353.75,140.94L354.4,140.76L367.28,136.81L367.93,136.58L379.53,131.63L380.17,131.35L412.39,117.06L413.03,116.68L429.14,109.27L429.79,109.03L447.83,101.94L448.47,101.72L454.92,98.45L455.56,98.03L474.89,85.3L475.54,84.99L492.93,78.36L493.58,78.18L505.82,72.9L506.47,72.58L514.2,68.11L514.84,67.65L528.37,61.08L529.02,60.87L538.68,58.3L539.33,58.17L549.64,56.67L550.28,56.58L563.81,54.82L564.46,54.73L576.06,51.47L576.7,51.21L594.1,45.16L594.74,45.02L604.41,42.87L605.05,42.79L634.69,37.58L635.34,37.33L652.09,32.56L652.74,32.44L661.76,31.68L662.4,31.68L671.42,31.68L672.07,30.75L674,30.75" style="vector-effect: non-scaling-stroke; fill: none; stroke: rgb(33, 113, 181); stroke-opacity: 1; stroke-width: 2px; opacity: 1; stroke-dasharray: 9px, 3px, 3px, 3px;"/></g><g class="points"/><g class="text"/></g><g class="trace scatter trace2b3083" style="stroke-miterlimit: 2; opacity: 1;"><g class="fills"/><g class="errorbars"/><g class="lines"><path class="js-line" d="M19.33,448.4L36.08,447.7L36.73,447.5L39.95,445.66L40.59,445.05L43.82,441.51L44.46,440.67L59.93,420.88L60.57,420.41L63.15,417.36L63.79,416.67L73.46,408.93L74.1,408.68L77.32,406.77L77.97,406.4L100.52,397.54L101.16,397.41L103.74,396.07L104.39,395.76L115.34,390.11L115.98,389.63L119.85,387.26L120.5,386.77L124.36,384.39L125.01,383.97L128.23,381.81L128.87,381.62L132.74,379.44L133.38,379.27L138.54,376.39L139.18,375.98L145.63,372.89L146.27,372.73L148.85,371.4L149.49,371.03L166.24,363.81L166.89,363.48L177.84,357.91L178.49,357.68L181.71,355.22L182.35,354.99L184.93,353.05L185.58,352.57L192.02,346.87L192.66,346.01L195.24,343.4L195.89,342.99L197.17,341.44L197.82,340.36L201.04,336.04L201.68,335.02L209.42,322.34L210.06,321.62L213.28,316.57L213.93,316.01L215.22,313.86L215.86,312.35L218.44,308.67L219.08,307.88L227.46,290.55L228.1,289.93L229.39,287.27L230.04,285.67L235.19,275.36L235.84,274.24L237.77,271.4L238.41,269.88L240.99,265.29L241.63,264.72L245.5,258.53L246.15,258.16L248.72,254.59L249.37,253.84L251.3,252.01L251.94,250.75L254.52,247.95L255.17,247.43L259.03,243.4L259.68,243.12L262.9,240.29L263.54,240.08L266.12,238.21L266.76,237.81L274.5,233.59L275.14,233.16L286.1,227.7L286.74,227.51L297.05,222.98L297.69,222.67L304.14,220.44L304.78,220.29L312.51,217.27L313.16,217.21L316.38,216.22L317.02,215.99L324.11,214.64L324.76,214.52L328.62,213.8L329.27,213.67L333.78,212.95L334.42,212.78L342.8,211.58L343.44,211.4L349.89,210.48L350.53,210.3L359.55,207.61L360.2,207.29L369.22,201.72L369.86,200.85L375.66,195.55L376.31,195.39L377.59,194.33L378.24,193.42L380.17,190.86L380.82,190.71L389.19,179.64L389.84,179.4L393.7,174.22L394.35,174.01L398.21,169.62L398.86,169.42L400.15,168.07L400.79,166.82L402.72,165.01L403.37,164.82L407.88,160.25L408.52,159.68L412.39,156.58L413.03,156.09L425.28,146.79L425.92,146.69L429.14,144.66L429.79,144.53L431.08,143.67L431.72,143.02L434.3,139.81L434.94,139.65L445.25,131.11L445.9,129.47L447.83,128.55L448.47,128.41L451.7,124.99L452.34,124.83L453.63,123.93L454.27,123.01L461.36,114.38L462.01,114.08L463.29,112.6L463.94,111.24L465.87,108.36L466.52,108.07L469.09,103.44L469.74,101.83L471.67,100.15L472.32,98.83L474.89,94.48L475.54,94.3L479.4,88.03L480.05,87.8L483.91,81.88L484.56,81.71L485.85,80.5L486.49,79.28L488.42,77.01L489.07,76.93L492.93,73.1L493.58,73.02L497.45,69.55L498.09,69.48L501.96,66.8L502.6,66.76L506.47,64.67L507.11,64.65L510.98,62.81L511.62,62.79L520.64,60.05L521.29,59.95L538.04,55.97L538.68,55.96L545.77,54.19L546.42,53.98L552.86,53.06L553.5,52.88L555.44,52.15L556.08,52.1L559.3,51.38L559.95,51.26L563.81,50.52L564.46,50.35L572.19,49.03L572.84,48.61L583.15,45.97L583.79,45.96L603.76,39.92L604.41,39.68L609.56,37.98L610.21,37.97L612.79,37.38L613.43,37.11L619.87,35.65L620.52,35.49L641.78,30.06L642.43,30.06L648.87,28.52L649.51,28.29L669.49,24.71L670.13,24.62L674,23.6" style="vector-effect: non-scaling-stroke; fill: none; stroke: rgb(8, 69, 148); stroke-opacity: 1; stroke-width: 2px; opacity: 1; stroke-dasharray: 15px, 15px;"/></g><g class="points"/><g class="text"/></g></g></g><g class="overplot"/><path class="xlines-above crisp" d="M0,0" style="fill: none;"/><path class="ylines-above crisp" d="M0,0" style="fill: none;"/><g class="overlines-above"/><g class="xaxislayer-above"><g class="xtick"><text text-anchor="start" x="0" y="535" transform="translate(97.95,0) rotate(30,0,529)" style="font-family: 'Open Sans', verdana, arial, sans-serif; font-size: 12px; fill: rgb(68, 68, 68); fill-opacity: 1; white-space: pre; opacity: 1;">2020년 04월</text></g><g class="xtick"><text text-anchor="start" x="0" y="535" style="font-family: 'Open Sans', verdana, arial, sans-serif; font-size: 12px; fill: rgb(68, 68, 68); fill-opacity: 1; white-space: pre; opacity: 1;" transform="translate(156.59,0) rotate(30,0,529)">2020년 07월</text></g><g class="xtick"><text text-anchor="start" x="0" y="535" style="font-family: 'Open Sans', verdana, arial, sans-serif; font-size: 12px; fill: rgb(68, 68, 68); fill-opacity: 1; white-space: pre; opacity: 1;" transform="translate(215.87,0) rotate(30,0,529)">2020년 10월</text></g><g class="xtick"><text text-anchor="start" x="0" y="535" style="font-family: 'Open Sans', verdana, arial, sans-serif; font-size: 12px; fill: rgb(68, 68, 68); fill-opacity: 1; white-space: pre; opacity: 1;" transform="translate(275.15,0) rotate(30,0,529)">2021년 01월</text></g><g class="xtick"><text text-anchor="start" x="0" y="535" style="font-family: 'Open Sans', verdana, arial, sans-serif; font-size: 12px; fill: rgb(68, 68, 68); fill-opacity: 1; white-space: pre; opacity: 1;" transform="translate(333.14,0) rotate(30,0,529)">2021년 04월</text></g><g class="xtick"><text text-anchor="start" x="0" y="535" style="font-family: 'Open Sans', verdana, arial, sans-serif; font-size: 12px; fill: rgb(68, 68, 68); fill-opacity: 1; white-space: pre; opacity: 1;" transform="translate(391.78,0) rotate(30,0,529)">2021년 07월</text></g><g class="xtick"><text text-anchor="start" x="0" y="535" style="font-family: 'Open Sans', verdana, arial, sans-serif; font-size: 12px; fill: rgb(68, 68, 68); fill-opacity: 1; white-space: pre; opacity: 1;" transform="translate(451.06,0) rotate(30,0,529)">2021년 10월</text></g><g class="xtick"><text text-anchor="start" x="0" y="535" style="font-family: 'Open Sans', verdana, arial, sans-serif; font-size: 12px; fill: rgb(68, 68, 68); fill-opacity: 1; white-space: pre; opacity: 1;" transform="translate(510.34,0) rotate(30,0,529)">2022년 01월</text></g><g class="xtick"><text text-anchor="start" x="0" y="535" style="font-family: 'Open Sans', verdana, arial, sans-serif; font-size: 12px; fill: rgb(68, 68, 68); fill-opacity: 1; white-space: pre; opacity: 1;" transform="translate(568.3299999999999,0) rotate(30,0,529)">2022년 04월</text></g><g class="xtick"><text text-anchor="start" x="0" y="535" style="font-family: 'Open Sans', verdana, arial, sans-serif; font-size: 12px; fill: rgb(68, 68, 68); fill-opacity: 1; white-space: pre; opacity: 1;" transform="translate(626.97,0) rotate(30,0,529)">2022년 07월</text></g><g class="xtick"><text text-anchor="start" x="0" y="535" style="font-family: 'Open Sans', verdana, arial, sans-serif; font-size: 12px; fill: rgb(68, 68, 68); fill-opacity: 1; white-space: pre; opacity: 1;" transform="translate(686.25,0) rotate(30,0,529)">2022년 10월</text></g></g><g class="yaxislayer-above"><g class="ytick"><text text-anchor="end" x="57" y="4.199999999999999" transform="translate(0,498.4)" style="font-family: 'Open Sans', verdana, arial, sans-serif; font-size: 12px; fill: rgb(68, 68, 68); fill-opacity: 1; white-space: pre; opacity: 1;">0</text></g><g class="ytick"><text text-anchor="end" x="57" y="4.199999999999999" style="font-family: 'Open Sans', verdana, arial, sans-serif; font-size: 12px; fill: rgb(68, 68, 68); fill-opacity: 1; white-space: pre; opacity: 1;" transform="translate(0,432.14)">500</text></g><g class="ytick"><text text-anchor="end" x="57" y="4.199999999999999" style="font-family: 'Open Sans', verdana, arial, sans-serif; font-size: 12px; fill: rgb(68, 68, 68); fill-opacity: 1; white-space: pre; opacity: 1;" transform="translate(0,365.88)">1000</text></g><g class="ytick"><text text-anchor="end" x="57" y="4.199999999999999" style="font-family: 'Open Sans', verdana, arial, sans-serif; font-size: 12px; fill: rgb(68, 68, 68); fill-opacity: 1; white-space: pre; opacity: 1;" transform="translate(0,299.63)">1500</text></g><g class="ytick"><text text-anchor="end" x="57" y="4.199999999999999" style="font-family: 'Open Sans', verdana, arial, sans-serif; font-size: 12px; fill: rgb(68, 68, 68); fill-opacity: 1; white-space: pre; opacity: 1;" transform="translate(0,233.37)">2000</text></g><g class="ytick"><text text-anchor="end" x="57" y="4.199999999999999" style="font-family: 'Open Sans', verdana, arial, sans-serif; font-size: 12px; fill: rgb(68, 68, 68); fill-opacity: 1; white-space: pre; opacity: 1;" transform="translate(0,167.11)">2500</text></g><g class="ytick"><text text-anchor="end" x="57" y="4.199999999999999" style="font-family: 'Open Sans', verdana, arial, sans-serif; font-size: 12px; fill: rgb(68, 68, 68); fill-opacity: 1; white-space: pre; opacity: 1;" transform="translate(0,100.85)">3000</text></g></g><g class="overaxes-above"/></g></g><g class="polarlayer"/><g class="ternarylayer"/><g class="geolayer"/><g class="funnelarealayer"/><g class="pielayer"/><g class="iciclelayer"/><g class="treemaplayer"/><g class="sunburstlayer"/><g class="glimages"/><defs id="topdefs-373b93"><g class="clips"/><clipPath id="legend373b93"><rect width="142" height="105" x="0" y="0"/></clipPath></defs><g class="layer-above"><g class="imagelayer"/><g class="shapelayer"/></g><g class="infolayer"><g class="legend" pointer-events="all" transform="translate(745.48,50)"><rect class="bg" shape-rendering="crispEdges" width="142" height="105" x="0" y="0" style="stroke: rgb(68, 68, 68); stroke-opacity: 1; fill: rgb(255, 255, 255); fill-opacity: 1; stroke-width: 0px;"/><g class="scrollbox" transform="" clip-path="url(#legend373b93)"><g class="groups"><g class="traces" transform="translate(0,14.5)" style="opacity: 1;"><text class="legendtext" text-anchor="start" x="40" y="4.680000000000001" style="font-family: 'Open Sans', verdana, arial, sans-serif; font-size: 12px; fill: rgb(68, 68, 68); fill-opacity: 1; white-space: pre;">France</text><g class="layers" style="opacity: 1;"><g class="legendfill"/><g class="legendlines"><path class="js-line" d="M5,0h30" style="fill: none; stroke: rgb(158, 202, 225); stroke-opacity: 1; stroke-width: 2px;"/></g><g class="legendsymbols"><g class="legendpoints"/></g></g><rect class="legendtoggle" x="0" y="-9.5" width="136.34410095214844" height="19" style="fill: rgb(0, 0, 0); fill-opacity: 0;"/></g><g class="traces" transform="translate(0,33.5)" style="opacity: 1;"><text class="legendtext" text-anchor="start" x="40" y="4.680000000000001" style="font-family: 'Open Sans', verdana, arial, sans-serif; font-size: 12px; fill: rgb(68, 68, 68); fill-opacity: 1; white-space: pre;">Japan</text><g class="layers" style="opacity: 1;"><g class="legendfill"/><g class="legendlines"><path class="js-line" d="M5,0h30" style="fill: none; stroke: rgb(107, 174, 214); stroke-opacity: 1; stroke-dasharray: 9px, 9px; stroke-width: 2px;"/></g><g class="legendsymbols"><g class="legendpoints"/></g></g><rect class="legendtoggle" x="0" y="-9.5" width="136.34410095214844" height="19" style="fill: rgb(0, 0, 0); fill-opacity: 0;"/></g><g class="traces" transform="translate(0,52.5)" style="opacity: 1;"><text class="legendtext" text-anchor="start" x="40" y="4.680000000000001" style="font-family: 'Open Sans', verdana, arial, sans-serif; font-size: 12px; fill: rgb(68, 68, 68); fill-opacity: 1; white-space: pre;">South Korea</text><g class="layers" style="opacity: 1;"><g class="legendfill"/><g class="legendlines"><path class="js-line" d="M5,0h30" style="fill: none; stroke: rgb(66, 146, 198); stroke-opacity: 1; stroke-dasharray: 3px, 3px; stroke-width: 2px;"/></g><g class="legendsymbols"><g class="legendpoints"/></g></g><rect class="legendtoggle" x="0" y="-9.5" width="136.34410095214844" height="19" style="fill: rgb(0, 0, 0); fill-opacity: 0;"/></g><g class="traces" transform="translate(0,71.5)" style="opacity: 1;"><text class="legendtext" text-anchor="start" x="40" y="4.680000000000001" style="font-family: 'Open Sans', verdana, arial, sans-serif; font-size: 12px; fill: rgb(68, 68, 68); fill-opacity: 1; white-space: pre;">United Kingdom</text><g class="layers" style="opacity: 1;"><g class="legendfill"/><g class="legendlines"><path class="js-line" d="M5,0h30" style="fill: none; stroke: rgb(33, 113, 181); stroke-opacity: 1; stroke-dasharray: 9px, 3px, 3px, 3px; stroke-width: 2px;"/></g><g class="legendsymbols"><g class="legendpoints"/></g></g><rect class="legendtoggle" x="0" y="-9.5" width="136.34410095214844" height="19" style="fill: rgb(0, 0, 0); fill-opacity: 0;"/></g><g class="traces" transform="translate(0,90.5)" style="opacity: 1;"><text class="legendtext" text-anchor="start" x="40" y="4.680000000000001" style="font-family: 'Open Sans', verdana, arial, sans-serif; font-size: 12px; fill: rgb(68, 68, 68); fill-opacity: 1; white-space: pre;">United States</text><g class="layers" style="opacity: 1;"><g class="legendfill"/><g class="legendlines"><path class="js-line" d="M5,0h30" style="fill: none; stroke: rgb(8, 69, 148); stroke-opacity: 1; stroke-dasharray: 15px, 15px; stroke-width: 2px;"/></g><g class="legendsymbols"><g class="legendpoints"/></g></g><rect class="legendtoggle" x="0" y="-9.5" width="136.34410095214844" height="19" style="fill: rgb(0, 0, 0); fill-opacity: 0;"/></g></g></g><rect class="scrollbar" rx="20" ry="3" width="0" height="0" x="0" y="0" style="fill: rgb(128, 139, 164); fill-opacity: 1;"/></g><g class="g-gtitle"><text class="gtitle" x="450" y="25" text-anchor="middle" dy="0em" style="font-family: 'Open Sans', verdana, arial, sans-serif; font-size: 17px; fill: rgb(68, 68, 68); opacity: 1; font-weight: normal; white-space: pre;">코로나 19 사망자수 추세</text></g><g class="g-xtitle"/><g class="g-ytitle"><text class="ytitle" transform="rotate(-90,20,286)" x="20" y="286" text-anchor="middle" style="font-family: 'Open Sans', verdana, arial, sans-serif; font-size: 14px; fill: rgb(68, 68, 68); opacity: 1; font-weight: normal; white-space: pre;">10만명당 사망자수 누계</text></g></g></svg>