<svg class="main-svg" xmlns="http://www.w3.org/2000/svg" xmlns:xlink="http://www.w3.org/1999/xlink" width="900" height="600" style="" viewBox="0 0 900 600"><rect x="0" y="0" width="900" height="600" style="fill: rgb(255, 255, 255); fill-opacity: 1;"/><defs id="defs-674f45"><g class="clips"><clipPath id="clip674f45xyplot" class="plotclip"><rect width="840" height="394"/></clipPath><clipPath class="axesclip" id="clip674f45x"><rect x="35" y="0" width="840" height="600"/></clipPath><clipPath class="axesclip" id="clip674f45y"><rect x="0" y="50" width="900" height="394"/></clipPath><clipPath class="axesclip" id="clip674f45xy"><rect x="35" y="50" width="840" height="394"/></clipPath></g><g class="gradients"/><g class="patterns"/></defs><g class="bglayer"/><g class="layer-below"><g class="imagelayer"/><g class="shapelayer"/></g><g class="cartesianlayer"><g class="subplot xy"><g class="layer-subplot"><g class="shapelayer"/><g class="imagelayer"/></g><g class="gridlayer"><g class="x"><path class="xgrid crisp" transform="translate(89.6,0)" d="M0,50v394" style="stroke: rgb(238, 238, 238); stroke-opacity: 1; stroke-width: 1px;"/><path class="xgrid crisp" transform="translate(207.2,0)" d="M0,50v394" style="stroke: rgb(238, 238, 238); stroke-opacity: 1; stroke-width: 1px;"/><path class="xgrid crisp" transform="translate(324.8,0)" d="M0,50v394" style="stroke: rgb(238, 238, 238); stroke-opacity: 1; stroke-width: 1px;"/><path class="xgrid crisp" transform="translate(442.4,0)" d="M0,50v394" style="stroke: rgb(238, 238, 238); stroke-opacity: 1; stroke-width: 1px;"/><path class="xgrid crisp" transform="translate(560,0)" d="M0,50v394" style="stroke: rgb(238, 238, 238); stroke-opacity: 1; stroke-width: 1px;"/><path class="xgrid crisp" transform="translate(677.6,0)" d="M0,50v394" style="stroke: rgb(238, 238, 238); stroke-opacity: 1; stroke-width: 1px;"/><path class="xgrid crisp" transform="translate(795.2,0)" d="M0,50v394" style="stroke: rgb(238, 238, 238); stroke-opacity: 1; stroke-width: 1px;"/></g><g class="y"><path class="ygrid crisp" transform="translate(0,418.08)" d="M35,0h840" style="stroke: rgb(238, 238, 238); stroke-opacity: 1; stroke-width: 1px;"/><path class="ygrid crisp" transform="translate(0,355.87)" d="M35,0h840" style="stroke: rgb(238, 238, 238); stroke-opacity: 1; stroke-width: 1px;"/><path class="ygrid crisp" transform="translate(0,293.65999999999997)" d="M35,0h840" style="stroke: rgb(238, 238, 238); stroke-opacity: 1; stroke-width: 1px;"/><path class="ygrid crisp" transform="translate(0,231.45)" d="M35,0h840" style="stroke: rgb(238, 238, 238); stroke-opacity: 1; stroke-width: 1px;"/><path class="ygrid crisp" transform="translate(0,169.24)" d="M35,0h840" style="stroke: rgb(238, 238, 238); stroke-opacity: 1; stroke-width: 1px;"/><path class="ygrid crisp" transform="translate(0,107.03)" d="M35,0h840" style="stroke: rgb(238, 238, 238); stroke-opacity: 1; stroke-width: 1px;"/></g></g><g class="zerolinelayer"/><path class="xlines-below"/><path class="ylines-below"/><g class="overlines-below"/><g class="xaxislayer-below"/><g class="yaxislayer-below"/><g class="overaxes-below"/><g class="plot" transform="translate(35,50)" clip-path="url(#clip674f45xyplot)"><g class="boxlayer mlayer"><g class="trace boxes" style="opacity: 1;"><path class="box" d="M2.14,208.44H6.26M2.14,209.44H6.26V200.11H2.14ZM4.2,209.44V218.77M4.2,200.11V187.67" style="vector-effect: non-scaling-stroke; stroke-width: 2px; stroke: rgb(255, 65, 54); stroke-opacity: 1; fill: rgb(255, 65, 54); fill-opacity: 0.5; opacity: 1;"/><path class="box" d="M10.54,208.44H14.66M10.54,209.44H14.66V206.33H10.54ZM12.6,209.44V215.66M12.6,206.33V193.89" style="vector-effect: non-scaling-stroke; stroke-width: 2px; stroke: rgb(255, 65, 54); stroke-opacity: 1; fill: rgb(255, 65, 54); fill-opacity: 0.5; opacity: 1;"/><path class="box" d="M18.94,242.66H23.06M18.94,243.66H23.06V221.88H18.94ZM21,243.66V246.77M21,221.88V221.88" style="vector-effect: non-scaling-stroke; stroke-width: 2px; stroke: rgb(255, 65, 54); stroke-opacity: 1; fill: rgb(255, 65, 54); fill-opacity: 0.5; opacity: 1;"/><path class="box" d="M27.34,255.10000000000002H31.46M27.34,256.1H31.46V237.44H27.34ZM29.4,256.1V256.1M29.4,237.44V231.22" style="vector-effect: non-scaling-stroke; stroke-width: 2px; stroke: rgb(255, 65, 54); stroke-opacity: 1; fill: rgb(255, 65, 54); fill-opacity: 0.5; opacity: 1;"/><path class="box" d="M69.34,179.34H73.46M69.34,212.55H73.46V178.34H69.34ZM71.4,212.55V218.77M71.4,178.34V165.89" style="vector-effect: non-scaling-stroke; stroke-width: 2px; stroke: rgb(61, 153, 112); stroke-opacity: 1; fill: rgb(61, 153, 112); fill-opacity: 0.5; opacity: 1;"/><path class="box" d="M77.74,219.77H81.86M77.74,237.44H81.86V218.77H77.74ZM79.8,237.44V240.55M79.8,218.77V206.33" style="vector-effect: non-scaling-stroke; stroke-width: 2px; stroke: rgb(61, 153, 112); stroke-opacity: 1; fill: rgb(61, 153, 112); fill-opacity: 0.5; opacity: 1;"/><path class="box" d="M86.14,242.66H90.26M86.14,243.66H90.26V212.55H86.14ZM88.2,243.66V243.66M88.2,212.55V209.44" style="vector-effect: non-scaling-stroke; stroke-width: 2px; stroke: rgb(255, 65, 54); stroke-opacity: 1; fill: rgb(255, 65, 54); fill-opacity: 0.5; opacity: 1;"/><path class="box" d="M94.54,238.44H98.66M94.54,256.1H98.66V237.44H94.54ZM96.6,256.1V259.21M96.6,237.44V231.22" style="vector-effect: non-scaling-stroke; stroke-width: 2px; stroke: rgb(61, 153, 112); stroke-opacity: 1; fill: rgb(61, 153, 112); fill-opacity: 0.5; opacity: 1;"/><path class="box" d="M119.74,232.22H123.86M119.74,234.33H123.86V231.22H119.74ZM121.8,234.33V243.66M121.8,231.22V212.55" style="vector-effect: non-scaling-stroke; stroke-width: 2px; stroke: rgb(61, 153, 112); stroke-opacity: 1; fill: rgb(61, 153, 112); fill-opacity: 0.5; opacity: 1;"/><path class="box" d="M128.14,248.88H132.26M128.14,249.88H132.26V231.22H128.14ZM130.2,249.88V249.88M130.2,231.22V212.55" style="vector-effect: non-scaling-stroke; stroke-width: 2px; stroke: rgb(255, 65, 54); stroke-opacity: 1; fill: rgb(255, 65, 54); fill-opacity: 0.5; opacity: 1;"/><path class="box" d="M136.54,264.43H140.66M136.54,265.43H140.66V262.32H136.54ZM138.6,265.43V274.76M138.6,262.32V259.21" style="vector-effect: non-scaling-stroke; stroke-width: 2px; stroke: rgb(255, 65, 54); stroke-opacity: 1; fill: rgb(255, 65, 54); fill-opacity: 0.5; opacity: 1;"/><path class="box" d="M144.94,292.43H149.06M144.94,293.43H149.06V287.21H144.94ZM147,293.43V296.54M147,287.21V284.09" style="vector-effect: non-scaling-stroke; stroke-width: 2px; stroke: rgb(255, 65, 54); stroke-opacity: 1; fill: rgb(255, 65, 54); fill-opacity: 0.5; opacity: 1;"/><path class="box" d="M153.34,291.32H157.46M153.34,293.43H157.46V290.32H153.34ZM155.4,293.43V299.65M155.4,290.32V277.87" style="vector-effect: non-scaling-stroke; stroke-width: 2px; stroke: rgb(61, 153, 112); stroke-opacity: 1; fill: rgb(61, 153, 112); fill-opacity: 0.5; opacity: 1;"/><path class="box" d="M178.54,309.98H182.66M178.54,315.2H182.66V308.98H178.54ZM180.6,315.2V318.31M180.6,308.98V299.65" style="vector-effect: non-scaling-stroke; stroke-width: 2px; stroke: rgb(61, 153, 112); stroke-opacity: 1; fill: rgb(61, 153, 112); fill-opacity: 0.5; opacity: 1;"/><path class="box" d="M186.94,300.65H191.06M186.94,312.09H191.06V299.65H186.94ZM189,312.09V321.42M189,299.65V299.65" style="vector-effect: non-scaling-stroke; stroke-width: 2px; stroke: rgb(61, 153, 112); stroke-opacity: 1; fill: rgb(61, 153, 112); fill-opacity: 0.5; opacity: 1;"/><path class="box" d="M195.34,339.08H199.46M195.34,340.08H199.46V308.98H195.34ZM197.4,340.08V352.53M197.4,308.98V293.43" style="vector-effect: non-scaling-stroke; stroke-width: 2px; stroke: rgb(255, 65, 54); stroke-opacity: 1; fill: rgb(255, 65, 54); fill-opacity: 0.5; opacity: 1;"/><path class="box" d="M203.74,348.42H207.86M203.74,349.42H207.86V327.64H203.74ZM205.8,349.42V349.42M205.8,327.64V315.2" style="vector-effect: non-scaling-stroke; stroke-width: 2px; stroke: rgb(255, 65, 54); stroke-opacity: 1; fill: rgb(255, 65, 54); fill-opacity: 0.5; opacity: 1;"/><path class="box" d="M212.14,334.86H216.26M212.14,358.75H216.26V333.86H212.14ZM214.2,358.75V374.3M214.2,333.86V318.31" style="vector-effect: non-scaling-stroke; stroke-width: 2px; stroke: rgb(61, 153, 112); stroke-opacity: 1; fill: rgb(61, 153, 112); fill-opacity: 0.5; opacity: 1;"/><path class="box" d="M245.74,267.54H249.86M245.74,268.54H249.86V265.43H245.74ZM247.8,268.54V290.32M247.8,265.43V262.32" style="vector-effect: non-scaling-stroke; stroke-width: 2px; stroke: rgb(255, 65, 54); stroke-opacity: 1; fill: rgb(255, 65, 54); fill-opacity: 0.5; opacity: 1;"/><path class="box" d="M254.14,242.66H258.26M254.14,243.66H258.26V215.66H254.14ZM256.2,243.66V262.32M256.2,215.66V206.33" style="vector-effect: non-scaling-stroke; stroke-width: 2px; stroke: rgb(255, 65, 54); stroke-opacity: 1; fill: rgb(255, 65, 54); fill-opacity: 0.5; opacity: 1;"/><path class="box" d="M262.54,233.33H266.66M262.54,234.33H266.66V221.88H262.54ZM264.6,234.33V234.33M264.6,221.88V203.22" style="vector-effect: non-scaling-stroke; stroke-width: 2px; stroke: rgb(255, 65, 54); stroke-opacity: 1; fill: rgb(255, 65, 54); fill-opacity: 0.5; opacity: 1;"/><path class="box" d="M270.94,238.44H275.06M270.94,246.77H275.06V237.44H270.94ZM273,246.77V268.54M273,237.44V215.66" style="vector-effect: non-scaling-stroke; stroke-width: 2px; stroke: rgb(61, 153, 112); stroke-opacity: 1; fill: rgb(61, 153, 112); fill-opacity: 0.5; opacity: 1;"/><path class="box" d="M304.54,263.32H308.66M304.54,293.43H308.66V262.32H304.54ZM306.6,293.43V305.87M306.6,262.32V252.99" style="vector-effect: non-scaling-stroke; stroke-width: 2px; stroke: rgb(61, 153, 112); stroke-opacity: 1; fill: rgb(61, 153, 112); fill-opacity: 0.5; opacity: 1;"/><path class="box" d="M312.94,250.88H317.06M312.94,252.99H317.06V249.88H312.94ZM315,252.99V268.54M315,249.88V212.55" style="vector-effect: non-scaling-stroke; stroke-width: 2px; stroke: rgb(61, 153, 112); stroke-opacity: 1; fill: rgb(61, 153, 112); fill-opacity: 0.5; opacity: 1;"/><path class="box" d="M321.34,267.54H325.46M321.34,268.54H325.46V262.32H321.34ZM323.4,268.54V268.54M323.4,262.32V240.55" style="vector-effect: non-scaling-stroke; stroke-width: 2px; stroke: rgb(255, 65, 54); stroke-opacity: 1; fill: rgb(255, 65, 54); fill-opacity: 0.5; opacity: 1;"/><path class="box" d="M329.74,235.33H333.86M329.74,237.44H333.86V234.33H329.74ZM331.8,237.44V249.88M331.8,234.33V228.11" style="vector-effect: non-scaling-stroke; stroke-width: 2px; stroke: rgb(61, 153, 112); stroke-opacity: 1; fill: rgb(61, 153, 112); fill-opacity: 0.5; opacity: 1;"/><path class="box" d="M354.94,225.99H359.06M354.94,249.88H359.06V224.99H354.94ZM357,249.88V252.99M357,224.99V212.55" style="vector-effect: non-scaling-stroke; stroke-width: 2px; stroke: rgb(61, 153, 112); stroke-opacity: 1; fill: rgb(61, 153, 112); fill-opacity: 0.5; opacity: 1;"/><path class="box" d="M363.34,227.11H367.46M363.34,228.11H367.46V221.88H363.34ZM365.4,228.11V249.88M365.4,221.88V209.44" style="vector-effect: non-scaling-stroke; stroke-width: 2px; stroke: rgb(255, 65, 54); stroke-opacity: 1; fill: rgb(255, 65, 54); fill-opacity: 0.5; opacity: 1;"/><path class="box" d="M371.74,248.88H375.86M371.74,249.88H375.86V221.88H371.74ZM373.8,249.88V252.99M373.8,221.88V215.66" style="vector-effect: non-scaling-stroke; stroke-width: 2px; stroke: rgb(255, 65, 54); stroke-opacity: 1; fill: rgb(255, 65, 54); fill-opacity: 0.5; opacity: 1;"/><path class="box" d="M380.14,260.21H384.26M380.14,268.54H384.26V259.21H380.14ZM382.2,268.54V271.65M382.2,259.21V243.66" style="vector-effect: non-scaling-stroke; stroke-width: 2px; stroke: rgb(61, 153, 112); stroke-opacity: 1; fill: rgb(61, 153, 112); fill-opacity: 0.5; opacity: 1;"/><path class="box" d="M388.54,247.77H392.66M388.54,271.65H392.66V246.77H388.54ZM390.6,271.65V271.65M390.6,246.77V234.33" style="vector-effect: non-scaling-stroke; stroke-width: 2px; stroke: rgb(61, 153, 112); stroke-opacity: 1; fill: rgb(61, 153, 112); fill-opacity: 0.5; opacity: 1;"/><path class="box" d="M413.74,198H417.86M413.74,212.55H417.86V197H413.74ZM415.8,212.55V221.88M415.8,197V197" style="vector-effect: non-scaling-stroke; stroke-width: 2px; stroke: rgb(61, 153, 112); stroke-opacity: 1; fill: rgb(61, 153, 112); fill-opacity: 0.5; opacity: 1;"/><path class="box" d="M422.14,191.78H426.26M422.14,212.55H426.26V190.78H422.14ZM424.2,212.55V212.55M424.2,190.78V162.78" style="vector-effect: non-scaling-stroke; stroke-width: 2px; stroke: rgb(61, 153, 112); stroke-opacity: 1; fill: rgb(61, 153, 112); fill-opacity: 0.5; opacity: 1;"/><path class="box" d="M430.54,138.9H434.66M430.54,181.45H434.66V137.9H430.54ZM432.6,181.45V190.78M432.6,137.9V131.68" style="vector-effect: non-scaling-stroke; stroke-width: 2px; stroke: rgb(61, 153, 112); stroke-opacity: 1; fill: rgb(61, 153, 112); fill-opacity: 0.5; opacity: 1;"/><path class="box" d="M438.94,133.79H443.06M438.94,134.79H443.06V128.57H438.94ZM441,134.79V153.45M441,128.57V116.13" style="vector-effect: non-scaling-stroke; stroke-width: 2px; stroke: rgb(255, 65, 54); stroke-opacity: 1; fill: rgb(255, 65, 54); fill-opacity: 0.5; opacity: 1;"/><path class="box" d="M447.34,202.22H451.46M447.34,203.22H451.46V153.45H447.34ZM449.4,203.22V206.33M449.4,153.45V144.12" style="vector-effect: non-scaling-stroke; stroke-width: 2px; stroke: rgb(255, 65, 54); stroke-opacity: 1; fill: rgb(255, 65, 54); fill-opacity: 0.5; opacity: 1;"/><path class="box" d="M472.54,138.9H476.66M472.54,178.34H476.66V137.9H472.54ZM474.6,178.34V181.45M474.6,137.9V122.35" style="vector-effect: non-scaling-stroke; stroke-width: 2px; stroke: rgb(61, 153, 112); stroke-opacity: 1; fill: rgb(61, 153, 112); fill-opacity: 0.5; opacity: 1;"/><path class="box" d="M480.94,120.24H485.06M480.94,122.35H485.06V119.24H480.94ZM483,122.35V134.79M483,119.24V109.91" style="vector-effect: non-scaling-stroke; stroke-width: 2px; stroke: rgb(61, 153, 112); stroke-opacity: 1; fill: rgb(61, 153, 112); fill-opacity: 0.5; opacity: 1;"/><path class="box" d="M489.34,130.68H493.46M489.34,131.68H493.46V128.57H489.34ZM491.4,131.68V141.01M491.4,128.57V119.24" style="vector-effect: non-scaling-stroke; stroke-width: 2px; stroke: rgb(255, 65, 54); stroke-opacity: 1; fill: rgb(255, 65, 54); fill-opacity: 0.5; opacity: 1;"/><path class="box" d="M497.74,145.12H501.86M497.74,162.78H501.86V144.12H497.74ZM499.8,162.78V178.34M499.8,144.12V125.46" style="vector-effect: non-scaling-stroke; stroke-width: 2px; stroke: rgb(61, 153, 112); stroke-opacity: 1; fill: rgb(61, 153, 112); fill-opacity: 0.5; opacity: 1;"/><path class="box" d="M506.14,138.9H510.26M506.14,147.23H510.26V137.9H506.14ZM508.2,147.23V169.01M508.2,137.9V134.79" style="vector-effect: non-scaling-stroke; stroke-width: 2px; stroke: rgb(61, 153, 112); stroke-opacity: 1; fill: rgb(61, 153, 112); fill-opacity: 0.5; opacity: 1;"/><path class="box" d="M531.34,114.02H535.46M531.34,128.57H535.46V113.02H531.34ZM533.4,128.57V137.9M533.4,113.02V109.91" style="vector-effect: non-scaling-stroke; stroke-width: 2px; stroke: rgb(61, 153, 112); stroke-opacity: 1; fill: rgb(61, 153, 112); fill-opacity: 0.5; opacity: 1;"/><path class="box" d="M539.74,64.25H543.86M539.74,103.68H543.86V63.25H539.74ZM541.8,103.68V103.68M541.8,63.25V60.14" style="vector-effect: non-scaling-stroke; stroke-width: 2px; stroke: rgb(61, 153, 112); stroke-opacity: 1; fill: rgb(61, 153, 112); fill-opacity: 0.5; opacity: 1;"/><path class="box" d="M548.14,57.03H552.26M548.14,57.03H552.26V57.03H548.14ZM550.2,57.03V78.8M550.2,57.03V50.81" style="vector-effect: non-scaling-stroke; stroke-width: 2px; stroke: rgb(61, 153, 112); stroke-opacity: 1; fill: rgb(61, 153, 112); fill-opacity: 0.5; opacity: 1;"/><path class="box" d="M556.54,105.79H560.66M556.54,106.79H560.66V75.69H556.54ZM558.6,106.79V106.79M558.6,75.69V72.58" style="vector-effect: non-scaling-stroke; stroke-width: 2px; stroke: rgb(255, 65, 54); stroke-opacity: 1; fill: rgb(255, 65, 54); fill-opacity: 0.5; opacity: 1;"/><path class="box" d="M564.94,28.03H569.06M564.94,29.03H569.06V22.81H564.94ZM567,29.03V47.69M567,22.81V19.7" style="vector-effect: non-scaling-stroke; stroke-width: 2px; stroke: rgb(255, 65, 54); stroke-opacity: 1; fill: rgb(255, 65, 54); fill-opacity: 0.5; opacity: 1;"/><path class="box" d="M590.14,59.14H594.26M590.14,60.14H594.26V29.03H590.14ZM592.2,60.14V66.36M592.2,29.03V29.03" style="vector-effect: non-scaling-stroke; stroke-width: 2px; stroke: rgb(255, 65, 54); stroke-opacity: 1; fill: rgb(255, 65, 54); fill-opacity: 0.5; opacity: 1;"/><path class="box" d="M598.54,45.58H602.66M598.54,50.81H602.66V44.58H598.54ZM600.6,50.81V69.47M600.6,44.58V41.47" style="vector-effect: non-scaling-stroke; stroke-width: 2px; stroke: rgb(61, 153, 112); stroke-opacity: 1; fill: rgb(61, 153, 112); fill-opacity: 0.5; opacity: 1;"/><path class="box" d="M606.94,36.25H611.06M606.94,44.58H611.06V35.25H606.94ZM609,44.58V66.36M609,35.25V35.25" style="vector-effect: non-scaling-stroke; stroke-width: 2px; stroke: rgb(61, 153, 112); stroke-opacity: 1; fill: rgb(61, 153, 112); fill-opacity: 0.5; opacity: 1;"/><path class="box" d="M615.34,74.69H619.46M615.34,75.69H619.46V57.03H615.34ZM617.4,75.69V78.8M617.4,57.03V57.03" style="vector-effect: non-scaling-stroke; stroke-width: 2px; stroke: rgb(255, 65, 54); stroke-opacity: 1; fill: rgb(255, 65, 54); fill-opacity: 0.5; opacity: 1;"/><path class="box" d="M623.74,63.25H627.86M623.74,63.25H627.86V63.25H623.74ZM625.8,63.25V75.69M625.8,63.25V44.58" style="vector-effect: non-scaling-stroke; stroke-width: 2px; stroke: rgb(61, 153, 112); stroke-opacity: 1; fill: rgb(61, 153, 112); fill-opacity: 0.5; opacity: 1;"/><path class="box" d="M648.94,75.69H653.06M648.94,75.69H653.06V75.69H648.94ZM651,75.69V94.35M651,75.69V63.25" style="vector-effect: non-scaling-stroke; stroke-width: 2px; stroke: rgb(255, 65, 54); stroke-opacity: 1; fill: rgb(255, 65, 54); fill-opacity: 0.5; opacity: 1;"/><path class="box" d="M657.34,99.57H661.46M657.34,100.57H661.46V91.24H657.34ZM659.4,100.57V109.91M659.4,91.24V81.91" style="vector-effect: non-scaling-stroke; stroke-width: 2px; stroke: rgb(255, 65, 54); stroke-opacity: 1; fill: rgb(255, 65, 54); fill-opacity: 0.5; opacity: 1;"/><path class="box" d="M665.74,87.13H669.86M665.74,88.13H669.86V81.91H665.74ZM667.8,88.13V97.46M667.8,81.91V78.8" style="vector-effect: non-scaling-stroke; stroke-width: 2px; stroke: rgb(255, 65, 54); stroke-opacity: 1; fill: rgb(255, 65, 54); fill-opacity: 0.5; opacity: 1;"/><path class="box" d="M674.14,76.69H678.26M674.14,81.91H678.26V75.69H674.14ZM676.2,81.91V91.24M676.2,75.69V66.36" style="vector-effect: non-scaling-stroke; stroke-width: 2px; stroke: rgb(61, 153, 112); stroke-opacity: 1; fill: rgb(61, 153, 112); fill-opacity: 0.5; opacity: 1;"/><path class="box" d="M682.54,87.13H686.66M682.54,88.13H686.66V75.69H682.54ZM684.6,88.13V94.35M684.6,75.69V66.36" style="vector-effect: non-scaling-stroke; stroke-width: 2px; stroke: rgb(255, 65, 54); stroke-opacity: 1; fill: rgb(255, 65, 54); fill-opacity: 0.5; opacity: 1;"/><path class="box" d="M707.74,115.13H711.86M707.74,116.13H711.86V103.68H707.74ZM709.8,116.13V125.46M709.8,103.68V103.68" style="vector-effect: non-scaling-stroke; stroke-width: 2px; stroke: rgb(255, 65, 54); stroke-opacity: 1; fill: rgb(255, 65, 54); fill-opacity: 0.5; opacity: 1;"/><path class="box" d="M716.14,101.57H720.26M716.14,122.35H720.26V100.57H716.14ZM718.2,122.35V125.46M718.2,100.57V100.57" style="vector-effect: non-scaling-stroke; stroke-width: 2px; stroke: rgb(61, 153, 112); stroke-opacity: 1; fill: rgb(61, 153, 112); fill-opacity: 0.5; opacity: 1;"/><path class="box" d="M724.54,51.81H728.66M724.54,106.79H728.66V50.81H724.54ZM726.6,106.79V113.02M726.6,50.81V50.81" style="vector-effect: non-scaling-stroke; stroke-width: 2px; stroke: rgb(61, 153, 112); stroke-opacity: 1; fill: rgb(61, 153, 112); fill-opacity: 0.5; opacity: 1;"/><path class="box" d="M732.94,37.36H737.06M732.94,38.36H737.06V22.81H732.94ZM735,38.36V47.69M735,22.81V19.7" style="vector-effect: non-scaling-stroke; stroke-width: 2px; stroke: rgb(255, 65, 54); stroke-opacity: 1; fill: rgb(255, 65, 54); fill-opacity: 0.5; opacity: 1;"/><path class="box" d="M741.34,105.79H745.46M741.34,106.79H745.46V41.47H741.34ZM743.4,106.79V106.79M743.4,41.47V41.47" style="vector-effect: non-scaling-stroke; stroke-width: 2px; stroke: rgb(255, 65, 54); stroke-opacity: 1; fill: rgb(255, 65, 54); fill-opacity: 0.5; opacity: 1;"/><path class="box" d="M766.54,108.91H770.66M766.54,109.91H770.66V91.24H766.54ZM768.6,109.91V119.24M768.6,91.24V85.02" style="vector-effect: non-scaling-stroke; stroke-width: 2px; stroke: rgb(255, 65, 54); stroke-opacity: 1; fill: rgb(255, 65, 54); fill-opacity: 0.5; opacity: 1;"/><path class="box" d="M774.94,143.12H779.06M774.94,144.12H779.06V125.46H774.94ZM777,144.12V144.12M777,125.46V116.13" style="vector-effect: non-scaling-stroke; stroke-width: 2px; stroke: rgb(255, 65, 54); stroke-opacity: 1; fill: rgb(255, 65, 54); fill-opacity: 0.5; opacity: 1;"/><path class="box" d="M783.34,154.45H787.46M783.34,156.56H787.46V153.45H783.34ZM785.4,156.56V165.89M785.4,153.45V131.68" style="vector-effect: non-scaling-stroke; stroke-width: 2px; stroke: rgb(61, 153, 112); stroke-opacity: 1; fill: rgb(61, 153, 112); fill-opacity: 0.5; opacity: 1;"/><path class="box" d="M791.74,145.12H795.86M791.74,159.67H795.86V144.12H791.74ZM793.8,159.67V162.78M793.8,144.12V144.12" style="vector-effect: non-scaling-stroke; stroke-width: 2px; stroke: rgb(61, 153, 112); stroke-opacity: 1; fill: rgb(61, 153, 112); fill-opacity: 0.5; opacity: 1;"/><path class="box" d="M800.14,107.79H804.26M800.14,141.01H804.26V106.79H800.14ZM802.2,141.01V141.01M802.2,106.79V100.57" style="vector-effect: non-scaling-stroke; stroke-width: 2px; stroke: rgb(61, 153, 112); stroke-opacity: 1; fill: rgb(61, 153, 112); fill-opacity: 0.5; opacity: 1;"/><path class="box" d="M825.34,133.79H829.46M825.34,134.79H829.46V122.35H825.34ZM827.4,134.79V137.9M827.4,122.35V119.24" style="vector-effect: non-scaling-stroke; stroke-width: 2px; stroke: rgb(255, 65, 54); stroke-opacity: 1; fill: rgb(255, 65, 54); fill-opacity: 0.5; opacity: 1;"/><path class="box" d="M833.74,129.57H837.86M833.74,131.68H837.86V128.57H833.74ZM835.8,131.68V137.9M835.8,128.57V109.91" style="vector-effect: non-scaling-stroke; stroke-width: 2px; stroke: rgb(61, 153, 112); stroke-opacity: 1; fill: rgb(61, 153, 112); fill-opacity: 0.5; opacity: 1;"/></g></g></g><g class="overplot"/><path class="xlines-above crisp" d="M0,0" style="fill: none;"/><path class="ylines-above crisp" d="M0,0" style="fill: none;"/><g class="overlines-above"/><g class="xaxislayer-above"><g class="xtick"><text text-anchor="middle" x="0" y="457" transform="translate(89.6,0)" style="font-family: 'Open Sans', verdana, arial, sans-serif; font-size: 12px; fill: rgb(68, 68, 68); fill-opacity: 1; white-space: pre; opacity: 1;"><tspan class="line" dy="0em" x="0" y="457">Sep 11</tspan><tspan class="line" dy="1.3em" x="0" y="457">2022</tspan></text></g><g class="xtick"><text text-anchor="middle" x="0" y="457" style="font-family: 'Open Sans', verdana, arial, sans-serif; font-size: 12px; fill: rgb(68, 68, 68); fill-opacity: 1; white-space: pre; opacity: 1;" transform="translate(207.2,0)">Sep 25</text></g><g class="xtick"><text text-anchor="middle" x="0" y="457" style="font-family: 'Open Sans', verdana, arial, sans-serif; font-size: 12px; fill: rgb(68, 68, 68); fill-opacity: 1; white-space: pre; opacity: 1;" transform="translate(324.8,0)">Oct 9</text></g><g class="xtick"><text text-anchor="middle" x="0" y="457" style="font-family: 'Open Sans', verdana, arial, sans-serif; font-size: 12px; fill: rgb(68, 68, 68); fill-opacity: 1; white-space: pre; opacity: 1;" transform="translate(442.4,0)">Oct 23</text></g><g class="xtick"><text text-anchor="middle" x="0" y="457" style="font-family: 'Open Sans', verdana, arial, sans-serif; font-size: 12px; fill: rgb(68, 68, 68); fill-opacity: 1; white-space: pre; opacity: 1;" transform="translate(560,0)">Nov 6</text></g><g class="xtick"><text text-anchor="middle" x="0" y="457" style="font-family: 'Open Sans', verdana, arial, sans-serif; font-size: 12px; fill: rgb(68, 68, 68); fill-opacity: 1; white-space: pre; opacity: 1;" transform="translate(677.6,0)">Nov 20</text></g><g class="xtick"><text text-anchor="middle" x="0" y="457" style="font-family: 'Open Sans', verdana, arial, sans-serif; font-size: 12px; fill: rgb(68, 68, 68); fill-opacity: 1; white-space: pre; opacity: 1;" transform="translate(795.2,0)">Dec 4</text></g></g><g class="yaxislayer-above"><g class="ytick"><text text-anchor="end" x="34" y="4.199999999999999" transform="translate(0,418.08)" style="font-family: 'Open Sans', verdana, arial, sans-serif; font-size: 12px; fill: rgb(68, 68, 68); fill-opacity: 1; white-space: pre; opacity: 1;">52k</text></g><g class="ytick"><text text-anchor="end" x="34" y="4.199999999999999" style="font-family: 'Open Sans', verdana, arial, sans-serif; font-size: 12px; fill: rgb(68, 68, 68); fill-opacity: 1; white-space: pre; opacity: 1;" transform="translate(0,355.87)">54k</text></g><g class="ytick"><text text-anchor="end" x="34" y="4.199999999999999" style="font-family: 'Open Sans', verdana, arial, sans-serif; font-size: 12px; fill: rgb(68, 68, 68); fill-opacity: 1; white-space: pre; opacity: 1;" transform="translate(0,293.65999999999997)">56k</text></g><g class="ytick"><text text-anchor="end" x="34" y="4.199999999999999" style="font-family: 'Open Sans', verdana, arial, sans-serif; font-size: 12px; fill: rgb(68, 68, 68); fill-opacity: 1; white-space: pre; opacity: 1;" transform="translate(0,231.45)">58k</text></g><g class="ytick"><text text-anchor="end" x="34" y="4.199999999999999" style="font-family: 'Open Sans', verdana, arial, sans-serif; font-size: 12px; fill: rgb(68, 68, 68); fill-opacity: 1; white-space: pre; opacity: 1;" transform="translate(0,169.24)">60k</text></g><g class="ytick"><text text-anchor="end" x="34" y="4.199999999999999" style="font-family: 'Open Sans', verdana, arial, sans-serif; font-size: 12px; fill: rgb(68, 68, 68); fill-opacity: 1; white-space: pre; opacity: 1;" transform="translate(0,107.03)">62k</text></g></g><g class="overaxes-above"/></g></g><g class="polarlayer"/><g class="ternarylayer"/><g class="geolayer"/><g class="funnelarealayer"/><g class="pielayer"/><g class="iciclelayer"/><g class="treemaplayer"/><g class="sunburstlayer"/><g class="glimages"/><defs id="topdefs-674f45"><g class="clips"/><clipPath id="rangesliderx-674f45"><rect x="0" y="0" width="840" height="78.75"/></clipPath></defs><g class="layer-above"><g class="imagelayer"/><g class="shapelayer"/></g><g class="infolayer"><g class="g-gtitle"><text class="gtitle" x="450" y="25" text-anchor="middle" dy="0em" style="font-family: 'Open Sans', verdana, arial, sans-serif; font-size: 17px; fill: rgb(68, 68, 68); opacity: 1; font-weight: normal; white-space: pre;">삼성전자 Candlestick Chart</text></g><g class="rangeslider-container" pointer-events="all" transform="translate(35,490)"><rect class="rangeslider-bg" x="0" y="0" shape-rendering="crispEdges" width="840" height="78.75" transform="" fill="#fff" stroke="#444" stroke-width="0"/><g class="rangeslider-rangeplot xy" clip-path="url(#rangesliderx-674f45)"><g class="layer-subplot"><g class="shapelayer"/><g class="imagelayer"/></g><g class="gridlayer"><g class="x"/><g class="y"/></g><g class="zerolinelayer"/><path class="xlines-below"/><path class="ylines-below"/><g class="overlines-below"/><g class="xaxislayer-below"/><g class="yaxislayer-below"/><g class="overaxes-below"/><g class="plot"><g class="boxlayer mlayer rangeplot"><g class="trace boxes" style="opacity: 1;"><path class="box" d="M2.14,41.12H6.26M2.14,41.99H6.26V40.12H2.14ZM4.2,41.99V43.87M4.2,40.12V37.63" style="vector-effect: non-scaling-stroke; stroke-width: 2px; stroke: rgb(255, 65, 54); stroke-opacity: 1; fill: rgb(255, 65, 54); fill-opacity: 0.5; opacity: 1;"/><path class="box" d="M10.54,41.99H14.66M10.54,41.99H14.66V41.37H10.54ZM12.6,41.99V43.24M12.6,41.37V38.88" style="vector-effect: non-scaling-stroke; stroke-width: 2px; stroke: rgb(255, 65, 54); stroke-opacity: 1; fill: rgb(255, 65, 54); fill-opacity: 0.5; opacity: 1;"/><path class="box" d="M18.94,47.86H23.06M18.94,48.86H23.06V44.49H18.94ZM21,48.86V49.48M21,44.49V44.49" style="vector-effect: non-scaling-stroke; stroke-width: 2px; stroke: rgb(255, 65, 54); stroke-opacity: 1; fill: rgb(255, 65, 54); fill-opacity: 0.5; opacity: 1;"/><path class="box" d="M27.34,50.35H31.46M27.34,51.35H31.46V47.61H27.34ZM29.4,51.35V51.35M29.4,47.61V46.36" style="vector-effect: non-scaling-stroke; stroke-width: 2px; stroke: rgb(255, 65, 54); stroke-opacity: 1; fill: rgb(255, 65, 54); fill-opacity: 0.5; opacity: 1;"/><path class="box" d="M69.34,36.76H73.46M69.34,42.62H73.46V35.76H69.34ZM71.4,42.62V43.87M71.4,35.76V33.26" style="vector-effect: non-scaling-stroke; stroke-width: 2px; stroke: rgb(61, 153, 112); stroke-opacity: 1; fill: rgb(61, 153, 112); fill-opacity: 0.5; opacity: 1;"/><path class="box" d="M77.74,44.87H81.86M77.74,47.61H81.86V43.87H77.74ZM79.8,47.61V48.23M79.8,43.87V41.37" style="vector-effect: non-scaling-stroke; stroke-width: 2px; stroke: rgb(61, 153, 112); stroke-opacity: 1; fill: rgb(61, 153, 112); fill-opacity: 0.5; opacity: 1;"/><path class="box" d="M86.14,47.86H90.26M86.14,48.86H90.26V42.62H86.14ZM88.2,48.86V48.86M88.2,42.62V41.99" style="vector-effect: non-scaling-stroke; stroke-width: 2px; stroke: rgb(255, 65, 54); stroke-opacity: 1; fill: rgb(255, 65, 54); fill-opacity: 0.5; opacity: 1;"/><path class="box" d="M94.54,48.61H98.66M94.54,51.35H98.66V47.61H94.54ZM96.6,51.35V51.97M96.6,47.61V46.36" style="vector-effect: non-scaling-stroke; stroke-width: 2px; stroke: rgb(61, 153, 112); stroke-opacity: 1; fill: rgb(61, 153, 112); fill-opacity: 0.5; opacity: 1;"/><path class="box" d="M119.74,46.36H123.86M119.74,46.98H123.86V46.36H119.74ZM121.8,46.98V48.86M121.8,46.36V42.62" style="vector-effect: non-scaling-stroke; stroke-width: 2px; stroke: rgb(61, 153, 112); stroke-opacity: 1; fill: rgb(61, 153, 112); fill-opacity: 0.5; opacity: 1;"/><path class="box" d="M128.14,49.1H132.26M128.14,50.1H132.26V46.36H128.14ZM130.2,50.1V50.1M130.2,46.36V42.62" style="vector-effect: non-scaling-stroke; stroke-width: 2px; stroke: rgb(255, 65, 54); stroke-opacity: 1; fill: rgb(255, 65, 54); fill-opacity: 0.5; opacity: 1;"/><path class="box" d="M136.54,53.22H140.66M136.54,53.22H140.66V52.6H136.54ZM138.6,53.22V55.09M138.6,52.6V51.97" style="vector-effect: non-scaling-stroke; stroke-width: 2px; stroke: rgb(255, 65, 54); stroke-opacity: 1; fill: rgb(255, 65, 54); fill-opacity: 0.5; opacity: 1;"/><path class="box" d="M144.94,58.59H149.06M144.94,58.83H149.06V57.59H144.94ZM147,58.83V59.46M147,57.59V56.96" style="vector-effect: non-scaling-stroke; stroke-width: 2px; stroke: rgb(255, 65, 54); stroke-opacity: 1; fill: rgb(255, 65, 54); fill-opacity: 0.5; opacity: 1;"/><path class="box" d="M153.34,58.21H157.46M153.34,58.83H157.46V58.21H153.34ZM155.4,58.83V60.08M155.4,58.21V55.72" style="vector-effect: non-scaling-stroke; stroke-width: 2px; stroke: rgb(61, 153, 112); stroke-opacity: 1; fill: rgb(61, 153, 112); fill-opacity: 0.5; opacity: 1;"/><path class="box" d="M178.54,62.2H182.66M178.54,63.2H182.66V61.95H178.54ZM180.6,63.2V63.82M180.6,61.95V60.08" style="vector-effect: non-scaling-stroke; stroke-width: 2px; stroke: rgb(61, 153, 112); stroke-opacity: 1; fill: rgb(61, 153, 112); fill-opacity: 0.5; opacity: 1;"/><path class="box" d="M186.94,61.08H191.06M186.94,62.58H191.06V60.08H186.94ZM189,62.58V64.45M189,60.08V60.08" style="vector-effect: non-scaling-stroke; stroke-width: 2px; stroke: rgb(61, 153, 112); stroke-opacity: 1; fill: rgb(61, 153, 112); fill-opacity: 0.5; opacity: 1;"/><path class="box" d="M195.34,67.19H199.46M195.34,68.19H199.46V61.95H195.34ZM197.4,68.19V70.68M197.4,61.95V58.83" style="vector-effect: non-scaling-stroke; stroke-width: 2px; stroke: rgb(255, 65, 54); stroke-opacity: 1; fill: rgb(255, 65, 54); fill-opacity: 0.5; opacity: 1;"/><path class="box" d="M203.74,69.06H207.86M203.74,70.06H207.86V65.69H203.74ZM205.8,70.06V70.06M205.8,65.69V63.2" style="vector-effect: non-scaling-stroke; stroke-width: 2px; stroke: rgb(255, 65, 54); stroke-opacity: 1; fill: rgb(255, 65, 54); fill-opacity: 0.5; opacity: 1;"/><path class="box" d="M212.14,67.94H216.26M212.14,71.93H216.26V66.94H212.14ZM214.2,71.93V75.05M214.2,66.94V63.82" style="vector-effect: non-scaling-stroke; stroke-width: 2px; stroke: rgb(61, 153, 112); stroke-opacity: 1; fill: rgb(61, 153, 112); fill-opacity: 0.5; opacity: 1;"/><path class="box" d="M245.74,53.84H249.86M245.74,53.84H249.86V53.22H245.74ZM247.8,53.84V58.21M247.8,53.22V52.6" style="vector-effect: non-scaling-stroke; stroke-width: 2px; stroke: rgb(255, 65, 54); stroke-opacity: 1; fill: rgb(255, 65, 54); fill-opacity: 0.5; opacity: 1;"/><path class="box" d="M254.14,47.86H258.26M254.14,48.86H258.26V43.24H254.14ZM256.2,48.86V52.6M256.2,43.24V41.37" style="vector-effect: non-scaling-stroke; stroke-width: 2px; stroke: rgb(255, 65, 54); stroke-opacity: 1; fill: rgb(255, 65, 54); fill-opacity: 0.5; opacity: 1;"/><path class="box" d="M262.54,45.98H266.66M262.54,46.98H266.66V44.49H262.54ZM264.6,46.98V46.98M264.6,44.49V40.75" style="vector-effect: non-scaling-stroke; stroke-width: 2px; stroke: rgb(255, 65, 54); stroke-opacity: 1; fill: rgb(255, 65, 54); fill-opacity: 0.5; opacity: 1;"/><path class="box" d="M270.94,48.48H275.06M270.94,49.48H275.06V47.61H270.94ZM273,49.48V53.84M273,47.61V43.24" style="vector-effect: non-scaling-stroke; stroke-width: 2px; stroke: rgb(61, 153, 112); stroke-opacity: 1; fill: rgb(61, 153, 112); fill-opacity: 0.5; opacity: 1;"/><path class="box" d="M304.54,53.6H308.66M304.54,58.83H308.66V52.6H304.54ZM306.6,58.83V61.33M306.6,52.6V50.73" style="vector-effect: non-scaling-stroke; stroke-width: 2px; stroke: rgb(61, 153, 112); stroke-opacity: 1; fill: rgb(61, 153, 112); fill-opacity: 0.5; opacity: 1;"/><path class="box" d="M312.94,50.1H317.06M312.94,50.73H317.06V50.1H312.94ZM315,50.73V53.84M315,50.1V42.62" style="vector-effect: non-scaling-stroke; stroke-width: 2px; stroke: rgb(61, 153, 112); stroke-opacity: 1; fill: rgb(61, 153, 112); fill-opacity: 0.5; opacity: 1;"/><path class="box" d="M321.34,53.6H325.46M321.34,53.84H325.46V52.6H321.34ZM323.4,53.84V53.84M323.4,52.6V48.23" style="vector-effect: non-scaling-stroke; stroke-width: 2px; stroke: rgb(255, 65, 54); stroke-opacity: 1; fill: rgb(255, 65, 54); fill-opacity: 0.5; opacity: 1;"/><path class="box" d="M329.74,46.98H333.86M329.74,47.61H333.86V46.98H329.74ZM331.8,47.61V50.1M331.8,46.98V45.74" style="vector-effect: non-scaling-stroke; stroke-width: 2px; stroke: rgb(61, 153, 112); stroke-opacity: 1; fill: rgb(61, 153, 112); fill-opacity: 0.5; opacity: 1;"/><path class="box" d="M354.94,46.11H359.06M354.94,50.1H359.06V45.11H354.94ZM357,50.1V50.73M357,45.11V42.62" style="vector-effect: non-scaling-stroke; stroke-width: 2px; stroke: rgb(61, 153, 112); stroke-opacity: 1; fill: rgb(61, 153, 112); fill-opacity: 0.5; opacity: 1;"/><path class="box" d="M363.34,45.49H367.46M363.34,45.74H367.46V44.49H363.34ZM365.4,45.74V50.1M365.4,44.49V41.99" style="vector-effect: non-scaling-stroke; stroke-width: 2px; stroke: rgb(255, 65, 54); stroke-opacity: 1; fill: rgb(255, 65, 54); fill-opacity: 0.5; opacity: 1;"/><path class="box" d="M371.74,49.1H375.86M371.74,50.1H375.86V44.49H371.74ZM373.8,50.1V50.73M373.8,44.49V43.24" style="vector-effect: non-scaling-stroke; stroke-width: 2px; stroke: rgb(255, 65, 54); stroke-opacity: 1; fill: rgb(255, 65, 54); fill-opacity: 0.5; opacity: 1;"/><path class="box" d="M380.14,52.84H384.26M380.14,53.84H384.26V51.97H380.14ZM382.2,53.84V54.47M382.2,51.97V48.86" style="vector-effect: non-scaling-stroke; stroke-width: 2px; stroke: rgb(61, 153, 112); stroke-opacity: 1; fill: rgb(61, 153, 112); fill-opacity: 0.5; opacity: 1;"/><path class="box" d="M388.54,50.48H392.66M388.54,54.47H392.66V49.48H388.54ZM390.6,54.47V54.47M390.6,49.48V46.98" style="vector-effect: non-scaling-stroke; stroke-width: 2px; stroke: rgb(61, 153, 112); stroke-opacity: 1; fill: rgb(61, 153, 112); fill-opacity: 0.5; opacity: 1;"/><path class="box" d="M413.74,40.5H417.86M413.74,42.62H417.86V39.5H413.74ZM415.8,42.62V44.49M415.8,39.5V39.5" style="vector-effect: non-scaling-stroke; stroke-width: 2px; stroke: rgb(61, 153, 112); stroke-opacity: 1; fill: rgb(61, 153, 112); fill-opacity: 0.5; opacity: 1;"/><path class="box" d="M422.14,39.25H426.26M422.14,42.62H426.26V38.25H422.14ZM424.2,42.62V42.62M424.2,38.25V32.64" style="vector-effect: non-scaling-stroke; stroke-width: 2px; stroke: rgb(61, 153, 112); stroke-opacity: 1; fill: rgb(61, 153, 112); fill-opacity: 0.5; opacity: 1;"/><path class="box" d="M430.54,28.65H434.66M430.54,36.38H434.66V27.65H430.54ZM432.6,36.38V38.25M432.6,27.65V26.4" style="vector-effect: non-scaling-stroke; stroke-width: 2px; stroke: rgb(61, 153, 112); stroke-opacity: 1; fill: rgb(61, 153, 112); fill-opacity: 0.5; opacity: 1;"/><path class="box" d="M438.94,26.78H443.06M438.94,27.03H443.06V25.78H438.94ZM441,27.03V30.77M441,25.78V23.28" style="vector-effect: non-scaling-stroke; stroke-width: 2px; stroke: rgb(255, 65, 54); stroke-opacity: 1; fill: rgb(255, 65, 54); fill-opacity: 0.5; opacity: 1;"/><path class="box" d="M447.34,39.75H451.46M447.34,40.75H451.46V30.77H447.34ZM449.4,40.75V41.37M449.4,30.77V28.9" style="vector-effect: non-scaling-stroke; stroke-width: 2px; stroke: rgb(255, 65, 54); stroke-opacity: 1; fill: rgb(255, 65, 54); fill-opacity: 0.5; opacity: 1;"/><path class="box" d="M472.54,28.65H476.66M472.54,35.76H476.66V27.65H472.54ZM474.6,35.76V36.38M474.6,27.65V24.53" style="vector-effect: non-scaling-stroke; stroke-width: 2px; stroke: rgb(61, 153, 112); stroke-opacity: 1; fill: rgb(61, 153, 112); fill-opacity: 0.5; opacity: 1;"/><path class="box" d="M480.94,23.91H485.06M480.94,24.53H485.06V23.91H480.94ZM483,24.53V27.03M483,23.91V22.04" style="vector-effect: non-scaling-stroke; stroke-width: 2px; stroke: rgb(61, 153, 112); stroke-opacity: 1; fill: rgb(61, 153, 112); fill-opacity: 0.5; opacity: 1;"/><path class="box" d="M489.34,26.4H493.46M489.34,26.4H493.46V25.78H489.34ZM491.4,26.4V28.27M491.4,25.78V23.91" style="vector-effect: non-scaling-stroke; stroke-width: 2px; stroke: rgb(255, 65, 54); stroke-opacity: 1; fill: rgb(255, 65, 54); fill-opacity: 0.5; opacity: 1;"/><path class="box" d="M497.74,29.9H501.86M497.74,32.64H501.86V28.9H497.74ZM499.8,32.64V35.76M499.8,28.9V25.16" style="vector-effect: non-scaling-stroke; stroke-width: 2px; stroke: rgb(61, 153, 112); stroke-opacity: 1; fill: rgb(61, 153, 112); fill-opacity: 0.5; opacity: 1;"/><path class="box" d="M506.14,28.52H510.26M506.14,29.52H510.26V27.65H506.14ZM508.2,29.52V33.89M508.2,27.65V27.03" style="vector-effect: non-scaling-stroke; stroke-width: 2px; stroke: rgb(61, 153, 112); stroke-opacity: 1; fill: rgb(61, 153, 112); fill-opacity: 0.5; opacity: 1;"/><path class="box" d="M531.34,23.66H535.46M531.34,25.78H535.46V22.66H531.34ZM533.4,25.78V27.65M533.4,22.66V22.04" style="vector-effect: non-scaling-stroke; stroke-width: 2px; stroke: rgb(61, 153, 112); stroke-opacity: 1; fill: rgb(61, 153, 112); fill-opacity: 0.5; opacity: 1;"/><path class="box" d="M539.74,13.68H543.86M539.74,20.79H543.86V12.68H539.74ZM541.8,20.79V20.79M541.8,12.68V12.06" style="vector-effect: non-scaling-stroke; stroke-width: 2px; stroke: rgb(61, 153, 112); stroke-opacity: 1; fill: rgb(61, 153, 112); fill-opacity: 0.5; opacity: 1;"/><path class="box" d="M548.14,11.43H552.26M548.14,11.43H552.26V11.43H548.14ZM550.2,11.43V15.8M550.2,11.43V10.19" style="vector-effect: non-scaling-stroke; stroke-width: 2px; stroke: rgb(61, 153, 112); stroke-opacity: 1; fill: rgb(61, 153, 112); fill-opacity: 0.5; opacity: 1;"/><path class="box" d="M556.54,20.41H560.66M556.54,21.41H560.66V15.18H556.54ZM558.6,21.41V21.41M558.6,15.18V14.55" style="vector-effect: non-scaling-stroke; stroke-width: 2px; stroke: rgb(255, 65, 54); stroke-opacity: 1; fill: rgb(255, 65, 54); fill-opacity: 0.5; opacity: 1;"/><path class="box" d="M564.94,5.57H569.06M564.94,5.82H569.06V4.57H564.94ZM567,5.82V9.56M567,4.57V3.95" style="vector-effect: non-scaling-stroke; stroke-width: 2px; stroke: rgb(255, 65, 54); stroke-opacity: 1; fill: rgb(255, 65, 54); fill-opacity: 0.5; opacity: 1;"/><path class="box" d="M590.14,11.06H594.26M590.14,12.06H594.26V5.82H590.14ZM592.2,12.06V13.31M592.2,5.82V5.82" style="vector-effect: non-scaling-stroke; stroke-width: 2px; stroke: rgb(255, 65, 54); stroke-opacity: 1; fill: rgb(255, 65, 54); fill-opacity: 0.5; opacity: 1;"/><path class="box" d="M598.54,9.19H602.66M598.54,10.19H602.66V8.94H598.54ZM600.6,10.19V13.93M600.6,8.94V8.32" style="vector-effect: non-scaling-stroke; stroke-width: 2px; stroke: rgb(61, 153, 112); stroke-opacity: 1; fill: rgb(61, 153, 112); fill-opacity: 0.5; opacity: 1;"/><path class="box" d="M606.94,7.9399999999999995H611.06M606.94,8.94H611.06V7.07H606.94ZM609,8.94V13.31M609,7.07V7.07" style="vector-effect: non-scaling-stroke; stroke-width: 2px; stroke: rgb(61, 153, 112); stroke-opacity: 1; fill: rgb(61, 153, 112); fill-opacity: 0.5; opacity: 1;"/><path class="box" d="M615.34,14.18H619.46M615.34,15.18H619.46V11.43H615.34ZM617.4,15.18V15.8M617.4,11.43V11.43" style="vector-effect: non-scaling-stroke; stroke-width: 2px; stroke: rgb(255, 65, 54); stroke-opacity: 1; fill: rgb(255, 65, 54); fill-opacity: 0.5; opacity: 1;"/><path class="box" d="M623.74,12.68H627.86M623.74,12.68H627.86V12.68H623.74ZM625.8,12.68V15.18M625.8,12.68V8.94" style="vector-effect: non-scaling-stroke; stroke-width: 2px; stroke: rgb(61, 153, 112); stroke-opacity: 1; fill: rgb(61, 153, 112); fill-opacity: 0.5; opacity: 1;"/><path class="box" d="M648.94,15.18H653.06M648.94,15.18H653.06V15.18H648.94ZM651,15.18V18.92M651,15.18V12.68" style="vector-effect: non-scaling-stroke; stroke-width: 2px; stroke: rgb(255, 65, 54); stroke-opacity: 1; fill: rgb(255, 65, 54); fill-opacity: 0.5; opacity: 1;"/><path class="box" d="M657.34,19.29H661.46M657.34,20.17H661.46V18.29H657.34ZM659.4,20.17V22.04M659.4,18.29V16.42" style="vector-effect: non-scaling-stroke; stroke-width: 2px; stroke: rgb(255, 65, 54); stroke-opacity: 1; fill: rgb(255, 65, 54); fill-opacity: 0.5; opacity: 1;"/><path class="box" d="M665.74,17.42H669.86M665.74,17.67H669.86V16.42H665.74ZM667.8,17.67V19.54M667.8,16.42V15.8" style="vector-effect: non-scaling-stroke; stroke-width: 2px; stroke: rgb(255, 65, 54); stroke-opacity: 1; fill: rgb(255, 65, 54); fill-opacity: 0.5; opacity: 1;"/><path class="box" d="M674.14,15.420000000000002H678.26M674.14,16.42H678.26V15.18H674.14ZM676.2,16.42V18.29M676.2,15.18V13.31" style="vector-effect: non-scaling-stroke; stroke-width: 2px; stroke: rgb(61, 153, 112); stroke-opacity: 1; fill: rgb(61, 153, 112); fill-opacity: 0.5; opacity: 1;"/><path class="box" d="M682.54,16.67H686.66M682.54,17.67H686.66V15.18H682.54ZM684.6,17.67V18.92M684.6,15.18V13.31" style="vector-effect: non-scaling-stroke; stroke-width: 2px; stroke: rgb(255, 65, 54); stroke-opacity: 1; fill: rgb(255, 65, 54); fill-opacity: 0.5; opacity: 1;"/><path class="box" d="M707.74,22.28H711.86M707.74,23.28H711.86V20.79H707.74ZM709.8,23.28V25.16M709.8,20.79V20.79" style="vector-effect: non-scaling-stroke; stroke-width: 2px; stroke: rgb(255, 65, 54); stroke-opacity: 1; fill: rgb(255, 65, 54); fill-opacity: 0.5; opacity: 1;"/><path class="box" d="M716.14,21.17H720.26M716.14,24.53H720.26V20.17H716.14ZM718.2,24.53V25.16M718.2,20.17V20.17" style="vector-effect: non-scaling-stroke; stroke-width: 2px; stroke: rgb(61, 153, 112); stroke-opacity: 1; fill: rgb(61, 153, 112); fill-opacity: 0.5; opacity: 1;"/><path class="box" d="M724.54,11.19H728.66M724.54,21.41H728.66V10.19H724.54ZM726.6,21.41V22.66M726.6,10.19V10.19" style="vector-effect: non-scaling-stroke; stroke-width: 2px; stroke: rgb(61, 153, 112); stroke-opacity: 1; fill: rgb(61, 153, 112); fill-opacity: 0.5; opacity: 1;"/><path class="box" d="M732.94,6.69H737.06M732.94,7.69H737.06V4.57H732.94ZM735,7.69V9.56M735,4.57V3.95" style="vector-effect: non-scaling-stroke; stroke-width: 2px; stroke: rgb(255, 65, 54); stroke-opacity: 1; fill: rgb(255, 65, 54); fill-opacity: 0.5; opacity: 1;"/><path class="box" d="M741.34,20.41H745.46M741.34,21.41H745.46V8.32H741.34ZM743.4,21.41V21.41M743.4,8.32V8.32" style="vector-effect: non-scaling-stroke; stroke-width: 2px; stroke: rgb(255, 65, 54); stroke-opacity: 1; fill: rgb(255, 65, 54); fill-opacity: 0.5; opacity: 1;"/><path class="box" d="M766.54,21.04H770.66M766.54,22.04H770.66V18.29H766.54ZM768.6,22.04V23.91M768.6,18.29V17.05" style="vector-effect: non-scaling-stroke; stroke-width: 2px; stroke: rgb(255, 65, 54); stroke-opacity: 1; fill: rgb(255, 65, 54); fill-opacity: 0.5; opacity: 1;"/><path class="box" d="M774.94,27.9H779.06M774.94,28.9H779.06V25.16H774.94ZM777,28.9V28.9M777,25.16V23.28" style="vector-effect: non-scaling-stroke; stroke-width: 2px; stroke: rgb(255, 65, 54); stroke-opacity: 1; fill: rgb(255, 65, 54); fill-opacity: 0.5; opacity: 1;"/><path class="box" d="M783.34,30.77H787.46M783.34,31.39H787.46V30.77H783.34ZM785.4,31.39V33.26M785.4,30.77V26.4" style="vector-effect: non-scaling-stroke; stroke-width: 2px; stroke: rgb(61, 153, 112); stroke-opacity: 1; fill: rgb(61, 153, 112); fill-opacity: 0.5; opacity: 1;"/><path class="box" d="M791.74,29.9H795.86M791.74,32.02H795.86V28.9H791.74ZM793.8,32.02V32.64M793.8,28.9V28.9" style="vector-effect: non-scaling-stroke; stroke-width: 2px; stroke: rgb(61, 153, 112); stroke-opacity: 1; fill: rgb(61, 153, 112); fill-opacity: 0.5; opacity: 1;"/><path class="box" d="M800.14,22.41H804.26M800.14,28.27H804.26V21.41H800.14ZM802.2,28.27V28.27M802.2,21.41V20.17" style="vector-effect: non-scaling-stroke; stroke-width: 2px; stroke: rgb(61, 153, 112); stroke-opacity: 1; fill: rgb(61, 153, 112); fill-opacity: 0.5; opacity: 1;"/><path class="box" d="M825.34,26.03H829.46M825.34,27.03H829.46V24.53H825.34ZM827.4,27.03V27.65M827.4,24.53V23.91" style="vector-effect: non-scaling-stroke; stroke-width: 2px; stroke: rgb(255, 65, 54); stroke-opacity: 1; fill: rgb(255, 65, 54); fill-opacity: 0.5; opacity: 1;"/><path class="box" d="M833.74,25.78H837.86M833.74,26.4H837.86V25.78H833.74ZM835.8,26.4V27.65M835.8,25.78V22.04" style="vector-effect: non-scaling-stroke; stroke-width: 2px; stroke: rgb(61, 153, 112); stroke-opacity: 1; fill: rgb(61, 153, 112); fill-opacity: 0.5; opacity: 1;"/></g></g></g><g class="overplot"/><path class="xlines-above crisp" style="fill: none;"/><path class="ylines-above crisp" style="fill: none;"/><g class="overlines-above"/><g class="xaxislayer-above"/><g class="yaxislayer-above"/><g class="overaxes-above"/></g><rect class="rangeslider-mask-min" x="0" y="0" shape-rendering="crispEdges" height="78.75" width="0" style="fill: rgb(0, 0, 0); fill-opacity: 0.4;"/><rect class="rangeslider-mask-max" y="0" shape-rendering="crispEdges" height="78.75" x="840" width="0" style="fill: rgb(0, 0, 0); fill-opacity: 0.4;"/><g class="rangeslider-grabber-min" transform="translate(-2.5,0.5)"><rect class="rangeslider-handle-min" x="0" width="4" rx="1" fill="#fff" stroke="#444" stroke-width="1" shape-rendering="crispEdges" y="20" height="39"/><rect class="rangeslider-grabarea-min" width="10" x="0" y="0" fill="transparent" height="78.75"/></g><g class="rangeslider-grabber-max" transform="translate(838.5,0.5)"><rect class="rangeslider-handle-max" x="0" width="4" rx="1" fill="#fff" stroke="#444" stroke-width="1" shape-rendering="crispEdges" y="20" height="39"/><rect class="rangeslider-grabarea-max" width="10" x="0" y="0" fill="transparent" height="78.75"/></g></g><g class="g-ytitle"/><g class="g-xtitle"><text class="xtitle" x="455" y="599.75" text-anchor="middle" style="font-family: 'Open Sans', verdana, arial, sans-serif; font-size: 14px; fill: rgb(68, 68, 68); opacity: 1; font-weight: normal; white-space: pre;">date</text></g></g></svg>