<svg class="main-svg" xmlns="http://www.w3.org/2000/svg" xmlns:xlink="http://www.w3.org/1999/xlink" width="596.364" height="483.636" style="" viewBox="0 0 596.364 483.636"><rect x="0" y="0" width="596.364" height="483.636" style="fill: rgb(255, 255, 255); fill-opacity: 1;"/><defs id="defs-caff55"><g class="clips"><clipPath id="clipcaff55xyplot" class="plotclip"><rect width="519" height="392"/></clipPath><clipPath class="axesclip" id="clipcaff55x"><rect x="52" y="0" width="519" height="483.636"/></clipPath><clipPath class="axesclip" id="clipcaff55y"><rect x="0" y="50" width="596.364" height="392"/></clipPath><clipPath class="axesclip" id="clipcaff55xy"><rect x="52" y="50" width="519" height="392"/></clipPath></g><g class="gradients"/><g class="patterns"/></defs><g class="bglayer"/><g class="layer-below"><g class="imagelayer"/><g class="shapelayer"/></g><g class="cartesianlayer"><g class="subplot xy"><g class="layer-subplot"><g class="shapelayer"/><g class="imagelayer"/></g><g class="gridlayer"><g class="x"/><g class="y"><path class="ygrid crisp" transform="translate(0,412.85)" d="M52,0h519" style="stroke: rgb(238, 238, 238); stroke-opacity: 1; stroke-width: 1px;"/><path class="ygrid crisp" transform="translate(0,317.51)" d="M52,0h519" style="stroke: rgb(238, 238, 238); stroke-opacity: 1; stroke-width: 1px;"/><path class="ygrid crisp" transform="translate(0,269.84000000000003)" d="M52,0h519" style="stroke: rgb(238, 238, 238); stroke-opacity: 1; stroke-width: 1px;"/><path class="ygrid crisp" transform="translate(0,222.16)" d="M52,0h519" style="stroke: rgb(238, 238, 238); stroke-opacity: 1; stroke-width: 1px;"/><path class="ygrid crisp" transform="translate(0,174.49)" d="M52,0h519" style="stroke: rgb(238, 238, 238); stroke-opacity: 1; stroke-width: 1px;"/><path class="ygrid crisp" transform="translate(0,126.82)" d="M52,0h519" style="stroke: rgb(238, 238, 238); stroke-opacity: 1; stroke-width: 1px;"/><path class="ygrid crisp" transform="translate(0,79.15)" d="M52,0h519" style="stroke: rgb(238, 238, 238); stroke-opacity: 1; stroke-width: 1px;"/></g></g><g class="zerolinelayer"><path class="yzl zl crisp" transform="translate(0,365.18)" d="M52,0h519" style="stroke: rgb(68, 68, 68); stroke-opacity: 1; stroke-width: 1px;"/></g><path class="xlines-below"/><path class="ylines-below"/><g class="overlines-below"/><g class="xaxislayer-below"/><g class="yaxislayer-below"/><g class="overaxes-below"/><g class="plot" transform="translate(52,50)" clip-path="url(#clipcaff55xyplot)"><g class="violinlayer mlayer"><g class="trace violins" style="opacity: 1;"><path class="violin" d="M37.31,348.74Q37.42,345.03 37.5,343.18C37.58,341.33 37.68,339.48 37.78,337.63C37.88,335.78 38.01,333.93 38.12,332.08C38.23,330.23 38.35,328.37 38.45,326.52C38.55,324.67 38.65,322.82 38.71,320.97C38.77,319.12 38.82,317.26 38.82,315.41C38.82,313.56 38.79,311.71 38.74,309.86C38.69,308.01 38.6,306.16 38.52,304.31C38.43,302.46 38.33,300.6 38.23,298.75C38.13,296.9 38.02,295.05 37.93,293.2C37.84,291.35 37.76,289.49 37.7,287.64C37.64,285.79 37.6,283.94 37.57,282.09C37.54,280.24 37.52,278.38 37.52,276.53C37.52,274.68 37.53,272.83 37.54,270.98C37.55,269.13 37.58,267.28 37.61,265.43C37.64,263.58 37.68,261.72 37.73,259.87C37.77,258.02 37.82,256.17 37.88,254.32C37.94,252.47 38.01,250.61 38.09,248.76C38.16,246.91 38.24,245.06 38.33,243.21C38.42,241.36 38.52,239.51 38.64,237.66C38.76,235.81 38.89,233.95 39.03,232.1C39.17,230.25 39.32,228.4 39.5,226.55C39.68,224.7 39.88,222.84 40.09,220.99C40.3,219.14 40.54,217.29 40.78,215.44C41.03,213.59 41.29,211.74 41.56,209.89C41.83,208.04 42.12,206.18 42.4,204.33C42.68,202.48 42.97,200.63 43.25,198.78C43.53,196.93 43.82,195.07 44.1,193.22C44.38,191.37 44.66,189.52 44.94,187.67C45.22,185.82 45.51,183.96 45.8,182.11C46.09,180.26 46.39,178.41 46.69,176.56C46.99,174.71 47.29,172.86 47.58,171.01C47.87,169.16 48.16,167.3 48.41,165.45C48.66,163.6 48.9,161.75 49.09,159.9C49.27,158.05 49.43,156.19 49.52,154.34C49.61,152.49 49.66,150.64 49.66,148.79C49.66,146.94 49.6,145.09 49.52,143.24C49.43,141.39 49.29,139.53 49.15,137.68C49,135.83 48.83,133.98 48.65,132.13C48.47,130.28 48.27,128.42 48.09,126.57C47.91,124.72 47.71,122.87 47.56,121.02C47.41,119.17 47.26,117.32 47.17,115.47C47.08,113.62 47.01,111.76 47.02,109.91C47.03,108.06 47.08,106.21 47.2,104.36C47.32,102.51 47.51,100.65 47.72,98.8C47.93,96.95 48.23,95.1 48.48,93.25C48.73,91.4 49.03,89.55 49.2,87.69C49.37,85.84 49.52,83.99 49.49,82.14C49.46,80.29 49.33,78.43 49.04,76.59C48.75,74.73 48.27,72.87 47.73,71.03C47.18,69.16 46.45,67.32 45.75,65.48C45.04,63.62 44.22,61.78 43.48,59.92C42.75,58.07 41.99,56.23 41.35,54.37C40.71,52.53 40.12,50.68 39.64,48.82Q39.16,46.98 38.46,43.26L35.68,43.26Q34.98,46.98 34.5,48.82C34.02,50.68 33.43,52.53 32.79,54.37C32.15,56.23 31.39,58.07 30.66,59.92C29.92,61.78 29.1,63.62 28.39,65.48C27.69,67.32 26.96,69.16 26.41,71.03C25.87,72.87 25.39,74.73 25.1,76.59C24.81,78.43 24.68,80.29 24.65,82.14C24.62,83.99 24.77,85.84 24.94,87.69C25.11,89.55 25.41,91.4 25.66,93.25C25.91,95.1 26.2,96.95 26.42,98.8C26.63,100.65 26.83,102.51 26.95,104.36C27.07,106.21 27.12,108.06 27.12,109.91C27.12,111.76 27.06,113.62 26.97,115.47C26.88,117.32 26.73,119.17 26.58,121.02C26.43,122.87 26.24,124.72 26.06,126.57C25.88,128.42 25.68,130.28 25.5,132.13C25.32,133.98 25.14,135.83 24.99,137.68C24.84,139.53 24.71,141.39 24.62,143.24C24.54,145.09 24.48,146.94 24.48,148.79C24.48,150.64 24.52,152.49 24.62,154.34C24.72,156.19 24.88,158.05 25.06,159.9C25.25,161.75 25.48,163.6 25.73,165.45C25.98,167.3 26.27,169.16 26.56,171.01C26.85,172.86 27.16,174.71 27.46,176.56C27.76,178.41 28.05,180.26 28.34,182.11C28.63,183.96 28.91,185.82 29.2,187.67C29.48,189.52 29.77,191.37 30.05,193.22C30.33,195.07 30.61,196.93 30.89,198.78C31.17,200.63 31.47,202.48 31.75,204.33C32.03,206.18 32.31,208.04 32.58,209.89C32.85,211.74 33.11,213.59 33.36,215.44C33.61,217.29 33.85,219.14 34.06,220.99C34.27,222.84 34.46,224.7 34.64,226.55C34.81,228.4 34.97,230.25 35.11,232.1C35.25,233.95 35.38,235.81 35.5,237.66C35.62,239.51 35.72,241.36 35.81,243.21C35.9,245.06 35.99,246.91 36.06,248.76C36.14,250.61 36.2,252.47 36.26,254.32C36.32,256.17 36.38,258.02 36.42,259.87C36.47,261.72 36.5,263.58 36.53,265.43C36.56,267.28 36.59,269.13 36.61,270.98C36.63,272.83 36.63,274.68 36.63,276.53C36.63,278.38 36.61,280.24 36.58,282.09C36.55,283.94 36.5,285.79 36.44,287.64C36.38,289.49 36.3,291.35 36.21,293.2C36.12,295.05 36.02,296.9 35.92,298.75C35.82,300.6 35.71,302.46 35.62,304.31C35.53,306.16 35.45,308.01 35.4,309.86C35.35,311.71 35.33,313.56 35.33,315.41C35.33,317.26 35.37,319.12 35.43,320.97C35.49,322.82 35.59,324.67 35.69,326.52C35.79,328.37 35.92,330.23 36.03,332.08C36.14,333.93 36.26,335.78 36.36,337.63C36.46,339.48 36.56,341.33 36.64,343.18Q36.72,345.03 36.84,348.74Z" style="vector-effect: non-scaling-stroke; stroke-width: 2px; stroke: rgb(31, 119, 180); stroke-opacity: 1; fill: rgb(31, 119, 180); fill-opacity: 0.5;"/><path class="violin" d="M111.47,372.4Q111.59,366.04 111.68,362.86C111.77,359.68 111.88,356.51 112,353.33C112.12,350.15 112.26,346.97 112.39,343.79C112.52,340.61 112.67,337.44 112.8,334.26C112.93,331.08 113.05,327.9 113.15,324.72C113.24,321.54 113.33,318.37 113.37,315.19C113.41,312.01 113.42,308.83 113.41,305.65C113.4,302.47 113.34,299.3 113.3,296.12C113.25,292.94 113.19,289.76 113.14,286.58C113.1,283.4 113.05,280.23 113.03,277.05C113.01,273.87 113.01,270.69 113.04,267.51C113.07,264.33 113.13,261.16 113.21,257.98C113.29,254.8 113.4,251.62 113.53,248.44C113.66,245.26 113.81,242.09 113.98,238.91C114.15,235.73 114.34,232.55 114.54,229.37C114.74,226.19 114.96,223.02 115.2,219.84C115.44,216.66 115.69,213.48 115.96,210.3C116.23,207.12 116.52,203.95 116.81,200.77C117.1,197.59 117.42,194.41 117.72,191.23C118.02,188.05 118.34,184.88 118.63,181.7C118.92,178.52 119.21,175.34 119.47,172.16C119.73,168.98 119.98,165.81 120.2,162.63C120.41,159.45 120.6,156.27 120.76,153.09C120.92,149.91 121.05,146.74 121.15,143.56C121.25,140.38 121.31,137.2 121.37,134.02C121.42,130.84 121.46,127.67 121.48,124.49C121.5,121.31 121.51,118.13 121.51,114.95C121.51,111.77 121.51,108.6 121.48,105.42C121.45,102.24 121.41,99.06 121.3,95.88C121.19,92.7 121.06,89.53 120.84,86.35C120.62,83.17 120.34,79.99 119.99,76.81C119.63,73.63 119.18,70.45 118.71,67.28C118.23,64.1 117.67,60.92 117.14,57.74C116.6,54.56 116.02,51.39 115.5,48.21C114.98,45.03 114.47,41.85 114.03,38.67C113.59,35.5 113.2,32.32 112.88,29.14Q112.56,25.96 112.11,19.6L110.32,19.6Q109.87,25.96 109.55,29.14C109.23,32.32 108.84,35.5 108.4,38.67C107.96,41.85 107.45,45.03 106.93,48.21C106.41,51.39 105.83,54.56 105.29,57.74C104.75,60.92 104.19,64.1 103.71,67.28C103.24,70.45 102.8,73.63 102.44,76.81C102.09,79.99 101.8,83.17 101.58,86.35C101.36,89.53 101.23,92.7 101.13,95.88C101.02,99.06 100.98,102.24 100.95,105.42C100.92,108.6 100.92,111.77 100.92,114.95C100.92,118.13 100.93,121.31 100.95,124.49C100.97,127.67 101.01,130.84 101.06,134.02C101.12,137.2 101.18,140.38 101.28,143.56C101.38,146.74 101.51,149.91 101.67,153.09C101.83,156.27 102.02,159.45 102.23,162.63C102.45,165.81 102.7,168.98 102.96,172.16C103.22,175.34 103.51,178.52 103.8,181.7C104.09,184.88 104.41,188.05 104.71,191.23C105.01,194.41 105.32,197.59 105.61,200.77C105.9,203.95 106.2,207.12 106.47,210.3C106.74,213.48 106.99,216.66 107.23,219.84C107.47,223.02 107.69,226.19 107.89,229.37C108.09,232.55 108.27,235.73 108.44,238.91C108.61,242.09 108.76,245.26 108.89,248.44C109.02,251.62 109.14,254.8 109.22,257.98C109.3,261.16 109.36,264.33 109.39,267.51C109.42,270.69 109.42,273.87 109.4,277.05C109.38,280.23 109.33,283.4 109.29,286.58C109.24,289.76 109.18,292.94 109.13,296.12C109.09,299.3 109.03,302.47 109.02,305.65C109.01,308.83 109.02,312.01 109.06,315.19C109.1,318.37 109.18,321.54 109.27,324.72C109.37,327.9 109.5,331.08 109.63,334.26C109.76,337.44 109.91,340.61 110.04,343.79C110.17,346.97 110.31,350.15 110.43,353.33C110.55,356.51 110.66,359.68 110.75,362.86Q110.84,366.04 110.96,372.4Z" style="vector-effect: non-scaling-stroke; stroke-width: 2px; stroke: rgb(31, 119, 180); stroke-opacity: 1; fill: rgb(31, 119, 180); fill-opacity: 0.5;"/><path class="violin" d="M185.75,353.85Q185.95,349.56 186.08,347.41C186.21,345.26 186.38,343.12 186.55,340.97C186.72,338.82 186.92,336.67 187.11,334.52C187.3,332.37 187.51,330.23 187.68,328.08C187.84,325.93 188,323.79 188.1,321.64C188.2,319.49 188.26,317.35 188.26,315.2C188.26,313.05 188.2,310.9 188.11,308.75C188.02,306.6 187.87,304.46 187.71,302.31C187.55,300.16 187.34,298.02 187.17,295.87C186.99,293.72 186.81,291.57 186.66,289.42C186.51,287.27 186.37,285.13 186.27,282.98C186.17,280.83 186.11,278.69 186.07,276.54C186.03,274.39 186.03,272.24 186.05,270.09C186.07,267.94 186.12,265.8 186.19,263.65C186.26,261.5 186.36,259.36 186.48,257.21C186.6,255.06 186.73,252.92 186.89,250.77C187.05,248.62 187.23,246.47 187.43,244.32C187.63,242.17 187.85,240.03 188.1,237.88C188.35,235.73 188.63,233.59 188.94,231.44C189.25,229.29 189.6,227.14 189.98,224.99C190.37,222.84 190.8,220.69 191.25,218.55C191.71,216.4 192.21,214.26 192.71,212.11C193.21,209.96 193.76,207.81 194.27,205.66C194.78,203.51 195.31,201.37 195.77,199.22C196.23,197.08 196.68,194.93 197.05,192.78C197.42,190.64 197.73,188.49 197.97,186.34C198.21,184.19 198.38,182.04 198.47,179.89C198.56,177.74 198.58,175.6 198.54,173.45C198.5,171.3 198.39,169.16 198.22,167.01C198.05,164.86 197.81,162.71 197.54,160.56C197.27,158.41 196.94,156.26 196.6,154.12C196.26,151.97 195.87,149.83 195.5,147.68C195.13,145.53 194.74,143.38 194.38,141.23C194.03,139.08 193.68,136.94 193.37,134.79C193.07,132.65 192.78,130.5 192.55,128.35C192.32,126.21 192.13,124.06 191.99,121.91C191.86,119.76 191.77,117.61 191.74,115.46C191.71,113.31 191.74,111.17 191.82,109.02C191.9,106.87 192.05,104.73 192.22,102.58C192.39,100.43 192.65,98.28 192.86,96.13C193.07,93.98 193.33,91.84 193.5,89.69C193.67,87.55 193.83,85.4 193.86,83.25C193.89,81.1 193.84,78.94 193.67,76.8C193.5,74.65 193.2,72.5 192.84,70.36C192.48,68.21 191.98,66.06 191.49,63.92C191,61.77 190.42,59.63 189.9,57.48C189.38,55.33 188.84,53.18 188.39,51.03C187.94,48.89 187.52,46.74 187.18,44.59Q186.84,42.45 186.34,38.15L184.37,38.15Q183.87,42.45 183.53,44.59C183.19,46.74 182.77,48.89 182.32,51.03C181.87,53.18 181.32,55.33 180.81,57.48C180.29,59.63 179.72,61.77 179.23,63.92C178.74,66.06 178.24,68.21 177.88,70.36C177.52,72.5 177.22,74.65 177.05,76.8C176.88,78.94 176.83,81.1 176.86,83.25C176.89,85.4 177.04,87.55 177.21,89.69C177.38,91.84 177.65,93.98 177.86,96.13C178.07,98.28 178.32,100.43 178.49,102.58C178.66,104.73 178.82,106.87 178.9,109.02C178.98,111.17 179.01,113.31 178.98,115.46C178.95,117.61 178.86,119.76 178.72,121.91C178.58,124.06 178.39,126.21 178.16,128.35C177.93,130.5 177.64,132.65 177.34,134.79C177.03,136.94 176.68,139.08 176.33,141.23C175.97,143.38 175.58,145.53 175.21,147.68C174.84,149.83 174.46,151.97 174.12,154.12C173.78,156.26 173.44,158.41 173.17,160.56C172.9,162.71 172.67,164.86 172.5,167.01C172.33,169.16 172.21,171.3 172.17,173.45C172.13,175.6 172.15,177.74 172.24,179.89C172.33,182.04 172.5,184.19 172.74,186.34C172.98,188.49 173.3,190.64 173.67,192.78C174.04,194.93 174.49,197.08 174.95,199.22C175.41,201.37 175.94,203.51 176.45,205.66C176.96,207.81 177.51,209.96 178.01,212.11C178.51,214.26 179.02,216.4 179.47,218.55C179.92,220.69 180.35,222.84 180.73,224.99C181.11,227.14 181.46,229.29 181.77,231.44C182.08,233.59 182.36,235.73 182.61,237.88C182.86,240.03 183.08,242.17 183.28,244.32C183.48,246.47 183.66,248.62 183.82,250.77C183.98,252.92 184.11,255.06 184.23,257.21C184.35,259.36 184.45,261.5 184.52,263.65C184.59,265.8 184.65,267.94 184.67,270.09C184.69,272.24 184.69,274.39 184.65,276.54C184.61,278.69 184.54,280.83 184.44,282.98C184.34,285.13 184.21,287.27 184.06,289.42C183.91,291.57 183.72,293.72 183.54,295.87C183.37,298.02 183.17,300.16 183.01,302.31C182.85,304.46 182.69,306.6 182.6,308.75C182.51,310.9 182.45,313.05 182.45,315.2C182.45,317.35 182.51,319.49 182.61,321.64C182.71,323.79 182.88,325.93 183.04,328.08C183.21,330.23 183.41,332.37 183.6,334.52C183.79,336.67 184,338.82 184.17,340.97C184.34,343.12 184.5,345.26 184.63,347.41Q184.76,349.56 184.96,353.85Z" style="vector-effect: non-scaling-stroke; stroke-width: 2px; stroke: rgb(31, 119, 180); stroke-opacity: 1; fill: rgb(31, 119, 180); fill-opacity: 0.5;"/><path class="violin" d="M260.02,341.49Q260.28,338.59 260.45,337.14C260.62,335.69 260.83,334.24 261.06,332.8C261.29,331.35 261.56,329.91 261.81,328.46C262.06,327.01 262.34,325.57 262.56,324.12C262.78,322.67 263,321.22 263.14,319.77C263.28,318.32 263.39,316.88 263.41,315.43C263.43,313.98 263.38,312.54 263.28,311.09C263.18,309.64 263,308.19 262.81,306.74C262.62,305.29 262.37,303.85 262.15,302.4C261.92,300.95 261.67,299.51 261.46,298.06C261.25,296.61 261.05,295.17 260.88,293.72C260.72,292.27 260.58,290.82 260.47,289.37C260.36,287.92 260.29,286.48 260.23,285.03C260.17,283.58 260.14,282.14 260.12,280.69C260.1,279.24 260.1,277.79 260.11,276.34C260.12,274.89 260.14,273.45 260.16,272C260.18,270.55 260.21,269.11 260.24,267.66C260.28,266.21 260.32,264.76 260.37,263.31C260.42,261.86 260.48,260.42 260.55,258.97C260.62,257.52 260.7,256.08 260.79,254.63C260.89,253.18 261,251.74 261.12,250.29C261.24,248.84 261.38,247.39 261.53,245.94C261.68,244.49 261.84,243.05 262.01,241.6C262.18,240.15 262.35,238.71 262.53,237.26C262.71,235.81 262.89,234.36 263.08,232.91C263.27,231.46 263.45,230.02 263.65,228.57C263.85,227.12 264.04,225.68 264.26,224.23C264.48,222.78 264.71,221.34 264.96,219.89C265.22,218.44 265.49,216.99 265.79,215.54C266.09,214.09 266.43,212.64 266.77,211.2C267.11,209.75 267.49,208.31 267.85,206.86C268.21,205.41 268.59,203.96 268.95,202.51C269.31,201.06 269.66,199.62 269.99,198.17C270.32,196.72 270.64,195.28 270.95,193.83C271.26,192.38 271.54,190.94 271.83,189.49C272.13,188.04 272.42,186.59 272.72,185.14C273.03,183.69 273.34,182.25 273.66,180.8C273.99,179.35 274.33,177.91 274.67,176.46C275.01,175.01 275.38,173.56 275.71,172.11C276.04,170.66 276.39,169.22 276.67,167.77C276.95,166.33 277.21,164.88 277.38,163.43C277.55,161.99 277.66,160.54 277.67,159.09C277.68,157.64 277.59,156.18 277.41,154.74C277.23,153.29 276.93,151.84 276.58,150.4C276.22,148.94 275.75,147.5 275.27,146.06C274.78,144.6 274.21,143.16 273.65,141.71C273.09,140.26 272.47,138.82 271.9,137.37C271.33,135.93 270.75,134.48 270.21,133.03C269.67,131.59 269.15,130.14 268.66,128.69C268.18,127.25 267.72,125.79 267.3,124.34C266.88,122.9 266.5,121.45 266.15,120C265.8,118.56 265.48,117.11 265.18,115.66C264.88,114.21 264.61,112.76 264.37,111.31C264.13,109.86 263.92,108.42 263.74,106.97C263.56,105.53 263.41,104.08 263.3,102.63C263.2,101.18 263.13,99.73 263.11,98.28C263.09,96.83 263.13,95.39 263.19,93.94C263.25,92.49 263.37,91.05 263.48,89.6C263.59,88.15 263.76,86.71 263.86,85.26C263.97,83.81 264.08,82.36 264.11,80.91C264.14,79.46 264.15,78.02 264.07,76.57C263.99,75.12 263.84,73.67 263.65,72.23C263.46,70.78 263.19,69.33 262.93,67.88C262.66,66.43 262.35,64.99 262.06,63.54C261.78,62.09 261.47,60.65 261.22,59.2C260.97,57.76 260.73,56.31 260.54,54.86Q260.35,53.41 260.06,50.51L258.94,50.51Q258.65,53.41 258.46,54.86C258.27,56.31 258.03,57.76 257.78,59.2C257.53,60.65 257.22,62.09 256.94,63.54C256.65,64.99 256.34,66.43 256.07,67.88C255.81,69.33 255.54,70.78 255.35,72.23C255.16,73.67 255.01,75.12 254.93,76.57C254.85,78.02 254.86,79.46 254.89,80.91C254.92,82.36 255.03,83.81 255.14,85.26C255.24,86.71 255.41,88.15 255.52,89.6C255.63,91.05 255.75,92.49 255.81,93.94C255.87,95.39 255.91,96.83 255.89,98.28C255.87,99.73 255.8,101.18 255.7,102.63C255.59,104.08 255.44,105.53 255.26,106.97C255.08,108.42 254.87,109.86 254.63,111.31C254.39,112.76 254.12,114.21 253.82,115.66C253.52,117.11 253.2,118.56 252.85,120C252.5,121.45 252.12,122.9 251.7,124.34C251.28,125.79 250.82,127.25 250.34,128.69C249.85,130.14 249.33,131.59 248.79,133.03C248.25,134.48 247.67,135.93 247.1,137.37C246.53,138.82 245.91,140.26 245.35,141.71C244.79,143.16 244.22,144.6 243.73,146.06C243.25,147.5 242.78,148.94 242.42,150.4C242.07,151.84 241.77,153.29 241.59,154.74C241.41,156.18 241.32,157.64 241.33,159.09C241.34,160.54 241.45,161.99 241.62,163.43C241.79,164.88 242.05,166.33 242.33,167.77C242.61,169.22 242.96,170.66 243.29,172.11C243.62,173.56 243.99,175.01 244.33,176.46C244.67,177.91 245.01,179.35 245.34,180.8C245.66,182.25 245.97,183.69 246.28,185.14C246.58,186.59 246.87,188.04 247.17,189.49C247.46,190.94 247.74,192.38 248.05,193.83C248.36,195.28 248.68,196.72 249.01,198.17C249.34,199.62 249.69,201.06 250.05,202.51C250.41,203.96 250.79,205.41 251.15,206.86C251.51,208.31 251.89,209.75 252.23,211.2C252.57,212.64 252.91,214.09 253.21,215.54C253.51,216.99 253.78,218.44 254.04,219.89C254.29,221.34 254.52,222.78 254.74,224.23C254.96,225.68 255.15,227.12 255.35,228.57C255.55,230.02 255.73,231.46 255.92,232.91C256.11,234.36 256.29,235.81 256.47,237.26C256.65,238.71 256.82,240.15 256.99,241.6C257.16,243.05 257.32,244.49 257.47,245.94C257.62,247.39 257.76,248.84 257.88,250.29C258,251.74 258.11,253.18 258.21,254.63C258.3,256.08 258.38,257.52 258.45,258.97C258.52,260.42 258.58,261.86 258.63,263.31C258.68,264.76 258.72,266.21 258.76,267.66C258.79,269.11 258.82,270.55 258.84,272C258.86,273.45 258.88,274.89 258.89,276.34C258.9,277.79 258.9,279.24 258.88,280.69C258.86,282.14 258.83,283.58 258.77,285.03C258.71,286.48 258.64,287.92 258.53,289.37C258.42,290.82 258.28,292.27 258.12,293.72C257.95,295.17 257.75,296.61 257.54,298.06C257.33,299.51 257.08,300.95 256.85,302.4C256.63,303.85 256.38,305.29 256.19,306.74C256,308.19 255.82,309.64 255.72,311.09C255.62,312.54 255.57,313.98 255.59,315.43C255.61,316.88 255.72,318.32 255.86,319.77C256,321.22 256.22,322.67 256.44,324.12C256.66,325.57 256.94,327.01 257.19,328.46C257.44,329.91 257.71,331.35 257.94,332.8C258.17,334.24 258.38,335.69 258.55,337.14Q258.72,338.59 258.98,341.49Z" style="vector-effect: non-scaling-stroke; stroke-width: 2px; stroke: rgb(31, 119, 180); stroke-opacity: 1; fill: rgb(31, 119, 180); fill-opacity: 0.5;"/><path class="violin" d="M333.78,359.77Q333.84,354.92 333.88,352.49C333.92,350.06 333.98,347.64 334.04,345.21C334.1,342.79 334.16,340.36 334.22,337.94C334.28,335.51 334.35,333.09 334.41,330.66C334.47,328.23 334.52,325.81 334.56,323.38C334.59,320.95 334.62,318.53 334.62,316.1C334.62,313.67 334.61,311.25 334.58,308.82C334.55,306.39 334.5,303.97 334.45,301.54C334.4,299.11 334.33,296.69 334.27,294.26C334.21,291.83 334.15,289.41 334.09,286.98C334.03,284.56 333.97,282.13 333.93,279.71C333.89,277.28 333.85,274.86 333.83,272.43C333.81,270 333.8,267.58 333.8,265.15C333.8,262.72 333.82,260.3 333.85,257.87C333.88,255.44 333.92,253.02 333.98,250.59C334.04,248.16 334.13,245.74 334.23,243.31C334.33,240.88 334.45,238.46 334.59,236.03C334.74,233.6 334.91,231.17 335.1,228.75C335.29,226.32 335.51,223.9 335.74,221.48C335.98,219.05 336.24,216.63 336.51,214.2C336.78,211.77 337.07,209.35 337.37,206.92C337.67,204.49 337.98,202.07 338.29,199.64C338.6,197.21 338.92,194.79 339.22,192.36C339.52,189.93 339.81,187.51 340.09,185.08C340.37,182.65 340.64,180.23 340.9,177.8C341.15,175.37 341.39,172.95 341.62,170.52C341.85,168.1 342.07,165.67 342.29,163.25C342.51,160.82 342.72,158.4 342.94,155.97C343.16,153.54 343.39,151.12 343.61,148.69C343.83,146.26 344.06,143.84 344.28,141.41C344.5,138.98 344.72,136.56 344.94,134.13C345.15,131.7 345.36,129.28 345.57,126.85C345.78,124.42 345.98,122 346.19,119.57C346.4,117.14 346.61,114.72 346.82,112.29C347.03,109.87 347.26,107.44 347.46,105.02C347.66,102.59 347.87,100.17 348,97.74C348.13,95.31 348.25,92.89 348.23,90.46C348.21,88.03 348.12,85.6 347.88,83.18C347.64,80.75 347.25,78.31 346.76,75.9C346.26,73.46 345.59,71.04 344.89,68.62C344.18,66.18 343.33,63.76 342.52,61.34C341.71,58.91 340.83,56.49 340.05,54.06C339.27,51.64 338.5,49.22 337.85,46.79C337.2,44.37 336.63,41.95 336.15,39.51Q335.68,37.09 334.99,32.23L332.29,32.23Q331.61,37.09 331.14,39.51C330.66,41.95 330.08,44.37 329.43,46.79C328.78,49.22 328.01,51.64 327.23,54.06C326.45,56.49 325.57,58.91 324.76,61.34C323.96,63.76 323.11,66.18 322.4,68.62C321.7,71.04 321.03,73.46 320.53,75.9C320.03,78.31 319.65,80.75 319.4,83.18C319.15,85.6 319.07,88.03 319.05,90.46C319.03,92.89 319.15,95.31 319.28,97.74C319.41,100.17 319.63,102.59 319.83,105.02C320.03,107.44 320.26,109.87 320.47,112.29C320.68,114.72 320.89,117.14 321.1,119.57C321.31,122 321.51,124.42 321.72,126.85C321.93,129.28 322.14,131.7 322.35,134.13C322.57,136.56 322.79,138.98 323.01,141.41C323.23,143.84 323.46,146.26 323.68,148.69C323.9,151.12 324.12,153.54 324.34,155.97C324.56,158.4 324.77,160.82 324.99,163.25C325.21,165.67 325.43,168.1 325.66,170.52C325.89,172.95 326.14,175.37 326.39,177.8C326.65,180.23 326.91,182.65 327.19,185.08C327.47,187.51 327.77,189.93 328.07,192.36C328.37,194.79 328.68,197.21 328.99,199.64C329.3,202.07 329.61,204.49 329.91,206.92C330.21,209.35 330.51,211.77 330.78,214.2C331.05,216.63 331.3,219.05 331.54,221.48C331.77,223.9 332,226.32 332.19,228.75C332.38,231.17 332.54,233.6 332.69,236.03C332.83,238.46 332.96,240.88 333.06,243.31C333.16,245.74 333.24,248.16 333.3,250.59C333.36,253.02 333.41,255.44 333.44,257.87C333.47,260.3 333.48,262.72 333.48,265.15C333.48,267.58 333.47,270 333.45,272.43C333.43,274.86 333.39,277.28 333.35,279.71C333.31,282.13 333.26,284.56 333.2,286.98C333.14,289.41 333.07,291.83 333.01,294.26C332.95,296.69 332.88,299.11 332.83,301.54C332.78,303.97 332.73,306.39 332.7,308.82C332.67,311.25 332.67,313.67 332.67,316.1C332.67,318.53 332.7,320.95 332.73,323.38C332.76,325.81 332.82,328.23 332.87,330.66C332.93,333.09 333,335.51 333.06,337.94C333.12,340.36 333.19,342.79 333.25,345.21C333.31,347.64 333.36,350.06 333.4,352.49Q333.44,354.92 333.51,359.77Z" style="vector-effect: non-scaling-stroke; stroke-width: 2px; stroke: rgb(31, 119, 180); stroke-opacity: 1; fill: rgb(31, 119, 180); fill-opacity: 0.5;"/><path class="violin" d="M408.46,365.47Q408.8,359.96 409.02,357.21C409.25,354.45 409.52,351.7 409.81,348.94C410.1,346.18 410.45,343.43 410.77,340.67C411.09,337.92 411.45,335.17 411.74,332.41C412.03,329.66 412.32,326.9 412.5,324.14C412.68,321.39 412.81,318.63 412.84,315.87C412.87,313.12 412.81,310.36 412.7,307.61C412.59,304.85 412.37,302.1 412.16,299.34C411.95,296.58 411.67,293.83 411.45,291.07C411.23,288.31 410.99,285.56 410.83,282.8C410.67,280.05 410.54,277.29 410.48,274.54C410.42,271.78 410.43,269.03 410.5,266.27C410.57,263.51 410.71,260.75 410.88,258C411.06,255.24 411.29,252.49 411.55,249.74C411.81,246.98 412.11,244.23 412.43,241.47C412.75,238.71 413.1,235.96 413.45,233.2C413.8,230.44 414.18,227.69 414.54,224.93C414.9,222.18 415.29,219.43 415.63,216.67C415.97,213.92 416.31,211.16 416.6,208.4C416.89,205.65 417.15,202.89 417.36,200.13C417.56,197.38 417.73,194.63 417.83,191.87C417.93,189.12 417.97,186.36 417.97,183.6C417.97,180.84 417.9,178.09 417.8,175.33C417.7,172.58 417.56,169.82 417.39,167.07C417.22,164.31 417.01,161.56 416.79,158.8C416.57,156.04 416.31,153.29 416.05,150.53C415.79,147.77 415.5,145.02 415.23,142.26C414.96,139.51 414.67,136.75 414.41,134C414.15,131.24 413.89,128.49 413.68,125.73C413.47,122.97 413.28,120.22 413.15,117.46C413.02,114.71 412.93,111.95 412.88,109.2C412.83,106.44 412.85,103.69 412.87,100.93C412.89,98.17 412.95,95.42 412.98,92.66C413,89.9 413.05,87.15 413.02,84.39C412.99,81.64 412.93,78.88 412.81,76.13C412.68,73.37 412.49,70.61 412.27,67.86C412.04,65.1 411.75,62.34 411.46,59.59C411.17,56.83 410.82,54.08 410.51,51.33C410.2,48.57 409.89,45.82 409.62,43.06C409.35,40.3 409.1,37.55 408.89,34.79Q408.69,32.04 408.39,26.53L407.18,26.53Q406.88,32.04 406.68,34.79C406.48,37.55 406.23,40.3 405.96,43.06C405.69,45.82 405.37,48.57 405.06,51.33C404.75,54.08 404.4,56.83 404.11,59.59C403.82,62.34 403.53,65.1 403.3,67.86C403.08,70.61 402.89,73.37 402.76,76.13C402.64,78.88 402.58,81.64 402.55,84.39C402.52,87.15 402.57,89.9 402.59,92.66C402.62,95.42 402.68,98.17 402.7,100.93C402.72,103.69 402.74,106.44 402.69,109.2C402.64,111.95 402.55,114.71 402.42,117.46C402.29,120.22 402.1,122.97 401.89,125.73C401.68,128.49 401.42,131.24 401.16,134C400.9,136.75 400.61,139.51 400.34,142.26C400.07,145.02 399.78,147.77 399.52,150.53C399.26,153.29 399,156.04 398.78,158.8C398.56,161.56 398.35,164.31 398.18,167.07C398.01,169.82 397.86,172.58 397.77,175.33C397.67,178.09 397.61,180.84 397.61,183.6C397.61,186.36 397.65,189.12 397.75,191.87C397.85,194.63 398.01,197.38 398.21,200.13C398.41,202.89 398.68,205.65 398.97,208.4C399.26,211.16 399.61,213.92 399.95,216.67C400.29,219.43 400.67,222.18 401.03,224.93C401.39,227.69 401.77,230.44 402.12,233.2C402.47,235.96 402.83,238.71 403.15,241.47C403.47,244.23 403.77,246.98 404.03,249.74C404.29,252.49 404.52,255.24 404.69,258C404.86,260.75 405,263.51 405.07,266.27C405.14,269.03 405.15,271.78 405.09,274.54C405.03,277.29 404.9,280.05 404.74,282.8C404.58,285.56 404.34,288.31 404.12,291.07C403.9,293.83 403.62,296.58 403.41,299.34C403.2,302.1 402.98,304.85 402.87,307.61C402.76,310.36 402.7,313.12 402.73,315.87C402.76,318.63 402.89,321.39 403.07,324.14C403.25,326.9 403.54,329.66 403.83,332.41C404.12,335.17 404.48,337.92 404.8,340.67C405.12,343.43 405.47,346.18 405.76,348.94C406.05,351.7 406.32,354.45 406.55,357.21Q406.77,359.96 407.11,365.47Z" style="vector-effect: non-scaling-stroke; stroke-width: 2px; stroke: rgb(31, 119, 180); stroke-opacity: 1; fill: rgb(31, 119, 180); fill-opacity: 0.5;"/><path class="violin" d="M482.23,355.37Q482.38,350.94 482.48,348.73C482.58,346.51 482.7,344.3 482.83,342.08C482.96,339.87 483.12,337.65 483.26,335.44C483.4,333.23 483.55,331.01 483.68,328.8C483.8,326.59 483.93,324.37 484.01,322.16C484.09,319.95 484.13,317.73 484.14,315.52C484.15,313.31 484.11,311.09 484.05,308.88C483.99,306.67 483.87,304.45 483.76,302.24C483.65,300.03 483.51,297.81 483.38,295.6C483.25,293.39 483.11,291.17 483,288.96C482.89,286.75 482.79,284.53 482.72,282.32C482.65,280.11 482.6,277.89 482.58,275.68C482.56,273.47 482.57,271.25 482.59,269.04C482.61,266.83 482.66,264.61 482.72,262.4C482.79,260.19 482.88,257.97 482.98,255.76C483.09,253.55 483.21,251.33 483.35,249.12C483.49,246.91 483.65,244.69 483.84,242.48C484.03,240.27 484.25,238.05 484.51,235.84C484.77,233.62 485.05,231.41 485.38,229.2C485.71,226.98 486.08,224.77 486.48,222.56C486.88,220.34 487.33,218.13 487.78,215.92C488.24,213.7 488.74,211.49 489.21,209.28C489.68,207.07 490.17,204.86 490.62,202.64C491.07,200.43 491.5,198.22 491.89,196C492.27,193.79 492.63,191.58 492.93,189.36C493.23,187.15 493.48,184.94 493.69,182.72C493.89,180.51 494.05,178.29 494.16,176.08C494.27,173.87 494.34,171.65 494.35,169.44C494.36,167.23 494.32,165.01 494.23,162.8C494.14,160.59 493.99,158.37 493.81,156.16C493.63,153.95 493.39,151.73 493.15,149.52C492.9,147.31 492.61,145.09 492.34,142.88C492.06,140.67 491.76,138.45 491.5,136.24C491.24,134.03 490.98,131.81 490.76,129.6C490.54,127.39 490.35,125.17 490.2,122.96C490.06,120.75 489.95,118.53 489.89,116.32C489.83,114.11 489.82,111.89 489.85,109.68C489.88,107.47 489.96,105.25 490.06,103.04C490.16,100.83 490.32,98.61 490.44,96.4C490.56,94.19 490.71,91.97 490.77,89.76C490.83,87.55 490.89,85.33 490.83,83.12C490.77,80.91 490.64,78.69 490.4,76.48C490.16,74.26 489.81,72.05 489.41,69.84C489.01,67.62 488.48,65.41 487.98,63.2C487.47,60.98 486.89,58.78 486.38,56.56C485.87,54.35 485.35,52.14 484.9,49.92C484.46,47.71 484.05,45.49 483.71,43.27Q483.38,41.06 482.89,36.63L480.97,36.63Q480.48,41.06 480.15,43.27C479.81,45.49 479.41,47.71 478.96,49.92C478.51,52.14 477.98,54.35 477.47,56.56C476.96,58.78 476.38,60.98 475.88,63.2C475.38,65.41 474.85,67.62 474.45,69.84C474.05,72.05 473.7,74.26 473.46,76.48C473.22,78.69 473.09,80.91 473.03,83.12C472.97,85.33 473.02,87.55 473.08,89.76C473.14,91.97 473.3,94.19 473.42,96.4C473.54,98.61 473.69,100.83 473.79,103.04C473.89,105.25 473.98,107.47 474.01,109.68C474.04,111.89 474.03,114.11 473.97,116.32C473.91,118.53 473.79,120.75 473.65,122.96C473.5,125.17 473.31,127.39 473.1,129.6C472.88,131.81 472.62,134.03 472.36,136.24C472.1,138.45 471.8,140.67 471.52,142.88C471.25,145.09 470.96,147.31 470.71,149.52C470.46,151.73 470.22,153.94 470.04,156.16C469.86,158.37 469.72,160.59 469.63,162.8C469.54,165.01 469.5,167.23 469.51,169.44C469.52,171.65 469.58,173.87 469.69,176.08C469.8,178.29 469.96,180.51 470.17,182.72C470.38,184.94 470.63,187.15 470.93,189.36C471.23,191.58 471.59,193.79 471.97,196C472.36,198.22 472.79,200.43 473.24,202.64C473.69,204.86 474.18,207.07 474.65,209.28C475.12,211.49 475.62,213.7 476.08,215.92C476.53,218.13 476.98,220.34 477.38,222.56C477.78,224.77 478.15,226.98 478.48,229.2C478.81,231.41 479.09,233.62 479.35,235.84C479.6,238.05 479.82,240.27 480.01,242.48C480.2,244.69 480.36,246.91 480.51,249.12C480.65,251.33 480.78,253.55 480.88,255.76C480.98,257.97 481.06,260.19 481.13,262.4C481.19,264.61 481.25,266.83 481.27,269.04C481.29,271.25 481.3,273.47 481.28,275.68C481.26,277.89 481.21,280.11 481.14,282.32C481.07,284.53 480.97,286.75 480.86,288.96C480.75,291.17 480.61,293.39 480.48,295.6C480.35,297.81 480.2,300.03 480.09,302.24C479.98,304.45 479.87,306.67 479.81,308.88C479.75,311.09 479.7,313.31 479.71,315.52C479.72,317.73 479.77,319.95 479.85,322.16C479.93,324.37 480.05,326.59 480.17,328.8C480.3,331.01 480.46,333.23 480.6,335.44C480.74,337.65 480.9,339.87 481.03,342.08C481.16,344.3 481.28,346.51 481.38,348.73Q481.48,350.94 481.63,355.37Z" style="vector-effect: non-scaling-stroke; stroke-width: 2px; stroke: rgb(31, 119, 180); stroke-opacity: 1; fill: rgb(31, 119, 180); fill-opacity: 0.5;"/><path class="box" d="M32.53,136.41H41.61M32.53,172.16H41.61V91.6H32.53ZM37.07,172.16V281.1M37.07,91.6V76.82" style="vector-effect: non-scaling-stroke; stroke-width: 2px; stroke: rgb(31, 119, 180); stroke-opacity: 1; fill: rgb(31, 119, 180); fill-opacity: 0.5;"/><path class="box" d="M106.67,137.36H115.76M106.67,185.99H115.76V76.82H106.67ZM111.21,185.99V315.18M111.21,76.82V76.82" style="vector-effect: non-scaling-stroke; stroke-width: 2px; stroke: rgb(31, 119, 180); stroke-opacity: 1; fill: rgb(31, 119, 180); fill-opacity: 0.5;"/><path class="box" d="M180.82,163.58H189.9M180.82,196H189.9V112.16H180.82ZM185.36,196V315.18M185.36,112.16V76.82" style="vector-effect: non-scaling-stroke; stroke-width: 2px; stroke: rgb(31, 119, 180); stroke-opacity: 1; fill: rgb(31, 119, 180); fill-opacity: 0.5;"/><path class="box" d="M254.96,163.58H264.04M254.96,196H264.04V141.36H254.96ZM259.5,196V275.37M259.5,141.36V76.82" style="vector-effect: non-scaling-stroke; stroke-width: 2px; stroke: rgb(31, 119, 180); stroke-opacity: 1; fill: rgb(31, 119, 180); fill-opacity: 0.5;"/><path class="box" d="M329.1,120.32H338.18M329.1,156.19H338.18V76.82H329.1ZM333.64,156.19V217.93M333.64,76.82V76.82" style="vector-effect: non-scaling-stroke; stroke-width: 2px; stroke: rgb(31, 119, 180); stroke-opacity: 1; fill: rgb(31, 119, 180); fill-opacity: 0.5;"/><path class="box" d="M403.24,184.68H412.33M403.24,234.02H412.33V137.84H403.24ZM407.79,234.02V315.18M407.79,137.84V76.82" style="vector-effect: non-scaling-stroke; stroke-width: 2px; stroke: rgb(31, 119, 180); stroke-opacity: 1; fill: rgb(31, 119, 180); fill-opacity: 0.5;"/><path class="box" d="M477.39,156.19H486.47M477.39,193.97H486.47V106.61H477.39ZM481.93,193.97V315.18M481.93,106.61V76.82" style="vector-effect: non-scaling-stroke; stroke-width: 2px; stroke: rgb(31, 119, 180); stroke-opacity: 1; fill: rgb(31, 119, 180); fill-opacity: 0.5;"/><path class="mean" d="M32.53,141.59H41.61" style="fill: none; vector-effect: non-scaling-stroke; stroke-width: 2px; stroke-dasharray: 4px, 2px; stroke: rgb(31, 119, 180); stroke-opacity: 1;"/><path class="mean" d="M106.67,150.63H115.76" style="fill: none; vector-effect: non-scaling-stroke; stroke-width: 2px; stroke-dasharray: 4px, 2px; stroke: rgb(31, 119, 180); stroke-opacity: 1;"/><path class="mean" d="M180.82,162.35H189.9" style="fill: none; vector-effect: non-scaling-stroke; stroke-width: 2px; stroke-dasharray: 4px, 2px; stroke: rgb(31, 119, 180); stroke-opacity: 1;"/><path class="mean" d="M254.96,172.31H264.04" style="fill: none; vector-effect: non-scaling-stroke; stroke-width: 2px; stroke-dasharray: 4px, 2px; stroke: rgb(31, 119, 180); stroke-opacity: 1;"/><path class="mean" d="M329.1,127.14H338.18" style="fill: none; vector-effect: non-scaling-stroke; stroke-width: 2px; stroke-dasharray: 4px, 2px; stroke: rgb(31, 119, 180); stroke-opacity: 1;"/><path class="mean" d="M403.24,188.89H412.33" style="fill: none; vector-effect: non-scaling-stroke; stroke-width: 2px; stroke-dasharray: 4px, 2px; stroke: rgb(31, 119, 180); stroke-opacity: 1;"/><path class="mean" d="M477.39,155.88H486.47" style="fill: none; vector-effect: non-scaling-stroke; stroke-width: 2px; stroke-dasharray: 4px, 2px; stroke: rgb(31, 119, 180); stroke-opacity: 1;"/><g class="points"><path class="point" transform="translate(37.07,315.18)" d="M3,0A3,3 0 1,1 0,-3A3,3 0 0,1 3,0Z" style="opacity: 1; stroke-width: 0px; fill: rgb(31, 119, 180); fill-opacity: 1;"/><path class="point" transform="translate(37.07,315.18)" d="M3,0A3,3 0 1,1 0,-3A3,3 0 0,1 3,0Z" style="opacity: 1; stroke-width: 0px; fill: rgb(31, 119, 180); fill-opacity: 1;"/><path class="point" transform="translate(37.07,315.18)" d="M3,0A3,3 0 1,1 0,-3A3,3 0 0,1 3,0Z" style="opacity: 1; stroke-width: 0px; fill: rgb(31, 119, 180); fill-opacity: 1;"/><path class="point" transform="translate(37.07,315.18)" d="M3,0A3,3 0 1,1 0,-3A3,3 0 0,1 3,0Z" style="opacity: 1; stroke-width: 0px; fill: rgb(31, 119, 180); fill-opacity: 1;"/><path class="point" transform="translate(37.07,315.18)" d="M3,0A3,3 0 1,1 0,-3A3,3 0 0,1 3,0Z" style="opacity: 1; stroke-width: 0px; fill: rgb(31, 119, 180); fill-opacity: 1;"/><path class="point" transform="translate(37.07,315.18)" d="M3,0A3,3 0 1,1 0,-3A3,3 0 0,1 3,0Z" style="opacity: 1; stroke-width: 0px; fill: rgb(31, 119, 180); fill-opacity: 1;"/><path class="point" transform="translate(37.07,315.18)" d="M3,0A3,3 0 1,1 0,-3A3,3 0 0,1 3,0Z" style="opacity: 1; stroke-width: 0px; fill: rgb(31, 119, 180); fill-opacity: 1;"/><path class="point" transform="translate(37.07,315.18)" d="M3,0A3,3 0 1,1 0,-3A3,3 0 0,1 3,0Z" style="opacity: 1; stroke-width: 0px; fill: rgb(31, 119, 180); fill-opacity: 1;"/><path class="point" transform="translate(37.07,315.18)" d="M3,0A3,3 0 1,1 0,-3A3,3 0 0,1 3,0Z" style="opacity: 1; stroke-width: 0px; fill: rgb(31, 119, 180); fill-opacity: 1;"/><path class="point" transform="translate(37.07,315.18)" d="M3,0A3,3 0 1,1 0,-3A3,3 0 0,1 3,0Z" style="opacity: 1; stroke-width: 0px; fill: rgb(31, 119, 180); fill-opacity: 1;"/><path class="point" transform="translate(37.07,315.18)" d="M3,0A3,3 0 1,1 0,-3A3,3 0 0,1 3,0Z" style="opacity: 1; stroke-width: 0px; fill: rgb(31, 119, 180); fill-opacity: 1;"/><path class="point" transform="translate(37.07,315.18)" d="M3,0A3,3 0 1,1 0,-3A3,3 0 0,1 3,0Z" style="opacity: 1; stroke-width: 0px; fill: rgb(31, 119, 180); fill-opacity: 1;"/><path class="point" transform="translate(37.07,315.18)" d="M3,0A3,3 0 1,1 0,-3A3,3 0 0,1 3,0Z" style="opacity: 1; stroke-width: 0px; fill: rgb(31, 119, 180); fill-opacity: 1;"/><path class="point" transform="translate(37.07,315.18)" d="M3,0A3,3 0 1,1 0,-3A3,3 0 0,1 3,0Z" style="opacity: 1; stroke-width: 0px; fill: rgb(31, 119, 180); fill-opacity: 1;"/><path class="point" transform="translate(37.07,315.18)" d="M3,0A3,3 0 1,1 0,-3A3,3 0 0,1 3,0Z" style="opacity: 1; stroke-width: 0px; fill: rgb(31, 119, 180); fill-opacity: 1;"/><path class="point" transform="translate(37.07,315.18)" d="M3,0A3,3 0 1,1 0,-3A3,3 0 0,1 3,0Z" style="opacity: 1; stroke-width: 0px; fill: rgb(31, 119, 180); fill-opacity: 1;"/><path class="point" transform="translate(37.07,315.18)" d="M3,0A3,3 0 1,1 0,-3A3,3 0 0,1 3,0Z" style="opacity: 1; stroke-width: 0px; fill: rgb(31, 119, 180); fill-opacity: 1;"/><path class="point" transform="translate(37.07,315.18)" d="M3,0A3,3 0 1,1 0,-3A3,3 0 0,1 3,0Z" style="opacity: 1; stroke-width: 0px; fill: rgb(31, 119, 180); fill-opacity: 1;"/><path class="point" transform="translate(37.07,315.18)" d="M3,0A3,3 0 1,1 0,-3A3,3 0 0,1 3,0Z" style="opacity: 1; stroke-width: 0px; fill: rgb(31, 119, 180); fill-opacity: 1;"/><path class="point" transform="translate(37.07,315.18)" d="M3,0A3,3 0 1,1 0,-3A3,3 0 0,1 3,0Z" style="opacity: 1; stroke-width: 0px; fill: rgb(31, 119, 180); fill-opacity: 1;"/><path class="point" transform="translate(37.07,315.18)" d="M3,0A3,3 0 1,1 0,-3A3,3 0 0,1 3,0Z" style="opacity: 1; stroke-width: 0px; fill: rgb(31, 119, 180); fill-opacity: 1;"/><path class="point" transform="translate(37.07,315.18)" d="M3,0A3,3 0 1,1 0,-3A3,3 0 0,1 3,0Z" style="opacity: 1; stroke-width: 0px; fill: rgb(31, 119, 180); fill-opacity: 1;"/><path class="point" transform="translate(37.07,315.18)" d="M3,0A3,3 0 1,1 0,-3A3,3 0 0,1 3,0Z" style="opacity: 1; stroke-width: 0px; fill: rgb(31, 119, 180); fill-opacity: 1;"/><path class="point" transform="translate(37.07,315.18)" d="M3,0A3,3 0 1,1 0,-3A3,3 0 0,1 3,0Z" style="opacity: 1; stroke-width: 0px; fill: rgb(31, 119, 180); fill-opacity: 1;"/><path class="point" transform="translate(37.07,315.18)" d="M3,0A3,3 0 1,1 0,-3A3,3 0 0,1 3,0Z" style="opacity: 1; stroke-width: 0px; fill: rgb(31, 119, 180); fill-opacity: 1;"/><path class="point" transform="translate(37.07,315.18)" d="M3,0A3,3 0 1,1 0,-3A3,3 0 0,1 3,0Z" style="opacity: 1; stroke-width: 0px; fill: rgb(31, 119, 180); fill-opacity: 1;"/></g><g class="points"/><g class="points"/><g class="points"><path class="point" transform="translate(259.5,315.18)" d="M3,0A3,3 0 1,1 0,-3A3,3 0 0,1 3,0Z" style="opacity: 1; stroke-width: 0px; fill: rgb(31, 119, 180); fill-opacity: 1;"/><path class="point" transform="translate(259.5,315.18)" d="M3,0A3,3 0 1,1 0,-3A3,3 0 0,1 3,0Z" style="opacity: 1; stroke-width: 0px; fill: rgb(31, 119, 180); fill-opacity: 1;"/><path class="point" transform="translate(259.5,315.18)" d="M3,0A3,3 0 1,1 0,-3A3,3 0 0,1 3,0Z" style="opacity: 1; stroke-width: 0px; fill: rgb(31, 119, 180); fill-opacity: 1;"/><path class="point" transform="translate(259.5,315.18)" d="M3,0A3,3 0 1,1 0,-3A3,3 0 0,1 3,0Z" style="opacity: 1; stroke-width: 0px; fill: rgb(31, 119, 180); fill-opacity: 1;"/><path class="point" transform="translate(259.5,315.18)" d="M3,0A3,3 0 1,1 0,-3A3,3 0 0,1 3,0Z" style="opacity: 1; stroke-width: 0px; fill: rgb(31, 119, 180); fill-opacity: 1;"/><path class="point" transform="translate(259.5,315.18)" d="M3,0A3,3 0 1,1 0,-3A3,3 0 0,1 3,0Z" style="opacity: 1; stroke-width: 0px; fill: rgb(31, 119, 180); fill-opacity: 1;"/><path class="point" transform="translate(259.5,315.18)" d="M3,0A3,3 0 1,1 0,-3A3,3 0 0,1 3,0Z" style="opacity: 1; stroke-width: 0px; fill: rgb(31, 119, 180); fill-opacity: 1;"/><path class="point" transform="translate(259.5,315.18)" d="M3,0A3,3 0 1,1 0,-3A3,3 0 0,1 3,0Z" style="opacity: 1; stroke-width: 0px; fill: rgb(31, 119, 180); fill-opacity: 1;"/><path class="point" transform="translate(259.5,315.18)" d="M3,0A3,3 0 1,1 0,-3A3,3 0 0,1 3,0Z" style="opacity: 1; stroke-width: 0px; fill: rgb(31, 119, 180); fill-opacity: 1;"/><path class="point" transform="translate(259.5,315.18)" d="M3,0A3,3 0 1,1 0,-3A3,3 0 0,1 3,0Z" style="opacity: 1; stroke-width: 0px; fill: rgb(31, 119, 180); fill-opacity: 1;"/><path class="point" transform="translate(259.5,315.18)" d="M3,0A3,3 0 1,1 0,-3A3,3 0 0,1 3,0Z" style="opacity: 1; stroke-width: 0px; fill: rgb(31, 119, 180); fill-opacity: 1;"/><path class="point" transform="translate(259.5,315.18)" d="M3,0A3,3 0 1,1 0,-3A3,3 0 0,1 3,0Z" style="opacity: 1; stroke-width: 0px; fill: rgb(31, 119, 180); fill-opacity: 1;"/><path class="point" transform="translate(259.5,315.18)" d="M3,0A3,3 0 1,1 0,-3A3,3 0 0,1 3,0Z" style="opacity: 1; stroke-width: 0px; fill: rgb(31, 119, 180); fill-opacity: 1;"/><path class="point" transform="translate(259.5,315.18)" d="M3,0A3,3 0 1,1 0,-3A3,3 0 0,1 3,0Z" style="opacity: 1; stroke-width: 0px; fill: rgb(31, 119, 180); fill-opacity: 1;"/><path class="point" transform="translate(259.5,315.18)" d="M3,0A3,3 0 1,1 0,-3A3,3 0 0,1 3,0Z" style="opacity: 1; stroke-width: 0px; fill: rgb(31, 119, 180); fill-opacity: 1;"/><path class="point" transform="translate(259.5,315.18)" d="M3,0A3,3 0 1,1 0,-3A3,3 0 0,1 3,0Z" style="opacity: 1; stroke-width: 0px; fill: rgb(31, 119, 180); fill-opacity: 1;"/><path class="point" transform="translate(259.5,315.18)" d="M3,0A3,3 0 1,1 0,-3A3,3 0 0,1 3,0Z" style="opacity: 1; stroke-width: 0px; fill: rgb(31, 119, 180); fill-opacity: 1;"/><path class="point" transform="translate(259.5,315.18)" d="M3,0A3,3 0 1,1 0,-3A3,3 0 0,1 3,0Z" style="opacity: 1; stroke-width: 0px; fill: rgb(31, 119, 180); fill-opacity: 1;"/><path class="point" transform="translate(259.5,315.18)" d="M3,0A3,3 0 1,1 0,-3A3,3 0 0,1 3,0Z" style="opacity: 1; stroke-width: 0px; fill: rgb(31, 119, 180); fill-opacity: 1;"/><path class="point" transform="translate(259.5,315.18)" d="M3,0A3,3 0 1,1 0,-3A3,3 0 0,1 3,0Z" style="opacity: 1; stroke-width: 0px; fill: rgb(31, 119, 180); fill-opacity: 1;"/><path class="point" transform="translate(259.5,315.18)" d="M3,0A3,3 0 1,1 0,-3A3,3 0 0,1 3,0Z" style="opacity: 1; stroke-width: 0px; fill: rgb(31, 119, 180); fill-opacity: 1;"/><path class="point" transform="translate(259.5,315.18)" d="M3,0A3,3 0 1,1 0,-3A3,3 0 0,1 3,0Z" style="opacity: 1; stroke-width: 0px; fill: rgb(31, 119, 180); fill-opacity: 1;"/><path class="point" transform="translate(259.5,315.18)" d="M3,0A3,3 0 1,1 0,-3A3,3 0 0,1 3,0Z" style="opacity: 1; stroke-width: 0px; fill: rgb(31, 119, 180); fill-opacity: 1;"/><path class="point" transform="translate(259.5,315.18)" d="M3,0A3,3 0 1,1 0,-3A3,3 0 0,1 3,0Z" style="opacity: 1; stroke-width: 0px; fill: rgb(31, 119, 180); fill-opacity: 1;"/><path class="point" transform="translate(259.5,315.18)" d="M3,0A3,3 0 1,1 0,-3A3,3 0 0,1 3,0Z" style="opacity: 1; stroke-width: 0px; fill: rgb(31, 119, 180); fill-opacity: 1;"/><path class="point" transform="translate(259.5,315.18)" d="M3,0A3,3 0 1,1 0,-3A3,3 0 0,1 3,0Z" style="opacity: 1; stroke-width: 0px; fill: rgb(31, 119, 180); fill-opacity: 1;"/><path class="point" transform="translate(259.5,299.21)" d="M3,0A3,3 0 1,1 0,-3A3,3 0 0,1 3,0Z" style="opacity: 1; stroke-width: 0px; fill: rgb(31, 119, 180); fill-opacity: 1;"/><path class="point" transform="translate(259.5,291.34)" d="M3,0A3,3 0 1,1 0,-3A3,3 0 0,1 3,0Z" style="opacity: 1; stroke-width: 0px; fill: rgb(31, 119, 180); fill-opacity: 1;"/></g><g class="points"><path class="point" transform="translate(333.64,315.18)" d="M3,0A3,3 0 1,1 0,-3A3,3 0 0,1 3,0Z" style="opacity: 1; stroke-width: 0px; fill: rgb(31, 119, 180); fill-opacity: 1;"/><path class="point" transform="translate(333.64,315.18)" d="M3,0A3,3 0 1,1 0,-3A3,3 0 0,1 3,0Z" style="opacity: 1; stroke-width: 0px; fill: rgb(31, 119, 180); fill-opacity: 1;"/><path class="point" transform="translate(333.64,315.18)" d="M3,0A3,3 0 1,1 0,-3A3,3 0 0,1 3,0Z" style="opacity: 1; stroke-width: 0px; fill: rgb(31, 119, 180); fill-opacity: 1;"/></g><g class="points"/><g class="points"/></g></g></g><g class="overplot"/><path class="xlines-above crisp" d="M0,0" style="fill: none;"/><path class="ylines-above crisp" d="M0,0" style="fill: none;"/><g class="overlines-above"/><g class="xaxislayer-above"><g class="xtick"><text text-anchor="middle" x="0" y="455" transform="translate(89.07,0)" style="font-family: 'Open Sans', verdana, arial, sans-serif; font-size: 12px; fill: rgb(68, 68, 68); fill-opacity: 1; white-space: pre; opacity: 1;">공학계열</text></g><g class="xtick"><text text-anchor="middle" x="0" y="455" transform="translate(163.20999999999998,0)" style="font-family: 'Open Sans', verdana, arial, sans-serif; font-size: 12px; fill: rgb(68, 68, 68); fill-opacity: 1; white-space: pre; opacity: 1;">교육계열</text></g><g class="xtick"><text text-anchor="middle" x="0" y="455" transform="translate(237.36,0)" style="font-family: 'Open Sans', verdana, arial, sans-serif; font-size: 12px; fill: rgb(68, 68, 68); fill-opacity: 1; white-space: pre; opacity: 1;">사회계열</text></g><g class="xtick"><text text-anchor="middle" x="0" y="455" transform="translate(311.5,0)" style="font-family: 'Open Sans', verdana, arial, sans-serif; font-size: 12px; fill: rgb(68, 68, 68); fill-opacity: 1; white-space: pre; opacity: 1;">예체능계열</text></g><g class="xtick"><text text-anchor="middle" x="0" y="455" transform="translate(385.64,0)" style="font-family: 'Open Sans', verdana, arial, sans-serif; font-size: 12px; fill: rgb(68, 68, 68); fill-opacity: 1; white-space: pre; opacity: 1;">의약계열</text></g><g class="xtick"><text text-anchor="middle" x="0" y="455" transform="translate(459.79,0)" style="font-family: 'Open Sans', verdana, arial, sans-serif; font-size: 12px; fill: rgb(68, 68, 68); fill-opacity: 1; white-space: pre; opacity: 1;">인문계열</text></g><g class="xtick"><text text-anchor="middle" x="0" y="455" transform="translate(533.9300000000001,0)" style="font-family: 'Open Sans', verdana, arial, sans-serif; font-size: 12px; fill: rgb(68, 68, 68); fill-opacity: 1; white-space: pre; opacity: 1;">자연계열</text></g></g><g class="yaxislayer-above"><g class="ytick"><text text-anchor="end" x="51" y="4.199999999999999" transform="translate(0,412.85)" style="font-family: 'Open Sans', verdana, arial, sans-serif; font-size: 12px; fill: rgb(68, 68, 68); fill-opacity: 1; white-space: pre; opacity: 1;">−20</text></g><g class="ytick"><text text-anchor="end" x="51" y="4.199999999999999" style="font-family: 'Open Sans', verdana, arial, sans-serif; font-size: 12px; fill: rgb(68, 68, 68); fill-opacity: 1; white-space: pre; opacity: 1;" transform="translate(0,365.18)">0</text></g><g class="ytick"><text text-anchor="end" x="51" y="4.199999999999999" style="font-family: 'Open Sans', verdana, arial, sans-serif; font-size: 12px; fill: rgb(68, 68, 68); fill-opacity: 1; white-space: pre; opacity: 1;" transform="translate(0,317.51)">20</text></g><g class="ytick"><text text-anchor="end" x="51" y="4.199999999999999" style="font-family: 'Open Sans', verdana, arial, sans-serif; font-size: 12px; fill: rgb(68, 68, 68); fill-opacity: 1; white-space: pre; opacity: 1;" transform="translate(0,269.84000000000003)">40</text></g><g class="ytick"><text text-anchor="end" x="51" y="4.199999999999999" style="font-family: 'Open Sans', verdana, arial, sans-serif; font-size: 12px; fill: rgb(68, 68, 68); fill-opacity: 1; white-space: pre; opacity: 1;" transform="translate(0,222.16)">60</text></g><g class="ytick"><text text-anchor="end" x="51" y="4.199999999999999" style="font-family: 'Open Sans', verdana, arial, sans-serif; font-size: 12px; fill: rgb(68, 68, 68); fill-opacity: 1; white-space: pre; opacity: 1;" transform="translate(0,174.49)">80</text></g><g class="ytick"><text text-anchor="end" x="51" y="4.199999999999999" style="font-family: 'Open Sans', verdana, arial, sans-serif; font-size: 12px; fill: rgb(68, 68, 68); fill-opacity: 1; white-space: pre; opacity: 1;" transform="translate(0,126.82)">100</text></g><g class="ytick"><text text-anchor="end" x="51" y="4.199999999999999" style="font-family: 'Open Sans', verdana, arial, sans-serif; font-size: 12px; fill: rgb(68, 68, 68); fill-opacity: 1; white-space: pre; opacity: 1;" transform="translate(0,79.15)">120</text></g></g><g class="overaxes-above"/></g></g><g class="polarlayer"/><g class="ternarylayer"/><g class="geolayer"/><g class="funnelarealayer"/><g class="pielayer"/><g class="iciclelayer"/><g class="treemaplayer"/><g class="sunburstlayer"/><g class="glimages"/><defs id="topdefs-caff55"><g class="clips"/></defs><g class="layer-above"><g class="imagelayer"/><g class="shapelayer"/></g><g class="infolayer"><g class="g-gtitle"><text class="gtitle" x="298.182" y="25" text-anchor="middle" dy="0em" style="font-family: 'Open Sans', verdana, arial, sans-serif; font-size: 17px; fill: rgb(68, 68, 68); opacity: 1; font-weight: normal; white-space: pre;">대학 계열별 취업률 분포</text></g><g class="g-xtitle" transform="translate(0,-13.099174179077124)"><text class="xtitle" x="311.5" y="494" text-anchor="middle" style="font-family: 'Open Sans', verdana, arial, sans-serif; font-size: 14px; fill: rgb(68, 68, 68); opacity: 1; font-weight: normal; white-space: pre;">대계열</text></g><g class="g-ytitle"><text class="ytitle" transform="rotate(-90,14,246)" x="14" y="246" text-anchor="middle" style="font-family: 'Open Sans', verdana, arial, sans-serif; font-size: 14px; fill: rgb(68, 68, 68); opacity: 1; font-weight: normal; white-space: pre;">취업률</text></g></g></svg>