<svg class="main-svg" xmlns="http://www.w3.org/2000/svg" xmlns:xlink="http://www.w3.org/1999/xlink" width="596.364" height="483.636" style="" viewBox="0 0 596.364 483.636"><rect x="0" y="0" width="596.364" height="483.636" style="fill: rgb(255, 255, 255); fill-opacity: 1;"/><defs id="defs-da0c8c"><g class="clips"><clipPath id="clipda0c8cxyplot" class="plotclip"><rect width="430" height="392"/></clipPath><clipPath class="axesclip" id="clipda0c8cx"><rect x="52" y="0" width="430" height="483.636"/></clipPath><clipPath class="axesclip" id="clipda0c8cy"><rect x="0" y="50" width="596.364" height="392"/></clipPath><clipPath class="axesclip" id="clipda0c8cxy"><rect x="52" y="50" width="430" height="392"/></clipPath></g><g class="gradients"/><g class="patterns"/></defs><g class="bglayer"/><g class="layer-below"><g class="imagelayer"/><g class="shapelayer"/></g><g class="cartesianlayer"><g class="subplot xy"><g class="layer-subplot"><g class="shapelayer"/><g class="imagelayer"/></g><g class="gridlayer"><g class="x"/><g class="y"><path class="ygrid crisp" transform="translate(0,431.68)" d="M52,0h430" style="stroke: rgb(238, 238, 238); stroke-opacity: 1; stroke-width: 1px;"/><path class="ygrid crisp" transform="translate(0,331.43)" d="M52,0h430" style="stroke: rgb(238, 238, 238); stroke-opacity: 1; stroke-width: 1px;"/><path class="ygrid crisp" transform="translate(0,281.3)" d="M52,0h430" style="stroke: rgb(238, 238, 238); stroke-opacity: 1; stroke-width: 1px;"/><path class="ygrid crisp" transform="translate(0,231.17)" d="M52,0h430" style="stroke: rgb(238, 238, 238); stroke-opacity: 1; stroke-width: 1px;"/><path class="ygrid crisp" transform="translate(0,181.05)" d="M52,0h430" style="stroke: rgb(238, 238, 238); stroke-opacity: 1; stroke-width: 1px;"/><path class="ygrid crisp" transform="translate(0,130.92000000000002)" d="M52,0h430" style="stroke: rgb(238, 238, 238); stroke-opacity: 1; stroke-width: 1px;"/><path class="ygrid crisp" transform="translate(0,80.8)" d="M52,0h430" style="stroke: rgb(238, 238, 238); stroke-opacity: 1; stroke-width: 1px;"/></g></g><g class="zerolinelayer"><path class="yzl zl crisp" transform="translate(0,381.55)" d="M52,0h430" style="stroke: rgb(68, 68, 68); stroke-opacity: 1; stroke-width: 1px;"/></g><path class="xlines-below"/><path class="ylines-below"/><g class="overlines-below"/><g class="xaxislayer-below"/><g class="yaxislayer-below"/><g class="overaxes-below"/><g class="plot" transform="translate(52,50)" clip-path="url(#clipda0c8cxyplot)"><g class="violinlayer mlayer"><g class="trace violins" style="opacity: 1;"><path class="violin" d="M16.54,362.63L16.63,362.63Q16.68,359.21 16.71,357.5C16.74,355.79 16.78,354.08 16.82,352.37C16.86,350.66 16.91,348.95 16.95,347.24C16.99,345.53 17.04,343.83 17.08,342.12C17.12,340.41 17.16,338.7 17.19,336.99C17.22,335.28 17.24,333.57 17.24,331.86C17.24,330.15 17.24,328.44 17.22,326.73C17.2,325.02 17.18,323.32 17.15,321.61C17.12,319.9 17.09,318.19 17.06,316.48C17.03,314.77 16.99,313.06 16.97,311.35C16.95,309.64 16.94,307.93 16.93,306.22C16.92,304.51 16.91,302.81 16.91,301.1C16.91,299.39 16.92,297.68 16.93,295.97C16.94,294.26 16.96,292.55 16.98,290.84C17,289.13 17.01,287.42 17.04,285.71C17.06,284 17.1,282.3 17.13,280.59C17.17,278.88 17.21,277.17 17.25,275.46C17.3,273.75 17.34,272.04 17.4,270.33C17.46,268.62 17.53,266.91 17.6,265.2C17.67,263.49 17.75,261.79 17.84,260.08C17.93,258.37 18.03,256.66 18.14,254.95C18.25,253.24 18.36,251.53 18.48,249.82C18.6,248.11 18.73,246.4 18.87,244.69C19.01,242.98 19.16,241.28 19.32,239.57C19.48,237.86 19.64,236.15 19.82,234.44C20,232.73 20.19,231.02 20.38,229.31C20.57,227.6 20.77,225.89 20.98,224.18C21.19,222.47 21.41,220.77 21.62,219.06C21.83,217.35 22.05,215.64 22.26,213.93C22.47,212.22 22.67,210.51 22.88,208.8C23.09,207.09 23.29,205.38 23.5,203.67C23.71,201.96 23.92,200.26 24.14,198.55C24.36,196.84 24.58,195.13 24.82,193.42C25.06,191.71 25.32,190 25.58,188.29C25.84,186.58 26.12,184.87 26.39,183.16C26.65,181.45 26.93,179.75 27.17,178.04C27.41,176.33 27.65,174.62 27.83,172.91C28.01,171.2 28.16,169.49 28.24,167.78C28.32,166.07 28.36,164.36 28.32,162.65C28.28,160.94 28.19,159.23 28.03,157.53C27.87,155.82 27.64,154.11 27.38,152.4C27.12,150.69 26.8,148.98 26.47,147.27C26.14,145.56 25.76,143.85 25.39,142.14C25.02,140.43 24.62,138.73 24.25,137.02C23.88,135.31 23.51,133.6 23.17,131.89C22.84,130.18 22.52,128.47 22.24,126.76C21.97,125.05 21.72,123.34 21.52,121.63C21.32,119.92 21.17,118.22 21.05,116.51C20.93,114.8 20.86,113.09 20.82,111.38C20.78,109.67 20.77,107.96 20.79,106.25C20.81,104.54 20.87,102.83 20.92,101.12C20.97,99.41 21.05,97.71 21.1,96C21.15,94.29 21.22,92.58 21.24,90.87C21.26,89.16 21.25,87.45 21.2,85.74C21.15,84.03 21.05,82.32 20.91,80.61C20.77,78.9 20.57,77.2 20.35,75.49C20.13,73.78 19.85,72.07 19.59,70.36C19.33,68.65 19.03,66.94 18.77,65.23C18.51,63.52 18.25,61.81 18.02,60.1C17.8,58.39 17.59,56.69 17.42,54.98Q17.25,53.27 17.02,49.85L16.54,49.85" style="vector-effect: non-scaling-stroke; stroke-width: 2px; stroke: rgb(8, 81, 156); stroke-opacity: 1; fill: rgb(8, 81, 156); fill-opacity: 0.5;"/><path class="violin" d="M82.69,368.34L82.79,368.34Q82.84,364.27 82.87,362.23C82.91,360.19 82.95,358.15 83,356.11C83.05,354.07 83.11,352.03 83.18,349.99C83.24,347.95 83.32,345.92 83.39,343.88C83.46,341.84 83.54,339.8 83.61,337.76C83.69,335.72 83.77,333.68 83.84,331.64C83.91,329.6 83.99,327.56 84.05,325.52C84.11,323.48 84.17,321.45 84.21,319.41C84.25,317.37 84.29,315.33 84.31,313.29C84.33,311.25 84.34,309.21 84.33,307.17C84.32,305.13 84.29,303.09 84.27,301.05C84.25,299.01 84.21,296.98 84.19,294.94C84.17,292.9 84.15,290.86 84.16,288.82C84.17,286.78 84.2,284.74 84.28,282.7C84.36,280.66 84.48,278.63 84.62,276.59C84.77,274.55 84.96,272.51 85.15,270.47C85.34,268.43 85.58,266.39 85.78,264.35C85.98,262.31 86.21,260.27 86.37,258.23C86.53,256.19 86.67,254.16 86.76,252.12C86.85,250.08 86.9,248.04 86.93,246C86.96,243.96 86.93,241.92 86.94,239.88C86.95,237.84 86.93,235.8 86.97,233.76C87.01,231.72 87.07,229.69 87.19,227.65C87.31,225.61 87.49,223.57 87.71,221.53C87.94,219.49 88.23,217.45 88.54,215.41C88.85,213.37 89.21,211.34 89.56,209.3C89.91,207.26 90.28,205.22 90.64,203.18C91,201.14 91.36,199.1 91.7,197.06C92.04,195.02 92.36,192.98 92.66,190.94C92.96,188.9 93.26,186.87 93.51,184.83C93.76,182.79 94,180.75 94.17,178.71C94.34,176.67 94.47,174.63 94.52,172.59C94.57,170.55 94.56,168.51 94.47,166.47C94.38,164.43 94.2,162.39 93.96,160.36C93.72,158.32 93.39,156.28 93.04,154.24C92.69,152.2 92.27,150.16 91.86,148.12C91.45,146.08 91.01,144.05 90.59,142.01C90.17,139.97 89.75,137.93 89.35,135.89C88.96,133.85 88.58,131.81 88.22,129.77C87.86,127.73 87.53,125.69 87.2,123.65C86.88,121.61 86.56,119.58 86.27,117.54C85.98,115.5 85.7,113.46 85.45,111.42C85.2,109.38 84.97,107.34 84.77,105.3C84.57,103.26 84.4,101.23 84.26,99.19C84.12,97.15 84.01,95.11 83.92,93.07C83.83,91.03 83.76,88.99 83.7,86.95C83.64,84.91 83.6,82.87 83.55,80.83C83.5,78.79 83.46,76.76 83.41,74.72C83.36,72.68 83.32,70.64 83.27,68.6C83.22,66.56 83.16,64.52 83.11,62.48C83.06,60.44 83.01,58.4 82.97,56.36C82.93,54.32 82.89,52.29 82.86,50.25Q82.83,48.21 82.78,44.13L82.69,44.13" style="vector-effect: non-scaling-stroke; stroke-width: 2px; stroke: rgb(8, 81, 156); stroke-opacity: 1; fill: rgb(8, 81, 156); fill-opacity: 0.5;"/><path class="violin" d="M148.85,357.3L149.09,357.3Q149.22,354.47 149.3,353.05C149.38,351.63 149.48,350.21 149.59,348.79C149.7,347.37 149.82,345.96 149.94,344.54C150.06,343.12 150.19,341.7 150.29,340.28C150.39,338.86 150.5,337.45 150.56,336.03C150.62,334.61 150.66,333.19 150.66,331.77C150.66,330.35 150.64,328.94 150.58,327.52C150.52,326.1 150.42,324.68 150.32,323.26C150.22,321.84 150.09,320.43 149.98,319.01C149.86,317.59 149.74,316.17 149.63,314.75C149.52,313.33 149.41,311.91 149.33,310.49C149.25,309.07 149.18,307.66 149.13,306.24C149.08,304.82 149.04,303.4 149.02,301.98C149,300.56 148.99,299.15 148.99,297.73C148.99,296.31 149,294.89 149.01,293.47C149.02,292.05 149.05,290.64 149.07,289.22C149.09,287.8 149.12,286.38 149.15,284.96C149.18,283.54 149.2,282.13 149.23,280.71C149.26,279.29 149.28,277.87 149.31,276.45C149.34,275.03 149.36,273.62 149.39,272.2C149.42,270.78 149.44,269.36 149.48,267.94C149.52,266.52 149.56,265.1 149.63,263.68C149.69,262.26 149.78,260.85 149.87,259.43C149.97,258.01 150.07,256.59 150.2,255.17C150.33,253.75 150.48,252.34 150.63,250.92C150.79,249.5 150.96,248.08 151.13,246.66C151.3,245.24 151.48,243.83 151.67,242.41C151.86,240.99 152.05,239.57 152.27,238.15C152.49,236.73 152.71,235.32 152.97,233.9C153.23,232.48 153.5,231.06 153.82,229.64C154.14,228.22 154.51,226.8 154.9,225.39C155.3,223.97 155.74,222.55 156.2,221.13C156.66,219.71 157.17,218.3 157.65,216.88C158.13,215.46 158.63,214.04 159.08,212.62C159.52,211.2 159.96,209.79 160.32,208.36C160.67,206.95 160.98,205.53 161.22,204.11C161.46,202.7 161.62,201.27 161.74,199.85C161.86,198.43 161.9,197.02 161.94,195.6C161.98,194.18 161.96,192.76 161.95,191.34C161.94,189.92 161.92,188.51 161.9,187.09C161.88,185.67 161.87,184.25 161.84,182.83C161.81,181.41 161.79,180 161.74,178.58C161.68,177.16 161.62,175.74 161.51,174.32C161.39,172.9 161.25,171.48 161.05,170.07C160.85,168.65 160.6,167.22 160.31,165.81C160.02,164.39 159.66,162.97 159.29,161.56C158.91,160.14 158.48,158.72 158.05,157.3C157.62,155.88 157.15,154.46 156.7,153.04C156.25,151.62 155.79,150.21 155.37,148.79C154.95,147.37 154.55,145.95 154.19,144.53C153.83,143.12 153.5,141.7 153.22,140.28C152.94,138.86 152.7,137.44 152.5,136.02C152.3,134.61 152.15,133.19 152.01,131.77C151.88,130.35 151.78,128.93 151.69,127.51C151.6,126.09 151.54,124.68 151.48,123.26C151.42,121.84 151.37,120.42 151.33,119C151.29,117.58 151.25,116.17 151.23,114.75C151.21,113.33 151.19,111.91 151.19,110.49C151.19,109.07 151.19,107.66 151.21,106.24C151.23,104.82 151.27,103.4 151.32,101.98C151.37,100.56 151.45,99.14 151.52,97.72C151.59,96.3 151.69,94.89 151.76,93.47C151.84,92.05 151.92,90.63 151.97,89.21C152.02,87.79 152.06,86.38 152.05,84.96C152.04,83.54 152,82.12 151.92,80.7C151.84,79.28 151.71,77.87 151.57,76.45C151.42,75.03 151.24,73.61 151.05,72.19C150.87,70.77 150.65,69.36 150.46,67.94C150.27,66.52 150.08,65.1 149.92,63.68C149.76,62.26 149.61,60.85 149.49,59.43Q149.37,58.01 149.19,55.17L148.85,55.17" style="vector-effect: non-scaling-stroke; stroke-width: 2px; stroke: rgb(8, 81, 156); stroke-opacity: 1; fill: rgb(8, 81, 156); fill-opacity: 0.5;"/><path class="violin" d="M215,357.48L215.25,357.48Q215.38,354.64 215.46,353.22C215.55,351.8 215.65,350.37 215.76,348.95C215.87,347.53 216.01,346.11 216.13,344.69C216.26,343.27 216.39,341.85 216.51,340.43C216.62,339.01 216.74,337.59 216.82,336.17C216.9,334.75 216.96,333.33 216.99,331.91C217.02,330.49 217.01,329.07 216.98,327.65C216.95,326.23 216.88,324.81 216.81,323.39C216.74,321.97 216.63,320.55 216.54,319.13C216.44,317.71 216.34,316.29 216.24,314.87C216.15,313.45 216.05,312.03 215.97,310.61C215.89,309.19 215.81,307.77 215.74,306.35C215.67,304.93 215.62,303.51 215.57,302.09C215.52,300.67 215.49,299.25 215.46,297.83C215.43,296.41 215.4,294.99 215.39,293.57C215.38,292.15 215.37,290.73 215.37,289.31C215.37,287.89 215.38,286.47 215.39,285.05C215.4,283.63 215.41,282.21 215.44,280.79C215.47,279.37 215.5,277.95 215.55,276.53C215.6,275.11 215.65,273.69 215.72,272.27C215.79,270.85 215.87,269.43 215.97,268.01C216.07,266.59 216.18,265.17 216.3,263.75C216.42,262.33 216.56,260.91 216.7,259.49C216.84,258.07 216.99,256.65 217.14,255.23C217.29,253.81 217.44,252.39 217.59,250.97C217.73,249.55 217.88,248.13 218.01,246.71C218.14,245.29 218.26,243.87 218.37,242.45C218.48,241.03 218.59,239.61 218.69,238.19C218.79,236.77 218.88,235.35 218.98,233.93C219.07,232.51 219.16,231.09 219.26,229.67C219.36,228.25 219.46,226.83 219.58,225.41C219.7,223.99 219.83,222.57 219.98,221.15C220.13,219.73 220.3,218.31 220.48,216.89C220.66,215.47 220.86,214.05 221.07,212.63C221.28,211.21 221.5,209.79 221.74,208.37C221.98,206.95 222.22,205.53 222.49,204.11C222.76,202.69 223.04,201.27 223.35,199.85C223.66,198.43 223.98,197.01 224.33,195.59C224.68,194.17 225.06,192.75 225.45,191.33C225.85,189.91 226.27,188.49 226.7,187.07C227.13,185.65 227.59,184.23 228.02,182.81C228.45,181.39 228.91,179.97 229.3,178.55C229.69,177.13 230.08,175.72 230.38,174.29C230.67,172.88 230.93,171.45 231.07,170.03C231.21,168.61 231.27,167.19 231.21,165.77C231.15,164.35 230.98,162.91 230.71,161.5C230.44,160.07 230.04,158.65 229.6,157.24C229.15,155.81 228.6,154.39 228.04,152.98C227.47,151.55 226.84,150.14 226.22,148.72C225.6,147.3 224.95,145.88 224.34,144.46C223.73,143.04 223.13,141.63 222.57,140.2C222.01,138.79 221.48,137.37 220.99,135.94C220.51,134.53 220.06,133.11 219.66,131.68C219.27,130.27 218.92,128.84 218.61,127.42C218.3,126 218.05,124.58 217.82,123.16C217.59,121.74 217.41,120.32 217.24,118.9C217.08,117.48 216.95,116.06 216.83,114.64C216.71,113.22 216.62,111.8 216.53,110.38C216.44,108.96 216.37,107.54 216.31,106.12C216.25,104.7 216.2,103.28 216.16,101.86C216.12,100.44 216.08,99.02 216.06,97.6C216.04,96.18 216.03,94.76 216.02,93.34C216.01,91.92 216,90.5 215.99,89.08C215.98,87.66 215.97,86.24 215.95,84.82C215.93,83.4 215.91,81.98 215.88,80.56C215.85,79.14 215.81,77.72 215.77,76.3C215.72,74.88 215.66,73.46 215.61,72.04C215.56,70.62 215.5,69.2 215.45,67.78C215.4,66.36 215.35,64.94 215.3,63.52C215.26,62.1 215.21,60.68 215.18,59.26Q215.15,57.84 215.1,55L215,55" style="vector-effect: non-scaling-stroke; stroke-width: 2px; stroke: rgb(8, 81, 156); stroke-opacity: 1; fill: rgb(8, 81, 156); fill-opacity: 0.5;"/><path class="violin" d="M281.15,372.4L281.3,372.4Q281.36,367.88 281.41,365.62C281.46,363.36 281.52,361.1 281.58,358.84C281.64,356.58 281.72,354.31 281.79,352.05C281.86,349.79 281.93,347.53 281.99,345.27C282.05,343.01 282.1,340.75 282.14,338.49C282.17,336.23 282.2,333.97 282.2,331.71C282.2,329.45 282.18,327.18 282.15,324.92C282.12,322.66 282.06,320.4 282,318.14C281.94,315.88 281.87,313.62 281.8,311.36C281.73,309.1 281.65,306.84 281.59,304.58C281.53,302.32 281.47,300.06 281.42,297.8C281.37,295.54 281.33,293.27 281.3,291.01C281.27,288.75 281.26,286.49 281.24,284.23C281.23,281.97 281.21,279.71 281.21,277.45C281.21,275.19 281.21,272.93 281.23,270.67C281.25,268.41 281.27,266.15 281.31,263.89C281.35,261.63 281.39,259.36 281.45,257.1C281.51,254.84 281.58,252.58 281.67,250.32C281.76,248.06 281.88,245.8 282.01,243.54C282.14,241.28 282.28,239.02 282.44,236.76C282.6,234.5 282.78,232.23 282.96,229.97C283.14,227.71 283.33,225.45 283.53,223.19C283.73,220.93 283.93,218.67 284.14,216.41C284.35,214.15 284.55,211.89 284.77,209.63C284.99,207.37 285.2,205.11 285.44,202.85C285.68,200.59 285.93,198.32 286.2,196.06C286.47,193.8 286.76,191.54 287.06,189.28C287.37,187.02 287.69,184.76 288.03,182.5C288.37,180.24 288.74,177.98 289.1,175.72C289.46,173.46 289.85,171.2 290.21,168.94C290.58,166.68 290.95,164.41 291.29,162.15C291.62,159.89 291.96,157.63 292.22,155.37C292.48,153.11 292.71,150.85 292.85,148.59C292.99,146.33 293.06,144.07 293.04,141.81C293.02,139.55 292.9,137.28 292.72,135.02C292.54,132.76 292.25,130.5 291.95,128.24C291.64,125.98 291.25,123.72 290.89,121.46C290.53,119.2 290.13,116.94 289.78,114.68C289.43,112.42 289.09,110.16 288.8,107.9C288.51,105.64 288.26,103.37 288.02,101.11C287.78,98.85 287.59,96.59 287.38,94.33C287.17,92.07 286.97,89.81 286.74,87.55C286.51,85.29 286.26,83.03 285.99,80.77C285.72,78.51 285.41,76.25 285.1,73.99C284.79,71.73 284.45,69.46 284.14,67.2C283.83,64.94 283.5,62.68 283.22,60.42C282.94,58.16 282.68,55.9 282.46,53.64C282.24,51.38 282.05,49.12 281.9,46.86Q281.75,44.6 281.54,40.07L281.15,40.07" style="vector-effect: non-scaling-stroke; stroke-width: 2px; stroke: rgb(8, 81, 156); stroke-opacity: 1; fill: rgb(8, 81, 156); fill-opacity: 0.5;"/><path class="violin" d="M347.31,364.36L347.78,364.36Q348.02,360.73 348.18,358.91C348.34,357.09 348.53,355.28 348.74,353.46C348.95,351.64 349.19,349.83 349.42,348.01C349.65,346.19 349.9,344.37 350.1,342.55C350.3,340.73 350.49,338.92 350.61,337.1C350.73,335.29 350.81,333.47 350.81,331.65C350.81,329.83 350.74,328.01 350.63,326.19C350.52,324.37 350.33,322.56 350.14,320.74C349.95,318.92 349.71,317.11 349.49,315.29C349.28,313.47 349.04,311.66 348.85,309.84C348.66,308.02 348.49,306.2 348.36,304.38C348.23,302.56 348.13,300.75 348.07,298.93C348.01,297.11 347.98,295.3 347.98,293.48C347.98,291.66 348.01,289.85 348.05,288.03C348.09,286.21 348.16,284.39 348.23,282.57C348.3,280.75 348.39,278.94 348.48,277.12C348.57,275.3 348.68,273.49 348.79,271.67C348.9,269.85 349.02,268.04 349.14,266.22C349.26,264.4 349.38,262.58 349.52,260.76C349.66,258.94 349.8,257.13 349.96,255.31C350.12,253.49 350.27,251.68 350.46,249.86C350.65,248.04 350.84,246.23 351.08,244.41C351.32,242.59 351.58,240.77 351.88,238.95C352.18,237.13 352.52,235.31 352.89,233.5C353.27,231.68 353.69,229.86 354.13,228.05C354.57,226.23 355.06,224.42 355.53,222.6C356,220.78 356.5,218.96 356.94,217.14C357.38,215.33 357.81,213.51 358.16,211.69C358.51,209.88 358.82,208.06 359.04,206.24C359.26,204.43 359.4,202.6 359.47,200.78C359.54,198.96 359.51,197.15 359.44,195.33C359.37,193.51 359.22,191.69 359.05,189.88C358.88,188.06 358.64,186.25 358.41,184.43C358.18,182.61 357.91,180.79 357.66,178.97C357.41,177.15 357.15,175.34 356.9,173.52C356.65,171.7 356.41,169.89 356.18,168.07C355.95,166.25 355.73,164.44 355.51,162.62C355.29,160.8 355.08,158.98 354.86,157.16C354.64,155.34 354.43,153.53 354.2,151.71C353.97,149.89 353.74,148.08 353.5,146.26C353.26,144.44 353,142.63 352.74,140.81C352.48,138.99 352.22,137.17 351.95,135.35C351.68,133.53 351.41,131.72 351.14,129.9C350.88,128.08 350.61,126.27 350.36,124.45C350.11,122.63 349.87,120.82 349.65,119C349.44,117.18 349.24,115.36 349.07,113.54C348.9,111.72 348.76,109.91 348.64,108.09C348.52,106.27 348.43,104.46 348.35,102.64C348.27,100.82 348.22,99 348.17,97.18C348.12,95.36 348.1,93.55 348.07,91.73C348.04,89.91 348.03,88.1 348.01,86.28C347.99,84.46 347.97,82.65 347.94,80.83C347.91,79.01 347.88,77.19 347.85,75.37C347.82,73.55 347.78,71.74 347.74,69.92C347.7,68.1 347.67,66.29 347.63,64.47C347.59,62.65 347.55,60.84 347.52,59.02C347.49,57.2 347.45,55.38 347.43,53.56Q347.41,51.74 347.38,48.11L347.31,48.11" style="vector-effect: non-scaling-stroke; stroke-width: 2px; stroke: rgb(8, 81, 156); stroke-opacity: 1; fill: rgb(8, 81, 156); fill-opacity: 0.5;"/><path class="violin" d="M413.46,355.74L413.58,355.74Q413.63,353.08 413.67,351.75C413.71,350.42 413.76,349.1 413.81,347.77C413.86,346.44 413.92,345.11 413.98,343.78C414.03,342.45 414.09,341.12 414.14,339.79C414.19,338.46 414.24,337.14 414.27,335.81C414.3,334.48 414.32,333.15 414.32,331.82C414.32,330.49 414.31,329.16 414.28,327.83C414.25,326.5 414.21,325.18 414.16,323.85C414.11,322.52 414.05,321.19 414,319.86C413.95,318.53 413.89,317.2 413.84,315.87C413.79,314.54 413.74,313.22 413.71,311.89C413.67,310.56 413.65,309.23 413.63,307.9C413.61,306.57 413.6,305.24 413.6,303.91C413.6,302.58 413.61,301.26 413.62,299.93C413.63,298.6 413.65,297.27 413.67,295.94C413.69,294.61 413.72,293.28 413.75,291.95C413.78,290.62 413.81,289.3 413.84,287.97C413.87,286.64 413.89,285.31 413.92,283.98C413.95,282.65 413.98,281.32 414.01,279.99C414.04,278.66 414.07,277.34 414.1,276.01C414.13,274.68 414.16,273.35 414.2,272.02C414.24,270.69 414.28,269.36 414.32,268.03C414.36,266.7 414.4,265.38 414.45,264.05C414.5,262.72 414.56,261.39 414.62,260.06C414.68,258.73 414.75,257.4 414.82,256.07C414.89,254.74 414.97,253.42 415.06,252.09C415.15,250.76 415.25,249.43 415.36,248.1C415.48,246.77 415.6,245.44 415.75,244.11C415.9,242.78 416.07,241.45 416.26,240.12C416.46,238.79 416.67,237.46 416.92,236.14C417.17,234.81 417.45,233.48 417.77,232.15C418.09,230.82 418.44,229.49 418.82,228.16C419.2,226.83 419.62,225.5 420.05,224.18C420.48,222.85 420.95,221.52 421.42,220.19C421.89,218.86 422.39,217.53 422.85,216.2C423.31,214.87 423.78,213.55 424.2,212.22C424.61,210.9 425.01,209.57 425.34,208.23C425.67,206.91 425.94,205.57 426.17,204.24C426.39,202.92 426.56,201.59 426.69,200.26C426.82,198.93 426.89,197.6 426.97,196.27C427.05,194.94 427.09,193.61 427.16,192.28C427.23,190.95 427.29,189.63 427.37,188.3C427.45,186.97 427.55,185.64 427.63,184.31C427.71,182.98 427.81,181.65 427.86,180.32C427.91,178.99 427.97,177.67 427.94,176.34C427.91,175.01 427.84,173.68 427.7,172.35C427.55,171.02 427.34,169.68 427.07,168.36C426.8,167.03 426.44,165.7 426.07,164.38C425.7,163.05 425.26,161.72 424.83,160.39C424.4,159.06 423.93,157.73 423.48,156.4C423.04,155.07 422.59,153.75 422.16,152.42C421.74,151.09 421.32,149.76 420.93,148.43C420.54,147.1 420.16,145.77 419.8,144.44C419.44,143.11 419.1,141.79 418.78,140.46C418.46,139.13 418.15,137.8 417.87,136.47C417.59,135.14 417.33,133.81 417.09,132.48C416.85,131.15 416.63,129.83 416.44,128.5C416.25,127.17 416.09,125.84 415.95,124.51C415.81,123.18 415.7,121.85 415.6,120.52C415.5,119.19 415.42,117.86 415.35,116.53C415.28,115.2 415.22,113.88 415.17,112.55C415.12,111.22 415.08,109.89 415.04,108.56C415.01,107.23 414.97,105.9 414.96,104.57C414.95,103.24 414.94,101.92 414.95,100.59C414.96,99.26 414.98,97.93 415.02,96.6C415.06,95.27 415.13,93.94 415.19,92.61C415.25,91.28 415.33,89.96 415.39,88.63C415.45,87.3 415.5,85.97 415.53,84.64C415.56,83.31 415.58,81.98 415.55,80.65C415.52,79.32 415.46,78 415.38,76.67C415.3,75.34 415.19,74.01 415.07,72.68C414.95,71.35 414.8,70.02 414.67,68.69C414.54,67.36 414.4,66.04 414.28,64.71C414.16,63.38 414.05,62.05 413.96,60.72Q413.87,59.39 413.73,56.73L413.46,56.73" style="vector-effect: non-scaling-stroke; stroke-width: 2px; stroke: rgb(8, 81, 156); stroke-opacity: 1; fill: rgb(8, 81, 156); fill-opacity: 0.5;"/><path class="box" d="M18.54,164.38H22.59M18.54,194.02H22.59V134.74H18.54ZM18.54,194.02V268.89M18.54,134.74V80.92" style="vector-effect: non-scaling-stroke; stroke-width: 2px; stroke: rgb(8, 81, 156); stroke-opacity: 1; fill: rgb(8, 81, 156); fill-opacity: 0.5;"/><path class="box" d="M84.69,176.66H88.74M84.69,207.93H88.74V158.68H84.69ZM84.69,207.93V255.36M84.69,158.68V121.27" style="vector-effect: non-scaling-stroke; stroke-width: 2px; stroke: rgb(8, 81, 156); stroke-opacity: 1; fill: rgb(8, 81, 156); fill-opacity: 0.5;"/><path class="box" d="M150.85,183.43H154.9M150.85,206.24H154.9V159.06H150.85ZM150.85,206.24V272.15M150.85,159.06V91.2" style="vector-effect: non-scaling-stroke; stroke-width: 2px; stroke: rgb(8, 81, 156); stroke-opacity: 1; fill: rgb(8, 81, 156); fill-opacity: 0.5;"/><path class="box" d="M217,173.91H221.05M217,206.24H221.05V160.12H217ZM217,206.24V259.87M217,160.12V94.21" style="vector-effect: non-scaling-stroke; stroke-width: 2px; stroke: rgb(8, 81, 156); stroke-opacity: 1; fill: rgb(8, 81, 156); fill-opacity: 0.5;"/><path class="box" d="M283.15,140.32H287.21M283.15,173.03H287.21V123.9H283.15ZM283.15,173.03V221.78M283.15,123.9V80.92" style="vector-effect: non-scaling-stroke; stroke-width: 2px; stroke: rgb(8, 81, 156); stroke-opacity: 1; fill: rgb(8, 81, 156); fill-opacity: 0.5;"/><path class="box" d="M349.31,199.22H353.36M349.31,222.72H353.36V167.83H349.31ZM349.31,222.72V281.43M349.31,167.83V103.73" style="vector-effect: non-scaling-stroke; stroke-width: 2px; stroke: rgb(8, 81, 156); stroke-opacity: 1; fill: rgb(8, 81, 156); fill-opacity: 0.5;"/><path class="box" d="M415.46,181.68H419.51M415.46,206.24H419.51V164.38H415.46ZM415.46,206.24V268.89M415.46,164.38V105.98" style="vector-effect: non-scaling-stroke; stroke-width: 2px; stroke: rgb(8, 81, 156); stroke-opacity: 1; fill: rgb(8, 81, 156); fill-opacity: 0.5;"/><path class="mean" d="M18.54,165.81H22.59" style="fill: none; vector-effect: non-scaling-stroke; stroke-width: 1px; stroke-dasharray: 2px, 1px; stroke: rgb(0, 0, 139); stroke-opacity: 1;"/><path class="mean" d="M84.69,189.92H88.74" style="fill: none; vector-effect: non-scaling-stroke; stroke-width: 1px; stroke-dasharray: 2px, 1px; stroke: rgb(0, 0, 139); stroke-opacity: 1;"/><path class="mean" d="M150.85,183.28H154.9" style="fill: none; vector-effect: non-scaling-stroke; stroke-width: 1px; stroke-dasharray: 2px, 1px; stroke: rgb(0, 0, 139); stroke-opacity: 1;"/><path class="mean" d="M217,185.87H221.05" style="fill: none; vector-effect: non-scaling-stroke; stroke-width: 1px; stroke-dasharray: 2px, 1px; stroke: rgb(0, 0, 139); stroke-opacity: 1;"/><path class="mean" d="M283.15,150.72H287.21" style="fill: none; vector-effect: non-scaling-stroke; stroke-width: 1px; stroke-dasharray: 2px, 1px; stroke: rgb(0, 0, 139); stroke-opacity: 1;"/><path class="mean" d="M349.31,204.65H353.36" style="fill: none; vector-effect: non-scaling-stroke; stroke-width: 1px; stroke-dasharray: 2px, 1px; stroke: rgb(0, 0, 139); stroke-opacity: 1;"/><path class="mean" d="M415.46,182.76H419.51" style="fill: none; vector-effect: non-scaling-stroke; stroke-width: 1px; stroke-dasharray: 2px, 1px; stroke: rgb(0, 0, 139); stroke-opacity: 1;"/><g class="points"><path class="point" transform="translate(16.54,331.55)" d="M3,0A3,3 0 1,1 0,-3A3,3 0 0,1 3,0Z" style="opacity: 1; stroke-width: 0px; fill: rgb(8, 81, 156); fill-opacity: 1;"/><path class="point" transform="translate(16.54,331.55)" d="M3,0A3,3 0 1,1 0,-3A3,3 0 0,1 3,0Z" style="opacity: 1; stroke-width: 0px; fill: rgb(8, 81, 156); fill-opacity: 1;"/><path class="point" transform="translate(16.54,331.55)" d="M3,0A3,3 0 1,1 0,-3A3,3 0 0,1 3,0Z" style="opacity: 1; stroke-width: 0px; fill: rgb(8, 81, 156); fill-opacity: 1;"/><path class="point" transform="translate(16.54,331.55)" d="M3,0A3,3 0 1,1 0,-3A3,3 0 0,1 3,0Z" style="opacity: 1; stroke-width: 0px; fill: rgb(8, 81, 156); fill-opacity: 1;"/><path class="point" transform="translate(16.54,331.55)" d="M3,0A3,3 0 1,1 0,-3A3,3 0 0,1 3,0Z" style="opacity: 1; stroke-width: 0px; fill: rgb(8, 81, 156); fill-opacity: 1;"/><path class="point" transform="translate(16.54,295.71)" d="M3,0A3,3 0 1,1 0,-3A3,3 0 0,1 3,0Z" style="opacity: 1; stroke-width: 0px; fill: rgb(8, 81, 156); fill-opacity: 1;"/><path class="point" transform="translate(16.54,289.7)" d="M3,0A3,3 0 1,1 0,-3A3,3 0 0,1 3,0Z" style="opacity: 1; stroke-width: 0px; fill: rgb(8, 81, 156); fill-opacity: 1;"/></g><g class="points"><path class="point" transform="translate(82.69,331.55)" d="M3,0A3,3 0 1,1 0,-3A3,3 0 0,1 3,0Z" style="opacity: 1; stroke-width: 0px; fill: rgb(8, 81, 156); fill-opacity: 1;"/><path class="point" transform="translate(82.69,308.75)" d="M3,0A3,3 0 1,1 0,-3A3,3 0 0,1 3,0Z" style="opacity: 1; stroke-width: 0px; fill: rgb(8, 81, 156); fill-opacity: 1;"/><path class="point" transform="translate(82.69,300.22)" d="M3,0A3,3 0 1,1 0,-3A3,3 0 0,1 3,0Z" style="opacity: 1; stroke-width: 0px; fill: rgb(8, 81, 156); fill-opacity: 1;"/><path class="point" transform="translate(82.69,80.92)" d="M3,0A3,3 0 1,1 0,-3A3,3 0 0,1 3,0Z" style="opacity: 1; stroke-width: 0px; fill: rgb(8, 81, 156); fill-opacity: 1;"/></g><g class="points"><path class="point" transform="translate(148.85,331.55)" d="M3,0A3,3 0 1,1 0,-3A3,3 0 0,1 3,0Z" style="opacity: 1; stroke-width: 0px; fill: rgb(8, 81, 156); fill-opacity: 1;"/><path class="point" transform="translate(148.85,331.55)" d="M3,0A3,3 0 1,1 0,-3A3,3 0 0,1 3,0Z" style="opacity: 1; stroke-width: 0px; fill: rgb(8, 81, 156); fill-opacity: 1;"/><path class="point" transform="translate(148.85,331.55)" d="M3,0A3,3 0 1,1 0,-3A3,3 0 0,1 3,0Z" style="opacity: 1; stroke-width: 0px; fill: rgb(8, 81, 156); fill-opacity: 1;"/><path class="point" transform="translate(148.85,331.55)" d="M3,0A3,3 0 1,1 0,-3A3,3 0 0,1 3,0Z" style="opacity: 1; stroke-width: 0px; fill: rgb(8, 81, 156); fill-opacity: 1;"/><path class="point" transform="translate(148.85,331.55)" d="M3,0A3,3 0 1,1 0,-3A3,3 0 0,1 3,0Z" style="opacity: 1; stroke-width: 0px; fill: rgb(8, 81, 156); fill-opacity: 1;"/><path class="point" transform="translate(148.85,331.55)" d="M3,0A3,3 0 1,1 0,-3A3,3 0 0,1 3,0Z" style="opacity: 1; stroke-width: 0px; fill: rgb(8, 81, 156); fill-opacity: 1;"/><path class="point" transform="translate(148.85,331.55)" d="M3,0A3,3 0 1,1 0,-3A3,3 0 0,1 3,0Z" style="opacity: 1; stroke-width: 0px; fill: rgb(8, 81, 156); fill-opacity: 1;"/><path class="point" transform="translate(148.85,331.55)" d="M3,0A3,3 0 1,1 0,-3A3,3 0 0,1 3,0Z" style="opacity: 1; stroke-width: 0px; fill: rgb(8, 81, 156); fill-opacity: 1;"/><path class="point" transform="translate(148.85,331.55)" d="M3,0A3,3 0 1,1 0,-3A3,3 0 0,1 3,0Z" style="opacity: 1; stroke-width: 0px; fill: rgb(8, 81, 156); fill-opacity: 1;"/><path class="point" transform="translate(148.85,277.17)" d="M3,0A3,3 0 1,1 0,-3A3,3 0 0,1 3,0Z" style="opacity: 1; stroke-width: 0px; fill: rgb(8, 81, 156); fill-opacity: 1;"/><path class="point" transform="translate(148.85,86.69)" d="M3,0A3,3 0 1,1 0,-3A3,3 0 0,1 3,0Z" style="opacity: 1; stroke-width: 0px; fill: rgb(8, 81, 156); fill-opacity: 1;"/><path class="point" transform="translate(148.85,80.92)" d="M3,0A3,3 0 1,1 0,-3A3,3 0 0,1 3,0Z" style="opacity: 1; stroke-width: 0px; fill: rgb(8, 81, 156); fill-opacity: 1;"/><path class="point" transform="translate(148.85,80.92)" d="M3,0A3,3 0 1,1 0,-3A3,3 0 0,1 3,0Z" style="opacity: 1; stroke-width: 0px; fill: rgb(8, 81, 156); fill-opacity: 1;"/><path class="point" transform="translate(148.85,80.92)" d="M3,0A3,3 0 1,1 0,-3A3,3 0 0,1 3,0Z" style="opacity: 1; stroke-width: 0px; fill: rgb(8, 81, 156); fill-opacity: 1;"/><path class="point" transform="translate(148.85,80.92)" d="M3,0A3,3 0 1,1 0,-3A3,3 0 0,1 3,0Z" style="opacity: 1; stroke-width: 0px; fill: rgb(8, 81, 156); fill-opacity: 1;"/><path class="point" transform="translate(148.85,80.92)" d="M3,0A3,3 0 1,1 0,-3A3,3 0 0,1 3,0Z" style="opacity: 1; stroke-width: 0px; fill: rgb(8, 81, 156); fill-opacity: 1;"/><path class="point" transform="translate(148.85,80.92)" d="M3,0A3,3 0 1,1 0,-3A3,3 0 0,1 3,0Z" style="opacity: 1; stroke-width: 0px; fill: rgb(8, 81, 156); fill-opacity: 1;"/><path class="point" transform="translate(148.85,80.92)" d="M3,0A3,3 0 1,1 0,-3A3,3 0 0,1 3,0Z" style="opacity: 1; stroke-width: 0px; fill: rgb(8, 81, 156); fill-opacity: 1;"/><path class="point" transform="translate(148.85,80.92)" d="M3,0A3,3 0 1,1 0,-3A3,3 0 0,1 3,0Z" style="opacity: 1; stroke-width: 0px; fill: rgb(8, 81, 156); fill-opacity: 1;"/><path class="point" transform="translate(148.85,80.92)" d="M3,0A3,3 0 1,1 0,-3A3,3 0 0,1 3,0Z" style="opacity: 1; stroke-width: 0px; fill: rgb(8, 81, 156); fill-opacity: 1;"/><path class="point" transform="translate(148.85,80.92)" d="M3,0A3,3 0 1,1 0,-3A3,3 0 0,1 3,0Z" style="opacity: 1; stroke-width: 0px; fill: rgb(8, 81, 156); fill-opacity: 1;"/><path class="point" transform="translate(148.85,80.92)" d="M3,0A3,3 0 1,1 0,-3A3,3 0 0,1 3,0Z" style="opacity: 1; stroke-width: 0px; fill: rgb(8, 81, 156); fill-opacity: 1;"/><path class="point" transform="translate(148.85,80.92)" d="M3,0A3,3 0 1,1 0,-3A3,3 0 0,1 3,0Z" style="opacity: 1; stroke-width: 0px; fill: rgb(8, 81, 156); fill-opacity: 1;"/></g><g class="points"><path class="point" transform="translate(215,331.55)" d="M3,0A3,3 0 1,1 0,-3A3,3 0 0,1 3,0Z" style="opacity: 1; stroke-width: 0px; fill: rgb(8, 81, 156); fill-opacity: 1;"/><path class="point" transform="translate(215,331.55)" d="M3,0A3,3 0 1,1 0,-3A3,3 0 0,1 3,0Z" style="opacity: 1; stroke-width: 0px; fill: rgb(8, 81, 156); fill-opacity: 1;"/><path class="point" transform="translate(215,331.55)" d="M3,0A3,3 0 1,1 0,-3A3,3 0 0,1 3,0Z" style="opacity: 1; stroke-width: 0px; fill: rgb(8, 81, 156); fill-opacity: 1;"/><path class="point" transform="translate(215,331.55)" d="M3,0A3,3 0 1,1 0,-3A3,3 0 0,1 3,0Z" style="opacity: 1; stroke-width: 0px; fill: rgb(8, 81, 156); fill-opacity: 1;"/><path class="point" transform="translate(215,331.55)" d="M3,0A3,3 0 1,1 0,-3A3,3 0 0,1 3,0Z" style="opacity: 1; stroke-width: 0px; fill: rgb(8, 81, 156); fill-opacity: 1;"/><path class="point" transform="translate(215,331.55)" d="M3,0A3,3 0 1,1 0,-3A3,3 0 0,1 3,0Z" style="opacity: 1; stroke-width: 0px; fill: rgb(8, 81, 156); fill-opacity: 1;"/><path class="point" transform="translate(215,331.55)" d="M3,0A3,3 0 1,1 0,-3A3,3 0 0,1 3,0Z" style="opacity: 1; stroke-width: 0px; fill: rgb(8, 81, 156); fill-opacity: 1;"/><path class="point" transform="translate(215,331.55)" d="M3,0A3,3 0 1,1 0,-3A3,3 0 0,1 3,0Z" style="opacity: 1; stroke-width: 0px; fill: rgb(8, 81, 156); fill-opacity: 1;"/><path class="point" transform="translate(215,314.76)" d="M3,0A3,3 0 1,1 0,-3A3,3 0 0,1 3,0Z" style="opacity: 1; stroke-width: 0px; fill: rgb(8, 81, 156); fill-opacity: 1;"/><path class="point" transform="translate(215,306.49)" d="M3,0A3,3 0 1,1 0,-3A3,3 0 0,1 3,0Z" style="opacity: 1; stroke-width: 0px; fill: rgb(8, 81, 156); fill-opacity: 1;"/><path class="point" transform="translate(215,281.43)" d="M3,0A3,3 0 1,1 0,-3A3,3 0 0,1 3,0Z" style="opacity: 1; stroke-width: 0px; fill: rgb(8, 81, 156); fill-opacity: 1;"/><path class="point" transform="translate(215,80.92)" d="M3,0A3,3 0 1,1 0,-3A3,3 0 0,1 3,0Z" style="opacity: 1; stroke-width: 0px; fill: rgb(8, 81, 156); fill-opacity: 1;"/><path class="point" transform="translate(215,80.92)" d="M3,0A3,3 0 1,1 0,-3A3,3 0 0,1 3,0Z" style="opacity: 1; stroke-width: 0px; fill: rgb(8, 81, 156); fill-opacity: 1;"/><path class="point" transform="translate(215,80.92)" d="M3,0A3,3 0 1,1 0,-3A3,3 0 0,1 3,0Z" style="opacity: 1; stroke-width: 0px; fill: rgb(8, 81, 156); fill-opacity: 1;"/></g><g class="points"><path class="point" transform="translate(281.15,331.55)" d="M3,0A3,3 0 1,1 0,-3A3,3 0 0,1 3,0Z" style="opacity: 1; stroke-width: 0px; fill: rgb(8, 81, 156); fill-opacity: 1;"/></g><g class="points"><path class="point" transform="translate(347.31,331.55)" d="M3,0A3,3 0 1,1 0,-3A3,3 0 0,1 3,0Z" style="opacity: 1; stroke-width: 0px; fill: rgb(8, 81, 156); fill-opacity: 1;"/><path class="point" transform="translate(347.31,331.55)" d="M3,0A3,3 0 1,1 0,-3A3,3 0 0,1 3,0Z" style="opacity: 1; stroke-width: 0px; fill: rgb(8, 81, 156); fill-opacity: 1;"/><path class="point" transform="translate(347.31,331.55)" d="M3,0A3,3 0 1,1 0,-3A3,3 0 0,1 3,0Z" style="opacity: 1; stroke-width: 0px; fill: rgb(8, 81, 156); fill-opacity: 1;"/><path class="point" transform="translate(347.31,331.55)" d="M3,0A3,3 0 1,1 0,-3A3,3 0 0,1 3,0Z" style="opacity: 1; stroke-width: 0px; fill: rgb(8, 81, 156); fill-opacity: 1;"/><path class="point" transform="translate(347.31,331.55)" d="M3,0A3,3 0 1,1 0,-3A3,3 0 0,1 3,0Z" style="opacity: 1; stroke-width: 0px; fill: rgb(8, 81, 156); fill-opacity: 1;"/><path class="point" transform="translate(347.31,331.55)" d="M3,0A3,3 0 1,1 0,-3A3,3 0 0,1 3,0Z" style="opacity: 1; stroke-width: 0px; fill: rgb(8, 81, 156); fill-opacity: 1;"/><path class="point" transform="translate(347.31,331.55)" d="M3,0A3,3 0 1,1 0,-3A3,3 0 0,1 3,0Z" style="opacity: 1; stroke-width: 0px; fill: rgb(8, 81, 156); fill-opacity: 1;"/><path class="point" transform="translate(347.31,331.55)" d="M3,0A3,3 0 1,1 0,-3A3,3 0 0,1 3,0Z" style="opacity: 1; stroke-width: 0px; fill: rgb(8, 81, 156); fill-opacity: 1;"/><path class="point" transform="translate(347.31,331.55)" d="M3,0A3,3 0 1,1 0,-3A3,3 0 0,1 3,0Z" style="opacity: 1; stroke-width: 0px; fill: rgb(8, 81, 156); fill-opacity: 1;"/><path class="point" transform="translate(347.31,331.55)" d="M3,0A3,3 0 1,1 0,-3A3,3 0 0,1 3,0Z" style="opacity: 1; stroke-width: 0px; fill: rgb(8, 81, 156); fill-opacity: 1;"/><path class="point" transform="translate(347.31,331.55)" d="M3,0A3,3 0 1,1 0,-3A3,3 0 0,1 3,0Z" style="opacity: 1; stroke-width: 0px; fill: rgb(8, 81, 156); fill-opacity: 1;"/><path class="point" transform="translate(347.31,331.55)" d="M3,0A3,3 0 1,1 0,-3A3,3 0 0,1 3,0Z" style="opacity: 1; stroke-width: 0px; fill: rgb(8, 81, 156); fill-opacity: 1;"/><path class="point" transform="translate(347.31,331.55)" d="M3,0A3,3 0 1,1 0,-3A3,3 0 0,1 3,0Z" style="opacity: 1; stroke-width: 0px; fill: rgb(8, 81, 156); fill-opacity: 1;"/><path class="point" transform="translate(347.31,331.55)" d="M3,0A3,3 0 1,1 0,-3A3,3 0 0,1 3,0Z" style="opacity: 1; stroke-width: 0px; fill: rgb(8, 81, 156); fill-opacity: 1;"/><path class="point" transform="translate(347.31,80.92)" d="M3,0A3,3 0 1,1 0,-3A3,3 0 0,1 3,0Z" style="opacity: 1; stroke-width: 0px; fill: rgb(8, 81, 156); fill-opacity: 1;"/><path class="point" transform="translate(347.31,80.92)" d="M3,0A3,3 0 1,1 0,-3A3,3 0 0,1 3,0Z" style="opacity: 1; stroke-width: 0px; fill: rgb(8, 81, 156); fill-opacity: 1;"/></g><g class="points"><path class="point" transform="translate(413.46,331.55)" d="M3,0A3,3 0 1,1 0,-3A3,3 0 0,1 3,0Z" style="opacity: 1; stroke-width: 0px; fill: rgb(8, 81, 156); fill-opacity: 1;"/><path class="point" transform="translate(413.46,331.55)" d="M3,0A3,3 0 1,1 0,-3A3,3 0 0,1 3,0Z" style="opacity: 1; stroke-width: 0px; fill: rgb(8, 81, 156); fill-opacity: 1;"/><path class="point" transform="translate(413.46,331.55)" d="M3,0A3,3 0 1,1 0,-3A3,3 0 0,1 3,0Z" style="opacity: 1; stroke-width: 0px; fill: rgb(8, 81, 156); fill-opacity: 1;"/><path class="point" transform="translate(413.46,283.93)" d="M3,0A3,3 0 1,1 0,-3A3,3 0 0,1 3,0Z" style="opacity: 1; stroke-width: 0px; fill: rgb(8, 81, 156); fill-opacity: 1;"/><path class="point" transform="translate(413.46,80.92)" d="M3,0A3,3 0 1,1 0,-3A3,3 0 0,1 3,0Z" style="opacity: 1; stroke-width: 0px; fill: rgb(8, 81, 156); fill-opacity: 1;"/><path class="point" transform="translate(413.46,80.92)" d="M3,0A3,3 0 1,1 0,-3A3,3 0 0,1 3,0Z" style="opacity: 1; stroke-width: 0px; fill: rgb(8, 81, 156); fill-opacity: 1;"/><path class="point" transform="translate(413.46,80.92)" d="M3,0A3,3 0 1,1 0,-3A3,3 0 0,1 3,0Z" style="opacity: 1; stroke-width: 0px; fill: rgb(8, 81, 156); fill-opacity: 1;"/><path class="point" transform="translate(413.46,80.92)" d="M3,0A3,3 0 1,1 0,-3A3,3 0 0,1 3,0Z" style="opacity: 1; stroke-width: 0px; fill: rgb(8, 81, 156); fill-opacity: 1;"/><path class="point" transform="translate(413.46,80.92)" d="M3,0A3,3 0 1,1 0,-3A3,3 0 0,1 3,0Z" style="opacity: 1; stroke-width: 0px; fill: rgb(8, 81, 156); fill-opacity: 1;"/><path class="point" transform="translate(413.46,80.92)" d="M3,0A3,3 0 1,1 0,-3A3,3 0 0,1 3,0Z" style="opacity: 1; stroke-width: 0px; fill: rgb(8, 81, 156); fill-opacity: 1;"/><path class="point" transform="translate(413.46,80.92)" d="M3,0A3,3 0 1,1 0,-3A3,3 0 0,1 3,0Z" style="opacity: 1; stroke-width: 0px; fill: rgb(8, 81, 156); fill-opacity: 1;"/></g></g><g class="trace violins" style="opacity: 1;"><path class="violin" d="M16.54,51.17L16.39,51.17Q16.31,54.46 16.25,56.1C16.19,57.74 16.13,59.38 16.05,61.02C15.97,62.66 15.88,64.3 15.78,65.94C15.68,67.58 15.57,69.22 15.46,70.86C15.35,72.5 15.24,74.15 15.12,75.79C15.01,77.43 14.89,79.07 14.77,80.71C14.66,82.35 14.55,83.99 14.43,85.63C14.31,87.27 14.2,88.91 14.07,90.55C13.94,92.19 13.81,93.84 13.66,95.48C13.52,97.12 13.36,98.76 13.2,100.4C13.04,102.04 12.86,103.68 12.69,105.32C12.51,106.96 12.33,108.61 12.15,110.25C11.97,111.89 11.79,113.53 11.61,115.17C11.43,116.81 11.24,118.45 11.06,120.09C10.88,121.73 10.7,123.37 10.52,125.01C10.34,126.65 10.17,128.3 10,129.94C9.83,131.58 9.66,133.22 9.5,134.86C9.34,136.5 9.18,138.14 9.03,139.78C8.89,141.42 8.75,143.06 8.63,144.7C8.51,146.34 8.41,147.99 8.33,149.63C8.25,151.27 8.17,152.91 8.14,154.55C8.11,156.19 8.1,157.83 8.12,159.47C8.14,161.11 8.19,162.75 8.26,164.39C8.34,166.03 8.45,167.68 8.57,169.32C8.69,170.96 8.84,172.6 8.99,174.24C9.14,175.88 9.31,177.52 9.47,179.16C9.64,180.8 9.81,182.45 9.98,184.09C10.15,185.73 10.33,187.37 10.5,189.01C10.67,190.65 10.84,192.29 11.02,193.93C11.2,195.57 11.38,197.21 11.57,198.85C11.76,200.49 11.95,202.14 12.15,203.78C12.35,205.42 12.56,207.06 12.77,208.7C12.97,210.34 13.18,211.98 13.38,213.62C13.58,215.26 13.79,216.9 13.97,218.54C14.15,220.18 14.32,221.83 14.48,223.47C14.64,225.11 14.78,226.75 14.91,228.39C15.04,230.03 15.16,231.67 15.26,233.31C15.36,234.95 15.45,236.59 15.53,238.23C15.61,239.87 15.67,241.52 15.73,243.16C15.79,244.8 15.84,246.44 15.88,248.08C15.92,249.72 15.96,251.36 15.99,253C16.03,254.64 16.06,256.29 16.09,257.93C16.12,259.57 16.14,261.21 16.17,262.85C16.2,264.49 16.23,266.13 16.26,267.77C16.29,269.41 16.32,271.05 16.34,272.69C16.36,274.33 16.38,275.98 16.4,277.62C16.42,279.26 16.44,280.9 16.46,282.54C16.47,284.18 16.48,285.82 16.49,287.46C16.5,289.1 16.51,290.74 16.51,292.38C16.52,294.02 16.52,295.67 16.52,297.31C16.52,298.95 16.51,300.59 16.51,302.23C16.51,303.87 16.51,305.51 16.5,307.15C16.49,308.79 16.48,310.43 16.47,312.07C16.46,313.71 16.46,315.36 16.45,317C16.44,318.64 16.43,320.28 16.42,321.92C16.41,323.56 16.41,325.2 16.4,326.84C16.4,328.48 16.39,330.12 16.39,331.76C16.39,333.4 16.39,335.05 16.4,336.69C16.4,338.33 16.41,339.97 16.42,341.61C16.43,343.25 16.44,344.89 16.45,346.53C16.46,348.17 16.47,349.82 16.48,351.46C16.49,353.1 16.49,354.74 16.5,356.38Q16.51,358.02 16.52,361.3L16.54,361.3" style="vector-effect: non-scaling-stroke; stroke-width: 2px; stroke: rgb(107, 174, 214); stroke-opacity: 1; fill: rgb(107, 174, 214); fill-opacity: 0.5;"/><path class="violin" d="M82.69,83.13L82.23,83.13Q81.98,85.52 81.81,86.71C81.63,87.9 81.43,89.09 81.18,90.28C80.93,91.48 80.64,92.67 80.33,93.86C80.02,95.05 79.66,96.24 79.3,97.43C78.94,98.62 78.55,99.81 78.18,101C77.81,102.19 77.44,103.39 77.09,104.58C76.74,105.77 76.4,106.96 76.07,108.15C75.74,109.34 75.45,110.54 75.13,111.73C74.81,112.92 74.52,114.11 74.17,115.3C73.82,116.5 73.46,117.69 73.05,118.88C72.64,120.08 72.17,121.27 71.69,122.45C71.2,123.65 70.66,124.83 70.15,126.02C69.63,127.21 69.08,128.4 68.6,129.6C68.13,130.78 67.65,131.97 67.31,133.17C66.97,134.35 66.69,135.55 66.55,136.75C66.41,137.93 66.38,139.13 66.48,140.32C66.58,141.52 66.82,142.72 67.13,143.9C67.44,145.1 67.88,146.29 68.35,147.47C68.82,148.67 69.4,149.85 69.96,151.04C70.53,152.24 71.15,153.43 71.73,154.62C72.31,155.81 72.9,156.99 73.44,158.19C73.97,159.38 74.49,160.57 74.94,161.77C75.39,162.95 75.78,164.14 76.14,165.34C76.49,166.53 76.79,167.72 77.07,168.92C77.35,170.11 77.57,171.3 77.81,172.49C78.05,173.68 78.26,174.87 78.49,176.06C78.72,177.25 78.96,178.45 79.2,179.64C79.45,180.83 79.71,182.02 79.96,183.21C80.21,184.4 80.47,185.6 80.71,186.79C80.95,187.98 81.18,189.17 81.38,190.36C81.58,191.55 81.75,192.74 81.9,193.93Q82.05,195.12 82.26,197.51L82.69,197.51" style="vector-effect: non-scaling-stroke; stroke-width: 2px; stroke: rgb(107, 174, 214); stroke-opacity: 1; fill: rgb(107, 174, 214); fill-opacity: 0.5;"/><path class="violin" d="M148.85,44.58L148.63,44.58Q148.53,48.57 148.45,50.57C148.38,52.56 148.28,54.56 148.18,56.55C148.08,58.55 147.96,60.54 147.84,62.54C147.72,64.54 147.59,66.53 147.46,68.53C147.34,70.53 147.2,72.52 147.09,74.52C146.98,76.51 146.87,78.51 146.78,80.5C146.69,82.5 146.62,84.49 146.56,86.49C146.5,88.49 146.45,90.48 146.41,92.48C146.37,94.48 146.34,96.47 146.3,98.47C146.27,100.46 146.24,102.46 146.2,104.45C146.16,106.45 146.12,108.44 146.07,110.44C146.02,112.44 145.97,114.43 145.91,116.43C145.85,118.42 145.79,120.42 145.72,122.41C145.65,124.41 145.57,126.4 145.48,128.4C145.39,130.4 145.29,132.39 145.18,134.39C145.06,136.39 144.94,138.38 144.79,140.38C144.64,142.37 144.48,144.37 144.3,146.36C144.12,148.36 143.91,150.35 143.7,152.35C143.49,154.35 143.25,156.34 143.03,158.34C142.8,160.34 142.57,162.33 142.35,164.33C142.13,166.32 141.91,168.31 141.72,170.31C141.53,172.3 141.36,174.3 141.22,176.3C141.09,178.3 140.97,180.29 140.91,182.29C140.85,184.29 140.82,186.28 140.84,188.28C140.86,190.27 140.93,192.27 141.05,194.26C141.17,196.26 141.34,198.26 141.55,200.25C141.76,202.25 142.04,204.25 142.32,206.24C142.6,208.24 142.93,210.23 143.24,212.22C143.56,214.22 143.9,216.21 144.21,218.21C144.52,220.21 144.83,222.2 145.1,224.2C145.37,226.19 145.62,228.19 145.84,230.19C146.06,232.18 146.24,234.17 146.41,236.17C146.58,238.16 146.71,240.16 146.84,242.16C146.97,244.16 147.09,246.15 147.2,248.15C147.31,250.15 147.41,252.14 147.51,254.14C147.61,256.13 147.7,258.13 147.79,260.12C147.88,262.12 147.97,264.11 148.05,266.11C148.13,268.11 148.21,270.1 148.28,272.1C148.35,274.1 148.41,276.09 148.46,278.09C148.51,280.08 148.56,282.08 148.59,284.07C148.63,286.07 148.65,288.06 148.67,290.06C148.69,292.06 148.7,294.05 148.7,296.05C148.7,298.04 148.69,300.04 148.68,302.03C148.67,304.03 148.64,306.02 148.62,308.02C148.6,310.02 148.57,312.01 148.54,314.01C148.51,316.01 148.48,318 148.46,320C148.44,321.99 148.41,323.99 148.4,325.98C148.39,327.98 148.38,329.97 148.38,331.97C148.38,333.97 148.39,335.96 148.41,337.96C148.43,339.96 148.45,341.95 148.48,343.95C148.51,345.94 148.54,347.94 148.57,349.93C148.6,351.93 148.63,353.92 148.66,355.92C148.69,357.92 148.71,359.91 148.73,361.91Q148.75,363.9 148.78,367.89L148.85,367.89" style="vector-effect: non-scaling-stroke; stroke-width: 2px; stroke: rgb(107, 174, 214); stroke-opacity: 1; fill: rgb(107, 174, 214); fill-opacity: 0.5;"/><path class="violin" d="M215,43.76L214.87,43.76Q214.81,47.85 214.76,49.89C214.71,51.93 214.65,53.98 214.59,56.02C214.52,58.06 214.45,60.11 214.37,62.15C214.29,64.19 214.2,66.24 214.11,68.28C214.02,70.33 213.93,72.37 213.84,74.42C213.75,76.46 213.66,78.51 213.57,80.55C213.48,82.59 213.4,84.64 213.31,86.68C213.22,88.72 213.14,90.77 213.05,92.81C212.96,94.85 212.86,96.9 212.76,98.94C212.66,100.98 212.55,103.03 212.43,105.07C212.31,107.11 212.18,109.16 212.05,111.2C211.92,113.24 211.78,115.29 211.63,117.33C211.48,119.38 211.33,121.42 211.17,123.47C211.01,125.51 210.85,127.56 210.68,129.6C210.51,131.64 210.33,133.69 210.15,135.73C209.97,137.77 209.77,139.82 209.58,141.86C209.38,143.9 209.18,145.95 208.98,147.99C208.78,150.03 208.58,152.08 208.4,154.12C208.22,156.16 208.05,158.21 207.91,160.25C207.77,162.29 207.66,164.34 207.58,166.38C207.5,168.43 207.45,170.47 207.44,172.52C207.43,174.56 207.46,176.61 207.52,178.65C207.58,180.69 207.68,182.74 207.8,184.78C207.92,186.82 208.07,188.87 208.23,190.91C208.39,192.95 208.58,195 208.77,197.04C208.96,199.08 209.16,201.13 209.36,203.17C209.56,205.21 209.77,207.26 209.98,209.3C210.19,211.34 210.4,213.39 210.61,215.43C210.82,217.48 211.03,219.52 211.24,221.57C211.45,223.61 211.65,225.66 211.85,227.7C212.05,229.74 212.24,231.79 212.43,233.83C212.61,235.87 212.79,237.92 212.96,239.96C213.12,242 213.28,244.05 213.42,246.09C213.56,248.13 213.68,250.18 213.79,252.22C213.9,254.26 213.99,256.31 214.07,258.35C214.15,260.39 214.21,262.44 214.26,264.48C214.31,266.53 214.35,268.57 214.39,270.62C214.42,272.66 214.45,274.71 214.47,276.75C214.49,278.79 214.51,280.84 214.53,282.88C214.55,284.92 214.56,286.97 214.57,289.01C214.58,291.05 214.6,293.1 214.6,295.14C214.6,297.18 214.6,299.23 214.59,301.27C214.58,303.31 214.56,305.36 214.54,307.4C214.52,309.44 214.49,311.49 214.46,313.53C214.43,315.58 214.4,317.62 214.37,319.67C214.34,321.71 214.31,323.76 214.3,325.8C214.29,327.84 214.28,329.89 214.28,331.93C214.28,333.97 214.3,336.02 214.33,338.06C214.36,340.1 214.4,342.15 214.44,344.19C214.48,346.23 214.53,348.28 214.57,350.32C214.62,352.36 214.67,354.41 214.71,356.45C214.75,358.49 214.79,360.54 214.82,362.58Q214.85,364.62 214.9,368.71L215,368.71" style="vector-effect: non-scaling-stroke; stroke-width: 2px; stroke: rgb(107, 174, 214); stroke-opacity: 1; fill: rgb(107, 174, 214); fill-opacity: 0.5;"/><path class="violin" d="M281.15,37L281.03,37Q280.96,41.77 280.91,44.16C280.86,46.55 280.79,48.93 280.71,51.32C280.63,53.71 280.53,56.09 280.41,58.48C280.29,60.86 280.14,63.25 279.98,65.63C279.82,68.02 279.63,70.4 279.43,72.79C279.23,75.18 279,77.56 278.76,79.95C278.52,82.34 278.27,84.72 278.01,87.11C277.75,89.5 277.48,91.88 277.22,94.27C276.96,96.65 276.7,99.04 276.46,101.42C276.22,103.81 275.99,106.19 275.79,108.58C275.59,110.97 275.42,113.35 275.28,115.74C275.14,118.13 275.03,120.51 274.95,122.9C274.87,125.29 274.82,127.67 274.78,130.06C274.74,132.44 274.73,134.83 274.72,137.21C274.71,139.6 274.71,141.98 274.7,144.37C274.69,146.76 274.69,149.14 274.68,151.53C274.67,153.92 274.66,156.3 274.65,158.69C274.64,161.08 274.62,163.46 274.63,165.85C274.64,168.23 274.64,170.62 274.68,173C274.72,175.39 274.77,177.77 274.86,180.16C274.95,182.55 275.06,184.93 275.21,187.32C275.36,189.71 275.54,192.09 275.74,194.48C275.94,196.87 276.17,199.25 276.41,201.64C276.64,204.02 276.9,206.41 277.15,208.79C277.4,211.18 277.65,213.56 277.89,215.95C278.13,218.34 278.36,220.72 278.57,223.11C278.78,225.5 278.98,227.88 279.17,230.27C279.35,232.65 279.52,235.04 279.68,237.42C279.84,239.81 279.99,242.19 280.12,244.58C280.25,246.97 280.36,249.35 280.46,251.74C280.56,254.13 280.65,256.51 280.73,258.9C280.8,261.29 280.86,263.67 280.91,266.06Q280.96,268.44 281.03,273.21L281.15,273.21" style="vector-effect: non-scaling-stroke; stroke-width: 2px; stroke: rgb(107, 174, 214); stroke-opacity: 1; fill: rgb(107, 174, 214); fill-opacity: 0.5;"/><path class="violin" d="M347.31,19.6L347.11,19.6Q347.01,26.38 346.94,29.77C346.87,33.16 346.79,36.56 346.7,39.95C346.61,43.34 346.51,46.73 346.41,50.12C346.31,53.51 346.2,56.9 346.1,60.29C346,63.68 345.91,67.08 345.83,70.47C345.76,73.86 345.7,77.25 345.65,80.64C345.6,84.03 345.57,87.42 345.55,90.81C345.53,94.2 345.53,97.6 345.51,100.99C345.49,104.38 345.48,107.77 345.44,111.16C345.4,114.55 345.36,117.95 345.29,121.34C345.23,124.73 345.14,128.12 345.05,131.51C344.96,134.9 344.84,138.29 344.73,141.68C344.62,145.07 344.49,148.47 344.38,151.86C344.27,155.25 344.16,158.64 344.05,162.03C343.94,165.42 343.85,168.81 343.74,172.2C343.63,175.59 343.53,178.99 343.41,182.38C343.29,185.77 343.16,189.16 343.01,192.55C342.86,195.94 342.68,199.33 342.51,202.72C342.34,206.11 342.14,209.51 341.97,212.9C341.8,216.29 341.62,219.68 341.51,223.07C341.4,226.46 341.31,229.85 341.3,233.24C341.29,236.63 341.34,240.03 341.45,243.42C341.56,246.81 341.76,250.2 341.99,253.59C342.22,256.98 342.53,260.37 342.83,263.76C343.13,267.15 343.48,270.55 343.81,273.94C344.14,277.33 344.49,280.72 344.79,284.11C345.09,287.5 345.38,290.89 345.63,294.28C345.88,297.67 346.1,301.07 346.28,304.46C346.46,307.85 346.61,311.24 346.73,314.63C346.85,318.02 346.94,321.42 347.01,324.81Q347.08,328.2 347.16,334.98L347.31,334.98" style="vector-effect: non-scaling-stroke; stroke-width: 2px; stroke: rgb(107, 174, 214); stroke-opacity: 1; fill: rgb(107, 174, 214); fill-opacity: 0.5;"/><path class="violin" d="M413.46,45.39L413.33,45.39Q413.26,49.27 413.21,51.21C413.16,53.15 413.09,55.08 413.01,57.02C412.93,58.96 412.84,60.89 412.74,62.83C412.64,64.77 412.52,66.71 412.4,68.65C412.28,70.59 412.14,72.52 412.01,74.46C411.88,76.4 411.73,78.34 411.6,80.28C411.47,82.22 411.34,84.15 411.21,86.09C411.08,88.03 410.96,89.96 410.84,91.9C410.72,93.84 410.61,95.78 410.51,97.72C410.41,99.66 410.31,101.59 410.22,103.53C410.13,105.47 410.05,107.41 409.97,109.35C409.9,111.29 409.83,113.22 409.77,115.16C409.71,117.1 409.66,119.04 409.6,120.98C409.54,122.92 409.48,124.85 409.39,126.79C409.3,128.73 409.2,130.66 409.06,132.6C408.92,134.54 408.75,136.48 408.54,138.42C408.33,140.36 408.08,142.29 407.81,144.23C407.54,146.17 407.21,148.11 406.91,150.05C406.61,151.99 406.29,153.92 406.01,155.86C405.74,157.8 405.46,159.74 405.26,161.68C405.06,163.61 404.9,165.55 404.82,167.49C404.74,169.43 404.73,171.36 404.77,173.3C404.81,175.24 404.93,177.18 405.08,179.12C405.23,181.06 405.44,182.99 405.65,184.93C405.86,186.87 406.11,188.81 406.35,190.75C406.59,192.69 406.84,194.62 407.08,196.56C407.32,198.5 407.56,200.44 407.79,202.38C408.02,204.32 408.25,206.25 408.48,208.19C408.71,210.13 408.95,212.06 409.19,214C409.43,215.94 409.68,217.88 409.92,219.82C410.16,221.76 410.41,223.69 410.64,225.63C410.87,227.57 411.09,229.51 411.28,231.45C411.47,233.39 411.63,235.32 411.78,237.26C411.92,239.2 412.05,241.13 412.15,243.07C412.25,245.01 412.32,246.95 412.39,248.89C412.46,250.83 412.52,252.76 412.57,254.7C412.62,256.64 412.66,258.58 412.71,260.52C412.76,262.46 412.81,264.39 412.86,266.33C412.91,268.27 412.96,270.21 413.01,272.15C413.06,274.09 413.11,276.02 413.15,277.96C413.19,279.9 413.23,281.83 413.26,283.77C413.29,285.71 413.33,287.65 413.35,289.59Q413.37,291.53 413.4,295.4L413.46,295.4" style="vector-effect: non-scaling-stroke; stroke-width: 2px; stroke: rgb(107, 174, 214); stroke-opacity: 1; fill: rgb(107, 174, 214); fill-opacity: 0.5;"/><path class="box" d="M10.49,157.87H14.54M10.49,182.87H14.54V131.05H10.49ZM14.54,182.87V259.87M14.54,131.05V80.92" style="vector-effect: non-scaling-stroke; stroke-width: 2px; stroke: rgb(107, 174, 214); stroke-opacity: 1; fill: rgb(107, 174, 214); fill-opacity: 0.5;"/><path class="box" d="M76.64,137.44H80.69M76.64,149.09H80.69V127.04H76.64ZM80.69,149.09V175.66M80.69,127.04V104.98" style="vector-effect: non-scaling-stroke; stroke-width: 2px; stroke: rgb(107, 174, 214); stroke-opacity: 1; fill: rgb(107, 174, 214); fill-opacity: 0.5;"/><path class="box" d="M142.79,178.42H146.85M142.79,203.35H146.85V142.95H142.79ZM146.85,203.35V268.89M146.85,142.95V80.92" style="vector-effect: non-scaling-stroke; stroke-width: 2px; stroke: rgb(107, 174, 214); stroke-opacity: 1; fill: rgb(107, 174, 214); fill-opacity: 0.5;"/><path class="box" d="M208.95,172.15H213M208.95,206.24H213V143.58H208.95ZM213,206.24V289.7M213,143.58V80.92" style="vector-effect: non-scaling-stroke; stroke-width: 2px; stroke: rgb(107, 174, 214); stroke-opacity: 1; fill: rgb(107, 174, 214); fill-opacity: 0.5;"/><path class="box" d="M275.1,151.35H279.15M275.1,186.37H279.15V119.96H275.1ZM279.15,186.37V229.3M279.15,119.96V80.92" style="vector-effect: non-scaling-stroke; stroke-width: 2px; stroke: rgb(107, 174, 214); stroke-opacity: 1; fill: rgb(107, 174, 214); fill-opacity: 0.5;"/><path class="box" d="M341.26,223.78H345.31M341.26,238.32H345.31V165.2H341.26ZM345.31,238.32V273.66M345.31,165.2V80.92" style="vector-effect: non-scaling-stroke; stroke-width: 2px; stroke: rgb(107, 174, 214); stroke-opacity: 1; fill: rgb(107, 174, 214); fill-opacity: 0.5;"/><path class="box" d="M407.41,169.14H411.46M407.41,190.45H411.46V140.57H407.41ZM411.46,190.45V259.87M411.46,140.57V80.92" style="vector-effect: non-scaling-stroke; stroke-width: 2px; stroke: rgb(107, 174, 214); stroke-opacity: 1; fill: rgb(107, 174, 214); fill-opacity: 0.5;"/><path class="mean" d="M10.49,157.77H14.54" style="fill: none; vector-effect: non-scaling-stroke; stroke-width: 1px; stroke-dasharray: 2px, 1px; stroke: rgb(0, 0, 139); stroke-opacity: 1;"/><path class="mean" d="M76.64,138.52H80.69" style="fill: none; vector-effect: non-scaling-stroke; stroke-width: 1px; stroke-dasharray: 2px, 1px; stroke: rgb(0, 0, 139); stroke-opacity: 1;"/><path class="mean" d="M142.79,173.94H146.85" style="fill: none; vector-effect: non-scaling-stroke; stroke-width: 1px; stroke-dasharray: 2px, 1px; stroke: rgb(0, 0, 139); stroke-opacity: 1;"/><path class="mean" d="M208.95,176.16H213" style="fill: none; vector-effect: non-scaling-stroke; stroke-width: 1px; stroke-dasharray: 2px, 1px; stroke: rgb(0, 0, 139); stroke-opacity: 1;"/><path class="mean" d="M275.1,153.09H279.15" style="fill: none; vector-effect: non-scaling-stroke; stroke-width: 1px; stroke-dasharray: 2px, 1px; stroke: rgb(0, 0, 139); stroke-opacity: 1;"/><path class="mean" d="M341.26,196.82H345.31" style="fill: none; vector-effect: non-scaling-stroke; stroke-width: 1px; stroke-dasharray: 2px, 1px; stroke: rgb(0, 0, 139); stroke-opacity: 1;"/><path class="mean" d="M407.41,164.56H411.46" style="fill: none; vector-effect: non-scaling-stroke; stroke-width: 1px; stroke-dasharray: 2px, 1px; stroke: rgb(0, 0, 139); stroke-opacity: 1;"/><g class="points"><path class="point" transform="translate(16.54,331.55)" d="M3,0A3,3 0 1,1 0,-3A3,3 0 0,1 3,0Z" style="opacity: 1; stroke-width: 0px; fill: rgb(107, 174, 214); fill-opacity: 1;"/></g><g class="points"/><g class="points"><path class="point" transform="translate(148.85,331.55)" d="M3,0A3,3 0 1,1 0,-3A3,3 0 0,1 3,0Z" style="opacity: 1; stroke-width: 0px; fill: rgb(107, 174, 214); fill-opacity: 1;"/><path class="point" transform="translate(148.85,331.55)" d="M3,0A3,3 0 1,1 0,-3A3,3 0 0,1 3,0Z" style="opacity: 1; stroke-width: 0px; fill: rgb(107, 174, 214); fill-opacity: 1;"/><path class="point" transform="translate(148.85,331.55)" d="M3,0A3,3 0 1,1 0,-3A3,3 0 0,1 3,0Z" style="opacity: 1; stroke-width: 0px; fill: rgb(107, 174, 214); fill-opacity: 1;"/></g><g class="points"><path class="point" transform="translate(215,331.55)" d="M3,0A3,3 0 1,1 0,-3A3,3 0 0,1 3,0Z" style="opacity: 1; stroke-width: 0px; fill: rgb(107, 174, 214); fill-opacity: 1;"/><path class="point" transform="translate(215,331.55)" d="M3,0A3,3 0 1,1 0,-3A3,3 0 0,1 3,0Z" style="opacity: 1; stroke-width: 0px; fill: rgb(107, 174, 214); fill-opacity: 1;"/><path class="point" transform="translate(215,331.55)" d="M3,0A3,3 0 1,1 0,-3A3,3 0 0,1 3,0Z" style="opacity: 1; stroke-width: 0px; fill: rgb(107, 174, 214); fill-opacity: 1;"/><path class="point" transform="translate(215,331.55)" d="M3,0A3,3 0 1,1 0,-3A3,3 0 0,1 3,0Z" style="opacity: 1; stroke-width: 0px; fill: rgb(107, 174, 214); fill-opacity: 1;"/><path class="point" transform="translate(215,331.55)" d="M3,0A3,3 0 1,1 0,-3A3,3 0 0,1 3,0Z" style="opacity: 1; stroke-width: 0px; fill: rgb(107, 174, 214); fill-opacity: 1;"/></g><g class="points"/><g class="points"/><g class="points"/></g></g></g><g class="overplot"/><path class="xlines-above crisp" d="M0,0" style="fill: none;"/><path class="ylines-above crisp" d="M0,0" style="fill: none;"/><g class="overlines-above"/><g class="xaxislayer-above"><g class="xtick"><text text-anchor="middle" x="0" y="455" transform="translate(68.53999999999999,0)" style="font-family: 'Open Sans', verdana, arial, sans-serif; font-size: 12px; fill: rgb(68, 68, 68); fill-opacity: 1; white-space: pre; opacity: 1;"></text></g><g class="xtick"><text text-anchor="middle" x="0" y="455" transform="translate(134.69,0)" style="font-family: 'Open Sans', verdana, arial, sans-serif; font-size: 12px; fill: rgb(68, 68, 68); fill-opacity: 1; white-space: pre; opacity: 1;"></text></g><g class="xtick"><text text-anchor="middle" x="0" y="455" transform="translate(200.85,0)" style="font-family: 'Open Sans', verdana, arial, sans-serif; font-size: 12px; fill: rgb(68, 68, 68); fill-opacity: 1; white-space: pre; opacity: 1;"></text></g><g class="xtick"><text text-anchor="middle" x="0" y="455" transform="translate(267,0)" style="font-family: 'Open Sans', verdana, arial, sans-serif; font-size: 12px; fill: rgb(68, 68, 68); fill-opacity: 1; white-space: pre; opacity: 1;"></text></g><g class="xtick"><text text-anchor="middle" x="0" y="455" transform="translate(333.15,0)" style="font-family: 'Open Sans', verdana, arial, sans-serif; font-size: 12px; fill: rgb(68, 68, 68); fill-opacity: 1; white-space: pre; opacity: 1;"></text></g><g class="xtick"><text text-anchor="middle" x="0" y="455" transform="translate(399.31,0)" style="font-family: 'Open Sans', verdana, arial, sans-serif; font-size: 12px; fill: rgb(68, 68, 68); fill-opacity: 1; white-space: pre; opacity: 1;"></text></g><g class="xtick"><text text-anchor="middle" x="0" y="455" transform="translate(465.46,0)" style="font-family: 'Open Sans', verdana, arial, sans-serif; font-size: 12px; fill: rgb(68, 68, 68); fill-opacity: 1; white-space: pre; opacity: 1;"></text></g></g><g class="yaxislayer-above"><g class="ytick"><text text-anchor="end" x="51" y="4.199999999999999" transform="translate(0,431.68)" style="font-family: 'Open Sans', verdana, arial, sans-serif; font-size: 12px; fill: rgb(68, 68, 68); fill-opacity: 1; white-space: pre; opacity: 1;">20</text></g><g class="ytick"><text text-anchor="end" x="51" y="4.199999999999999" style="font-family: 'Open Sans', verdana, arial, sans-serif; font-size: 12px; fill: rgb(68, 68, 68); fill-opacity: 1; white-space: pre; opacity: 1;" transform="translate(0,381.55)">0</text></g><g class="ytick"><text text-anchor="end" x="51" y="4.199999999999999" style="font-family: 'Open Sans', verdana, arial, sans-serif; font-size: 12px; fill: rgb(68, 68, 68); fill-opacity: 1; white-space: pre; opacity: 1;" transform="translate(0,331.43)">20</text></g><g class="ytick"><text text-anchor="end" x="51" y="4.199999999999999" style="font-family: 'Open Sans', verdana, arial, sans-serif; font-size: 12px; fill: rgb(68, 68, 68); fill-opacity: 1; white-space: pre; opacity: 1;" transform="translate(0,281.3)">40</text></g><g class="ytick"><text text-anchor="end" x="51" y="4.199999999999999" style="font-family: 'Open Sans', verdana, arial, sans-serif; font-size: 12px; fill: rgb(68, 68, 68); fill-opacity: 1; white-space: pre; opacity: 1;" transform="translate(0,231.17)">60</text></g><g class="ytick"><text text-anchor="end" x="51" y="4.199999999999999" style="font-family: 'Open Sans', verdana, arial, sans-serif; font-size: 12px; fill: rgb(68, 68, 68); fill-opacity: 1; white-space: pre; opacity: 1;" transform="translate(0,181.05)">80</text></g><g class="ytick"><text text-anchor="end" x="51" y="4.199999999999999" style="font-family: 'Open Sans', verdana, arial, sans-serif; font-size: 12px; fill: rgb(68, 68, 68); fill-opacity: 1; white-space: pre; opacity: 1;" transform="translate(0,130.92000000000002)">100</text></g><g class="ytick"><text text-anchor="end" x="51" y="4.199999999999999" style="font-family: 'Open Sans', verdana, arial, sans-serif; font-size: 12px; fill: rgb(68, 68, 68); fill-opacity: 1; white-space: pre; opacity: 1;" transform="translate(0,80.8)">120</text></g></g><g class="overaxes-above"/></g></g><g class="polarlayer"/><g class="ternarylayer"/><g class="geolayer"/><g class="funnelarealayer"/><g class="pielayer"/><g class="iciclelayer"/><g class="treemaplayer"/><g class="sunburstlayer"/><g class="glimages"/><defs id="topdefs-da0c8c"><g class="clips"/><clipPath id="legendda0c8c"><rect width="93" height="48" x="0" y="0"/></clipPath></defs><g class="layer-above"><g class="imagelayer"/><g class="shapelayer"/></g><g class="infolayer"><g class="legend" pointer-events="all" transform="translate(490.6,50)"><rect class="bg" shape-rendering="crispEdges" width="93" height="48" x="0" y="0" style="stroke: rgb(68, 68, 68); stroke-opacity: 1; fill: rgb(255, 255, 255); fill-opacity: 1; stroke-width: 0px;"/><g class="scrollbox" transform="" clip-path="url(#legendda0c8c)"><g class="groups"><g class="traces" transform="translate(0,14.5)" style="opacity: 1;"><text class="legendtext" text-anchor="start" x="40" y="4.680000000000001" style="font-family: 'Open Sans', verdana, arial, sans-serif; font-size: 12px; fill: rgb(68, 68, 68); fill-opacity: 1; white-space: pre;"></text><g class="layers" style="opacity: 1;"><g class="legendfill"/><g class="legendlines"/><g class="legendsymbols"><g class="legendpoints"><path class="legendbox" d="M6,6H-6V-6H6Z" transform="translate(20,0)" style="stroke-width: 2px; fill: rgb(8, 81, 156); fill-opacity: 0.5; stroke: rgb(8, 81, 156); stroke-opacity: 1;"/></g></g></g><rect class="legendtoggle" x="0" y="-9.5" width="87.9847297668457" height="19" style="fill: rgb(0, 0, 0); fill-opacity: 0;"/></g><g class="traces" transform="translate(0,33.5)" style="opacity: 1;"><text class="legendtext" text-anchor="start" x="40" y="4.680000000000001" style="font-family: 'Open Sans', verdana, arial, sans-serif; font-size: 12px; fill: rgb(68, 68, 68); fill-opacity: 1; white-space: pre;"></text><g class="layers" style="opacity: 1;"><g class="legendfill"/><g class="legendlines"/><g class="legendsymbols"><g class="legendpoints"><path class="legendbox" d="M6,6H-6V-6H6Z" transform="translate(20,0)" style="stroke-width: 2px; fill: rgb(107, 174, 214); fill-opacity: 0.5; stroke: rgb(107, 174, 214); stroke-opacity: 1;"/></g></g></g><rect class="legendtoggle" x="0" y="-9.5" width="87.9847297668457" height="19" style="fill: rgb(0, 0, 0); fill-opacity: 0;"/></g></g></g><rect class="scrollbar" rx="20" ry="3" width="0" height="0" x="0" y="0" style="fill: rgb(128, 139, 164); fill-opacity: 1;"/></g><g class="g-gtitle"><text class="gtitle" x="298.182" y="25" text-anchor="middle" dy="0em" style="font-family: 'Open Sans', verdana, arial, sans-serif; font-size: 17px; fill: rgb(68, 68, 68); opacity: 1; font-weight: normal; white-space: pre;">   </text></g><g class="g-xtitle" transform="translate(0,-13.099174179077124)"><text class="xtitle" x="267" y="494" text-anchor="middle" style="font-family: 'Open Sans', verdana, arial, sans-serif; font-size: 14px; fill: rgb(68, 68, 68); opacity: 1; font-weight: normal; white-space: pre;"></text></g><g class="g-ytitle"><text class="ytitle" transform="rotate(-90,14,246)" x="14" y="246" text-anchor="middle" style="font-family: 'Open Sans', verdana, arial, sans-serif; font-size: 14px; fill: rgb(68, 68, 68); opacity: 1; font-weight: normal; white-space: pre;"></text></g></g></svg>