<svg class="main-svg" xmlns="http://www.w3.org/2000/svg" xmlns:xlink="http://www.w3.org/1999/xlink" width="626.364" height="465.455" style="" viewBox="0 0 626.364 465.455"><rect x="0" y="0" width="626.364" height="465.455" style="fill: rgb(255, 255, 255); fill-opacity: 1;"/><defs id="defs-bffc2f"><g class="clips"><clipPath id="clipbffc2fxyplot" class="plotclip"><rect width="406" height="373"/></clipPath><clipPath class="axesclip" id="clipbffc2fx"><rect x="58" y="0" width="406" height="465.455"/></clipPath><clipPath class="axesclip" id="clipbffc2fy"><rect x="0" y="50" width="626.364" height="373"/></clipPath><clipPath class="axesclip" id="clipbffc2fxy"><rect x="58" y="50" width="406" height="373"/></clipPath></g><g class="gradients"/><g class="patterns"/></defs><g class="bglayer"/><g class="layer-below"><g class="imagelayer"/><g class="shapelayer"/></g><g class="cartesianlayer"><g class="subplot xy"><g class="layer-subplot"><g class="shapelayer"/><g class="imagelayer"/></g><g class="gridlayer"><g class="x"><path class="xgrid crisp" transform="translate(115.68,0)" d="M0,50v373" style="stroke: rgb(238, 238, 238); stroke-opacity: 1; stroke-width: 1px;"/><path class="xgrid crisp" transform="translate(185.04000000000002,0)" d="M0,50v373" style="stroke: rgb(238, 238, 238); stroke-opacity: 1; stroke-width: 1px;"/><path class="xgrid crisp" transform="translate(253.27,0)" d="M0,50v373" style="stroke: rgb(238, 238, 238); stroke-opacity: 1; stroke-width: 1px;"/><path class="xgrid crisp" transform="translate(322.64,0)" d="M0,50v373" style="stroke: rgb(238, 238, 238); stroke-opacity: 1; stroke-width: 1px;"/><path class="xgrid crisp" transform="translate(390.87,0)" d="M0,50v373" style="stroke: rgb(238, 238, 238); stroke-opacity: 1; stroke-width: 1px;"/><path class="xgrid crisp" transform="translate(460.23,0)" d="M0,50v373" style="stroke: rgb(238, 238, 238); stroke-opacity: 1; stroke-width: 1px;"/></g><g class="y"><path class="ygrid crisp" transform="translate(0,352.66)" d="M58,0h406" style="stroke: rgb(238, 238, 238); stroke-opacity: 1; stroke-width: 1px;"/><path class="ygrid crisp" transform="translate(0,300.97)" d="M58,0h406" style="stroke: rgb(238, 238, 238); stroke-opacity: 1; stroke-width: 1px;"/><path class="ygrid crisp" transform="translate(0,249.28)" d="M58,0h406" style="stroke: rgb(238, 238, 238); stroke-opacity: 1; stroke-width: 1px;"/><path class="ygrid crisp" transform="translate(0,197.59)" d="M58,0h406" style="stroke: rgb(238, 238, 238); stroke-opacity: 1; stroke-width: 1px;"/><path class="ygrid crisp" transform="translate(0,145.9)" d="M58,0h406" style="stroke: rgb(238, 238, 238); stroke-opacity: 1; stroke-width: 1px;"/><path class="ygrid crisp" transform="translate(0,94.21000000000001)" d="M58,0h406" style="stroke: rgb(238, 238, 238); stroke-opacity: 1; stroke-width: 1px;"/></g></g><g class="zerolinelayer"><path class="yzl zl crisp" transform="translate(0,404.35)" d="M58,0h406" style="stroke: rgb(68, 68, 68); stroke-opacity: 1; stroke-width: 1px;"/></g><path class="xlines-below"/><path class="ylines-below"/><g class="overlines-below"/><g class="xaxislayer-below"/><g class="yaxislayer-below"/><g class="overaxes-below"/><g class="plot" transform="translate(58,50)" clip-path="url(#clipbffc2fxyplot)"><g class="scatterlayer mlayer"><g class="trace scatter trace23e023" style="stroke-miterlimit: 2; opacity: 1;"><g class="fills"/><g class="errorbars"/><g class="lines"><path class="js-line" d="M6.03,354.35L18.85,353.66L19.23,353.49L20.73,352.32L21.11,351.76L23,348.97L23.37,347.06L25.26,340.76L25.63,338.6L26.39,335.73L26.77,334.23L32.42,319.92L32.8,319.55L35.06,316.6L35.44,316.39L38.83,313.2L39.21,313.07L41.09,311.3L41.47,311.63L45.61,310.48L45.99,310.44L64.84,308.34L65.22,308.36L86.33,307.07L86.7,307L95,304.76L95.37,304.59L98.39,303.46L98.77,303.33L101.78,300.98L102.16,300.17L104.42,297.26L104.8,295.31L105.55,294.82L105.93,293.56L107.06,291.84L107.44,289.97L109.32,286.42L109.7,285.64L111.21,280.75L111.58,280.37L112.34,279.28L112.71,277.74L124.78,258.94L125.16,258.68L127.42,255.36L127.79,255.18L137.22,240.3L137.6,239.05L139.1,236.58L139.48,236.04L139.86,236.04L140.23,234.5L141.36,233.25L141.74,232.15L145.13,227.2L145.51,226.33L147.4,224.26L147.77,223.86L149.66,221.37L150.04,220.88L156.44,213.86L156.82,213.65L164.36,204.05L164.74,203.79L168.88,198.58L169.26,198.08L179.44,189.2L179.82,189.02L189.99,185.65L190.37,185.55L211.48,182.64L211.86,182.56L214.5,181.48L214.87,181.3L226.56,177.02L226.94,176.92L232.22,175.94L232.59,175.88L247.29,173.99L247.67,173.9L254.46,172.03L254.83,171.73L268.03,162.6L268.4,162.08L278.58,151.61L278.96,150.56L279.34,150.56L279.71,149.56L286.12,143.66L286.5,143.31L290.65,140.77L291.02,140.7L292.91,139.71L293.29,139.54L297.43,137.79L297.81,137.56L311.38,130.91L311.76,130.74L327.97,127.04L328.34,127.04L340.03,123.89L340.41,123.69L346.06,121.7L346.44,121.7L348.32,121.01L348.7,120.9L352.09,120.24L352.47,120.06L356.99,119.19L357.37,119.19L361.52,118.49L361.89,118.45L367.93,117.78L368.3,117.65L391.3,111.71L391.68,111.71L396.2,109.78L396.58,109.78L397.71,109.19L398.08,109L406,105.46" style="vector-effect: non-scaling-stroke; fill: none; stroke: rgb(8, 48, 107); stroke-opacity: 1; stroke-width: 2px; opacity: 1;"/></g><g class="points"/><g class="text"/></g><g class="trace scatter trace1ca662" style="stroke-miterlimit: 2; opacity: 1;"><g class="fills"/><g class="errorbars"/><g class="lines"><path class="js-line" d="M5.28,354.35L46.74,353.6L47.12,353.59L105.93,352.84L106.31,352.83L120.63,352.1L121.01,352.05L134.96,350.2L135.33,350.13L163.23,346.58L163.61,346.56L175.67,345.19L176.05,345.1L190.37,342.36L190.75,342.34L224.3,340.14L224.68,340.08L236.36,339.24L236.74,339.21L277.08,338.46L277.45,338.37L283.86,335.98L284.24,335.72L291.02,332.61L291.4,332.53L301.58,330.45L301.96,330.42L345.31,326.81L345.68,326.68L355.11,321.59L355.49,321.32L360.01,318.77L360.39,318.65L364.16,317.49L364.53,317.41L388.28,313.58L388.66,313.45L395.82,310.5L396.2,310.29L404.49,304.79L404.87,304.45L406,303.64" style="vector-effect: non-scaling-stroke; fill: none; stroke: rgb(8, 81, 156); stroke-opacity: 1; stroke-width: 2px; opacity: 1; stroke-dasharray: 9px, 9px;"/></g><g class="points"/><g class="text"/></g><g class="trace scatter trace0d950d" style="stroke-miterlimit: 2; opacity: 1;"><g class="fills"/><g class="errorbars"/><g class="lines"><path class="js-line" d="M7.92,354.35L87.46,353.6L87.83,353.59L128.92,352.26L129.3,352.19L151.92,351.07L152.3,351.06L242.77,348.49L243.15,348.45L251.44,347.27L251.82,347.21L261.24,344.23L261.62,344.02L271.42,341.42L271.8,341.38L284.99,338.82L285.37,338.6L287.63,337.23L288.01,336.8L292.15,332.3L292.53,331.44L300.45,317.68L300.82,316.93L304.22,312.27L304.59,312.01L311,308.15L311.38,308.05L316.28,306.78L316.66,306.7L327.59,305.61L327.97,305.59L346.82,303.89L347.19,303.81L355.49,300.95L355.86,300.73L367.17,297.6L367.55,297.51L383.76,295.08L384.14,295L405.62,289.02L406,288.87" style="vector-effect: non-scaling-stroke; fill: none; stroke: rgb(33, 113, 181); stroke-opacity: 1; stroke-width: 2px; opacity: 1; stroke-dasharray: 3px, 3px;"/></g><g class="points"/><g class="text"/></g><g class="trace scatter traceb4c4e3" style="stroke-miterlimit: 2; opacity: 1;"><g class="fills"/><g class="errorbars"/><g class="lines"><path class="js-line" d="M0,354.35L18.85,353.61L19.23,353.39L21.11,351.24L21.49,350.53L23.37,345.06L23.75,343.52L27.14,326.05L27.52,323.94L33.55,297.08L33.93,295.83L38.07,284.94L38.45,284.28L43.73,276.33L44.11,275.87L47.88,272.44L48.25,272.21L53.53,269.58L53.91,269.46L61.82,267.39L62.2,267.32L75.39,265.99L75.77,265.96L91.6,264.42L91.98,264.33L97.64,262.06L98.01,261.81L102.16,257.99L102.54,257.56L107.44,249.93L107.81,249.3L115.73,234.14L116.11,233.37L124.78,214.6L125.16,213.5L129.3,199.09L129.68,197.48L133.45,177.6L133.83,175.31L138.73,151.31L139.1,149.84L142.87,137.98L143.25,137.08L147.02,129.56L147.4,129L150.79,125.23L151.17,124.91L155.69,122.15L156.07,121.99L161.72,120.27L162.1,120.18L174.54,118.62L174.92,118.59L200.55,116.52L200.93,116.43L208.84,113.76L209.22,113.6L217.14,110.11L217.51,109.9L223.17,106.59L223.55,106.33L230.33,102.42L230.71,102.26L238.25,98L238.62,97.74L246.92,92.07L247.29,91.81L265.01,82.17L265.39,81.89L280.84,69.31L281.22,69.07L297.81,60.03L298.19,59.73L307.23,53.08L307.61,52.88L314.77,50.05L315.15,49.94L324.2,48.27L324.57,48.23L334,46L334.38,45.84L350.58,38.64L350.96,38.55L360.39,36.57L360.76,36.5L370.56,34.01L370.94,33.87L384.51,29.01L384.89,28.93L398.84,26.69L399.21,26.69L406,26.69" style="vector-effect: non-scaling-stroke; fill: none; stroke: rgb(66, 146, 198); stroke-opacity: 1; stroke-width: 2px; opacity: 1; stroke-dasharray: 9px, 3px, 3px, 3px;"/></g><g class="points"/><g class="text"/></g><g class="trace scatter trace907d61" style="stroke-miterlimit: 2; opacity: 1;"><g class="fills"/><g class="errorbars"/><g class="lines"><path class="js-line" d="M11.31,354.35L21.49,353.65L21.86,353.43L23.37,352.21L23.75,351.74L26.39,347.63L26.77,346.95L37.7,329.15L38.07,328.84L41.09,325.5L41.47,325.07L44.48,322.54L44.86,322.21L49.01,319.5L49.38,319.22L54.28,316.76L54.66,316.54L59.18,314.57L59.56,314.45L63.71,311.63L64.09,311.35L65.97,310.01L66.35,309.67L82.93,296.87L83.31,296.77L85.95,295.19L86.33,294.83L90.85,292.07L91.23,291.97L96.51,288.88L96.88,288.66L109.7,278.66L110.08,278.13L118.37,265L118.75,264.1L122.14,256.53L122.52,256.01L125.53,250.49L125.91,249.39L130.06,238.98L130.43,238.34L131.19,236.44L131.56,235.22L135.71,224.61L136.09,224.06L140.23,212.78L140.61,211.95L142.12,209.1L142.5,208.14L144.76,204.7L145.13,203.92L148.9,197.97L149.28,197.57L153.43,192.29L153.81,191.99L155.31,190.87L155.69,190.38L162.1,185.83L162.48,185.69L172.28,179.26L172.65,179.16L181.32,175.02L181.7,174.72L183.21,174L183.59,173.94L188.11,172.29L188.49,172.26L200.55,169.6L200.93,169.46L205.45,168.49L205.83,168.39L208.84,167.03L209.22,166.95L210.73,166.25L211.1,165.94L218.27,159.43L218.64,158.81L220.15,156.97L220.53,156.78L232.59,137L232.97,136.86L234.1,135.65L234.48,134.68L237.87,129.82L238.25,129.64L239,129.11L239.38,128.62L241.26,126.69L241.64,126.31L250.31,117.66L250.69,117.51L252.19,116.62L252.57,116.12L255.59,112.03L255.96,111.55L259.36,107.98L259.73,107.88L264.64,101.92L265.01,101.8L271.8,90.42L272.17,89.39L273.31,88.18L273.68,87.22L275.57,83.47L275.94,82.67L280.09,73.46L280.47,73.21L281.22,72.06L281.6,71.27L283.48,68.28L283.86,68L288.01,61.66L288.38,61.57L289.14,60.98L289.52,60.55L291.4,58.74L291.78,58.34L295.92,55.04L296.3,54.99L297.43,54.36L297.81,54L307.61,50.51L307.99,50.41L310.25,49.78L310.63,49.64L311.76,48.84L312.13,48.77L315.53,48.12L315.9,48L317.79,47.43L318.17,47.36L342.67,39.81L343.05,39.68L349.08,37.35L349.45,37.35L375.47,27.98L375.84,27.98L379.99,26.6L380.37,26.49L384.51,25.69L384.89,25.44L389.04,24.46L389.41,24.37L406,18.65" style="vector-effect: non-scaling-stroke; fill: none; stroke: rgb(107, 174, 214); stroke-opacity: 1; stroke-width: 2px; opacity: 1; stroke-dasharray: 15px, 15px;"/></g><g class="points"/><g class="text"/></g></g></g><g class="overplot"/><path class="xlines-above crisp" d="M0,0" style="fill: none;"/><path class="ylines-above crisp" d="M0,0" style="fill: none;"/><g class="overlines-above"/><g class="xaxislayer-above"><g class="xtick"><text text-anchor="middle" x="0" y="436" transform="translate(115.68,0)" style="font-family: 'Open Sans', verdana, arial, sans-serif; font-size: 12px; fill: rgb(68, 68, 68); fill-opacity: 1; white-space: pre; opacity: 1;">Jul 2020</text></g><g class="xtick"><text text-anchor="middle" x="0" y="436" style="font-family: 'Open Sans', verdana, arial, sans-serif; font-size: 12px; fill: rgb(68, 68, 68); fill-opacity: 1; white-space: pre; opacity: 1;" transform="translate(185.04000000000002,0)">Jan 2021</text></g><g class="xtick"><text text-anchor="middle" x="0" y="436" style="font-family: 'Open Sans', verdana, arial, sans-serif; font-size: 12px; fill: rgb(68, 68, 68); fill-opacity: 1; white-space: pre; opacity: 1;" transform="translate(253.27,0)">Jul 2021</text></g><g class="xtick"><text text-anchor="middle" x="0" y="436" style="font-family: 'Open Sans', verdana, arial, sans-serif; font-size: 12px; fill: rgb(68, 68, 68); fill-opacity: 1; white-space: pre; opacity: 1;" transform="translate(322.64,0)">Jan 2022</text></g><g class="xtick"><text text-anchor="middle" x="0" y="436" style="font-family: 'Open Sans', verdana, arial, sans-serif; font-size: 12px; fill: rgb(68, 68, 68); fill-opacity: 1; white-space: pre; opacity: 1;" transform="translate(390.87,0)">Jul 2022</text></g><g class="xtick"><text text-anchor="middle" x="0" y="436" style="font-family: 'Open Sans', verdana, arial, sans-serif; font-size: 12px; fill: rgb(68, 68, 68); fill-opacity: 1; white-space: pre; opacity: 1;" transform="translate(460.23,0)">Jan 2023</text></g></g><g class="yaxislayer-above"><g class="ytick"><text text-anchor="end" x="57" y="4.199999999999999" transform="translate(0,404.35)" style="font-family: 'Open Sans', verdana, arial, sans-serif; font-size: 12px; fill: rgb(68, 68, 68); fill-opacity: 1; white-space: pre; opacity: 1;">0</text></g><g class="ytick"><text text-anchor="end" x="57" y="4.199999999999999" style="font-family: 'Open Sans', verdana, arial, sans-serif; font-size: 12px; fill: rgb(68, 68, 68); fill-opacity: 1; white-space: pre; opacity: 1;" transform="translate(0,352.66)">500</text></g><g class="ytick"><text text-anchor="end" x="57" y="4.199999999999999" style="font-family: 'Open Sans', verdana, arial, sans-serif; font-size: 12px; fill: rgb(68, 68, 68); fill-opacity: 1; white-space: pre; opacity: 1;" transform="translate(0,300.97)">1000</text></g><g class="ytick"><text text-anchor="end" x="57" y="4.199999999999999" style="font-family: 'Open Sans', verdana, arial, sans-serif; font-size: 12px; fill: rgb(68, 68, 68); fill-opacity: 1; white-space: pre; opacity: 1;" transform="translate(0,249.28)">1500</text></g><g class="ytick"><text text-anchor="end" x="57" y="4.199999999999999" style="font-family: 'Open Sans', verdana, arial, sans-serif; font-size: 12px; fill: rgb(68, 68, 68); fill-opacity: 1; white-space: pre; opacity: 1;" transform="translate(0,197.59)">2000</text></g><g class="ytick"><text text-anchor="end" x="57" y="4.199999999999999" style="font-family: 'Open Sans', verdana, arial, sans-serif; font-size: 12px; fill: rgb(68, 68, 68); fill-opacity: 1; white-space: pre; opacity: 1;" transform="translate(0,145.9)">2500</text></g><g class="ytick"><text text-anchor="end" x="57" y="4.199999999999999" style="font-family: 'Open Sans', verdana, arial, sans-serif; font-size: 12px; fill: rgb(68, 68, 68); fill-opacity: 1; white-space: pre; opacity: 1;" transform="translate(0,94.21000000000001)">3000</text></g></g><g class="overaxes-above"/></g></g><g class="polarlayer"/><g class="ternarylayer"/><g class="geolayer"/><g class="funnelarealayer"/><g class="pielayer"/><g class="iciclelayer"/><g class="treemaplayer"/><g class="sunburstlayer"/><g class="glimages"/><defs id="topdefs-bffc2f"><g class="clips"/><clipPath id="legendbffc2f"><rect width="142" height="105" x="0" y="0"/></clipPath></defs><g class="layer-above"><g class="imagelayer"/><g class="shapelayer"/></g><g class="infolayer"><g class="legend" pointer-events="all" transform="translate(472.12,50)"><rect class="bg" shape-rendering="crispEdges" width="142" height="105" x="0" y="0" style="stroke: rgb(68, 68, 68); stroke-opacity: 1; fill: rgb(255, 255, 255); fill-opacity: 1; stroke-width: 0px;"/><g class="scrollbox" transform="" clip-path="url(#legendbffc2f)"><g class="groups"><g class="traces" transform="translate(0,14.5)" style="opacity: 1;"><text class="legendtext" text-anchor="start" x="40" y="4.680000000000001" style="font-family: 'Open Sans', verdana, arial, sans-serif; font-size: 12px; fill: rgb(68, 68, 68); fill-opacity: 1; white-space: pre;">France</text><g class="layers" style="opacity: 1;"><g class="legendfill"/><g class="legendlines"><path class="js-line" d="M5,0h30" style="fill: none; stroke: rgb(8, 48, 107); stroke-opacity: 1; stroke-width: 2px;"/></g><g class="legendsymbols"><g class="legendpoints"/></g></g><rect class="legendtoggle" x="0" y="-9.5" width="136.34410095214844" height="19" style="fill: rgb(0, 0, 0); fill-opacity: 0;"/></g><g class="traces" transform="translate(0,33.5)" style="opacity: 1;"><text class="legendtext" text-anchor="start" x="40" y="4.680000000000001" style="font-family: 'Open Sans', verdana, arial, sans-serif; font-size: 12px; fill: rgb(68, 68, 68); fill-opacity: 1; white-space: pre;">Japan</text><g class="layers" style="opacity: 1;"><g class="legendfill"/><g class="legendlines"><path class="js-line" d="M5,0h30" style="fill: none; stroke: rgb(8, 81, 156); stroke-opacity: 1; stroke-dasharray: 9px, 9px; stroke-width: 2px;"/></g><g class="legendsymbols"><g class="legendpoints"/></g></g><rect class="legendtoggle" x="0" y="-9.5" width="136.34410095214844" height="19" style="fill: rgb(0, 0, 0); fill-opacity: 0;"/></g><g class="traces" transform="translate(0,52.5)" style="opacity: 1;"><text class="legendtext" text-anchor="start" x="40" y="4.680000000000001" style="font-family: 'Open Sans', verdana, arial, sans-serif; font-size: 12px; fill: rgb(68, 68, 68); fill-opacity: 1; white-space: pre;">South Korea</text><g class="layers" style="opacity: 1;"><g class="legendfill"/><g class="legendlines"><path class="js-line" d="M5,0h30" style="fill: none; stroke: rgb(33, 113, 181); stroke-opacity: 1; stroke-dasharray: 3px, 3px; stroke-width: 2px;"/></g><g class="legendsymbols"><g class="legendpoints"/></g></g><rect class="legendtoggle" x="0" y="-9.5" width="136.34410095214844" height="19" style="fill: rgb(0, 0, 0); fill-opacity: 0;"/></g><g class="traces" transform="translate(0,71.5)" style="opacity: 1;"><text class="legendtext" text-anchor="start" x="40" y="4.680000000000001" style="font-family: 'Open Sans', verdana, arial, sans-serif; font-size: 12px; fill: rgb(68, 68, 68); fill-opacity: 1; white-space: pre;">United Kingdom</text><g class="layers" style="opacity: 1;"><g class="legendfill"/><g class="legendlines"><path class="js-line" d="M5,0h30" style="fill: none; stroke: rgb(66, 146, 198); stroke-opacity: 1; stroke-dasharray: 9px, 3px, 3px, 3px; stroke-width: 2px;"/></g><g class="legendsymbols"><g class="legendpoints"/></g></g><rect class="legendtoggle" x="0" y="-9.5" width="136.34410095214844" height="19" style="fill: rgb(0, 0, 0); fill-opacity: 0;"/></g><g class="traces" transform="translate(0,90.5)" style="opacity: 1;"><text class="legendtext" text-anchor="start" x="40" y="4.680000000000001" style="font-family: 'Open Sans', verdana, arial, sans-serif; font-size: 12px; fill: rgb(68, 68, 68); fill-opacity: 1; white-space: pre;">United States</text><g class="layers" style="opacity: 1;"><g class="legendfill"/><g class="legendlines"><path class="js-line" d="M5,0h30" style="fill: none; stroke: rgb(107, 174, 214); stroke-opacity: 1; stroke-dasharray: 15px, 15px; stroke-width: 2px;"/></g><g class="legendsymbols"><g class="legendpoints"/></g></g><rect class="legendtoggle" x="0" y="-9.5" width="136.34410095214844" height="19" style="fill: rgb(0, 0, 0); fill-opacity: 0;"/></g></g></g><rect class="scrollbar" rx="20" ry="3" width="0" height="0" x="0" y="0" style="fill: rgb(128, 139, 164); fill-opacity: 1;"/></g><g class="g-gtitle"><text class="gtitle" x="313.182" y="25" text-anchor="middle" dy="0em" style="font-family: 'Open Sans', verdana, arial, sans-serif; font-size: 17px; fill: rgb(68, 68, 68); opacity: 1; font-weight: normal; white-space: pre;">코로나 19 사망자수 추세</text></g><g class="g-xtitle"/><g class="g-ytitle"><text class="ytitle" transform="rotate(-90,20,236.5)" x="20" y="236.5" text-anchor="middle" style="font-family: 'Open Sans', verdana, arial, sans-serif; font-size: 14px; fill: rgb(68, 68, 68); opacity: 1; font-weight: normal; white-space: pre;">10만명당 사망자수 누계</text></g></g></svg>