<svg class="main-svg" xmlns="http://www.w3.org/2000/svg" xmlns:xlink="http://www.w3.org/1999/xlink" width="900" height="600" style="" viewBox="0 0 900 600"><rect x="0" y="0" width="900" height="600" style="fill: rgb(255, 255, 255); fill-opacity: 1;"/><defs id="defs-ca1dd3"><g class="clips"><clipPath id="clipca1dd3xyplot" class="plotclip"><rect width="837" height="352.91999999999996"/></clipPath><clipPath id="clipca1dd3xy2plot" class="plotclip"><rect width="837" height="93.42"/></clipPath><clipPath class="axesclip" id="clipca1dd3x"><rect x="38" y="0" width="837" height="600"/></clipPath><clipPath class="axesclip" id="clipca1dd3y"><rect x="0" y="75.95000000000002" width="900" height="352.91999999999996"/></clipPath><clipPath class="axesclip" id="clipca1dd3xy"><rect x="38" y="75.95000000000002" width="837" height="352.91999999999996"/></clipPath><clipPath class="axesclip" id="clipca1dd3y2"><rect x="0" y="449.63" width="900" height="93.42"/></clipPath><clipPath class="axesclip" id="clipca1dd3xy2"><rect x="38" y="449.63" width="837" height="93.42"/></clipPath></g><g class="gradients"/><g class="patterns"/></defs><g class="bglayer"/><g class="layer-below"><g class="imagelayer"/><g class="shapelayer"/></g><g class="cartesianlayer"><g class="subplot xy"><g class="layer-subplot"><g class="shapelayer"/><g class="imagelayer"/></g><g class="gridlayer"><g class="x"/><g class="y"><path class="ygrid crisp" transform="translate(0,411.22)" d="M38,0h837" style="stroke: rgb(238, 238, 238); stroke-opacity: 1; stroke-width: 1px;"/><path class="ygrid crisp" transform="translate(0,342.1700000000001)" d="M38,0h837" style="stroke: rgb(238, 238, 238); stroke-opacity: 1; stroke-width: 1px;"/><path class="ygrid crisp" transform="translate(0,273.12)" d="M38,0h837" style="stroke: rgb(238, 238, 238); stroke-opacity: 1; stroke-width: 1px;"/><path class="ygrid crisp" transform="translate(0,204.08)" d="M38,0h837" style="stroke: rgb(238, 238, 238); stroke-opacity: 1; stroke-width: 1px;"/><path class="ygrid crisp" transform="translate(0,135.03000000000003)" d="M38,0h837" style="stroke: rgb(238, 238, 238); stroke-opacity: 1; stroke-width: 1px;"/></g></g><g class="zerolinelayer"/><path class="xlines-below"/><path class="ylines-below"/><g class="overlines-below"/><g class="xaxislayer-below"/><g class="yaxislayer-below"/><g class="overaxes-below"/><g class="plot" transform="translate(38,75.95000000000002)" clip-path="url(#clipca1dd3xyplot)"><g class="boxlayer mlayer"><g class="trace boxes" style="opacity: 1;"><path class="box" d="M3.09,260.32H9.04M3.09,269.68H9.04V259.32H3.09ZM6.0649999999999995,269.68V293.84M6.0649999999999995,259.32V235.15" style="vector-effect: non-scaling-stroke; stroke-width: 2px; stroke: rgb(255, 0, 0); stroke-opacity: 1; fill: rgb(255, 0, 0); fill-opacity: 0.5; opacity: 1;"/><path class="box" d="M15.22,287.94H21.17M15.22,321.46H21.17V286.94H15.22ZM18.195,321.46V335.27M18.195,286.94V276.58" style="vector-effect: non-scaling-stroke; stroke-width: 2px; stroke: rgb(255, 0, 0); stroke-opacity: 1; fill: rgb(255, 0, 0); fill-opacity: 0.5; opacity: 1;"/><path class="box" d="M27.35,274.13H33.3M27.35,276.58H33.3V273.13H27.35ZM30.325,276.58V293.84M30.325,273.13V231.7" style="vector-effect: non-scaling-stroke; stroke-width: 2px; stroke: rgb(255, 0, 0); stroke-opacity: 1; fill: rgb(255, 0, 0); fill-opacity: 0.5; opacity: 1;"/><path class="box" d="M39.48,292.84H45.43M39.48,293.84H45.43V286.94H39.48ZM42.455,293.84V293.84M42.455,286.94V262.77" style="vector-effect: non-scaling-stroke; stroke-width: 2px; stroke: rgb(0, 0, 255); stroke-opacity: 1; fill: rgb(0, 0, 255); fill-opacity: 0.5; opacity: 1;"/><path class="box" d="M51.61,256.87H57.56M51.61,259.32H57.56V255.87H51.61ZM54.585,259.32V273.13M54.585,255.87V248.96" style="vector-effect: non-scaling-stroke; stroke-width: 2px; stroke: rgb(255, 0, 0); stroke-opacity: 1; fill: rgb(255, 0, 0); fill-opacity: 0.5; opacity: 1;"/><path class="box" d="M63.75,246.51H69.69M63.75,273.13H69.69V245.51H63.75ZM66.72,273.13V276.58M66.72,245.51V231.7" style="vector-effect: non-scaling-stroke; stroke-width: 2px; stroke: rgb(255, 0, 0); stroke-opacity: 1; fill: rgb(255, 0, 0); fill-opacity: 0.5; opacity: 1;"/><path class="box" d="M75.88,247.96H81.82M75.88,248.96H81.82V242.06H75.88ZM78.85,248.96V273.13M78.85,242.06V228.25" style="vector-effect: non-scaling-stroke; stroke-width: 2px; stroke: rgb(0, 0, 255); stroke-opacity: 1; fill: rgb(0, 0, 255); fill-opacity: 0.5; opacity: 1;"/><path class="box" d="M88.01,272.13H93.95M88.01,273.13H93.95V242.06H88.01ZM90.98,273.13V276.58M90.98,242.06V235.15" style="vector-effect: non-scaling-stroke; stroke-width: 2px; stroke: rgb(0, 0, 255); stroke-opacity: 1; fill: rgb(0, 0, 255); fill-opacity: 0.5; opacity: 1;"/><path class="box" d="M100.14,284.49H106.08M100.14,293.84H106.08V283.49H100.14ZM103.11,293.84V297.3M103.11,283.49V266.22" style="vector-effect: non-scaling-stroke; stroke-width: 2px; stroke: rgb(255, 0, 0); stroke-opacity: 1; fill: rgb(255, 0, 0); fill-opacity: 0.5; opacity: 1;"/><path class="box" d="M112.27,270.68H118.21M112.27,297.3H118.21V269.68H112.27ZM115.24,297.3V297.3M115.24,269.68V255.87" style="vector-effect: non-scaling-stroke; stroke-width: 2px; stroke: rgb(255, 0, 0); stroke-opacity: 1; fill: rgb(255, 0, 0); fill-opacity: 0.5; opacity: 1;"/><path class="box" d="M124.4,215.44H130.34M124.4,231.7H130.34V214.44H124.4ZM127.37,231.7V242.06M127.37,214.44V214.44" style="vector-effect: non-scaling-stroke; stroke-width: 2px; stroke: rgb(255, 0, 0); stroke-opacity: 1; fill: rgb(255, 0, 0); fill-opacity: 0.5; opacity: 1;"/><path class="box" d="M136.53,208.53H142.47M136.53,231.7H142.47V207.53H136.53ZM139.5,231.7V231.7M139.5,207.53V176.46" style="vector-effect: non-scaling-stroke; stroke-width: 2px; stroke: rgb(255, 0, 0); stroke-opacity: 1; fill: rgb(255, 0, 0); fill-opacity: 0.5; opacity: 1;"/><path class="box" d="M148.66,149.84H154.6M148.66,197.17H154.6V148.84H148.66ZM151.63,197.17V207.53M151.63,148.84V141.94" style="vector-effect: non-scaling-stroke; stroke-width: 2px; stroke: rgb(255, 0, 0); stroke-opacity: 1; fill: rgb(255, 0, 0); fill-opacity: 0.5; opacity: 1;"/><path class="box" d="M160.79,144.39H166.73M160.79,145.39H166.73V138.48H160.79ZM163.76,145.39V166.1M163.76,138.48V124.67" style="vector-effect: non-scaling-stroke; stroke-width: 2px; stroke: rgb(0, 0, 255); stroke-opacity: 1; fill: rgb(0, 0, 255); fill-opacity: 0.5; opacity: 1;"/><path class="box" d="M172.92,220.34H178.86M172.92,221.34H178.86V166.1H172.92ZM175.89,221.34V224.79M175.89,166.1V155.75" style="vector-effect: non-scaling-stroke; stroke-width: 2px; stroke: rgb(0, 0, 255); stroke-opacity: 1; fill: rgb(0, 0, 255); fill-opacity: 0.5; opacity: 1;"/><path class="box" d="M185.05,149.84H190.99M185.05,193.72H190.99V148.84H185.05ZM188.02,193.72V197.17M188.02,148.84V131.58" style="vector-effect: non-scaling-stroke; stroke-width: 2px; stroke: rgb(255, 0, 0); stroke-opacity: 1; fill: rgb(255, 0, 0); fill-opacity: 0.5; opacity: 1;"/><path class="box" d="M197.18,129.13H203.12M197.18,131.58H203.12V128.13H197.18ZM200.15,131.58V145.39M200.15,128.13V117.77" style="vector-effect: non-scaling-stroke; stroke-width: 2px; stroke: rgb(255, 0, 0); stroke-opacity: 1; fill: rgb(255, 0, 0); fill-opacity: 0.5; opacity: 1;"/><path class="box" d="M209.31,140.94H215.25M209.31,141.94H215.25V138.48H209.31ZM212.28,141.94V152.29M212.28,138.48V128.13" style="vector-effect: non-scaling-stroke; stroke-width: 2px; stroke: rgb(0, 0, 255); stroke-opacity: 1; fill: rgb(0, 0, 255); fill-opacity: 0.5; opacity: 1;"/><path class="box" d="M221.44,156.75H227.38M221.44,176.46H227.38V155.75H221.44ZM224.41,176.46V193.72M224.41,155.75V135.03" style="vector-effect: non-scaling-stroke; stroke-width: 2px; stroke: rgb(255, 0, 0); stroke-opacity: 1; fill: rgb(255, 0, 0); fill-opacity: 0.5; opacity: 1;"/><path class="box" d="M233.57,149.84H239.52M233.57,159.2H239.52V148.84H233.57ZM236.54500000000002,159.2V183.36M236.54500000000002,148.84V145.39" style="vector-effect: non-scaling-stroke; stroke-width: 2px; stroke: rgb(255, 0, 0); stroke-opacity: 1; fill: rgb(255, 0, 0); fill-opacity: 0.5; opacity: 1;"/><path class="box" d="M245.7,122.22H251.65M245.7,138.48H251.65V121.22H245.7ZM248.675,138.48V148.84M248.675,121.22V117.77" style="vector-effect: non-scaling-stroke; stroke-width: 2px; stroke: rgb(255, 0, 0); stroke-opacity: 1; fill: rgb(255, 0, 0); fill-opacity: 0.5; opacity: 1;"/><path class="box" d="M257.83,66.98H263.78M257.83,110.86H263.78V65.98H257.83ZM260.80499999999995,110.86V110.86M260.80499999999995,65.98V62.53" style="vector-effect: non-scaling-stroke; stroke-width: 2px; stroke: rgb(255, 0, 0); stroke-opacity: 1; fill: rgb(255, 0, 0); fill-opacity: 0.5; opacity: 1;"/><path class="box" d="M269.96,59.08H275.91M269.96,59.08H275.91V59.08H269.96ZM272.935,59.08V83.24M272.935,59.08V52.17" style="vector-effect: non-scaling-stroke; stroke-width: 2px; stroke: rgb(255, 0, 0); stroke-opacity: 1; fill: rgb(255, 0, 0); fill-opacity: 0.5; opacity: 1;"/><path class="box" d="M282.09,113.32H288.04M282.09,114.32H288.04V79.79H282.09ZM285.065,114.32V114.32M285.065,79.79V76.34" style="vector-effect: non-scaling-stroke; stroke-width: 2px; stroke: rgb(0, 0, 255); stroke-opacity: 1; fill: rgb(0, 0, 255); fill-opacity: 0.5; opacity: 1;"/><path class="box" d="M294.22,27H300.17M294.22,28H300.17V21.1H294.22ZM297.19500000000005,28V48.72M297.19500000000005,21.1V17.65" style="vector-effect: non-scaling-stroke; stroke-width: 2px; stroke: rgb(0, 0, 255); stroke-opacity: 1; fill: rgb(0, 0, 255); fill-opacity: 0.5; opacity: 1;"/><path class="box" d="M306.35,61.53H312.3M306.35,62.53H312.3V28H306.35ZM309.32500000000005,62.53V69.43M309.32500000000005,28V28" style="vector-effect: non-scaling-stroke; stroke-width: 2px; stroke: rgb(0, 0, 255); stroke-opacity: 1; fill: rgb(0, 0, 255); fill-opacity: 0.5; opacity: 1;"/><path class="box" d="M318.48,46.27H324.43M318.48,52.17H324.43V45.27H318.48ZM321.45500000000004,52.17V72.89M321.45500000000004,45.27V41.81" style="vector-effect: non-scaling-stroke; stroke-width: 2px; stroke: rgb(255, 0, 0); stroke-opacity: 1; fill: rgb(255, 0, 0); fill-opacity: 0.5; opacity: 1;"/><path class="box" d="M330.61,35.91H336.56M330.61,45.27H336.56V34.91H330.61ZM333.58500000000004,45.27V69.43M333.58500000000004,34.91V34.91" style="vector-effect: non-scaling-stroke; stroke-width: 2px; stroke: rgb(255, 0, 0); stroke-opacity: 1; fill: rgb(255, 0, 0); fill-opacity: 0.5; opacity: 1;"/><path class="box" d="M342.75,78.79H348.69M342.75,79.79H348.69V59.08H342.75ZM345.72,79.79V83.24M345.72,59.08V59.08" style="vector-effect: non-scaling-stroke; stroke-width: 2px; stroke: rgb(0, 0, 255); stroke-opacity: 1; fill: rgb(0, 0, 255); fill-opacity: 0.5; opacity: 1;"/><path class="box" d="M354.88,65.98H360.82M354.88,65.98H360.82V65.98H354.88ZM357.85,65.98V79.79M357.85,65.98V45.27" style="vector-effect: non-scaling-stroke; stroke-width: 2px; stroke: rgb(255, 0, 0); stroke-opacity: 1; fill: rgb(255, 0, 0); fill-opacity: 0.5; opacity: 1;"/><path class="box" d="M367.01,79.79H372.95M367.01,79.79H372.95V79.79H367.01ZM369.98,79.79V100.51M369.98,79.79V65.98" style="vector-effect: non-scaling-stroke; stroke-width: 2px; stroke: rgb(0, 0, 255); stroke-opacity: 1; fill: rgb(0, 0, 255); fill-opacity: 0.5; opacity: 1;"/><path class="box" d="M379.14,106.41H385.08M379.14,107.41H385.08V97.05H379.14ZM382.11,107.41V117.77M382.11,97.05V86.7" style="vector-effect: non-scaling-stroke; stroke-width: 2px; stroke: rgb(0, 0, 255); stroke-opacity: 1; fill: rgb(0, 0, 255); fill-opacity: 0.5; opacity: 1;"/><path class="box" d="M391.27,92.6H397.21M391.27,93.6H397.21V86.7H391.27ZM394.24,93.6V103.96M394.24,86.7V83.24" style="vector-effect: non-scaling-stroke; stroke-width: 2px; stroke: rgb(0, 0, 255); stroke-opacity: 1; fill: rgb(0, 0, 255); fill-opacity: 0.5; opacity: 1;"/><path class="box" d="M403.4,80.79H409.34M403.4,86.7H409.34V79.79H403.4ZM406.37,86.7V97.05M406.37,79.79V69.43" style="vector-effect: non-scaling-stroke; stroke-width: 2px; stroke: rgb(255, 0, 0); stroke-opacity: 1; fill: rgb(255, 0, 0); fill-opacity: 0.5; opacity: 1;"/><path class="box" d="M415.53,92.6H421.47M415.53,93.6H421.47V79.79H415.53ZM418.5,93.6V100.51M418.5,79.79V69.43" style="vector-effect: non-scaling-stroke; stroke-width: 2px; stroke: rgb(0, 0, 255); stroke-opacity: 1; fill: rgb(0, 0, 255); fill-opacity: 0.5; opacity: 1;"/><path class="box" d="M427.66,123.67H433.6M427.66,124.67H433.6V110.86H427.66ZM430.63,124.67V135.03M430.63,110.86V110.86" style="vector-effect: non-scaling-stroke; stroke-width: 2px; stroke: rgb(0, 0, 255); stroke-opacity: 1; fill: rgb(0, 0, 255); fill-opacity: 0.5; opacity: 1;"/><path class="box" d="M439.79,108.41H445.73M439.79,131.58H445.73V107.41H439.79ZM442.76,131.58V135.03M442.76,107.41V107.41" style="vector-effect: non-scaling-stroke; stroke-width: 2px; stroke: rgb(255, 0, 0); stroke-opacity: 1; fill: rgb(255, 0, 0); fill-opacity: 0.5; opacity: 1;"/><path class="box" d="M451.92,53.17H457.86M451.92,114.32H457.86V52.17H451.92ZM454.89,114.32V121.22M454.89,52.17V52.17" style="vector-effect: non-scaling-stroke; stroke-width: 2px; stroke: rgb(255, 0, 0); stroke-opacity: 1; fill: rgb(255, 0, 0); fill-opacity: 0.5; opacity: 1;"/><path class="box" d="M464.05,37.36H469.99M464.05,38.36H469.99V21.1H464.05ZM467.02,38.36V48.72M467.02,21.1V17.65" style="vector-effect: non-scaling-stroke; stroke-width: 2px; stroke: rgb(0, 0, 255); stroke-opacity: 1; fill: rgb(0, 0, 255); fill-opacity: 0.5; opacity: 1;"/><path class="box" d="M476.18,113.32H482.12M476.18,114.32H482.12V41.81H476.18ZM479.15,114.32V114.32M479.15,41.81V41.81" style="vector-effect: non-scaling-stroke; stroke-width: 2px; stroke: rgb(0, 0, 255); stroke-opacity: 1; fill: rgb(0, 0, 255); fill-opacity: 0.5; opacity: 1;"/><path class="box" d="M488.31,116.77H494.25M488.31,117.77H494.25V97.05H488.31ZM491.28,117.77V128.13M491.28,97.05V90.15" style="vector-effect: non-scaling-stroke; stroke-width: 2px; stroke: rgb(0, 0, 255); stroke-opacity: 1; fill: rgb(0, 0, 255); fill-opacity: 0.5; opacity: 1;"/><path class="box" d="M500.44,154.75H506.39M500.44,155.75H506.39V135.03H500.44ZM503.41499999999996,155.75V155.75M503.41499999999996,135.03V124.67" style="vector-effect: non-scaling-stroke; stroke-width: 2px; stroke: rgb(0, 0, 255); stroke-opacity: 1; fill: rgb(0, 0, 255); fill-opacity: 0.5; opacity: 1;"/><path class="box" d="M512.57,167.1H518.52M512.57,169.56H518.52V166.1H512.57ZM515.5450000000001,169.56V179.91M515.5450000000001,166.1V141.94" style="vector-effect: non-scaling-stroke; stroke-width: 2px; stroke: rgb(255, 0, 0); stroke-opacity: 1; fill: rgb(255, 0, 0); fill-opacity: 0.5; opacity: 1;"/><path class="box" d="M524.7,156.75H530.65M524.7,173.01H530.65V155.75H524.7ZM527.675,173.01V176.46M527.675,155.75V155.75" style="vector-effect: non-scaling-stroke; stroke-width: 2px; stroke: rgb(255, 0, 0); stroke-opacity: 1; fill: rgb(255, 0, 0); fill-opacity: 0.5; opacity: 1;"/><path class="box" d="M536.83,115.32H542.78M536.83,152.29H542.78V114.32H536.83ZM539.8050000000001,152.29V152.29M539.8050000000001,114.32V107.41" style="vector-effect: non-scaling-stroke; stroke-width: 2px; stroke: rgb(255, 0, 0); stroke-opacity: 1; fill: rgb(255, 0, 0); fill-opacity: 0.5; opacity: 1;"/><path class="box" d="M548.96,144.39H554.91M548.96,145.39H554.91V131.58H548.96ZM551.935,145.39V148.84M551.935,131.58V128.13" style="vector-effect: non-scaling-stroke; stroke-width: 2px; stroke: rgb(0, 0, 255); stroke-opacity: 1; fill: rgb(0, 0, 255); fill-opacity: 0.5; opacity: 1;"/><path class="box" d="M561.09,139.48H567.04M561.09,141.94H567.04V138.48H561.09ZM564.065,141.94V148.84M564.065,138.48V117.77" style="vector-effect: non-scaling-stroke; stroke-width: 2px; stroke: rgb(255, 0, 0); stroke-opacity: 1; fill: rgb(255, 0, 0); fill-opacity: 0.5; opacity: 1;"/><path class="box" d="M573.22,111.86H579.17M573.22,135.03H579.17V110.86H573.22ZM576.1949999999999,135.03V135.03M576.1949999999999,110.86V107.41" style="vector-effect: non-scaling-stroke; stroke-width: 2px; stroke: rgb(255, 0, 0); stroke-opacity: 1; fill: rgb(255, 0, 0); fill-opacity: 0.5; opacity: 1;"/><path class="box" d="M585.35,151.29H591.3M585.35,152.29H591.3V135.03H585.35ZM588.325,152.29V152.29M588.325,135.03V121.22" style="vector-effect: non-scaling-stroke; stroke-width: 2px; stroke: rgb(0, 0, 255); stroke-opacity: 1; fill: rgb(0, 0, 255); fill-opacity: 0.5; opacity: 1;"/><path class="box" d="M597.48,146.39H603.43M597.48,186.82H603.43V145.39H597.48ZM600.4549999999999,186.82V186.82M600.4549999999999,145.39V145.39" style="vector-effect: non-scaling-stroke; stroke-width: 2px; stroke: rgb(255, 0, 0); stroke-opacity: 1; fill: rgb(255, 0, 0); fill-opacity: 0.5; opacity: 1;"/><path class="box" d="M609.61,145.39H615.56M609.61,145.39H615.56V145.39H609.61ZM612.585,145.39V159.2M612.585,145.39V131.58" style="vector-effect: non-scaling-stroke; stroke-width: 2px; stroke: rgb(255, 0, 0); stroke-opacity: 1; fill: rgb(255, 0, 0); fill-opacity: 0.5; opacity: 1;"/><path class="box" d="M621.75,175.46H627.69M621.75,176.46H627.69V162.65H621.75ZM624.72,176.46V179.91M624.72,162.65V159.2" style="vector-effect: non-scaling-stroke; stroke-width: 2px; stroke: rgb(0, 0, 255); stroke-opacity: 1; fill: rgb(0, 0, 255); fill-opacity: 0.5; opacity: 1;"/><path class="box" d="M633.88,196.17H639.82M633.88,197.17H639.82V173.01H633.88ZM636.85,197.17V197.17M636.85,173.01V159.2" style="vector-effect: non-scaling-stroke; stroke-width: 2px; stroke: rgb(0, 0, 255); stroke-opacity: 1; fill: rgb(0, 0, 255); fill-opacity: 0.5; opacity: 1;"/><path class="box" d="M646.01,160.2H651.95M646.01,193.72H651.95V159.2H646.01ZM648.98,193.72V193.72M648.98,159.2V159.2" style="vector-effect: non-scaling-stroke; stroke-width: 2px; stroke: rgb(255, 0, 0); stroke-opacity: 1; fill: rgb(255, 0, 0); fill-opacity: 0.5; opacity: 1;"/><path class="box" d="M658.14,192.72H664.08M658.14,193.72H664.08V190.27H658.14ZM661.11,193.72V207.53M661.11,190.27V183.36" style="vector-effect: non-scaling-stroke; stroke-width: 2px; stroke: rgb(0, 0, 255); stroke-opacity: 1; fill: rgb(0, 0, 255); fill-opacity: 0.5; opacity: 1;"/><path class="box" d="M670.27,199.63H676.21M670.27,200.63H676.21V197.17H670.27ZM673.24,200.63V207.53M673.24,197.17V193.72" style="vector-effect: non-scaling-stroke; stroke-width: 2px; stroke: rgb(0, 0, 255); stroke-opacity: 1; fill: rgb(0, 0, 255); fill-opacity: 0.5; opacity: 1;"/><path class="box" d="M682.4,194.72H688.34M682.4,197.17H688.34V193.72H682.4ZM685.37,197.17V200.63M685.37,193.72V183.36" style="vector-effect: non-scaling-stroke; stroke-width: 2px; stroke: rgb(255, 0, 0); stroke-opacity: 1; fill: rgb(255, 0, 0); fill-opacity: 0.5; opacity: 1;"/><path class="box" d="M694.53,244.51H700.47M694.53,245.51H700.47V210.98H694.53ZM697.5,245.51V252.41M697.5,210.98V210.98" style="vector-effect: non-scaling-stroke; stroke-width: 2px; stroke: rgb(0, 0, 255); stroke-opacity: 1; fill: rgb(0, 0, 255); fill-opacity: 0.5; opacity: 1;"/><path class="box" d="M706.66,289.39H712.6M706.66,290.39H712.6V266.22H706.66ZM709.63,290.39V290.39M709.63,266.22V259.32" style="vector-effect: non-scaling-stroke; stroke-width: 2px; stroke: rgb(0, 0, 255); stroke-opacity: 1; fill: rgb(0, 0, 255); fill-opacity: 0.5; opacity: 1;"/><path class="box" d="M718.79,283.49H724.73M718.79,283.49H724.73V283.49H718.79ZM721.76,283.49V293.84M721.76,283.49V262.77" style="vector-effect: non-scaling-stroke; stroke-width: 2px; stroke: rgb(255, 0, 0); stroke-opacity: 1; fill: rgb(255, 0, 0); fill-opacity: 0.5; opacity: 1;"/><path class="box" d="M730.92,286.94H736.86M730.92,286.94H736.86V286.94H730.92ZM733.89,286.94V318.01M733.89,286.94V266.22" style="vector-effect: non-scaling-stroke; stroke-width: 2px; stroke: rgb(0, 0, 255); stroke-opacity: 1; fill: rgb(0, 0, 255); fill-opacity: 0.5; opacity: 1;"/><path class="box" d="M743.05,205.08H748.99M743.05,276.58H748.99V204.08H743.05ZM746.02,276.58V280.03M746.02,204.08V197.17" style="vector-effect: non-scaling-stroke; stroke-width: 2px; stroke: rgb(255, 0, 0); stroke-opacity: 1; fill: rgb(255, 0, 0); fill-opacity: 0.5; opacity: 1;"/><path class="box" d="M755.18,190.27H761.12M755.18,190.27H761.12V190.27H755.18ZM758.15,190.27V210.98M758.15,190.27V169.56" style="vector-effect: non-scaling-stroke; stroke-width: 2px; stroke: rgb(255, 0, 0); stroke-opacity: 1; fill: rgb(255, 0, 0); fill-opacity: 0.5; opacity: 1;"/><path class="box" d="M767.31,163.65H773.25M767.31,186.82H773.25V162.65H767.31ZM770.28,186.82V200.63M770.28,162.65V148.84" style="vector-effect: non-scaling-stroke; stroke-width: 2px; stroke: rgb(255, 0, 0); stroke-opacity: 1; fill: rgb(255, 0, 0); fill-opacity: 0.5; opacity: 1;"/><path class="box" d="M779.44,104.96H785.38M779.44,138.48H785.38V103.96H779.44ZM782.4100000000001,138.48V141.94M782.4100000000001,103.96V103.96" style="vector-effect: non-scaling-stroke; stroke-width: 2px; stroke: rgb(255, 0, 0); stroke-opacity: 1; fill: rgb(255, 0, 0); fill-opacity: 0.5; opacity: 1;"/><path class="box" d="M791.57,115.32H797.52M791.57,121.22H797.52V114.32H791.57ZM794.5450000000001,121.22V131.58M794.5450000000001,114.32V90.15" style="vector-effect: non-scaling-stroke; stroke-width: 2px; stroke: rgb(255, 0, 0); stroke-opacity: 1; fill: rgb(255, 0, 0); fill-opacity: 0.5; opacity: 1;"/><path class="box" d="M803.7,109.86H809.65M803.7,110.86H809.65V93.6H803.7ZM806.675,110.86V117.77M806.675,93.6V86.7" style="vector-effect: non-scaling-stroke; stroke-width: 2px; stroke: rgb(0, 0, 255); stroke-opacity: 1; fill: rgb(0, 0, 255); fill-opacity: 0.5; opacity: 1;"/><path class="box" d="M815.83,109.86H821.78M815.83,110.86H821.78V90.15H815.83ZM818.8050000000001,110.86V131.58M818.8050000000001,90.15V86.7" style="vector-effect: non-scaling-stroke; stroke-width: 2px; stroke: rgb(0, 0, 255); stroke-opacity: 1; fill: rgb(0, 0, 255); fill-opacity: 0.5; opacity: 1;"/><path class="box" d="M827.96,101.51H833.91M827.96,110.86H833.91V100.51H827.96ZM830.935,110.86V114.32M830.935,100.51V86.7" style="vector-effect: non-scaling-stroke; stroke-width: 2px; stroke: rgb(255, 0, 0); stroke-opacity: 1; fill: rgb(255, 0, 0); fill-opacity: 0.5; opacity: 1;"/></g></g></g><g class="overplot"/><path class="xlines-above crisp" d="M0,0" style="fill: none;"/><path class="ylines-above crisp" d="M0,0" style="fill: none;"/><g class="overlines-above"/><g class="xaxislayer-above"/><g class="yaxislayer-above"><g class="ytick"><text text-anchor="end" x="37" y="4.199999999999999" transform="translate(0,411.22)" style="font-family: 'Open Sans', verdana, arial, sans-serif; font-size: 12px; fill: rgb(68, 68, 68); fill-opacity: 1; white-space: pre; opacity: 1;">54k</text></g><g class="ytick"><text text-anchor="end" x="37" y="4.199999999999999" style="font-family: 'Open Sans', verdana, arial, sans-serif; font-size: 12px; fill: rgb(68, 68, 68); fill-opacity: 1; white-space: pre; opacity: 1;" transform="translate(0,342.1700000000001)">56k</text></g><g class="ytick"><text text-anchor="end" x="37" y="4.199999999999999" style="font-family: 'Open Sans', verdana, arial, sans-serif; font-size: 12px; fill: rgb(68, 68, 68); fill-opacity: 1; white-space: pre; opacity: 1;" transform="translate(0,273.12)">58k</text></g><g class="ytick"><text text-anchor="end" x="37" y="4.199999999999999" style="font-family: 'Open Sans', verdana, arial, sans-serif; font-size: 12px; fill: rgb(68, 68, 68); fill-opacity: 1; white-space: pre; opacity: 1;" transform="translate(0,204.08)">60k</text></g><g class="ytick"><text text-anchor="end" x="37" y="4.199999999999999" style="font-family: 'Open Sans', verdana, arial, sans-serif; font-size: 12px; fill: rgb(68, 68, 68); fill-opacity: 1; white-space: pre; opacity: 1;" transform="translate(0,135.03000000000003)">62k</text></g></g><g class="overaxes-above"/></g><g class="subplot xy2"><g class="layer-subplot"><g class="shapelayer"/><g class="imagelayer"/></g><g class="gridlayer"><g class="x"/><g class="y2"><path class="y2grid crisp" transform="translate(0,522.65)" d="M38,0h837" style="stroke: rgb(238, 238, 238); stroke-opacity: 1; stroke-width: 1px;"/><path class="y2grid crisp" transform="translate(0,502.26)" d="M38,0h837" style="stroke: rgb(238, 238, 238); stroke-opacity: 1; stroke-width: 1px;"/><path class="y2grid crisp" transform="translate(0,481.86)" d="M38,0h837" style="stroke: rgb(238, 238, 238); stroke-opacity: 1; stroke-width: 1px;"/><path class="y2grid crisp" transform="translate(0,461.46999999999997)" d="M38,0h837" style="stroke: rgb(238, 238, 238); stroke-opacity: 1; stroke-width: 1px;"/></g></g><g class="zerolinelayer"><path class="y2zl zl crisp" transform="translate(0,543.05)" d="M38,0h837" style="stroke: rgb(68, 68, 68); stroke-opacity: 1; stroke-width: 1px;"/></g><path class="xlines-below"/><path class="ylines-below"/><g class="overlines-below"/><g class="xaxislayer-below"/><g class="yaxislayer-below"/><g class="overaxes-below"/><g class="plot" transform="translate(38,449.63)" clip-path="url(#clipca1dd3xy2plot)"><g class="barlayer mlayer"><g class="trace bars" style="opacity: 1;"><g class="points"><g class="point"><path d="M1.21,93.42V24.54H10.92V93.42Z" style="vector-effect: non-scaling-stroke; opacity: 1; stroke-width: 0px; fill: rgb(190, 190, 190); fill-opacity: 1;"/></g><g class="point"><path d="M13.34,93.42V5.97H23.05V93.42Z" style="vector-effect: non-scaling-stroke; opacity: 1; stroke-width: 0px; fill: rgb(190, 190, 190); fill-opacity: 1;"/></g><g class="point"><path d="M25.47,93.42V18.33H35.18V93.42Z" style="vector-effect: non-scaling-stroke; opacity: 1; stroke-width: 0px; fill: rgb(190, 190, 190); fill-opacity: 1;"/></g><g class="point"><path d="M37.6,93.42V37.19H47.31V93.42Z" style="vector-effect: non-scaling-stroke; opacity: 1; stroke-width: 0px; fill: rgb(190, 190, 190); fill-opacity: 1;"/></g><g class="point"><path d="M49.73,93.42V40.7H59.44V93.42Z" style="vector-effect: non-scaling-stroke; opacity: 1; stroke-width: 0px; fill: rgb(190, 190, 190); fill-opacity: 1;"/></g><g class="point"><path d="M61.87,93.42V37.77H71.57V93.42Z" style="vector-effect: non-scaling-stroke; opacity: 1; stroke-width: 0px; fill: rgb(190, 190, 190); fill-opacity: 1;"/></g><g class="point"><path d="M74,93.42V32.96H83.7V93.42Z" style="vector-effect: non-scaling-stroke; opacity: 1; stroke-width: 0px; fill: rgb(190, 190, 190); fill-opacity: 1;"/></g><g class="point"><path d="M86.13,93.42V41.78H95.83V93.42Z" style="vector-effect: non-scaling-stroke; opacity: 1; stroke-width: 0px; fill: rgb(190, 190, 190); fill-opacity: 1;"/></g><g class="point"><path d="M98.26,93.42V23.64H107.96V93.42Z" style="vector-effect: non-scaling-stroke; opacity: 1; stroke-width: 0px; fill: rgb(190, 190, 190); fill-opacity: 1;"/></g><g class="point"><path d="M110.39,93.42V46.69H120.09V93.42Z" style="vector-effect: non-scaling-stroke; opacity: 1; stroke-width: 0px; fill: rgb(190, 190, 190); fill-opacity: 1;"/></g><g class="point"><path d="M122.52,93.42V24.3H132.22V93.42Z" style="vector-effect: non-scaling-stroke; opacity: 1; stroke-width: 0px; fill: rgb(190, 190, 190); fill-opacity: 1;"/></g><g class="point"><path d="M134.65,93.42V22.42H144.35V93.42Z" style="vector-effect: non-scaling-stroke; opacity: 1; stroke-width: 0px; fill: rgb(190, 190, 190); fill-opacity: 1;"/></g><g class="point"><path d="M146.78,93.42V8.47H156.48V93.42Z" style="vector-effect: non-scaling-stroke; opacity: 1; stroke-width: 0px; fill: rgb(190, 190, 190); fill-opacity: 1;"/></g><g class="point"><path d="M158.91,93.42V4.67H168.61V93.42Z" style="vector-effect: non-scaling-stroke; opacity: 1; stroke-width: 0px; fill: rgb(190, 190, 190); fill-opacity: 1;"/></g><g class="point"><path d="M171.04,93.42V8.06H180.74V93.42Z" style="vector-effect: non-scaling-stroke; opacity: 1; stroke-width: 0px; fill: rgb(190, 190, 190); fill-opacity: 1;"/></g><g class="point"><path d="M183.17,93.42V15.92H192.87V93.42Z" style="vector-effect: non-scaling-stroke; opacity: 1; stroke-width: 0px; fill: rgb(190, 190, 190); fill-opacity: 1;"/></g><g class="point"><path d="M195.3,93.42V23.25H205V93.42Z" style="vector-effect: non-scaling-stroke; opacity: 1; stroke-width: 0px; fill: rgb(190, 190, 190); fill-opacity: 1;"/></g><g class="point"><path d="M207.43,93.42V39.56H217.13V93.42Z" style="vector-effect: non-scaling-stroke; opacity: 1; stroke-width: 0px; fill: rgb(190, 190, 190); fill-opacity: 1;"/></g><g class="point"><path d="M219.56,93.42V22.07H229.27V93.42Z" style="vector-effect: non-scaling-stroke; opacity: 1; stroke-width: 0px; fill: rgb(190, 190, 190); fill-opacity: 1;"/></g><g class="point"><path d="M231.69,93.42V42.65H241.4V93.42Z" style="vector-effect: non-scaling-stroke; opacity: 1; stroke-width: 0px; fill: rgb(190, 190, 190); fill-opacity: 1;"/></g><g class="point"><path d="M243.82,93.42V42.69H253.53V93.42Z" style="vector-effect: non-scaling-stroke; opacity: 1; stroke-width: 0px; fill: rgb(190, 190, 190); fill-opacity: 1;"/></g><g class="point"><path d="M255.95,93.42V18.88H265.66V93.42Z" style="vector-effect: non-scaling-stroke; opacity: 1; stroke-width: 0px; fill: rgb(190, 190, 190); fill-opacity: 1;"/></g><g class="point"><path d="M268.08,93.42V36.13H277.79V93.42Z" style="vector-effect: non-scaling-stroke; opacity: 1; stroke-width: 0px; fill: rgb(190, 190, 190); fill-opacity: 1;"/></g><g class="point"><path d="M280.21,93.42V7.4H289.92V93.42Z" style="vector-effect: non-scaling-stroke; opacity: 1; stroke-width: 0px; fill: rgb(190, 190, 190); fill-opacity: 1;"/></g><g class="point"><path d="M292.34,93.42V11.69H302.05V93.42Z" style="vector-effect: non-scaling-stroke; opacity: 1; stroke-width: 0px; fill: rgb(190, 190, 190); fill-opacity: 1;"/></g><g class="point"><path d="M304.47,93.42V28.26H314.18V93.42Z" style="vector-effect: non-scaling-stroke; opacity: 1; stroke-width: 0px; fill: rgb(190, 190, 190); fill-opacity: 1;"/></g><g class="point"><path d="M316.6,93.42V43.2H326.31V93.42Z" style="vector-effect: non-scaling-stroke; opacity: 1; stroke-width: 0px; fill: rgb(190, 190, 190); fill-opacity: 1;"/></g><g class="point"><path d="M328.73,93.42V40.76H338.44V93.42Z" style="vector-effect: non-scaling-stroke; opacity: 1; stroke-width: 0px; fill: rgb(190, 190, 190); fill-opacity: 1;"/></g><g class="point"><path d="M340.87,93.42V39.17H350.57V93.42Z" style="vector-effect: non-scaling-stroke; opacity: 1; stroke-width: 0px; fill: rgb(190, 190, 190); fill-opacity: 1;"/></g><g class="point"><path d="M353,93.42V43.51H362.7V93.42Z" style="vector-effect: non-scaling-stroke; opacity: 1; stroke-width: 0px; fill: rgb(190, 190, 190); fill-opacity: 1;"/></g><g class="point"><path d="M365.13,93.42V55.17H374.83V93.42Z" style="vector-effect: non-scaling-stroke; opacity: 1; stroke-width: 0px; fill: rgb(190, 190, 190); fill-opacity: 1;"/></g><g class="point"><path d="M377.26,93.42V55.03H386.96V93.42Z" style="vector-effect: non-scaling-stroke; opacity: 1; stroke-width: 0px; fill: rgb(190, 190, 190); fill-opacity: 1;"/></g><g class="point"><path d="M389.39,93.42V57.67H399.09V93.42Z" style="vector-effect: non-scaling-stroke; opacity: 1; stroke-width: 0px; fill: rgb(190, 190, 190); fill-opacity: 1;"/></g><g class="point"><path d="M401.52,93.42V60.28H411.22V93.42Z" style="vector-effect: non-scaling-stroke; opacity: 1; stroke-width: 0px; fill: rgb(190, 190, 190); fill-opacity: 1;"/></g><g class="point"><path d="M413.65,93.42V66.18H423.35V93.42Z" style="vector-effect: non-scaling-stroke; opacity: 1; stroke-width: 0px; fill: rgb(190, 190, 190); fill-opacity: 1;"/></g><g class="point"><path d="M425.78,93.42V58.38H435.48V93.42Z" style="vector-effect: non-scaling-stroke; opacity: 1; stroke-width: 0px; fill: rgb(190, 190, 190); fill-opacity: 1;"/></g><g class="point"><path d="M437.91,93.42V64.81H447.61V93.42Z" style="vector-effect: non-scaling-stroke; opacity: 1; stroke-width: 0px; fill: rgb(190, 190, 190); fill-opacity: 1;"/></g><g class="point"><path d="M450.04,93.42V12.78H459.74V93.42Z" style="vector-effect: non-scaling-stroke; opacity: 1; stroke-width: 0px; fill: rgb(190, 190, 190); fill-opacity: 1;"/></g><g class="point"><path d="M462.17,93.42V25.58H471.87V93.42Z" style="vector-effect: non-scaling-stroke; opacity: 1; stroke-width: 0px; fill: rgb(190, 190, 190); fill-opacity: 1;"/></g><g class="point"><path d="M474.3,93.42V30.88H484V93.42Z" style="vector-effect: non-scaling-stroke; opacity: 1; stroke-width: 0px; fill: rgb(190, 190, 190); fill-opacity: 1;"/></g><g class="point"><path d="M486.43,93.42V37.26H496.13V93.42Z" style="vector-effect: non-scaling-stroke; opacity: 1; stroke-width: 0px; fill: rgb(190, 190, 190); fill-opacity: 1;"/></g><g class="point"><path d="M498.56,93.42V36.77H508.27V93.42Z" style="vector-effect: non-scaling-stroke; opacity: 1; stroke-width: 0px; fill: rgb(190, 190, 190); fill-opacity: 1;"/></g><g class="point"><path d="M510.69,93.42V44.06H520.4V93.42Z" style="vector-effect: non-scaling-stroke; opacity: 1; stroke-width: 0px; fill: rgb(190, 190, 190); fill-opacity: 1;"/></g><g class="point"><path d="M522.82,93.42V40.44H532.53V93.42Z" style="vector-effect: non-scaling-stroke; opacity: 1; stroke-width: 0px; fill: rgb(190, 190, 190); fill-opacity: 1;"/></g><g class="point"><path d="M534.95,93.42V50.47H544.66V93.42Z" style="vector-effect: non-scaling-stroke; opacity: 1; stroke-width: 0px; fill: rgb(190, 190, 190); fill-opacity: 1;"/></g><g class="point"><path d="M547.08,93.42V56.56H556.79V93.42Z" style="vector-effect: non-scaling-stroke; opacity: 1; stroke-width: 0px; fill: rgb(190, 190, 190); fill-opacity: 1;"/></g><g class="point"><path d="M559.21,93.42V56.54H568.92V93.42Z" style="vector-effect: non-scaling-stroke; opacity: 1; stroke-width: 0px; fill: rgb(190, 190, 190); fill-opacity: 1;"/></g><g class="point"><path d="M571.34,93.42V59.94H581.05V93.42Z" style="vector-effect: non-scaling-stroke; opacity: 1; stroke-width: 0px; fill: rgb(190, 190, 190); fill-opacity: 1;"/></g><g class="point"><path d="M583.47,93.42V57.87H593.18V93.42Z" style="vector-effect: non-scaling-stroke; opacity: 1; stroke-width: 0px; fill: rgb(190, 190, 190); fill-opacity: 1;"/></g><g class="point"><path d="M595.6,93.42V40.25H605.31V93.42Z" style="vector-effect: non-scaling-stroke; opacity: 1; stroke-width: 0px; fill: rgb(190, 190, 190); fill-opacity: 1;"/></g><g class="point"><path d="M607.73,93.42V62.03H617.44V93.42Z" style="vector-effect: non-scaling-stroke; opacity: 1; stroke-width: 0px; fill: rgb(190, 190, 190); fill-opacity: 1;"/></g><g class="point"><path d="M619.87,93.42V55.55H629.57V93.42Z" style="vector-effect: non-scaling-stroke; opacity: 1; stroke-width: 0px; fill: rgb(190, 190, 190); fill-opacity: 1;"/></g><g class="point"><path d="M632,93.42V51.17H641.7V93.42Z" style="vector-effect: non-scaling-stroke; opacity: 1; stroke-width: 0px; fill: rgb(190, 190, 190); fill-opacity: 1;"/></g><g class="point"><path d="M644.13,93.42V49.69H653.83V93.42Z" style="vector-effect: non-scaling-stroke; opacity: 1; stroke-width: 0px; fill: rgb(190, 190, 190); fill-opacity: 1;"/></g><g class="point"><path d="M656.26,93.42V53.32H665.96V93.42Z" style="vector-effect: non-scaling-stroke; opacity: 1; stroke-width: 0px; fill: rgb(190, 190, 190); fill-opacity: 1;"/></g><g class="point"><path d="M668.39,93.42V65.86H678.09V93.42Z" style="vector-effect: non-scaling-stroke; opacity: 1; stroke-width: 0px; fill: rgb(190, 190, 190); fill-opacity: 1;"/></g><g class="point"><path d="M680.52,93.42V49.91H690.22V93.42Z" style="vector-effect: non-scaling-stroke; opacity: 1; stroke-width: 0px; fill: rgb(190, 190, 190); fill-opacity: 1;"/></g><g class="point"><path d="M692.65,93.42V33.6H702.35V93.42Z" style="vector-effect: non-scaling-stroke; opacity: 1; stroke-width: 0px; fill: rgb(190, 190, 190); fill-opacity: 1;"/></g><g class="point"><path d="M704.78,93.42V47.34H714.48V93.42Z" style="vector-effect: non-scaling-stroke; opacity: 1; stroke-width: 0px; fill: rgb(190, 190, 190); fill-opacity: 1;"/></g><g class="point"><path d="M716.91,93.42V52.5H726.61V93.42Z" style="vector-effect: non-scaling-stroke; opacity: 1; stroke-width: 0px; fill: rgb(190, 190, 190); fill-opacity: 1;"/></g><g class="point"><path d="M729.04,93.42V38.16H738.74V93.42Z" style="vector-effect: non-scaling-stroke; opacity: 1; stroke-width: 0px; fill: rgb(190, 190, 190); fill-opacity: 1;"/></g><g class="point"><path d="M741.17,93.42V11.07H750.87V93.42Z" style="vector-effect: non-scaling-stroke; opacity: 1; stroke-width: 0px; fill: rgb(190, 190, 190); fill-opacity: 1;"/></g><g class="point"><path d="M753.3,93.42V29.45H763V93.42Z" style="vector-effect: non-scaling-stroke; opacity: 1; stroke-width: 0px; fill: rgb(190, 190, 190); fill-opacity: 1;"/></g><g class="point"><path d="M765.43,93.42V22.71H775.13V93.42Z" style="vector-effect: non-scaling-stroke; opacity: 1; stroke-width: 0px; fill: rgb(190, 190, 190); fill-opacity: 1;"/></g><g class="point"><path d="M777.56,93.42V17.38H787.27V93.42Z" style="vector-effect: non-scaling-stroke; opacity: 1; stroke-width: 0px; fill: rgb(190, 190, 190); fill-opacity: 1;"/></g><g class="point"><path d="M789.69,93.42V32.8H799.4V93.42Z" style="vector-effect: non-scaling-stroke; opacity: 1; stroke-width: 0px; fill: rgb(190, 190, 190); fill-opacity: 1;"/></g><g class="point"><path d="M801.82,93.42V43.2H811.53V93.42Z" style="vector-effect: non-scaling-stroke; opacity: 1; stroke-width: 0px; fill: rgb(190, 190, 190); fill-opacity: 1;"/></g><g class="point"><path d="M813.95,93.42V27.74H823.66V93.42Z" style="vector-effect: non-scaling-stroke; opacity: 1; stroke-width: 0px; fill: rgb(190, 190, 190); fill-opacity: 1;"/></g><g class="point"><path d="M826.08,93.42V42.47H835.79V93.42Z" style="vector-effect: non-scaling-stroke; opacity: 1; stroke-width: 0px; fill: rgb(190, 190, 190); fill-opacity: 1;"/></g></g></g></g></g><g class="overplot"/><path class="xlines-above crisp" d="M0,0" style="fill: none;"/><path class="ylines-above crisp" d="M0,0" style="fill: none;"/><g class="overlines-above"/><g class="xaxislayer-above"><g class="xtick"><text text-anchor="middle" x="0" y="556.05" transform="translate(56.2,0)" style="font-family: 'Open Sans', verdana, arial, sans-serif; font-size: 12px; fill: rgb(68, 68, 68); fill-opacity: 1; white-space: pre; opacity: 1;"><tspan class="line" dy="0em" x="0" y="556.05">Oct 11</tspan><tspan class="line" dy="1.3em" x="0" y="556.05">2022</tspan></text></g><g class="xtick"><text text-anchor="middle" x="0" y="556.05" style="font-family: 'Open Sans', verdana, arial, sans-serif; font-size: 12px; fill: rgb(68, 68, 68); fill-opacity: 1; white-space: pre; opacity: 1;" transform="translate(165.37,0)">Oct 24</text></g><g class="xtick"><text text-anchor="middle" x="0" y="556.05" style="font-family: 'Open Sans', verdana, arial, sans-serif; font-size: 12px; fill: rgb(68, 68, 68); fill-opacity: 1; white-space: pre; opacity: 1;" transform="translate(286.66999999999996,0)">Nov 7</text></g><g class="xtick"><text text-anchor="middle" x="0" y="556.05" style="font-family: 'Open Sans', verdana, arial, sans-serif; font-size: 12px; fill: rgb(68, 68, 68); fill-opacity: 1; white-space: pre; opacity: 1;" transform="translate(407.98,0)">Nov 21</text></g><g class="xtick"><text text-anchor="middle" x="0" y="556.05" style="font-family: 'Open Sans', verdana, arial, sans-serif; font-size: 12px; fill: rgb(68, 68, 68); fill-opacity: 1; white-space: pre; opacity: 1;" transform="translate(529.28,0)">Dec 5</text></g><g class="xtick"><text text-anchor="middle" x="0" y="556.05" style="font-family: 'Open Sans', verdana, arial, sans-serif; font-size: 12px; fill: rgb(68, 68, 68); fill-opacity: 1; white-space: pre; opacity: 1;" transform="translate(650.59,0)">Dec 19</text></g><g class="xtick"><text text-anchor="middle" x="0" y="556.05" style="font-family: 'Open Sans', verdana, arial, sans-serif; font-size: 12px; fill: rgb(68, 68, 68); fill-opacity: 1; white-space: pre; opacity: 1;" transform="translate(759.76,0)"><tspan class="line" dy="0em" x="0" y="556.05">Jan 2</tspan><tspan class="line" dy="1.3em" x="0" y="556.05">2023</tspan></text></g></g><g class="yaxislayer-above"><g class="y2tick"><text text-anchor="end" x="37" y="4.199999999999999" transform="translate(0,543.05)" style="font-family: 'Open Sans', verdana, arial, sans-serif; font-size: 12px; fill: rgb(68, 68, 68); fill-opacity: 1; white-space: pre; opacity: 1;">0</text></g><g class="y2tick"><text text-anchor="end" x="37" y="4.199999999999999" style="font-family: 'Open Sans', verdana, arial, sans-serif; font-size: 12px; fill: rgb(68, 68, 68); fill-opacity: 1; white-space: pre; opacity: 1;" transform="translate(0,522.65)">5M</text></g><g class="y2tick"><text text-anchor="end" x="37" y="4.199999999999999" style="font-family: 'Open Sans', verdana, arial, sans-serif; font-size: 12px; fill: rgb(68, 68, 68); fill-opacity: 1; white-space: pre; opacity: 1;" transform="translate(0,502.26)">10M</text></g><g class="y2tick"><text text-anchor="end" x="37" y="4.199999999999999" style="font-family: 'Open Sans', verdana, arial, sans-serif; font-size: 12px; fill: rgb(68, 68, 68); fill-opacity: 1; white-space: pre; opacity: 1;" transform="translate(0,481.86)">15M</text></g><g class="y2tick"><text text-anchor="end" x="37" y="4.199999999999999" style="font-family: 'Open Sans', verdana, arial, sans-serif; font-size: 12px; fill: rgb(68, 68, 68); fill-opacity: 1; white-space: pre; opacity: 1;" transform="translate(0,461.46999999999997)">20M</text></g></g><g class="overaxes-above"/></g></g><g class="polarlayer"/><g class="ternarylayer"/><g class="geolayer"/><g class="funnelarealayer"/><g class="pielayer"/><g class="iciclelayer"/><g class="treemaplayer"/><g class="sunburstlayer"/><g class="glimages"/><defs id="topdefs-ca1dd3"><g class="clips"/></defs><g class="layer-above"><g class="imagelayer"/><g class="shapelayer"/></g><g class="infolayer"><g class="g-gtitle"><text class="gtitle" x="450" y="25" text-anchor="middle" dy="0em" style="font-family: 'Open Sans', verdana, arial, sans-serif; font-size: 17px; fill: rgb(68, 68, 68); opacity: 1; font-weight: normal; white-space: pre;">삼성전자 Candlestick Chart</text></g><g class="g-xtitle"><text class="xtitle" x="456.5" y="595.05" text-anchor="middle" style="font-family: 'Open Sans', verdana, arial, sans-serif; font-size: 14px; fill: rgb(68, 68, 68); opacity: 1; font-weight: normal; white-space: pre;">date</text></g><g class="g-ytitle"/><g class="g-y2title"/></g></svg>