<svg class="main-svg" xmlns="http://www.w3.org/2000/svg" xmlns:xlink="http://www.w3.org/1999/xlink" width="626.364" height="465.455" style="" viewBox="0 0 626.364 465.455"><rect x="0" y="0" width="626.364" height="465.455" style="fill: rgb(255, 255, 255); fill-opacity: 1;"/><defs id="defs-c5449c"><g class="clips"><clipPath id="clipc5449cxyplot" class="plotclip"><rect width="406" height="295"/></clipPath><clipPath class="axesclip" id="clipc5449cx"><rect x="58" y="0" width="406" height="465.455"/></clipPath><clipPath class="axesclip" id="clipc5449cy"><rect x="0" y="50" width="626.364" height="295"/></clipPath><clipPath class="axesclip" id="clipc5449cxy"><rect x="58" y="50" width="406" height="295"/></clipPath></g><g class="gradients"/><g class="patterns"/></defs><g class="bglayer"/><g class="layer-below"><g class="imagelayer"/><g class="shapelayer"/></g><g class="cartesianlayer"><g class="subplot xy"><g class="layer-subplot"><g class="shapelayer"/><g class="imagelayer"/></g><g class="gridlayer"><g class="x"><path class="xgrid crisp" transform="translate(115.68,0)" d="M0,50v295" style="stroke: rgb(238, 238, 238); stroke-opacity: 1; stroke-width: 1px;"/><path class="xgrid crisp" transform="translate(185.04000000000002,0)" d="M0,50v295" style="stroke: rgb(238, 238, 238); stroke-opacity: 1; stroke-width: 1px;"/><path class="xgrid crisp" transform="translate(253.27,0)" d="M0,50v295" style="stroke: rgb(238, 238, 238); stroke-opacity: 1; stroke-width: 1px;"/><path class="xgrid crisp" transform="translate(322.64,0)" d="M0,50v295" style="stroke: rgb(238, 238, 238); stroke-opacity: 1; stroke-width: 1px;"/><path class="xgrid crisp" transform="translate(390.87,0)" d="M0,50v295" style="stroke: rgb(238, 238, 238); stroke-opacity: 1; stroke-width: 1px;"/><path class="xgrid crisp" transform="translate(460.23,0)" d="M0,50v295" style="stroke: rgb(238, 238, 238); stroke-opacity: 1; stroke-width: 1px;"/></g><g class="y"><path class="ygrid crisp" transform="translate(0,289.37)" d="M58,0h406" style="stroke: rgb(238, 238, 238); stroke-opacity: 1; stroke-width: 1px;"/><path class="ygrid crisp" transform="translate(0,248.49)" d="M58,0h406" style="stroke: rgb(238, 238, 238); stroke-opacity: 1; stroke-width: 1px;"/><path class="ygrid crisp" transform="translate(0,207.61)" d="M58,0h406" style="stroke: rgb(238, 238, 238); stroke-opacity: 1; stroke-width: 1px;"/><path class="ygrid crisp" transform="translate(0,166.73000000000002)" d="M58,0h406" style="stroke: rgb(238, 238, 238); stroke-opacity: 1; stroke-width: 1px;"/><path class="ygrid crisp" transform="translate(0,125.85)" d="M58,0h406" style="stroke: rgb(238, 238, 238); stroke-opacity: 1; stroke-width: 1px;"/><path class="ygrid crisp" transform="translate(0,84.97)" d="M58,0h406" style="stroke: rgb(238, 238, 238); stroke-opacity: 1; stroke-width: 1px;"/></g></g><g class="zerolinelayer"><path class="yzl zl crisp" transform="translate(0,330.25)" d="M58,0h406" style="stroke: rgb(68, 68, 68); stroke-opacity: 1; stroke-width: 1px;"/></g><path class="xlines-below"/><path class="ylines-below"/><g class="overlines-below"/><g class="xaxislayer-below"/><g class="yaxislayer-below"/><g class="overaxes-below"/><g class="plot" transform="translate(58,50)" clip-path="url(#clipc5449cxyplot)"><g class="scatterlayer mlayer"><g class="trace scatter trace1f40f3" style="stroke-miterlimit: 2; opacity: 1;"><g class="fills"/><g class="errorbars"/><g class="lines"><path class="js-line" d="M6.03,280.25L19.23,279.57L19.6,279.44L22.24,277.11L22.62,276.6L23.75,273.75L24.13,272.4L27.52,262.89L27.9,262.2L31.67,253.93L32.04,253.46L36.57,249.13L36.94,248.91L41.09,246.2L41.47,246.46L46.74,245.35L47.12,245.26L58.43,244.2L58.81,244.2L69.74,243.76L70.12,243.72L85.2,242.97L85.57,242.96L93.49,241.4L93.87,241.32L100.27,239L100.65,238.64L102.16,237.4L102.54,237.09L104.42,235.1L104.8,233.56L105.55,233.17L105.93,232.17L107.06,230.82L107.44,229.34L109.7,225.91L110.08,224.44L113.47,218.8L113.85,217.64L114.98,216.66L115.35,215.72L118.75,211.58L119.12,210.83L120.25,209.97L120.63,209.01L125.53,204.15L125.91,202.98L129.3,199.65L129.68,198.93L130.81,198.18L131.19,197.28L133.45,195.01L133.83,194.22L137.22,190.05L137.6,189.06L139.1,187.11L139.48,186.68L139.86,186.68L140.23,185.46L141.36,184.48L141.74,183.6L145.13,179.69L145.51,179L147.77,177.05L148.15,176.4L150.41,174.33L150.79,173.8L153.05,171.85L153.43,171.58L155.69,169.7L156.07,169.35L158.33,167.65L158.71,166.57L162.48,163.47L162.85,162.95L166.25,159.58L166.62,159.18L168.88,157.06L169.26,156.65L179.82,149.49L180.19,149.38L195.65,146.22L196.03,146.2L207.71,145.17L208.09,145.11L215.25,143.26L215.63,143.07L228.45,139.71L228.82,139.64L254.46,136.06L254.83,135.82L268.4,128.18L268.78,127.89L277.08,121.2L277.45,120.77L278.58,119.91L278.96,119.07L279.34,119.07L279.71,118.28L286.88,113.09L287.25,112.86L293.29,110.36L293.66,110.28L296.68,109.35L297.05,109.17L304.22,106.4L304.59,106.36L307.23,105.27L307.61,105.03L312.51,103.26L312.89,103.1L318.54,101.72L318.92,101.66L336.26,99.29L336.64,99.1L343.8,96.92L344.18,96.92L346.44,96.25L346.82,96.25L349.08,95.62L349.45,95.62L352.47,94.95L352.85,94.85L364.16,93.46L364.53,93.42L370.56,92.78L370.94,92.64L383.38,90.06L383.76,90.06L387.53,89.05L387.91,88.98L398.08,86.2L398.46,86.06L404.12,84.06L404.49,84.06L406,83.41" style="vector-effect: non-scaling-stroke; fill: none; stroke: rgb(158, 202, 225); stroke-opacity: 1; stroke-width: 2px; opacity: 1;"/></g><g class="points"/><g class="text"/></g><g class="trace scatter traceb350e3" style="stroke-miterlimit: 2; opacity: 1;"><g class="fills"/><g class="errorbars"/><g class="lines"><path class="js-line" d="M5.28,280.25L75.77,279.5L76.15,279.49L116.11,278.76L116.48,278.73L134.58,277.04L134.96,276.96L158.71,274.31L159.08,274.29L177.93,272.65L178.31,272.57L182.45,271.78L182.83,271.72L206.58,270.23L206.96,270.23L223.92,269.05L224.3,269.01L238.25,268.25L238.62,268.25L279.34,267.2L279.71,267.1L286.88,264.48L287.25,264.32L292.91,262.57L293.29,262.47L304.22,261.12L304.59,261.1L345.68,258.36L346.06,258.22L351.34,256.12L351.72,255.95L364.16,251.09L364.53,251.04L391.3,247.14L391.68,247.04L396.58,245.23L396.95,245.07L400.35,243.43L400.72,243.16L406,240.15" style="vector-effect: non-scaling-stroke; fill: none; stroke: rgb(107, 174, 214); stroke-opacity: 1; stroke-width: 2px; opacity: 1; stroke-dasharray: 9px, 9px;"/></g><g class="points"/><g class="text"/></g><g class="trace scatter tracea19507" style="stroke-miterlimit: 2; opacity: 1;"><g class="fills"/><g class="errorbars"/><g class="lines"><path class="js-line" d="M7.92,280.25L106.31,279.5L106.68,279.49L133.45,278.23L133.83,278.2L148.9,277.72L149.28,277.72L207.34,276.93L207.71,276.93L248.05,275.18L248.43,275.13L258.23,273.12L258.6,273.01L274.44,269.71L274.81,269.66L284.24,268.25L284.61,268.12L289.14,265.6L289.52,265.35L293.29,261.16L293.66,260.64L304.22,246.97L304.59,246.76L311.76,243.5L312.13,243.39L326.46,241.75L326.84,241.74L348.32,240.01L348.7,239.91L370.94,234.95L371.32,234.93L387.53,232.56L387.91,232.47L406,228.46" style="vector-effect: non-scaling-stroke; fill: none; stroke: rgb(66, 146, 198); stroke-opacity: 1; stroke-width: 2px; opacity: 1; stroke-dasharray: 3px, 3px;"/></g><g class="points"/><g class="text"/></g><g class="trace scatter trace92fb63" style="stroke-miterlimit: 2; opacity: 1;"><g class="fills"/><g class="errorbars"/><g class="lines"><path class="js-line" d="M0,280.25L18.85,279.66L19.23,279.49L21.11,277.79L21.49,277.23L23.37,272.9L23.75,271.69L27.14,257.87L27.52,256.2L33.55,234.96L33.93,233.97L38.07,225.35L38.45,224.84L43.73,218.54L44.11,218.18L48.25,215.29L48.63,215.09L53.91,213.11L54.28,213.01L61.45,211.52L61.82,211.48L72.38,210.57L72.76,210.54L94.62,208.4L95,208.28L99.14,206.4L99.52,206.15L104.42,201.63L104.8,201.17L108.57,196.1L108.95,195.55L123.65,172.1L124.02,171.35L128.17,161.14L128.55,159.97L132.69,143.8L133.07,142.15L139.1,118.5L139.48,117.32L144.38,106.25L144.76,105.64L148.15,101.23L148.53,100.86L152.67,97.89L153.05,97.68L160.21,95.39L160.59,95.3L171.9,93.97L172.28,93.95L194.14,92.93L194.52,92.9L203.57,91.46L203.94,91.37L214.5,88.14L214.87,87.99L226.18,82.78L226.56,82.59L262,66.46L262.37,66.32L267.27,63.51L267.65,63.21L278.21,56L278.58,55.83L287.25,52.29L287.63,52.16L295.55,48.74L295.92,48.52L303.09,44.1L303.46,43.87L311.38,40.49L311.76,40.37L318.92,38.83L319.3,38.77L335.13,36L335.51,35.87L352.47,30.17L352.85,30.07L372.07,26.38L372.45,26.25L384.14,23.02L384.51,22.95L398.46,21.11L398.84,21.11L406,21.11" style="vector-effect: non-scaling-stroke; fill: none; stroke: rgb(33, 113, 181); stroke-opacity: 1; stroke-width: 2px; opacity: 1; stroke-dasharray: 9px, 3px, 3px, 3px;"/></g><g class="points"/><g class="text"/></g><g class="trace scatter traced16b32" style="stroke-miterlimit: 2; opacity: 1;"><g class="fills"/><g class="errorbars"/><g class="lines"><path class="js-line" d="M11.31,280.25L21.86,279.52L22.24,279.39L24.13,277.84L24.5,277.45L27.9,272.95L28.27,272.35L32.8,266.15L33.17,265.79L38.07,260.07L38.45,259.83L43.35,255.74L43.73,255.6L49.76,252.26L50.14,252.06L55.42,250.03L55.79,249.88L63.33,246.68L63.71,246.46L70.87,241.88L71.25,241.6L75.02,239.16L75.39,239.05L79.92,236.3L80.3,236.19L84.06,234.33L84.44,234.11L88.21,232.29L88.59,232.19L93.49,229.81L93.87,229.69L104.8,223.88L105.18,223.61L112.71,217.08L113.09,216.53L115.73,213.59L116.11,212.88L125.16,198.56L125.53,198.11L130.43,188.5L130.81,188.05L134.2,180.84L134.58,179.84L138.35,172.33L138.73,171.9L142.87,163.93L143.25,163.38L145.13,161.28L145.51,160.67L153.05,152.42L153.43,152.08L169.26,143.13L169.64,142.95L173.03,141.58L173.41,141.36L179.82,138.85L180.19,138.73L183.59,137.57L183.96,137.41L190.75,135.76L191.13,135.74L208.84,132.11L209.22,132.04L211.1,131.24L211.48,130.98L213.37,130.07L213.74,129.64L221.66,122.15L222.04,121.55L223.55,120.27L223.92,119.61L225.43,117.83L225.81,117.27L230.33,111.09L230.71,110.95L235.99,105.28L236.36,104.86L240.51,100.36L240.89,100.26L242.02,99.58L242.39,99.1L251.44,92.76L251.82,92.7L255.96,88.23L256.34,87.8L258.23,86.32L258.6,86.01L262,82.91L262.37,82.82L267.27,77.64L267.65,77.49L273.68,68.98L274.06,68.04L283.11,54.11L283.48,54L284.61,52.51L284.99,51.79L288.01,48.77L288.38,48.69L289.52,47.89L289.89,47.4L292.91,45.07L293.29,44.87L295.17,43.89L295.55,43.68L304.97,40.58L305.35,40.47L307.61,39.94L307.99,39.87L312.13,38.58L312.51,38.57L323.82,36.21L324.2,35.93L342.29,31.71L342.67,31.48L355.49,27.67L355.86,27.31L359.63,26.34L360.01,26.34L378.48,21.51L378.86,21.47L389.41,19.27L389.79,19.17L398.84,16.72L399.21,16.71L402.98,16.02L403.36,15.71L406,14.75" style="vector-effect: non-scaling-stroke; fill: none; stroke: rgb(8, 69, 148); stroke-opacity: 1; stroke-width: 2px; opacity: 1; stroke-dasharray: 15px, 15px;"/></g><g class="points"/><g class="text"/></g></g></g><g class="overplot"/><path class="xlines-above crisp" d="M0,0" style="fill: none;"/><path class="ylines-above crisp" d="M0,0" style="fill: none;"/><g class="overlines-above"/><g class="xaxislayer-above"><g class="xtick"><text text-anchor="middle" x="0" y="358" transform="translate(115.68,0)" style="font-family: 'Open Sans', verdana, arial, sans-serif; font-size: 12px; fill: rgb(68, 68, 68); fill-opacity: 1; white-space: pre; opacity: 1;">Jul 2020</text></g><g class="xtick"><text text-anchor="middle" x="0" y="358" style="font-family: 'Open Sans', verdana, arial, sans-serif; font-size: 12px; fill: rgb(68, 68, 68); fill-opacity: 1; white-space: pre; opacity: 1;" transform="translate(185.04000000000002,0)">Jan 2021</text></g><g class="xtick"><text text-anchor="middle" x="0" y="358" style="font-family: 'Open Sans', verdana, arial, sans-serif; font-size: 12px; fill: rgb(68, 68, 68); fill-opacity: 1; white-space: pre; opacity: 1;" transform="translate(253.27,0)">Jul 2021</text></g><g class="xtick"><text text-anchor="middle" x="0" y="358" style="font-family: 'Open Sans', verdana, arial, sans-serif; font-size: 12px; fill: rgb(68, 68, 68); fill-opacity: 1; white-space: pre; opacity: 1;" transform="translate(322.64,0)">Jan 2022</text></g><g class="xtick"><text text-anchor="middle" x="0" y="358" style="font-family: 'Open Sans', verdana, arial, sans-serif; font-size: 12px; fill: rgb(68, 68, 68); fill-opacity: 1; white-space: pre; opacity: 1;" transform="translate(390.87,0)">Jul 2022</text></g><g class="xtick"><text text-anchor="middle" x="0" y="358" style="font-family: 'Open Sans', verdana, arial, sans-serif; font-size: 12px; fill: rgb(68, 68, 68); fill-opacity: 1; white-space: pre; opacity: 1;" transform="translate(460.23,0)">Jan 2023</text></g></g><g class="yaxislayer-above"><g class="ytick"><text text-anchor="end" x="57" y="4.199999999999999" transform="translate(0,330.25)" style="font-family: 'Open Sans', verdana, arial, sans-serif; font-size: 12px; fill: rgb(68, 68, 68); fill-opacity: 1; white-space: pre; opacity: 1;">0</text></g><g class="ytick"><text text-anchor="end" x="57" y="4.199999999999999" style="font-family: 'Open Sans', verdana, arial, sans-serif; font-size: 12px; fill: rgb(68, 68, 68); fill-opacity: 1; white-space: pre; opacity: 1;" transform="translate(0,289.37)">500</text></g><g class="ytick"><text text-anchor="end" x="57" y="4.199999999999999" style="font-family: 'Open Sans', verdana, arial, sans-serif; font-size: 12px; fill: rgb(68, 68, 68); fill-opacity: 1; white-space: pre; opacity: 1;" transform="translate(0,248.49)">1000</text></g><g class="ytick"><text text-anchor="end" x="57" y="4.199999999999999" style="font-family: 'Open Sans', verdana, arial, sans-serif; font-size: 12px; fill: rgb(68, 68, 68); fill-opacity: 1; white-space: pre; opacity: 1;" transform="translate(0,207.61)">1500</text></g><g class="ytick"><text text-anchor="end" x="57" y="4.199999999999999" style="font-family: 'Open Sans', verdana, arial, sans-serif; font-size: 12px; fill: rgb(68, 68, 68); fill-opacity: 1; white-space: pre; opacity: 1;" transform="translate(0,166.73000000000002)">2000</text></g><g class="ytick"><text text-anchor="end" x="57" y="4.199999999999999" style="font-family: 'Open Sans', verdana, arial, sans-serif; font-size: 12px; fill: rgb(68, 68, 68); fill-opacity: 1; white-space: pre; opacity: 1;" transform="translate(0,125.85)">2500</text></g><g class="ytick"><text text-anchor="end" x="57" y="4.199999999999999" style="font-family: 'Open Sans', verdana, arial, sans-serif; font-size: 12px; fill: rgb(68, 68, 68); fill-opacity: 1; white-space: pre; opacity: 1;" transform="translate(0,84.97)">3000</text></g></g><g class="overaxes-above"/></g></g><g class="polarlayer"/><g class="ternarylayer"/><g class="geolayer"/><g class="funnelarealayer"/><g class="pielayer"/><g class="iciclelayer"/><g class="treemaplayer"/><g class="sunburstlayer"/><g class="glimages"/><defs id="topdefs-c5449c"><g class="clips"/><clipPath id="legendc5449c"><rect width="142" height="105" x="0" y="0"/></clipPath><clipPath id="rangesliderx-c5449c"><rect x="0" y="0" width="406" height="58.56824999999999"/></clipPath></defs><g class="layer-above"><g class="imagelayer"/><g class="shapelayer"/></g><g class="infolayer"><g class="legend" pointer-events="all" transform="translate(472.12,50)"><rect class="bg" shape-rendering="crispEdges" width="142" height="105" x="0" y="0" style="stroke: rgb(68, 68, 68); stroke-opacity: 1; fill: rgb(255, 255, 255); fill-opacity: 1; stroke-width: 0px;"/><g class="scrollbox" transform="" clip-path="url(#legendc5449c)"><g class="groups"><g class="traces" transform="translate(0,14.5)" style="opacity: 1;"><text class="legendtext" text-anchor="start" x="40" y="4.680000000000001" style="font-family: 'Open Sans', verdana, arial, sans-serif; font-size: 12px; fill: rgb(68, 68, 68); fill-opacity: 1; white-space: pre;">France</text><g class="layers" style="opacity: 1;"><g class="legendfill"/><g class="legendlines"><path class="js-line" d="M5,0h30" style="fill: none; stroke: rgb(158, 202, 225); stroke-opacity: 1; stroke-width: 2px;"/></g><g class="legendsymbols"><g class="legendpoints"/></g></g><rect class="legendtoggle" x="0" y="-9.5" width="136.34410095214844" height="19" style="fill: rgb(0, 0, 0); fill-opacity: 0;"/></g><g class="traces" transform="translate(0,33.5)" style="opacity: 1;"><text class="legendtext" text-anchor="start" x="40" y="4.680000000000001" style="font-family: 'Open Sans', verdana, arial, sans-serif; font-size: 12px; fill: rgb(68, 68, 68); fill-opacity: 1; white-space: pre;">Japan</text><g class="layers" style="opacity: 1;"><g class="legendfill"/><g class="legendlines"><path class="js-line" d="M5,0h30" style="fill: none; stroke: rgb(107, 174, 214); stroke-opacity: 1; stroke-dasharray: 9px, 9px; stroke-width: 2px;"/></g><g class="legendsymbols"><g class="legendpoints"/></g></g><rect class="legendtoggle" x="0" y="-9.5" width="136.34410095214844" height="19" style="fill: rgb(0, 0, 0); fill-opacity: 0;"/></g><g class="traces" transform="translate(0,52.5)" style="opacity: 1;"><text class="legendtext" text-anchor="start" x="40" y="4.680000000000001" style="font-family: 'Open Sans', verdana, arial, sans-serif; font-size: 12px; fill: rgb(68, 68, 68); fill-opacity: 1; white-space: pre;">South Korea</text><g class="layers" style="opacity: 1;"><g class="legendfill"/><g class="legendlines"><path class="js-line" d="M5,0h30" style="fill: none; stroke: rgb(66, 146, 198); stroke-opacity: 1; stroke-dasharray: 3px, 3px; stroke-width: 2px;"/></g><g class="legendsymbols"><g class="legendpoints"/></g></g><rect class="legendtoggle" x="0" y="-9.5" width="136.34410095214844" height="19" style="fill: rgb(0, 0, 0); fill-opacity: 0;"/></g><g class="traces" transform="translate(0,71.5)" style="opacity: 1;"><text class="legendtext" text-anchor="start" x="40" y="4.680000000000001" style="font-family: 'Open Sans', verdana, arial, sans-serif; font-size: 12px; fill: rgb(68, 68, 68); fill-opacity: 1; white-space: pre;">United Kingdom</text><g class="layers" style="opacity: 1;"><g class="legendfill"/><g class="legendlines"><path class="js-line" d="M5,0h30" style="fill: none; stroke: rgb(33, 113, 181); stroke-opacity: 1; stroke-dasharray: 9px, 3px, 3px, 3px; stroke-width: 2px;"/></g><g class="legendsymbols"><g class="legendpoints"/></g></g><rect class="legendtoggle" x="0" y="-9.5" width="136.34410095214844" height="19" style="fill: rgb(0, 0, 0); fill-opacity: 0;"/></g><g class="traces" transform="translate(0,90.5)" style="opacity: 1;"><text class="legendtext" text-anchor="start" x="40" y="4.680000000000001" style="font-family: 'Open Sans', verdana, arial, sans-serif; font-size: 12px; fill: rgb(68, 68, 68); fill-opacity: 1; white-space: pre;">United States</text><g class="layers" style="opacity: 1;"><g class="legendfill"/><g class="legendlines"><path class="js-line" d="M5,0h30" style="fill: none; stroke: rgb(8, 69, 148); stroke-opacity: 1; stroke-dasharray: 15px, 15px; stroke-width: 2px;"/></g><g class="legendsymbols"><g class="legendpoints"/></g></g><rect class="legendtoggle" x="0" y="-9.5" width="136.34410095214844" height="19" style="fill: rgb(0, 0, 0); fill-opacity: 0;"/></g></g></g><rect class="scrollbar" rx="20" ry="3" width="0" height="0" x="0" y="0" style="fill: rgb(128, 139, 164); fill-opacity: 1;"/></g><g class="g-gtitle"><text class="gtitle" x="313.182" y="25" text-anchor="middle" dy="0em" style="font-family: 'Open Sans', verdana, arial, sans-serif; font-size: 17px; fill: rgb(68, 68, 68); opacity: 1; font-weight: normal; white-space: pre;">코로나 19 사망자수 추세</text></g><g class="rangeslider-container" pointer-events="all" transform="translate(58,376)"><rect class="rangeslider-bg" x="0" y="0" shape-rendering="crispEdges" width="406" height="58.56824999999999" transform="" fill="#fff" stroke="#444" stroke-width="0"/><g class="rangeslider-rangeplot xy" clip-path="url(#rangesliderx-c5449c)"><g class="layer-subplot"><g class="shapelayer"/><g class="imagelayer"/></g><g class="gridlayer"><g class="x"/><g class="y"/></g><g class="zerolinelayer"/><path class="xlines-below"/><path class="ylines-below"/><g class="overlines-below"/><g class="xaxislayer-below"/><g class="yaxislayer-below"/><g class="overaxes-below"/><g class="plot"><g class="scatterlayer mlayer rangeplot"><g class="trace scatter trace1f40f3" style="stroke-miterlimit: 2; opacity: 1;"><g class="fills"/><g class="errorbars"/><g class="lines"><path class="js-line" d="M6.03,56.05L22.62,55.32L23,55.2L27.14,52.71L27.52,52.58L35.44,50.05L35.81,49.97L42.97,49.19L43.35,49.21L65.59,48.77L65.97,48.77L98.01,48.02L98.39,48L104.42,47.02L104.8,46.71L107.06,46.16L107.44,45.87L112.34,44.18L112.71,43.93L157.95,33.58L158.33,33.53L160.59,32.98L160.97,32.91L177.18,30.14L177.55,30.12L211.86,28.88L212.24,28.87L234.85,27.78L235.23,27.77L256.34,27.02L256.72,27.01L268.03,25.72L268.4,25.64L294.79,21.98L295.17,21.95L362.27,18.74L362.65,18.74L406,16.68" style="vector-effect: non-scaling-stroke; fill: none; stroke: rgb(158, 202, 225); stroke-opacity: 1; stroke-width: 2px; opacity: 1;"/></g><g class="points"/><g class="text"/></g><g class="trace scatter traceb350e3" style="stroke-miterlimit: 2; opacity: 1;"><g class="fills"/><g class="errorbars"/><g class="lines"><path class="js-line" d="M5.28,56.05L137.97,55.3L138.35,55.29L215.25,53.98L215.63,53.98L257.1,53.63L257.47,53.63L286.88,52.9L287.25,52.86L304.59,52.22L304.97,52.22L356.24,50.74L356.62,50.69L374.33,49.97L374.71,49.96L401.1,48.58L401.48,48.53L406,48.03" style="vector-effect: non-scaling-stroke; fill: none; stroke: rgb(107, 174, 214); stroke-opacity: 1; stroke-width: 2px; opacity: 1; stroke-dasharray: 9px, 9px;"/></g><g class="points"/><g class="text"/></g><g class="trace scatter tracea19507" style="stroke-miterlimit: 2; opacity: 1;"><g class="fills"/><g class="errorbars"/><g class="lines"><path class="js-line" d="M7.92,56.05L224.3,55.3L224.68,55.29L259.73,54.54L260.11,54.53L277.83,53.88L278.21,53.88L290.65,52.85L291.02,52.77L297.43,51.05L297.81,50.93L305.73,49.21L306.1,49.15L316.66,48.51L317.03,48.5L401.48,45.9L401.85,45.88L406,45.69" style="vector-effect: non-scaling-stroke; fill: none; stroke: rgb(66, 146, 198); stroke-opacity: 1; stroke-width: 2px; opacity: 1; stroke-dasharray: 3px, 3px;"/></g><g class="points"/><g class="text"/></g><g class="trace scatter trace92fb63" style="stroke-miterlimit: 2; opacity: 1;"><g class="fills"/><g class="errorbars"/><g class="lines"><path class="js-line" d="M0,56.05L21.86,55.32L22.24,55.18L25.63,52.91L26.01,52.56L32.8,47.4L33.17,47.19L39.58,44.64L39.96,44.54L47.12,43.18L47.5,43.14L58.81,42.39L59.18,42.37L101.78,40.88L102.16,40.81L111.21,38.42L111.58,38.3L127.42,32.64L127.79,32.45L132.69,28.76L133.07,28.43L139.86,23.26L140.23,23.05L147.02,20.49L147.4,20.41L154.56,19.4L154.94,19.38L171.15,18.8L171.52,18.8L219.78,17.19L220.15,17.15L315.15,7.9L315.53,7.88L347.95,6.26L348.32,6.23L400.35,4.22L400.72,4.22L406,4.22" style="vector-effect: non-scaling-stroke; fill: none; stroke: rgb(33, 113, 181); stroke-opacity: 1; stroke-width: 2px; opacity: 1; stroke-dasharray: 9px, 3px, 3px, 3px;"/></g><g class="points"/><g class="text"/></g><g class="trace scatter traced16b32" style="stroke-miterlimit: 2; opacity: 1;"><g class="fills"/><g class="errorbars"/><g class="lines"><path class="js-line" d="M11.31,56.05L25.26,55.33L25.63,55.2L43.35,51.15L43.73,51.12L73.51,48.03L73.89,47.98L83.31,46.94L83.69,46.92L116.11,42.58L116.48,42.45L134.2,36.17L134.58,35.97L143.25,32.68L143.63,32.62L148.9,31.31L149.28,31.25L158.71,29.73L159.08,29.69L176.42,28.03L176.8,27.99L201.3,26.8L201.68,26.8L215.63,25.69L216.01,25.61L227.69,22.88L228.07,22.86L238.62,20.49L239,20.42L251.06,18.57L251.44,18.55L255.59,17.72L255.96,17.65L278.96,12.07L279.34,11.91L283.86,10.76L284.24,10.65L288.38,9.74L288.76,9.73L297.81,8.54L298.19,8.52L312.51,7.71L312.89,7.7L347.19,6.05L347.57,6.01L364.16,5L364.53,4.98L400.35,3.32L400.72,3.28L406,2.95" style="vector-effect: non-scaling-stroke; fill: none; stroke: rgb(8, 69, 148); stroke-opacity: 1; stroke-width: 2px; opacity: 1; stroke-dasharray: 15px, 15px;"/></g><g class="points"/><g class="text"/></g></g></g><g class="overplot"/><path class="xlines-above crisp" style="fill: none;"/><path class="ylines-above crisp" style="fill: none;"/><g class="overlines-above"/><g class="xaxislayer-above"/><g class="yaxislayer-above"/><g class="overaxes-above"/></g><rect class="rangeslider-mask-min" x="0" y="0" shape-rendering="crispEdges" height="58.56824999999999" width="0" style="fill: rgb(0, 0, 0); fill-opacity: 0.4;"/><rect class="rangeslider-mask-max" y="0" shape-rendering="crispEdges" height="58.56824999999999" x="406" width="0" style="fill: rgb(0, 0, 0); fill-opacity: 0.4;"/><g class="rangeslider-grabber-min" transform="translate(-2.5,0.5)"><rect class="rangeslider-handle-min" x="0" width="4" rx="1" fill="#fff" stroke="#444" stroke-width="1" shape-rendering="crispEdges" y="15" height="29"/><rect class="rangeslider-grabarea-min" width="10" x="0" y="0" fill="transparent" height="58.56824999999999"/></g><g class="rangeslider-grabber-max" transform="translate(404.5,0.5)"><rect class="rangeslider-handle-max" x="0" width="4" rx="1" fill="#fff" stroke="#444" stroke-width="1" shape-rendering="crispEdges" y="15" height="29"/><rect class="rangeslider-grabarea-max" width="10" x="0" y="0" fill="transparent" height="58.56824999999999"/></g></g><g class="g-ytitle"><text class="ytitle" transform="rotate(-90,20,197.5)" x="20" y="197.5" text-anchor="middle" style="font-family: 'Open Sans', verdana, arial, sans-serif; font-size: 14px; fill: rgb(68, 68, 68); opacity: 1; font-weight: normal; white-space: pre;">10만명당 사망자수 누계</text></g><g class="g-xtitle"/></g></svg>