<svg class="main-svg" xmlns="http://www.w3.org/2000/svg" xmlns:xlink="http://www.w3.org/1999/xlink" width="626.364" height="465.455" style="" viewBox="0 0 626.364 465.455"><rect x="0" y="0" width="626.364" height="465.455" style="fill: rgb(255, 255, 255); fill-opacity: 1;"/><defs id="defs-334d97"><g class="clips"><clipPath id="clip334d97xyplot" class="plotclip"><rect width="406" height="337"/></clipPath><clipPath class="axesclip" id="clip334d97x"><rect x="58" y="0" width="406" height="465.455"/></clipPath><clipPath class="axesclip" id="clip334d97y"><rect x="0" y="50" width="626.364" height="337"/></clipPath><clipPath class="axesclip" id="clip334d97xy"><rect x="58" y="50" width="406" height="337"/></clipPath></g><g class="gradients"/><g class="patterns"/></defs><g class="bglayer"/><g class="layer-below"><g class="imagelayer"/><g class="shapelayer"/></g><g class="cartesianlayer"><g class="subplot xy"><g class="layer-subplot"><g class="shapelayer"/><g class="imagelayer"/></g><g class="gridlayer"><g class="x"><path class="xgrid crisp" transform="translate(81.37,0)" d="M0,50v337" style="stroke: rgb(238, 238, 238); stroke-opacity: 1; stroke-width: 1px;"/><path class="xgrid crisp" transform="translate(115.68,0)" d="M0,50v337" style="stroke: rgb(238, 238, 238); stroke-opacity: 1; stroke-width: 1px;"/><path class="xgrid crisp" transform="translate(150.36,0)" d="M0,50v337" style="stroke: rgb(238, 238, 238); stroke-opacity: 1; stroke-width: 1px;"/><path class="xgrid crisp" transform="translate(185.04000000000002,0)" d="M0,50v337" style="stroke: rgb(238, 238, 238); stroke-opacity: 1; stroke-width: 1px;"/><path class="xgrid crisp" transform="translate(218.97,0)" d="M0,50v337" style="stroke: rgb(238, 238, 238); stroke-opacity: 1; stroke-width: 1px;"/><path class="xgrid crisp" transform="translate(253.27,0)" d="M0,50v337" style="stroke: rgb(238, 238, 238); stroke-opacity: 1; stroke-width: 1px;"/><path class="xgrid crisp" transform="translate(287.95,0)" d="M0,50v337" style="stroke: rgb(238, 238, 238); stroke-opacity: 1; stroke-width: 1px;"/><path class="xgrid crisp" transform="translate(322.64,0)" d="M0,50v337" style="stroke: rgb(238, 238, 238); stroke-opacity: 1; stroke-width: 1px;"/><path class="xgrid crisp" transform="translate(356.56,0)" d="M0,50v337" style="stroke: rgb(238, 238, 238); stroke-opacity: 1; stroke-width: 1px;"/><path class="xgrid crisp" transform="translate(390.87,0)" d="M0,50v337" style="stroke: rgb(238, 238, 238); stroke-opacity: 1; stroke-width: 1px;"/><path class="xgrid crisp" transform="translate(425.55,0)" d="M0,50v337" style="stroke: rgb(238, 238, 238); stroke-opacity: 1; stroke-width: 1px;"/><path class="xgrid crisp" transform="translate(460.23,0)" d="M0,50v337" style="stroke: rgb(238, 238, 238); stroke-opacity: 1; stroke-width: 1px;"/></g><g class="y"><path class="ygrid crisp" transform="translate(0,323.45)" d="M58,0h406" style="stroke: rgb(238, 238, 238); stroke-opacity: 1; stroke-width: 1px;"/><path class="ygrid crisp" transform="translate(0,276.75)" d="M58,0h406" style="stroke: rgb(238, 238, 238); stroke-opacity: 1; stroke-width: 1px;"/><path class="ygrid crisp" transform="translate(0,230.05)" d="M58,0h406" style="stroke: rgb(238, 238, 238); stroke-opacity: 1; stroke-width: 1px;"/><path class="ygrid crisp" transform="translate(0,183.35)" d="M58,0h406" style="stroke: rgb(238, 238, 238); stroke-opacity: 1; stroke-width: 1px;"/><path class="ygrid crisp" transform="translate(0,136.64)" d="M58,0h406" style="stroke: rgb(238, 238, 238); stroke-opacity: 1; stroke-width: 1px;"/><path class="ygrid crisp" transform="translate(0,89.94)" d="M58,0h406" style="stroke: rgb(238, 238, 238); stroke-opacity: 1; stroke-width: 1px;"/></g></g><g class="zerolinelayer"><path class="yzl zl crisp" transform="translate(0,370.15)" d="M58,0h406" style="stroke: rgb(68, 68, 68); stroke-opacity: 1; stroke-width: 1px;"/></g><path class="xlines-below"/><path class="ylines-below"/><g class="overlines-below"/><g class="xaxislayer-below"/><g class="yaxislayer-below"/><g class="overaxes-below"/><g class="plot" transform="translate(58,50)" clip-path="url(#clip334d97xyplot)"><g class="scatterlayer mlayer"><g class="trace scatter tracee8ca9f" style="stroke-miterlimit: 2; opacity: 1;"><g class="fills"/><g class="errorbars"/><g class="lines"><path class="js-line" d="M6.03,320.15L18.85,319.53L19.23,319.37L21.11,317.81L21.49,317.4L23,315.29L23.37,313.57L25.26,307.87L25.63,305.92L26.39,303.33L26.77,301.97L32.42,289.04L32.8,288.71L35.06,286.04L35.44,285.86L38.83,282.97L39.21,282.85L41.09,281.25L41.47,281.55L45.99,280.48L46.37,280.43L50.14,279.73L50.51,279.69L67.86,278.52L68.23,278.5L89.34,276.8L89.72,276.74L92.74,275.85L93.11,275.82L97.64,274.51L98.01,274.27L100.27,273.02L100.65,272.61L101.78,271.93L102.16,271.2L104.42,268.57L104.8,266.81L105.55,266.37L105.93,265.22L107.06,263.68L107.44,261.99L109.7,258.08L110.08,256.39L113.47,249.95L113.85,248.63L114.98,247.5L115.35,246.44L118.75,241.71L119.12,240.84L120.25,239.86L120.63,238.77L125.53,233.21L125.91,231.88L129.3,228.07L129.68,227.26L130.81,226.39L131.19,225.37L133.45,222.77L133.83,221.87L137.22,217.11L137.6,215.98L139.1,213.75L139.48,213.26L139.86,213.26L140.23,211.87L141.36,210.74L141.74,209.74L145.13,205.27L145.51,204.49L147.4,202.62L147.77,202.26L149.66,200L150.04,199.56L156.44,193.22L156.82,193.03L164.36,184.36L164.74,184.12L168.88,179.42L169.26,178.96L179.82,170.77L180.19,170.65L193.39,167.29L193.76,167.27L204.7,166.3L205.07,166.26L214.12,164.12L214.5,163.96L225.05,160.31L225.43,160.28L235.23,158.61L235.61,158.59L243.9,157.69L244.28,157.61L254.46,155.43L254.83,155.16L268.03,146.9L268.4,146.43L278.58,136.98L278.96,136.02L279.34,136.02L279.71,135.12L286.5,129.48L286.88,129.19L291.02,127.12L291.4,127.08L295.17,125.39L295.55,125.24L314.77,117.22L315.15,117.21L317.03,116.51L317.41,116.51L321.56,115.68L321.94,115.62L337.01,113.03L337.39,112.88L339.28,112.3L339.65,112.1L346.06,109.96L346.44,109.96L349.83,109.23L350.21,108.99L355.49,107.89L355.86,107.82L376.6,104.31L376.97,104.22L396.95,99.18L397.33,98.83L406,95.28" style="vector-effect: non-scaling-stroke; fill: none; stroke: rgb(158, 202, 225); stroke-opacity: 1; stroke-width: 2px; opacity: 1;"/></g><g class="points"/><g class="text"/></g><g class="trace scatter trace815b45" style="stroke-miterlimit: 2; opacity: 1;"><g class="fills"/><g class="errorbars"/><g class="lines"><path class="js-line" d="M5.28,320.15L67.86,319.4L68.23,319.39L112.34,318.65L112.71,318.63L126.66,317.52L127.04,317.48L135.71,316.29L136.09,316.24L148.9,314.2L149.28,314.16L162.1,313.19L162.48,313.18L176.42,311.71L176.8,311.63L196.4,308.96L196.78,308.95L228.82,306.92L229.2,306.88L245.41,306.34L245.79,306.34L277.83,305.63L278.21,305.57L283.48,303.69L283.86,303.56L288.38,301.45L288.76,301.35L301.96,298.53L302.33,298.5L336.64,296.45L337.01,296.44L345.68,295.15L346.06,294.99L351.34,292.58L351.72,292.39L363.78,286.92L364.16,286.84L390.92,282.46L391.3,282.32L397.33,279.83L397.71,279.66L406,274.34" style="vector-effect: non-scaling-stroke; fill: none; stroke: rgb(107, 174, 214); stroke-opacity: 1; stroke-width: 2px; opacity: 1; stroke-dasharray: 9px, 9px;"/></g><g class="points"/><g class="text"/></g><g class="trace scatter trace74405e" style="stroke-miterlimit: 2; opacity: 1;"><g class="fills"/><g class="errorbars"/><g class="lines"><path class="js-line" d="M7.92,320.15L92.36,319.4L92.74,319.39L125.16,318.67L125.53,318.6L150.79,317.21L151.17,317.2L245.41,314.65L245.79,314.59L254.08,313.21L254.46,313.13L272.17,308.38L272.55,308.36L284.24,306.44L284.61,306.29L288.76,303.75L289.14,303.42L292.15,300.23L292.53,299.45L300.45,287.02L300.82,286.34L304.22,282.13L304.59,281.89L311.38,278.32L311.76,278.17L317.41,276.95L317.79,276.91L348.7,274.07L349.08,273.96L356.99,271.31L357.37,271.21L374.71,267.96L375.09,267.92L384.14,266.53L384.51,266.44L394.31,264.09L394.69,264.04L406,260.99" style="vector-effect: non-scaling-stroke; fill: none; stroke: rgb(66, 146, 198); stroke-opacity: 1; stroke-width: 2px; opacity: 1; stroke-dasharray: 3px, 3px;"/></g><g class="points"/><g class="text"/></g><g class="trace scatter trace55a5da" style="stroke-miterlimit: 2; opacity: 1;"><g class="fills"/><g class="errorbars"/><g class="lines"><path class="js-line" d="M0,320.15L18.85,319.48L19.23,319.28L21.11,317.34L21.49,316.7L23.37,311.76L23.75,310.37L27.14,294.58L27.52,292.67L33.55,268.41L33.93,267.28L38.07,257.44L38.45,256.85L43.73,249.66L44.11,249.24L48.25,245.94L48.63,245.71L53.91,243.45L54.28,243.34L60.69,241.74L61.07,241.68L77.66,240.2L78.03,240.19L94.62,238.07L95,237.94L99.52,235.5L99.9,235.18L104.8,229.82L105.18,229.34L111.21,219.46L111.58,218.77L124.78,193.89L125.16,192.89L129.3,179.88L129.68,178.42L133.45,160.46L133.83,158.39L138.73,136.71L139.1,135.37L142.87,124.66L143.25,123.85L147.02,117.06L147.4,116.55L150.79,113.14L151.17,112.85L155.69,110.36L156.07,110.22L162.48,108.52L162.85,108.46L176.05,107.09L176.42,107.07L201.3,105.11L201.68,105.01L217.14,99.48L217.51,99.29L223.17,96.3L223.55,96.07L230.33,92.54L230.71,92.39L239.38,87.86L239.75,87.61L248.05,82.6L248.43,82.4L261.62,76.08L262,75.93L266.52,73.16L266.9,72.85L279.34,63.36L279.71,63.19L289.52,58.83L289.89,58.68L296.3,55.21L296.68,54.99L309.87,46.79L310.25,46.64L317.03,44.7L317.41,44.64L336.64,40.5L337.01,40.29L347.95,35.73L348.32,35.6L353.98,34.16L354.35,34.08L373.58,29.54L373.96,29.39L384.14,26.3L384.51,26.21L399.21,24.12L399.59,24.12L406,24.12" style="vector-effect: non-scaling-stroke; fill: none; stroke: rgb(33, 113, 181); stroke-opacity: 1; stroke-width: 2px; opacity: 1; stroke-dasharray: 9px, 3px, 3px, 3px;"/></g><g class="points"/><g class="text"/></g><g class="trace scatter traceb96822" style="stroke-miterlimit: 2; opacity: 1;"><g class="fills"/><g class="errorbars"/><g class="lines"><path class="js-line" d="M11.31,320.15L21.49,319.51L21.86,319.32L23.75,317.79L24.13,317.4L27.9,311.81L28.27,311.13L32.8,304.04L33.17,303.63L37.7,297.38L38.07,297.1L41.47,293.69L41.84,293.29L47.5,289.34L47.88,289.1L65.22,280.72L65.59,280.38L80.3,269.82L80.67,269.69L85.2,266.93L85.57,266.82L88.97,264.96L89.34,264.67L96.51,261L96.88,260.8L110.08,251.29L110.45,250.75L118.37,239.42L118.75,238.61L122.14,231.77L122.52,231.3L125.53,226.31L125.91,225.32L130.06,215.92L130.43,215.34L131.19,213.62L131.56,212.52L135.71,202.93L136.09,202.44L140.23,192.24L140.61,191.49L142.12,188.92L142.5,188.05L145.13,184.24L145.51,183.54L153.05,174.12L153.43,173.73L167,164.69L167.38,164.6L173.03,161.73L173.41,161.49L179.06,158.97L179.44,158.78L188.11,155.66L188.49,155.63L200.17,153.33L200.55,153.23L212.61,149.21L212.99,148.93L218.64,143.48L219.02,142.65L229.2,128.5L229.58,127.72L232.97,123.65L233.35,123.52L234.48,121.68L234.85,121.07L240.51,114.65L240.89,114.54L242.02,113.76L242.39,113.21L251.44,105.97L251.82,105.89L255.96,100.79L256.34,100.3L257.85,99.23L258.23,98.61L260.49,96.51L260.87,95.35L266.52,89.61L266.9,88.94L268.4,87.26L268.78,86.48L272.55,80.48L272.93,80.27L274.44,77.01L274.81,75.88L276.32,73.76L276.7,72.77L283.48,61.69L283.86,61.44L288.01,55.71L288.38,55.63L289.52,54.71L289.89,54.15L292.53,51.9L292.91,51.49L299.69,48.19L300.07,48.05L302.33,47.19L302.71,47.03L304.97,46.36L305.35,46.23L307.61,45.63L307.99,45.54L311.76,44.13L312.13,44.07L315.9,43.36L316.28,43.1L343.05,35.85L343.42,35.68L345.68,34.89L346.06,34.7L348.32,33.94L348.7,33.77L350.96,33L351.34,32.84L353.6,32.07L353.98,31.88L355.86,31.2L356.24,31L380.74,23.93L381.12,23.92L386.77,22.63L387.15,22.47L388.66,22.1L389.04,22.1L397.71,19.6L398.08,19.31L401.85,18.41L402.23,18.41L403.74,17.72L404.12,17.6L405.62,17.31L406,16.85" style="vector-effect: non-scaling-stroke; fill: none; stroke: rgb(8, 69, 148); stroke-opacity: 1; stroke-width: 2px; opacity: 1; stroke-dasharray: 15px, 15px;"/></g><g class="points"/><g class="text"/></g></g></g><g class="overplot"/><path class="xlines-above crisp" d="M0,0" style="fill: none;"/><path class="ylines-above crisp" d="M0,0" style="fill: none;"/><g class="overlines-above"/><g class="xaxislayer-above"><g class="xtick"><text text-anchor="start" x="0" y="400" transform="translate(81.37,0) rotate(30,0,394)" style="font-family: 'Open Sans', verdana, arial, sans-serif; font-size: 12px; fill: rgb(68, 68, 68); fill-opacity: 1; white-space: pre; opacity: 1;">2020년 04월</text></g><g class="xtick"><text text-anchor="start" x="0" y="400" style="font-family: 'Open Sans', verdana, arial, sans-serif; font-size: 12px; fill: rgb(68, 68, 68); fill-opacity: 1; white-space: pre; opacity: 1;" transform="translate(115.68,0) rotate(30,0,394)">2020년 07월</text></g><g class="xtick"><text text-anchor="start" x="0" y="400" style="font-family: 'Open Sans', verdana, arial, sans-serif; font-size: 12px; fill: rgb(68, 68, 68); fill-opacity: 1; white-space: pre; opacity: 1;" transform="translate(150.36,0) rotate(30,0,394)">2020년 10월</text></g><g class="xtick"><text text-anchor="start" x="0" y="400" style="font-family: 'Open Sans', verdana, arial, sans-serif; font-size: 12px; fill: rgb(68, 68, 68); fill-opacity: 1; white-space: pre; opacity: 1;" transform="translate(185.04000000000002,0) rotate(30,0,394)">2021년 01월</text></g><g class="xtick"><text text-anchor="start" x="0" y="400" style="font-family: 'Open Sans', verdana, arial, sans-serif; font-size: 12px; fill: rgb(68, 68, 68); fill-opacity: 1; white-space: pre; opacity: 1;" transform="translate(218.97,0) rotate(30,0,394)">2021년 04월</text></g><g class="xtick"><text text-anchor="start" x="0" y="400" style="font-family: 'Open Sans', verdana, arial, sans-serif; font-size: 12px; fill: rgb(68, 68, 68); fill-opacity: 1; white-space: pre; opacity: 1;" transform="translate(253.27,0) rotate(30,0,394)">2021년 07월</text></g><g class="xtick"><text text-anchor="start" x="0" y="400" style="font-family: 'Open Sans', verdana, arial, sans-serif; font-size: 12px; fill: rgb(68, 68, 68); fill-opacity: 1; white-space: pre; opacity: 1;" transform="translate(287.95,0) rotate(30,0,394)">2021년 10월</text></g><g class="xtick"><text text-anchor="start" x="0" y="400" style="font-family: 'Open Sans', verdana, arial, sans-serif; font-size: 12px; fill: rgb(68, 68, 68); fill-opacity: 1; white-space: pre; opacity: 1;" transform="translate(322.64,0) rotate(30,0,394)">2022년 01월</text></g><g class="xtick"><text text-anchor="start" x="0" y="400" style="font-family: 'Open Sans', verdana, arial, sans-serif; font-size: 12px; fill: rgb(68, 68, 68); fill-opacity: 1; white-space: pre; opacity: 1;" transform="translate(356.56,0) rotate(30,0,394)">2022년 04월</text></g><g class="xtick"><text text-anchor="start" x="0" y="400" style="font-family: 'Open Sans', verdana, arial, sans-serif; font-size: 12px; fill: rgb(68, 68, 68); fill-opacity: 1; white-space: pre; opacity: 1;" transform="translate(390.87,0) rotate(30,0,394)">2022년 07월</text></g><g class="xtick"><text text-anchor="start" x="0" y="400" style="font-family: 'Open Sans', verdana, arial, sans-serif; font-size: 12px; fill: rgb(68, 68, 68); fill-opacity: 1; white-space: pre; opacity: 1;" transform="translate(425.55,0) rotate(30,0,394)">2022년 10월</text></g><g class="xtick"><text text-anchor="start" x="0" y="400" style="font-family: 'Open Sans', verdana, arial, sans-serif; font-size: 12px; fill: rgb(68, 68, 68); fill-opacity: 1; white-space: pre; opacity: 1;" transform="translate(460.23,0) rotate(30,0,394)">2023년 01월</text></g></g><g class="yaxislayer-above"><g class="ytick"><text text-anchor="end" x="57" y="4.199999999999999" transform="translate(0,370.15)" style="font-family: 'Open Sans', verdana, arial, sans-serif; font-size: 12px; fill: rgb(68, 68, 68); fill-opacity: 1; white-space: pre; opacity: 1;">0</text></g><g class="ytick"><text text-anchor="end" x="57" y="4.199999999999999" style="font-family: 'Open Sans', verdana, arial, sans-serif; font-size: 12px; fill: rgb(68, 68, 68); fill-opacity: 1; white-space: pre; opacity: 1;" transform="translate(0,323.45)">500</text></g><g class="ytick"><text text-anchor="end" x="57" y="4.199999999999999" style="font-family: 'Open Sans', verdana, arial, sans-serif; font-size: 12px; fill: rgb(68, 68, 68); fill-opacity: 1; white-space: pre; opacity: 1;" transform="translate(0,276.75)">1000</text></g><g class="ytick"><text text-anchor="end" x="57" y="4.199999999999999" style="font-family: 'Open Sans', verdana, arial, sans-serif; font-size: 12px; fill: rgb(68, 68, 68); fill-opacity: 1; white-space: pre; opacity: 1;" transform="translate(0,230.05)">1500</text></g><g class="ytick"><text text-anchor="end" x="57" y="4.199999999999999" style="font-family: 'Open Sans', verdana, arial, sans-serif; font-size: 12px; fill: rgb(68, 68, 68); fill-opacity: 1; white-space: pre; opacity: 1;" transform="translate(0,183.35)">2000</text></g><g class="ytick"><text text-anchor="end" x="57" y="4.199999999999999" style="font-family: 'Open Sans', verdana, arial, sans-serif; font-size: 12px; fill: rgb(68, 68, 68); fill-opacity: 1; white-space: pre; opacity: 1;" transform="translate(0,136.64)">2500</text></g><g class="ytick"><text text-anchor="end" x="57" y="4.199999999999999" style="font-family: 'Open Sans', verdana, arial, sans-serif; font-size: 12px; fill: rgb(68, 68, 68); fill-opacity: 1; white-space: pre; opacity: 1;" transform="translate(0,89.94)">3000</text></g></g><g class="overaxes-above"/></g></g><g class="polarlayer"/><g class="ternarylayer"/><g class="geolayer"/><g class="funnelarealayer"/><g class="pielayer"/><g class="iciclelayer"/><g class="treemaplayer"/><g class="sunburstlayer"/><g class="glimages"/><defs id="topdefs-334d97"><g class="clips"/><clipPath id="legend334d97"><rect width="142" height="105" x="0" y="0"/></clipPath></defs><g class="layer-above"><g class="imagelayer"/><g class="shapelayer"/></g><g class="infolayer"><g class="legend" pointer-events="all" transform="translate(472.12,50)"><rect class="bg" shape-rendering="crispEdges" width="142" height="105" x="0" y="0" style="stroke: rgb(68, 68, 68); stroke-opacity: 1; fill: rgb(255, 255, 255); fill-opacity: 1; stroke-width: 0px;"/><g class="scrollbox" transform="" clip-path="url(#legend334d97)"><g class="groups"><g class="traces" transform="translate(0,14.5)" style="opacity: 1;"><text class="legendtext" text-anchor="start" x="40" y="4.680000000000001" style="font-family: 'Open Sans', verdana, arial, sans-serif; font-size: 12px; fill: rgb(68, 68, 68); fill-opacity: 1; white-space: pre;">France</text><g class="layers" style="opacity: 1;"><g class="legendfill"/><g class="legendlines"><path class="js-line" d="M5,0h30" style="fill: none; stroke: rgb(158, 202, 225); stroke-opacity: 1; stroke-width: 2px;"/></g><g class="legendsymbols"><g class="legendpoints"/></g></g><rect class="legendtoggle" x="0" y="-9.5" width="136.34410095214844" height="19" style="fill: rgb(0, 0, 0); fill-opacity: 0;"/></g><g class="traces" transform="translate(0,33.5)" style="opacity: 1;"><text class="legendtext" text-anchor="start" x="40" y="4.680000000000001" style="font-family: 'Open Sans', verdana, arial, sans-serif; font-size: 12px; fill: rgb(68, 68, 68); fill-opacity: 1; white-space: pre;">Japan</text><g class="layers" style="opacity: 1;"><g class="legendfill"/><g class="legendlines"><path class="js-line" d="M5,0h30" style="fill: none; stroke: rgb(107, 174, 214); stroke-opacity: 1; stroke-dasharray: 9px, 9px; stroke-width: 2px;"/></g><g class="legendsymbols"><g class="legendpoints"/></g></g><rect class="legendtoggle" x="0" y="-9.5" width="136.34410095214844" height="19" style="fill: rgb(0, 0, 0); fill-opacity: 0;"/></g><g class="traces" transform="translate(0,52.5)" style="opacity: 1;"><text class="legendtext" text-anchor="start" x="40" y="4.680000000000001" style="font-family: 'Open Sans', verdana, arial, sans-serif; font-size: 12px; fill: rgb(68, 68, 68); fill-opacity: 1; white-space: pre;">South Korea</text><g class="layers" style="opacity: 1;"><g class="legendfill"/><g class="legendlines"><path class="js-line" d="M5,0h30" style="fill: none; stroke: rgb(66, 146, 198); stroke-opacity: 1; stroke-dasharray: 3px, 3px; stroke-width: 2px;"/></g><g class="legendsymbols"><g class="legendpoints"/></g></g><rect class="legendtoggle" x="0" y="-9.5" width="136.34410095214844" height="19" style="fill: rgb(0, 0, 0); fill-opacity: 0;"/></g><g class="traces" transform="translate(0,71.5)" style="opacity: 1;"><text class="legendtext" text-anchor="start" x="40" y="4.680000000000001" style="font-family: 'Open Sans', verdana, arial, sans-serif; font-size: 12px; fill: rgb(68, 68, 68); fill-opacity: 1; white-space: pre;">United Kingdom</text><g class="layers" style="opacity: 1;"><g class="legendfill"/><g class="legendlines"><path class="js-line" d="M5,0h30" style="fill: none; stroke: rgb(33, 113, 181); stroke-opacity: 1; stroke-dasharray: 9px, 3px, 3px, 3px; stroke-width: 2px;"/></g><g class="legendsymbols"><g class="legendpoints"/></g></g><rect class="legendtoggle" x="0" y="-9.5" width="136.34410095214844" height="19" style="fill: rgb(0, 0, 0); fill-opacity: 0;"/></g><g class="traces" transform="translate(0,90.5)" style="opacity: 1;"><text class="legendtext" text-anchor="start" x="40" y="4.680000000000001" style="font-family: 'Open Sans', verdana, arial, sans-serif; font-size: 12px; fill: rgb(68, 68, 68); fill-opacity: 1; white-space: pre;">United States</text><g class="layers" style="opacity: 1;"><g class="legendfill"/><g class="legendlines"><path class="js-line" d="M5,0h30" style="fill: none; stroke: rgb(8, 69, 148); stroke-opacity: 1; stroke-dasharray: 15px, 15px; stroke-width: 2px;"/></g><g class="legendsymbols"><g class="legendpoints"/></g></g><rect class="legendtoggle" x="0" y="-9.5" width="136.34410095214844" height="19" style="fill: rgb(0, 0, 0); fill-opacity: 0;"/></g></g></g><rect class="scrollbar" rx="20" ry="3" width="0" height="0" x="0" y="0" style="fill: rgb(128, 139, 164); fill-opacity: 1;"/></g><g class="g-gtitle"><text class="gtitle" x="313.182" y="25" text-anchor="middle" dy="0em" style="font-family: 'Open Sans', verdana, arial, sans-serif; font-size: 17px; fill: rgb(68, 68, 68); opacity: 1; font-weight: normal; white-space: pre;">코로나 19 사망자수 추세</text></g><g class="g-xtitle"/><g class="g-ytitle"><text class="ytitle" transform="rotate(-90,20,218.5)" x="20" y="218.5" text-anchor="middle" style="font-family: 'Open Sans', verdana, arial, sans-serif; font-size: 14px; fill: rgb(68, 68, 68); opacity: 1; font-weight: normal; white-space: pre;">10만명당 사망자수 누계</text></g></g></svg>