<svg class="main-svg" xmlns="http://www.w3.org/2000/svg" xmlns:xlink="http://www.w3.org/1999/xlink" width="900" height="600" style="" viewBox="0 0 900 600"><rect x="0" y="0" width="900" height="600" style="fill: rgb(255, 255, 255); fill-opacity: 1;"/><defs id="defs-75ad20"><g class="clips"><clipPath id="clip75ad20xyplot" class="plotclip"><rect width="840" height="493"/></clipPath><clipPath class="axesclip" id="clip75ad20x"><rect x="35" y="0" width="840" height="600"/></clipPath><clipPath class="axesclip" id="clip75ad20y"><rect x="0" y="50" width="900" height="493"/></clipPath><clipPath class="axesclip" id="clip75ad20xy"><rect x="35" y="50" width="840" height="493"/></clipPath></g><g class="gradients"/><g class="patterns"/></defs><g class="bglayer"/><g class="layer-below"><g class="imagelayer"/><g class="shapelayer"/></g><g class="cartesianlayer"><g class="subplot xy"><g class="layer-subplot"><g class="shapelayer"/><g class="imagelayer"/></g><g class="gridlayer"><g class="x"><path class="xgrid crisp" transform="translate(56.21,0)" d="M0,50v493" style="stroke: rgb(238, 238, 238); stroke-opacity: 1; stroke-width: 1px;"/><path class="xgrid crisp" transform="translate(175,0)" d="M0,50v493" style="stroke: rgb(238, 238, 238); stroke-opacity: 1; stroke-width: 1px;"/><path class="xgrid crisp" transform="translate(293.79,0)" d="M0,50v493" style="stroke: rgb(238, 238, 238); stroke-opacity: 1; stroke-width: 1px;"/><path class="xgrid crisp" transform="translate(412.58,0)" d="M0,50v493" style="stroke: rgb(238, 238, 238); stroke-opacity: 1; stroke-width: 1px;"/><path class="xgrid crisp" transform="translate(531.36,0)" d="M0,50v493" style="stroke: rgb(238, 238, 238); stroke-opacity: 1; stroke-width: 1px;"/><path class="xgrid crisp" transform="translate(650.15,0)" d="M0,50v493" style="stroke: rgb(238, 238, 238); stroke-opacity: 1; stroke-width: 1px;"/><path class="xgrid crisp" transform="translate(768.94,0)" d="M0,50v493" style="stroke: rgb(238, 238, 238); stroke-opacity: 1; stroke-width: 1px;"/></g><g class="y"><path class="ygrid crisp" transform="translate(0,518.35)" d="M35,0h840" style="stroke: rgb(238, 238, 238); stroke-opacity: 1; stroke-width: 1px;"/><path class="ygrid crisp" transform="translate(0,421.89)" d="M35,0h840" style="stroke: rgb(238, 238, 238); stroke-opacity: 1; stroke-width: 1px;"/><path class="ygrid crisp" transform="translate(0,325.44)" d="M35,0h840" style="stroke: rgb(238, 238, 238); stroke-opacity: 1; stroke-width: 1px;"/><path class="ygrid crisp" transform="translate(0,228.98)" d="M35,0h840" style="stroke: rgb(238, 238, 238); stroke-opacity: 1; stroke-width: 1px;"/><path class="ygrid crisp" transform="translate(0,132.51999999999998)" d="M35,0h840" style="stroke: rgb(238, 238, 238); stroke-opacity: 1; stroke-width: 1px;"/></g></g><g class="zerolinelayer"/><path class="xlines-below"/><path class="ylines-below"/><g class="overlines-below"/><g class="xaxislayer-below"/><g class="yaxislayer-below"/><g class="overaxes-below"/><g class="plot" transform="translate(35,50)" clip-path="url(#clip75ad20xyplot)"><g class="boxlayer mlayer"><g class="trace boxes" style="opacity: 1;"><path class="box" d="M2.16,363.25H6.32M2.16,376.72H6.32V362.25H2.16ZM4.24,376.72V410.48M4.24,362.25V328.49" style="vector-effect: non-scaling-stroke; stroke-width: 2px; stroke: rgb(255, 0, 0); stroke-opacity: 1; fill: rgb(255, 0, 0); fill-opacity: 0.5; opacity: 1;"/><path class="box" d="M36.1,401.83H40.26M36.1,449.06H40.26V400.83H36.1ZM38.18,449.06V468.35M38.18,400.83V386.36" style="vector-effect: non-scaling-stroke; stroke-width: 2px; stroke: rgb(255, 0, 0); stroke-opacity: 1; fill: rgb(255, 0, 0); fill-opacity: 0.5; opacity: 1;"/><path class="box" d="M44.59,382.54H48.75M44.59,386.36H48.75V381.54H44.59ZM46.67,386.36V410.48M46.67,381.54V323.67" style="vector-effect: non-scaling-stroke; stroke-width: 2px; stroke: rgb(255, 0, 0); stroke-opacity: 1; fill: rgb(255, 0, 0); fill-opacity: 0.5; opacity: 1;"/><path class="box" d="M53.07,409.48H57.23M53.07,410.48H57.23V400.83H53.07ZM55.15,410.48V410.48M55.15,400.83V367.07" style="vector-effect: non-scaling-stroke; stroke-width: 2px; stroke: rgb(0, 0, 255); stroke-opacity: 1; fill: rgb(0, 0, 255); fill-opacity: 0.5; opacity: 1;"/><path class="box" d="M61.56,358.43H65.72M61.56,362.25H65.72V357.43H61.56ZM63.64,362.25V381.54M63.64,357.43V347.78" style="vector-effect: non-scaling-stroke; stroke-width: 2px; stroke: rgb(255, 0, 0); stroke-opacity: 1; fill: rgb(255, 0, 0); fill-opacity: 0.5; opacity: 1;"/><path class="box" d="M87.01,343.96H91.17M87.01,381.54H91.17V342.96H87.01ZM89.09,381.54V386.36M89.09,342.96V323.67" style="vector-effect: non-scaling-stroke; stroke-width: 2px; stroke: rgb(255, 0, 0); stroke-opacity: 1; fill: rgb(255, 0, 0); fill-opacity: 0.5; opacity: 1;"/><path class="box" d="M95.5,346.78H99.65M95.5,347.78H99.65V338.13H95.5ZM97.58,347.78V381.54M97.58,338.13V318.84" style="vector-effect: non-scaling-stroke; stroke-width: 2px; stroke: rgb(0, 0, 255); stroke-opacity: 1; fill: rgb(0, 0, 255); fill-opacity: 0.5; opacity: 1;"/><path class="box" d="M103.98,380.54H108.14M103.98,381.54H108.14V338.13H103.98ZM106.06,381.54V386.36M106.06,338.13V328.49" style="vector-effect: non-scaling-stroke; stroke-width: 2px; stroke: rgb(0, 0, 255); stroke-opacity: 1; fill: rgb(0, 0, 255); fill-opacity: 0.5; opacity: 1;"/><path class="box" d="M112.47,397.01H116.62M112.47,410.48H116.62V396.01H112.47ZM114.55,410.48V415.3M114.55,396.01V371.89" style="vector-effect: non-scaling-stroke; stroke-width: 2px; stroke: rgb(255, 0, 0); stroke-opacity: 1; fill: rgb(255, 0, 0); fill-opacity: 0.5; opacity: 1;"/><path class="box" d="M120.95,377.72H125.11M120.95,415.3H125.11V376.72H120.95ZM123.03,415.3V415.3M123.03,376.72V357.43" style="vector-effect: non-scaling-stroke; stroke-width: 2px; stroke: rgb(255, 0, 0); stroke-opacity: 1; fill: rgb(255, 0, 0); fill-opacity: 0.5; opacity: 1;"/><path class="box" d="M146.41,300.55H150.56M146.41,323.67H150.56V299.55H146.41ZM148.48,323.67V338.13M148.48,299.55V299.55" style="vector-effect: non-scaling-stroke; stroke-width: 2px; stroke: rgb(255, 0, 0); stroke-opacity: 1; fill: rgb(255, 0, 0); fill-opacity: 0.5; opacity: 1;"/><path class="box" d="M154.89,290.91H159.05M154.89,323.67H159.05V289.91H154.89ZM156.97,323.67V323.67M156.97,289.91V246.5" style="vector-effect: non-scaling-stroke; stroke-width: 2px; stroke: rgb(255, 0, 0); stroke-opacity: 1; fill: rgb(255, 0, 0); fill-opacity: 0.5; opacity: 1;"/><path class="box" d="M163.38,208.92H167.53M163.38,275.44H167.53V207.92H163.38ZM165.45,275.44V289.91M165.45,207.92V198.27" style="vector-effect: non-scaling-stroke; stroke-width: 2px; stroke: rgb(255, 0, 0); stroke-opacity: 1; fill: rgb(255, 0, 0); fill-opacity: 0.5; opacity: 1;"/><path class="box" d="M171.86,202.09H176.02M171.86,203.09H176.02V193.45H171.86ZM173.94,203.09V232.03M173.94,193.45V174.16" style="vector-effect: non-scaling-stroke; stroke-width: 2px; stroke: rgb(0, 0, 255); stroke-opacity: 1; fill: rgb(0, 0, 255); fill-opacity: 0.5; opacity: 1;"/><path class="box" d="M180.35,308.2H184.5M180.35,309.2H184.5V232.03H180.35ZM182.42,309.2V314.02M182.42,232.03V217.56" style="vector-effect: non-scaling-stroke; stroke-width: 2px; stroke: rgb(0, 0, 255); stroke-opacity: 1; fill: rgb(0, 0, 255); fill-opacity: 0.5; opacity: 1;"/><path class="box" d="M205.8,208.92H209.96M205.8,270.61H209.96V207.92H205.8ZM207.88,270.61V275.44M207.88,207.92V183.8" style="vector-effect: non-scaling-stroke; stroke-width: 2px; stroke: rgb(255, 0, 0); stroke-opacity: 1; fill: rgb(255, 0, 0); fill-opacity: 0.5; opacity: 1;"/><path class="box" d="M214.28,179.98H218.44M214.28,183.8H218.44V178.98H214.28ZM216.36,183.8V203.09M216.36,178.98V164.51" style="vector-effect: non-scaling-stroke; stroke-width: 2px; stroke: rgb(255, 0, 0); stroke-opacity: 1; fill: rgb(255, 0, 0); fill-opacity: 0.5; opacity: 1;"/><path class="box" d="M222.77,197.27H226.93M222.77,198.27H226.93V193.45H222.77ZM224.85,198.27V212.74M224.85,193.45V178.98" style="vector-effect: non-scaling-stroke; stroke-width: 2px; stroke: rgb(0, 0, 255); stroke-opacity: 1; fill: rgb(0, 0, 255); fill-opacity: 0.5; opacity: 1;"/><path class="box" d="M231.25,218.56H235.41M231.25,246.5H235.41V217.56H231.25ZM233.33,246.5V270.61M233.33,217.56V188.63" style="vector-effect: non-scaling-stroke; stroke-width: 2px; stroke: rgb(255, 0, 0); stroke-opacity: 1; fill: rgb(255, 0, 0); fill-opacity: 0.5; opacity: 1;"/><path class="box" d="M239.74,208.92H243.9M239.74,222.39H243.9V207.92H239.74ZM241.82,222.39V256.15M241.82,207.92V203.09" style="vector-effect: non-scaling-stroke; stroke-width: 2px; stroke: rgb(255, 0, 0); stroke-opacity: 1; fill: rgb(255, 0, 0); fill-opacity: 0.5; opacity: 1;"/><path class="box" d="M265.19,170.33H269.35M265.19,193.45H269.35V169.33H265.19ZM267.27,193.45V207.92M267.27,169.33V164.51" style="vector-effect: non-scaling-stroke; stroke-width: 2px; stroke: rgb(255, 0, 0); stroke-opacity: 1; fill: rgb(255, 0, 0); fill-opacity: 0.5; opacity: 1;"/><path class="box" d="M273.68,93.17H277.84M273.68,154.87H277.84V92.17H273.68ZM275.76,154.87V154.87M275.76,92.17V87.35" style="vector-effect: non-scaling-stroke; stroke-width: 2px; stroke: rgb(255, 0, 0); stroke-opacity: 1; fill: rgb(255, 0, 0); fill-opacity: 0.5; opacity: 1;"/><path class="box" d="M282.16,82.52H286.32M282.16,82.52H286.32V82.52H282.16ZM284.24,82.52V116.28M284.24,82.52V72.88" style="vector-effect: non-scaling-stroke; stroke-width: 2px; stroke: rgb(255, 0, 0); stroke-opacity: 1; fill: rgb(255, 0, 0); fill-opacity: 0.5; opacity: 1;"/><path class="box" d="M290.65,158.69H294.81M290.65,159.69H294.81V111.46H290.65ZM292.73,159.69V159.69M292.73,111.46V106.64" style="vector-effect: non-scaling-stroke; stroke-width: 2px; stroke: rgb(0, 0, 255); stroke-opacity: 1; fill: rgb(0, 0, 255); fill-opacity: 0.5; opacity: 1;"/><path class="box" d="M299.13,38.12H303.29M299.13,39.12H303.29V29.47H299.13ZM301.21,39.12V68.06M301.21,29.47V24.65" style="vector-effect: non-scaling-stroke; stroke-width: 2px; stroke: rgb(0, 0, 255); stroke-opacity: 1; fill: rgb(0, 0, 255); fill-opacity: 0.5; opacity: 1;"/><path class="box" d="M324.59,86.35H328.75M324.59,87.35H328.75V39.12H324.59ZM326.67,87.35V96.99M326.67,39.12V39.12" style="vector-effect: non-scaling-stroke; stroke-width: 2px; stroke: rgb(0, 0, 255); stroke-opacity: 1; fill: rgb(0, 0, 255); fill-opacity: 0.5; opacity: 1;"/><path class="box" d="M333.07,64.22999999999999H337.23M333.07,72.88H337.23V63.23H333.07ZM335.15,72.88V101.82M335.15,63.23V58.41" style="vector-effect: non-scaling-stroke; stroke-width: 2px; stroke: rgb(255, 0, 0); stroke-opacity: 1; fill: rgb(255, 0, 0); fill-opacity: 0.5; opacity: 1;"/><path class="box" d="M341.56,49.76H345.72M341.56,63.23H345.72V48.76H341.56ZM343.64,63.23V96.99M343.64,48.76V48.76" style="vector-effect: non-scaling-stroke; stroke-width: 2px; stroke: rgb(255, 0, 0); stroke-opacity: 1; fill: rgb(255, 0, 0); fill-opacity: 0.5; opacity: 1;"/><path class="box" d="M350.04,110.46H354.2M350.04,111.46H354.2V82.52H350.04ZM352.12,111.46V116.28M352.12,82.52V82.52" style="vector-effect: non-scaling-stroke; stroke-width: 2px; stroke: rgb(0, 0, 255); stroke-opacity: 1; fill: rgb(0, 0, 255); fill-opacity: 0.5; opacity: 1;"/><path class="box" d="M358.53,92.17H362.68M358.53,92.17H362.68V92.17H358.53ZM360.61,92.17V111.46M360.61,92.17V63.23" style="vector-effect: non-scaling-stroke; stroke-width: 2px; stroke: rgb(255, 0, 0); stroke-opacity: 1; fill: rgb(255, 0, 0); fill-opacity: 0.5; opacity: 1;"/><path class="box" d="M383.98,111.46H388.14M383.98,111.46H388.14V111.46H383.98ZM386.06,111.46V140.4M386.06,111.46V92.17" style="vector-effect: non-scaling-stroke; stroke-width: 2px; stroke: rgb(0, 0, 255); stroke-opacity: 1; fill: rgb(0, 0, 255); fill-opacity: 0.5; opacity: 1;"/><path class="box" d="M392.47,149.04H396.62M392.47,150.04H396.62V135.57H392.47ZM394.55,150.04V164.51M394.55,135.57V121.11" style="vector-effect: non-scaling-stroke; stroke-width: 2px; stroke: rgb(0, 0, 255); stroke-opacity: 1; fill: rgb(0, 0, 255); fill-opacity: 0.5; opacity: 1;"/><path class="box" d="M400.95,129.75H405.11M400.95,130.75H405.11V121.11H400.95ZM403.03,130.75V145.22M403.03,121.11V116.28" style="vector-effect: non-scaling-stroke; stroke-width: 2px; stroke: rgb(0, 0, 255); stroke-opacity: 1; fill: rgb(0, 0, 255); fill-opacity: 0.5; opacity: 1;"/><path class="box" d="M409.44,112.46H413.59M409.44,121.11H413.59V111.46H409.44ZM411.52,121.11V135.57M411.52,111.46V96.99" style="vector-effect: non-scaling-stroke; stroke-width: 2px; stroke: rgb(255, 0, 0); stroke-opacity: 1; fill: rgb(255, 0, 0); fill-opacity: 0.5; opacity: 1;"/><path class="box" d="M417.92,129.75H422.08M417.92,130.75H422.08V111.46H417.92ZM420,130.75V140.4M420,111.46V96.99" style="vector-effect: non-scaling-stroke; stroke-width: 2px; stroke: rgb(0, 0, 255); stroke-opacity: 1; fill: rgb(0, 0, 255); fill-opacity: 0.5; opacity: 1;"/><path class="box" d="M443.38,173.16H447.53M443.38,174.16H447.53V154.87H443.38ZM445.45,174.16V188.63M445.45,154.87V154.87" style="vector-effect: non-scaling-stroke; stroke-width: 2px; stroke: rgb(0, 0, 255); stroke-opacity: 1; fill: rgb(0, 0, 255); fill-opacity: 0.5; opacity: 1;"/><path class="box" d="M451.86,151.04H456.02M451.86,183.8H456.02V150.04H451.86ZM453.94,183.8V188.63M453.94,150.04V150.04" style="vector-effect: non-scaling-stroke; stroke-width: 2px; stroke: rgb(255, 0, 0); stroke-opacity: 1; fill: rgb(255, 0, 0); fill-opacity: 0.5; opacity: 1;"/><path class="box" d="M460.35,73.88H464.5M460.35,159.69H464.5V72.88H460.35ZM462.42,159.69V169.33M462.42,72.88V72.88" style="vector-effect: non-scaling-stroke; stroke-width: 2px; stroke: rgb(255, 0, 0); stroke-opacity: 1; fill: rgb(255, 0, 0); fill-opacity: 0.5; opacity: 1;"/><path class="box" d="M468.83,52.59H472.99M468.83,53.59H472.99V29.47H468.83ZM470.91,53.59V68.06M470.91,29.47V24.65" style="vector-effect: non-scaling-stroke; stroke-width: 2px; stroke: rgb(0, 0, 255); stroke-opacity: 1; fill: rgb(0, 0, 255); fill-opacity: 0.5; opacity: 1;"/><path class="box" d="M477.32,158.69H481.47M477.32,159.69H481.47V58.41H477.32ZM479.39,159.69V159.69M479.39,58.41V58.41" style="vector-effect: non-scaling-stroke; stroke-width: 2px; stroke: rgb(0, 0, 255); stroke-opacity: 1; fill: rgb(0, 0, 255); fill-opacity: 0.5; opacity: 1;"/><path class="box" d="M502.77,163.51H506.93M502.77,164.51H506.93V135.57H502.77ZM504.85,164.51V178.98M504.85,135.57V125.93" style="vector-effect: non-scaling-stroke; stroke-width: 2px; stroke: rgb(0, 0, 255); stroke-opacity: 1; fill: rgb(0, 0, 255); fill-opacity: 0.5; opacity: 1;"/><path class="box" d="M511.25,216.56H515.41M511.25,217.56H515.41V188.63H511.25ZM513.33,217.56V217.56M513.33,188.63V174.16" style="vector-effect: non-scaling-stroke; stroke-width: 2px; stroke: rgb(0, 0, 255); stroke-opacity: 1; fill: rgb(0, 0, 255); fill-opacity: 0.5; opacity: 1;"/><path class="box" d="M519.74,233.03H523.9M519.74,236.85H523.9V232.03H519.74ZM521.82,236.85V251.32M521.82,232.03V198.27" style="vector-effect: non-scaling-stroke; stroke-width: 2px; stroke: rgb(255, 0, 0); stroke-opacity: 1; fill: rgb(255, 0, 0); fill-opacity: 0.5; opacity: 1;"/><path class="box" d="M528.22,218.56H532.38M528.22,241.68H532.38V217.56H528.22ZM530.3,241.68V246.5M530.3,217.56V217.56" style="vector-effect: non-scaling-stroke; stroke-width: 2px; stroke: rgb(255, 0, 0); stroke-opacity: 1; fill: rgb(255, 0, 0); fill-opacity: 0.5; opacity: 1;"/><path class="box" d="M536.71,160.69H540.87M536.71,212.74H540.87V159.69H536.71ZM538.79,212.74V212.74M538.79,159.69V150.04" style="vector-effect: non-scaling-stroke; stroke-width: 2px; stroke: rgb(255, 0, 0); stroke-opacity: 1; fill: rgb(255, 0, 0); fill-opacity: 0.5; opacity: 1;"/><path class="box" d="M562.16,202.09H566.32M562.16,203.09H566.32V183.8H562.16ZM564.24,203.09V207.92M564.24,183.8V178.98" style="vector-effect: non-scaling-stroke; stroke-width: 2px; stroke: rgb(0, 0, 255); stroke-opacity: 1; fill: rgb(0, 0, 255); fill-opacity: 0.5; opacity: 1;"/><path class="box" d="M570.65,194.45H574.81M570.65,198.27H574.81V193.45H570.65ZM572.73,198.27V207.92M572.73,193.45V164.51" style="vector-effect: non-scaling-stroke; stroke-width: 2px; stroke: rgb(255, 0, 0); stroke-opacity: 1; fill: rgb(255, 0, 0); fill-opacity: 0.5; opacity: 1;"/><path class="box" d="M579.13,155.87H583.29M579.13,188.63H583.29V154.87H579.13ZM581.21,188.63V188.63M581.21,154.87V150.04" style="vector-effect: non-scaling-stroke; stroke-width: 2px; stroke: rgb(255, 0, 0); stroke-opacity: 1; fill: rgb(255, 0, 0); fill-opacity: 0.5; opacity: 1;"/><path class="box" d="M587.62,211.74H591.78M587.62,212.74H591.78V188.63H587.62ZM589.7,212.74V212.74M589.7,188.63V169.33" style="vector-effect: non-scaling-stroke; stroke-width: 2px; stroke: rgb(0, 0, 255); stroke-opacity: 1; fill: rgb(0, 0, 255); fill-opacity: 0.5; opacity: 1;"/><path class="box" d="M596.1,204.09H600.26M596.1,260.97H600.26V203.09H596.1ZM598.18,260.97V260.97M598.18,203.09V203.09" style="vector-effect: non-scaling-stroke; stroke-width: 2px; stroke: rgb(255, 0, 0); stroke-opacity: 1; fill: rgb(255, 0, 0); fill-opacity: 0.5; opacity: 1;"/><path class="box" d="M621.56,203.09H625.72M621.56,203.09H625.72V203.09H621.56ZM623.64,203.09V222.39M623.64,203.09V183.8" style="vector-effect: non-scaling-stroke; stroke-width: 2px; stroke: rgb(255, 0, 0); stroke-opacity: 1; fill: rgb(255, 0, 0); fill-opacity: 0.5; opacity: 1;"/><path class="box" d="M630.04,245.5H634.2M630.04,246.5H634.2V227.21H630.04ZM632.12,246.5V251.32M632.12,227.21V222.39" style="vector-effect: non-scaling-stroke; stroke-width: 2px; stroke: rgb(0, 0, 255); stroke-opacity: 1; fill: rgb(0, 0, 255); fill-opacity: 0.5; opacity: 1;"/><path class="box" d="M638.53,274.44H642.68M638.53,275.44H642.68V241.68H638.53ZM640.61,275.44V275.44M640.61,241.68V222.39" style="vector-effect: non-scaling-stroke; stroke-width: 2px; stroke: rgb(0, 0, 255); stroke-opacity: 1; fill: rgb(0, 0, 255); fill-opacity: 0.5; opacity: 1;"/><path class="box" d="M647.01,223.39H651.17M647.01,270.61H651.17V222.39H647.01ZM649.09,270.61V270.61M649.09,222.39V222.39" style="vector-effect: non-scaling-stroke; stroke-width: 2px; stroke: rgb(255, 0, 0); stroke-opacity: 1; fill: rgb(255, 0, 0); fill-opacity: 0.5; opacity: 1;"/><path class="box" d="M655.5,269.61H659.65M655.5,270.61H659.65V265.79H655.5ZM657.58,270.61V289.91M657.58,265.79V256.15" style="vector-effect: non-scaling-stroke; stroke-width: 2px; stroke: rgb(0, 0, 255); stroke-opacity: 1; fill: rgb(0, 0, 255); fill-opacity: 0.5; opacity: 1;"/><path class="box" d="M680.95,279.26H685.11M680.95,280.26H685.11V275.44H680.95ZM683.03,280.26V289.91M683.03,275.44V270.61" style="vector-effect: non-scaling-stroke; stroke-width: 2px; stroke: rgb(0, 0, 255); stroke-opacity: 1; fill: rgb(0, 0, 255); fill-opacity: 0.5; opacity: 1;"/><path class="box" d="M689.44,271.61H693.59M689.44,275.44H693.59V270.61H689.44ZM691.52,275.44V280.26M691.52,270.61V256.15" style="vector-effect: non-scaling-stroke; stroke-width: 2px; stroke: rgb(255, 0, 0); stroke-opacity: 1; fill: rgb(255, 0, 0); fill-opacity: 0.5; opacity: 1;"/><path class="box" d="M697.92,341.96H702.08M697.92,342.96H702.08V294.73H697.92ZM700,342.96V352.6M700,294.73V294.73" style="vector-effect: non-scaling-stroke; stroke-width: 2px; stroke: rgb(0, 0, 255); stroke-opacity: 1; fill: rgb(0, 0, 255); fill-opacity: 0.5; opacity: 1;"/><path class="box" d="M706.41,404.65H710.56M706.41,405.65H710.56V371.89H706.41ZM708.48,405.65V405.65M708.48,371.89V362.25" style="vector-effect: non-scaling-stroke; stroke-width: 2px; stroke: rgb(0, 0, 255); stroke-opacity: 1; fill: rgb(0, 0, 255); fill-opacity: 0.5; opacity: 1;"/><path class="box" d="M740.35,396.01H744.5M740.35,396.01H744.5V396.01H740.35ZM742.42,396.01V410.48M742.42,396.01V367.07" style="vector-effect: non-scaling-stroke; stroke-width: 2px; stroke: rgb(255, 0, 0); stroke-opacity: 1; fill: rgb(255, 0, 0); fill-opacity: 0.5; opacity: 1;"/><path class="box" d="M748.83,400.83H752.99M748.83,400.83H752.99V400.83H748.83ZM750.91,400.83V444.24M750.91,400.83V371.89" style="vector-effect: non-scaling-stroke; stroke-width: 2px; stroke: rgb(0, 0, 255); stroke-opacity: 1; fill: rgb(0, 0, 255); fill-opacity: 0.5; opacity: 1;"/><path class="box" d="M757.32,286.08H761.47M757.32,386.36H761.47V285.08H757.32ZM759.39,386.36V391.18M759.39,285.08V275.44" style="vector-effect: non-scaling-stroke; stroke-width: 2px; stroke: rgb(255, 0, 0); stroke-opacity: 1; fill: rgb(255, 0, 0); fill-opacity: 0.5; opacity: 1;"/><path class="box" d="M765.8,265.79H769.96M765.8,265.79H769.96V265.79H765.8ZM767.88,265.79V294.73M767.88,265.79V236.85" style="vector-effect: non-scaling-stroke; stroke-width: 2px; stroke: rgb(255, 0, 0); stroke-opacity: 1; fill: rgb(255, 0, 0); fill-opacity: 0.5; opacity: 1;"/><path class="box" d="M774.28,228.21H778.44M774.28,260.97H778.44V227.21H774.28ZM776.36,260.97V280.26M776.36,227.21V207.92" style="vector-effect: non-scaling-stroke; stroke-width: 2px; stroke: rgb(255, 0, 0); stroke-opacity: 1; fill: rgb(255, 0, 0); fill-opacity: 0.5; opacity: 1;"/><path class="box" d="M799.74,146.22H803.9M799.74,193.45H803.9V145.22H799.74ZM801.82,193.45V198.27M801.82,145.22V145.22" style="vector-effect: non-scaling-stroke; stroke-width: 2px; stroke: rgb(255, 0, 0); stroke-opacity: 1; fill: rgb(255, 0, 0); fill-opacity: 0.5; opacity: 1;"/><path class="box" d="M808.22,160.69H812.38M808.22,169.33H812.38V159.69H808.22ZM810.3,169.33V183.8M810.3,159.69V125.93" style="vector-effect: non-scaling-stroke; stroke-width: 2px; stroke: rgb(255, 0, 0); stroke-opacity: 1; fill: rgb(255, 0, 0); fill-opacity: 0.5; opacity: 1;"/><path class="box" d="M816.71,153.87H820.87M816.71,154.87H820.87V130.75H816.71ZM818.79,154.87V164.51M818.79,130.75V121.11" style="vector-effect: non-scaling-stroke; stroke-width: 2px; stroke: rgb(0, 0, 255); stroke-opacity: 1; fill: rgb(0, 0, 255); fill-opacity: 0.5; opacity: 1;"/><path class="box" d="M825.19,153.87H829.35M825.19,154.87H829.35V125.93H825.19ZM827.27,154.87V183.8M827.27,125.93V121.11" style="vector-effect: non-scaling-stroke; stroke-width: 2px; stroke: rgb(0, 0, 255); stroke-opacity: 1; fill: rgb(0, 0, 255); fill-opacity: 0.5; opacity: 1;"/><path class="box" d="M833.68,141.4H837.84M833.68,154.87H837.84V140.4H833.68ZM835.76,154.87V159.69M835.76,140.4V121.11" style="vector-effect: non-scaling-stroke; stroke-width: 2px; stroke: rgb(255, 0, 0); stroke-opacity: 1; fill: rgb(255, 0, 0); fill-opacity: 0.5; opacity: 1;"/></g></g></g><g class="overplot"/><path class="xlines-above crisp" d="M0,0" style="fill: none;"/><path class="ylines-above crisp" d="M0,0" style="fill: none;"/><g class="overlines-above"/><g class="xaxislayer-above"><g class="xtick"><text text-anchor="middle" x="0" y="556" transform="translate(56.21,0)" style="font-family: 'Open Sans', verdana, arial, sans-serif; font-size: 12px; fill: rgb(68, 68, 68); fill-opacity: 1; white-space: pre; opacity: 1;"><tspan class="line" dy="0em" x="0" y="556">Oct 9</tspan><tspan class="line" dy="1.3em" x="0" y="556">2022</tspan></text></g><g class="xtick"><text text-anchor="middle" x="0" y="556" style="font-family: 'Open Sans', verdana, arial, sans-serif; font-size: 12px; fill: rgb(68, 68, 68); fill-opacity: 1; white-space: pre; opacity: 1;" transform="translate(175,0)">Oct 23</text></g><g class="xtick"><text text-anchor="middle" x="0" y="556" style="font-family: 'Open Sans', verdana, arial, sans-serif; font-size: 12px; fill: rgb(68, 68, 68); fill-opacity: 1; white-space: pre; opacity: 1;" transform="translate(293.79,0)">Nov 6</text></g><g class="xtick"><text text-anchor="middle" x="0" y="556" style="font-family: 'Open Sans', verdana, arial, sans-serif; font-size: 12px; fill: rgb(68, 68, 68); fill-opacity: 1; white-space: pre; opacity: 1;" transform="translate(412.58,0)">Nov 20</text></g><g class="xtick"><text text-anchor="middle" x="0" y="556" style="font-family: 'Open Sans', verdana, arial, sans-serif; font-size: 12px; fill: rgb(68, 68, 68); fill-opacity: 1; white-space: pre; opacity: 1;" transform="translate(531.36,0)">Dec 4</text></g><g class="xtick"><text text-anchor="middle" x="0" y="556" style="font-family: 'Open Sans', verdana, arial, sans-serif; font-size: 12px; fill: rgb(68, 68, 68); fill-opacity: 1; white-space: pre; opacity: 1;" transform="translate(650.15,0)">Dec 18</text></g><g class="xtick"><text text-anchor="middle" x="0" y="556" style="font-family: 'Open Sans', verdana, arial, sans-serif; font-size: 12px; fill: rgb(68, 68, 68); fill-opacity: 1; white-space: pre; opacity: 1;" transform="translate(768.94,0)"><tspan class="line" dy="0em" x="0" y="556">Jan 1</tspan><tspan class="line" dy="1.3em" x="0" y="556">2023</tspan></text></g></g><g class="yaxislayer-above"><g class="ytick"><text text-anchor="end" x="34" y="4.199999999999999" transform="translate(0,518.35)" style="font-family: 'Open Sans', verdana, arial, sans-serif; font-size: 12px; fill: rgb(68, 68, 68); fill-opacity: 1; white-space: pre; opacity: 1;">54k</text></g><g class="ytick"><text text-anchor="end" x="34" y="4.199999999999999" style="font-family: 'Open Sans', verdana, arial, sans-serif; font-size: 12px; fill: rgb(68, 68, 68); fill-opacity: 1; white-space: pre; opacity: 1;" transform="translate(0,421.89)">56k</text></g><g class="ytick"><text text-anchor="end" x="34" y="4.199999999999999" style="font-family: 'Open Sans', verdana, arial, sans-serif; font-size: 12px; fill: rgb(68, 68, 68); fill-opacity: 1; white-space: pre; opacity: 1;" transform="translate(0,325.44)">58k</text></g><g class="ytick"><text text-anchor="end" x="34" y="4.199999999999999" style="font-family: 'Open Sans', verdana, arial, sans-serif; font-size: 12px; fill: rgb(68, 68, 68); fill-opacity: 1; white-space: pre; opacity: 1;" transform="translate(0,228.98)">60k</text></g><g class="ytick"><text text-anchor="end" x="34" y="4.199999999999999" style="font-family: 'Open Sans', verdana, arial, sans-serif; font-size: 12px; fill: rgb(68, 68, 68); fill-opacity: 1; white-space: pre; opacity: 1;" transform="translate(0,132.51999999999998)">62k</text></g></g><g class="overaxes-above"/></g></g><g class="polarlayer"/><g class="ternarylayer"/><g class="geolayer"/><g class="funnelarealayer"/><g class="pielayer"/><g class="iciclelayer"/><g class="treemaplayer"/><g class="sunburstlayer"/><g class="glimages"/><defs id="topdefs-75ad20"><g class="clips"/></defs><g class="layer-above"><g class="imagelayer"/><g class="shapelayer"/></g><g class="infolayer"><g class="g-gtitle"><text class="gtitle" x="450" y="25" text-anchor="middle" dy="0em" style="font-family: 'Open Sans', verdana, arial, sans-serif; font-size: 17px; fill: rgb(68, 68, 68); opacity: 1; font-weight: normal; white-space: pre;">삼성전자 Candlestick Chart</text></g><g class="g-xtitle"><text class="xtitle" x="455" y="595" text-anchor="middle" style="font-family: 'Open Sans', verdana, arial, sans-serif; font-size: 14px; fill: rgb(68, 68, 68); opacity: 1; font-weight: normal; white-space: pre;">date</text></g><g class="g-ytitle"/></g></svg>