<svg class="main-svg" xmlns="http://www.w3.org/2000/svg" xmlns:xlink="http://www.w3.org/1999/xlink" width="700" height="500" style="" viewBox="0 0 700 500"><rect x="0" y="0" width="700" height="500" style="fill: rgb(255, 255, 255); fill-opacity: 1;"/><defs id="defs-831462"><g class="clips"><clipPath id="clip831462xyplot" class="plotclip"><rect width="492" height="320"/></clipPath><clipPath class="axesclip" id="clip831462x"><rect x="80" y="0" width="492" height="500"/></clipPath><clipPath class="axesclip" id="clip831462y"><rect x="0" y="100" width="700" height="320"/></clipPath><clipPath class="axesclip" id="clip831462xy"><rect x="80" y="100" width="492" height="320"/></clipPath></g><g class="gradients"/><g class="patterns"/></defs><g class="bglayer"><rect class="bg" x="80" y="100" width="492" height="320" style="fill: rgb(229, 236, 246); fill-opacity: 1; stroke-width: 0;"/></g><g class="layer-below"><g class="imagelayer"/><g class="shapelayer"/></g><g class="cartesianlayer"><g class="subplot xy"><g class="layer-subplot"><g class="shapelayer"/><g class="imagelayer"/></g><g class="minor-gridlayer"><g class="x"/><g class="y"/></g><g class="gridlayer"><g class="x"><path class="xgrid crisp" transform="translate(131.93,0)" d="M0,100v320" style="stroke: rgb(255, 255, 255); stroke-opacity: 1; stroke-width: 1px;"/><path class="xgrid crisp" transform="translate(216.67,0)" d="M0,100v320" style="stroke: rgb(255, 255, 255); stroke-opacity: 1; stroke-width: 1px;"/><path class="xgrid crisp" transform="translate(298.66999999999996,0)" d="M0,100v320" style="stroke: rgb(255, 255, 255); stroke-opacity: 1; stroke-width: 1px;"/><path class="xgrid crisp" transform="translate(383.4,0)" d="M0,100v320" style="stroke: rgb(255, 255, 255); stroke-opacity: 1; stroke-width: 1px;"/><path class="xgrid crisp" transform="translate(465.4,0)" d="M0,100v320" style="stroke: rgb(255, 255, 255); stroke-opacity: 1; stroke-width: 1px;"/><path class="xgrid crisp" transform="translate(550.13,0)" d="M0,100v320" style="stroke: rgb(255, 255, 255); stroke-opacity: 1; stroke-width: 1px;"/></g><g class="y"><path class="ygrid crisp" transform="translate(0,361.83)" d="M80,0h492" style="stroke: rgb(255, 255, 255); stroke-opacity: 1; stroke-width: 1px;"/><path class="ygrid crisp" transform="translate(0,319.43)" d="M80,0h492" style="stroke: rgb(255, 255, 255); stroke-opacity: 1; stroke-width: 1px;"/><path class="ygrid crisp" transform="translate(0,277.03)" d="M80,0h492" style="stroke: rgb(255, 255, 255); stroke-opacity: 1; stroke-width: 1px;"/><path class="ygrid crisp" transform="translate(0,234.63)" d="M80,0h492" style="stroke: rgb(255, 255, 255); stroke-opacity: 1; stroke-width: 1px;"/><path class="ygrid crisp" transform="translate(0,192.23000000000002)" d="M80,0h492" style="stroke: rgb(255, 255, 255); stroke-opacity: 1; stroke-width: 1px;"/><path class="ygrid crisp" transform="translate(0,149.82999999999998)" d="M80,0h492" style="stroke: rgb(255, 255, 255); stroke-opacity: 1; stroke-width: 1px;"/><path class="ygrid crisp" transform="translate(0,107.43)" d="M80,0h492" style="stroke: rgb(255, 255, 255); stroke-opacity: 1; stroke-width: 1px;"/></g></g><g class="zerolinelayer"><path class="yzl zl crisp" transform="translate(0,404.23)" d="M80,0h492" style="stroke: rgb(255, 255, 255); stroke-opacity: 1; stroke-width: 2px;"/></g><path class="xlines-below"/><path class="ylines-below"/><g class="overlines-below"/><g class="xaxislayer-below"/><g class="yaxislayer-below"/><g class="overaxes-below"/><g class="plot" transform="translate(80,100)" clip-path="url(#clip831462xyplot)"><g class="scatterlayer mlayer"><g class="trace scatter trace58babe" style="stroke-miterlimit: 2; opacity: 1;"><g class="fills"/><g class="errorbars"/><g class="lines"><path class="js-line" d="M0,241.77L2.73,240.55L5.47,248.91L8.2,269.1L10.93,268.66L13.67,242.81L16.4,236.45L21.87,234.97L24.6,242.69L27.33,266.52L30.07,267L32.8,235.12L35.53,230.32L41,229.96L43.73,239.98L46.47,267.06L49.2,267.3L51.93,235.46L54.67,231.94L57.4,237.11L60.13,234.33L62.87,243.94L65.6,268.57L68.33,269.84L71.07,239.76L73.8,235.55L76.53,235.41L79.27,235.8L82,241.06L84.73,261.84L87.47,268.92L92.93,230.45L95.67,232.91L98.4,229.93L101.13,237.51L103.87,259.73L106.6,264.27L109.33,231.87L112.07,229.39L114.8,235.35L117.53,232.35L120.27,245.55L123,270.08L125.73,270.09L128.47,244.27L131.2,237.4L133.93,238.07L136.67,234.28L139.4,247.3L142.13,270.52L144.87,271.02L147.6,254.37L150.33,243.31L153.07,240.63L155.8,240.61L158.53,247.38L161.27,268.54L164,269.16L166.73,243.34L169.47,241.51L172.2,241.16L177.67,246.61L180.4,267.95L183.13,269.99L185.87,246.46L188.6,239.56L191.33,242.55L194.07,243.34L196.8,249.96L199.53,270.63L202.27,268.72L205,243.24L207.73,242.47L210.47,239.41L213.2,239.73L215.93,249.52L218.67,268.25L221.4,270.54L224.13,244.6L226.87,235.3L229.6,239.65L232.33,237.07L235.07,244.72L237.8,266.06L240.53,264.42L243.27,246.94L246,239.47L248.73,240.65L251.47,236.98L254.2,242.9L256.93,267.57L259.67,269.92L262.4,241.93L265.13,243.41L267.87,241.76L270.6,236.48L273.33,241.83L276.07,268.49L278.8,268.43L281.53,240.23L284.27,235.47L287,240.31L289.73,240.97L292.47,246.27L295.2,270.36L297.93,268.52L300.67,242.9L303.4,243.84L306.13,240.62L308.87,237.96L311.6,239.02L314.33,259.35L317.07,258.54L319.8,235.09L322.53,234.84L325.27,236.43L328,231.68L333.47,262.35L336.2,263.19L338.93,236.67L341.67,226.77L344.4,226.18L347.13,230.97L349.87,237.37L352.6,259.72L355.33,261.27L358.07,239.04L360.8,236.8L363.53,241.11L366.27,249.62L369,236.34L371.73,264.64L374.47,264.4L377.2,240.04L379.93,240.23L382.67,241.36L385.4,238.84L388.13,248.77L390.87,266.79L393.6,268.91L396.33,241.52L401.8,238.42L404.53,242.99L407.27,248.86L410,268.82L412.73,269.23L415.47,242.86L418.2,242.24L420.93,244.37L423.67,245.49L426.4,247.89L429.13,269.53L431.87,271.1L434.6,249.79L437.33,243.95L440.07,245.69L442.8,250.78L448.27,276.56L451,275.78L453.73,272.54L456.47,264.61L459.2,259.6L461.93,260.95L464.67,265.76L467.4,274.99L470.13,269.68L472.87,269.91L475.6,258.39L478.33,255.01L481.07,250.47L483.8,255.23L486.53,274.65L489.27,274.68L492,253.04" style="vector-effect: non-scaling-stroke; fill: none; stroke: rgb(0, 0, 255); stroke-opacity: 1; stroke-width: 2px; opacity: 1;"/></g><g class="points"/><g class="text"/></g><g class="trace scatter tracec23e9c" style="stroke-miterlimit: 2; opacity: 1;"><g class="fills"/><g class="errorbars"/><g class="lines"><path class="js-line" d="M0,248.63L2.73,248.38L5.47,254.81L8.2,270.29L10.93,271.37L13.67,249.33L16.4,243.42L19.13,246.31L21.87,244.66L24.6,250.85L27.33,267.75L30.07,270.18L32.8,242.78L35.53,248.13L38.27,247.77L43.73,251.65L46.47,271.26L49.2,271.73L51.93,245.88L54.67,241.86L57.4,243.85L60.13,242.79L62.87,248.16L65.6,269.89L68.33,270.38L71.07,237.76L73.8,245.59L76.53,242.85L79.27,246.21L82,249.17L84.73,268L87.47,270.35L90.2,252.57L92.93,242.48L95.67,244.81L98.4,243.32L101.13,238.2L103.87,262.48L106.6,267.49L109.33,244.24L112.07,234.23L114.8,240.47L117.53,237.47L120.27,243.36L123,256.45L125.73,260.92L128.47,240.88L131.2,237.8L133.93,227.23L139.4,237.14L142.13,257.84L144.87,259.2L147.6,248.34L153.07,218.16L155.8,230.25L158.53,229.89L161.27,250.77L164,241.58L166.73,235.34L169.47,230.24L172.2,227.46L174.93,236.78L177.67,234.36L183.13,265.27L185.87,241.07L188.6,233.23L191.33,228.89L194.07,236.21L196.8,234.43L199.53,259.3L202.27,262.05L205,237.18L207.73,237.03L210.47,232.08L213.2,231.02L215.93,236.21L218.67,260.09L221.4,263.38L224.13,236.75L226.87,234.35L229.6,236.04L232.33,233.29L235.07,238.06L237.8,259.53L240.53,263.58L243.27,242.37L246,239.22L248.73,237.97L251.47,240.31L254.2,245.25L256.93,266.58L262.4,235.73L265.13,234.4L267.87,230.56L270.6,235.05L273.33,243.36L276.07,266.8L278.8,269.02L281.53,236.68L284.27,234.04L287,234.26L292.47,241.69L295.2,264.34L297.93,262.36L300.67,230.47L303.4,235.41L306.13,231.07L308.87,231.84L311.6,230.69L314.33,254.99L317.07,265.38L319.8,236.84L322.53,230.23L325.27,232.17L328,235.89L333.47,261.52L336.2,263.99L338.93,239.02L341.67,235.34L344.4,237.05L347.13,243.51L349.87,238.79L352.6,263.8L355.33,266.64L358.07,237.89L360.8,234.81L363.53,237.41L366.27,252.48L369,252.43L371.73,270.32L374.47,267.94L377.2,240.43L379.93,236.57L382.67,234L385.4,235.03L388.13,238.03L390.87,261.25L393.6,264.66L396.33,237.57L399.07,233.8L401.8,227.06L404.53,235.98L407.27,235.33L410,256.02L412.73,261.45L415.47,233.55L418.2,232.87L420.93,234.34L423.67,231.78L426.4,234.61L429.13,256.68L431.87,259.26L434.6,235.02L437.33,231.45L440.07,231.8L442.8,233L445.53,244.29L448.27,266.7L451,269.2L456.47,253.71L459.2,250.08L461.93,256.08L464.67,256.75L467.4,264.86L470.13,264.5L472.87,258.61L475.6,243.76L478.33,233.02L481.07,232.03L483.8,236.33L486.53,255.39L489.27,260.36L492,233.39" style="vector-effect: non-scaling-stroke; fill: none; stroke: rgb(128, 128, 128); stroke-opacity: 1; stroke-dasharray: 3px, 3px; stroke-width: 2px; opacity: 1;"/></g><g class="points"/><g class="text"/></g><g class="trace scatter tracef5489d" style="stroke-miterlimit: 2; opacity: 1;"><g class="fills"/><g class="errorbars"/><g class="lines"><path class="js-line" d="M0,279.56L2.73,279.2L5.47,283.35L8.2,290.38L10.93,291.07L13.67,281.35L16.4,278.38L19.13,276.24L21.87,277.41L24.6,281.07L27.33,287.86L30.07,287.92L32.8,279.1L35.53,278.02L38.27,278.13L41,281.1L43.73,282.24L46.47,290.43L49.2,290.77L51.93,280.62L54.67,279.92L57.4,282.89L60.13,273.93L62.87,275.88L65.6,288.1L68.33,289.11L71.07,279.61L73.8,275.89L76.53,277.92L79.27,277.96L82,280.87L84.73,287.12L87.47,287.17L90.2,272.7L92.93,265.22L95.67,269.62L98.4,268.56L101.13,267.16L103.87,282.75L106.6,285.38L109.33,275.68L112.07,268.32L114.8,264.83L117.53,265.84L120.27,269.32L123,279.63L125.73,278.25L128.47,271.98L131.2,272.25L136.67,268.64L139.4,278.25L142.13,279.57L144.87,284.44L150.33,276.27L153.07,276.79L155.8,278.1L158.53,277.97L161.27,285.69L164,286.83L166.73,275.92L169.47,279.12L172.2,278.73L174.93,280.03L177.67,279.98L180.4,288.89L183.13,289.59L185.87,280.52L188.6,277.59L191.33,278.29L194.07,277.03L196.8,277.55L199.53,288.33L202.27,289.51L205,282.38L207.73,277.97L210.47,280.83L213.2,276.87L215.93,273.73L218.67,285.84L221.4,289.93L224.13,279.54L226.87,278.19L229.6,280.82L232.33,278.27L235.07,279.05L237.8,288.48L240.53,288.52L243.27,284.1L246,281.38L251.47,281.19L254.2,280.52L256.93,287.67L259.67,288.51L262.4,278.54L265.13,278.71L267.87,276.65L270.6,280.27L273.33,278.54L276.07,288L278.8,290.51L281.53,282.67L284.27,279.89L287,279.27L289.73,276.88L292.47,281.57L295.2,287.6L297.93,288L300.67,277.65L303.4,277.11L306.13,279.12L308.87,274.05L311.6,278.16L314.33,286.93L317.07,286.94L319.8,277.67L322.53,274.68L325.27,274.64L328,274.5L330.73,278.87L333.47,284.45L336.2,286.43L338.93,275.13L341.67,273.81L344.4,272.65L347.13,269.2L349.87,274.05L352.6,283.9L355.33,285.59L358.07,276.91L360.8,274.99L363.53,276.78L369,283.95L371.73,290.27L374.47,290.13L377.2,278.53L382.67,272.05L385.4,274.46L390.87,279.02L393.6,287.26L396.33,276.74L399.07,272.96L404.53,273.64L407.27,279.44L410,289.13L412.73,290.07L415.47,277.02L418.2,275.16L420.93,270.9L423.67,269.94L426.4,277.02L429.13,287.39L431.87,286.88L434.6,279.1L437.33,275.57L440.07,277.95L442.8,277.32L445.53,282.52L448.27,288.81L451,290.14L453.73,289.84L456.47,286.18L459.2,284.11L461.93,284.68L464.67,283.69L467.4,285.3L470.13,287.87L472.87,284.88L478.33,274.46L481.07,271.01L483.8,272.02L486.53,282.95L489.27,283.43L492,275.94" style="vector-effect: non-scaling-stroke; fill: none; stroke: rgb(128, 128, 128); stroke-opacity: 1; stroke-dasharray: 9px, 9px; stroke-width: 2px; opacity: 1;"/></g><g class="points"/><g class="text"/></g><g class="trace scatter trace3e2016" style="stroke-miterlimit: 2; opacity: 1;"><g class="fills"/><g class="errorbars"/><g class="lines"><path class="js-line" d="M0,303.14L5.47,303.23L8.2,303.83L24.6,303.2L27.33,303.92L32.8,303.22L35.53,302.86L49.2,303.88L51.93,303.37L54.67,302.84L57.4,303.11L68.33,302.53L71.07,301.7L79.27,303.05L82,302.94L87.47,303.54L90.2,303.04L101.13,303.04L103.87,303.88L109.33,303.25L112.07,303.05L120.27,302.92L123,303.59L139.4,303.1L142.13,303.56L153.07,302.66L155.8,302.7L164,303.23L166.73,302.75L174.93,302.76L177.67,302.91L183.13,303.23L185.87,302.77L194.07,302.41L196.8,302.61L199.53,303.34L202.27,303.29L207.73,302.7L210.47,302.55L215.93,302.85L218.67,303.26L232.33,302.64L235.07,302.72L240.53,303.28L243.27,302.88L251.47,302.75L254.2,302.98L259.67,303.37L262.4,302.91L273.33,302.85L276.07,303.66L278.8,303.69L281.53,302.96L287,303.01L289.73,303.17L297.93,303.69L300.67,303.05L322.53,303.31L325.27,303.19L338.93,303.34L341.67,301.6L344.4,301.45L347.13,302.48L349.87,302L352.6,303.79L360.8,302.76L363.53,303.18L374.47,303.66L377.2,303.26L404.53,303.36L407.27,303.46L412.73,303.82L415.47,303.17L431.87,303.81L434.6,303.29L459.2,303.68L461.93,303.54L472.87,303.54L475.6,303.23L483.8,302.99L486.53,303.56L492,302.68" style="vector-effect: non-scaling-stroke; fill: none; stroke: rgb(128, 128, 128); stroke-opacity: 1; stroke-dasharray: 15px, 15px; stroke-width: 2px; opacity: 1;"/></g><g class="points"/><g class="text"/></g><g class="trace scatter trace8b091d" style="stroke-miterlimit: 2; opacity: 1;"><g class="fills"/><g class="errorbars"/><g class="lines"><path class="js-line" d="M0,91.48L2.73,81.88L5.47,92.83L8.2,181.15L10.93,191.09L13.67,102.01L16.4,68.37L19.13,87.1L21.87,73.86L24.6,85.98L27.33,178.54L30.07,190.06L32.8,97.29L35.53,92.44L38.27,92.73L41,101.96L43.73,103.7L46.47,185.73L49.2,184.01L51.93,96.43L54.67,85.47L57.4,87.2L60.13,72.71L62.87,95.83L65.6,173.5L68.33,172.91L71.07,83.17L73.8,91.32L76.53,89.41L79.27,94.22L82,102.37L84.73,171.06L87.47,178.11L90.2,113.68L92.93,77.85L95.67,72.44L98.4,80.86L101.13,71.67L103.87,155.25L106.6,165.61L109.33,90.62L112.07,63.48L114.8,75.01L117.53,66.73L120.27,84.4L123,162.33L125.73,170.64L128.47,88.3L131.2,76.65L133.93,50.45L136.67,65.61L139.4,79.61L142.13,158.18L144.87,164.51L147.6,118.05L153.07,36.42L155.8,63.32L158.53,70.65L161.27,157.95L164,152.67L166.73,81.85L169.47,73.93L172.2,61.51L174.93,80.06L177.67,70.64L180.4,138.23L183.13,170.11L185.87,93L188.6,66.09L191.33,66.52L194.07,86.69L196.8,90.95L199.53,165.64L202.27,171.08L205,91.9L207.73,84.13L210.47,64.46L213.2,63.82L215.93,87.55L218.67,167.71L221.4,174.57L224.13,69.75L226.87,62.12L229.6,74.8L232.33,75.64L235.07,88.67L237.8,162.44L240.53,168.19L243.27,87.67L246,62.58L248.73,54.65L251.47,49.54L254.2,75.34L256.93,160.99L259.67,152.3L262.4,70.99L265.13,45.9L267.87,47.92L270.6,58.47L273.33,62.01L276.07,155.96L278.8,162.97L281.53,65.16L284.27,44.91L287,54.14L289.73,47.71L292.47,80.1L295.2,159.23L297.93,156.97L300.67,53.35L303.4,58.64L306.13,37.01L308.87,36.13L311.6,36.33L314.33,126.9L317.07,143.1L319.8,47.8L322.53,39.53L325.27,48.13L328,30.34L330.73,84.99L333.47,141.8L336.2,144.72L338.93,59.02L341.67,33.08L344.4,23.94L347.13,35.87L349.87,59.17L352.6,138.56L355.33,151.62L358.07,62.83L360.8,61.23L363.53,64.15L366.27,95.5L369,77.7L371.73,146.33L374.47,141.19L377.2,70.56L379.93,57.06L382.67,50.89L385.4,55.93L388.13,67.79L390.87,136.78L393.6,160.12L396.33,57.28L399.07,31.21L401.8,16L404.53,25.32L407.27,44.44L410,133.41L412.73,150.45L415.47,48.5L418.2,22.37L420.93,39.34L423.67,40.56L426.4,55.21L429.13,139.99L431.87,157.16L434.6,62.82L437.33,56.69L440.07,56.91L442.8,73.63L445.53,117L448.27,173.83L451,188.98L456.47,140.71L459.2,120.88L461.93,138.38L464.67,131.98L467.4,175.59L470.13,170.47L478.33,76.53L481.07,55.72L483.8,78.98L486.53,159.59L489.27,152.86L492,59.11" style="vector-effect: non-scaling-stroke; fill: none; stroke: rgb(128, 128, 128); stroke-opacity: 1; stroke-dasharray: 9px, 3px, 3px, 3px; stroke-width: 2px; opacity: 1;"/></g><g class="points"/><g class="text"/></g></g></g><g class="overplot"/><path class="xlines-above crisp" d="M0,0" style="fill: none;"/><path class="ylines-above crisp" d="M0,0" style="fill: none;"/><g class="overlines-above"/><g class="xaxislayer-above"><g class="xtick"><text text-anchor="middle" x="0" y="433" transform="translate(131.93,0)" style="font-family: 'Open Sans', verdana, arial, sans-serif; font-size: 12px; fill: rgb(42, 63, 95); fill-opacity: 1; white-space: pre; opacity: 1;">Aug 2022</text></g><g class="xtick"><text text-anchor="middle" x="0" y="433" style="font-family: 'Open Sans', verdana, arial, sans-serif; font-size: 12px; fill: rgb(42, 63, 95); fill-opacity: 1; white-space: pre; opacity: 1;" transform="translate(216.67,0)">Sep 2022</text></g><g class="xtick"><text text-anchor="middle" x="0" y="433" style="font-family: 'Open Sans', verdana, arial, sans-serif; font-size: 12px; fill: rgb(42, 63, 95); fill-opacity: 1; white-space: pre; opacity: 1;" transform="translate(298.66999999999996,0)">Oct 2022</text></g><g class="xtick"><text text-anchor="middle" x="0" y="433" style="font-family: 'Open Sans', verdana, arial, sans-serif; font-size: 12px; fill: rgb(42, 63, 95); fill-opacity: 1; white-space: pre; opacity: 1;" transform="translate(383.4,0)">Nov 2022</text></g><g class="xtick"><text text-anchor="middle" x="0" y="433" style="font-family: 'Open Sans', verdana, arial, sans-serif; font-size: 12px; fill: rgb(42, 63, 95); fill-opacity: 1; white-space: pre; opacity: 1;" transform="translate(465.4,0)">Dec 2022</text></g><g class="xtick"><text text-anchor="middle" x="0" y="433" style="font-family: 'Open Sans', verdana, arial, sans-serif; font-size: 12px; fill: rgb(42, 63, 95); fill-opacity: 1; white-space: pre; opacity: 1;" transform="translate(550.13,0)">Jan 2023</text></g></g><g class="yaxislayer-above"><g class="ytick"><text text-anchor="end" x="79" y="4.199999999999999" transform="translate(0,404.23)" style="font-family: 'Open Sans', verdana, arial, sans-serif; font-size: 12px; fill: rgb(42, 63, 95); fill-opacity: 1; white-space: pre; opacity: 1;">0</text></g><g class="ytick"><text text-anchor="end" x="79" y="4.199999999999999" style="font-family: 'Open Sans', verdana, arial, sans-serif; font-size: 12px; fill: rgb(42, 63, 95); fill-opacity: 1; white-space: pre; opacity: 1;" transform="translate(0,361.83)">0.2M</text></g><g class="ytick"><text text-anchor="end" x="79" y="4.199999999999999" style="font-family: 'Open Sans', verdana, arial, sans-serif; font-size: 12px; fill: rgb(42, 63, 95); fill-opacity: 1; white-space: pre; opacity: 1;" transform="translate(0,319.43)">0.4M</text></g><g class="ytick"><text text-anchor="end" x="79" y="4.199999999999999" style="font-family: 'Open Sans', verdana, arial, sans-serif; font-size: 12px; fill: rgb(42, 63, 95); fill-opacity: 1; white-space: pre; opacity: 1;" transform="translate(0,277.03)">0.6M</text></g><g class="ytick"><text text-anchor="end" x="79" y="4.199999999999999" style="font-family: 'Open Sans', verdana, arial, sans-serif; font-size: 12px; fill: rgb(42, 63, 95); fill-opacity: 1; white-space: pre; opacity: 1;" transform="translate(0,234.63)">0.8M</text></g><g class="ytick"><text text-anchor="end" x="79" y="4.199999999999999" style="font-family: 'Open Sans', verdana, arial, sans-serif; font-size: 12px; fill: rgb(42, 63, 95); fill-opacity: 1; white-space: pre; opacity: 1;" transform="translate(0,192.23000000000002)">1M</text></g><g class="ytick"><text text-anchor="end" x="79" y="4.199999999999999" style="font-family: 'Open Sans', verdana, arial, sans-serif; font-size: 12px; fill: rgb(42, 63, 95); fill-opacity: 1; white-space: pre; opacity: 1;" transform="translate(0,149.82999999999998)">1.2M</text></g><g class="ytick"><text text-anchor="end" x="79" y="4.199999999999999" style="font-family: 'Open Sans', verdana, arial, sans-serif; font-size: 12px; fill: rgb(42, 63, 95); fill-opacity: 1; white-space: pre; opacity: 1;" transform="translate(0,107.43)">1.4M</text></g></g><g class="overaxes-above"/></g></g><g class="polarlayer"/><g class="smithlayer"/><g class="ternarylayer"/><g class="geolayer"/><g class="funnelarealayer"/><g class="pielayer"/><g class="iciclelayer"/><g class="treemaplayer"/><g class="sunburstlayer"/><g class="glimages"/><defs id="topdefs-831462"><g class="clips"/><clipPath id="legend831462"><rect width="106" height="124" x="0" y="0"/></clipPath></defs><g class="layer-above"><g class="imagelayer"/><g class="shapelayer"/></g><g class="infolayer"><g class="legend" pointer-events="all" transform="translate(581.84,100)"><rect class="bg" shape-rendering="crispEdges" width="106" height="124" x="0" y="0" style="stroke: rgb(68, 68, 68); stroke-opacity: 1; fill: rgb(255, 255, 255); fill-opacity: 1; stroke-width: 0px;"/><g class="scrollbox" transform="" clip-path="url(#legend831462)"><text class="legendtitletext" text-anchor="start" x="2" y="18.2" style="font-family: 'Open Sans', verdana, arial, sans-serif; font-size: 14px; fill: rgb(42, 63, 95); fill-opacity: 1; white-space: pre;">패키지 이름</text><g class="groups"><g class="traces" transform="translate(0,32.7)" style="opacity: 1;"><text class="legendtext" text-anchor="start" x="40" y="4.680000000000001" style="font-family: 'Open Sans', verdana, arial, sans-serif; font-size: 12px; fill: rgb(42, 63, 95); fill-opacity: 1; white-space: pre;">plotly</text><g class="layers" style="opacity: 1;"><g class="legendfill"/><g class="legendlines"><path class="js-line" d="M5,0h30" style="fill: none; stroke: rgb(0, 0, 255); stroke-opacity: 1; stroke-width: 2px;"/></g><g class="legendsymbols"><g class="legendpoints"/></g></g><rect class="legendtoggle" x="0" y="-9.5" width="100.97482681274414" height="19" style="fill: rgb(0, 0, 0); fill-opacity: 0;"/></g><g class="traces" transform="translate(0,51.7)" style="opacity: 1;"><text class="legendtext" text-anchor="start" x="40" y="4.680000000000001" style="font-family: 'Open Sans', verdana, arial, sans-serif; font-size: 12px; fill: rgb(42, 63, 95); fill-opacity: 1; white-space: pre;">seaborn</text><g class="layers" style="opacity: 1;"><g class="legendfill"/><g class="legendlines"><path class="js-line" d="M5,0h30" style="fill: none; stroke: rgb(128, 128, 128); stroke-opacity: 1; stroke-dasharray: 3px, 3px; stroke-width: 2px;"/></g><g class="legendsymbols"><g class="legendpoints"/></g></g><rect class="legendtoggle" x="0" y="-9.5" width="100.97482681274414" height="19" style="fill: rgb(0, 0, 0); fill-opacity: 0;"/></g><g class="traces" transform="translate(0,70.7)" style="opacity: 1;"><text class="legendtext" text-anchor="start" x="40" y="4.680000000000001" style="font-family: 'Open Sans', verdana, arial, sans-serif; font-size: 12px; fill: rgb(42, 63, 95); fill-opacity: 1; white-space: pre;">bokeh</text><g class="layers" style="opacity: 1;"><g class="legendfill"/><g class="legendlines"><path class="js-line" d="M5,0h30" style="fill: none; stroke: rgb(128, 128, 128); stroke-opacity: 1; stroke-dasharray: 9px, 9px; stroke-width: 2px;"/></g><g class="legendsymbols"><g class="legendpoints"/></g></g><rect class="legendtoggle" x="0" y="-9.5" width="100.97482681274414" height="19" style="fill: rgb(0, 0, 0); fill-opacity: 0;"/></g><g class="traces" transform="translate(0,89.7)" style="opacity: 1;"><text class="legendtext" text-anchor="start" x="40" y="4.680000000000001" style="font-family: 'Open Sans', verdana, arial, sans-serif; font-size: 12px; fill: rgb(42, 63, 95); fill-opacity: 1; white-space: pre;">hvplot</text><g class="layers" style="opacity: 1;"><g class="legendfill"/><g class="legendlines"><path class="js-line" d="M5,0h30" style="fill: none; stroke: rgb(128, 128, 128); stroke-opacity: 1; stroke-dasharray: 15px, 15px; stroke-width: 2px;"/></g><g class="legendsymbols"><g class="legendpoints"/></g></g><rect class="legendtoggle" x="0" y="-9.5" width="100.97482681274414" height="19" style="fill: rgb(0, 0, 0); fill-opacity: 0;"/></g><g class="traces" transform="translate(0,108.7)" style="opacity: 1;"><text class="legendtext" text-anchor="start" x="40" y="4.680000000000001" style="font-family: 'Open Sans', verdana, arial, sans-serif; font-size: 12px; fill: rgb(42, 63, 95); fill-opacity: 1; white-space: pre;">matplotlib</text><g class="layers" style="opacity: 1;"><g class="legendfill"/><g class="legendlines"><path class="js-line" d="M5,0h30" style="fill: none; stroke: rgb(128, 128, 128); stroke-opacity: 1; stroke-dasharray: 9px, 3px, 3px, 3px; stroke-width: 2px;"/></g><g class="legendsymbols"><g class="legendpoints"/></g></g><rect class="legendtoggle" x="0" y="-9.5" width="100.97482681274414" height="19" style="fill: rgb(0, 0, 0); fill-opacity: 0;"/></g></g></g><rect class="scrollbar" rx="20" ry="3" width="0" height="0" x="0" y="0" style="fill: rgb(128, 139, 164); fill-opacity: 1;"/></g><g class="g-gtitle"/><g class="g-xtitle"/><g class="g-ytitle"/></g></svg>