<svg class="main-svg" xmlns="http://www.w3.org/2000/svg" xmlns:xlink="http://www.w3.org/1999/xlink" width="596.364" height="483.636" style="" viewBox="0 0 596.364 483.636"><rect x="0" y="0" width="596.364" height="483.636" style="fill: rgb(255, 255, 255); fill-opacity: 1;"/><defs id="defs-1b23c5"><g class="clips"><clipPath id="clip1b23c5xyplot" class="plotclip"><rect width="526" height="404"/></clipPath><clipPath class="axesclip" id="clip1b23c5x"><rect x="60" y="0" width="526" height="483.636"/></clipPath><clipPath class="axesclip" id="clip1b23c5y"><rect x="0" y="25" width="596.364" height="404"/></clipPath><clipPath class="axesclip" id="clip1b23c5xy"><rect x="60" y="25" width="526" height="404"/></clipPath></g><g class="gradients"/><g class="patterns"/></defs><g class="bglayer"/><g class="layer-below"><g class="imagelayer"/><g class="shapelayer"/></g><g class="cartesianlayer"><g class="subplot xy"><g class="layer-subplot"><g class="shapelayer"/><g class="imagelayer"/></g><g class="gridlayer"><g class="x"><path class="xgrid crisp" transform="translate(104.03,0)" d="M0,25v404" style="stroke: rgb(238, 238, 238); stroke-opacity: 1; stroke-width: 1px;"/><path class="xgrid crisp" transform="translate(169.25,0)" d="M0,25v404" style="stroke: rgb(238, 238, 238); stroke-opacity: 1; stroke-width: 1px;"/><path class="xgrid crisp" transform="translate(234.48,0)" d="M0,25v404" style="stroke: rgb(238, 238, 238); stroke-opacity: 1; stroke-width: 1px;"/><path class="xgrid crisp" transform="translate(299.71000000000004,0)" d="M0,25v404" style="stroke: rgb(238, 238, 238); stroke-opacity: 1; stroke-width: 1px;"/><path class="xgrid crisp" transform="translate(364.93,0)" d="M0,25v404" style="stroke: rgb(238, 238, 238); stroke-opacity: 1; stroke-width: 1px;"/><path class="xgrid crisp" transform="translate(430.16,0)" d="M0,25v404" style="stroke: rgb(238, 238, 238); stroke-opacity: 1; stroke-width: 1px;"/><path class="xgrid crisp" transform="translate(495.38,0)" d="M0,25v404" style="stroke: rgb(238, 238, 238); stroke-opacity: 1; stroke-width: 1px;"/><path class="xgrid crisp" transform="translate(560.61,0)" d="M0,25v404" style="stroke: rgb(238, 238, 238); stroke-opacity: 1; stroke-width: 1px;"/></g><g class="y"><path class="ygrid crisp" transform="translate(0,361.97)" d="M60,0h526" style="stroke: rgb(238, 238, 238); stroke-opacity: 1; stroke-width: 1px;"/><path class="ygrid crisp" transform="translate(0,318.9)" d="M60,0h526" style="stroke: rgb(238, 238, 238); stroke-opacity: 1; stroke-width: 1px;"/><path class="ygrid crisp" transform="translate(0,275.82)" d="M60,0h526" style="stroke: rgb(238, 238, 238); stroke-opacity: 1; stroke-width: 1px;"/><path class="ygrid crisp" transform="translate(0,232.75)" d="M60,0h526" style="stroke: rgb(238, 238, 238); stroke-opacity: 1; stroke-width: 1px;"/><path class="ygrid crisp" transform="translate(0,189.67)" d="M60,0h526" style="stroke: rgb(238, 238, 238); stroke-opacity: 1; stroke-width: 1px;"/><path class="ygrid crisp" transform="translate(0,146.59)" d="M60,0h526" style="stroke: rgb(238, 238, 238); stroke-opacity: 1; stroke-width: 1px;"/><path class="ygrid crisp" transform="translate(0,103.52)" d="M60,0h526" style="stroke: rgb(238, 238, 238); stroke-opacity: 1; stroke-width: 1px;"/><path class="ygrid crisp" transform="translate(0,60.44)" d="M60,0h526" style="stroke: rgb(238, 238, 238); stroke-opacity: 1; stroke-width: 1px;"/></g></g><g class="zerolinelayer"><path class="yzl zl crisp" transform="translate(0,405.05)" d="M60,0h526" style="stroke: rgb(68, 68, 68); stroke-opacity: 1; stroke-width: 1px;"/></g><path class="xlines-below"/><path class="ylines-below"/><g class="overlines-below"/><g class="xaxislayer-below"/><g class="yaxislayer-below"/><g class="overaxes-below"/><g class="plot" transform="translate(60,25)" clip-path="url(#clip1b23c5xyplot)"><g class="scatterlayer mlayer"><g class="trace scatter tracecc8d92" style="stroke-miterlimit: 2; opacity: 1;"><g class="fills"/><g class="errorbars"/><g class="lines"><path class="js-line" d="M30.05,162.38L34.71,174.28L39.37,196.34L44.03,287.13L48.69,131.25L53.35,156.23L58,204.52L62.66,187.22L67.32,208.56L71.98,224.67L76.64,299.18L81.3,165.24L85.96,195.93L90.62,223.69L95.28,230.6L99.94,288.03L104.59,319.28L109.25,300.49L113.91,256.62L118.57,380.05L123.23,23.95L127.89,268.41L132.55,286.58L137.21,305.18L141.87,338.25L146.53,276.96L151.18,291.25L155.84,309.04L160.5,317.42L165.16,316.91L169.82,324.5L174.48,349.54L179.14,295.26L183.8,302.24L188.46,313.61L193.12,318.74L197.77,322.08L202.43,329.23L207.09,353.88L211.75,344.68L216.41,305.29L225.73,332.11L230.39,338.31L235.05,342.03L239.71,360.71L244.36,346.72L249.02,314.35L258.34,329.3L263,331.04L267.66,333.81L272.32,356.27L276.98,308.57L281.64,316.55L286.29,325.41L290.95,326.83L295.61,322.28L300.27,323.5L304.93,349.25L309.59,285.9L314.25,292.16L318.91,304.77L323.57,302.76L328.23,299.72L332.88,305.72L337.54,340.18L342.2,254.36L346.86,262.15L351.52,279.1L356.18,286.52L360.84,292.04L365.5,301.06L370.16,339.84L374.82,245.93L379.47,245.5L384.13,260.81L388.79,262.63L393.45,263.26L398.11,275.67L402.77,328.87L407.43,223.07L412.09,236.64L416.75,260.65L421.41,273.61L426.06,271.42L430.72,280.95L435.38,330.32L440.04,223.1L444.7,228.59L449.36,252.78L454.02,264.4L458.68,266.66L463.34,278.76L468,331.96L472.65,226.11L477.31,234.85L481.97,257.11L486.63,265.93L491.29,266.49L495.95,279.76" style="vector-effect: non-scaling-stroke; fill: none; stroke: rgb(94, 136, 252); stroke-opacity: 1; stroke-width: 2px; opacity: 1; stroke-dasharray: 9px, 9px;"/></g><g class="points"><path class="point" transform="translate(30.05,162.38)" d="M3,0A3,3 0 1,1 0,-3A3,3 0 0,1 3,0Z" style="opacity: 1; stroke-width: 0px; fill: rgb(38, 78, 134); fill-opacity: 1;"/><path class="point" transform="translate(34.71,174.28)" d="M3,0A3,3 0 1,1 0,-3A3,3 0 0,1 3,0Z" style="opacity: 1; stroke-width: 0px; fill: rgb(38, 78, 134); fill-opacity: 1;"/><path class="point" transform="translate(39.37,196.34)" d="M3,0A3,3 0 1,1 0,-3A3,3 0 0,1 3,0Z" style="opacity: 1; stroke-width: 0px; fill: rgb(38, 78, 134); fill-opacity: 1;"/><path class="point" transform="translate(44.03,287.13)" d="M3,0A3,3 0 1,1 0,-3A3,3 0 0,1 3,0Z" style="opacity: 1; stroke-width: 0px; fill: rgb(38, 78, 134); fill-opacity: 1;"/><path class="point" transform="translate(48.69,131.25)" d="M3,0A3,3 0 1,1 0,-3A3,3 0 0,1 3,0Z" style="opacity: 1; stroke-width: 0px; fill: rgb(38, 78, 134); fill-opacity: 1;"/><path class="point" transform="translate(53.35,156.23)" d="M3,0A3,3 0 1,1 0,-3A3,3 0 0,1 3,0Z" style="opacity: 1; stroke-width: 0px; fill: rgb(38, 78, 134); fill-opacity: 1;"/><path class="point" transform="translate(58,204.52)" d="M3,0A3,3 0 1,1 0,-3A3,3 0 0,1 3,0Z" style="opacity: 1; stroke-width: 0px; fill: rgb(38, 78, 134); fill-opacity: 1;"/><path class="point" transform="translate(62.66,187.22)" d="M3,0A3,3 0 1,1 0,-3A3,3 0 0,1 3,0Z" style="opacity: 1; stroke-width: 0px; fill: rgb(38, 78, 134); fill-opacity: 1;"/><path class="point" transform="translate(67.32,208.56)" d="M3,0A3,3 0 1,1 0,-3A3,3 0 0,1 3,0Z" style="opacity: 1; stroke-width: 0px; fill: rgb(38, 78, 134); fill-opacity: 1;"/><path class="point" transform="translate(71.98,224.67)" d="M3,0A3,3 0 1,1 0,-3A3,3 0 0,1 3,0Z" style="opacity: 1; stroke-width: 0px; fill: rgb(38, 78, 134); fill-opacity: 1;"/><path class="point" transform="translate(76.64,299.18)" d="M3,0A3,3 0 1,1 0,-3A3,3 0 0,1 3,0Z" style="opacity: 1; stroke-width: 0px; fill: rgb(38, 78, 134); fill-opacity: 1;"/><path class="point" transform="translate(81.3,165.24)" d="M3,0A3,3 0 1,1 0,-3A3,3 0 0,1 3,0Z" style="opacity: 1; stroke-width: 0px; fill: rgb(38, 78, 134); fill-opacity: 1;"/><path class="point" transform="translate(85.96,195.93)" d="M3,0A3,3 0 1,1 0,-3A3,3 0 0,1 3,0Z" style="opacity: 1; stroke-width: 0px; fill: rgb(38, 78, 134); fill-opacity: 1;"/><path class="point" transform="translate(90.62,223.69)" d="M3,0A3,3 0 1,1 0,-3A3,3 0 0,1 3,0Z" style="opacity: 1; stroke-width: 0px; fill: rgb(38, 78, 134); fill-opacity: 1;"/><path class="point" transform="translate(95.28,230.6)" d="M3,0A3,3 0 1,1 0,-3A3,3 0 0,1 3,0Z" style="opacity: 1; stroke-width: 0px; fill: rgb(38, 78, 134); fill-opacity: 1;"/><path class="point" transform="translate(99.94,288.03)" d="M3,0A3,3 0 1,1 0,-3A3,3 0 0,1 3,0Z" style="opacity: 1; stroke-width: 0px; fill: rgb(38, 78, 134); fill-opacity: 1;"/><path class="point" transform="translate(104.59,319.28)" d="M3,0A3,3 0 1,1 0,-3A3,3 0 0,1 3,0Z" style="opacity: 1; stroke-width: 0px; fill: rgb(38, 78, 134); fill-opacity: 1;"/><path class="point" transform="translate(109.25,300.49)" d="M3,0A3,3 0 1,1 0,-3A3,3 0 0,1 3,0Z" style="opacity: 1; stroke-width: 0px; fill: rgb(38, 78, 134); fill-opacity: 1;"/><path class="point" transform="translate(113.91,256.62)" d="M3,0A3,3 0 1,1 0,-3A3,3 0 0,1 3,0Z" style="opacity: 1; stroke-width: 0px; fill: rgb(38, 78, 134); fill-opacity: 1;"/><path class="point" transform="translate(118.57,380.05)" d="M3,0A3,3 0 1,1 0,-3A3,3 0 0,1 3,0Z" style="opacity: 1; stroke-width: 0px; fill: rgb(38, 78, 134); fill-opacity: 1;"/><path class="point" transform="translate(123.23,23.95)" d="M3,0A3,3 0 1,1 0,-3A3,3 0 0,1 3,0Z" style="opacity: 1; stroke-width: 0px; fill: rgb(38, 78, 134); fill-opacity: 1;"/><path class="point" transform="translate(127.89,268.41)" d="M3,0A3,3 0 1,1 0,-3A3,3 0 0,1 3,0Z" style="opacity: 1; stroke-width: 0px; fill: rgb(38, 78, 134); fill-opacity: 1;"/><path class="point" transform="translate(132.55,286.58)" d="M3,0A3,3 0 1,1 0,-3A3,3 0 0,1 3,0Z" style="opacity: 1; stroke-width: 0px; fill: rgb(38, 78, 134); fill-opacity: 1;"/><path class="point" transform="translate(137.21,305.18)" d="M3,0A3,3 0 1,1 0,-3A3,3 0 0,1 3,0Z" style="opacity: 1; stroke-width: 0px; fill: rgb(38, 78, 134); fill-opacity: 1;"/><path class="point" transform="translate(141.87,338.25)" d="M3,0A3,3 0 1,1 0,-3A3,3 0 0,1 3,0Z" style="opacity: 1; stroke-width: 0px; fill: rgb(38, 78, 134); fill-opacity: 1;"/><path class="point" transform="translate(146.53,276.96)" d="M3,0A3,3 0 1,1 0,-3A3,3 0 0,1 3,0Z" style="opacity: 1; stroke-width: 0px; fill: rgb(38, 78, 134); fill-opacity: 1;"/><path class="point" transform="translate(151.18,291.25)" d="M3,0A3,3 0 1,1 0,-3A3,3 0 0,1 3,0Z" style="opacity: 1; stroke-width: 0px; fill: rgb(38, 78, 134); fill-opacity: 1;"/><path class="point" transform="translate(155.84,309.04)" d="M3,0A3,3 0 1,1 0,-3A3,3 0 0,1 3,0Z" style="opacity: 1; stroke-width: 0px; fill: rgb(38, 78, 134); fill-opacity: 1;"/><path class="point" transform="translate(160.5,317.42)" d="M3,0A3,3 0 1,1 0,-3A3,3 0 0,1 3,0Z" style="opacity: 1; stroke-width: 0px; fill: rgb(38, 78, 134); fill-opacity: 1;"/><path class="point" transform="translate(165.16,316.91)" d="M3,0A3,3 0 1,1 0,-3A3,3 0 0,1 3,0Z" style="opacity: 1; stroke-width: 0px; fill: rgb(38, 78, 134); fill-opacity: 1;"/><path class="point" transform="translate(169.82,324.5)" d="M3,0A3,3 0 1,1 0,-3A3,3 0 0,1 3,0Z" style="opacity: 1; stroke-width: 0px; fill: rgb(38, 78, 134); fill-opacity: 1;"/><path class="point" transform="translate(174.48,349.54)" d="M3,0A3,3 0 1,1 0,-3A3,3 0 0,1 3,0Z" style="opacity: 1; stroke-width: 0px; fill: rgb(38, 78, 134); fill-opacity: 1;"/><path class="point" transform="translate(179.14,295.26)" d="M3,0A3,3 0 1,1 0,-3A3,3 0 0,1 3,0Z" style="opacity: 1; stroke-width: 0px; fill: rgb(38, 78, 134); fill-opacity: 1;"/><path class="point" transform="translate(183.8,302.24)" d="M3,0A3,3 0 1,1 0,-3A3,3 0 0,1 3,0Z" style="opacity: 1; stroke-width: 0px; fill: rgb(38, 78, 134); fill-opacity: 1;"/><path class="point" transform="translate(188.46,313.61)" d="M3,0A3,3 0 1,1 0,-3A3,3 0 0,1 3,0Z" style="opacity: 1; stroke-width: 0px; fill: rgb(38, 78, 134); fill-opacity: 1;"/><path class="point" transform="translate(193.12,318.74)" d="M3,0A3,3 0 1,1 0,-3A3,3 0 0,1 3,0Z" style="opacity: 1; stroke-width: 0px; fill: rgb(38, 78, 134); fill-opacity: 1;"/><path class="point" transform="translate(197.77,322.08)" d="M3,0A3,3 0 1,1 0,-3A3,3 0 0,1 3,0Z" style="opacity: 1; stroke-width: 0px; fill: rgb(38, 78, 134); fill-opacity: 1;"/><path class="point" transform="translate(202.43,329.23)" d="M3,0A3,3 0 1,1 0,-3A3,3 0 0,1 3,0Z" style="opacity: 1; stroke-width: 0px; fill: rgb(38, 78, 134); fill-opacity: 1;"/><path class="point" transform="translate(207.09,353.88)" d="M3,0A3,3 0 1,1 0,-3A3,3 0 0,1 3,0Z" style="opacity: 1; stroke-width: 0px; fill: rgb(38, 78, 134); fill-opacity: 1;"/><path class="point" transform="translate(211.75,344.68)" d="M3,0A3,3 0 1,1 0,-3A3,3 0 0,1 3,0Z" style="opacity: 1; stroke-width: 0px; fill: rgb(38, 78, 134); fill-opacity: 1;"/><path class="point" transform="translate(216.41,305.29)" d="M3,0A3,3 0 1,1 0,-3A3,3 0 0,1 3,0Z" style="opacity: 1; stroke-width: 0px; fill: rgb(38, 78, 134); fill-opacity: 1;"/><path class="point" transform="translate(221.07,318.44)" d="M3,0A3,3 0 1,1 0,-3A3,3 0 0,1 3,0Z" style="opacity: 1; stroke-width: 0px; fill: rgb(38, 78, 134); fill-opacity: 1;"/><path class="point" transform="translate(225.73,332.11)" d="M3,0A3,3 0 1,1 0,-3A3,3 0 0,1 3,0Z" style="opacity: 1; stroke-width: 0px; fill: rgb(38, 78, 134); fill-opacity: 1;"/><path class="point" transform="translate(230.39,338.31)" d="M3,0A3,3 0 1,1 0,-3A3,3 0 0,1 3,0Z" style="opacity: 1; stroke-width: 0px; fill: rgb(38, 78, 134); fill-opacity: 1;"/><path class="point" transform="translate(235.05,342.03)" d="M3,0A3,3 0 1,1 0,-3A3,3 0 0,1 3,0Z" style="opacity: 1; stroke-width: 0px; fill: rgb(38, 78, 134); fill-opacity: 1;"/><path class="point" transform="translate(239.71,360.71)" d="M3,0A3,3 0 1,1 0,-3A3,3 0 0,1 3,0Z" style="opacity: 1; stroke-width: 0px; fill: rgb(38, 78, 134); fill-opacity: 1;"/><path class="point" transform="translate(244.36,346.72)" d="M3,0A3,3 0 1,1 0,-3A3,3 0 0,1 3,0Z" style="opacity: 1; stroke-width: 0px; fill: rgb(38, 78, 134); fill-opacity: 1;"/><path class="point" transform="translate(249.02,314.35)" d="M3,0A3,3 0 1,1 0,-3A3,3 0 0,1 3,0Z" style="opacity: 1; stroke-width: 0px; fill: rgb(38, 78, 134); fill-opacity: 1;"/><path class="point" transform="translate(253.68,322.05)" d="M3,0A3,3 0 1,1 0,-3A3,3 0 0,1 3,0Z" style="opacity: 1; stroke-width: 0px; fill: rgb(38, 78, 134); fill-opacity: 1;"/><path class="point" transform="translate(258.34,329.3)" d="M3,0A3,3 0 1,1 0,-3A3,3 0 0,1 3,0Z" style="opacity: 1; stroke-width: 0px; fill: rgb(38, 78, 134); fill-opacity: 1;"/><path class="point" transform="translate(263,331.04)" d="M3,0A3,3 0 1,1 0,-3A3,3 0 0,1 3,0Z" style="opacity: 1; stroke-width: 0px; fill: rgb(38, 78, 134); fill-opacity: 1;"/><path class="point" transform="translate(267.66,333.81)" d="M3,0A3,3 0 1,1 0,-3A3,3 0 0,1 3,0Z" style="opacity: 1; stroke-width: 0px; fill: rgb(38, 78, 134); fill-opacity: 1;"/><path class="point" transform="translate(272.32,356.27)" d="M3,0A3,3 0 1,1 0,-3A3,3 0 0,1 3,0Z" style="opacity: 1; stroke-width: 0px; fill: rgb(38, 78, 134); fill-opacity: 1;"/><path class="point" transform="translate(276.98,308.57)" d="M3,0A3,3 0 1,1 0,-3A3,3 0 0,1 3,0Z" style="opacity: 1; stroke-width: 0px; fill: rgb(38, 78, 134); fill-opacity: 1;"/><path class="point" transform="translate(281.64,316.55)" d="M3,0A3,3 0 1,1 0,-3A3,3 0 0,1 3,0Z" style="opacity: 1; stroke-width: 0px; fill: rgb(38, 78, 134); fill-opacity: 1;"/><path class="point" transform="translate(286.29,325.41)" d="M3,0A3,3 0 1,1 0,-3A3,3 0 0,1 3,0Z" style="opacity: 1; stroke-width: 0px; fill: rgb(38, 78, 134); fill-opacity: 1;"/><path class="point" transform="translate(290.95,326.83)" d="M3,0A3,3 0 1,1 0,-3A3,3 0 0,1 3,0Z" style="opacity: 1; stroke-width: 0px; fill: rgb(38, 78, 134); fill-opacity: 1;"/><path class="point" transform="translate(295.61,322.28)" d="M3,0A3,3 0 1,1 0,-3A3,3 0 0,1 3,0Z" style="opacity: 1; stroke-width: 0px; fill: rgb(38, 78, 134); fill-opacity: 1;"/><path class="point" transform="translate(300.27,323.5)" d="M3,0A3,3 0 1,1 0,-3A3,3 0 0,1 3,0Z" style="opacity: 1; stroke-width: 0px; fill: rgb(38, 78, 134); fill-opacity: 1;"/><path class="point" transform="translate(304.93,349.25)" d="M3,0A3,3 0 1,1 0,-3A3,3 0 0,1 3,0Z" style="opacity: 1; stroke-width: 0px; fill: rgb(38, 78, 134); fill-opacity: 1;"/><path class="point" transform="translate(309.59,285.9)" d="M3,0A3,3 0 1,1 0,-3A3,3 0 0,1 3,0Z" style="opacity: 1; stroke-width: 0px; fill: rgb(38, 78, 134); fill-opacity: 1;"/><path class="point" transform="translate(314.25,292.16)" d="M3,0A3,3 0 1,1 0,-3A3,3 0 0,1 3,0Z" style="opacity: 1; stroke-width: 0px; fill: rgb(38, 78, 134); fill-opacity: 1;"/><path class="point" transform="translate(318.91,304.77)" d="M3,0A3,3 0 1,1 0,-3A3,3 0 0,1 3,0Z" style="opacity: 1; stroke-width: 0px; fill: rgb(38, 78, 134); fill-opacity: 1;"/><path class="point" transform="translate(323.57,302.76)" d="M3,0A3,3 0 1,1 0,-3A3,3 0 0,1 3,0Z" style="opacity: 1; stroke-width: 0px; fill: rgb(38, 78, 134); fill-opacity: 1;"/><path class="point" transform="translate(328.23,299.72)" d="M3,0A3,3 0 1,1 0,-3A3,3 0 0,1 3,0Z" style="opacity: 1; stroke-width: 0px; fill: rgb(38, 78, 134); fill-opacity: 1;"/><path class="point" transform="translate(332.88,305.72)" d="M3,0A3,3 0 1,1 0,-3A3,3 0 0,1 3,0Z" style="opacity: 1; stroke-width: 0px; fill: rgb(38, 78, 134); fill-opacity: 1;"/><path class="point" transform="translate(337.54,340.18)" d="M3,0A3,3 0 1,1 0,-3A3,3 0 0,1 3,0Z" style="opacity: 1; stroke-width: 0px; fill: rgb(38, 78, 134); fill-opacity: 1;"/><path class="point" transform="translate(342.2,254.36)" d="M3,0A3,3 0 1,1 0,-3A3,3 0 0,1 3,0Z" style="opacity: 1; stroke-width: 0px; fill: rgb(38, 78, 134); fill-opacity: 1;"/><path class="point" transform="translate(346.86,262.15)" d="M3,0A3,3 0 1,1 0,-3A3,3 0 0,1 3,0Z" style="opacity: 1; stroke-width: 0px; fill: rgb(38, 78, 134); fill-opacity: 1;"/><path class="point" transform="translate(351.52,279.1)" d="M3,0A3,3 0 1,1 0,-3A3,3 0 0,1 3,0Z" style="opacity: 1; stroke-width: 0px; fill: rgb(38, 78, 134); fill-opacity: 1;"/><path class="point" transform="translate(356.18,286.52)" d="M3,0A3,3 0 1,1 0,-3A3,3 0 0,1 3,0Z" style="opacity: 1; stroke-width: 0px; fill: rgb(38, 78, 134); fill-opacity: 1;"/><path class="point" transform="translate(360.84,292.04)" d="M3,0A3,3 0 1,1 0,-3A3,3 0 0,1 3,0Z" style="opacity: 1; stroke-width: 0px; fill: rgb(38, 78, 134); fill-opacity: 1;"/><path class="point" transform="translate(365.5,301.06)" d="M3,0A3,3 0 1,1 0,-3A3,3 0 0,1 3,0Z" style="opacity: 1; stroke-width: 0px; fill: rgb(38, 78, 134); fill-opacity: 1;"/><path class="point" transform="translate(370.16,339.84)" d="M3,0A3,3 0 1,1 0,-3A3,3 0 0,1 3,0Z" style="opacity: 1; stroke-width: 0px; fill: rgb(38, 78, 134); fill-opacity: 1;"/><path class="point" transform="translate(374.82,245.93)" d="M3,0A3,3 0 1,1 0,-3A3,3 0 0,1 3,0Z" style="opacity: 1; stroke-width: 0px; fill: rgb(38, 78, 134); fill-opacity: 1;"/><path class="point" transform="translate(379.47,245.5)" d="M3,0A3,3 0 1,1 0,-3A3,3 0 0,1 3,0Z" style="opacity: 1; stroke-width: 0px; fill: rgb(38, 78, 134); fill-opacity: 1;"/><path class="point" transform="translate(384.13,260.81)" d="M3,0A3,3 0 1,1 0,-3A3,3 0 0,1 3,0Z" style="opacity: 1; stroke-width: 0px; fill: rgb(38, 78, 134); fill-opacity: 1;"/><path class="point" transform="translate(388.79,262.63)" d="M3,0A3,3 0 1,1 0,-3A3,3 0 0,1 3,0Z" style="opacity: 1; stroke-width: 0px; fill: rgb(38, 78, 134); fill-opacity: 1;"/><path class="point" transform="translate(393.45,263.26)" d="M3,0A3,3 0 1,1 0,-3A3,3 0 0,1 3,0Z" style="opacity: 1; stroke-width: 0px; fill: rgb(38, 78, 134); fill-opacity: 1;"/><path class="point" transform="translate(398.11,275.67)" d="M3,0A3,3 0 1,1 0,-3A3,3 0 0,1 3,0Z" style="opacity: 1; stroke-width: 0px; fill: rgb(38, 78, 134); fill-opacity: 1;"/><path class="point" transform="translate(402.77,328.87)" d="M3,0A3,3 0 1,1 0,-3A3,3 0 0,1 3,0Z" style="opacity: 1; stroke-width: 0px; fill: rgb(38, 78, 134); fill-opacity: 1;"/><path class="point" transform="translate(407.43,223.07)" d="M3,0A3,3 0 1,1 0,-3A3,3 0 0,1 3,0Z" style="opacity: 1; stroke-width: 0px; fill: rgb(38, 78, 134); fill-opacity: 1;"/><path class="point" transform="translate(412.09,236.64)" d="M3,0A3,3 0 1,1 0,-3A3,3 0 0,1 3,0Z" style="opacity: 1; stroke-width: 0px; fill: rgb(38, 78, 134); fill-opacity: 1;"/><path class="point" transform="translate(416.75,260.65)" d="M3,0A3,3 0 1,1 0,-3A3,3 0 0,1 3,0Z" style="opacity: 1; stroke-width: 0px; fill: rgb(38, 78, 134); fill-opacity: 1;"/><path class="point" transform="translate(421.41,273.61)" d="M3,0A3,3 0 1,1 0,-3A3,3 0 0,1 3,0Z" style="opacity: 1; stroke-width: 0px; fill: rgb(38, 78, 134); fill-opacity: 1;"/><path class="point" transform="translate(426.06,271.42)" d="M3,0A3,3 0 1,1 0,-3A3,3 0 0,1 3,0Z" style="opacity: 1; stroke-width: 0px; fill: rgb(38, 78, 134); fill-opacity: 1;"/><path class="point" transform="translate(430.72,280.95)" d="M3,0A3,3 0 1,1 0,-3A3,3 0 0,1 3,0Z" style="opacity: 1; stroke-width: 0px; fill: rgb(38, 78, 134); fill-opacity: 1;"/><path class="point" transform="translate(435.38,330.32)" d="M3,0A3,3 0 1,1 0,-3A3,3 0 0,1 3,0Z" style="opacity: 1; stroke-width: 0px; fill: rgb(38, 78, 134); fill-opacity: 1;"/><path class="point" transform="translate(440.04,223.1)" d="M3,0A3,3 0 1,1 0,-3A3,3 0 0,1 3,0Z" style="opacity: 1; stroke-width: 0px; fill: rgb(38, 78, 134); fill-opacity: 1;"/><path class="point" transform="translate(444.7,228.59)" d="M3,0A3,3 0 1,1 0,-3A3,3 0 0,1 3,0Z" style="opacity: 1; stroke-width: 0px; fill: rgb(38, 78, 134); fill-opacity: 1;"/><path class="point" transform="translate(449.36,252.78)" d="M3,0A3,3 0 1,1 0,-3A3,3 0 0,1 3,0Z" style="opacity: 1; stroke-width: 0px; fill: rgb(38, 78, 134); fill-opacity: 1;"/><path class="point" transform="translate(454.02,264.4)" d="M3,0A3,3 0 1,1 0,-3A3,3 0 0,1 3,0Z" style="opacity: 1; stroke-width: 0px; fill: rgb(38, 78, 134); fill-opacity: 1;"/><path class="point" transform="translate(458.68,266.66)" d="M3,0A3,3 0 1,1 0,-3A3,3 0 0,1 3,0Z" style="opacity: 1; stroke-width: 0px; fill: rgb(38, 78, 134); fill-opacity: 1;"/><path class="point" transform="translate(463.34,278.76)" d="M3,0A3,3 0 1,1 0,-3A3,3 0 0,1 3,0Z" style="opacity: 1; stroke-width: 0px; fill: rgb(38, 78, 134); fill-opacity: 1;"/><path class="point" transform="translate(468,331.96)" d="M3,0A3,3 0 1,1 0,-3A3,3 0 0,1 3,0Z" style="opacity: 1; stroke-width: 0px; fill: rgb(38, 78, 134); fill-opacity: 1;"/><path class="point" transform="translate(472.65,226.11)" d="M3,0A3,3 0 1,1 0,-3A3,3 0 0,1 3,0Z" style="opacity: 1; stroke-width: 0px; fill: rgb(38, 78, 134); fill-opacity: 1;"/><path class="point" transform="translate(477.31,234.85)" d="M3,0A3,3 0 1,1 0,-3A3,3 0 0,1 3,0Z" style="opacity: 1; stroke-width: 0px; fill: rgb(38, 78, 134); fill-opacity: 1;"/><path class="point" transform="translate(481.97,257.11)" d="M3,0A3,3 0 1,1 0,-3A3,3 0 0,1 3,0Z" style="opacity: 1; stroke-width: 0px; fill: rgb(38, 78, 134); fill-opacity: 1;"/><path class="point" transform="translate(486.63,265.93)" d="M3,0A3,3 0 1,1 0,-3A3,3 0 0,1 3,0Z" style="opacity: 1; stroke-width: 0px; fill: rgb(38, 78, 134); fill-opacity: 1;"/><path class="point" transform="translate(491.29,266.49)" d="M3,0A3,3 0 1,1 0,-3A3,3 0 0,1 3,0Z" style="opacity: 1; stroke-width: 0px; fill: rgb(38, 78, 134); fill-opacity: 1;"/><path class="point" transform="translate(495.95,279.76)" d="M3,0A3,3 0 1,1 0,-3A3,3 0 0,1 3,0Z" style="opacity: 1; stroke-width: 0px; fill: rgb(38, 78, 134); fill-opacity: 1;"/></g><g class="text"/></g></g></g><g class="overplot"/><path class="xlines-above crisp" d="M0,0" style="fill: none;"/><path class="ylines-above crisp" d="M0,0" style="fill: none;"/><g class="overlines-above"/><g class="xaxislayer-above"><g class="xtick"><text text-anchor="middle" x="0" y="442" transform="translate(104.03,0)" style="font-family: 'Open Sans', verdana, arial, sans-serif; font-size: 12px; fill: rgb(68, 68, 68); fill-opacity: 1; white-space: pre; opacity: 1;"><tspan class="line" dy="0em" x="0" y="442">Aug 28</tspan><tspan class="line" dy="1.3em" x="0" y="442">2022</tspan></text></g><g class="xtick"><text text-anchor="middle" x="0" y="442" style="font-family: 'Open Sans', verdana, arial, sans-serif; font-size: 12px; fill: rgb(68, 68, 68); fill-opacity: 1; white-space: pre; opacity: 1;" transform="translate(169.25,0)">Sep 11</text></g><g class="xtick"><text text-anchor="middle" x="0" y="442" style="font-family: 'Open Sans', verdana, arial, sans-serif; font-size: 12px; fill: rgb(68, 68, 68); fill-opacity: 1; white-space: pre; opacity: 1;" transform="translate(234.48,0)">Sep 25</text></g><g class="xtick"><text text-anchor="middle" x="0" y="442" style="font-family: 'Open Sans', verdana, arial, sans-serif; font-size: 12px; fill: rgb(68, 68, 68); fill-opacity: 1; white-space: pre; opacity: 1;" transform="translate(299.71000000000004,0)">Oct 9</text></g><g class="xtick"><text text-anchor="middle" x="0" y="442" style="font-family: 'Open Sans', verdana, arial, sans-serif; font-size: 12px; fill: rgb(68, 68, 68); fill-opacity: 1; white-space: pre; opacity: 1;" transform="translate(364.93,0)">Oct 23</text></g><g class="xtick"><text text-anchor="middle" x="0" y="442" style="font-family: 'Open Sans', verdana, arial, sans-serif; font-size: 12px; fill: rgb(68, 68, 68); fill-opacity: 1; white-space: pre; opacity: 1;" transform="translate(430.16,0)">Nov 6</text></g><g class="xtick"><text text-anchor="middle" x="0" y="442" style="font-family: 'Open Sans', verdana, arial, sans-serif; font-size: 12px; fill: rgb(68, 68, 68); fill-opacity: 1; white-space: pre; opacity: 1;" transform="translate(495.38,0)">Nov 20</text></g><g class="xtick"><text text-anchor="middle" x="0" y="442" style="font-family: 'Open Sans', verdana, arial, sans-serif; font-size: 12px; fill: rgb(68, 68, 68); fill-opacity: 1; white-space: pre; opacity: 1;" transform="translate(560.61,0)">Dec 4</text></g></g><g class="yaxislayer-above"><g class="ytick"><text text-anchor="end" x="59" y="4.199999999999999" transform="translate(0,405.05)" style="font-family: 'Open Sans', verdana, arial, sans-serif; font-size: 12px; fill: rgb(68, 68, 68); fill-opacity: 1; white-space: pre; opacity: 1;">0</text></g><g class="ytick"><text text-anchor="end" x="59" y="4.199999999999999" style="font-family: 'Open Sans', verdana, arial, sans-serif; font-size: 12px; fill: rgb(68, 68, 68); fill-opacity: 1; white-space: pre; opacity: 1;" transform="translate(0,361.97)">20k</text></g><g class="ytick"><text text-anchor="end" x="59" y="4.199999999999999" style="font-family: 'Open Sans', verdana, arial, sans-serif; font-size: 12px; fill: rgb(68, 68, 68); fill-opacity: 1; white-space: pre; opacity: 1;" transform="translate(0,318.9)">40k</text></g><g class="ytick"><text text-anchor="end" x="59" y="4.199999999999999" style="font-family: 'Open Sans', verdana, arial, sans-serif; font-size: 12px; fill: rgb(68, 68, 68); fill-opacity: 1; white-space: pre; opacity: 1;" transform="translate(0,275.82)">60k</text></g><g class="ytick"><text text-anchor="end" x="59" y="4.199999999999999" style="font-family: 'Open Sans', verdana, arial, sans-serif; font-size: 12px; fill: rgb(68, 68, 68); fill-opacity: 1; white-space: pre; opacity: 1;" transform="translate(0,232.75)">80k</text></g><g class="ytick"><text text-anchor="end" x="59" y="4.199999999999999" style="font-family: 'Open Sans', verdana, arial, sans-serif; font-size: 12px; fill: rgb(68, 68, 68); fill-opacity: 1; white-space: pre; opacity: 1;" transform="translate(0,189.67)">100k</text></g><g class="ytick"><text text-anchor="end" x="59" y="4.199999999999999" style="font-family: 'Open Sans', verdana, arial, sans-serif; font-size: 12px; fill: rgb(68, 68, 68); fill-opacity: 1; white-space: pre; opacity: 1;" transform="translate(0,146.59)">120k</text></g><g class="ytick"><text text-anchor="end" x="59" y="4.199999999999999" style="font-family: 'Open Sans', verdana, arial, sans-serif; font-size: 12px; fill: rgb(68, 68, 68); fill-opacity: 1; white-space: pre; opacity: 1;" transform="translate(0,103.52)">140k</text></g><g class="ytick"><text text-anchor="end" x="59" y="4.199999999999999" style="font-family: 'Open Sans', verdana, arial, sans-serif; font-size: 12px; fill: rgb(68, 68, 68); fill-opacity: 1; white-space: pre; opacity: 1;" transform="translate(0,60.44)">160k</text></g></g><g class="overaxes-above"/></g></g><g class="polarlayer"/><g class="ternarylayer"/><g class="geolayer"/><g class="funnelarealayer"/><g class="pielayer"/><g class="iciclelayer"/><g class="treemaplayer"/><g class="sunburstlayer"/><g class="glimages"/><defs id="topdefs-1b23c5"><g class="clips"/></defs><g class="layer-above"><g class="imagelayer"/><g class="shapelayer"/></g><g class="infolayer"><g class="g-gtitle"/><g class="g-xtitle" transform="translate(0,-0.09917417907712434)"><text class="xtitle" x="323" y="481" text-anchor="middle" style="font-family: 'Open Sans', verdana, arial, sans-serif; font-size: 14px; fill: rgb(68, 68, 68); opacity: 1; font-weight: normal; white-space: pre;">date</text></g><g class="g-ytitle"><text class="ytitle" transform="rotate(-90,22,227)" x="22" y="227" text-anchor="middle" style="font-family: 'Open Sans', verdana, arial, sans-serif; font-size: 14px; fill: rgb(68, 68, 68); opacity: 1; font-weight: normal; white-space: pre;">new_cases</text></g></g></svg>