<svg class="main-svg" xmlns="http://www.w3.org/2000/svg" xmlns:xlink="http://www.w3.org/1999/xlink" width="596.364" height="483.636" style="" viewBox="0 0 596.364 483.636"><rect x="0" y="0" width="596.364" height="483.636" style="fill: rgb(255, 255, 255); fill-opacity: 1;"/><defs id="defs-5b6783"><g class="clips"><clipPath id="clip5b6783xyplot" class="plotclip"><rect width="526" height="404"/></clipPath><clipPath class="axesclip" id="clip5b6783x"><rect x="60" y="0" width="526" height="483.636"/></clipPath><clipPath class="axesclip" id="clip5b6783y"><rect x="0" y="25" width="596.364" height="404"/></clipPath><clipPath class="axesclip" id="clip5b6783xy"><rect x="60" y="25" width="526" height="404"/></clipPath></g><g class="gradients"/><g class="patterns"/></defs><g class="bglayer"/><g class="layer-below"><g class="imagelayer"/><g class="shapelayer"/></g><g class="cartesianlayer"><g class="subplot xy"><g class="layer-subplot"><g class="shapelayer"/><g class="imagelayer"/></g><g class="gridlayer"><g class="x"><path class="xgrid crisp" transform="translate(75.78,0)" d="M0,25v404" style="stroke: rgb(238, 238, 238); stroke-opacity: 1; stroke-width: 1px;"/><path class="xgrid crisp" transform="translate(149.42000000000002,0)" d="M0,25v404" style="stroke: rgb(238, 238, 238); stroke-opacity: 1; stroke-width: 1px;"/><path class="xgrid crisp" transform="translate(223.06,0)" d="M0,25v404" style="stroke: rgb(238, 238, 238); stroke-opacity: 1; stroke-width: 1px;"/><path class="xgrid crisp" transform="translate(296.7,0)" d="M0,25v404" style="stroke: rgb(238, 238, 238); stroke-opacity: 1; stroke-width: 1px;"/><path class="xgrid crisp" transform="translate(370.34,0)" d="M0,25v404" style="stroke: rgb(238, 238, 238); stroke-opacity: 1; stroke-width: 1px;"/><path class="xgrid crisp" transform="translate(443.98,0)" d="M0,25v404" style="stroke: rgb(238, 238, 238); stroke-opacity: 1; stroke-width: 1px;"/><path class="xgrid crisp" transform="translate(517.62,0)" d="M0,25v404" style="stroke: rgb(238, 238, 238); stroke-opacity: 1; stroke-width: 1px;"/></g><g class="y"><path class="ygrid crisp" transform="translate(0,328.3)" d="M60,0h526" style="stroke: rgb(238, 238, 238); stroke-opacity: 1; stroke-width: 1px;"/><path class="ygrid crisp" transform="translate(0,247.81)" d="M60,0h526" style="stroke: rgb(238, 238, 238); stroke-opacity: 1; stroke-width: 1px;"/><path class="ygrid crisp" transform="translate(0,167.31)" d="M60,0h526" style="stroke: rgb(238, 238, 238); stroke-opacity: 1; stroke-width: 1px;"/><path class="ygrid crisp" transform="translate(0,86.81)" d="M60,0h526" style="stroke: rgb(238, 238, 238); stroke-opacity: 1; stroke-width: 1px;"/></g></g><g class="zerolinelayer"><path class="yzl zl crisp" transform="translate(0,408.8)" d="M60,0h526" style="stroke: rgb(68, 68, 68); stroke-opacity: 1; stroke-width: 1px;"/></g><path class="xlines-below"/><path class="ylines-below"/><g class="overlines-below"/><g class="xaxislayer-below"/><g class="yaxislayer-below"/><g class="overaxes-below"/><g class="plot" transform="translate(60,25)" clip-path="url(#clip5b6783xyplot)"><g class="scatterlayer mlayer"><g class="trace scatter trace87c524" style="stroke-miterlimit: 2; opacity: 1;"><g class="fills"/><g class="errorbars"/><g class="lines"><path class="js-line" d="M0,302.45L5.26,306.9L10.52,315.14L15.78,349.07L21.04,290.81L26.3,300.15L31.56,318.2L36.82,311.73L42.08,319.71L47.34,325.73L52.6,353.58L57.86,303.52L63.12,314.99L68.38,325.36L73.64,327.94L78.9,349.41L84.16,361.09L89.42,354.07L94.68,337.67L99.94,383.8L105.2,250.71L110.46,342.08L115.72,348.86L120.98,355.82L126.24,368.18L131.5,345.27L136.76,350.61L142.02,357.26L147.28,360.39L152.54,360.2L157.8,363.04L163.06,372.4L168.32,352.11L173.58,354.72L178.84,358.97L194.62,364.81L199.88,374.02L205.14,370.58L210.4,355.86L220.92,365.88L226.18,368.2L231.44,369.59L236.7,376.57L241.96,371.34L247.22,359.25L257.74,364.83L263,365.48L268.26,366.52L273.52,374.91L278.78,357.08L284.04,360.07L289.3,363.38L294.56,363.91L299.82,362.21L305.08,362.66L310.34,372.29L315.6,348.61L320.86,350.95L326.12,355.67L336.64,353.78L341.9,356.02L347.16,368.9L352.42,336.82L357.68,339.74L362.94,346.07L378.72,354.28L383.98,368.77L389.24,333.67L394.5,333.51L399.76,339.23L405.02,339.91L410.28,340.15L415.54,344.79L420.8,364.67L426.06,325.13L431.32,330.2L436.58,339.18L441.84,344.02L447.1,343.2L452.36,346.76L457.62,365.21L462.88,325.14L468.14,327.19L473.4,336.24L478.66,340.58L483.92,341.42L489.18,345.94L494.44,365.83L499.7,326.26L504.96,329.53L510.22,337.85L515.48,341.15L520.74,341.36L526,346.32" style="vector-effect: non-scaling-stroke; fill: none; stroke: rgb(8, 69, 148); stroke-opacity: 1; stroke-width: 2px; opacity: 1;"/></g><g class="points"/><g class="text"/></g><g class="trace scatter trace1812cb" style="stroke-miterlimit: 2; opacity: 1;"><g class="fills"/><g class="errorbars"/><g class="lines"><path class="js-line" d="M0,54.12L5.26,96.54L10.52,119.17L15.78,165.5L21.04,171.38L26.3,118.78L31.56,109.98L36.82,129.51L42.08,92.94L47.34,172.1L52.6,173.14L57.86,197.42L63.12,164.79L68.38,153.5L73.64,178.71L78.9,213.88L84.16,230.13L89.42,212.95L94.68,208.36L99.94,246.69L105.2,100.98L110.46,209L115.72,226.65L126.24,260.54L131.5,267.75L136.76,265.17L142.02,237.61L147.28,224.41L152.54,254.89L157.8,263.85L163.06,282.99L168.32,276.3L173.58,262.05L178.84,257.23L184.1,269.99L189.36,276.67L194.62,280.94L199.88,301.37L205.14,315.4L210.4,263.43L215.66,263.35L220.92,281.48L226.18,283.7L231.44,292.19L236.7,285.12L241.96,294.9L247.22,288.91L252.48,258.94L257.74,260.42L263,274.36L268.26,280.82L273.52,298.48L278.78,303.13L284.04,263.83L289.3,269.15L294.56,280.86L299.82,285.68L305.08,286.73L310.34,300.07L315.6,296.94L320.86,262.62L326.12,260.53L331.38,269.58L336.64,272.82L341.9,274.84L347.16,291.17L352.42,282.31L357.68,239.07L362.94,239.5L368.2,246.78L373.46,277.52L378.72,249.73L383.98,278.15L389.24,275.13L394.5,221.55L399.76,216.1L405.02,236.31L410.28,237.3L415.54,228.91L420.8,275.11L426.06,251.84L431.32,197.23L436.58,181.19L441.84,231.27L447.1,218.57L452.36,206.75L457.62,249.75L462.88,242.18L468.14,193.12L473.4,130.63L478.66,255.4L483.92,189.44L489.18,188.08L494.44,225.45L499.7,230.08L504.96,133.3L510.22,185.14L515.48,184.03L520.74,173.29L526,226.79" style="vector-effect: non-scaling-stroke; fill: none; stroke: rgb(33, 113, 181); stroke-opacity: 1; stroke-width: 2px; opacity: 1;"/></g><g class="points"/><g class="text"/></g><g class="trace scatter tracec64c7f" style="stroke-miterlimit: 2; opacity: 1;"><g class="fills"/><g class="errorbars"/><g class="lines"><path class="js-line" d="M0,166.45L5.26,251.56L10.52,315.48L15.78,326.45L21.04,250.56L26.3,207.15L31.56,178.52L36.82,238.66L42.08,259.15L47.34,315.72L52.6,329.61L63.12,184.73L68.38,240.25L73.64,232.81L78.9,262.08L84.16,314.1L89.42,327.19L94.68,231.46L99.94,172.63L105.2,198.84L110.46,181.98L115.72,232.72L120.98,304.08L126.24,315.82L131.5,220.1L136.76,147.67L142.02,204.57L147.28,176.45L152.54,185.71L157.8,305.79L163.06,321.47L168.32,181.06L173.58,82.01L178.84,172.82L184.1,76.03L189.36,179.41L194.62,308.81L199.88,323.96L205.14,248.42L210.4,26.26L215.66,118.43L220.92,32.47L226.18,123.19L231.44,310.67L236.7,327.84L241.96,104.29L247.22,20.2L252.48,119.83L257.74,93.51L263,167.51L268.26,324.57L273.52,339.26L278.78,72.71L284.04,58.86L289.3,162.59L294.56,111.82L299.82,203.83L305.08,345.61L310.34,354.39L315.6,184.82L320.86,103.87L326.12,219.42L331.38,211.17L336.64,257.63L341.9,348.16L347.16,371.01L352.42,298.23L357.68,276.71L362.94,277.71L368.2,233.85L373.46,204.57L378.72,371.28L383.98,372.03L389.24,279.83L394.5,230.28L399.76,303.24L405.02,288.07L410.28,189.69L415.54,362.18L420.8,376.02L426.06,272.85L431.32,235.45L436.58,305.47L441.84,287.71L447.1,128.04L452.36,373.97L457.62,376.09L462.88,285.42L468.14,226.67L473.4,289.55L478.66,275.24L483.92,100.58L489.18,372.04L494.44,375.14L499.7,255.24L504.96,187.4L510.22,276.94L515.48,252.71L520.74,87.62L526,371.23" style="vector-effect: non-scaling-stroke; fill: none; stroke: rgb(66, 146, 198); stroke-opacity: 1; stroke-width: 2px; opacity: 1;"/></g><g class="points"/><g class="text"/></g><g class="trace scatter trace485faf" style="stroke-miterlimit: 2; opacity: 1;"><g class="fills"/><g class="errorbars"/><g class="lines"><path class="js-line" d="M0,255.9L5.26,281.18L10.52,371.55L15.78,364.9L21.04,290.86L26.3,301.37L31.56,255.94L36.82,254.7L42.08,323.66L47.34,373.38L52.6,371.95L57.86,353.01L63.12,278.07L68.38,280.62L73.64,290.87L78.9,298.15L84.16,364.59L89.42,373.71L94.68,323.81L99.94,308.33L105.2,298.06L110.46,309.04L115.72,334.05L120.98,368.26L126.24,376.92L131.5,336.95L136.76,315.3L142.02,299.37L147.28,311.56L152.54,310.03L157.8,373.44L163.06,377.12L168.32,345.29L173.58,325.62L178.84,310.49L184.1,303.36L189.36,354.19L194.62,373.91L199.88,378.62L205.14,347.44L210.4,334.81L215.66,319.51L220.92,326.71L226.18,329.83L231.44,376.5L236.7,377.3L241.96,364.15L247.22,327.07L252.48,326.94L257.74,323.51L263,357.07L268.26,375.94L273.52,376.68L278.78,351.43L284.04,342.27L289.3,331.45L294.56,328.26L299.82,344.06L305.08,378.3L310.34,375.6L315.6,350.98L320.86,341.18L326.12,323.04L331.38,328.4L336.64,355.32L341.9,375.47L347.16,378.69L352.42,346.6L357.68,339.09L362.94,320.65L368.2,319.55L378.72,379.26L383.98,377.38L389.24,347.33L394.5,355.56L399.76,301.88L405.02,323.08L410.28,370.04L415.54,378.82L420.8,381.33L426.06,339.81L431.32,331.17L436.58,313.36L441.84,335.41L447.1,335.83L452.36,379.07L457.62,380.27L462.88,343.97L468.14,331.28L473.4,289.63L478.66,368.67L483.92,363.66L489.18,380.92L494.44,379.42L499.7,333.65L504.96,322.77L510.22,292.17L515.48,272.47L520.74,350.09L526,377.59" style="vector-effect: non-scaling-stroke; fill: none; stroke: rgb(107, 174, 214); stroke-opacity: 1; stroke-width: 2px; opacity: 1;"/></g><g class="points"/><g class="text"/></g></g></g><g class="overplot"/><path class="xlines-above crisp" d="M0,0" style="fill: none;"/><path class="ylines-above crisp" d="M0,0" style="fill: none;"/><g class="overlines-above"/><g class="xaxislayer-above"><g class="xtick"><text text-anchor="middle" x="0" y="442" transform="translate(75.78,0)" style="font-family: 'Open Sans', verdana, arial, sans-serif; font-size: 12px; fill: rgb(68, 68, 68); fill-opacity: 1; white-space: pre; opacity: 1;"><tspan class="line" dy="0em" x="0" y="442">Aug 28</tspan><tspan class="line" dy="1.3em" x="0" y="442">2022</tspan></text></g><g class="xtick"><text text-anchor="middle" x="0" y="442" style="font-family: 'Open Sans', verdana, arial, sans-serif; font-size: 12px; fill: rgb(68, 68, 68); fill-opacity: 1; white-space: pre; opacity: 1;" transform="translate(149.42000000000002,0)">Sep 11</text></g><g class="xtick"><text text-anchor="middle" x="0" y="442" style="font-family: 'Open Sans', verdana, arial, sans-serif; font-size: 12px; fill: rgb(68, 68, 68); fill-opacity: 1; white-space: pre; opacity: 1;" transform="translate(223.06,0)">Sep 25</text></g><g class="xtick"><text text-anchor="middle" x="0" y="442" style="font-family: 'Open Sans', verdana, arial, sans-serif; font-size: 12px; fill: rgb(68, 68, 68); fill-opacity: 1; white-space: pre; opacity: 1;" transform="translate(296.7,0)">Oct 9</text></g><g class="xtick"><text text-anchor="middle" x="0" y="442" style="font-family: 'Open Sans', verdana, arial, sans-serif; font-size: 12px; fill: rgb(68, 68, 68); fill-opacity: 1; white-space: pre; opacity: 1;" transform="translate(370.34,0)">Oct 23</text></g><g class="xtick"><text text-anchor="middle" x="0" y="442" style="font-family: 'Open Sans', verdana, arial, sans-serif; font-size: 12px; fill: rgb(68, 68, 68); fill-opacity: 1; white-space: pre; opacity: 1;" transform="translate(443.98,0)">Nov 6</text></g><g class="xtick"><text text-anchor="middle" x="0" y="442" style="font-family: 'Open Sans', verdana, arial, sans-serif; font-size: 12px; fill: rgb(68, 68, 68); fill-opacity: 1; white-space: pre; opacity: 1;" transform="translate(517.62,0)">Nov 20</text></g></g><g class="yaxislayer-above"><g class="ytick"><text text-anchor="end" x="59" y="4.199999999999999" transform="translate(0,408.8)" style="font-family: 'Open Sans', verdana, arial, sans-serif; font-size: 12px; fill: rgb(68, 68, 68); fill-opacity: 1; white-space: pre; opacity: 1;">0</text></g><g class="ytick"><text text-anchor="end" x="59" y="4.199999999999999" style="font-family: 'Open Sans', verdana, arial, sans-serif; font-size: 12px; fill: rgb(68, 68, 68); fill-opacity: 1; white-space: pre; opacity: 1;" transform="translate(0,328.3)">100k</text></g><g class="ytick"><text text-anchor="end" x="59" y="4.199999999999999" style="font-family: 'Open Sans', verdana, arial, sans-serif; font-size: 12px; fill: rgb(68, 68, 68); fill-opacity: 1; white-space: pre; opacity: 1;" transform="translate(0,247.81)">200k</text></g><g class="ytick"><text text-anchor="end" x="59" y="4.199999999999999" style="font-family: 'Open Sans', verdana, arial, sans-serif; font-size: 12px; fill: rgb(68, 68, 68); fill-opacity: 1; white-space: pre; opacity: 1;" transform="translate(0,167.31)">300k</text></g><g class="ytick"><text text-anchor="end" x="59" y="4.199999999999999" style="font-family: 'Open Sans', verdana, arial, sans-serif; font-size: 12px; fill: rgb(68, 68, 68); fill-opacity: 1; white-space: pre; opacity: 1;" transform="translate(0,86.81)">400k</text></g></g><g class="overaxes-above"/></g></g><g class="polarlayer"/><g class="ternarylayer"/><g class="geolayer"/><g class="funnelarealayer"/><g class="pielayer"/><g class="iciclelayer"/><g class="treemaplayer"/><g class="sunburstlayer"/><g class="glimages"/><defs id="topdefs-5b6783"><g class="clips"/><clipPath id="legend5b6783"><rect width="69" height="67" x="2" y="2"/></clipPath></defs><g class="layer-above"><g class="imagelayer"/><g class="shapelayer"/></g><g class="infolayer"><g class="legend" pointer-events="all" transform="translate(486.70000000000005,45.20000000000002)"><rect class="bg" shape-rendering="crispEdges" width="71" height="69" x="1" y="1" style="stroke: rgb(128, 128, 128); stroke-opacity: 1; fill: rgb(255, 255, 255); fill-opacity: 1; stroke-width: 2px;"/><g class="scrollbox" transform="" clip-path="url(#legend5b6783)"><g class="groups"><g class="traces" transform="translate(2,16.5)" style="opacity: 1;"><text class="legendtext" text-anchor="start" x="40" y="4.680000000000001" style="font-family: 'Open Sans', verdana, arial, sans-serif; font-size: 12px; fill: rgb(68, 68, 68); fill-opacity: 1; white-space: pre;">한국</text><g class="layers" style="opacity: 1;"><g class="legendfill"/><g class="legendlines"><path class="js-line" d="M5,0h30" style="fill: none; stroke: rgb(8, 69, 148); stroke-opacity: 1; stroke-width: 2px;"/></g><g class="legendsymbols"><g class="legendpoints"/></g></g><rect class="legendtoggle" x="0" y="-9.5" width="63.984375" height="19" style="fill: rgb(0, 0, 0); fill-opacity: 0;"/></g><g class="traces" transform="translate(2,35.5)" style="opacity: 1;"><text class="legendtext" text-anchor="start" x="40" y="4.680000000000001" style="font-family: 'Open Sans', verdana, arial, sans-serif; font-size: 12px; fill: rgb(68, 68, 68); fill-opacity: 1; white-space: pre;">유럽</text><g class="layers" style="opacity: 1;"><g class="legendfill"/><g class="legendlines"><path class="js-line" d="M5,0h30" style="fill: none; stroke: rgb(66, 146, 198); stroke-opacity: 1; stroke-width: 2px;"/></g><g class="legendsymbols"><g class="legendpoints"/></g></g><rect class="legendtoggle" x="0" y="-9.5" width="63.984375" height="19" style="fill: rgb(0, 0, 0); fill-opacity: 0;"/></g><g class="traces" transform="translate(2,54.5)" style="opacity: 1;"><text class="legendtext" text-anchor="start" x="40" y="4.680000000000001" style="font-family: 'Open Sans', verdana, arial, sans-serif; font-size: 12px; fill: rgb(68, 68, 68); fill-opacity: 1; white-space: pre;">북미</text><g class="layers" style="opacity: 1;"><g class="legendfill"/><g class="legendlines"><path class="js-line" d="M5,0h30" style="fill: none; stroke: rgb(107, 174, 214); stroke-opacity: 1; stroke-width: 2px;"/></g><g class="legendsymbols"><g class="legendpoints"/></g></g><rect class="legendtoggle" x="0" y="-9.5" width="63.984375" height="19" style="fill: rgb(0, 0, 0); fill-opacity: 0;"/></g></g></g><rect class="scrollbar" rx="20" ry="3" width="0" height="0" x="0" y="0" style="fill: rgb(128, 139, 164); fill-opacity: 1;"/></g><g class="g-gtitle"><text class="gtitle" x="298.182" y="12.5" text-anchor="middle" dy="0.7em" style="font-family: 'Open Sans', verdana, arial, sans-serif; font-size: 17px; fill: rgb(68, 68, 68); opacity: 1; font-weight: normal; white-space: pre;">대륙별 신규 확진자수 추이</text></g><g class="g-xtitle" transform="translate(0,-0.09917417907712434)"><text class="xtitle" x="323" y="481" text-anchor="middle" style="font-family: 'Open Sans', verdana, arial, sans-serif; font-size: 14px; fill: rgb(68, 68, 68); opacity: 1; font-weight: normal; white-space: pre;">date</text></g><g class="g-ytitle"><text class="ytitle" transform="rotate(-90,22,227)" x="22" y="227" text-anchor="middle" style="font-family: 'Open Sans', verdana, arial, sans-serif; font-size: 14px; fill: rgb(68, 68, 68); opacity: 1; font-weight: normal; white-space: pre;">확진자_한국</text></g></g></svg>