<svg class="main-svg" xmlns="http://www.w3.org/2000/svg" xmlns:xlink="http://www.w3.org/1999/xlink" width="596.364" height="483.636" style="" viewBox="0 0 596.364 483.636"><rect x="0" y="0" width="596.364" height="483.636" style="fill: rgb(255, 255, 255); fill-opacity: 1;"/><defs id="defs-5ace68"><g class="clips"><clipPath id="clip5ace68xyplot" class="plotclip"><rect width="514" height="377"/></clipPath><clipPath class="axesclip" id="clip5ace68x"><rect x="57" y="0" width="514" height="483.636"/></clipPath><clipPath class="axesclip" id="clip5ace68y"><rect x="0" y="50" width="596.364" height="377"/></clipPath><clipPath class="axesclip" id="clip5ace68xy"><rect x="57" y="50" width="514" height="377"/></clipPath></g><g class="gradients"/><g class="patterns"/></defs><g class="bglayer"/><g class="layer-below"><g class="imagelayer"/><g class="shapelayer"/></g><g class="cartesianlayer"><g class="subplot xy"><g class="layer-subplot"><g class="shapelayer"/><g class="imagelayer"/></g><g class="gridlayer"><g class="x"><path class="xgrid crisp" transform="translate(72.42,0)" d="M0,50v377" style="stroke: rgb(238, 238, 238); stroke-opacity: 1; stroke-width: 1px;"/><path class="xgrid crisp" transform="translate(144.38,0)" d="M0,50v377" style="stroke: rgb(238, 238, 238); stroke-opacity: 1; stroke-width: 1px;"/><path class="xgrid crisp" transform="translate(216.34,0)" d="M0,50v377" style="stroke: rgb(238, 238, 238); stroke-opacity: 1; stroke-width: 1px;"/><path class="xgrid crisp" transform="translate(288.3,0)" d="M0,50v377" style="stroke: rgb(238, 238, 238); stroke-opacity: 1; stroke-width: 1px;"/><path class="xgrid crisp" transform="translate(360.26,0)" d="M0,50v377" style="stroke: rgb(238, 238, 238); stroke-opacity: 1; stroke-width: 1px;"/><path class="xgrid crisp" transform="translate(432.22,0)" d="M0,50v377" style="stroke: rgb(238, 238, 238); stroke-opacity: 1; stroke-width: 1px;"/><path class="xgrid crisp" transform="translate(504.18,0)" d="M0,50v377" style="stroke: rgb(238, 238, 238); stroke-opacity: 1; stroke-width: 1px;"/></g><g class="y"><path class="ygrid crisp" transform="translate(0,333.03)" d="M57,0h514" style="stroke: rgb(238, 238, 238); stroke-opacity: 1; stroke-width: 1px;"/><path class="ygrid crisp" transform="translate(0,257.91999999999996)" d="M57,0h514" style="stroke: rgb(238, 238, 238); stroke-opacity: 1; stroke-width: 1px;"/><path class="ygrid crisp" transform="translate(0,182.8)" d="M57,0h514" style="stroke: rgb(238, 238, 238); stroke-opacity: 1; stroke-width: 1px;"/><path class="ygrid crisp" transform="translate(0,107.68)" d="M57,0h514" style="stroke: rgb(238, 238, 238); stroke-opacity: 1; stroke-width: 1px;"/></g></g><g class="zerolinelayer"><path class="yzl zl crisp" transform="translate(0,408.15)" d="M57,0h514" style="stroke: rgb(68, 68, 68); stroke-opacity: 1; stroke-width: 1px;"/></g><path class="xlines-below"/><path class="ylines-below"/><g class="overlines-below"/><g class="xaxislayer-below"/><g class="yaxislayer-below"/><g class="overaxes-below"/><g class="plot" transform="translate(57,50)" clip-path="url(#clip5ace68xyplot)"><g class="scatterlayer mlayer"><g class="trace scatter trace811ef4" style="stroke-miterlimit: 2; opacity: 1;"><g class="fills"/><g class="errorbars"/><g class="lines"><path class="js-line" d="M0,282.23L5.14,286.39L10.28,294.08L15.42,325.74L20.56,271.38L25.7,280.09L30.84,296.93L35.98,290.9L41.12,298.34L46.26,303.96L51.4,329.95L56.54,283.23L61.68,293.94L66.82,303.62L71.96,306.03L77.1,326.06L82.24,336.96L87.38,330.4L92.52,315.1L97.66,358.15L102.8,233.96L107.94,319.22L113.08,325.55L118.22,332.04L123.36,343.57L128.5,322.2L133.64,327.18L138.78,333.38L143.92,336.31L149.06,336.13L154.2,338.78L159.34,347.51L164.48,328.58L169.62,331.01L174.76,334.98L190.18,340.42L195.32,349.02L200.46,345.81L205.6,332.08L215.88,341.43L221.02,343.59L226.16,344.89L231.3,351.4L236.44,346.52L241.58,335.24L251.86,340.45L257,341.06L262.14,342.02L267.28,349.86L272.42,333.22L277.56,336L282.7,339.09L287.84,339.59L292.98,338L298.12,338.43L303.26,347.41L308.4,325.31L313.54,327.5L318.68,331.9L328.96,330.13L334.1,332.23L339.24,344.25L344.38,314.31L349.52,317.03L354.66,322.94L370.08,330.6L375.22,344.12L380.36,311.37L385.5,311.22L390.64,316.56L395.78,317.2L400.92,317.42L406.06,321.74L411.2,340.3L416.34,303.4L421.48,308.13L426.62,316.51L431.76,321.03L436.9,320.26L442.04,323.59L447.18,340.8L452.32,303.41L457.46,305.33L462.6,313.76L467.74,317.81L472.88,318.6L478.02,322.82L483.16,341.38L488.3,304.46L493.44,307.51L498.58,315.27L503.72,318.35L508.86,318.54L514,323.17" style="vector-effect: non-scaling-stroke; fill: none; stroke: rgb(8, 69, 148); stroke-opacity: 1; stroke-width: 2px; opacity: 1;"/></g><g class="points"/><g class="text"/></g><g class="trace scatter trace98e46b" style="stroke-miterlimit: 2; opacity: 1;"><g class="fills"/><g class="errorbars"/><g class="lines"><path class="js-line" d="M0,50.5L5.14,90.09L10.28,111.21L15.42,154.44L20.56,159.92L25.7,110.84L30.84,102.63L35.98,120.86L41.12,86.73L46.26,160.6L51.4,161.57L56.54,184.23L61.68,153.78L66.82,143.24L71.96,166.77L77.1,199.59L82.24,214.75L87.38,198.72L92.52,194.44L97.66,230.2L102.8,94.24L107.94,195.03L113.08,211.51L123.36,243.13L128.5,249.86L133.64,247.45L138.78,221.73L143.92,209.41L149.06,237.85L154.2,246.22L159.34,264.08L164.48,257.84L169.62,244.54L174.76,240.03L179.9,251.95L185.04,258.18L190.18,262.16L195.32,281.23L200.46,294.33L205.6,245.82L210.74,245.75L215.88,262.66L221.02,264.74L226.16,272.66L231.3,266.06L236.44,275.19L241.58,269.6L246.72,241.64L251.86,243.01L257,256.02L262.14,262.05L267.28,278.53L272.42,282.87L277.56,246.2L282.7,251.16L287.84,262.09L292.98,266.58L298.12,267.57L303.26,280.02L308.4,277.1L313.54,245.07L318.68,243.11L323.82,251.57L328.96,254.59L334.1,256.47L339.24,271.71L344.38,263.44L349.52,223.09L354.66,223.5L359.8,230.28L364.94,258.97L370.08,233.04L375.22,259.56L380.36,256.74L385.5,206.75L390.64,201.65L395.78,220.52L400.92,221.45L406.06,213.61L411.2,256.72L416.34,235.01L421.48,184.05L426.62,169.08L431.76,215.81L436.9,203.96L442.04,192.93L447.18,233.06L452.32,225.99L457.46,180.21L462.6,121.9L467.74,238.33L472.88,176.78L478.02,175.51L483.16,210.38L488.3,214.7L493.44,124.39L498.58,172.76L503.72,171.73L508.86,161.71L514,211.64" style="vector-effect: non-scaling-stroke; fill: none; stroke: rgb(33, 113, 181); stroke-opacity: 1; stroke-width: 2px; opacity: 1;"/></g><g class="points"/><g class="text"/></g><g class="trace scatter trace9f6fcb" style="stroke-miterlimit: 2; opacity: 1;"><g class="fills"/><g class="errorbars"/><g class="lines"><path class="js-line" d="M0,155.33L5.14,234.75L10.28,294.4L15.42,304.63L20.56,233.82L25.7,193.31L30.84,166.59L35.98,222.71L41.12,241.83L46.26,294.62L51.4,307.58L61.68,172.39L66.82,224.19L71.96,217.25L77.1,244.56L82.24,293.11L87.38,305.33L92.52,216L97.66,161.09L102.8,185.55L107.94,169.82L113.08,217.17L118.22,283.75L123.36,294.71L128.5,205.39L133.64,137.8L138.78,190.9L143.92,164.65L149.06,173.3L154.2,285.36L159.34,299.99L164.48,168.96L169.62,76.53L174.76,161.27L179.9,70.94L185.04,167.42L190.18,288.17L195.32,302.31L200.46,231.82L205.6,24.51L210.74,110.51L215.88,30.3L221.02,114.96L226.16,289.9L231.3,305.93L236.44,97.32L241.58,18.85L246.72,111.82L251.86,87.26L257,156.31L262.14,302.88L267.28,316.59L272.42,67.85L277.56,54.93L282.7,151.72L287.84,104.35L292.98,190.21L298.12,322.51L303.26,330.71L308.4,172.47L313.54,96.93L318.68,204.76L323.82,197.06L328.96,240.41L334.1,324.89L339.24,346.21L344.38,278.3L349.52,258.21L354.66,259.15L359.8,218.23L364.94,190.9L370.08,346.47L375.22,347.16L380.36,261.13L385.5,214.89L390.64,282.98L395.78,268.82L400.92,177.01L406.06,337.97L411.2,350.89L416.34,254.62L421.48,219.71L426.62,285.05L431.76,268.49L436.9,119.49L442.04,348.98L447.18,350.96L452.32,266.35L457.46,211.52L462.6,270.2L467.74,256.85L472.88,93.86L478.02,347.17L483.16,350.07L488.3,238.19L493.44,174.88L498.58,258.43L503.72,235.82L508.86,81.76L514,346.42" style="vector-effect: non-scaling-stroke; fill: none; stroke: rgb(66, 146, 198); stroke-opacity: 1; stroke-width: 2px; opacity: 1;"/></g><g class="points"/><g class="text"/></g><g class="trace scatter traceebeff6" style="stroke-miterlimit: 2; opacity: 1;"><g class="fills"/><g class="errorbars"/><g class="lines"><path class="js-line" d="M0,238.8L5.14,262.39L10.28,346.72L15.42,340.51L20.56,271.42L25.7,281.23L30.84,238.83L35.98,237.68L41.12,302.03L46.26,348.43L51.4,347.1L56.54,329.42L61.68,259.48L66.82,261.86L71.96,271.43L77.1,278.23L82.24,340.22L87.38,348.73L92.52,302.17L97.66,287.72L102.8,278.14L107.94,288.39L113.08,311.73L118.22,343.65L123.36,351.73L128.5,314.43L133.64,294.23L138.78,279.36L143.92,290.74L149.06,289.31L154.2,348.48L159.34,351.92L164.48,322.21L169.62,303.85L174.76,289.74L179.9,283.08L185.04,330.52L190.18,348.92L195.32,353.32L200.46,324.22L205.6,312.43L210.74,298.16L215.88,304.88L221.02,307.79L226.16,351.33L231.3,352.08L236.44,339.81L241.58,305.21L246.72,305.09L251.86,301.88L257,333.21L262.14,350.82L267.28,351.5L272.42,327.94L277.56,319.4L282.7,309.3L287.84,306.33L292.98,321.06L298.12,353.02L303.26,350.5L308.4,327.53L313.54,318.38L318.68,301.45L323.82,306.46L328.96,331.58L334.1,350.37L339.24,353.38L344.38,323.44L349.52,316.43L354.66,299.22L359.8,298.19L370.08,353.92L375.22,352.15L380.36,324.12L385.5,331.8L390.64,281.7L395.78,301.49L400.92,345.31L406.06,353.51L411.2,355.84L416.34,317.1L421.48,309.04L426.62,292.41L431.76,312.99L436.9,313.38L442.04,353.74L447.18,354.86L452.32,320.98L457.46,309.14L462.6,270.28L467.74,344.03L472.88,339.36L478.02,355.47L483.16,354.06L488.3,311.35L493.44,301.2L498.58,272.64L503.72,254.26L508.86,326.69L514,352.36" style="vector-effect: non-scaling-stroke; fill: none; stroke: rgb(107, 174, 214); stroke-opacity: 1; stroke-width: 2px; opacity: 1;"/></g><g class="points"/><g class="text"/></g></g></g><g class="overplot"/><path class="xlines-above crisp" d="M0,0" style="fill: none;"/><path class="ylines-above crisp" d="M0,0" style="fill: none;"/><g class="overlines-above"/><g class="xaxislayer-above"><g class="xtick"><text text-anchor="middle" x="0" y="440" transform="translate(72.42,0)" style="font-family: 'Open Sans', verdana, arial, sans-serif; font-size: 12px; fill: rgb(68, 68, 68); fill-opacity: 1; white-space: pre; opacity: 1;"><tspan class="line" dy="0em" x="0" y="440">Aug 28</tspan><tspan class="line" dy="1.3em" x="0" y="440">2022</tspan></text></g><g class="xtick"><text text-anchor="middle" x="0" y="440" style="font-family: 'Open Sans', verdana, arial, sans-serif; font-size: 12px; fill: rgb(68, 68, 68); fill-opacity: 1; white-space: pre; opacity: 1;" transform="translate(144.38,0)">Sep 11</text></g><g class="xtick"><text text-anchor="middle" x="0" y="440" style="font-family: 'Open Sans', verdana, arial, sans-serif; font-size: 12px; fill: rgb(68, 68, 68); fill-opacity: 1; white-space: pre; opacity: 1;" transform="translate(216.34,0)">Sep 25</text></g><g class="xtick"><text text-anchor="middle" x="0" y="440" style="font-family: 'Open Sans', verdana, arial, sans-serif; font-size: 12px; fill: rgb(68, 68, 68); fill-opacity: 1; white-space: pre; opacity: 1;" transform="translate(288.3,0)">Oct 9</text></g><g class="xtick"><text text-anchor="middle" x="0" y="440" style="font-family: 'Open Sans', verdana, arial, sans-serif; font-size: 12px; fill: rgb(68, 68, 68); fill-opacity: 1; white-space: pre; opacity: 1;" transform="translate(360.26,0)">Oct 23</text></g><g class="xtick"><text text-anchor="middle" x="0" y="440" style="font-family: 'Open Sans', verdana, arial, sans-serif; font-size: 12px; fill: rgb(68, 68, 68); fill-opacity: 1; white-space: pre; opacity: 1;" transform="translate(432.22,0)">Nov 6</text></g><g class="xtick"><text text-anchor="middle" x="0" y="440" style="font-family: 'Open Sans', verdana, arial, sans-serif; font-size: 12px; fill: rgb(68, 68, 68); fill-opacity: 1; white-space: pre; opacity: 1;" transform="translate(504.18,0)">Nov 20</text></g></g><g class="yaxislayer-above"><g class="ytick"><text text-anchor="end" x="56" y="4.199999999999999" transform="translate(0,408.15)" style="font-family: 'Open Sans', verdana, arial, sans-serif; font-size: 12px; fill: rgb(68, 68, 68); fill-opacity: 1; white-space: pre; opacity: 1;">0</text></g><g class="ytick"><text text-anchor="end" x="56" y="4.199999999999999" style="font-family: 'Open Sans', verdana, arial, sans-serif; font-size: 12px; fill: rgb(68, 68, 68); fill-opacity: 1; white-space: pre; opacity: 1;" transform="translate(0,333.03)">100k</text></g><g class="ytick"><text text-anchor="end" x="56" y="4.199999999999999" style="font-family: 'Open Sans', verdana, arial, sans-serif; font-size: 12px; fill: rgb(68, 68, 68); fill-opacity: 1; white-space: pre; opacity: 1;" transform="translate(0,257.91999999999996)">200k</text></g><g class="ytick"><text text-anchor="end" x="56" y="4.199999999999999" style="font-family: 'Open Sans', verdana, arial, sans-serif; font-size: 12px; fill: rgb(68, 68, 68); fill-opacity: 1; white-space: pre; opacity: 1;" transform="translate(0,182.8)">300k</text></g><g class="ytick"><text text-anchor="end" x="56" y="4.199999999999999" style="font-family: 'Open Sans', verdana, arial, sans-serif; font-size: 12px; fill: rgb(68, 68, 68); fill-opacity: 1; white-space: pre; opacity: 1;" transform="translate(0,107.68)">400k</text></g></g><g class="overaxes-above"/></g></g><g class="polarlayer"/><g class="ternarylayer"/><g class="geolayer"/><g class="funnelarealayer"/><g class="pielayer"/><g class="iciclelayer"/><g class="treemaplayer"/><g class="sunburstlayer"/><g class="glimages"/><defs id="topdefs-5ace68"><g class="clips"/><clipPath id="legend5ace68"><rect width="69" height="67" x="2" y="2"/></clipPath></defs><g class="layer-above"><g class="imagelayer"/><g class="shapelayer"/></g><g class="infolayer"><g class="legend" pointer-events="all" transform="translate(472.29999999999995,68.85000000000002)"><rect class="bg" shape-rendering="crispEdges" width="71" height="69" x="1" y="1" style="stroke: rgb(128, 128, 128); stroke-opacity: 1; fill: rgb(255, 255, 255); fill-opacity: 1; stroke-width: 2px;"/><g class="scrollbox" transform="" clip-path="url(#legend5ace68)"><g class="groups"><g class="traces" transform="translate(2,16.5)" style="opacity: 1;"><text class="legendtext" text-anchor="start" x="40" y="4.680000000000001" style="font-family: 'Open Sans', verdana, arial, sans-serif; font-size: 12px; fill: rgb(68, 68, 68); fill-opacity: 1; white-space: pre;">한국</text><g class="layers" style="opacity: 1;"><g class="legendfill"/><g class="legendlines"><path class="js-line" d="M5,0h30" style="fill: none; stroke: rgb(8, 69, 148); stroke-opacity: 1; stroke-width: 2px;"/></g><g class="legendsymbols"><g class="legendpoints"/></g></g><rect class="legendtoggle" x="0" y="-9.5" width="63.984375" height="19" style="fill: rgb(0, 0, 0); fill-opacity: 0;"/></g><g class="traces" transform="translate(2,35.5)" style="opacity: 1;"><text class="legendtext" text-anchor="start" x="40" y="4.680000000000001" style="font-family: 'Open Sans', verdana, arial, sans-serif; font-size: 12px; fill: rgb(68, 68, 68); fill-opacity: 1; white-space: pre;">유럽</text><g class="layers" style="opacity: 1;"><g class="legendfill"/><g class="legendlines"><path class="js-line" d="M5,0h30" style="fill: none; stroke: rgb(66, 146, 198); stroke-opacity: 1; stroke-width: 2px;"/></g><g class="legendsymbols"><g class="legendpoints"/></g></g><rect class="legendtoggle" x="0" y="-9.5" width="63.984375" height="19" style="fill: rgb(0, 0, 0); fill-opacity: 0;"/></g><g class="traces" transform="translate(2,54.5)" style="opacity: 1;"><text class="legendtext" text-anchor="start" x="40" y="4.680000000000001" style="font-family: 'Open Sans', verdana, arial, sans-serif; font-size: 12px; fill: rgb(68, 68, 68); fill-opacity: 1; white-space: pre;">북미</text><g class="layers" style="opacity: 1;"><g class="legendfill"/><g class="legendlines"><path class="js-line" d="M5,0h30" style="fill: none; stroke: rgb(107, 174, 214); stroke-opacity: 1; stroke-width: 2px;"/></g><g class="legendsymbols"><g class="legendpoints"/></g></g><rect class="legendtoggle" x="0" y="-9.5" width="63.984375" height="19" style="fill: rgb(0, 0, 0); fill-opacity: 0;"/></g></g></g><rect class="scrollbar" rx="20" ry="3" width="0" height="0" x="0" y="0" style="fill: rgb(128, 139, 164); fill-opacity: 1;"/></g><g class="g-gtitle"><text class="gtitle" x="298.182" y="25" text-anchor="middle" dy="0.7em" style="font-family: 'Open Sans', verdana, arial, sans-serif; font-size: 17px; fill: rgb(68, 68, 68); opacity: 1; font-weight: normal; white-space: pre;">대륙별 신규 확진자수 추이</text></g><g class="g-xtitle"><text class="xtitle" x="314" y="479" text-anchor="middle" style="font-family: 'Open Sans', verdana, arial, sans-serif; font-size: 14px; fill: rgb(68, 68, 68); opacity: 1; font-weight: normal; white-space: pre;">date</text></g><g class="g-ytitle"><text class="ytitle" transform="rotate(-90,19,238.5)" x="19" y="238.5" text-anchor="middle" style="font-family: 'Open Sans', verdana, arial, sans-serif; font-size: 14px; fill: rgb(68, 68, 68); opacity: 1; font-weight: normal; white-space: pre;">확진자_한국</text></g></g></svg>