<svg class="main-svg" xmlns="http://www.w3.org/2000/svg" xmlns:xlink="http://www.w3.org/1999/xlink" width="596.364" height="483.636" style="" viewBox="0 0 596.364 483.636"><rect x="0" y="0" width="596.364" height="483.636" style="fill: rgb(255, 255, 255); fill-opacity: 1;"/><defs id="defs-325ae8"><g class="clips"><clipPath id="clip325ae8xyplot" class="plotclip"><rect width="516" height="377"/></clipPath><clipPath class="axesclip" id="clip325ae8x"><rect x="55" y="0" width="516" height="483.636"/></clipPath><clipPath class="axesclip" id="clip325ae8y"><rect x="0" y="50" width="596.364" height="377"/></clipPath><clipPath class="axesclip" id="clip325ae8xy"><rect x="55" y="50" width="516" height="377"/></clipPath></g><g class="gradients"/><g class="patterns"/></defs><g class="bglayer"/><g class="layer-below"><g class="imagelayer"/><g class="shapelayer"/></g><g class="cartesianlayer"><g class="subplot xy"><g class="layer-subplot"><g class="shapelayer"/><g class="imagelayer"/></g><g class="gridlayer"><g class="x"><path class="xgrid crisp" transform="translate(70.48,0)" d="M0,50v377" style="stroke: rgb(238, 238, 238); stroke-opacity: 1; stroke-width: 1px;"/><path class="xgrid crisp" transform="translate(142.72,0)" d="M0,50v377" style="stroke: rgb(238, 238, 238); stroke-opacity: 1; stroke-width: 1px;"/><path class="xgrid crisp" transform="translate(214.96,0)" d="M0,50v377" style="stroke: rgb(238, 238, 238); stroke-opacity: 1; stroke-width: 1px;"/><path class="xgrid crisp" transform="translate(287.2,0)" d="M0,50v377" style="stroke: rgb(238, 238, 238); stroke-opacity: 1; stroke-width: 1px;"/><path class="xgrid crisp" transform="translate(359.44,0)" d="M0,50v377" style="stroke: rgb(238, 238, 238); stroke-opacity: 1; stroke-width: 1px;"/><path class="xgrid crisp" transform="translate(431.68,0)" d="M0,50v377" style="stroke: rgb(238, 238, 238); stroke-opacity: 1; stroke-width: 1px;"/><path class="xgrid crisp" transform="translate(503.92,0)" d="M0,50v377" style="stroke: rgb(238, 238, 238); stroke-opacity: 1; stroke-width: 1px;"/></g><g class="y"><path class="ygrid crisp" transform="translate(0,333.03)" d="M55,0h516" style="stroke: rgb(238, 238, 238); stroke-opacity: 1; stroke-width: 1px;"/><path class="ygrid crisp" transform="translate(0,257.91999999999996)" d="M55,0h516" style="stroke: rgb(238, 238, 238); stroke-opacity: 1; stroke-width: 1px;"/><path class="ygrid crisp" transform="translate(0,182.8)" d="M55,0h516" style="stroke: rgb(238, 238, 238); stroke-opacity: 1; stroke-width: 1px;"/><path class="ygrid crisp" transform="translate(0,107.68)" d="M55,0h516" style="stroke: rgb(238, 238, 238); stroke-opacity: 1; stroke-width: 1px;"/></g></g><g class="zerolinelayer"><path class="yzl zl crisp" transform="translate(0,408.15)" d="M55,0h516" style="stroke: rgb(68, 68, 68); stroke-opacity: 1; stroke-width: 1px;"/></g><path class="xlines-below"/><path class="ylines-below"/><g class="overlines-below"/><g class="xaxislayer-below"/><g class="yaxislayer-below"/><g class="overaxes-below"/><g class="plot" transform="translate(55,50)" clip-path="url(#clip325ae8xyplot)"><g class="scatterlayer mlayer"><g class="trace scatter tracec20e92" style="stroke-miterlimit: 2; opacity: 1;"><g class="fills"/><g class="errorbars"/><g class="lines"><path class="js-line" d="M0,282.23L5.16,286.39L10.32,294.08L15.48,325.74L20.64,271.38L25.8,280.09L30.96,296.93L36.12,290.9L41.28,298.34L46.44,303.96L51.6,329.95L56.76,283.23L61.92,293.94L67.08,303.62L72.24,306.03L77.4,326.06L82.56,336.96L87.72,330.4L92.88,315.1L98.04,358.15L103.2,233.96L108.36,319.22L113.52,325.55L118.68,332.04L123.84,343.57L129,322.2L134.16,327.18L139.32,333.38L144.48,336.31L149.64,336.13L154.8,338.78L159.96,347.51L165.12,328.58L170.28,331.01L175.44,334.98L190.92,340.42L196.08,349.02L201.24,345.81L206.4,332.08L216.72,341.43L221.88,343.59L227.04,344.89L232.2,351.4L237.36,346.52L242.52,335.24L252.84,340.45L258,341.06L263.16,342.02L268.32,349.86L273.48,333.22L278.64,336L283.8,339.09L288.96,339.59L294.12,338L299.28,338.43L304.44,347.41L309.6,325.31L314.76,327.5L319.92,331.9L330.24,330.13L335.4,332.23L340.56,344.25L345.72,314.31L350.88,317.03L356.04,322.94L371.52,330.6L376.68,344.12L381.84,311.37L387,311.22L392.16,316.56L397.32,317.2L402.48,317.42L407.64,321.74L412.8,340.3L417.96,303.4L423.12,308.13L428.28,316.51L433.44,321.03L438.6,320.26L443.76,323.59L448.92,340.8L454.08,303.41L459.24,305.33L464.4,313.76L469.56,317.81L474.72,318.6L479.88,322.82L485.04,341.38L490.2,304.46L495.36,307.51L500.52,315.27L505.68,318.35L510.84,318.54L516,323.17" style="vector-effect: non-scaling-stroke; fill: none; stroke: rgb(8, 69, 148); stroke-opacity: 1; stroke-width: 2px; opacity: 1;"/></g><g class="points"/><g class="text"/></g><g class="trace scatter tracef3466f" style="stroke-miterlimit: 2; opacity: 1;"><g class="fills"/><g class="errorbars"/><g class="lines"><path class="js-line" d="M0,50.5L5.16,90.09L10.32,111.21L15.48,154.44L20.64,159.92L25.8,110.84L30.96,102.63L36.12,120.86L41.28,86.73L46.44,160.6L51.6,161.57L56.76,184.23L61.92,153.78L67.08,143.24L72.24,166.77L77.4,199.59L82.56,214.75L87.72,198.72L92.88,194.44L98.04,230.2L103.2,94.24L108.36,195.03L113.52,211.51L123.84,243.13L129,249.86L134.16,247.45L139.32,221.73L144.48,209.41L149.64,237.85L154.8,246.22L159.96,264.08L165.12,257.84L170.28,244.54L175.44,240.03L180.6,251.95L185.76,258.18L190.92,262.16L196.08,281.23L201.24,294.33L206.4,245.82L211.56,245.75L216.72,262.66L221.88,264.74L227.04,272.66L232.2,266.06L237.36,275.19L242.52,269.6L247.68,241.64L252.84,243.01L258,256.02L263.16,262.05L268.32,278.53L273.48,282.87L278.64,246.2L283.8,251.16L288.96,262.09L294.12,266.58L299.28,267.57L304.44,280.02L309.6,277.1L314.76,245.07L319.92,243.11L325.08,251.57L330.24,254.59L335.4,256.47L340.56,271.71L345.72,263.44L350.88,223.09L356.04,223.5L361.2,230.28L366.36,258.97L371.52,233.04L376.68,259.56L381.84,256.74L387,206.75L392.16,201.65L397.32,220.52L402.48,221.45L407.64,213.61L412.8,256.72L417.96,235.01L423.12,184.05L428.28,169.08L433.44,215.81L438.6,203.96L443.76,192.93L448.92,233.06L454.08,225.99L459.24,180.21L464.4,121.9L469.56,238.33L474.72,176.78L479.88,175.51L485.04,210.38L490.2,214.7L495.36,124.39L500.52,172.76L505.68,171.73L510.84,161.71L516,211.64" style="vector-effect: non-scaling-stroke; fill: none; stroke: rgb(33, 113, 181); stroke-opacity: 1; stroke-width: 2px; opacity: 1;"/></g><g class="points"/><g class="text"/></g><g class="trace scatter trace0bd56f" style="stroke-miterlimit: 2; opacity: 1;"><g class="fills"/><g class="errorbars"/><g class="lines"><path class="js-line" d="M0,155.33L5.16,234.75L10.32,294.4L15.48,304.63L20.64,233.82L25.8,193.31L30.96,166.59L36.12,222.71L41.28,241.83L46.44,294.62L51.6,307.58L61.92,172.39L67.08,224.19L72.24,217.25L77.4,244.56L82.56,293.11L87.72,305.33L92.88,216L98.04,161.09L103.2,185.55L108.36,169.82L113.52,217.17L118.68,283.75L123.84,294.71L129,205.39L134.16,137.8L139.32,190.9L144.48,164.65L149.64,173.3L154.8,285.36L159.96,299.99L165.12,168.96L170.28,76.53L175.44,161.27L180.6,70.94L185.76,167.42L190.92,288.17L196.08,302.31L201.24,231.82L206.4,24.51L211.56,110.51L216.72,30.3L221.88,114.96L227.04,289.9L232.2,305.93L237.36,97.32L242.52,18.85L247.68,111.82L252.84,87.26L258,156.31L263.16,302.88L268.32,316.59L273.48,67.85L278.64,54.93L283.8,151.72L288.96,104.35L294.12,190.21L299.28,322.51L304.44,330.71L309.6,172.47L314.76,96.93L319.92,204.76L325.08,197.06L330.24,240.41L335.4,324.89L340.56,346.21L345.72,278.3L350.88,258.21L356.04,259.15L361.2,218.23L366.36,190.9L371.52,346.47L376.68,347.16L381.84,261.13L387,214.89L392.16,282.98L397.32,268.82L402.48,177.01L407.64,337.97L412.8,350.89L417.96,254.62L423.12,219.71L428.28,285.05L433.44,268.49L438.6,119.49L443.76,348.98L448.92,350.96L454.08,266.35L459.24,211.52L464.4,270.2L469.56,256.85L474.72,93.86L479.88,347.17L485.04,350.07L490.2,238.19L495.36,174.88L500.52,258.43L505.68,235.82L510.84,81.76L516,346.42" style="vector-effect: non-scaling-stroke; fill: none; stroke: rgb(66, 146, 198); stroke-opacity: 1; stroke-width: 2px; opacity: 1;"/></g><g class="points"/><g class="text"/></g><g class="trace scatter trace3545bc" style="stroke-miterlimit: 2; opacity: 1;"><g class="fills"/><g class="errorbars"/><g class="lines"><path class="js-line" d="M0,238.8L5.16,262.39L10.32,346.72L15.48,340.51L20.64,271.42L25.8,281.23L30.96,238.83L36.12,237.68L41.28,302.03L46.44,348.43L51.6,347.1L56.76,329.42L61.92,259.48L67.08,261.86L72.24,271.43L77.4,278.23L82.56,340.22L87.72,348.73L92.88,302.17L98.04,287.72L103.2,278.14L108.36,288.39L113.52,311.73L118.68,343.65L123.84,351.73L129,314.43L134.16,294.23L139.32,279.36L144.48,290.74L149.64,289.31L154.8,348.48L159.96,351.92L165.12,322.21L170.28,303.85L175.44,289.74L180.6,283.08L185.76,330.52L190.92,348.92L196.08,353.32L201.24,324.22L206.4,312.43L211.56,298.16L216.72,304.88L221.88,307.79L227.04,351.33L232.2,352.08L237.36,339.81L242.52,305.21L247.68,305.09L252.84,301.88L258,333.21L263.16,350.82L268.32,351.5L273.48,327.94L278.64,319.4L283.8,309.3L288.96,306.33L294.12,321.06L299.28,353.02L304.44,350.5L309.6,327.53L314.76,318.38L319.92,301.45L325.08,306.46L330.24,331.58L335.4,350.37L340.56,353.38L345.72,323.44L350.88,316.43L356.04,299.22L361.2,298.19L371.52,353.92L376.68,352.15L381.84,324.12L387,331.8L392.16,281.7L397.32,301.49L402.48,345.31L407.64,353.51L412.8,355.84L417.96,317.1L423.12,309.04L428.28,292.41L433.44,312.99L438.6,313.38L443.76,353.74L448.92,354.86L454.08,320.98L459.24,309.14L464.4,270.28L469.56,344.03L474.72,339.36L479.88,355.47L485.04,354.06L490.2,311.35L495.36,301.2L500.52,272.64L505.68,254.26L510.84,326.69L516,352.36" style="vector-effect: non-scaling-stroke; fill: none; stroke: rgb(107, 174, 214); stroke-opacity: 1; stroke-width: 2px; opacity: 1;"/></g><g class="points"/><g class="text"/></g></g></g><g class="overplot"/><path class="xlines-above crisp" d="M0,0" style="fill: none;"/><path class="ylines-above crisp" d="M0,0" style="fill: none;"/><g class="overlines-above"/><g class="xaxislayer-above"><g class="xtick"><text text-anchor="middle" x="0" y="440" transform="translate(70.48,0)" style="font-family: 나눔고딕; font-size: 12px; fill: rgb(25, 25, 112); fill-opacity: 1; white-space: pre; opacity: 1;"><tspan class="line" dy="0em" x="0" y="440">Aug 28</tspan><tspan class="line" dy="1.3em" x="0" y="440">2022</tspan></text></g><g class="xtick"><text text-anchor="middle" x="0" y="440" style="font-family: 나눔고딕; font-size: 12px; fill: rgb(25, 25, 112); fill-opacity: 1; white-space: pre; opacity: 1;" transform="translate(142.72,0)">Sep 11</text></g><g class="xtick"><text text-anchor="middle" x="0" y="440" style="font-family: 나눔고딕; font-size: 12px; fill: rgb(25, 25, 112); fill-opacity: 1; white-space: pre; opacity: 1;" transform="translate(214.96,0)">Sep 25</text></g><g class="xtick"><text text-anchor="middle" x="0" y="440" style="font-family: 나눔고딕; font-size: 12px; fill: rgb(25, 25, 112); fill-opacity: 1; white-space: pre; opacity: 1;" transform="translate(287.2,0)">Oct 9</text></g><g class="xtick"><text text-anchor="middle" x="0" y="440" style="font-family: 나눔고딕; font-size: 12px; fill: rgb(25, 25, 112); fill-opacity: 1; white-space: pre; opacity: 1;" transform="translate(359.44,0)">Oct 23</text></g><g class="xtick"><text text-anchor="middle" x="0" y="440" style="font-family: 나눔고딕; font-size: 12px; fill: rgb(25, 25, 112); fill-opacity: 1; white-space: pre; opacity: 1;" transform="translate(431.68,0)">Nov 6</text></g><g class="xtick"><text text-anchor="middle" x="0" y="440" style="font-family: 나눔고딕; font-size: 12px; fill: rgb(25, 25, 112); fill-opacity: 1; white-space: pre; opacity: 1;" transform="translate(503.92,0)">Nov 20</text></g></g><g class="yaxislayer-above"><g class="ytick"><text text-anchor="end" x="54" y="4.199999999999999" transform="translate(0,408.15)" style="font-family: 나눔고딕; font-size: 12px; fill: rgb(25, 25, 112); fill-opacity: 1; white-space: pre; opacity: 1;">0</text></g><g class="ytick"><text text-anchor="end" x="54" y="4.199999999999999" style="font-family: 나눔고딕; font-size: 12px; fill: rgb(25, 25, 112); fill-opacity: 1; white-space: pre; opacity: 1;" transform="translate(0,333.03)">100k</text></g><g class="ytick"><text text-anchor="end" x="54" y="4.199999999999999" style="font-family: 나눔고딕; font-size: 12px; fill: rgb(25, 25, 112); fill-opacity: 1; white-space: pre; opacity: 1;" transform="translate(0,257.91999999999996)">200k</text></g><g class="ytick"><text text-anchor="end" x="54" y="4.199999999999999" style="font-family: 나눔고딕; font-size: 12px; fill: rgb(25, 25, 112); fill-opacity: 1; white-space: pre; opacity: 1;" transform="translate(0,182.8)">300k</text></g><g class="ytick"><text text-anchor="end" x="54" y="4.199999999999999" style="font-family: 나눔고딕; font-size: 12px; fill: rgb(25, 25, 112); fill-opacity: 1; white-space: pre; opacity: 1;" transform="translate(0,107.68)">400k</text></g></g><g class="overaxes-above"/></g></g><g class="polarlayer"/><g class="ternarylayer"/><g class="geolayer"/><g class="funnelarealayer"/><g class="pielayer"/><g class="iciclelayer"/><g class="treemaplayer"/><g class="sunburstlayer"/><g class="glimages"/><defs id="topdefs-325ae8"><g class="clips"/><clipPath id="legend325ae8"><rect width="69" height="67" x="2" y="2"/></clipPath></defs><g class="layer-above"><g class="imagelayer"/><g class="shapelayer"/></g><g class="infolayer"><g class="legend" pointer-events="all" transform="translate(472.20000000000005,68.85000000000002)"><rect class="bg" shape-rendering="crispEdges" width="71" height="69" x="1" y="1" style="stroke: rgb(128, 128, 128); stroke-opacity: 1; fill: rgb(255, 255, 255); fill-opacity: 1; stroke-width: 2px;"/><g class="scrollbox" transform="" clip-path="url(#legend325ae8)"><g class="groups"><g class="traces" transform="translate(2,16.5)" style="opacity: 1;"><text class="legendtext" text-anchor="start" x="40" y="4.680000000000001" style="font-family: 나눔고딕; font-size: 12px; fill: rgb(25, 25, 112); fill-opacity: 1; white-space: pre;">한국</text><g class="layers" style="opacity: 1;"><g class="legendfill"/><g class="legendlines"><path class="js-line" d="M5,0h30" style="fill: none; stroke: rgb(8, 69, 148); stroke-opacity: 1; stroke-width: 2px;"/></g><g class="legendsymbols"><g class="legendpoints"/></g></g><rect class="legendtoggle" x="0" y="-9.5" width="63.09392738342285" height="19" style="fill: rgb(0, 0, 0); fill-opacity: 0;"/></g><g class="traces" transform="translate(2,35.5)" style="opacity: 1;"><text class="legendtext" text-anchor="start" x="40" y="4.680000000000001" style="font-family: 나눔고딕; font-size: 12px; fill: rgb(25, 25, 112); fill-opacity: 1; white-space: pre;">유럽</text><g class="layers" style="opacity: 1;"><g class="legendfill"/><g class="legendlines"><path class="js-line" d="M5,0h30" style="fill: none; stroke: rgb(66, 146, 198); stroke-opacity: 1; stroke-width: 2px;"/></g><g class="legendsymbols"><g class="legendpoints"/></g></g><rect class="legendtoggle" x="0" y="-9.5" width="63.09392738342285" height="19" style="fill: rgb(0, 0, 0); fill-opacity: 0;"/></g><g class="traces" transform="translate(2,54.5)" style="opacity: 1;"><text class="legendtext" text-anchor="start" x="40" y="4.680000000000001" style="font-family: 나눔고딕; font-size: 12px; fill: rgb(25, 25, 112); fill-opacity: 1; white-space: pre;">북미</text><g class="layers" style="opacity: 1;"><g class="legendfill"/><g class="legendlines"><path class="js-line" d="M5,0h30" style="fill: none; stroke: rgb(107, 174, 214); stroke-opacity: 1; stroke-width: 2px;"/></g><g class="legendsymbols"><g class="legendpoints"/></g></g><rect class="legendtoggle" x="0" y="-9.5" width="63.09392738342285" height="19" style="fill: rgb(0, 0, 0); fill-opacity: 0;"/></g></g></g><rect class="scrollbar" rx="20" ry="3" width="0" height="0" x="0" y="0" style="fill: rgb(128, 139, 164); fill-opacity: 1;"/></g><g class="g-gtitle"><text class="gtitle" x="298.182" y="25" text-anchor="middle" dy="0.7em" style="font-family: 나눔고딕; font-size: 17px; fill: rgb(25, 25, 112); opacity: 1; font-weight: normal; white-space: pre;">대륙별 신규 확진자수 추이</text></g><g class="g-xtitle"><text class="xtitle" x="313" y="479" text-anchor="middle" style="font-family: 나눔고딕; font-size: 14px; fill: rgb(25, 25, 112); opacity: 1; font-weight: normal; white-space: pre;">date</text></g><g class="g-ytitle"><text class="ytitle" transform="rotate(-90,17,238.5)" x="17" y="238.5" text-anchor="middle" style="font-family: 나눔고딕; font-size: 14px; fill: rgb(25, 25, 112); opacity: 1; font-weight: normal; white-space: pre;">확진자_한국</text></g></g></svg>