<svg class="main-svg" xmlns="http://www.w3.org/2000/svg" xmlns:xlink="http://www.w3.org/1999/xlink" width="596.364" height="483.636" style="" viewBox="0 0 596.364 483.636"><rect x="0" y="0" width="596.364" height="483.636" style="fill: rgb(255, 255, 255); fill-opacity: 1;"/><defs id="defs-935bd7"><g class="clips"><clipPath id="clip935bd7xyplot" class="plotclip"><rect width="514" height="377"/></clipPath><clipPath class="axesclip" id="clip935bd7x"><rect x="57" y="0" width="514" height="483.636"/></clipPath><clipPath class="axesclip" id="clip935bd7y"><rect x="0" y="50" width="596.364" height="377"/></clipPath><clipPath class="axesclip" id="clip935bd7xy"><rect x="57" y="50" width="514" height="377"/></clipPath></g><g class="gradients"/><g class="patterns"/></defs><g class="bglayer"/><g class="layer-below"><g class="imagelayer"/><g class="shapelayer"/></g><g class="cartesianlayer"><g class="subplot xy"><g class="layer-subplot"><g class="shapelayer"/><g class="imagelayer"/></g><g class="gridlayer"><g class="x"/><g class="y"><path class="ygrid crisp" transform="translate(0,364.26)" d="M57,0h514" style="stroke: rgb(238, 238, 238); stroke-opacity: 1; stroke-width: 1px;"/><path class="ygrid crisp" transform="translate(0,324.13)" d="M57,0h514" style="stroke: rgb(238, 238, 238); stroke-opacity: 1; stroke-width: 1px;"/><path class="ygrid crisp" transform="translate(0,283.99)" d="M57,0h514" style="stroke: rgb(238, 238, 238); stroke-opacity: 1; stroke-width: 1px;"/><path class="ygrid crisp" transform="translate(0,243.85)" d="M57,0h514" style="stroke: rgb(238, 238, 238); stroke-opacity: 1; stroke-width: 1px;"/><path class="ygrid crisp" transform="translate(0,203.72)" d="M57,0h514" style="stroke: rgb(238, 238, 238); stroke-opacity: 1; stroke-width: 1px;"/><path class="ygrid crisp" transform="translate(0,163.57999999999998)" d="M57,0h514" style="stroke: rgb(238, 238, 238); stroke-opacity: 1; stroke-width: 1px;"/><path class="ygrid crisp" transform="translate(0,123.44)" d="M57,0h514" style="stroke: rgb(238, 238, 238); stroke-opacity: 1; stroke-width: 1px;"/><path class="ygrid crisp" transform="translate(0,83.31)" d="M57,0h514" style="stroke: rgb(238, 238, 238); stroke-opacity: 1; stroke-width: 1px;"/></g></g><g class="zerolinelayer"><path class="yzl zl crisp" transform="translate(0,404.4)" d="M57,0h514" style="stroke: rgb(68, 68, 68); stroke-opacity: 1; stroke-width: 1px;"/></g><path class="xlines-below"/><path class="ylines-below"/><g class="overlines-below"/><g class="xaxislayer-below"/><g class="yaxislayer-below"/><g class="overaxes-below"/><g class="plot" transform="translate(57,50)" clip-path="url(#clip935bd7xyplot)"><g class="scatterlayer mlayer"><g class="trace scatter trace3d049b" style="stroke-miterlimit: 2; opacity: 1;"><g class="fills"/><g class="errorbars"/><g class="lines"><path class="js-line" d="M29.45,151.58L34,162.67L38.55,183.23L43.1,267.82L47.65,122.57L52.2,145.85L56.76,190.85L61.31,174.73L65.86,194.61L70.41,209.62L74.96,279.05L79.51,154.25L84.06,182.85L88.61,208.71L93.16,215.15L97.71,268.66L102.27,297.78L106.82,280.27L111.37,239.39L115.92,354.4L120.47,22.6L125.02,250.38L129.57,267.3L134.12,284.63L138.67,315.45L143.22,258.35L147.78,271.66L152.33,288.23L156.88,296.04L161.43,295.57L165.98,302.64L170.53,325.97L175.08,275.4L179.63,281.9L184.18,292.5L188.73,297.27L193.29,300.39L197.84,307.05L202.39,330.02L206.94,321.44L211.49,284.74L220.59,309.73L225.14,315.51L229.69,318.97L234.24,336.38L238.8,323.34L243.35,293.19L252.45,307.12L257,308.73L261.55,311.32L266.1,332.24L270.65,287.79L275.2,295.23L279.76,303.49L284.31,304.81L288.86,300.57L293.41,301.71L297.96,325.7L302.51,266.67L307.06,272.51L311.61,284.26L316.16,282.38L320.71,279.55L325.27,285.14L329.82,317.25L334.37,237.29L338.92,244.55L343.47,260.34L348.02,267.26L352.57,272.4L357.12,280.8L361.67,316.93L366.22,229.43L370.78,229.03L375.33,243.29L379.88,244.99L384.43,245.58L388.98,257.14L393.53,306.71L398.08,208.14L402.63,220.77L407.18,243.15L411.73,255.23L416.29,253.19L420.84,262.06L425.39,308.06L429.94,208.16L434.49,213.27L439.04,235.82L443.59,246.64L448.14,248.74L452.69,260.02L457.24,309.59L461.8,210.96L466.35,219.11L470.9,239.85L475.45,248.06L480,248.59L484.55,260.95" style="vector-effect: non-scaling-stroke; fill: none; stroke: rgb(94, 136, 252); stroke-opacity: 1; stroke-width: 2px; opacity: 1; stroke-dasharray: 9px, 9px;"/></g><g class="points"><path class="point" transform="translate(29.45,151.58)" d="M3,0A3,3 0 1,1 0,-3A3,3 0 0,1 3,0Z" style="opacity: 1; stroke-width: 0px; fill: rgb(38, 78, 134); fill-opacity: 1;"/><path class="point" transform="translate(34,162.67)" d="M3,0A3,3 0 1,1 0,-3A3,3 0 0,1 3,0Z" style="opacity: 1; stroke-width: 0px; fill: rgb(38, 78, 134); fill-opacity: 1;"/><path class="point" transform="translate(38.55,183.23)" d="M3,0A3,3 0 1,1 0,-3A3,3 0 0,1 3,0Z" style="opacity: 1; stroke-width: 0px; fill: rgb(38, 78, 134); fill-opacity: 1;"/><path class="point" transform="translate(43.1,267.82)" d="M3,0A3,3 0 1,1 0,-3A3,3 0 0,1 3,0Z" style="opacity: 1; stroke-width: 0px; fill: rgb(38, 78, 134); fill-opacity: 1;"/><path class="point" transform="translate(47.65,122.57)" d="M3,0A3,3 0 1,1 0,-3A3,3 0 0,1 3,0Z" style="opacity: 1; stroke-width: 0px; fill: rgb(38, 78, 134); fill-opacity: 1;"/><path class="point" transform="translate(52.2,145.85)" d="M3,0A3,3 0 1,1 0,-3A3,3 0 0,1 3,0Z" style="opacity: 1; stroke-width: 0px; fill: rgb(38, 78, 134); fill-opacity: 1;"/><path class="point" transform="translate(56.76,190.85)" d="M3,0A3,3 0 1,1 0,-3A3,3 0 0,1 3,0Z" style="opacity: 1; stroke-width: 0px; fill: rgb(38, 78, 134); fill-opacity: 1;"/><path class="point" transform="translate(61.31,174.73)" d="M3,0A3,3 0 1,1 0,-3A3,3 0 0,1 3,0Z" style="opacity: 1; stroke-width: 0px; fill: rgb(38, 78, 134); fill-opacity: 1;"/><path class="point" transform="translate(65.86,194.61)" d="M3,0A3,3 0 1,1 0,-3A3,3 0 0,1 3,0Z" style="opacity: 1; stroke-width: 0px; fill: rgb(38, 78, 134); fill-opacity: 1;"/><path class="point" transform="translate(70.41,209.62)" d="M3,0A3,3 0 1,1 0,-3A3,3 0 0,1 3,0Z" style="opacity: 1; stroke-width: 0px; fill: rgb(38, 78, 134); fill-opacity: 1;"/><path class="point" transform="translate(74.96,279.05)" d="M3,0A3,3 0 1,1 0,-3A3,3 0 0,1 3,0Z" style="opacity: 1; stroke-width: 0px; fill: rgb(38, 78, 134); fill-opacity: 1;"/><path class="point" transform="translate(79.51,154.25)" d="M3,0A3,3 0 1,1 0,-3A3,3 0 0,1 3,0Z" style="opacity: 1; stroke-width: 0px; fill: rgb(38, 78, 134); fill-opacity: 1;"/><path class="point" transform="translate(84.06,182.85)" d="M3,0A3,3 0 1,1 0,-3A3,3 0 0,1 3,0Z" style="opacity: 1; stroke-width: 0px; fill: rgb(38, 78, 134); fill-opacity: 1;"/><path class="point" transform="translate(88.61,208.71)" d="M3,0A3,3 0 1,1 0,-3A3,3 0 0,1 3,0Z" style="opacity: 1; stroke-width: 0px; fill: rgb(38, 78, 134); fill-opacity: 1;"/><path class="point" transform="translate(93.16,215.15)" d="M3,0A3,3 0 1,1 0,-3A3,3 0 0,1 3,0Z" style="opacity: 1; stroke-width: 0px; fill: rgb(38, 78, 134); fill-opacity: 1;"/><path class="point" transform="translate(97.71,268.66)" d="M3,0A3,3 0 1,1 0,-3A3,3 0 0,1 3,0Z" style="opacity: 1; stroke-width: 0px; fill: rgb(38, 78, 134); fill-opacity: 1;"/><path class="point" transform="translate(102.27,297.78)" d="M3,0A3,3 0 1,1 0,-3A3,3 0 0,1 3,0Z" style="opacity: 1; stroke-width: 0px; fill: rgb(38, 78, 134); fill-opacity: 1;"/><path class="point" transform="translate(106.82,280.27)" d="M3,0A3,3 0 1,1 0,-3A3,3 0 0,1 3,0Z" style="opacity: 1; stroke-width: 0px; fill: rgb(38, 78, 134); fill-opacity: 1;"/><path class="point" transform="translate(111.37,239.39)" d="M3,0A3,3 0 1,1 0,-3A3,3 0 0,1 3,0Z" style="opacity: 1; stroke-width: 0px; fill: rgb(38, 78, 134); fill-opacity: 1;"/><path class="point" transform="translate(115.92,354.4)" d="M3,0A3,3 0 1,1 0,-3A3,3 0 0,1 3,0Z" style="opacity: 1; stroke-width: 0px; fill: rgb(38, 78, 134); fill-opacity: 1;"/><path class="point" transform="translate(120.47,22.6)" d="M3,0A3,3 0 1,1 0,-3A3,3 0 0,1 3,0Z" style="opacity: 1; stroke-width: 0px; fill: rgb(38, 78, 134); fill-opacity: 1;"/><path class="point" transform="translate(125.02,250.38)" d="M3,0A3,3 0 1,1 0,-3A3,3 0 0,1 3,0Z" style="opacity: 1; stroke-width: 0px; fill: rgb(38, 78, 134); fill-opacity: 1;"/><path class="point" transform="translate(129.57,267.3)" d="M3,0A3,3 0 1,1 0,-3A3,3 0 0,1 3,0Z" style="opacity: 1; stroke-width: 0px; fill: rgb(38, 78, 134); fill-opacity: 1;"/><path class="point" transform="translate(134.12,284.63)" d="M3,0A3,3 0 1,1 0,-3A3,3 0 0,1 3,0Z" style="opacity: 1; stroke-width: 0px; fill: rgb(38, 78, 134); fill-opacity: 1;"/><path class="point" transform="translate(138.67,315.45)" d="M3,0A3,3 0 1,1 0,-3A3,3 0 0,1 3,0Z" style="opacity: 1; stroke-width: 0px; fill: rgb(38, 78, 134); fill-opacity: 1;"/><path class="point" transform="translate(143.22,258.35)" d="M3,0A3,3 0 1,1 0,-3A3,3 0 0,1 3,0Z" style="opacity: 1; stroke-width: 0px; fill: rgb(38, 78, 134); fill-opacity: 1;"/><path class="point" transform="translate(147.78,271.66)" d="M3,0A3,3 0 1,1 0,-3A3,3 0 0,1 3,0Z" style="opacity: 1; stroke-width: 0px; fill: rgb(38, 78, 134); fill-opacity: 1;"/><path class="point" transform="translate(152.33,288.23)" d="M3,0A3,3 0 1,1 0,-3A3,3 0 0,1 3,0Z" style="opacity: 1; stroke-width: 0px; fill: rgb(38, 78, 134); fill-opacity: 1;"/><path class="point" transform="translate(156.88,296.04)" d="M3,0A3,3 0 1,1 0,-3A3,3 0 0,1 3,0Z" style="opacity: 1; stroke-width: 0px; fill: rgb(38, 78, 134); fill-opacity: 1;"/><path class="point" transform="translate(161.43,295.57)" d="M3,0A3,3 0 1,1 0,-3A3,3 0 0,1 3,0Z" style="opacity: 1; stroke-width: 0px; fill: rgb(38, 78, 134); fill-opacity: 1;"/><path class="point" transform="translate(165.98,302.64)" d="M3,0A3,3 0 1,1 0,-3A3,3 0 0,1 3,0Z" style="opacity: 1; stroke-width: 0px; fill: rgb(38, 78, 134); fill-opacity: 1;"/><path class="point" transform="translate(170.53,325.97)" d="M3,0A3,3 0 1,1 0,-3A3,3 0 0,1 3,0Z" style="opacity: 1; stroke-width: 0px; fill: rgb(38, 78, 134); fill-opacity: 1;"/><path class="point" transform="translate(175.08,275.4)" d="M3,0A3,3 0 1,1 0,-3A3,3 0 0,1 3,0Z" style="opacity: 1; stroke-width: 0px; fill: rgb(38, 78, 134); fill-opacity: 1;"/><path class="point" transform="translate(179.63,281.9)" d="M3,0A3,3 0 1,1 0,-3A3,3 0 0,1 3,0Z" style="opacity: 1; stroke-width: 0px; fill: rgb(38, 78, 134); fill-opacity: 1;"/><path class="point" transform="translate(184.18,292.5)" d="M3,0A3,3 0 1,1 0,-3A3,3 0 0,1 3,0Z" style="opacity: 1; stroke-width: 0px; fill: rgb(38, 78, 134); fill-opacity: 1;"/><path class="point" transform="translate(188.73,297.27)" d="M3,0A3,3 0 1,1 0,-3A3,3 0 0,1 3,0Z" style="opacity: 1; stroke-width: 0px; fill: rgb(38, 78, 134); fill-opacity: 1;"/><path class="point" transform="translate(193.29,300.39)" d="M3,0A3,3 0 1,1 0,-3A3,3 0 0,1 3,0Z" style="opacity: 1; stroke-width: 0px; fill: rgb(38, 78, 134); fill-opacity: 1;"/><path class="point" transform="translate(197.84,307.05)" d="M3,0A3,3 0 1,1 0,-3A3,3 0 0,1 3,0Z" style="opacity: 1; stroke-width: 0px; fill: rgb(38, 78, 134); fill-opacity: 1;"/><path class="point" transform="translate(202.39,330.02)" d="M3,0A3,3 0 1,1 0,-3A3,3 0 0,1 3,0Z" style="opacity: 1; stroke-width: 0px; fill: rgb(38, 78, 134); fill-opacity: 1;"/><path class="point" transform="translate(206.94,321.44)" d="M3,0A3,3 0 1,1 0,-3A3,3 0 0,1 3,0Z" style="opacity: 1; stroke-width: 0px; fill: rgb(38, 78, 134); fill-opacity: 1;"/><path class="point" transform="translate(211.49,284.74)" d="M3,0A3,3 0 1,1 0,-3A3,3 0 0,1 3,0Z" style="opacity: 1; stroke-width: 0px; fill: rgb(38, 78, 134); fill-opacity: 1;"/><path class="point" transform="translate(216.04,297)" d="M3,0A3,3 0 1,1 0,-3A3,3 0 0,1 3,0Z" style="opacity: 1; stroke-width: 0px; fill: rgb(38, 78, 134); fill-opacity: 1;"/><path class="point" transform="translate(220.59,309.73)" d="M3,0A3,3 0 1,1 0,-3A3,3 0 0,1 3,0Z" style="opacity: 1; stroke-width: 0px; fill: rgb(38, 78, 134); fill-opacity: 1;"/><path class="point" transform="translate(225.14,315.51)" d="M3,0A3,3 0 1,1 0,-3A3,3 0 0,1 3,0Z" style="opacity: 1; stroke-width: 0px; fill: rgb(38, 78, 134); fill-opacity: 1;"/><path class="point" transform="translate(229.69,318.97)" d="M3,0A3,3 0 1,1 0,-3A3,3 0 0,1 3,0Z" style="opacity: 1; stroke-width: 0px; fill: rgb(38, 78, 134); fill-opacity: 1;"/><path class="point" transform="translate(234.24,336.38)" d="M3,0A3,3 0 1,1 0,-3A3,3 0 0,1 3,0Z" style="opacity: 1; stroke-width: 0px; fill: rgb(38, 78, 134); fill-opacity: 1;"/><path class="point" transform="translate(238.8,323.34)" d="M3,0A3,3 0 1,1 0,-3A3,3 0 0,1 3,0Z" style="opacity: 1; stroke-width: 0px; fill: rgb(38, 78, 134); fill-opacity: 1;"/><path class="point" transform="translate(243.35,293.19)" d="M3,0A3,3 0 1,1 0,-3A3,3 0 0,1 3,0Z" style="opacity: 1; stroke-width: 0px; fill: rgb(38, 78, 134); fill-opacity: 1;"/><path class="point" transform="translate(247.9,300.36)" d="M3,0A3,3 0 1,1 0,-3A3,3 0 0,1 3,0Z" style="opacity: 1; stroke-width: 0px; fill: rgb(38, 78, 134); fill-opacity: 1;"/><path class="point" transform="translate(252.45,307.12)" d="M3,0A3,3 0 1,1 0,-3A3,3 0 0,1 3,0Z" style="opacity: 1; stroke-width: 0px; fill: rgb(38, 78, 134); fill-opacity: 1;"/><path class="point" transform="translate(257,308.73)" d="M3,0A3,3 0 1,1 0,-3A3,3 0 0,1 3,0Z" style="opacity: 1; stroke-width: 0px; fill: rgb(38, 78, 134); fill-opacity: 1;"/><path class="point" transform="translate(261.55,311.32)" d="M3,0A3,3 0 1,1 0,-3A3,3 0 0,1 3,0Z" style="opacity: 1; stroke-width: 0px; fill: rgb(38, 78, 134); fill-opacity: 1;"/><path class="point" transform="translate(266.1,332.24)" d="M3,0A3,3 0 1,1 0,-3A3,3 0 0,1 3,0Z" style="opacity: 1; stroke-width: 0px; fill: rgb(38, 78, 134); fill-opacity: 1;"/><path class="point" transform="translate(270.65,287.79)" d="M3,0A3,3 0 1,1 0,-3A3,3 0 0,1 3,0Z" style="opacity: 1; stroke-width: 0px; fill: rgb(38, 78, 134); fill-opacity: 1;"/><path class="point" transform="translate(275.2,295.23)" d="M3,0A3,3 0 1,1 0,-3A3,3 0 0,1 3,0Z" style="opacity: 1; stroke-width: 0px; fill: rgb(38, 78, 134); fill-opacity: 1;"/><path class="point" transform="translate(279.76,303.49)" d="M3,0A3,3 0 1,1 0,-3A3,3 0 0,1 3,0Z" style="opacity: 1; stroke-width: 0px; fill: rgb(38, 78, 134); fill-opacity: 1;"/><path class="point" transform="translate(284.31,304.81)" d="M3,0A3,3 0 1,1 0,-3A3,3 0 0,1 3,0Z" style="opacity: 1; stroke-width: 0px; fill: rgb(38, 78, 134); fill-opacity: 1;"/><path class="point" transform="translate(288.86,300.57)" d="M3,0A3,3 0 1,1 0,-3A3,3 0 0,1 3,0Z" style="opacity: 1; stroke-width: 0px; fill: rgb(38, 78, 134); fill-opacity: 1;"/><path class="point" transform="translate(293.41,301.71)" d="M3,0A3,3 0 1,1 0,-3A3,3 0 0,1 3,0Z" style="opacity: 1; stroke-width: 0px; fill: rgb(38, 78, 134); fill-opacity: 1;"/><path class="point" transform="translate(297.96,325.7)" d="M3,0A3,3 0 1,1 0,-3A3,3 0 0,1 3,0Z" style="opacity: 1; stroke-width: 0px; fill: rgb(38, 78, 134); fill-opacity: 1;"/><path class="point" transform="translate(302.51,266.67)" d="M3,0A3,3 0 1,1 0,-3A3,3 0 0,1 3,0Z" style="opacity: 1; stroke-width: 0px; fill: rgb(38, 78, 134); fill-opacity: 1;"/><path class="point" transform="translate(307.06,272.51)" d="M3,0A3,3 0 1,1 0,-3A3,3 0 0,1 3,0Z" style="opacity: 1; stroke-width: 0px; fill: rgb(38, 78, 134); fill-opacity: 1;"/><path class="point" transform="translate(311.61,284.26)" d="M3,0A3,3 0 1,1 0,-3A3,3 0 0,1 3,0Z" style="opacity: 1; stroke-width: 0px; fill: rgb(38, 78, 134); fill-opacity: 1;"/><path class="point" transform="translate(316.16,282.38)" d="M3,0A3,3 0 1,1 0,-3A3,3 0 0,1 3,0Z" style="opacity: 1; stroke-width: 0px; fill: rgb(38, 78, 134); fill-opacity: 1;"/><path class="point" transform="translate(320.71,279.55)" d="M3,0A3,3 0 1,1 0,-3A3,3 0 0,1 3,0Z" style="opacity: 1; stroke-width: 0px; fill: rgb(38, 78, 134); fill-opacity: 1;"/><path class="point" transform="translate(325.27,285.14)" d="M3,0A3,3 0 1,1 0,-3A3,3 0 0,1 3,0Z" style="opacity: 1; stroke-width: 0px; fill: rgb(38, 78, 134); fill-opacity: 1;"/><path class="point" transform="translate(329.82,317.25)" d="M3,0A3,3 0 1,1 0,-3A3,3 0 0,1 3,0Z" style="opacity: 1; stroke-width: 0px; fill: rgb(38, 78, 134); fill-opacity: 1;"/><path class="point" transform="translate(334.37,237.29)" d="M3,0A3,3 0 1,1 0,-3A3,3 0 0,1 3,0Z" style="opacity: 1; stroke-width: 0px; fill: rgb(38, 78, 134); fill-opacity: 1;"/><path class="point" transform="translate(338.92,244.55)" d="M3,0A3,3 0 1,1 0,-3A3,3 0 0,1 3,0Z" style="opacity: 1; stroke-width: 0px; fill: rgb(38, 78, 134); fill-opacity: 1;"/><path class="point" transform="translate(343.47,260.34)" d="M3,0A3,3 0 1,1 0,-3A3,3 0 0,1 3,0Z" style="opacity: 1; stroke-width: 0px; fill: rgb(38, 78, 134); fill-opacity: 1;"/><path class="point" transform="translate(348.02,267.26)" d="M3,0A3,3 0 1,1 0,-3A3,3 0 0,1 3,0Z" style="opacity: 1; stroke-width: 0px; fill: rgb(38, 78, 134); fill-opacity: 1;"/><path class="point" transform="translate(352.57,272.4)" d="M3,0A3,3 0 1,1 0,-3A3,3 0 0,1 3,0Z" style="opacity: 1; stroke-width: 0px; fill: rgb(38, 78, 134); fill-opacity: 1;"/><path class="point" transform="translate(357.12,280.8)" d="M3,0A3,3 0 1,1 0,-3A3,3 0 0,1 3,0Z" style="opacity: 1; stroke-width: 0px; fill: rgb(38, 78, 134); fill-opacity: 1;"/><path class="point" transform="translate(361.67,316.93)" d="M3,0A3,3 0 1,1 0,-3A3,3 0 0,1 3,0Z" style="opacity: 1; stroke-width: 0px; fill: rgb(38, 78, 134); fill-opacity: 1;"/><path class="point" transform="translate(366.22,229.43)" d="M3,0A3,3 0 1,1 0,-3A3,3 0 0,1 3,0Z" style="opacity: 1; stroke-width: 0px; fill: rgb(38, 78, 134); fill-opacity: 1;"/><path class="point" transform="translate(370.78,229.03)" d="M3,0A3,3 0 1,1 0,-3A3,3 0 0,1 3,0Z" style="opacity: 1; stroke-width: 0px; fill: rgb(38, 78, 134); fill-opacity: 1;"/><path class="point" transform="translate(375.33,243.29)" d="M3,0A3,3 0 1,1 0,-3A3,3 0 0,1 3,0Z" style="opacity: 1; stroke-width: 0px; fill: rgb(38, 78, 134); fill-opacity: 1;"/><path class="point" transform="translate(379.88,244.99)" d="M3,0A3,3 0 1,1 0,-3A3,3 0 0,1 3,0Z" style="opacity: 1; stroke-width: 0px; fill: rgb(38, 78, 134); fill-opacity: 1;"/><path class="point" transform="translate(384.43,245.58)" d="M3,0A3,3 0 1,1 0,-3A3,3 0 0,1 3,0Z" style="opacity: 1; stroke-width: 0px; fill: rgb(38, 78, 134); fill-opacity: 1;"/><path class="point" transform="translate(388.98,257.14)" d="M3,0A3,3 0 1,1 0,-3A3,3 0 0,1 3,0Z" style="opacity: 1; stroke-width: 0px; fill: rgb(38, 78, 134); fill-opacity: 1;"/><path class="point" transform="translate(393.53,306.71)" d="M3,0A3,3 0 1,1 0,-3A3,3 0 0,1 3,0Z" style="opacity: 1; stroke-width: 0px; fill: rgb(38, 78, 134); fill-opacity: 1;"/><path class="point" transform="translate(398.08,208.14)" d="M3,0A3,3 0 1,1 0,-3A3,3 0 0,1 3,0Z" style="opacity: 1; stroke-width: 0px; fill: rgb(38, 78, 134); fill-opacity: 1;"/><path class="point" transform="translate(402.63,220.77)" d="M3,0A3,3 0 1,1 0,-3A3,3 0 0,1 3,0Z" style="opacity: 1; stroke-width: 0px; fill: rgb(38, 78, 134); fill-opacity: 1;"/><path class="point" transform="translate(407.18,243.15)" d="M3,0A3,3 0 1,1 0,-3A3,3 0 0,1 3,0Z" style="opacity: 1; stroke-width: 0px; fill: rgb(38, 78, 134); fill-opacity: 1;"/><path class="point" transform="translate(411.73,255.23)" d="M3,0A3,3 0 1,1 0,-3A3,3 0 0,1 3,0Z" style="opacity: 1; stroke-width: 0px; fill: rgb(38, 78, 134); fill-opacity: 1;"/><path class="point" transform="translate(416.29,253.19)" d="M3,0A3,3 0 1,1 0,-3A3,3 0 0,1 3,0Z" style="opacity: 1; stroke-width: 0px; fill: rgb(38, 78, 134); fill-opacity: 1;"/><path class="point" transform="translate(420.84,262.06)" d="M3,0A3,3 0 1,1 0,-3A3,3 0 0,1 3,0Z" style="opacity: 1; stroke-width: 0px; fill: rgb(38, 78, 134); fill-opacity: 1;"/><path class="point" transform="translate(425.39,308.06)" d="M3,0A3,3 0 1,1 0,-3A3,3 0 0,1 3,0Z" style="opacity: 1; stroke-width: 0px; fill: rgb(38, 78, 134); fill-opacity: 1;"/><path class="point" transform="translate(429.94,208.16)" d="M3,0A3,3 0 1,1 0,-3A3,3 0 0,1 3,0Z" style="opacity: 1; stroke-width: 0px; fill: rgb(38, 78, 134); fill-opacity: 1;"/><path class="point" transform="translate(434.49,213.27)" d="M3,0A3,3 0 1,1 0,-3A3,3 0 0,1 3,0Z" style="opacity: 1; stroke-width: 0px; fill: rgb(38, 78, 134); fill-opacity: 1;"/><path class="point" transform="translate(439.04,235.82)" d="M3,0A3,3 0 1,1 0,-3A3,3 0 0,1 3,0Z" style="opacity: 1; stroke-width: 0px; fill: rgb(38, 78, 134); fill-opacity: 1;"/><path class="point" transform="translate(443.59,246.64)" d="M3,0A3,3 0 1,1 0,-3A3,3 0 0,1 3,0Z" style="opacity: 1; stroke-width: 0px; fill: rgb(38, 78, 134); fill-opacity: 1;"/><path class="point" transform="translate(448.14,248.74)" d="M3,0A3,3 0 1,1 0,-3A3,3 0 0,1 3,0Z" style="opacity: 1; stroke-width: 0px; fill: rgb(38, 78, 134); fill-opacity: 1;"/><path class="point" transform="translate(452.69,260.02)" d="M3,0A3,3 0 1,1 0,-3A3,3 0 0,1 3,0Z" style="opacity: 1; stroke-width: 0px; fill: rgb(38, 78, 134); fill-opacity: 1;"/><path class="point" transform="translate(457.24,309.59)" d="M3,0A3,3 0 1,1 0,-3A3,3 0 0,1 3,0Z" style="opacity: 1; stroke-width: 0px; fill: rgb(38, 78, 134); fill-opacity: 1;"/><path class="point" transform="translate(461.8,210.96)" d="M3,0A3,3 0 1,1 0,-3A3,3 0 0,1 3,0Z" style="opacity: 1; stroke-width: 0px; fill: rgb(38, 78, 134); fill-opacity: 1;"/><path class="point" transform="translate(466.35,219.11)" d="M3,0A3,3 0 1,1 0,-3A3,3 0 0,1 3,0Z" style="opacity: 1; stroke-width: 0px; fill: rgb(38, 78, 134); fill-opacity: 1;"/><path class="point" transform="translate(470.9,239.85)" d="M3,0A3,3 0 1,1 0,-3A3,3 0 0,1 3,0Z" style="opacity: 1; stroke-width: 0px; fill: rgb(38, 78, 134); fill-opacity: 1;"/><path class="point" transform="translate(475.45,248.06)" d="M3,0A3,3 0 1,1 0,-3A3,3 0 0,1 3,0Z" style="opacity: 1; stroke-width: 0px; fill: rgb(38, 78, 134); fill-opacity: 1;"/><path class="point" transform="translate(480,248.59)" d="M3,0A3,3 0 1,1 0,-3A3,3 0 0,1 3,0Z" style="opacity: 1; stroke-width: 0px; fill: rgb(38, 78, 134); fill-opacity: 1;"/><path class="point" transform="translate(484.55,260.95)" d="M3,0A3,3 0 1,1 0,-3A3,3 0 0,1 3,0Z" style="opacity: 1; stroke-width: 0px; fill: rgb(38, 78, 134); fill-opacity: 1;"/></g><g class="text"/></g></g></g><g class="overplot"/><path class="xlines-above crisp" d="M0,0" style="fill: none;"/><path class="ylines-above crisp" d="M0,0" style="fill: none;"/><g class="overlines-above"/><g class="xaxislayer-above"><g class="xtick"><text text-anchor="middle" x="0" y="440" transform="translate(100.1,0)" style="font-family: 'Open Sans', verdana, arial, sans-serif; font-size: 12px; fill: rgb(68, 68, 68); fill-opacity: 1; white-space: pre; opacity: 1;"><tspan class="line" dy="0em" x="0" y="440">Aug 28</tspan><tspan class="line" dy="1.3em" x="0" y="440">2022</tspan></text></g><g class="xtick"><text text-anchor="middle" x="0" y="440" style="font-family: 'Open Sans', verdana, arial, sans-serif; font-size: 12px; fill: rgb(68, 68, 68); fill-opacity: 1; white-space: pre; opacity: 1;" transform="translate(163.82,0)">Sep 11</text></g><g class="xtick"><text text-anchor="middle" x="0" y="440" style="font-family: 'Open Sans', verdana, arial, sans-serif; font-size: 12px; fill: rgb(68, 68, 68); fill-opacity: 1; white-space: pre; opacity: 1;" transform="translate(227.53,0)">Sep 25</text></g><g class="xtick"><text text-anchor="middle" x="0" y="440" style="font-family: 'Open Sans', verdana, arial, sans-serif; font-size: 12px; fill: rgb(68, 68, 68); fill-opacity: 1; white-space: pre; opacity: 1;" transform="translate(291.24,0)">Oct 9</text></g><g class="xtick"><text text-anchor="middle" x="0" y="440" style="font-family: 'Open Sans', verdana, arial, sans-serif; font-size: 12px; fill: rgb(68, 68, 68); fill-opacity: 1; white-space: pre; opacity: 1;" transform="translate(354.96,0)">Oct 23</text></g><g class="xtick"><text text-anchor="middle" x="0" y="440" style="font-family: 'Open Sans', verdana, arial, sans-serif; font-size: 12px; fill: rgb(68, 68, 68); fill-opacity: 1; white-space: pre; opacity: 1;" transform="translate(418.67,0)">Nov 6</text></g><g class="xtick"><text text-anchor="middle" x="0" y="440" style="font-family: 'Open Sans', verdana, arial, sans-serif; font-size: 12px; fill: rgb(68, 68, 68); fill-opacity: 1; white-space: pre; opacity: 1;" transform="translate(482.39,0)">Nov 20</text></g><g class="xtick"><text text-anchor="middle" x="0" y="440" style="font-family: 'Open Sans', verdana, arial, sans-serif; font-size: 12px; fill: rgb(68, 68, 68); fill-opacity: 1; white-space: pre; opacity: 1;" transform="translate(546.1,0)">Dec 4</text></g></g><g class="yaxislayer-above"><g class="ytick"><text text-anchor="end" x="56" y="4.199999999999999" transform="translate(0,404.4)" style="font-family: 'Open Sans', verdana, arial, sans-serif; font-size: 12px; fill: rgb(68, 68, 68); fill-opacity: 1; white-space: pre; opacity: 1;">0</text></g><g class="ytick"><text text-anchor="end" x="56" y="4.199999999999999" style="font-family: 'Open Sans', verdana, arial, sans-serif; font-size: 12px; fill: rgb(68, 68, 68); fill-opacity: 1; white-space: pre; opacity: 1;" transform="translate(0,364.26)">20k</text></g><g class="ytick"><text text-anchor="end" x="56" y="4.199999999999999" style="font-family: 'Open Sans', verdana, arial, sans-serif; font-size: 12px; fill: rgb(68, 68, 68); fill-opacity: 1; white-space: pre; opacity: 1;" transform="translate(0,324.13)">40k</text></g><g class="ytick"><text text-anchor="end" x="56" y="4.199999999999999" style="font-family: 'Open Sans', verdana, arial, sans-serif; font-size: 12px; fill: rgb(68, 68, 68); fill-opacity: 1; white-space: pre; opacity: 1;" transform="translate(0,283.99)">60k</text></g><g class="ytick"><text text-anchor="end" x="56" y="4.199999999999999" style="font-family: 'Open Sans', verdana, arial, sans-serif; font-size: 12px; fill: rgb(68, 68, 68); fill-opacity: 1; white-space: pre; opacity: 1;" transform="translate(0,243.85)">80k</text></g><g class="ytick"><text text-anchor="end" x="56" y="4.199999999999999" style="font-family: 'Open Sans', verdana, arial, sans-serif; font-size: 12px; fill: rgb(68, 68, 68); fill-opacity: 1; white-space: pre; opacity: 1;" transform="translate(0,203.72)">100k</text></g><g class="ytick"><text text-anchor="end" x="56" y="4.199999999999999" style="font-family: 'Open Sans', verdana, arial, sans-serif; font-size: 12px; fill: rgb(68, 68, 68); fill-opacity: 1; white-space: pre; opacity: 1;" transform="translate(0,163.57999999999998)">120k</text></g><g class="ytick"><text text-anchor="end" x="56" y="4.199999999999999" style="font-family: 'Open Sans', verdana, arial, sans-serif; font-size: 12px; fill: rgb(68, 68, 68); fill-opacity: 1; white-space: pre; opacity: 1;" transform="translate(0,123.44)">140k</text></g><g class="ytick"><text text-anchor="end" x="56" y="4.199999999999999" style="font-family: 'Open Sans', verdana, arial, sans-serif; font-size: 12px; fill: rgb(68, 68, 68); fill-opacity: 1; white-space: pre; opacity: 1;" transform="translate(0,83.31)">160k</text></g></g><g class="overaxes-above"/></g></g><g class="polarlayer"/><g class="ternarylayer"/><g class="geolayer"/><g class="funnelarealayer"/><g class="pielayer"/><g class="iciclelayer"/><g class="treemaplayer"/><g class="sunburstlayer"/><g class="glimages"/><defs id="topdefs-935bd7"><g class="clips"/></defs><g class="layer-above"><g class="imagelayer"/><g class="shapelayer"/></g><g class="infolayer"><g class="g-gtitle"><text class="gtitle" x="298.182" y="25" text-anchor="middle" dy="0em" style="font-family: 'Open Sans', verdana, arial, sans-serif; font-size: 17px; fill: rgb(68, 68, 68); opacity: 1; font-weight: normal; white-space: pre;">코로나 19 발생 현황</text></g><g class="g-xtitle"><text class="xtitle" x="314" y="479" text-anchor="middle" style="font-family: 'Open Sans', verdana, arial, sans-serif; font-size: 14px; fill: rgb(68, 68, 68); opacity: 1; font-weight: normal; white-space: pre;">날짜</text></g><g class="g-ytitle"><text class="ytitle" transform="rotate(-90,19,238.5)" x="19" y="238.5" text-anchor="middle" style="font-family: 'Open Sans', verdana, arial, sans-serif; font-size: 14px; fill: rgb(68, 68, 68); opacity: 1; font-weight: normal; white-space: pre;">확진자수</text></g></g></svg>