<svg class="main-svg" xmlns="http://www.w3.org/2000/svg" xmlns:xlink="http://www.w3.org/1999/xlink" width="596.364" height="483.636" style="" viewBox="0 0 596.364 483.636"><rect x="0" y="0" width="596.364" height="483.636" style="fill: rgb(255, 255, 255); fill-opacity: 1;"/><defs id="defs-595474"><g class="clips"><clipPath id="clip595474xyplot" class="plotclip"><rect width="427" height="177.55999999999997"/></clipPath><clipPath id="clip595474x2y2plot" class="plotclip"><rect width="133.7933333333332" height="85.22879999999999"/></clipPath><clipPath id="clip595474x2y3plot" class="plotclip"><rect width="133.7933333333332" height="85.2288"/></clipPath><clipPath id="clip595474x3y2plot" class="plotclip"><rect width="125.2533333333336" height="85.22879999999999"/></clipPath><clipPath id="clip595474x3y3plot" class="plotclip"><rect width="125.2533333333336" height="85.2288"/></clipPath><clipPath id="clip595474x4y2plot" class="plotclip"><rect width="133.7933333333332" height="85.22879999999999"/></clipPath><clipPath id="clip595474x4y3plot" class="plotclip"><rect width="133.7933333333332" height="85.2288"/></clipPath><clipPath class="axesclip" id="clip595474x"><rect x="43" y="0" width="427" height="483.636"/></clipPath><clipPath class="axesclip" id="clip595474y"><rect x="0" y="50" width="596.364" height="177.55999999999997"/></clipPath><clipPath class="axesclip" id="clip595474xy"><rect x="43" y="50" width="427" height="177.55999999999997"/></clipPath><clipPath class="axesclip" id="clip595474y2"><rect x="0" y="350.7712" width="596.364" height="85.22879999999999"/></clipPath><clipPath class="axesclip" id="clip595474xy2"><rect x="43" y="350.7712" width="427" height="85.22879999999999"/></clipPath><clipPath class="axesclip" id="clip595474y3"><rect x="0" y="258.44000000000005" width="596.364" height="85.2288"/></clipPath><clipPath class="axesclip" id="clip595474xy3"><rect x="43" y="258.44000000000005" width="427" height="85.2288"/></clipPath><clipPath class="axesclip" id="clip595474x2"><rect x="43" y="0" width="133.7933333333332" height="483.636"/></clipPath><clipPath class="axesclip" id="clip595474x2y"><rect x="43" y="50" width="133.7933333333332" height="177.55999999999997"/></clipPath><clipPath class="axesclip" id="clip595474x2y2"><rect x="43" y="350.7712" width="133.7933333333332" height="85.22879999999999"/></clipPath><clipPath class="axesclip" id="clip595474x2y3"><rect x="43" y="258.44000000000005" width="133.7933333333332" height="85.2288"/></clipPath><clipPath class="axesclip" id="clip595474x3"><rect x="193.8733333333332" y="0" width="125.2533333333336" height="483.636"/></clipPath><clipPath class="axesclip" id="clip595474x3y"><rect x="193.8733333333332" y="50" width="125.2533333333336" height="177.55999999999997"/></clipPath><clipPath class="axesclip" id="clip595474x3y2"><rect x="193.8733333333332" y="350.7712" width="125.2533333333336" height="85.22879999999999"/></clipPath><clipPath class="axesclip" id="clip595474x3y3"><rect x="193.8733333333332" y="258.44000000000005" width="125.2533333333336" height="85.2288"/></clipPath><clipPath class="axesclip" id="clip595474x4"><rect x="336.2066666666668" y="0" width="133.7933333333332" height="483.636"/></clipPath><clipPath class="axesclip" id="clip595474x4y"><rect x="336.2066666666668" y="50" width="133.7933333333332" height="177.55999999999997"/></clipPath><clipPath class="axesclip" id="clip595474x4y2"><rect x="336.2066666666668" y="350.7712" width="133.7933333333332" height="85.22879999999999"/></clipPath><clipPath class="axesclip" id="clip595474x4y3"><rect x="336.2066666666668" y="258.44000000000005" width="133.7933333333332" height="85.2288"/></clipPath></g><g class="gradients"/><g class="patterns"/></defs><g class="bglayer"/><g class="layer-below"><g class="imagelayer"/><g class="shapelayer"/></g><g class="cartesianlayer"><g class="subplot xy"><g class="layer-subplot"><g class="shapelayer"/><g class="imagelayer"/></g><g class="gridlayer"><g class="x"><path class="xgrid crisp" transform="translate(72.89,0)" d="M0,50v177.55999999999997" style="stroke: rgb(238, 238, 238); stroke-opacity: 1; stroke-width: 1px;"/><path class="xgrid crisp" transform="translate(200.99,0)" d="M0,50v177.55999999999997" style="stroke: rgb(238, 238, 238); stroke-opacity: 1; stroke-width: 1px;"/><path class="xgrid crisp" transform="translate(333.36,0)" d="M0,50v177.55999999999997" style="stroke: rgb(238, 238, 238); stroke-opacity: 1; stroke-width: 1px;"/><path class="xgrid crisp" transform="translate(461.46,0)" d="M0,50v177.55999999999997" style="stroke: rgb(238, 238, 238); stroke-opacity: 1; stroke-width: 1px;"/></g><g class="y"><path class="ygrid crisp" transform="translate(0,170.35)" d="M43,0h427" style="stroke: rgb(238, 238, 238); stroke-opacity: 1; stroke-width: 1px;"/><path class="ygrid crisp" transform="translate(0,122.03)" d="M43,0h427" style="stroke: rgb(238, 238, 238); stroke-opacity: 1; stroke-width: 1px;"/><path class="ygrid crisp" transform="translate(0,73.7)" d="M43,0h427" style="stroke: rgb(238, 238, 238); stroke-opacity: 1; stroke-width: 1px;"/></g></g><g class="zerolinelayer"><path class="yzl zl crisp" transform="translate(0,218.68)" d="M43,0h427" style="stroke: rgb(68, 68, 68); stroke-opacity: 1; stroke-width: 1px;"/></g><path class="xlines-below"/><path class="ylines-below"/><g class="overlines-below"/><g class="xaxislayer-below"/><g class="yaxislayer-below"/><g class="overaxes-below"/><g class="plot" transform="translate(43,50)" clip-path="url(#clip595474xyplot)"><g class="scatterlayer mlayer"><g class="trace scatter trace9528a4" style="stroke-miterlimit: 2; opacity: 1;"><g class="fills"/><g class="errorbars"/><g class="lines"><path class="js-line" d="M0,71L4.27,76.34L8.54,86.24L12.81,126.98L17.08,57.03L21.35,68.24L25.62,89.91L29.89,82.15L34.16,91.72L38.43,98.95L42.7,132.39L46.97,72.28L51.24,86.06L55.51,98.51L59.78,101.61L64.05,127.39L68.32,141.41L72.59,132.98L76.86,113.29L81.13,168.68L85.4,8.88L89.67,118.58L93.94,126.73L98.21,135.08L102.48,149.92L106.75,122.42L111.02,128.83L115.29,136.81L119.56,140.57L123.83,140.35L128.1,143.75L132.37,154.99L136.64,130.63L140.91,133.76L145.18,138.87L153.72,142.67L157.99,145.87L162.26,156.94L166.53,152.81L170.8,135.13L175.07,141.04L179.34,147.17L183.61,149.95L187.88,151.62L192.15,160L196.42,153.72L200.69,139.2L209.23,145.91L213.5,146.69L217.77,147.93L222.04,158.01L226.31,136.6L230.58,140.19L234.85,144.16L239.12,144.8L243.39,142.76L247.66,143.3L251.93,154.86L256.2,126.43L260.47,129.24L264.74,134.9L273.28,132.63L277.55,135.33L281.82,150.79L286.09,112.28L290.36,115.77L294.63,123.38L307.44,133.23L311.71,150.64L315.98,108.49L320.25,108.3L324.52,115.17L328.79,115.99L333.06,116.27L337.33,121.84L341.6,145.71L345.87,98.24L350.14,104.32L354.41,115.1L358.68,120.92L362.95,119.93L367.22,124.21L371.49,146.36L375.76,98.25L380.03,100.71L384.3,111.57L388.57,116.78L392.84,117.8L397.11,123.23L401.38,147.1L405.65,99.6L409.92,103.52L414.19,113.51L418.46,117.47L422.73,117.72L427,123.68" style="vector-effect: non-scaling-stroke; fill: none; stroke: rgb(8, 48, 107); stroke-opacity: 1; stroke-width: 2px; opacity: 1;"/></g><g class="points"/><g class="text"/></g></g></g><g class="overplot"/><path class="xlines-above crisp" d="M0,0" style="fill: none;"/><path class="ylines-above crisp" d="M0,0" style="fill: none;"/><g class="overlines-above"/><g class="xaxislayer-above"><g class="xtick"><text text-anchor="middle" x="0" y="238.55999999999997" transform="translate(72.89,0)" style="font-family: 'Open Sans', verdana, arial, sans-serif; font-size: 10px; fill: rgb(68, 68, 68); fill-opacity: 1; white-space: pre; opacity: 1;">Sep 2022</text></g><g class="xtick"><text text-anchor="middle" x="0" y="238.55999999999997" style="font-family: 'Open Sans', verdana, arial, sans-serif; font-size: 10px; fill: rgb(68, 68, 68); fill-opacity: 1; white-space: pre; opacity: 1;" transform="translate(200.99,0)">Oct 2022</text></g><g class="xtick"><text text-anchor="middle" x="0" y="238.55999999999997" style="font-family: 'Open Sans', verdana, arial, sans-serif; font-size: 10px; fill: rgb(68, 68, 68); fill-opacity: 1; white-space: pre; opacity: 1;" transform="translate(333.36,0)">Nov 2022</text></g><g class="xtick"><text text-anchor="middle" x="0" y="238.55999999999997" style="font-family: 'Open Sans', verdana, arial, sans-serif; font-size: 10px; fill: rgb(68, 68, 68); fill-opacity: 1; white-space: pre; opacity: 1;" transform="translate(461.46,0)">Dec 2022</text></g></g><g class="yaxislayer-above"><g class="ytick"><text text-anchor="end" x="42" y="4.199999999999999" transform="translate(0,218.68)" style="font-family: 'Open Sans', verdana, arial, sans-serif; font-size: 12px; fill: rgb(68, 68, 68); fill-opacity: 1; white-space: pre; opacity: 1;">0</text></g><g class="ytick"><text text-anchor="end" x="42" y="4.199999999999999" style="font-family: 'Open Sans', verdana, arial, sans-serif; font-size: 12px; fill: rgb(68, 68, 68); fill-opacity: 1; white-space: pre; opacity: 1;" transform="translate(0,170.35)">50k</text></g><g class="ytick"><text text-anchor="end" x="42" y="4.199999999999999" style="font-family: 'Open Sans', verdana, arial, sans-serif; font-size: 12px; fill: rgb(68, 68, 68); fill-opacity: 1; white-space: pre; opacity: 1;" transform="translate(0,122.03)">100k</text></g><g class="ytick"><text text-anchor="end" x="42" y="4.199999999999999" style="font-family: 'Open Sans', verdana, arial, sans-serif; font-size: 12px; fill: rgb(68, 68, 68); fill-opacity: 1; white-space: pre; opacity: 1;" transform="translate(0,73.7)">150k</text></g></g><g class="overaxes-above"/></g><g class="subplot x2y2"><g class="layer-subplot"><g class="shapelayer"/><g class="imagelayer"/></g><g class="gridlayer"><g class="x2"><path class="x2grid crisp" transform="translate(52.37,0)" d="M0,350.7712v85.22879999999999" style="stroke: rgb(238, 238, 238); stroke-opacity: 1; stroke-width: 1px;"/><path class="x2grid crisp" transform="translate(92.5,0)" d="M0,350.7712v85.22879999999999" style="stroke: rgb(238, 238, 238); stroke-opacity: 1; stroke-width: 1px;"/><path class="x2grid crisp" transform="translate(133.98000000000002,0)" d="M0,350.7712v85.22879999999999" style="stroke: rgb(238, 238, 238); stroke-opacity: 1; stroke-width: 1px;"/><path class="x2grid crisp" transform="translate(174.12,0)" d="M0,350.7712v85.22879999999999" style="stroke: rgb(238, 238, 238); stroke-opacity: 1; stroke-width: 1px;"/></g><g class="y2"><path class="y2grid crisp" transform="translate(0,390.9212)" d="M43,0h133.7933333333332" style="stroke: rgb(238, 238, 238); stroke-opacity: 1; stroke-width: 1px;"/></g></g><g class="zerolinelayer"><path class="y2zl zl crisp" transform="translate(0,431.75120000000004)" d="M43,0h133.7933333333332" style="stroke: rgb(68, 68, 68); stroke-opacity: 1; stroke-width: 1px;"/></g><path class="xlines-below"/><path class="ylines-below"/><g class="overlines-below"/><g class="xaxislayer-below"/><g class="yaxislayer-below"/><g class="overaxes-below"/><g class="plot" transform="translate(43,350.7712)" clip-path="url(#clip595474x2y2plot)"><g class="scatterlayer mlayer"><g class="trace scatter trace8ce6bb" style="stroke-miterlimit: 2; opacity: 1;"><g class="fills"/><g class="errorbars"/><g class="lines"><path class="js-line" d="M0,45.95L1.34,53.74L2.68,70.72L5.35,50.41L6.69,61.75L8.03,61.46L9.37,77.23L10.7,40.51L12.04,74.07L14.72,57.8L16.06,77.22L18.73,73.05L20.07,41.87L21.41,75.14L22.74,70.28L24.08,62.95L25.42,69.77L26.76,66.34L28.1,70.33L29.43,79.89L30.77,80.15L32.11,75.2L33.45,60.78L34.79,62.86L36.12,75.62L37.46,55.15L38.8,69.81L40.14,76.68L41.48,73.61L42.81,66.1L44.15,77.35L45.49,64.54L46.83,76.06L48.17,61.17L49.5,75.99L50.84,75.88L52.18,68.36L53.52,79.04L54.86,65.95L56.19,68.99L57.53,77.38L58.87,77.6L60.21,76.2L61.54,65.17L62.88,72.22L64.22,78.67L65.56,68.63L66.9,70.78L68.23,76.51L69.57,75.73L70.91,77.25L72.25,78.53L73.59,55.54L74.92,75L76.26,67.5L77.6,75.87L78.94,73.91L80.28,74.12L81.61,65.43L82.95,68.41L84.29,66.35L85.63,74.49L86.97,74.9L88.3,74.73L89.64,65.25L92.32,77.59L93.66,69.35L94.99,71.68L96.33,71.82L97.67,73.18L99.01,70.68L100.34,76.4L101.68,72.91L103.02,43.87L104.36,57.73L105.7,73.73L107.03,74.48L108.37,76.99L109.71,74.93L111.05,49.1L112.39,44.86L113.72,49.51L115.06,75.94L116.4,69.06L117.74,77.31L119.08,30.26L120.41,51.74L121.75,46.53L123.09,34.25L124.43,76.91L125.77,66.13L127.1,75.35L128.44,7.76L129.78,64.99L131.12,4.26L132.46,36.61L133.79,28.55" style="vector-effect: non-scaling-stroke; fill: none; stroke: rgb(107, 174, 214); stroke-opacity: 1; stroke-width: 2px; opacity: 1;"/></g><g class="points"/><g class="text"/></g></g></g><g class="overplot"/><path class="xlines-above crisp" d="M0,0" style="fill: none;"/><path class="ylines-above crisp" d="M0,0" style="fill: none;"/><g class="overlines-above"/><g class="xaxislayer-above"><g class="x2tick"><text text-anchor="start" x="0" y="447" transform="translate(52.37,0) rotate(30,0,442)" style="font-family: 'Open Sans', verdana, arial, sans-serif; font-size: 10px; fill: rgb(68, 68, 68); fill-opacity: 1; white-space: pre; opacity: 1;">Sep 2022</text></g><g class="x2tick"><text text-anchor="start" x="0" y="447" style="font-family: 'Open Sans', verdana, arial, sans-serif; font-size: 10px; fill: rgb(68, 68, 68); fill-opacity: 1; white-space: pre; opacity: 1;" transform="translate(92.5,0) rotate(30,0,442)">Oct 2022</text></g><g class="x2tick"><text text-anchor="start" x="0" y="447" style="font-family: 'Open Sans', verdana, arial, sans-serif; font-size: 10px; fill: rgb(68, 68, 68); fill-opacity: 1; white-space: pre; opacity: 1;" transform="translate(133.98000000000002,0) rotate(30,0,442)">Nov 2022</text></g><g class="x2tick"><text text-anchor="start" x="0" y="447" style="font-family: 'Open Sans', verdana, arial, sans-serif; font-size: 10px; fill: rgb(68, 68, 68); fill-opacity: 1; white-space: pre; opacity: 1;" transform="translate(174.12,0) rotate(30,0,442)">Dec 2022</text></g></g><g class="yaxislayer-above"><g class="y2tick"><text text-anchor="end" x="42" y="4.199999999999999" transform="translate(0,431.75120000000004)" style="font-family: 'Open Sans', verdana, arial, sans-serif; font-size: 12px; fill: rgb(68, 68, 68); fill-opacity: 1; white-space: pre; opacity: 1;">0</text></g><g class="y2tick"><text text-anchor="end" x="42" y="4.199999999999999" style="font-family: 'Open Sans', verdana, arial, sans-serif; font-size: 12px; fill: rgb(68, 68, 68); fill-opacity: 1; white-space: pre; opacity: 1;" transform="translate(0,390.9212)">50k</text></g></g><g class="overaxes-above"/></g><g class="subplot x2y3"><g class="layer-subplot"><g class="shapelayer"/><g class="imagelayer"/></g><g class="gridlayer"><g class="x2"><path class="x2grid crisp" transform="translate(52.37,0)" d="M0,258.44000000000005v85.2288" style="stroke: rgb(238, 238, 238); stroke-opacity: 1; stroke-width: 1px;"/><path class="x2grid crisp" transform="translate(92.5,0)" d="M0,258.44000000000005v85.2288" style="stroke: rgb(238, 238, 238); stroke-opacity: 1; stroke-width: 1px;"/><path class="x2grid crisp" transform="translate(133.98000000000002,0)" d="M0,258.44000000000005v85.2288" style="stroke: rgb(238, 238, 238); stroke-opacity: 1; stroke-width: 1px;"/><path class="x2grid crisp" transform="translate(174.12,0)" d="M0,258.44000000000005v85.2288" style="stroke: rgb(238, 238, 238); stroke-opacity: 1; stroke-width: 1px;"/></g><g class="y3"><path class="y3grid crisp" transform="translate(0,322.83000000000004)" d="M43,0h133.7933333333332" style="stroke: rgb(238, 238, 238); stroke-opacity: 1; stroke-width: 1px;"/><path class="y3grid crisp" transform="translate(0,305.74000000000007)" d="M43,0h133.7933333333332" style="stroke: rgb(238, 238, 238); stroke-opacity: 1; stroke-width: 1px;"/><path class="y3grid crisp" transform="translate(0,288.64000000000004)" d="M43,0h133.7933333333332" style="stroke: rgb(238, 238, 238); stroke-opacity: 1; stroke-width: 1px;"/><path class="y3grid crisp" transform="translate(0,271.5400000000001)" d="M43,0h133.7933333333332" style="stroke: rgb(238, 238, 238); stroke-opacity: 1; stroke-width: 1px;"/></g></g><g class="zerolinelayer"><path class="y3zl zl crisp" transform="translate(0,339.93000000000006)" d="M43,0h133.7933333333332" style="stroke: rgb(68, 68, 68); stroke-opacity: 1; stroke-width: 1px;"/></g><path class="xlines-below"/><path class="ylines-below"/><g class="overlines-below"/><g class="xaxislayer-below"/><g class="yaxislayer-below"/><g class="overaxes-below"/><g class="plot" transform="translate(43,258.44000000000005)" clip-path="url(#clip595474x2y3plot)"><g class="scatterlayer mlayer"><g class="trace scatter trace2040eb" style="stroke-miterlimit: 2; opacity: 1;"><g class="fills"/><g class="errorbars"/><g class="lines"><path class="js-line" d="M0,11.47L4.01,35.12L5.35,36.37L6.69,25.2L8.03,23.33L9.37,27.48L10.7,19.71L12.04,36.53L13.38,36.75L14.72,41.9L16.06,34.97L17.39,32.58L18.73,37.93L21.41,48.85L22.74,45.2L24.08,44.23L25.42,52.37L26.76,21.42L28.1,44.36L32.11,55.31L33.45,56.84L34.79,56.3L36.12,50.44L37.46,47.64L38.8,54.11L40.14,56.01L41.48,60.08L42.81,58.66L44.15,55.63L45.49,54.61L46.83,57.32L49.5,59.64L50.84,63.98L52.18,66.96L53.52,55.92L54.86,55.91L56.19,59.76L57.53,60.23L58.87,62.03L60.21,60.53L61.54,62.61L62.88,61.34L64.22,54.97L65.56,55.29L66.9,58.25L68.23,59.62L69.57,63.37L70.91,64.36L72.25,56.01L73.59,57.14L74.92,59.63L77.6,60.87L78.94,63.71L80.28,63.04L81.61,55.75L82.95,55.31L84.29,57.23L86.97,58.35L88.3,61.82L89.64,59.94L90.98,50.75L92.32,50.84L93.66,52.39L94.99,58.92L96.33,53.01L97.67,59.05L99.01,58.41L100.34,47.03L101.68,45.87L103.02,50.16L104.36,50.38L105.7,48.59L107.03,58.41L108.37,53.46L109.71,41.86L111.05,38.46L112.39,49.09L115.06,43.89L116.4,53.02L117.74,51.41L119.08,40.99L120.41,27.72L121.75,54.22L123.09,40.21L124.43,39.92L125.77,47.86L127.1,48.84L128.44,28.28L129.78,39.29L131.12,39.06L132.46,36.78L133.79,48.14" style="vector-effect: non-scaling-stroke; fill: none; stroke: rgb(8, 81, 156); stroke-opacity: 1; stroke-width: 2px; opacity: 1;"/></g><g class="points"/><g class="text"/></g></g></g><g class="overplot"/><path class="xlines-above crisp" d="M0,0" style="fill: none;"/><path class="ylines-above crisp" d="M0,0" style="fill: none;"/><g class="overlines-above"/><g class="xaxislayer-above"/><g class="yaxislayer-above"><g class="y3tick"><text text-anchor="end" x="42" y="4.199999999999999" transform="translate(0,339.93000000000006)" style="font-family: 'Open Sans', verdana, arial, sans-serif; font-size: 12px; fill: rgb(68, 68, 68); fill-opacity: 1; white-space: pre; opacity: 1;">0</text></g><g class="y3tick"><text text-anchor="end" x="42" y="4.199999999999999" style="font-family: 'Open Sans', verdana, arial, sans-serif; font-size: 12px; fill: rgb(68, 68, 68); fill-opacity: 1; white-space: pre; opacity: 1;" transform="translate(0,322.83000000000004)">100k</text></g><g class="y3tick"><text text-anchor="end" x="42" y="4.199999999999999" style="font-family: 'Open Sans', verdana, arial, sans-serif; font-size: 12px; fill: rgb(68, 68, 68); fill-opacity: 1; white-space: pre; opacity: 1;" transform="translate(0,305.74000000000007)">200k</text></g><g class="y3tick"><text text-anchor="end" x="42" y="4.199999999999999" style="font-family: 'Open Sans', verdana, arial, sans-serif; font-size: 12px; fill: rgb(68, 68, 68); fill-opacity: 1; white-space: pre; opacity: 1;" transform="translate(0,288.64000000000004)">300k</text></g><g class="y3tick"><text text-anchor="end" x="42" y="4.199999999999999" style="font-family: 'Open Sans', verdana, arial, sans-serif; font-size: 12px; fill: rgb(68, 68, 68); fill-opacity: 1; white-space: pre; opacity: 1;" transform="translate(0,271.5400000000001)">400k</text></g></g><g class="overaxes-above"/></g><g class="subplot x3y2"><g class="layer-subplot"><g class="shapelayer"/><g class="imagelayer"/></g><g class="gridlayer"><g class="x3"><path class="x3grid crisp" transform="translate(202.6433333333332,0)" d="M0,350.7712v85.22879999999999" style="stroke: rgb(238, 238, 238); stroke-opacity: 1; stroke-width: 1px;"/><path class="x3grid crisp" transform="translate(240.2133333333332,0)" d="M0,350.7712v85.22879999999999" style="stroke: rgb(238, 238, 238); stroke-opacity: 1; stroke-width: 1px;"/><path class="x3grid crisp" transform="translate(279.0433333333332,0)" d="M0,350.7712v85.22879999999999" style="stroke: rgb(238, 238, 238); stroke-opacity: 1; stroke-width: 1px;"/><path class="x3grid crisp" transform="translate(316.6233333333332,0)" d="M0,350.7712v85.22879999999999" style="stroke: rgb(238, 238, 238); stroke-opacity: 1; stroke-width: 1px;"/></g><g class="y2"><path class="y2grid crisp" transform="translate(0,390.9212)" d="M193.8733333333332,0h125.2533333333336" style="stroke: rgb(238, 238, 238); stroke-opacity: 1; stroke-width: 1px;"/></g></g><g class="zerolinelayer"><path class="y2zl zl crisp" transform="translate(0,431.75120000000004)" d="M193.8733333333332,0h125.2533333333336" style="stroke: rgb(68, 68, 68); stroke-opacity: 1; stroke-width: 1px;"/></g><path class="xlines-below"/><path class="ylines-below"/><g class="overlines-below"/><g class="xaxislayer-below"/><g class="yaxislayer-below"/><g class="overaxes-below"/><g class="plot" transform="translate(193.8733333333332,350.7712)" clip-path="url(#clip595474x3y2plot)"><g class="scatterlayer mlayer"><g class="trace scatter trace51165c" style="stroke-miterlimit: 2; opacity: 1;"><g class="fills"/><g class="errorbars"/><g class="lines"><path class="js-line" d="M0,80.03L1.25,79.49L2.51,80.55L5.01,80.18L6.26,78.02L7.52,80.37L8.77,80.28L12.53,80.5L13.78,78.89L16.28,79.93L17.54,80.3L18.79,80.01L20.04,80.52L21.29,80.65L22.55,79.42L23.8,78.72L25.05,80.33L26.3,79.99L27.56,80.43L38.83,80.58L40.08,79.38L42.59,80.85L43.84,78.9L45.09,80.5L46.34,80.5L48.85,80.36L50.1,79.99L55.11,80.83L56.36,80.52L58.87,79.83L60.12,80.38L65.13,80.7L66.38,79.14L67.64,80.41L68.89,80.48L70.14,79.91L71.39,80.51L73.9,80.69L75.15,76.74L77.66,80.41L78.91,80.45L86.42,80.07L87.68,80.25L88.93,80.08L90.18,80.72L91.43,80.66L92.69,78.53L93.94,80.23L95.19,80.21L96.45,78.48L97.7,80.26L100.2,80.72L101.46,79.66L102.71,79.35L103.96,79.96L108.97,80.64L110.22,80.08L111.48,80L112.73,75.51L113.98,80.24L115.23,80.4L117.74,80.47L118.99,80.31L120.24,79.61L121.5,74.94L122.75,80.45L124,80.46L125.25,80.55" style="vector-effect: non-scaling-stroke; fill: none; stroke: rgb(158, 202, 225); stroke-opacity: 1; stroke-width: 2px; opacity: 1;"/></g><g class="points"/><g class="text"/></g></g></g><g class="overplot"/><path class="xlines-above crisp" d="M0,0" style="fill: none;"/><path class="ylines-above crisp" d="M0,0" style="fill: none;"/><g class="overlines-above"/><g class="xaxislayer-above"><g class="x3tick"><text text-anchor="start" x="0" y="447" transform="translate(202.6433333333332,0) rotate(30,0,442)" style="font-family: 'Open Sans', verdana, arial, sans-serif; font-size: 10px; fill: rgb(68, 68, 68); fill-opacity: 1; white-space: pre; opacity: 1;">Sep 2022</text></g><g class="x3tick"><text text-anchor="start" x="0" y="447" style="font-family: 'Open Sans', verdana, arial, sans-serif; font-size: 10px; fill: rgb(68, 68, 68); fill-opacity: 1; white-space: pre; opacity: 1;" transform="translate(240.2133333333332,0) rotate(30,0,442)">Oct 2022</text></g><g class="x3tick"><text text-anchor="start" x="0" y="447" style="font-family: 'Open Sans', verdana, arial, sans-serif; font-size: 10px; fill: rgb(68, 68, 68); fill-opacity: 1; white-space: pre; opacity: 1;" transform="translate(279.0433333333332,0) rotate(30,0,442)">Nov 2022</text></g><g class="x3tick"><text text-anchor="start" x="0" y="447" style="font-family: 'Open Sans', verdana, arial, sans-serif; font-size: 10px; fill: rgb(68, 68, 68); fill-opacity: 1; white-space: pre; opacity: 1;" transform="translate(316.6233333333332,0) rotate(30,0,442)">Dec 2022</text></g></g><g class="yaxislayer-above"/><g class="overaxes-above"/></g><g class="subplot x3y3"><g class="layer-subplot"><g class="shapelayer"/><g class="imagelayer"/></g><g class="gridlayer"><g class="x3"><path class="x3grid crisp" transform="translate(202.6433333333332,0)" d="M0,258.44000000000005v85.2288" style="stroke: rgb(238, 238, 238); stroke-opacity: 1; stroke-width: 1px;"/><path class="x3grid crisp" transform="translate(240.2133333333332,0)" d="M0,258.44000000000005v85.2288" style="stroke: rgb(238, 238, 238); stroke-opacity: 1; stroke-width: 1px;"/><path class="x3grid crisp" transform="translate(279.0433333333332,0)" d="M0,258.44000000000005v85.2288" style="stroke: rgb(238, 238, 238); stroke-opacity: 1; stroke-width: 1px;"/><path class="x3grid crisp" transform="translate(316.6233333333332,0)" d="M0,258.44000000000005v85.2288" style="stroke: rgb(238, 238, 238); stroke-opacity: 1; stroke-width: 1px;"/></g><g class="y3"><path class="y3grid crisp" transform="translate(0,322.83000000000004)" d="M193.8733333333332,0h125.2533333333336" style="stroke: rgb(238, 238, 238); stroke-opacity: 1; stroke-width: 1px;"/><path class="y3grid crisp" transform="translate(0,305.74000000000007)" d="M193.8733333333332,0h125.2533333333336" style="stroke: rgb(238, 238, 238); stroke-opacity: 1; stroke-width: 1px;"/><path class="y3grid crisp" transform="translate(0,288.64000000000004)" d="M193.8733333333332,0h125.2533333333336" style="stroke: rgb(238, 238, 238); stroke-opacity: 1; stroke-width: 1px;"/><path class="y3grid crisp" transform="translate(0,271.5400000000001)" d="M193.8733333333332,0h125.2533333333336" style="stroke: rgb(238, 238, 238); stroke-opacity: 1; stroke-width: 1px;"/></g></g><g class="zerolinelayer"><path class="y3zl zl crisp" transform="translate(0,339.93000000000006)" d="M193.8733333333332,0h125.2533333333336" style="stroke: rgb(68, 68, 68); stroke-opacity: 1; stroke-width: 1px;"/></g><path class="xlines-below"/><path class="ylines-below"/><g class="overlines-below"/><g class="xaxislayer-below"/><g class="yaxislayer-below"/><g class="overaxes-below"/><g class="plot" transform="translate(193.8733333333332,258.44000000000005)" clip-path="url(#clip595474x3y3plot)"><g class="scatterlayer mlayer"><g class="trace scatter trace9170ec" style="stroke-miterlimit: 2; opacity: 1;"><g class="fills"/><g class="errorbars"/><g class="lines"><path class="js-line" d="M0,35.33L2.51,66.98L3.76,69.31L6.26,43.97L7.52,37.89L8.77,50.66L10.02,55.02L11.27,67.03L12.53,69.98L15.03,39.21L16.28,51L17.54,49.42L18.79,55.64L20.04,66.69L21.29,69.47L23.8,36.64L25.05,42.21L26.3,38.62L27.56,49.4L28.81,64.56L30.06,67.05L32.57,31.34L33.82,43.42L35.07,37.45L36.32,39.42L37.58,64.92L38.83,68.25L41.33,17.39L42.59,36.68L43.84,16.12L45.09,38.08L46.34,65.56L47.6,68.78L48.85,52.74L50.1,5.55L51.35,25.13L52.61,6.87L53.86,26.14L55.11,65.96L56.36,69.61L57.62,22.12L58.87,4.26L60.12,25.42L61.37,19.83L62.63,35.55L63.88,68.91L65.13,72.03L66.38,15.41L67.64,12.47L68.89,34.51L70.14,23.72L72.65,73.38L73.9,75.25L76.4,22.03L77.66,46.58L78.91,44.82L80.16,54.69L81.41,73.92L82.67,78.78L83.92,63.32L85.17,58.75L86.42,58.96L87.68,49.64L88.93,43.42L90.18,78.83L91.43,78.99L92.69,59.41L93.94,48.88L95.19,64.38L96.45,61.16L97.7,40.26L98.95,76.9L100.2,79.84L101.46,57.93L102.71,49.98L103.96,64.85L105.21,61.08L106.47,27.17L107.72,79.4L108.97,79.86L110.22,60.6L111.48,48.12L112.73,61.47L113.98,58.43L115.23,21.34L116.49,78.99L117.74,79.65L120.24,39.78L121.5,58.79L122.75,53.65L124,18.58L125.25,78.82" style="vector-effect: non-scaling-stroke; fill: none; stroke: rgb(33, 113, 181); stroke-opacity: 1; stroke-width: 2px; opacity: 1;"/></g><g class="points"/><g class="text"/></g></g></g><g class="overplot"/><path class="xlines-above crisp" d="M0,0" style="fill: none;"/><path class="ylines-above crisp" d="M0,0" style="fill: none;"/><g class="overlines-above"/><g class="xaxislayer-above"/><g class="yaxislayer-above"/><g class="overaxes-above"/></g><g class="subplot x4y2"><g class="layer-subplot"><g class="shapelayer"/><g class="imagelayer"/></g><g class="gridlayer"><g class="x4"><path class="x4grid crisp" transform="translate(345.5766666666668,0)" d="M0,350.7712v85.22879999999999" style="stroke: rgb(238, 238, 238); stroke-opacity: 1; stroke-width: 1px;"/><path class="x4grid crisp" transform="translate(385.7066666666668,0)" d="M0,350.7712v85.22879999999999" style="stroke: rgb(238, 238, 238); stroke-opacity: 1; stroke-width: 1px;"/><path class="x4grid crisp" transform="translate(427.18666666666684,0)" d="M0,350.7712v85.22879999999999" style="stroke: rgb(238, 238, 238); stroke-opacity: 1; stroke-width: 1px;"/><path class="x4grid crisp" transform="translate(467.3266666666668,0)" d="M0,350.7712v85.22879999999999" style="stroke: rgb(238, 238, 238); stroke-opacity: 1; stroke-width: 1px;"/></g><g class="y2"><path class="y2grid crisp" transform="translate(0,390.9212)" d="M336.2066666666668,0h133.7933333333332" style="stroke: rgb(238, 238, 238); stroke-opacity: 1; stroke-width: 1px;"/></g></g><g class="zerolinelayer"><path class="y2zl zl crisp" transform="translate(0,431.75120000000004)" d="M336.2066666666668,0h133.7933333333332" style="stroke: rgb(68, 68, 68); stroke-opacity: 1; stroke-width: 1px;"/></g><path class="xlines-below"/><path class="ylines-below"/><g class="overlines-below"/><g class="xaxislayer-below"/><g class="yaxislayer-below"/><g class="overaxes-below"/><g class="plot" transform="translate(336.2066666666668,350.7712)" clip-path="url(#clip595474x4y2plot)"><g class="scatterlayer mlayer"><g class="trace scatter trace41754c" style="stroke-miterlimit: 2; opacity: 1;"><g class="fills"/><g class="errorbars"/><g class="lines"><path class="js-line" d="M0,64.9L2.68,72.29L4.01,72.46L5.35,68.55L6.69,68.42L10.7,71.51L12.04,75.23L13.38,74.81L14.72,69.89L16.06,69.54L17.39,72.58L18.73,73.25L20.07,79.3L22.74,76.39L24.08,77.46L26.76,80.85L28.1,57.9L29.43,75.46L30.77,80.05L32.11,80.03L33.45,73.45L34.79,79.66L36.12,79.68L37.46,51.99L38.8,79.33L40.14,80.97L41.48,79.02L42.81,71.47L44.15,79.64L45.49,79.02L46.83,57.11L48.17,79.97L49.5,80.18L50.84,71.94L52.18,76.78L53.52,79.73L54.86,78.45L56.19,54.92L57.53,78.92L58.87,80.29L60.21,71.01L61.54,79.89L62.88,79.15L64.22,79.97L65.56,59.01L66.9,77.95L68.23,80.47L69.57,68.66L70.91,80.04L73.59,80.06L74.92,58.75L76.26,80.3L77.6,80.2L78.94,80.23L80.28,66.4L81.61,79.67L82.95,79.38L84.29,67.63L85.63,72.13L86.97,80.01L88.3,63.35L89.64,79.57L90.98,79.61L92.32,79.4L93.66,64.83L94.99,69.09L96.33,79.47L97.67,62.49L99.01,78.69L101.68,78.05L103.02,57.32L104.36,70.22L105.7,75.17L107.03,58.76L108.37,78.31L111.05,77.99L112.39,32.47L113.72,76.61L115.06,78.92L116.4,59.26L117.74,77.57L119.08,77.22L120.41,77.71L121.75,35.54L123.09,68.04L124.43,78.18L125.77,56.32L127.1,77.44L128.44,78.86L129.78,77.09L131.12,13.68L132.46,75.94L133.79,78.38" style="vector-effect: non-scaling-stroke; fill: none; stroke: rgb(198, 219, 239); stroke-opacity: 1; stroke-width: 2px; opacity: 1;"/></g><g class="points"/><g class="text"/></g></g></g><g class="overplot"/><path class="xlines-above crisp" d="M0,0" style="fill: none;"/><path class="ylines-above crisp" d="M0,0" style="fill: none;"/><g class="overlines-above"/><g class="xaxislayer-above"><g class="x4tick"><text text-anchor="start" x="0" y="447" transform="translate(345.5766666666668,0) rotate(30,0,442)" style="font-family: 'Open Sans', verdana, arial, sans-serif; font-size: 10px; fill: rgb(68, 68, 68); fill-opacity: 1; white-space: pre; opacity: 1;">Sep 2022</text></g><g class="x4tick"><text text-anchor="start" x="0" y="447" style="font-family: 'Open Sans', verdana, arial, sans-serif; font-size: 10px; fill: rgb(68, 68, 68); fill-opacity: 1; white-space: pre; opacity: 1;" transform="translate(385.7066666666668,0) rotate(30,0,442)">Oct 2022</text></g><g class="x4tick"><text text-anchor="start" x="0" y="447" style="font-family: 'Open Sans', verdana, arial, sans-serif; font-size: 10px; fill: rgb(68, 68, 68); fill-opacity: 1; white-space: pre; opacity: 1;" transform="translate(427.18666666666684,0) rotate(30,0,442)">Nov 2022</text></g><g class="x4tick"><text text-anchor="start" x="0" y="447" style="font-family: 'Open Sans', verdana, arial, sans-serif; font-size: 10px; fill: rgb(68, 68, 68); fill-opacity: 1; white-space: pre; opacity: 1;" transform="translate(467.3266666666668,0) rotate(30,0,442)">Dec 2022</text></g></g><g class="yaxislayer-above"/><g class="overaxes-above"/></g><g class="subplot x4y3"><g class="layer-subplot"><g class="shapelayer"/><g class="imagelayer"/></g><g class="gridlayer"><g class="x4"><path class="x4grid crisp" transform="translate(345.5766666666668,0)" d="M0,258.44000000000005v85.2288" style="stroke: rgb(238, 238, 238); stroke-opacity: 1; stroke-width: 1px;"/><path class="x4grid crisp" transform="translate(385.7066666666668,0)" d="M0,258.44000000000005v85.2288" style="stroke: rgb(238, 238, 238); stroke-opacity: 1; stroke-width: 1px;"/><path class="x4grid crisp" transform="translate(427.18666666666684,0)" d="M0,258.44000000000005v85.2288" style="stroke: rgb(238, 238, 238); stroke-opacity: 1; stroke-width: 1px;"/><path class="x4grid crisp" transform="translate(467.3266666666668,0)" d="M0,258.44000000000005v85.2288" style="stroke: rgb(238, 238, 238); stroke-opacity: 1; stroke-width: 1px;"/></g><g class="y3"><path class="y3grid crisp" transform="translate(0,322.83000000000004)" d="M336.2066666666668,0h133.7933333333332" style="stroke: rgb(238, 238, 238); stroke-opacity: 1; stroke-width: 1px;"/><path class="y3grid crisp" transform="translate(0,305.74000000000007)" d="M336.2066666666668,0h133.7933333333332" style="stroke: rgb(238, 238, 238); stroke-opacity: 1; stroke-width: 1px;"/><path class="y3grid crisp" transform="translate(0,288.64000000000004)" d="M336.2066666666668,0h133.7933333333332" style="stroke: rgb(238, 238, 238); stroke-opacity: 1; stroke-width: 1px;"/><path class="y3grid crisp" transform="translate(0,271.5400000000001)" d="M336.2066666666668,0h133.7933333333332" style="stroke: rgb(238, 238, 238); stroke-opacity: 1; stroke-width: 1px;"/></g></g><g class="zerolinelayer"><path class="y3zl zl crisp" transform="translate(0,339.93000000000006)" d="M336.2066666666668,0h133.7933333333332" style="stroke: rgb(68, 68, 68); stroke-opacity: 1; stroke-width: 1px;"/></g><path class="xlines-below"/><path class="ylines-below"/><g class="overlines-below"/><g class="xaxislayer-below"/><g class="yaxislayer-below"/><g class="overaxes-below"/><g class="plot" transform="translate(336.2066666666668,258.44000000000005)" clip-path="url(#clip595474x4y3plot)"><g class="scatterlayer mlayer"><g class="trace scatter trace8adea8" style="stroke-miterlimit: 2; opacity: 1;"><g class="fills"/><g class="errorbars"/><g class="lines"><path class="js-line" d="M0,54.33L1.34,59.7L2.68,78.89L4.01,77.48L5.35,61.75L6.69,63.98L8.03,54.33L9.37,54.07L10.7,68.72L12.04,79.28L13.38,78.98L14.72,74.95L16.06,59.03L17.39,59.58L18.73,61.75L20.07,63.3L21.41,77.41L22.74,79.35L24.08,68.75L26.76,63.28L28.1,65.61L30.77,78.19L32.11,80.03L34.79,66.94L36.12,63.56L37.46,66.15L38.8,65.82L40.14,79.29L41.48,80.07L44.15,69.13L45.49,65.92L46.83,64.41L48.17,75.2L49.5,79.39L50.84,80.39L52.18,73.77L53.52,71.09L54.86,67.84L56.19,69.37L57.53,70.03L58.87,79.94L60.21,80.11L61.54,77.32L62.88,69.44L64.22,69.41L65.56,68.69L66.9,75.81L68.23,79.82L69.57,79.98L70.91,74.62L72.25,72.67L73.59,70.37L74.92,69.7L76.26,73.05L77.6,80.33L78.94,79.75L80.28,74.52L81.61,72.44L82.95,68.59L84.29,69.73L85.63,75.44L86.97,79.72L88.3,80.41L89.64,73.59L90.98,72L92.32,68.08L93.66,67.84L96.33,80.53L97.67,80.13L99.01,73.75L100.34,75.49L101.68,64.09L103.02,68.59L104.36,78.57L105.7,80.44L107.03,80.97L108.37,72.15L109.71,70.31L111.05,66.53L112.39,71.21L113.72,71.3L115.06,80.49L116.4,80.74L117.74,73.03L119.08,70.34L120.41,61.49L121.75,78.28L123.09,77.22L124.43,80.88L125.77,80.56L127.1,70.84L128.44,68.53L129.78,62.03L131.12,57.85L132.46,74.33L133.79,80.17" style="vector-effect: non-scaling-stroke; fill: none; stroke: rgb(66, 146, 198); stroke-opacity: 1; stroke-width: 2px; opacity: 1;"/></g><g class="points"/><g class="text"/></g></g></g><g class="overplot"/><path class="xlines-above crisp" d="M0,0" style="fill: none;"/><path class="ylines-above crisp" d="M0,0" style="fill: none;"/><g class="overlines-above"/><g class="xaxislayer-above"/><g class="yaxislayer-above"/><g class="overaxes-above"/></g></g><g class="polarlayer"/><g class="ternarylayer"/><g class="geolayer"/><g class="funnelarealayer"/><g class="pielayer"/><g class="iciclelayer"/><g class="treemaplayer"/><g class="sunburstlayer"/><g class="glimages"/><defs id="topdefs-595474"><g class="clips"/><clipPath id="legend595474"><rect width="105" height="143" x="0" y="0"/></clipPath></defs><g class="layer-above"><g class="imagelayer"/><g class="shapelayer"/></g><g class="infolayer"><g class="legend" pointer-events="all" transform="translate(478.54,50)"><rect class="bg" shape-rendering="crispEdges" width="105" height="143" x="0" y="0" style="stroke: rgb(68, 68, 68); stroke-opacity: 1; fill: rgb(255, 255, 255); fill-opacity: 1; stroke-width: 0px;"/><g class="scrollbox" transform="" clip-path="url(#legend595474)"><g class="groups"><g class="traces" transform="translate(0,14.5)" style="opacity: 1;"><text class="legendtext" text-anchor="start" x="40" y="4.680000000000001" style="font-family: 'Open Sans', verdana, arial, sans-serif; font-size: 12px; fill: rgb(68, 68, 68); fill-opacity: 1; white-space: pre;">한국</text><g class="layers" style="opacity: 1;"><g class="legendfill"/><g class="legendlines"><path class="js-line" d="M5,0h30" style="fill: none; stroke: rgb(8, 48, 107); stroke-opacity: 1; stroke-width: 2px;"/></g><g class="legendsymbols"><g class="legendpoints"/></g></g><rect class="legendtoggle" x="0" y="-9.5" width="99.98401641845703" height="19" style="fill: rgb(0, 0, 0); fill-opacity: 0;"/></g><g class="traces" transform="translate(0,33.5)" style="opacity: 1;"><text class="legendtext" text-anchor="start" x="40" y="4.680000000000001" style="font-family: 'Open Sans', verdana, arial, sans-serif; font-size: 12px; fill: rgb(68, 68, 68); fill-opacity: 1; white-space: pre;">아시아</text><g class="layers" style="opacity: 1;"><g class="legendfill"/><g class="legendlines"><path class="js-line" d="M5,0h30" style="fill: none; stroke: rgb(8, 81, 156); stroke-opacity: 1; stroke-width: 2px;"/></g><g class="legendsymbols"><g class="legendpoints"/></g></g><rect class="legendtoggle" x="0" y="-9.5" width="99.98401641845703" height="19" style="fill: rgb(0, 0, 0); fill-opacity: 0;"/></g><g class="traces" transform="translate(0,52.5)" style="opacity: 1;"><text class="legendtext" text-anchor="start" x="40" y="4.680000000000001" style="font-family: 'Open Sans', verdana, arial, sans-serif; font-size: 12px; fill: rgb(68, 68, 68); fill-opacity: 1; white-space: pre;">유럽</text><g class="layers" style="opacity: 1;"><g class="legendfill"/><g class="legendlines"><path class="js-line" d="M5,0h30" style="fill: none; stroke: rgb(33, 113, 181); stroke-opacity: 1; stroke-width: 2px;"/></g><g class="legendsymbols"><g class="legendpoints"/></g></g><rect class="legendtoggle" x="0" y="-9.5" width="99.98401641845703" height="19" style="fill: rgb(0, 0, 0); fill-opacity: 0;"/></g><g class="traces" transform="translate(0,71.5)" style="opacity: 1;"><text class="legendtext" text-anchor="start" x="40" y="4.680000000000001" style="font-family: 'Open Sans', verdana, arial, sans-serif; font-size: 12px; fill: rgb(68, 68, 68); fill-opacity: 1; white-space: pre;">북미</text><g class="layers" style="opacity: 1;"><g class="legendfill"/><g class="legendlines"><path class="js-line" d="M5,0h30" style="fill: none; stroke: rgb(66, 146, 198); stroke-opacity: 1; stroke-width: 2px;"/></g><g class="legendsymbols"><g class="legendpoints"/></g></g><rect class="legendtoggle" x="0" y="-9.5" width="99.98401641845703" height="19" style="fill: rgb(0, 0, 0); fill-opacity: 0;"/></g><g class="traces" transform="translate(0,90.5)" style="opacity: 1;"><text class="legendtext" text-anchor="start" x="40" y="4.680000000000001" style="font-family: 'Open Sans', verdana, arial, sans-serif; font-size: 12px; fill: rgb(68, 68, 68); fill-opacity: 1; white-space: pre;">남미</text><g class="layers" style="opacity: 1;"><g class="legendfill"/><g class="legendlines"><path class="js-line" d="M5,0h30" style="fill: none; stroke: rgb(107, 174, 214); stroke-opacity: 1; stroke-width: 2px;"/></g><g class="legendsymbols"><g class="legendpoints"/></g></g><rect class="legendtoggle" x="0" y="-9.5" width="99.98401641845703" height="19" style="fill: rgb(0, 0, 0); fill-opacity: 0;"/></g><g class="traces" transform="translate(0,109.5)" style="opacity: 1;"><text class="legendtext" text-anchor="start" x="40" y="4.680000000000001" style="font-family: 'Open Sans', verdana, arial, sans-serif; font-size: 12px; fill: rgb(68, 68, 68); fill-opacity: 1; white-space: pre;">오세아니아</text><g class="layers" style="opacity: 1;"><g class="legendfill"/><g class="legendlines"><path class="js-line" d="M5,0h30" style="fill: none; stroke: rgb(158, 202, 225); stroke-opacity: 1; stroke-width: 2px;"/></g><g class="legendsymbols"><g class="legendpoints"/></g></g><rect class="legendtoggle" x="0" y="-9.5" width="99.98401641845703" height="19" style="fill: rgb(0, 0, 0); fill-opacity: 0;"/></g><g class="traces" transform="translate(0,128.5)" style="opacity: 1;"><text class="legendtext" text-anchor="start" x="40" y="4.680000000000001" style="font-family: 'Open Sans', verdana, arial, sans-serif; font-size: 12px; fill: rgb(68, 68, 68); fill-opacity: 1; white-space: pre;">아프리카</text><g class="layers" style="opacity: 1;"><g class="legendfill"/><g class="legendlines"><path class="js-line" d="M5,0h30" style="fill: none; stroke: rgb(198, 219, 239); stroke-opacity: 1; stroke-width: 2px;"/></g><g class="legendsymbols"><g class="legendpoints"/></g></g><rect class="legendtoggle" x="0" y="-9.5" width="99.98401641845703" height="19" style="fill: rgb(0, 0, 0); fill-opacity: 0;"/></g></g></g><rect class="scrollbar" rx="20" ry="3" width="0" height="0" x="0" y="0" style="fill: rgb(128, 139, 164); fill-opacity: 1;"/></g><g class="g-gtitle"><text class="gtitle" x="298.182" y="25" text-anchor="middle" dy="0em" style="font-family: 'Open Sans', verdana, arial, sans-serif; font-size: 17px; fill: rgb(68, 68, 68); opacity: 1; font-weight: normal; white-space: pre;">최근 100일간 코로나19 확진자수</text></g><g class="g-xtitle"/><g class="g-x2title"/><g class="g-x3title"/><g class="g-x4title"/><g class="g-ytitle"/><g class="g-y2title"/><g class="g-y3title"/></g></svg>