<svg class="main-svg" xmlns="http://www.w3.org/2000/svg" xmlns:xlink="http://www.w3.org/1999/xlink" width="596.364" height="483.636" style="" viewBox="0 0 596.364 483.636"><rect x="0" y="0" width="596.364" height="483.636" style="fill: rgb(255, 255, 255); fill-opacity: 1;"/><defs id="defs-09b420"><g class="clips"><clipPath id="clip09b420xyplot" class="plotclip"><rect width="395" height="416"/></clipPath><clipPath class="axesclip" id="clip09b420x"><rect x="78" y="0" width="395" height="483.636"/></clipPath><clipPath class="axesclip" id="clip09b420y"><rect x="0" y="25" width="596.364" height="416"/></clipPath><clipPath class="axesclip" id="clip09b420xy"><rect x="78" y="25" width="395" height="416"/></clipPath></g><g class="gradients"/><g class="patterns"/></defs><g class="bglayer"><rect class="bg" x="78" y="25" width="395" height="416" style="fill: rgb(235, 235, 235); fill-opacity: 1; stroke-width: 0;"/></g><g class="layer-below"><g class="imagelayer"/><g class="shapelayer"/></g><g class="cartesianlayer"><g class="subplot xy"><g class="layer-subplot"><g class="shapelayer"/><g class="imagelayer"/></g><g class="gridlayer"><g class="x"><path class="xgrid crisp" transform="translate(121.09,0)" d="M0,25v416" style="stroke: rgb(255, 255, 255); stroke-opacity: 1; stroke-width: 0.664176px;"/><path class="xgrid crisp" transform="translate(228.82,0)" d="M0,25v416" style="stroke: rgb(255, 255, 255); stroke-opacity: 1; stroke-width: 0.664176px;"/><path class="xgrid crisp" transform="translate(340.14,0)" d="M0,25v416" style="stroke: rgb(255, 255, 255); stroke-opacity: 1; stroke-width: 0.664176px;"/><path class="xgrid crisp" transform="translate(447.86,0)" d="M0,25v416" style="stroke: rgb(255, 255, 255); stroke-opacity: 1; stroke-width: 0.664176px;"/></g><g class="y"><path class="ygrid crisp" transform="translate(0,422.09)" d="M78,0h395" style="stroke: rgb(255, 255, 255); stroke-opacity: 1; stroke-width: 0.664176px;"/><path class="ygrid crisp" transform="translate(0,338.37)" d="M78,0h395" style="stroke: rgb(255, 255, 255); stroke-opacity: 1; stroke-width: 0.664176px;"/><path class="ygrid crisp" transform="translate(0,254.64)" d="M78,0h395" style="stroke: rgb(255, 255, 255); stroke-opacity: 1; stroke-width: 0.664176px;"/><path class="ygrid crisp" transform="translate(0,170.92)" d="M78,0h395" style="stroke: rgb(255, 255, 255); stroke-opacity: 1; stroke-width: 0.664176px;"/><path class="ygrid crisp" transform="translate(0,87.19)" d="M78,0h395" style="stroke: rgb(255, 255, 255); stroke-opacity: 1; stroke-width: 0.664176px;"/></g></g><g class="zerolinelayer"/><path class="xlines-below"/><path class="ylines-below"/><g class="overlines-below"/><g class="xaxislayer-below"/><g class="yaxislayer-below"/><g class="overaxes-below"/><g class="plot" transform="translate(78,25)" clip-path="url(#clip09b420xyplot)"><g class="scatterlayer mlayer"><g class="trace scatter trace789e1c" style="stroke-miterlimit: 2; opacity: 1;"><g class="fills"/><g class="errorbars"/><g class="lines"><path class="js-line" d="M17.95,312.48L21.55,317.1L25.14,325.68L28.73,360.97L32.32,300.37L35.91,310.09L39.5,328.86L43.09,322.13L46.68,330.43L50.27,336.69L53.86,365.65L57.45,313.59L61.05,325.52L64.64,336.31L68.23,339L71.82,361.32L75.41,373.47L79,366.16L82.59,349.11L86.18,397.09L89.77,258.66L93.36,353.69L96.95,360.75L100.55,367.98L104.14,380.84L107.73,357.02L111.32,362.57L114.91,369.49L118.5,372.74L122.09,372.55L125.68,375.5L129.27,385.23L132.86,364.13L136.45,366.84L140.05,371.27L150.82,377.33L154.41,386.92L158,383.34L161.59,368.03L168.77,378.45L172.36,380.87L175.95,382.31L179.55,389.57L183.14,384.13L186.73,371.55L193.91,377.36L197.5,378.04L201.09,379.12L204.68,387.85L208.27,369.3L211.86,372.41L215.45,375.85L219.05,376.4L222.64,374.63L226.23,375.11L229.82,385.12L233.41,360.49L237,362.93L240.59,367.83L247.77,365.87L251.36,368.2L254.95,381.59L258.55,348.23L262.14,351.26L265.73,357.85L276.5,366.38L280.09,381.46L283.68,344.95L287.27,344.79L290.86,350.74L294.45,351.45L298.05,351.69L301.64,356.51L305.23,377.19L308.82,336.07L312.41,341.34L316,350.68L319.59,355.72L323.18,354.86L326.77,358.57L330.36,377.76L333.95,336.08L337.55,338.21L341.14,347.62L344.73,352.13L348.32,353.01L351.91,357.72L355.5,378.4L359.09,337.25L362.68,340.65L366.27,349.3L369.86,352.73L373.45,352.95L377.05,358.11" style="vector-effect: non-scaling-stroke; fill: none; stroke: rgb(248, 118, 109); stroke-opacity: 1; stroke-width: 1.88976px; opacity: 1;"/></g><g class="points"/><g class="text"/></g><g class="trace scatter trace3c06ed" style="stroke-miterlimit: 2; opacity: 1;"><g class="fills"/><g class="errorbars"/><g class="lines"><path class="js-line" d="M17.95,54.19L21.55,98.31L25.14,121.85L28.73,170.03L32.32,176.15L35.91,121.44L39.5,112.29L43.09,132.61L46.68,94.57L50.27,176.9L53.86,177.98L57.45,203.24L61.05,169.3L64.64,157.56L68.23,183.78L71.82,220.36L75.41,237.25L79,219.39L82.59,214.62L86.18,254.48L89.77,102.93L93.36,215.28L96.95,233.64L104.14,268.89L107.73,276.39L111.32,273.71L114.91,245.04L118.5,231.31L122.09,263.01L125.68,272.33L129.27,292.24L132.86,285.28L136.45,270.46L140.05,265.44L143.64,278.72L147.23,285.67L150.82,290.1L154.41,311.36L158,325.95L161.59,271.89L165.18,271.81L168.77,290.66L172.36,292.98L175.95,301.81L179.55,294.45L183.14,304.62L186.73,298.4L190.32,267.23L193.91,268.76L197.5,283.26L201.09,289.98L204.68,308.35L208.27,313.19L211.86,272.31L215.45,277.84L219.05,290.02L222.64,295.03L226.23,296.13L229.82,310.01L233.41,306.75L237,271.05L240.59,268.87L244.18,278.29L247.77,281.66L251.36,283.76L254.95,300.75L258.55,291.53L262.14,246.56L265.73,247.01L269.32,254.57L272.91,286.55L276.5,257.64L280.09,287.2L283.68,284.06L287.27,228.34L290.86,222.66L294.45,243.69L298.05,244.72L301.64,235.99L305.23,284.04L308.82,259.84L312.41,203.04L316,186.35L319.59,238.44L323.18,225.23L326.77,212.94L330.36,257.67L333.95,249.79L337.55,198.76L341.14,133.77L344.73,263.54L348.32,194.94L351.91,193.52L355.5,232.39L359.09,237.2L362.68,136.54L366.27,190.46L369.86,189.31L373.45,178.14L377.05,233.79" style="vector-effect: non-scaling-stroke; fill: none; stroke: rgb(196, 154, 0); stroke-opacity: 1; stroke-width: 1.88976px; opacity: 1; stroke-dasharray: 9px, 9px;"/></g><g class="points"/><g class="text"/></g><g class="trace scatter tracee13e47" style="stroke-miterlimit: 2; opacity: 1;"><g class="fills"/><g class="errorbars"/><g class="lines"><path class="js-line" d="M17.95,171.03L21.55,259.55L25.14,326.03L28.73,337.44L32.32,258.51L35.91,213.36L39.5,183.58L43.09,246.13L46.68,267.44L50.27,326.28L53.86,340.73L61.05,190.04L64.64,247.78L68.23,240.05L71.82,270.49L75.41,324.59L79,338.22L82.59,238.65L86.18,177.45L89.77,204.72L93.36,187.18L96.95,239.96L100.55,314.17L104.14,326.38L107.73,226.82L111.32,151.49L114.91,210.67L118.5,181.42L122.09,191.06L125.68,315.95L129.27,332.26L132.86,186.22L136.45,83.2L140.05,177.65L143.64,76.97L147.23,184.51L150.82,319.1L154.41,334.85L158,256.28L161.59,25.21L165.18,121.07L168.77,31.67L172.36,126.03L175.95,321.02L179.55,338.88L183.14,106.37L186.73,18.91L190.32,122.53L193.91,95.16L197.5,172.12L201.09,335.49L204.68,350.76L208.27,73.52L211.86,59.12L215.45,167.01L219.05,114.21L222.64,209.9L226.23,357.37L229.82,366.5L233.41,190.13L237,105.94L240.59,226.12L244.18,217.54L247.77,265.86L251.36,360.02L254.95,383.78L258.55,308.09L262.14,285.7L265.73,286.74L269.32,241.13L272.91,210.67L276.5,384.07L280.09,384.84L283.68,288.95L287.27,237.41L290.86,313.3L294.45,297.53L298.05,195.2L301.64,374.6L305.23,389L308.82,281.69L312.41,242.79L316,315.62L319.59,297.15L323.18,131.08L326.77,386.87L330.36,389.07L333.95,294.77L337.55,233.65L341.14,299.07L344.73,284.18L348.32,102.51L351.91,384.86L355.5,388.08L359.09,263.38L362.68,192.82L366.27,285.94L369.86,260.74L373.45,89.03L377.05,384.01" style="vector-effect: non-scaling-stroke; fill: none; stroke: rgb(83, 180, 0); stroke-opacity: 1; stroke-width: 1.88976px; opacity: 1; stroke-dasharray: 3px, 3px;"/></g><g class="points"/><g class="text"/></g><g class="trace scatter trace6443dd" style="stroke-miterlimit: 2; opacity: 1;"><g class="fills"/><g class="errorbars"/><g class="lines"><path class="js-line" d="M17.95,264.07L21.55,290.36L25.14,384.35L28.73,377.43L32.32,300.42L35.91,311.35L39.5,264.1L43.09,262.82L46.68,334.54L50.27,386.25L53.86,384.77L57.45,365.07L61.05,287.12L64.64,289.77L68.23,300.44L71.82,308.01L75.41,377.11L79,386.6L82.59,334.7L86.18,318.59L89.77,307.91L93.36,319.33L96.95,345.35L100.55,380.93L104.14,389.94L107.73,348.36L111.32,325.85L114.91,309.27L118.5,321.96L122.09,320.36L125.68,386.31L129.27,390.15L132.86,357.03L136.45,336.57L140.05,320.84L143.64,313.42L147.23,366.3L150.82,386.8L154.41,391.71L158,359.27L161.59,346.13L165.18,330.23L168.77,337.71L172.36,340.95L175.95,389.49L179.55,390.33L183.14,376.65L186.73,338.09L190.32,337.95L193.91,334.38L197.5,369.29L201.09,388.92L204.68,389.68L208.27,363.42L211.86,353.9L215.45,342.64L219.05,339.33L222.64,355.76L226.23,391.37L229.82,388.56L233.41,362.96L237,352.76L240.59,333.89L244.18,339.47L247.77,367.47L251.36,388.42L254.95,391.78L258.55,358.4L262.14,350.59L265.73,331.4L269.32,330.26L276.5,392.37L280.09,390.41L283.68,359.16L287.27,367.72L290.86,311.89L294.45,333.93L298.05,382.78L301.64,391.92L305.23,394.52L308.82,351.34L312.41,342.35L316,323.82L319.59,346.76L323.18,347.2L326.77,392.18L330.36,393.42L333.95,355.67L337.55,342.47L341.14,299.15L344.73,381.35L348.32,376.15L351.91,394.1L355.5,392.53L359.09,344.93L362.68,333.62L366.27,301.78L369.86,281.3L373.45,362.03L377.05,390.63" style="vector-effect: non-scaling-stroke; fill: none; stroke: rgb(0, 192, 148); stroke-opacity: 1; stroke-width: 1.88976px; opacity: 1; stroke-dasharray: 9px, 3px, 3px, 3px;"/></g><g class="points"/><g class="text"/></g><g class="trace scatter tracef3b769" style="stroke-miterlimit: 2; opacity: 1;"><g class="fills"/><g class="errorbars"/><g class="lines"><path class="js-line" d="M17.95,361.18L21.55,369.16L25.14,386.57L28.73,372.4L32.32,365.75L35.91,377.37L39.5,377.08L43.09,393.24L46.68,355.6L50.27,390L53.86,381.65L57.45,373.32L61.05,393.24L68.23,388.96L71.82,356.98L75.41,391.1L79,386.12L82.59,378.6L86.18,385.59L89.77,382.07L93.36,386.17L96.95,395.97L100.55,396.24L104.14,391.16L107.73,376.37L111.32,378.51L114.91,391.6L118.5,370.61L122.09,385.63L125.68,392.68L129.27,389.53L132.86,381.83L136.45,393.37L140.05,380.24L143.64,392.04L147.23,376.77L150.82,391.98L154.41,391.86L158,384.16L161.59,395.1L165.18,381.68L168.77,384.79L172.36,393.4L175.95,393.63L179.55,392.19L183.14,380.88L186.73,388.11L190.32,394.72L193.91,384.43L197.5,386.63L201.09,392.5L204.68,391.71L208.27,393.26L211.86,394.58L215.45,371L219.05,390.96L222.64,383.27L226.23,391.85L229.82,389.84L233.41,390.06L237,381.14L240.59,384.2L244.18,382.09L247.77,390.43L251.36,390.86L254.95,390.68L258.55,380.96L265.73,393.62L269.32,385.17L272.91,387.55L276.5,387.7L280.09,389.1L283.68,386.53L287.27,392.4L290.86,388.81L294.45,359.04L298.05,373.25L301.64,389.66L305.23,390.43L308.82,393L312.41,390.89L316,364.4L319.59,360.05L323.18,364.82L326.77,391.93L330.36,384.87L333.95,393.33L337.55,345.08L341.14,367.11L344.73,361.77L348.32,349.17L351.91,392.91L355.5,381.86L359.09,391.32L362.68,322.01L366.27,380.69L369.86,318.42L373.45,351.59L377.05,343.33" style="vector-effect: non-scaling-stroke; fill: none; stroke: rgb(0, 182, 235); stroke-opacity: 1; stroke-width: 1.88976px; opacity: 1; stroke-dasharray: 15px, 15px;"/></g><g class="points"/><g class="text"/></g><g class="trace scatter trace7d488b" style="stroke-miterlimit: 2; opacity: 1;"><g class="fills"/><g class="errorbars"/><g class="lines"><path class="js-line" d="M17.95,396.11L21.55,395.56L25.14,396.65L28.73,396.84L32.32,396.27L35.91,394.05L39.5,396.47L53.86,396.6L57.45,394.95L64.64,396.02L68.23,396.4L71.82,396.1L75.41,396.62L79,396.75L82.59,395.49L86.18,394.78L89.77,396.42L93.36,396.08L96.95,396.53L129.27,396.68L132.86,395.45L140.05,396.96L143.64,394.96L147.23,396.6L150.82,396.6L154.41,396.91L158,396.46L161.59,396.07L165.18,396.44L172.36,396.64L175.95,396.93L186.73,395.91L190.32,396.48L204.68,396.8L208.27,395.21L211.86,396.5L215.45,396.57L219.05,395.99L222.64,396.61L229.82,396.79L233.41,392.74L237,395.31L240.59,396.51L254.95,396.58L258.55,395.9L280.09,396.76L283.68,394.57L287.27,396.32L290.86,396.3L294.45,394.53L298.05,396.35L305.23,396.83L308.82,395.73L312.41,395.42L316,396.05L330.36,396.74L333.95,396.17L337.55,396.08L341.14,391.48L344.73,396.33L348.32,396.5L355.5,396.57L359.09,396.41L362.68,395.69L366.27,390.9L369.86,396.55L373.45,396.55L377.05,396.65" style="vector-effect: non-scaling-stroke; fill: none; stroke: rgb(165, 138, 255); stroke-opacity: 1; stroke-width: 1.88976px; opacity: 1; stroke-dasharray: 15px, 6px, 3px, 6px;"/></g><g class="points"/><g class="text"/></g><g class="trace scatter trace56fc38" style="stroke-miterlimit: 2; opacity: 1;"><g class="fills"/><g class="errorbars"/><g class="lines"><path class="js-line" d="M17.95,380.6L21.55,385.16L25.14,388.18L28.73,388.36L32.32,384.34L35.91,384.22L39.5,385.29L43.09,386.98L46.68,387.38L50.27,391.2L53.86,390.76L57.45,385.72L61.05,385.36L64.64,388.47L68.23,389.17L71.82,395.37L75.41,393.65L79,392.38L82.59,393.48L89.77,396.96L93.36,373.43L96.95,391.43L100.55,396.13L104.14,396.11L107.73,389.37L111.32,395.73L114.91,395.76L118.5,367.36L122.09,395.4L125.68,397.08L129.27,395.08L132.86,387.34L136.45,395.72L140.05,395.08L143.64,372.62L147.23,396.06L150.82,396.27L154.41,387.82L158,392.78L161.59,395.8L165.18,394.5L168.77,370.37L172.36,394.98L175.95,396.39L179.55,386.86L183.14,395.97L186.73,395.21L190.32,396.05L193.91,374.56L197.5,393.99L201.09,396.57L204.68,384.46L208.27,396.13L215.45,396.15L219.05,374.29L222.64,396.39L226.23,396.3L229.82,396.32L233.41,382.14L237,395.74L240.59,395.45L244.18,383.4L247.77,388.02L251.36,396.1L254.95,379.01L258.55,395.65L262.14,395.68L265.73,395.47L269.32,380.53L272.91,384.9L276.5,395.54L280.09,378.13L283.68,394.74L290.86,394.09L294.45,372.83L298.05,386.06L301.64,391.13L305.23,374.3L308.82,394.35L316,394.02L319.59,347.35L323.18,392.61L326.77,394.98L330.36,374.82L333.95,393.59L337.55,393.24L341.14,393.74L344.73,350.5L348.32,383.82L351.91,394.22L355.5,371.81L359.09,393.46L362.68,394.92L366.27,393.1L369.86,328.08L373.45,391.93L377.05,394.43" style="vector-effect: non-scaling-stroke; fill: none; stroke: rgb(251, 97, 215); stroke-opacity: 1; stroke-width: 1.88976px; opacity: 1; stroke-dasharray: 9px, 9px;"/></g><g class="points"/><g class="text"/></g></g></g><g class="overplot"/><path class="xlines-above crisp" d="" style="fill: none; stroke-width: 1px; stroke: rgb(0, 0, 0); stroke-opacity: 0;"/><path class="ylines-above crisp" d="" style="fill: none; stroke-width: 1px; stroke: rgb(0, 0, 0); stroke-opacity: 0;"/><g class="overlines-above"/><g class="xaxislayer-above"><path class="xtick ticks crisp" d="M0,442v3.65296803652968" transform="translate(121.09,0)" style="stroke: rgb(51, 51, 51); stroke-opacity: 1; stroke-width: 0.664176px;"/><path class="xtick ticks crisp" d="M0,442v3.65296803652968" transform="translate(228.82,0)" style="stroke: rgb(51, 51, 51); stroke-opacity: 1; stroke-width: 0.664176px;"/><path class="xtick ticks crisp" d="M0,442v3.65296803652968" transform="translate(340.14,0)" style="stroke: rgb(51, 51, 51); stroke-opacity: 1; stroke-width: 0.664176px;"/><path class="xtick ticks crisp" d="M0,442v3.65296803652968" transform="translate(447.86,0)" style="stroke: rgb(51, 51, 51); stroke-opacity: 1; stroke-width: 0.664176px;"/><g class="xtick"><text text-anchor="middle" x="0" y="459.6803652968037" transform="translate(121.09,0)" style="font-family: 'Open Sans', verdana, arial, sans-serif; font-size: 11.6895px; fill: rgb(77, 77, 77); fill-opacity: 1; white-space: pre; opacity: 1;">2022-09-01</text></g><g class="xtick"><text text-anchor="middle" x="0" y="459.6803652968037" style="font-family: 'Open Sans', verdana, arial, sans-serif; font-size: 11.6895px; fill: rgb(77, 77, 77); fill-opacity: 1; white-space: pre; opacity: 1;" transform="translate(228.82,0)">2022-10-01</text></g><g class="xtick"><text text-anchor="middle" x="0" y="459.6803652968037" style="font-family: 'Open Sans', verdana, arial, sans-serif; font-size: 11.6895px; fill: rgb(77, 77, 77); fill-opacity: 1; white-space: pre; opacity: 1;" transform="translate(340.14,0)">2022-11-01</text></g><g class="xtick"><text text-anchor="middle" x="0" y="459.6803652968037" style="font-family: 'Open Sans', verdana, arial, sans-serif; font-size: 11.6895px; fill: rgb(77, 77, 77); fill-opacity: 1; white-space: pre; opacity: 1;" transform="translate(447.86,0)">2022-12-01</text></g></g><g class="yaxislayer-above"><path class="ytick ticks crisp" d="M77,0h-3.65296803652968" transform="translate(0,422.09)" style="stroke: rgb(51, 51, 51); stroke-opacity: 1; stroke-width: 0.664176px;"/><path class="ytick ticks crisp" d="M77,0h-3.65296803652968" transform="translate(0,338.37)" style="stroke: rgb(51, 51, 51); stroke-opacity: 1; stroke-width: 0.664176px;"/><path class="ytick ticks crisp" d="M77,0h-3.65296803652968" transform="translate(0,254.64)" style="stroke: rgb(51, 51, 51); stroke-opacity: 1; stroke-width: 0.664176px;"/><path class="ytick ticks crisp" d="M77,0h-3.65296803652968" transform="translate(0,170.92)" style="stroke: rgb(51, 51, 51); stroke-opacity: 1; stroke-width: 0.664176px;"/><path class="ytick ticks crisp" d="M77,0h-3.65296803652968" transform="translate(0,87.19)" style="stroke: rgb(51, 51, 51); stroke-opacity: 1; stroke-width: 0.664176px;"/><g class="ytick"><text text-anchor="end" x="71.00913242009132" y="4.09132420091325" transform="translate(0,422.09)" style="font-family: 'Open Sans', verdana, arial, sans-serif; font-size: 11.6895px; fill: rgb(77, 77, 77); fill-opacity: 1; white-space: pre; opacity: 1;">0</text></g><g class="ytick"><text text-anchor="end" x="71.00913242009132" y="4.09132420091325" style="font-family: 'Open Sans', verdana, arial, sans-serif; font-size: 11.6895px; fill: rgb(77, 77, 77); fill-opacity: 1; white-space: pre; opacity: 1;" transform="translate(0,338.37)">100,000</text></g><g class="ytick"><text text-anchor="end" x="71.00913242009132" y="4.09132420091325" style="font-family: 'Open Sans', verdana, arial, sans-serif; font-size: 11.6895px; fill: rgb(77, 77, 77); fill-opacity: 1; white-space: pre; opacity: 1;" transform="translate(0,254.64)">200,000</text></g><g class="ytick"><text text-anchor="end" x="71.00913242009132" y="4.09132420091325" style="font-family: 'Open Sans', verdana, arial, sans-serif; font-size: 11.6895px; fill: rgb(77, 77, 77); fill-opacity: 1; white-space: pre; opacity: 1;" transform="translate(0,170.92)">300,000</text></g><g class="ytick"><text text-anchor="end" x="71.00913242009132" y="4.09132420091325" style="font-family: 'Open Sans', verdana, arial, sans-serif; font-size: 11.6895px; fill: rgb(77, 77, 77); fill-opacity: 1; white-space: pre; opacity: 1;" transform="translate(0,87.19)">400,000</text></g></g><g class="overaxes-above"/></g></g><g class="polarlayer"/><g class="ternarylayer"/><g class="geolayer"/><g class="funnelarealayer"/><g class="pielayer"/><g class="iciclelayer"/><g class="treemaplayer"/><g class="sunburstlayer"/><g class="glimages"/><defs id="topdefs-09b420"><g class="clips"/><clipPath id="legend09b420"><rect width="104.22047244094487" height="222.2204724409449" x="1.88976377952756" y="1.88976377952756"/></clipPath></defs><g class="layer-above"><g class="imagelayer"/><g class="shapelayer"><path data-index="0" fill-rule="evenodd" d="M78,441H473V25H78Z" style="opacity: 1; stroke: rgb(0, 0, 0); stroke-opacity: 0; fill: rgb(0, 0, 0); fill-opacity: 0; stroke-width: 0px;"/></g></g><g class="infolayer"><g class="legend" pointer-events="all" transform="translate(480.90000000000003,25)"><rect class="bg" shape-rendering="crispEdges" width="106.11023622047244" height="224.11023622047244" x="0.94488188976378" y="0.94488188976378" style="stroke: rgb(0, 0, 0); stroke-opacity: 0; fill: rgb(255, 255, 255); fill-opacity: 1; stroke-width: 1.88976px;"/><g class="scrollbox" transform="" clip-path="url(#legend09b420)"><text class="legendtitletext" text-anchor="start" x="3.88976377952756" y="20.885197569481868" style="font-family: 'Open Sans', verdana, arial, sans-serif; font-size: 14.6119px; fill: rgb(0, 0, 0); fill-opacity: 1; white-space: pre;">지역</text><g class="groups" transform=""><g class="traces" transform="translate(1.88976377952756,35.38519756948187)" style="opacity: 1;"><text class="legendtext" text-anchor="start" x="40" y="4.55890410958905" style="font-family: 'Open Sans', verdana, arial, sans-serif; font-size: 11.6895px; fill: rgb(0, 0, 0); fill-opacity: 1; white-space: pre;">한국</text><g class="layers" style="opacity: 1;"><g class="legendfill"/><g class="legendlines"><path class="js-line" d="M5,0h30" style="fill: none; stroke: rgb(248, 118, 109); stroke-opacity: 1; stroke-width: 1.88976px;"/></g><g class="legendsymbols"><g class="legendpoints"/></g></g><rect class="legendtoggle" x="0" y="-9.5" width="98.5316047668457" height="19" style="fill: rgb(0, 0, 0); fill-opacity: 0;"/></g></g><g class="groups" transform="translate(0,10)"><g class="traces" transform="translate(1.88976377952756,54.38519756948187)" style="opacity: 1;"><text class="legendtext" text-anchor="start" x="40" y="4.55890410958905" style="font-family: 'Open Sans', verdana, arial, sans-serif; font-size: 11.6895px; fill: rgb(0, 0, 0); fill-opacity: 1; white-space: pre;">아시아</text><g class="layers" style="opacity: 1;"><g class="legendfill"/><g class="legendlines"><path class="js-line" d="M5,0h30" style="fill: none; stroke: rgb(196, 154, 0); stroke-opacity: 1; stroke-dasharray: 9px, 9px; stroke-width: 1.88976px;"/></g><g class="legendsymbols"><g class="legendpoints"/></g></g><rect class="legendtoggle" x="0" y="-9.5" width="98.5316047668457" height="19" style="fill: rgb(0, 0, 0); fill-opacity: 0;"/></g></g><g class="groups" transform="translate(0,20)"><g class="traces" transform="translate(1.88976377952756,73.38519756948187)" style="opacity: 1;"><text class="legendtext" text-anchor="start" x="40" y="4.55890410958905" style="font-family: 'Open Sans', verdana, arial, sans-serif; font-size: 11.6895px; fill: rgb(0, 0, 0); fill-opacity: 1; white-space: pre;">유럽</text><g class="layers" style="opacity: 1;"><g class="legendfill"/><g class="legendlines"><path class="js-line" d="M5,0h30" style="fill: none; stroke: rgb(83, 180, 0); stroke-opacity: 1; stroke-dasharray: 3px, 3px; stroke-width: 1.88976px;"/></g><g class="legendsymbols"><g class="legendpoints"/></g></g><rect class="legendtoggle" x="0" y="-9.5" width="98.5316047668457" height="19" style="fill: rgb(0, 0, 0); fill-opacity: 0;"/></g></g><g class="groups" transform="translate(0,30)"><g class="traces" transform="translate(1.88976377952756,92.38519756948187)" style="opacity: 1;"><text class="legendtext" text-anchor="start" x="40" y="4.55890410958905" style="font-family: 'Open Sans', verdana, arial, sans-serif; font-size: 11.6895px; fill: rgb(0, 0, 0); fill-opacity: 1; white-space: pre;">북미</text><g class="layers" style="opacity: 1;"><g class="legendfill"/><g class="legendlines"><path class="js-line" d="M5,0h30" style="fill: none; stroke: rgb(0, 192, 148); stroke-opacity: 1; stroke-dasharray: 9px, 3px, 3px, 3px; stroke-width: 1.88976px;"/></g><g class="legendsymbols"><g class="legendpoints"/></g></g><rect class="legendtoggle" x="0" y="-9.5" width="98.5316047668457" height="19" style="fill: rgb(0, 0, 0); fill-opacity: 0;"/></g></g><g class="groups" transform="translate(0,40)"><g class="traces" transform="translate(1.88976377952756,111.38519756948187)" style="opacity: 1;"><text class="legendtext" text-anchor="start" x="40" y="4.55890410958905" style="font-family: 'Open Sans', verdana, arial, sans-serif; font-size: 11.6895px; fill: rgb(0, 0, 0); fill-opacity: 1; white-space: pre;">남미</text><g class="layers" style="opacity: 1;"><g class="legendfill"/><g class="legendlines"><path class="js-line" d="M5,0h30" style="fill: none; stroke: rgb(0, 182, 235); stroke-opacity: 1; stroke-dasharray: 15px, 15px; stroke-width: 1.88976px;"/></g><g class="legendsymbols"><g class="legendpoints"/></g></g><rect class="legendtoggle" x="0" y="-9.5" width="98.5316047668457" height="19" style="fill: rgb(0, 0, 0); fill-opacity: 0;"/></g></g><g class="groups" transform="translate(0,50)"><g class="traces" transform="translate(1.88976377952756,130.38519756948187)" style="opacity: 1;"><text class="legendtext" text-anchor="start" x="40" y="4.55890410958905" style="font-family: 'Open Sans', verdana, arial, sans-serif; font-size: 11.6895px; fill: rgb(0, 0, 0); fill-opacity: 1; white-space: pre;">아프리카</text><g class="layers" style="opacity: 1;"><g class="legendfill"/><g class="legendlines"><path class="js-line" d="M5,0h30" style="fill: none; stroke: rgb(165, 138, 255); stroke-opacity: 1; stroke-dasharray: 15px, 6px, 3px, 6px; stroke-width: 1.88976px;"/></g><g class="legendsymbols"><g class="legendpoints"/></g></g><rect class="legendtoggle" x="0" y="-9.5" width="98.5316047668457" height="19" style="fill: rgb(0, 0, 0); fill-opacity: 0;"/></g></g><g class="groups" transform="translate(0,60)"><g class="traces" transform="translate(1.88976377952756,149.38519756948187)" style="opacity: 1;"><text class="legendtext" text-anchor="start" x="40" y="4.55890410958905" style="font-family: 'Open Sans', verdana, arial, sans-serif; font-size: 11.6895px; fill: rgb(0, 0, 0); fill-opacity: 1; white-space: pre;">오세아니아</text><g class="layers" style="opacity: 1;"><g class="legendfill"/><g class="legendlines"><path class="js-line" d="M5,0h30" style="fill: none; stroke: rgb(251, 97, 215); stroke-opacity: 1; stroke-dasharray: 9px, 9px; stroke-width: 1.88976px;"/></g><g class="legendsymbols"><g class="legendpoints"/></g></g><rect class="legendtoggle" x="0" y="-9.5" width="98.5316047668457" height="19" style="fill: rgb(0, 0, 0); fill-opacity: 0;"/></g></g></g><rect class="scrollbar" rx="20" ry="3" width="0" height="0" x="0" y="0" style="fill: rgb(128, 139, 164); fill-opacity: 1;"/></g><g class="g-gtitle"/><g class="g-xtitle" transform="translate(0,-13.933991438356088)"><text class="xtitle" x="275.5" y="494.8356164383561" text-anchor="middle" style="font-family: 'Open Sans', verdana, arial, sans-serif; font-size: 14.61px; fill: rgb(0, 0, 0); opacity: 1; font-weight: normal; white-space: pre;">날짜</text></g><g class="g-ytitle" transform="translate(-21.3076171875,0)"><text class="ytitle" transform="rotate(-90,38.7762557077626,233)" x="38.7762557077626" y="233" text-anchor="middle" style="font-family: 'Open Sans', verdana, arial, sans-serif; font-size: 14.61px; fill: rgb(0, 0, 0); opacity: 1; font-weight: normal; white-space: pre;">확진자수</text></g></g></svg>