<svg class="main-svg" xmlns="http://www.w3.org/2000/svg" xmlns:xlink="http://www.w3.org/1999/xlink" width="596.364" height="483.636" style="" viewBox="0 0 596.364 483.636"><rect x="0" y="0" width="596.364" height="483.636" style="fill: rgb(255, 255, 255); fill-opacity: 1;"/><defs id="defs-6ffc80"><g class="clips"><clipPath id="clip6ffc80xyplot" class="plotclip"><rect width="399" height="419"/></clipPath><clipPath class="axesclip" id="clip6ffc80x"><rect x="60" y="0" width="399" height="483.636"/></clipPath><clipPath class="axesclip" id="clip6ffc80y"><rect x="0" y="25" width="596.364" height="419"/></clipPath><clipPath class="axesclip" id="clip6ffc80xy"><rect x="60" y="25" width="399" height="419"/></clipPath></g><g class="gradients"/><g class="patterns"/></defs><g class="bglayer"/><g class="layer-below"><g class="imagelayer"/><g class="shapelayer"/></g><g class="cartesianlayer"><g class="subplot xy"><g class="layer-subplot"><g class="shapelayer"/><g class="imagelayer"/></g><g class="gridlayer"><g class="x"><path class="xgrid crisp" transform="translate(122.67,0)" d="M0,25v419" style="stroke: rgb(238, 238, 238); stroke-opacity: 1; stroke-width: 1px;"/><path class="xgrid crisp" transform="translate(190.94,0)" d="M0,25v419" style="stroke: rgb(238, 238, 238); stroke-opacity: 1; stroke-width: 1px;"/><path class="xgrid crisp" transform="translate(259.22,0)" d="M0,25v419" style="stroke: rgb(238, 238, 238); stroke-opacity: 1; stroke-width: 1px;"/><path class="xgrid crisp" transform="translate(327.68,0)" d="M0,25v419" style="stroke: rgb(238, 238, 238); stroke-opacity: 1; stroke-width: 1px;"/><path class="xgrid crisp" transform="translate(395.96,0)" d="M0,25v419" style="stroke: rgb(238, 238, 238); stroke-opacity: 1; stroke-width: 1px;"/></g><g class="y"><path class="ygrid crisp" transform="translate(0,365.9)" d="M60,0h399" style="stroke: rgb(238, 238, 238); stroke-opacity: 1; stroke-width: 1px;"/><path class="ygrid crisp" transform="translate(0,308.72)" d="M60,0h399" style="stroke: rgb(238, 238, 238); stroke-opacity: 1; stroke-width: 1px;"/><path class="ygrid crisp" transform="translate(0,251.55)" d="M60,0h399" style="stroke: rgb(238, 238, 238); stroke-opacity: 1; stroke-width: 1px;"/><path class="ygrid crisp" transform="translate(0,194.38)" d="M60,0h399" style="stroke: rgb(238, 238, 238); stroke-opacity: 1; stroke-width: 1px;"/><path class="ygrid crisp" transform="translate(0,137.2)" d="M60,0h399" style="stroke: rgb(238, 238, 238); stroke-opacity: 1; stroke-width: 1px;"/><path class="ygrid crisp" transform="translate(0,80.03)" d="M60,0h399" style="stroke: rgb(238, 238, 238); stroke-opacity: 1; stroke-width: 1px;"/></g></g><g class="zerolinelayer"><path class="yzl zl crisp" transform="translate(0,423.07)" d="M60,0h399" style="stroke: rgb(68, 68, 68); stroke-opacity: 1; stroke-width: 1px;"/></g><path class="xlines-below"/><path class="ylines-below"/><g class="overlines-below"/><g class="xaxislayer-below"/><g class="yaxislayer-below"/><g class="overaxes-below"/><g class="plot" transform="translate(60,25)" clip-path="url(#clip6ffc80xyplot)"><g class="scatterlayer mlayer"><g class="trace scatter trace15e58d" style="stroke-miterlimit: 2; opacity: 1;"><g class="fills"/><g class="errorbars"/><g class="lines"><path class="js-line" d="M0,351.04L5.24,351.5L11.04,344.94L16.65,348.47L22.45,349.96L28.06,356.95L33.86,361.69L39.66,362.47L45.27,353.51L51.07,346.56L56.68,346.07L62.48,357.86L68.28,350.12L73.51,350.52L79.31,341.43L84.93,339.54L90.72,340.03L96.34,347.85L102.14,334.89L107.93,341.21L113.55,324.06L119.34,303.98L124.96,305.46L130.76,331.14L136.55,315.01L141.79,315.7L147.59,309.81L153.2,303.11L159,303.16L164.61,317.69L170.41,316.56L176.21,315.76L181.82,285.01L187.62,277.02L193.23,288.46L199.03,298.7L204.83,284.86L210.26,281.32L216.05,198.76L221.67,193.54L227.47,205.02L233.08,209.01L238.88,231.69L244.68,237.93L250.29,216.74L261.7,192.05L267.5,294.58L273.3,269.07L278.53,289.89L284.33,186.39L289.94,180.7L295.74,171.22L301.35,174.19L307.15,175.26L312.95,161.09L318.56,58.34L324.36,20.95L329.97,36.47L335.77,126.36L341.57,158.87L346.81,160.55L352.61,121.04L358.22,90.57L364.02,42.05L369.63,72.26L375.43,91.98L381.23,101.42L392.64,65.81L398.25,62.94L399,376.24" style="vector-effect: non-scaling-stroke; fill: none; stroke: rgb(190, 190, 190); stroke-opacity: 1; stroke-width: 2px; opacity: 1;"/></g><g class="points"/><g class="text"/></g><g class="trace scatter tracefdc72b" style="stroke-miterlimit: 2; opacity: 1;"><g class="fills"/><g class="errorbars"/><g class="lines"><path class="js-line" d="M0,393.63L11.04,392.41L16.65,391.98L22.45,391.05L28.06,391.99L33.86,392.65L39.66,392.07L56.68,391.33L62.48,391.77L73.51,392.24L79.31,390.22L96.34,391.67L102.14,390.75L107.93,390.44L113.55,389.02L119.34,386.7L124.96,386.69L130.76,388L136.55,384.89L141.79,380.98L147.59,383.76L153.2,382.1L159,382.52L164.61,384.77L170.41,384.71L176.21,385.37L181.82,383.17L187.62,380.48L193.23,380.19L199.03,384.65L204.83,383.83L210.26,381.18L216.05,379.95L221.67,376.15L227.47,376.69L244.68,379.49L250.29,377.09L256.09,375.49L261.7,377.09L267.5,377.18L273.3,374.67L278.53,377.08L284.33,373.78L289.94,376.15L295.74,376.83L301.35,372.39L307.15,375.51L312.95,374.27L318.56,374.43L324.36,361.64L329.97,361.58L335.77,366.85L341.57,368.52L346.81,365.51L352.61,355.34L358.22,343.34L364.02,333.48L369.63,342.27L375.43,345.39L381.23,339.85L386.84,356.36L392.64,354.91L398.25,345.1L399,394.63" style="vector-effect: non-scaling-stroke; fill: none; stroke: rgb(0, 0, 139); stroke-opacity: 1; stroke-width: 2px; opacity: 1;"/></g><g class="points"/><g class="text"/></g><g class="trace scatter trace5538b5" style="stroke-miterlimit: 2; opacity: 1;"><g class="fills"/><g class="errorbars"/><g class="lines"><path class="js-line" d="M0,397.92L176.21,397.91L181.82,397.76L216.05,397.82L221.67,397.81L256.09,397.82L261.7,397.85L399,398.05" style="vector-effect: non-scaling-stroke; fill: none; stroke: rgb(190, 190, 190); stroke-opacity: 1; stroke-width: 2px; opacity: 1;"/></g><g class="points"/><g class="text"/></g><g class="trace scatter tracecc4b51" style="stroke-miterlimit: 2; opacity: 1;"><g class="fills"/><g class="errorbars"/><g class="lines"><path class="js-line" d="M0,397.65L107.93,397.49L113.55,397.31L181.82,397.03L187.62,397.08L261.7,396.58L267.5,396.9L375.43,396.45L381.23,396.65L398.25,396.65L399,397.97" style="vector-effect: non-scaling-stroke; fill: none; stroke: rgb(190, 190, 190); stroke-opacity: 1; stroke-width: 2px; opacity: 1;"/></g><g class="points"/><g class="text"/></g><g class="trace scatter trace32541a" style="stroke-miterlimit: 2; opacity: 1;"><g class="fills"/><g class="errorbars"/><g class="lines"><path class="js-line" d="M0,392.17L5.24,392.51L11.04,388.54L16.65,385.72L22.45,389.53L28.06,391.43L33.86,392.4L39.66,392.98L45.27,392.51L51.07,391.81L56.68,392.1L62.48,393.63L68.28,393.18L90.72,393.04L96.34,393.83L107.93,393.92L113.55,392.64L119.34,391.78L124.96,381.28L130.76,387.31L136.55,387.49L141.79,388.62L147.59,388.12L153.2,389.33L159,388.79L164.61,390.71L170.41,390.37L181.82,389.92L187.62,388.99L193.23,389.65L199.03,391.82L204.83,391.19L210.26,384.61L216.05,379.84L221.67,378.02L227.47,385.42L233.08,387.28L244.68,390.12L250.29,389.15L261.7,388.8L267.5,391.3L278.53,390.89L284.33,389.66L289.94,390.97L295.74,382.24L301.35,387.64L307.15,389.71L312.95,390.43L318.56,384.82L324.36,380.29L329.97,385.05L335.77,388.67L341.57,389.15L346.81,389.18L352.61,387.58L358.22,386.52L364.02,381.92L369.63,386.03L375.43,387.51L386.84,390.26L392.64,388.15L398.25,387.62L399,397.53" style="vector-effect: non-scaling-stroke; fill: none; stroke: rgb(190, 190, 190); stroke-opacity: 1; stroke-width: 2px; opacity: 1;"/></g><g class="points"/><g class="text"/></g><g class="trace scatter trace0d3e87" style="stroke-miterlimit: 2; opacity: 1;"><g class="fills"/><g class="errorbars"/><g class="lines"><path class="js-line" d="M113.55,398.05L119.34,397.37L124.96,397.69L147.59,397.78L153.2,397.54L199.03,397.58L204.83,397.15L238.88,397.43L244.68,397.35L295.74,396.83L301.35,397.09L364.02,396.86L369.63,397.15L375.43,395.16L381.23,394.27L386.84,396.47L392.64,396.46L398.25,396.2L399,397.79" style="vector-effect: non-scaling-stroke; fill: none; stroke: rgb(190, 190, 190); stroke-opacity: 1; stroke-width: 2px; opacity: 1;"/></g><g class="points"/><g class="text"/></g><g class="trace scatter trace1320bc" style="stroke-miterlimit: 2; opacity: 1;"><g class="fills"/><g class="errorbars"/><g class="lines"><path class="js-line" d="M0,396.69L11.04,395.63L16.65,395.88L39.66,396.34L45.27,395.8L73.51,396.08L79.31,395.46L84.93,394.36L90.72,394.53L107.93,394.97L113.55,394.18L119.34,393.47L124.96,393.81L130.76,394.7L136.55,392.76L141.79,392.91L147.59,392.14L159,392L164.61,393.32L176.21,393.08L181.82,391.18L187.62,390.28L193.23,390.17L199.03,392.28L204.83,390.58L210.26,390.75L216.05,389.97L221.67,389.33L227.47,390.25L244.68,391.12L250.29,389.86L256.09,389.54L261.7,390.25L267.5,391.62L273.3,388.34L278.53,387.32L284.33,384.7L289.94,389.16L295.74,390.12L312.95,391.26L318.56,389.19L324.36,385.72L329.97,384.18L335.77,390.8L341.57,390.39L346.81,388.79L352.61,385.58L364.02,379.69L369.63,385.56L375.43,387.25L381.23,384.53L386.84,387.38L392.64,387.01L398.25,388.52L399,397.5" style="vector-effect: non-scaling-stroke; fill: none; stroke: rgb(190, 190, 190); stroke-opacity: 1; stroke-width: 2px; opacity: 1;"/></g><g class="points"/><g class="text"/></g><g class="trace scatter trace5b00c6" style="stroke-miterlimit: 2; opacity: 1;"><g class="fills"/><g class="errorbars"/><g class="lines"><path class="js-line" d="M0,396.47L11.04,396.91L16.65,397.02L56.68,396.97L62.48,395.95L73.51,396.95L79.31,396.48L102.14,394.81L107.93,395.58L119.34,394.2L124.96,394.38L147.59,394.25L153.2,394.14L159,393.51L164.61,394.44L181.82,393.51L187.62,393.12L199.03,394.13L204.83,393.66L210.26,393.59L216.05,392.52L221.67,392.79L227.47,392.05L233.08,391.94L238.88,393.02L244.68,393.47L250.29,392.84L261.7,393.16L267.5,393.84L284.33,392.45L289.94,393.22L295.74,392.51L301.35,392.68L329.97,393.15L335.77,393.9L341.57,392.22L346.81,391.67L352.61,389.8L358.22,391.02L364.02,391.1L369.63,392.82L375.43,393.55L381.23,393.13L392.64,393.04L398.25,392.35L399,397.66" style="vector-effect: non-scaling-stroke; fill: none; stroke: rgb(190, 190, 190); stroke-opacity: 1; stroke-width: 2px; opacity: 1;"/></g><g class="points"/><g class="text"/></g><g class="trace scatter traceea60c6" style="stroke-miterlimit: 2; opacity: 1;"><g class="fills"/><g class="errorbars"/><g class="lines"><path class="js-line" d="M0,397L51.07,397.34L56.68,397.29L79.31,397.39L84.93,397.42L147.59,396.73L153.2,394.18L159,394.31L164.61,396.15L170.41,397.28L176.21,397.3L256.09,396.63L261.7,397.05L284.33,397.14L289.94,397.29L352.61,396.7L358.22,397.29L392.64,397.45L398.25,397.48L399,398.03" style="vector-effect: non-scaling-stroke; fill: none; stroke: rgb(190, 190, 190); stroke-opacity: 1; stroke-width: 2px; opacity: 1;"/></g><g class="points"/><g class="text"/></g><g class="trace scatter tracee92a06" style="stroke-miterlimit: 2; opacity: 1;"><g class="fills"/><g class="errorbars"/><g class="lines"><path class="js-line" d="M0,397.23L39.66,397.47L45.27,397.14L56.68,396.95L62.48,397.27L90.72,396.13L96.34,396.89L113.55,396.58L119.34,396.12L153.2,395.74L159,395.16L164.61,395.7L170.41,395.48L181.82,395.38L187.62,394.97L210.26,395.29L216.05,394.76L227.47,393.95L233.08,394.13L244.68,394.99L250.29,393.4L256.09,392.89L261.7,393.54L267.5,394.41L273.3,394.23L284.33,393.6L289.94,394.46L307.15,394.61L312.95,394.89L318.56,394.7L324.36,392.82L335.77,394.96L341.57,394.64L346.81,394.75L352.61,393.51L364.02,394.31L369.63,394.42L381.23,394.58L386.84,394.56L398.25,392.86L399,397.73" style="vector-effect: non-scaling-stroke; fill: none; stroke: rgb(190, 190, 190); stroke-opacity: 1; stroke-width: 2px; opacity: 1;"/></g><g class="points"/><g class="text"/></g><g class="trace scatter traceb49ad8" style="stroke-miterlimit: 2; opacity: 1;"><g class="fills"/><g class="errorbars"/><g class="lines"><path class="js-line" d="M199.03,396.76L204.83,397.01L210.26,396.41L216.05,394.79L221.67,394.47L250.29,393.58L256.09,393.24L261.7,391.93L267.5,392.55L278.53,392.82L284.33,391.37L289.94,392.01L295.74,391.12L307.15,390.47L312.95,388.34L318.56,386.51L324.36,385.78L329.97,385.46L335.77,387.3L346.81,386.46L352.61,383.15L358.22,383.45L364.02,382.85L369.63,384.19L375.43,384.73L381.23,382.36L386.84,381.73L398.25,380.77L399,396.83" style="vector-effect: non-scaling-stroke; fill: none; stroke: rgb(190, 190, 190); stroke-opacity: 1; stroke-width: 2px; opacity: 1;"/></g><g class="points"/><g class="text"/></g><g class="trace scatter tracee56ef2" style="stroke-miterlimit: 2; opacity: 1;"><g class="fills"/><g class="errorbars"/><g class="lines"><path class="js-line" d="M0,397.95L45.27,397.73L51.07,397.65L96.34,396.8L102.14,396.37L113.55,396.6L119.34,396.25L141.79,395.22L147.59,394.03L164.61,395.17L170.41,394.87L176.21,393.35L181.82,394.14L199.03,393.31L204.83,393.19L216.05,389.37L221.67,389.59L227.47,390.31L233.08,390.25L244.68,390.6L250.29,389.64L256.09,389.89L261.7,391.03L267.5,392.17L273.3,391.52L278.53,392.22L284.33,386.34L289.94,390.3L295.74,391.16L312.95,391.83L318.56,390.51L335.77,391.59L341.57,391.07L346.81,391.28L352.61,389.67L369.63,390.33L375.43,390.07L386.84,387.83L392.64,384.27L398.25,386.84L399,397.28" style="vector-effect: non-scaling-stroke; fill: none; stroke: rgb(190, 190, 190); stroke-opacity: 1; stroke-width: 2px; opacity: 1;"/></g><g class="points"/><g class="text"/></g></g></g><g class="overplot"/><path class="xlines-above crisp" d="M0,0" style="fill: none;"/><path class="ylines-above crisp" d="M0,0" style="fill: none;"/><g class="overlines-above"/><g class="xaxislayer-above"><g class="xtick"><text text-anchor="middle" x="0" y="457" transform="translate(122.67,0)" style="font-family: 'Open Sans', verdana, arial, sans-serif; font-size: 12px; fill: rgb(68, 68, 68); fill-opacity: 1; white-space: pre; opacity: 1;">2018</text></g><g class="xtick"><text text-anchor="middle" x="0" y="457" style="font-family: 'Open Sans', verdana, arial, sans-serif; font-size: 12px; fill: rgb(68, 68, 68); fill-opacity: 1; white-space: pre; opacity: 1;" transform="translate(190.94,0)">2019</text></g><g class="xtick"><text text-anchor="middle" x="0" y="457" style="font-family: 'Open Sans', verdana, arial, sans-serif; font-size: 12px; fill: rgb(68, 68, 68); fill-opacity: 1; white-space: pre; opacity: 1;" transform="translate(259.22,0)">2020</text></g><g class="xtick"><text text-anchor="middle" x="0" y="457" style="font-family: 'Open Sans', verdana, arial, sans-serif; font-size: 12px; fill: rgb(68, 68, 68); fill-opacity: 1; white-space: pre; opacity: 1;" transform="translate(327.68,0)">2021</text></g><g class="xtick"><text text-anchor="middle" x="0" y="457" style="font-family: 'Open Sans', verdana, arial, sans-serif; font-size: 12px; fill: rgb(68, 68, 68); fill-opacity: 1; white-space: pre; opacity: 1;" transform="translate(395.96,0)">2022</text></g></g><g class="yaxislayer-above"><g class="ytick"><text text-anchor="end" x="59" y="4.199999999999999" transform="translate(0,423.07)" style="font-family: 'Open Sans', verdana, arial, sans-serif; font-size: 12px; fill: rgb(68, 68, 68); fill-opacity: 1; white-space: pre; opacity: 1;">0</text></g><g class="ytick"><text text-anchor="end" x="59" y="4.199999999999999" style="font-family: 'Open Sans', verdana, arial, sans-serif; font-size: 12px; fill: rgb(68, 68, 68); fill-opacity: 1; white-space: pre; opacity: 1;" transform="translate(0,365.9)">0.5M</text></g><g class="ytick"><text text-anchor="end" x="59" y="4.199999999999999" style="font-family: 'Open Sans', verdana, arial, sans-serif; font-size: 12px; fill: rgb(68, 68, 68); fill-opacity: 1; white-space: pre; opacity: 1;" transform="translate(0,308.72)">1M</text></g><g class="ytick"><text text-anchor="end" x="59" y="4.199999999999999" style="font-family: 'Open Sans', verdana, arial, sans-serif; font-size: 12px; fill: rgb(68, 68, 68); fill-opacity: 1; white-space: pre; opacity: 1;" transform="translate(0,251.55)">1.5M</text></g><g class="ytick"><text text-anchor="end" x="59" y="4.199999999999999" style="font-family: 'Open Sans', verdana, arial, sans-serif; font-size: 12px; fill: rgb(68, 68, 68); fill-opacity: 1; white-space: pre; opacity: 1;" transform="translate(0,194.38)">2M</text></g><g class="ytick"><text text-anchor="end" x="59" y="4.199999999999999" style="font-family: 'Open Sans', verdana, arial, sans-serif; font-size: 12px; fill: rgb(68, 68, 68); fill-opacity: 1; white-space: pre; opacity: 1;" transform="translate(0,137.2)">2.5M</text></g><g class="ytick"><text text-anchor="end" x="59" y="4.199999999999999" style="font-family: 'Open Sans', verdana, arial, sans-serif; font-size: 12px; fill: rgb(68, 68, 68); fill-opacity: 1; white-space: pre; opacity: 1;" transform="translate(0,80.03)">3M</text></g></g><g class="overaxes-above"/></g></g><g class="polarlayer"/><g class="ternarylayer"/><g class="geolayer"/><g class="funnelarealayer"/><g class="pielayer"/><g class="iciclelayer"/><g class="treemaplayer"/><g class="sunburstlayer"/><g class="glimages"/><defs id="topdefs-6ffc80"><g class="clips"/><clipPath id="legend6ffc80"><rect width="119" height="238" x="0" y="0"/></clipPath></defs><g class="layer-above"><g class="imagelayer"/><g class="shapelayer"/></g><g class="infolayer"><g class="legend" pointer-events="all" transform="translate(466.98,25)"><rect class="bg" shape-rendering="crispEdges" width="119" height="238" x="0" y="0" style="stroke: rgb(68, 68, 68); stroke-opacity: 1; fill: rgb(255, 255, 255); fill-opacity: 1; stroke-width: 0px;"/><g class="scrollbox" transform="" clip-path="url(#legend6ffc80)"><g class="groups"><g class="traces" transform="translate(0,14.5)" style="opacity: 1;"><text class="legendtext" text-anchor="start" x="40" y="4.680000000000001" style="font-family: 'Open Sans', verdana, arial, sans-serif; font-size: 12px; fill: rgb(68, 68, 68); fill-opacity: 1; white-space: pre;">ggplot2</text><g class="layers" style="opacity: 1;"><g class="legendfill"/><g class="legendlines"><path class="js-line" d="M5,0h30" style="fill: none; stroke: rgb(190, 190, 190); stroke-opacity: 1; stroke-width: 2px;"/></g><g class="legendsymbols"><g class="legendpoints"/></g></g><rect class="legendtoggle" x="0" y="-9.5" width="113.42151641845703" height="19" style="fill: rgb(0, 0, 0); fill-opacity: 0;"/></g><g class="traces" transform="translate(0,33.5)" style="opacity: 1;"><text class="legendtext" text-anchor="start" x="40" y="4.680000000000001" style="font-family: 'Open Sans', verdana, arial, sans-serif; font-size: 12px; fill: rgb(68, 68, 68); fill-opacity: 1; white-space: pre;">plotly</text><g class="layers" style="opacity: 1;"><g class="legendfill"/><g class="legendlines"><path class="js-line" d="M5,0h30" style="fill: none; stroke: rgb(0, 0, 139); stroke-opacity: 1; stroke-width: 2px;"/></g><g class="legendsymbols"><g class="legendpoints"/></g></g><rect class="legendtoggle" x="0" y="-9.5" width="113.42151641845703" height="19" style="fill: rgb(0, 0, 0); fill-opacity: 0;"/></g><g class="traces" transform="translate(0,52.5)" style="opacity: 1;"><text class="legendtext" text-anchor="start" x="40" y="4.680000000000001" style="font-family: 'Open Sans', verdana, arial, sans-serif; font-size: 12px; fill: rgb(68, 68, 68); fill-opacity: 1; white-space: pre;">rbokeh</text><g class="layers" style="opacity: 1;"><g class="legendfill"/><g class="legendlines"><path class="js-line" d="M5,0h30" style="fill: none; stroke: rgb(190, 190, 190); stroke-opacity: 1; stroke-width: 2px;"/></g><g class="legendsymbols"><g class="legendpoints"/></g></g><rect class="legendtoggle" x="0" y="-9.5" width="113.42151641845703" height="19" style="fill: rgb(0, 0, 0); fill-opacity: 0;"/></g><g class="traces" transform="translate(0,71.5)" style="opacity: 1;"><text class="legendtext" text-anchor="start" x="40" y="4.680000000000001" style="font-family: 'Open Sans', verdana, arial, sans-serif; font-size: 12px; fill: rgb(68, 68, 68); fill-opacity: 1; white-space: pre;">highcharter</text><g class="layers" style="opacity: 1;"><g class="legendfill"/><g class="legendlines"><path class="js-line" d="M5,0h30" style="fill: none; stroke: rgb(190, 190, 190); stroke-opacity: 1; stroke-width: 2px;"/></g><g class="legendsymbols"><g class="legendpoints"/></g></g><rect class="legendtoggle" x="0" y="-9.5" width="113.42151641845703" height="19" style="fill: rgb(0, 0, 0); fill-opacity: 0;"/></g><g class="traces" transform="translate(0,90.5)" style="opacity: 1;"><text class="legendtext" text-anchor="start" x="40" y="4.680000000000001" style="font-family: 'Open Sans', verdana, arial, sans-serif; font-size: 12px; fill: rgb(68, 68, 68); fill-opacity: 1; white-space: pre;">lattice</text><g class="layers" style="opacity: 1;"><g class="legendfill"/><g class="legendlines"><path class="js-line" d="M5,0h30" style="fill: none; stroke: rgb(190, 190, 190); stroke-opacity: 1; stroke-width: 2px;"/></g><g class="legendsymbols"><g class="legendpoints"/></g></g><rect class="legendtoggle" x="0" y="-9.5" width="113.42151641845703" height="19" style="fill: rgb(0, 0, 0); fill-opacity: 0;"/></g><g class="traces" transform="translate(0,109.5)" style="opacity: 1;"><text class="legendtext" text-anchor="start" x="40" y="4.680000000000001" style="font-family: 'Open Sans', verdana, arial, sans-serif; font-size: 12px; fill: rgb(68, 68, 68); fill-opacity: 1; white-space: pre;">esquisse</text><g class="layers" style="opacity: 1;"><g class="legendfill"/><g class="legendlines"><path class="js-line" d="M5,0h30" style="fill: none; stroke: rgb(190, 190, 190); stroke-opacity: 1; stroke-width: 2px;"/></g><g class="legendsymbols"><g class="legendpoints"/></g></g><rect class="legendtoggle" x="0" y="-9.5" width="113.42151641845703" height="19" style="fill: rgb(0, 0, 0); fill-opacity: 0;"/></g><g class="traces" transform="translate(0,128.5)" style="opacity: 1;"><text class="legendtext" text-anchor="start" x="40" y="4.680000000000001" style="font-family: 'Open Sans', verdana, arial, sans-serif; font-size: 12px; fill: rgb(68, 68, 68); fill-opacity: 1; white-space: pre;">leaflet</text><g class="layers" style="opacity: 1;"><g class="legendfill"/><g class="legendlines"><path class="js-line" d="M5,0h30" style="fill: none; stroke: rgb(190, 190, 190); stroke-opacity: 1; stroke-width: 2px;"/></g><g class="legendsymbols"><g class="legendpoints"/></g></g><rect class="legendtoggle" x="0" y="-9.5" width="113.42151641845703" height="19" style="fill: rgb(0, 0, 0); fill-opacity: 0;"/></g><g class="traces" transform="translate(0,147.5)" style="opacity: 1;"><text class="legendtext" text-anchor="start" x="40" y="4.680000000000001" style="font-family: 'Open Sans', verdana, arial, sans-serif; font-size: 12px; fill: rgb(68, 68, 68); fill-opacity: 1; white-space: pre;">dygraphs</text><g class="layers" style="opacity: 1;"><g class="legendfill"/><g class="legendlines"><path class="js-line" d="M5,0h30" style="fill: none; stroke: rgb(190, 190, 190); stroke-opacity: 1; stroke-width: 2px;"/></g><g class="legendsymbols"><g class="legendpoints"/></g></g><rect class="legendtoggle" x="0" y="-9.5" width="113.42151641845703" height="19" style="fill: rgb(0, 0, 0); fill-opacity: 0;"/></g><g class="traces" transform="translate(0,166.5)" style="opacity: 1;"><text class="legendtext" text-anchor="start" x="40" y="4.680000000000001" style="font-family: 'Open Sans', verdana, arial, sans-serif; font-size: 12px; fill: rgb(68, 68, 68); fill-opacity: 1; white-space: pre;">ggvis</text><g class="layers" style="opacity: 1;"><g class="legendfill"/><g class="legendlines"><path class="js-line" d="M5,0h30" style="fill: none; stroke: rgb(190, 190, 190); stroke-opacity: 1; stroke-width: 2px;"/></g><g class="legendsymbols"><g class="legendpoints"/></g></g><rect class="legendtoggle" x="0" y="-9.5" width="113.42151641845703" height="19" style="fill: rgb(0, 0, 0); fill-opacity: 0;"/></g><g class="traces" transform="translate(0,185.5)" style="opacity: 1;"><text class="legendtext" text-anchor="start" x="40" y="4.680000000000001" style="font-family: 'Open Sans', verdana, arial, sans-serif; font-size: 12px; fill: rgb(68, 68, 68); fill-opacity: 1; white-space: pre;">colourpicker</text><g class="layers" style="opacity: 1;"><g class="legendfill"/><g class="legendlines"><path class="js-line" d="M5,0h30" style="fill: none; stroke: rgb(190, 190, 190); stroke-opacity: 1; stroke-width: 2px;"/></g><g class="legendsymbols"><g class="legendpoints"/></g></g><rect class="legendtoggle" x="0" y="-9.5" width="113.42151641845703" height="19" style="fill: rgb(0, 0, 0); fill-opacity: 0;"/></g><g class="traces" transform="translate(0,204.5)" style="opacity: 1;"><text class="legendtext" text-anchor="start" x="40" y="4.680000000000001" style="font-family: 'Open Sans', verdana, arial, sans-serif; font-size: 12px; fill: rgb(68, 68, 68); fill-opacity: 1; white-space: pre;">patchwork</text><g class="layers" style="opacity: 1;"><g class="legendfill"/><g class="legendlines"><path class="js-line" d="M5,0h30" style="fill: none; stroke: rgb(190, 190, 190); stroke-opacity: 1; stroke-width: 2px;"/></g><g class="legendsymbols"><g class="legendpoints"/></g></g><rect class="legendtoggle" x="0" y="-9.5" width="113.42151641845703" height="19" style="fill: rgb(0, 0, 0); fill-opacity: 0;"/></g><g class="traces" transform="translate(0,223.5)" style="opacity: 1;"><text class="legendtext" text-anchor="start" x="40" y="4.680000000000001" style="font-family: 'Open Sans', verdana, arial, sans-serif; font-size: 12px; fill: rgb(68, 68, 68); fill-opacity: 1; white-space: pre;">ggforce</text><g class="layers" style="opacity: 1;"><g class="legendfill"/><g class="legendlines"><path class="js-line" d="M5,0h30" style="fill: none; stroke: rgb(190, 190, 190); stroke-opacity: 1; stroke-width: 2px;"/></g><g class="legendsymbols"><g class="legendpoints"/></g></g><rect class="legendtoggle" x="0" y="-9.5" width="113.42151641845703" height="19" style="fill: rgb(0, 0, 0); fill-opacity: 0;"/></g></g></g><rect class="scrollbar" rx="20" ry="3" width="0" height="0" x="0" y="0" style="fill: rgb(128, 139, 164); fill-opacity: 1;"/></g><g class="g-gtitle"/><g class="g-xtitle" transform="translate(0,-15.099174179077124)"><text class="xtitle" x="259.5" y="496" text-anchor="middle" style="font-family: 'Open Sans', verdana, arial, sans-serif; font-size: 14px; fill: rgb(68, 68, 68); opacity: 1; font-weight: normal; white-space: pre;">end</text></g><g class="g-ytitle"><text class="ytitle" transform="rotate(-90,22,234.5)" x="22" y="234.5" text-anchor="middle" style="font-family: 'Open Sans', verdana, arial, sans-serif; font-size: 14px; fill: rgb(68, 68, 68); opacity: 1; font-weight: normal; white-space: pre;">downloads</text></g></g></svg>