<svg class="main-svg" xmlns="http://www.w3.org/2000/svg" xmlns:xlink="http://www.w3.org/1999/xlink" width="626.364" height="465.455" style="" viewBox="0 0 626.364 465.455"><rect x="0" y="0" width="626.364" height="465.455" style="fill: rgb(255, 255, 255); fill-opacity: 1;"/><defs id="defs-8d7485"><g class="clips"><clipPath id="clip8d7485xyplot" class="plotclip"><rect width="549" height="373"/></clipPath><clipPath class="axesclip" id="clip8d7485x"><rect x="52" y="0" width="549" height="465.455"/></clipPath><clipPath class="axesclip" id="clip8d7485y"><rect x="0" y="50" width="626.364" height="373"/></clipPath><clipPath class="axesclip" id="clip8d7485xy"><rect x="52" y="50" width="549" height="373"/></clipPath></g><g class="gradients"/><g class="patterns"/></defs><g class="bglayer"/><g class="layer-below"><g class="imagelayer"/><g class="shapelayer"/></g><g class="cartesianlayer"><g class="subplot xy"><g class="layer-subplot"><g class="shapelayer"/><g class="imagelayer"/></g><g class="gridlayer"><g class="x"/><g class="y"><path class="ygrid crisp" transform="translate(0,396.11)" d="M52,0h549" style="stroke: rgb(238, 238, 238); stroke-opacity: 1; stroke-width: 1px;"/><path class="ygrid crisp" transform="translate(0,304.9)" d="M52,0h549" style="stroke: rgb(238, 238, 238); stroke-opacity: 1; stroke-width: 1px;"/><path class="ygrid crisp" transform="translate(0,259.3)" d="M52,0h549" style="stroke: rgb(238, 238, 238); stroke-opacity: 1; stroke-width: 1px;"/><path class="ygrid crisp" transform="translate(0,213.7)" d="M52,0h549" style="stroke: rgb(238, 238, 238); stroke-opacity: 1; stroke-width: 1px;"/><path class="ygrid crisp" transform="translate(0,168.1)" d="M52,0h549" style="stroke: rgb(238, 238, 238); stroke-opacity: 1; stroke-width: 1px;"/><path class="ygrid crisp" transform="translate(0,122.5)" d="M52,0h549" style="stroke: rgb(238, 238, 238); stroke-opacity: 1; stroke-width: 1px;"/><path class="ygrid crisp" transform="translate(0,76.89)" d="M52,0h549" style="stroke: rgb(238, 238, 238); stroke-opacity: 1; stroke-width: 1px;"/></g></g><g class="zerolinelayer"><path class="yzl zl crisp" transform="translate(0,350.5)" d="M52,0h549" style="stroke: rgb(68, 68, 68); stroke-opacity: 1; stroke-width: 1px;"/></g><path class="xlines-below"/><path class="ylines-below"/><g class="overlines-below"/><g class="xaxislayer-below"/><g class="yaxislayer-below"/><g class="overaxes-below"/><g class="plot" transform="translate(52,50)" clip-path="url(#clip8d7485xyplot)"><g class="violinlayer mlayer"><g class="trace violins" style="opacity: 1;"><path class="violin" d="M39.5,332.42Q39.64,328.89 39.74,327.12C39.84,325.35 39.95,323.58 40.08,321.81C40.21,320.04 40.36,318.27 40.5,316.5C40.64,314.73 40.79,312.97 40.91,311.2C41.03,309.43 41.15,307.66 41.22,305.89C41.29,304.12 41.33,302.36 41.33,300.59C41.33,298.82 41.29,297.05 41.22,295.28C41.15,293.51 41.04,291.74 40.92,289.97C40.8,288.2 40.65,286.44 40.51,284.67C40.37,282.9 40.22,281.13 40.1,279.36C39.98,277.59 39.86,275.82 39.77,274.05C39.68,272.28 39.6,270.52 39.54,268.75C39.48,266.98 39.45,265.21 39.43,263.44C39.41,261.67 39.41,259.9 39.42,258.13C39.43,256.36 39.45,254.6 39.48,252.83C39.51,251.06 39.55,249.29 39.6,247.52C39.65,245.75 39.72,243.99 39.78,242.22C39.85,240.45 39.92,238.68 39.99,236.91C40.07,235.14 40.15,233.37 40.23,231.6C40.31,229.83 40.4,228.07 40.49,226.3C40.58,224.53 40.68,222.76 40.78,220.99C40.88,219.22 40.98,217.45 41.11,215.68C41.23,213.91 41.37,212.15 41.53,210.38C41.69,208.61 41.86,206.84 42.06,205.07C42.26,203.3 42.48,201.54 42.73,199.77C42.98,198 43.25,196.23 43.54,194.46C43.83,192.69 44.14,190.92 44.46,189.15C44.79,187.38 45.14,185.62 45.49,183.85C45.85,182.08 46.22,180.31 46.59,178.54C46.96,176.77 47.35,175 47.73,173.23C48.11,171.46 48.51,169.7 48.89,167.93C49.27,166.16 49.66,164.39 50.01,162.62C50.36,160.85 50.71,159.09 51.01,157.32C51.31,155.55 51.59,153.78 51.82,152.01C52.05,150.24 52.24,148.47 52.37,146.7C52.5,144.93 52.58,143.17 52.62,141.4C52.66,139.63 52.64,137.86 52.59,136.09C52.54,134.32 52.43,132.55 52.31,130.78C52.19,129.01 52.02,127.25 51.85,125.48C51.68,123.71 51.47,121.94 51.28,120.17C51.09,118.4 50.87,116.64 50.7,114.87C50.53,113.1 50.35,111.33 50.26,109.56C50.17,107.79 50.1,106.02 50.14,104.25C50.18,102.48 50.3,100.71 50.51,98.95C50.72,97.18 51.05,95.4 51.41,93.64C51.77,91.86 52.26,90.1 52.68,88.33C53.1,86.56 53.6,84.81 53.92,83.03C54.24,81.27 54.55,79.49 54.6,77.72C54.65,75.95 54.56,74.16 54.25,72.41C53.94,70.63 53.38,68.85 52.73,67.11C52.06,65.31 51.15,63.56 50.27,61.8C49.38,60.02 48.33,58.27 47.4,56.5C46.47,54.74 45.5,52.98 44.68,51.19C43.87,49.44 43.11,47.67 42.49,45.88Q41.88,44.13 40.98,40.58L37.45,40.58Q36.55,44.13 35.94,45.88C35.32,47.67 34.56,49.44 33.75,51.19C32.93,52.98 31.96,54.74 31.03,56.5C30.1,58.27 29.05,60.02 28.16,61.8C27.28,63.56 26.37,65.31 25.7,67.11C25.05,68.85 24.49,70.63 24.18,72.41C23.87,74.16 23.78,75.95 23.83,77.72C23.88,79.49 24.18,81.27 24.5,83.03C24.82,84.81 25.33,86.56 25.75,88.33C26.17,90.1 26.66,91.86 27.02,93.64C27.38,95.4 27.71,97.18 27.92,98.95C28.13,100.71 28.24,102.48 28.28,104.25C28.32,106.02 28.26,107.79 28.17,109.56C28.08,111.33 27.9,113.1 27.73,114.87C27.56,116.64 27.34,118.4 27.15,120.17C26.96,121.94 26.75,123.71 26.58,125.48C26.41,127.25 26.23,129.01 26.11,130.78C25.99,132.55 25.89,134.32 25.84,136.09C25.79,137.86 25.77,139.63 25.81,141.4C25.85,143.17 25.93,144.93 26.06,146.7C26.19,148.47 26.39,150.24 26.61,152.01C26.84,153.78 27.11,155.55 27.41,157.32C27.71,159.09 28.07,160.85 28.42,162.62C28.78,164.39 29.16,166.16 29.54,167.93C29.92,169.7 30.32,171.46 30.7,173.23C31.08,175 31.47,176.77 31.84,178.54C32.21,180.31 32.59,182.08 32.94,183.85C33.29,185.62 33.63,187.38 33.96,189.15C34.28,190.92 34.6,192.69 34.89,194.46C35.18,196.23 35.45,198 35.7,199.77C35.94,201.54 36.16,203.3 36.36,205.07C36.56,206.84 36.74,208.61 36.9,210.38C37.06,212.15 37.19,213.91 37.31,215.68C37.44,217.45 37.54,219.22 37.65,220.99C37.75,222.76 37.85,224.53 37.94,226.3C38.03,228.07 38.12,229.83 38.2,231.6C38.28,233.37 38.35,235.14 38.43,236.91C38.5,238.68 38.58,240.45 38.65,242.22C38.72,243.99 38.78,245.75 38.83,247.52C38.88,249.29 38.92,251.06 38.95,252.83C38.98,254.6 39,256.36 39.01,258.13C39.02,259.9 39.02,261.67 39,263.44C38.98,265.21 38.95,266.98 38.89,268.75C38.83,270.52 38.75,272.28 38.66,274.05C38.57,275.82 38.45,277.59 38.33,279.36C38.21,281.13 38.06,282.9 37.92,284.67C37.78,286.44 37.63,288.2 37.51,289.97C37.39,291.74 37.28,293.51 37.21,295.28C37.14,297.05 37.1,298.82 37.1,300.59C37.1,302.36 37.14,304.12 37.21,305.89C37.28,307.66 37.4,309.43 37.52,311.2C37.64,312.97 37.79,314.73 37.93,316.5C38.07,318.27 38.22,320.04 38.35,321.81C38.48,323.58 38.59,325.35 38.69,327.12Q38.79,328.89 38.93,332.42Z" style="vector-effect: non-scaling-stroke; stroke-width: 2px; stroke: rgb(31, 119, 180); stroke-opacity: 1; fill: rgb(31, 119, 180); fill-opacity: 0.5;"/><path class="violin" d="M117.82,354.35Q117.91,348.46 117.97,345.52C118.03,342.57 118.1,339.63 118.18,336.68C118.26,333.74 118.36,330.79 118.45,327.85C118.54,324.9 118.65,321.96 118.74,319.01C118.83,316.07 118.92,313.12 118.99,310.18C119.06,307.23 119.13,304.29 119.17,301.34C119.21,298.4 119.24,295.45 119.25,292.51C119.26,289.57 119.25,286.62 119.25,283.68C119.25,280.73 119.23,277.79 119.23,274.84C119.23,271.9 119.23,268.95 119.27,266.01C119.31,263.06 119.36,260.12 119.45,257.17C119.54,254.23 119.66,251.28 119.81,248.34C119.96,245.4 120.14,242.45 120.35,239.51C120.56,236.56 120.8,233.62 121.05,230.67C121.3,227.73 121.57,224.78 121.84,221.84C122.11,218.89 122.39,215.95 122.65,213C122.91,210.06 123.18,207.12 123.41,204.17C123.64,201.23 123.85,198.28 124.04,195.33C124.22,192.39 124.38,189.44 124.52,186.5C124.66,183.56 124.77,180.61 124.87,177.67C124.97,174.72 125.05,171.78 125.13,168.83C125.21,165.89 125.29,162.94 125.36,160C125.44,157.05 125.5,154.11 125.58,151.16C125.66,148.22 125.74,145.27 125.83,142.33C125.93,139.38 126.02,136.44 126.15,133.49C126.28,130.55 126.41,127.6 126.59,124.66C126.77,121.72 126.97,118.77 127.21,115.83C127.45,112.88 127.73,109.94 128.01,106.99C128.29,104.05 128.63,101.11 128.91,98.16C129.18,95.22 129.49,92.27 129.66,89.32C129.83,86.38 129.97,83.43 129.94,80.49C129.91,77.55 129.75,74.6 129.45,71.66C129.15,68.71 128.67,65.76 128.12,62.82C127.57,59.87 126.86,56.93 126.16,53.99C125.46,51.04 124.65,48.1 123.93,45.15C123.21,42.21 122.47,39.27 121.84,36.32C121.21,33.38 120.64,30.43 120.17,27.48Q119.7,24.54 119.02,18.65L116.27,18.65Q115.58,24.54 115.11,27.48C114.64,30.43 114.06,33.38 113.44,36.32C112.81,39.27 112.08,42.21 111.36,45.15C110.64,48.1 109.83,51.04 109.13,53.99C108.43,56.93 107.71,59.87 107.16,62.82C106.61,65.76 106.14,68.71 105.84,71.66C105.54,74.6 105.39,77.55 105.35,80.49C105.31,83.43 105.45,86.38 105.62,89.32C105.79,92.27 106.1,95.22 106.37,98.16C106.65,101.11 106.99,104.05 107.27,106.99C107.56,109.94 107.84,112.88 108.08,115.83C108.32,118.77 108.51,121.72 108.69,124.66C108.86,127.6 109,130.55 109.13,133.49C109.26,136.44 109.35,139.38 109.45,142.33C109.55,145.27 109.63,148.22 109.71,151.16C109.79,154.11 109.86,157.05 109.93,160C110,162.94 110.07,165.89 110.15,168.83C110.23,171.78 110.32,174.72 110.42,177.67C110.52,180.61 110.63,183.56 110.77,186.5C110.91,189.44 111.07,192.39 111.25,195.33C111.44,198.28 111.65,201.22 111.88,204.17C112.11,207.11 112.37,210.06 112.63,213C112.89,215.95 113.18,218.89 113.45,221.84C113.72,224.78 113.99,227.73 114.24,230.67C114.49,233.62 114.73,236.56 114.94,239.51C115.15,242.45 115.33,245.4 115.48,248.34C115.63,251.28 115.74,254.23 115.83,257.17C115.92,260.12 115.97,263.06 116.01,266.01C116.05,268.95 116.05,271.9 116.06,274.84C116.07,277.79 116.04,280.73 116.04,283.68C116.04,286.62 116.03,289.57 116.04,292.51C116.05,295.45 116.07,298.4 116.11,301.34C116.15,304.29 116.22,307.23 116.29,310.18C116.36,313.12 116.46,316.07 116.55,319.01C116.64,321.96 116.75,324.9 116.84,327.85C116.93,330.79 117.02,333.74 117.1,336.68C117.18,339.63 117.26,342.57 117.32,345.52Q117.38,348.46 117.47,354.35Z" style="vector-effect: non-scaling-stroke; stroke-width: 2px; stroke: rgb(31, 119, 180); stroke-opacity: 1; fill: rgb(31, 119, 180); fill-opacity: 0.5;"/><path class="violin" d="M196.55,335.23Q196.79,331.42 196.95,329.51C197.11,327.6 197.31,325.7 197.52,323.79C197.73,321.88 197.98,319.98 198.21,318.07C198.44,316.16 198.69,314.26 198.89,312.35C199.09,310.44 199.29,308.54 199.42,306.63C199.54,304.73 199.63,302.82 199.64,300.91C199.65,299 199.58,297.1 199.48,295.19C199.37,293.28 199.2,291.38 199.01,289.47C198.82,287.56 198.58,285.66 198.36,283.75C198.14,281.84 197.91,279.94 197.71,278.03C197.51,276.12 197.33,274.22 197.18,272.31C197.03,270.4 196.92,268.5 196.83,266.59C196.74,264.68 196.69,262.78 196.66,260.87C196.63,258.96 196.62,257.06 196.63,255.15C196.64,253.24 196.67,251.34 196.7,249.43C196.74,247.52 196.78,245.61 196.84,243.7C196.89,241.79 196.96,239.89 197.03,237.98C197.1,236.07 197.18,234.17 197.28,232.26C197.38,230.35 197.49,228.45 197.62,226.54C197.76,224.63 197.9,222.73 198.09,220.82C198.28,218.91 198.5,217 198.76,215.1C199.02,213.19 199.31,211.28 199.64,209.38C199.97,207.47 200.34,205.56 200.73,203.66C201.12,201.75 201.56,199.85 202,197.94C202.44,196.03 202.9,194.13 203.36,192.22C203.82,190.31 204.29,188.41 204.74,186.5C205.19,184.59 205.65,182.69 206.08,180.78C206.51,178.87 206.94,176.97 207.34,175.06C207.74,173.16 208.12,171.25 208.46,169.34C208.8,167.44 209.11,165.53 209.37,163.62C209.62,161.72 209.85,159.81 209.99,157.9C210.13,156 210.22,154.09 210.23,152.18C210.24,150.27 210.19,148.36 210.08,146.46C209.97,144.55 209.77,142.64 209.55,140.74C209.33,138.83 209.04,136.92 208.75,135.02C208.46,133.11 208.12,131.21 207.79,129.3C207.46,127.39 207.11,125.48 206.78,123.57C206.45,121.66 206.12,119.76 205.83,117.85C205.54,115.95 205.25,114.04 205.04,112.13C204.83,110.23 204.64,108.32 204.55,106.41C204.46,104.51 204.42,102.6 204.47,100.69C204.52,98.78 204.66,96.87 204.84,94.97C205.02,93.06 205.31,91.16 205.55,89.25C205.8,87.34 206.11,85.44 206.31,83.53C206.51,81.63 206.7,79.72 206.73,77.81C206.76,75.9 206.69,73.99 206.47,72.09C206.25,70.18 205.87,68.26 205.42,66.37C204.96,64.45 204.34,62.55 203.73,60.65C203.12,58.74 202.4,56.84 201.76,54.93C201.12,53.03 200.45,51.13 199.88,49.21C199.32,47.31 198.8,45.4 198.37,43.49Q197.95,41.59 197.32,37.77L194.83,37.77Q194.2,41.59 193.77,43.49C193.34,45.4 192.82,47.31 192.26,49.21C191.69,51.12 191.03,53.03 190.39,54.93C189.75,56.84 189.02,58.74 188.41,60.65C187.8,62.55 187.18,64.45 186.72,66.37C186.27,68.26 185.89,70.18 185.67,72.09C185.45,73.99 185.38,75.9 185.41,77.81C185.44,79.72 185.63,81.63 185.83,83.53C186.03,85.44 186.34,87.34 186.59,89.25C186.83,91.16 187.12,93.06 187.3,94.97C187.48,96.87 187.62,98.78 187.67,100.69C187.72,102.6 187.68,104.51 187.59,106.41C187.5,108.32 187.31,110.23 187.1,112.13C186.89,114.04 186.61,115.95 186.32,117.85C186.03,119.76 185.69,121.66 185.36,123.57C185.03,125.48 184.68,127.39 184.35,129.3C184.02,131.21 183.68,133.11 183.39,135.02C183.1,136.92 182.81,138.83 182.59,140.74C182.37,142.64 182.18,144.55 182.07,146.46C181.96,148.36 181.9,150.27 181.91,152.18C181.92,154.09 182.01,156 182.15,157.9C182.29,159.81 182.51,161.72 182.77,163.62C183.03,165.53 183.35,167.44 183.69,169.34C184.03,171.25 184.42,173.16 184.81,175.06C185.21,176.97 185.63,178.88 186.06,180.78C186.49,182.69 186.96,184.59 187.41,186.5C187.87,188.41 188.33,190.31 188.79,192.22C189.25,194.13 189.71,196.03 190.15,197.94C190.59,199.84 191.02,201.75 191.41,203.66C191.8,205.56 192.17,207.47 192.5,209.38C192.83,211.28 193.13,213.19 193.39,215.1C193.65,217 193.86,218.91 194.05,220.82C194.24,222.73 194.39,224.63 194.53,226.54C194.67,228.45 194.77,230.35 194.87,232.26C194.97,234.17 195.05,236.07 195.12,237.98C195.19,239.89 195.25,241.79 195.3,243.7C195.35,245.61 195.4,247.52 195.44,249.43C195.47,251.34 195.5,253.24 195.51,255.15C195.52,257.06 195.51,258.96 195.48,260.87C195.45,262.78 195.39,264.68 195.31,266.59C195.22,268.5 195.11,270.4 194.97,272.31C194.82,274.22 194.64,276.12 194.44,278.03C194.24,279.94 194,281.84 193.78,283.75C193.56,285.66 193.32,287.56 193.13,289.47C192.94,291.38 192.76,293.28 192.66,295.19C192.56,297.1 192.5,299 192.51,300.91C192.52,302.82 192.6,304.73 192.72,306.63C192.84,308.54 193.05,310.44 193.25,312.35C193.45,314.26 193.71,316.16 193.94,318.07C194.17,319.98 194.41,321.88 194.62,323.79C194.83,325.7 195.03,327.6 195.19,329.51Q195.35,331.42 195.59,335.23Z" style="vector-effect: non-scaling-stroke; stroke-width: 2px; stroke: rgb(31, 119, 180); stroke-opacity: 1; fill: rgb(31, 119, 180); fill-opacity: 0.5;"/><path class="violin" d="M274.88,324.72Q275.07,322.04 275.2,320.71C275.33,319.37 275.49,318.04 275.66,316.71C275.83,315.37 276.03,314.04 276.21,312.7C276.39,311.36 276.6,310.03 276.76,308.69C276.92,307.36 277.07,306.03 277.17,304.69C277.27,303.36 277.34,302.02 277.34,300.68C277.34,299.34 277.29,298 277.2,296.67C277.11,295.33 276.96,294 276.8,292.67C276.64,291.33 276.44,290 276.26,288.66C276.08,287.32 275.87,285.99 275.7,284.65C275.53,283.32 275.37,281.99 275.24,280.65C275.11,279.32 275,277.98 274.91,276.64C274.82,275.31 274.76,273.97 274.71,272.64C274.66,271.3 274.64,269.97 274.62,268.63C274.6,267.29 274.59,265.96 274.59,264.62C274.59,263.29 274.61,261.95 274.62,260.62C274.64,259.28 274.66,257.95 274.68,256.61C274.71,255.27 274.74,253.94 274.77,252.6C274.8,251.27 274.84,249.93 274.88,248.6C274.92,247.26 274.97,245.93 275.01,244.59C275.05,243.26 275.1,241.92 275.14,240.59C275.19,239.25 275.23,237.92 275.28,236.58C275.33,235.24 275.38,233.91 275.43,232.57C275.48,231.24 275.53,229.9 275.58,228.57C275.63,227.23 275.69,225.9 275.75,224.56C275.81,223.22 275.87,221.89 275.96,220.55C276.05,219.22 276.14,217.88 276.27,216.55C276.4,215.21 276.54,213.87 276.73,212.54C276.92,211.2 277.15,209.86 277.43,208.53C277.71,207.19 278.03,205.86 278.4,204.53C278.77,203.19 279.21,201.85 279.66,200.52C280.11,199.18 280.62,197.85 281.11,196.52C281.6,195.18 282.12,193.85 282.6,192.51C283.08,191.18 283.56,189.84 283.99,188.5C284.42,187.17 284.82,185.84 285.2,184.5C285.58,183.17 285.91,181.83 286.25,180.49C286.59,179.15 286.9,177.82 287.24,176.48C287.57,175.15 287.91,173.81 288.26,172.48C288.61,171.14 288.99,169.81 289.36,168.47C289.73,167.14 290.12,165.81 290.48,164.47C290.84,163.14 291.21,161.8 291.54,160.46C291.87,159.13 292.19,157.79 292.46,156.45C292.73,155.12 292.96,153.79 293.15,152.45C293.34,151.12 293.49,149.78 293.58,148.44C293.67,147.11 293.73,145.77 293.72,144.43C293.71,143.1 293.64,141.76 293.52,140.43C293.4,139.09 293.22,137.75 292.99,136.42C292.76,135.08 292.47,133.74 292.13,132.41C291.79,131.07 291.39,129.74 290.96,128.41C290.53,127.07 290.05,125.73 289.54,124.4C289.03,123.06 288.47,121.73 287.91,120.4C287.35,119.06 286.76,117.73 286.17,116.39C285.58,115.05 284.97,113.72 284.39,112.38C283.81,111.05 283.22,109.72 282.68,108.38C282.15,107.05 281.62,105.72 281.17,104.37C280.73,103.04 280.3,101.71 279.99,100.36C279.69,99.04 279.44,97.7 279.33,96.36C279.22,95.03 279.2,93.68 279.3,92.35C279.4,91.01 279.65,89.68 279.94,88.35C280.24,87.01 280.67,85.67 281.08,84.34C281.49,83 282.01,81.67 282.39,80.33C282.77,79 283.17,77.67 283.38,76.33C283.59,75 283.72,73.65 283.67,72.32C283.62,70.98 283.38,69.63 283.06,68.31C282.73,66.96 282.21,65.63 281.7,64.31C281.18,62.96 280.53,61.64 279.94,60.3C279.35,58.96 278.72,57.64 278.18,56.29C277.65,54.96 277.15,53.63 276.74,52.29Q276.33,50.96 275.72,48.28L273.28,48.28Q272.67,50.96 272.26,52.29C271.85,53.63 271.35,54.96 270.82,56.29C270.28,57.64 269.65,58.96 269.06,60.3C268.47,61.64 267.82,62.96 267.3,64.31C266.79,65.63 266.27,66.96 265.94,68.31C265.62,69.63 265.38,70.98 265.33,72.32C265.28,73.65 265.41,75 265.62,76.33C265.83,77.67 266.23,79 266.61,80.33C266.99,81.67 267.51,83 267.92,84.34C268.33,85.67 268.76,87.01 269.06,88.35C269.35,89.68 269.6,91.01 269.7,92.35C269.8,93.68 269.78,95.03 269.67,96.36C269.56,97.7 269.31,99.04 269.01,100.36C268.7,101.71 268.27,103.04 267.83,104.37C267.38,105.72 266.85,107.05 266.32,108.38C265.78,109.72 265.19,111.05 264.61,112.38C264.03,113.72 263.42,115.05 262.83,116.39C262.24,117.73 261.65,119.06 261.09,120.4C260.53,121.73 259.97,123.06 259.46,124.4C258.95,125.73 258.47,127.07 258.04,128.41C257.61,129.74 257.21,131.07 256.87,132.41C256.53,133.74 256.24,135.08 256.01,136.42C255.78,137.75 255.6,139.09 255.48,140.43C255.36,141.76 255.3,143.1 255.29,144.43C255.28,145.77 255.33,147.11 255.42,148.44C255.51,149.78 255.66,151.12 255.85,152.45C256.04,153.79 256.27,155.12 256.54,156.45C256.81,157.79 257.13,159.13 257.46,160.46C257.79,161.8 258.16,163.14 258.52,164.47C258.88,165.81 259.27,167.14 259.64,168.47C260.01,169.81 260.39,171.14 260.74,172.48C261.09,173.81 261.43,175.15 261.76,176.48C262.1,177.82 262.41,179.15 262.75,180.49C263.09,181.83 263.42,183.17 263.8,184.5C264.18,185.84 264.58,187.17 265.01,188.5C265.44,189.84 265.92,191.18 266.4,192.51C266.88,193.85 267.4,195.18 267.89,196.52C268.38,197.85 268.89,199.18 269.34,200.52C269.79,201.85 270.23,203.19 270.6,204.53C270.97,205.86 271.29,207.19 271.57,208.53C271.85,209.86 272.08,211.2 272.27,212.54C272.46,213.87 272.6,215.21 272.73,216.55C272.86,217.88 272.95,219.22 273.04,220.55C273.13,221.89 273.19,223.22 273.25,224.56C273.31,225.9 273.37,227.23 273.42,228.57C273.47,229.9 273.52,231.24 273.57,232.57C273.62,233.91 273.67,235.24 273.72,236.58C273.77,237.92 273.81,239.25 273.86,240.59C273.9,241.92 273.95,243.26 273.99,244.59C274.03,245.93 274.08,247.26 274.12,248.6C274.16,249.93 274.2,251.27 274.23,252.6C274.26,253.94 274.29,255.27 274.32,256.61C274.34,257.95 274.36,259.28 274.38,260.62C274.39,261.95 274.41,263.29 274.41,264.62C274.41,265.96 274.4,267.29 274.38,268.63C274.36,269.97 274.34,271.3 274.29,272.64C274.24,273.97 274.18,275.31 274.09,276.64C274,277.98 273.89,279.32 273.76,280.65C273.63,281.99 273.47,283.32 273.3,284.65C273.13,285.99 272.92,287.32 272.74,288.66C272.56,290 272.36,291.33 272.2,292.67C272.04,294 271.89,295.33 271.8,296.67C271.71,298 271.66,299.34 271.66,300.68C271.66,302.02 271.73,303.36 271.83,304.69C271.93,306.03 272.08,307.36 272.24,308.69C272.4,310.03 272.61,311.36 272.79,312.7C272.97,314.04 273.17,315.37 273.34,316.71C273.51,318.04 273.67,319.37 273.8,320.71Q273.93,322.04 274.12,324.72Z" style="vector-effect: non-scaling-stroke; stroke-width: 2px; stroke: rgb(31, 119, 180); stroke-opacity: 1; fill: rgb(31, 119, 180); fill-opacity: 0.5;"/><path class="violin" d="M353.07,343.45Q353.14,338.7 353.19,336.32C353.24,333.94 353.3,331.56 353.37,329.18C353.43,326.8 353.51,324.43 353.58,322.05C353.65,319.67 353.72,317.29 353.78,314.91C353.84,312.53 353.9,310.16 353.94,307.78C353.98,305.4 354,303.02 354,300.64C354,298.26 353.97,295.89 353.94,293.51C353.9,291.13 353.85,288.76 353.79,286.38C353.73,284 353.66,281.62 353.59,279.24C353.52,276.86 353.44,274.49 353.38,272.11C353.32,269.73 353.26,267.35 353.22,264.97C353.18,262.59 353.14,260.22 353.12,257.84C353.1,255.46 353.1,253.09 353.11,250.71C353.12,248.33 353.14,245.95 353.18,243.57C353.22,241.19 353.28,238.82 353.36,236.44C353.44,234.06 353.54,231.68 353.66,229.3C353.78,226.92 353.93,224.55 354.1,222.17C354.27,219.79 354.48,217.42 354.7,215.04C354.92,212.66 355.17,210.28 355.43,207.9C355.69,205.52 355.98,203.15 356.26,200.77C356.54,198.39 356.83,196.01 357.13,193.63C357.42,191.25 357.73,188.88 358.03,186.5C358.33,184.12 358.64,181.75 358.95,179.37C359.26,176.99 359.58,174.61 359.91,172.23C360.24,169.85 360.59,167.48 360.94,165.1C361.29,162.72 361.66,160.34 362.03,157.96C362.39,155.58 362.78,153.21 363.13,150.83C363.48,148.45 363.84,146.08 364.15,143.7C364.46,141.32 364.74,138.94 364.97,136.56C365.2,134.18 365.39,131.81 365.54,129.43C365.69,127.05 365.79,124.67 365.89,122.29C365.99,119.91 366.05,117.54 366.15,115.16C366.25,112.78 366.33,110.41 366.47,108.03C366.61,105.65 366.8,103.27 367,100.89C367.2,98.51 367.47,96.14 367.67,93.76C367.87,91.38 368.12,89 368.22,86.62C368.32,84.24 368.39,81.86 368.25,79.49C368.11,77.11 367.84,74.72 367.4,72.36C366.96,69.97 366.31,67.58 365.6,65.22C364.88,62.83 363.97,60.46 363.09,58.09C362.21,55.7 361.21,53.34 360.33,50.95C359.45,48.58 358.55,46.21 357.8,43.82C357.05,41.45 356.38,39.07 355.82,36.68Q355.27,34.31 354.47,29.55L351.38,29.55Q350.58,34.31 350.03,36.68C349.47,39.07 348.8,41.45 348.05,43.82C347.3,46.21 346.41,48.58 345.53,50.95C344.65,53.34 343.65,55.7 342.77,58.09C341.89,60.46 340.97,62.83 340.25,65.22C339.54,67.58 338.89,69.97 338.45,72.36C338.01,74.72 337.74,77.11 337.61,79.49C337.48,81.86 337.54,84.24 337.64,86.62C337.74,89 337.99,91.38 338.19,93.76C338.39,96.14 338.66,98.51 338.86,100.89C339.06,103.27 339.24,105.65 339.38,108.03C339.52,110.41 339.61,112.78 339.71,115.16C339.81,117.54 339.86,119.91 339.96,122.29C340.06,124.67 340.16,127.05 340.31,129.43C340.47,131.81 340.66,134.18 340.89,136.56C341.12,138.94 341.41,141.32 341.71,143.7C342.02,146.08 342.37,148.45 342.72,150.83C343.07,153.21 343.46,155.58 343.83,157.96C344.2,160.34 344.57,162.72 344.92,165.1C345.27,167.48 345.62,169.85 345.95,172.23C346.28,174.61 346.6,176.99 346.91,179.37C347.22,181.75 347.53,184.12 347.83,186.5C348.13,188.88 348.43,191.25 348.72,193.63C349.02,196.01 349.31,198.39 349.6,200.77C349.88,203.15 350.17,205.52 350.43,207.9C350.69,210.28 350.94,212.66 351.16,215.04C351.38,217.42 351.58,219.79 351.75,222.17C351.92,224.55 352.08,226.92 352.2,229.3C352.33,231.68 352.42,234.06 352.5,236.44C352.58,238.82 352.64,241.19 352.68,243.57C352.72,245.95 352.74,248.33 352.75,250.71C352.76,253.09 352.75,255.46 352.73,257.84C352.71,260.22 352.68,262.59 352.64,264.97C352.6,267.35 352.54,269.73 352.48,272.11C352.42,274.49 352.34,276.86 352.27,279.24C352.2,281.62 352.13,284 352.07,286.38C352.01,288.76 351.94,291.13 351.91,293.51C351.88,295.89 351.86,298.26 351.86,300.64C351.86,303.02 351.88,305.4 351.92,307.78C351.95,310.16 352.01,312.53 352.07,314.91C352.13,317.29 352.21,319.67 352.28,322.05C352.35,324.43 352.43,326.8 352.49,329.18C352.55,331.56 352.61,333.94 352.66,336.32Q352.71,338.7 352.78,343.45Z" style="vector-effect: non-scaling-stroke; stroke-width: 2px; stroke: rgb(31, 119, 180); stroke-opacity: 1; fill: rgb(31, 119, 180); fill-opacity: 0.5;"/><path class="violin" d="M431.95,344.04Q432.24,339.27 432.44,336.88C432.64,334.49 432.88,332.11 433.13,329.72C433.39,327.33 433.69,324.95 433.97,322.56C434.25,320.17 434.57,317.79 434.83,315.4C435.08,313.02 435.34,310.63 435.5,308.24C435.66,305.86 435.78,303.47 435.81,301.08C435.84,298.69 435.79,296.3 435.69,293.91C435.59,291.52 435.4,289.14 435.21,286.75C435.02,284.36 434.77,281.98 434.56,279.59C434.35,277.2 434.13,274.82 433.97,272.43C433.81,270.04 433.66,267.66 433.59,265.27C433.52,262.88 433.5,260.5 433.52,258.11C433.54,255.72 433.63,253.34 433.74,250.95C433.85,248.56 434.02,246.18 434.2,243.79C434.38,241.4 434.59,239.02 434.82,236.63C435.05,234.24 435.3,231.86 435.56,229.47C435.82,227.08 436.09,224.69 436.38,222.3C436.67,219.91 436.98,217.53 437.31,215.14C437.64,212.75 437.99,210.37 438.35,207.98C438.71,205.59 439.09,203.21 439.46,200.82C439.84,198.43 440.23,196.05 440.6,193.66C440.97,191.27 441.35,188.89 441.68,186.5C442.01,184.12 442.32,181.73 442.58,179.34C442.83,176.96 443.06,174.57 443.21,172.18C443.36,169.8 443.47,167.41 443.5,165.02C443.53,162.63 443.5,160.25 443.41,157.86C443.32,155.47 443.15,153.09 442.94,150.7C442.73,148.31 442.45,145.92 442.15,143.53C441.85,141.14 441.48,138.76 441.13,136.37C440.78,133.98 440.39,131.6 440.04,129.21C439.69,126.82 439.32,124.44 439.01,122.05C438.7,119.67 438.42,117.28 438.2,114.89C437.99,112.51 437.82,110.12 437.72,107.73C437.62,105.34 437.6,102.96 437.61,100.57C437.62,98.18 437.71,95.8 437.79,93.41C437.87,91.02 438.01,88.64 438.09,86.25C438.16,83.86 438.25,81.48 438.24,79.09C438.23,76.7 438.16,74.31 438.01,71.92C437.86,69.53 437.61,67.14 437.32,64.76C437.03,62.37 436.64,59.98 436.25,57.6C435.86,55.21 435.4,52.83 434.99,50.44C434.58,48.05 434.16,45.67 433.8,43.28C433.44,40.9 433.1,38.51 432.83,36.12Q432.56,33.74 432.16,28.96L430.55,28.96Q430.15,33.74 429.88,36.12C429.61,38.51 429.28,40.9 428.92,43.28C428.56,45.67 428.13,48.05 427.72,50.44C427.31,52.83 426.86,55.21 426.47,57.6C426.08,59.98 425.69,62.37 425.39,64.76C425.1,67.14 424.85,69.53 424.7,71.92C424.55,74.31 424.49,76.7 424.48,79.09C424.47,81.48 424.56,83.86 424.63,86.25C424.7,88.64 424.84,91.02 424.92,93.41C425,95.8 425.1,98.18 425.11,100.57C425.12,102.96 425.09,105.34 424.99,107.73C424.89,110.12 424.72,112.51 424.51,114.89C424.29,117.28 424,119.67 423.7,122.05C423.39,124.44 423.03,126.82 422.68,129.21C422.33,131.6 421.93,133.98 421.58,136.37C421.23,138.76 420.87,141.14 420.57,143.53C420.27,145.92 419.99,148.31 419.78,150.7C419.57,153.09 419.4,155.47 419.31,157.86C419.22,160.25 419.19,162.63 419.22,165.02C419.25,167.41 419.36,169.8 419.51,172.18C419.66,174.57 419.89,176.96 420.14,179.34C420.4,181.73 420.71,184.12 421.04,186.5C421.37,188.89 421.74,191.27 422.11,193.66C422.48,196.05 422.87,198.43 423.25,200.82C423.63,203.21 424.01,205.59 424.37,207.98C424.73,210.37 425.07,212.75 425.4,215.14C425.73,217.53 426.04,219.91 426.33,222.3C426.62,224.69 426.9,227.08 427.16,229.47C427.42,231.86 427.66,234.24 427.89,236.63C428.11,239.02 428.33,241.4 428.51,243.79C428.69,246.18 428.86,248.56 428.97,250.95C429.08,253.34 429.17,255.72 429.19,258.11C429.21,260.5 429.19,262.88 429.12,265.27C429.05,267.66 428.91,270.04 428.75,272.43C428.59,274.82 428.36,277.2 428.15,279.59C427.94,281.98 427.69,284.36 427.5,286.75C427.31,289.14 427.13,291.52 427.03,293.91C426.93,296.3 426.88,298.69 426.91,301.08C426.94,303.47 427.06,305.86 427.22,308.24C427.38,310.63 427.64,313.01 427.89,315.4C428.14,317.79 428.46,320.17 428.74,322.56C429.02,324.95 429.33,327.33 429.59,329.72C429.85,332.11 430.08,334.49 430.28,336.88Q430.48,339.27 430.77,344.04Z" style="vector-effect: non-scaling-stroke; stroke-width: 2px; stroke: rgb(31, 119, 180); stroke-opacity: 1; fill: rgb(31, 119, 180); fill-opacity: 0.5;"/><path class="violin" d="M510.19,342.65Q510.39,338.02 510.52,335.71C510.65,333.4 510.82,331.08 510.99,328.77C511.16,326.46 511.37,324.14 511.56,321.83C511.75,319.52 511.96,317.2 512.13,314.89C512.3,312.58 512.46,310.26 512.56,307.95C512.66,305.64 512.74,303.32 512.75,301.01C512.76,298.7 512.7,296.38 512.62,294.07C512.53,291.76 512.39,289.44 512.24,287.13C512.09,284.82 511.89,282.5 511.72,280.19C511.55,277.88 511.36,275.56 511.21,273.25C511.06,270.94 510.92,268.62 510.82,266.31C510.72,264 510.66,261.68 510.63,259.37C510.6,257.06 510.6,254.74 510.64,252.43C510.68,250.12 510.75,247.8 510.85,245.49C510.95,243.18 511.07,240.86 511.23,238.55C511.39,236.24 511.57,233.92 511.79,231.61C512.01,229.3 512.26,226.98 512.53,224.67C512.81,222.36 513.11,220.04 513.44,217.73C513.77,215.41 514.14,213.1 514.51,210.79C514.88,208.48 515.29,206.16 515.68,203.85C516.08,201.54 516.49,199.22 516.88,196.91C517.27,194.6 517.67,192.28 518.04,189.97C518.41,187.66 518.77,185.35 519.09,183.03C519.41,180.72 519.72,178.41 519.98,176.09C520.24,173.78 520.48,171.46 520.67,169.15C520.86,166.84 521.03,164.52 521.14,162.21C521.25,159.9 521.33,157.58 521.35,155.27C521.37,152.96 521.34,150.64 521.27,148.33C521.2,146.02 521.07,143.7 520.91,141.39C520.75,139.08 520.54,136.76 520.33,134.45C520.11,132.14 519.85,129.82 519.62,127.51C519.39,125.2 519.15,122.88 518.96,120.57C518.78,118.26 518.6,115.94 518.51,113.63C518.42,111.32 518.39,109 518.44,106.69C518.49,104.38 518.64,102.06 518.81,99.75C518.99,97.43 519.26,95.12 519.49,92.81C519.73,90.5 520.03,88.19 520.22,85.87C520.41,83.56 520.59,81.24 520.61,78.93C520.63,76.62 520.55,74.3 520.32,71.99C520.09,69.67 519.7,67.35 519.24,65.05C518.77,62.73 518.14,60.42 517.52,58.11C516.9,55.79 516.17,53.49 515.52,51.17C514.87,48.86 514.2,46.55 513.63,44.23C513.06,41.92 512.53,39.61 512.1,37.29Q511.67,34.98 511.04,30.35L508.53,30.35Q507.9,34.98 507.47,37.29C507.04,39.61 506.51,41.92 505.94,44.23C505.37,46.55 504.7,48.86 504.05,51.17C503.4,53.49 502.67,55.79 502.05,58.11C501.43,60.42 500.8,62.73 500.33,65.05C499.87,67.35 499.48,69.67 499.25,71.99C499.02,74.3 498.94,76.62 498.96,78.93C498.98,81.24 499.16,83.56 499.35,85.87C499.54,88.19 499.84,90.5 500.08,92.81C500.32,95.12 500.59,97.43 500.77,99.75C500.94,102.06 501.08,104.38 501.13,106.69C501.18,109 501.15,111.32 501.06,113.63C500.97,115.94 500.79,118.26 500.61,120.57C500.42,122.88 500.18,125.2 499.95,127.51C499.72,129.82 499.46,132.14 499.24,134.45C499.03,136.76 498.82,139.08 498.66,141.39C498.5,143.7 498.37,146.02 498.3,148.33C498.23,150.64 498.21,152.96 498.23,155.27C498.25,157.58 498.32,159.9 498.43,162.21C498.54,164.52 498.71,166.84 498.9,169.15C499.09,171.46 499.33,173.78 499.59,176.09C499.85,178.41 500.16,180.72 500.48,183.03C500.8,185.35 501.16,187.66 501.53,189.97C501.9,192.28 502.3,194.6 502.69,196.91C503.08,199.22 503.49,201.54 503.89,203.85C504.28,206.16 504.69,208.48 505.06,210.79C505.43,213.1 505.8,215.41 506.13,217.73C506.46,220.04 506.76,222.36 507.04,224.67C507.31,226.98 507.56,229.3 507.78,231.61C508,233.92 508.18,236.24 508.34,238.55C508.5,240.86 508.63,243.18 508.73,245.49C508.83,247.8 508.9,250.12 508.93,252.43C508.96,254.74 508.97,257.06 508.94,259.37C508.91,261.68 508.85,264 508.75,266.31C508.65,268.62 508.51,270.94 508.36,273.25C508.21,275.56 508.02,277.88 507.85,280.19C507.68,282.5 507.48,284.82 507.33,287.13C507.18,289.44 507.04,291.76 506.95,294.07C506.87,296.38 506.81,298.7 506.82,301.01C506.83,303.32 506.91,305.64 507.01,307.95C507.11,310.26 507.27,312.58 507.44,314.89C507.61,317.2 507.83,319.52 508.02,321.83C508.21,324.14 508.41,326.46 508.58,328.77C508.75,331.08 508.91,333.4 509.05,335.71Q509.18,338.02 509.39,342.65Z" style="vector-effect: non-scaling-stroke; stroke-width: 2px; stroke: rgb(31, 119, 180); stroke-opacity: 1; fill: rgb(31, 119, 180); fill-opacity: 0.5;"/><g class="points"><path class="point" transform="translate(39.21,300.5)" d="M3,0A3,3 0 1,1 0,-3A3,3 0 0,1 3,0Z" style="opacity: 1; stroke-width: 0px; fill: rgb(31, 119, 180); fill-opacity: 1;"/><path class="point" transform="translate(39.21,300.5)" d="M3,0A3,3 0 1,1 0,-3A3,3 0 0,1 3,0Z" style="opacity: 1; stroke-width: 0px; fill: rgb(31, 119, 180); fill-opacity: 1;"/><path class="point" transform="translate(39.21,300.5)" d="M3,0A3,3 0 1,1 0,-3A3,3 0 0,1 3,0Z" style="opacity: 1; stroke-width: 0px; fill: rgb(31, 119, 180); fill-opacity: 1;"/><path class="point" transform="translate(39.21,300.5)" d="M3,0A3,3 0 1,1 0,-3A3,3 0 0,1 3,0Z" style="opacity: 1; stroke-width: 0px; fill: rgb(31, 119, 180); fill-opacity: 1;"/><path class="point" transform="translate(39.21,300.5)" d="M3,0A3,3 0 1,1 0,-3A3,3 0 0,1 3,0Z" style="opacity: 1; stroke-width: 0px; fill: rgb(31, 119, 180); fill-opacity: 1;"/><path class="point" transform="translate(39.21,300.5)" d="M3,0A3,3 0 1,1 0,-3A3,3 0 0,1 3,0Z" style="opacity: 1; stroke-width: 0px; fill: rgb(31, 119, 180); fill-opacity: 1;"/><path class="point" transform="translate(39.21,300.5)" d="M3,0A3,3 0 1,1 0,-3A3,3 0 0,1 3,0Z" style="opacity: 1; stroke-width: 0px; fill: rgb(31, 119, 180); fill-opacity: 1;"/><path class="point" transform="translate(39.21,300.5)" d="M3,0A3,3 0 1,1 0,-3A3,3 0 0,1 3,0Z" style="opacity: 1; stroke-width: 0px; fill: rgb(31, 119, 180); fill-opacity: 1;"/><path class="point" transform="translate(39.21,300.5)" d="M3,0A3,3 0 1,1 0,-3A3,3 0 0,1 3,0Z" style="opacity: 1; stroke-width: 0px; fill: rgb(31, 119, 180); fill-opacity: 1;"/><path class="point" transform="translate(39.21,300.5)" d="M3,0A3,3 0 1,1 0,-3A3,3 0 0,1 3,0Z" style="opacity: 1; stroke-width: 0px; fill: rgb(31, 119, 180); fill-opacity: 1;"/><path class="point" transform="translate(39.21,300.5)" d="M3,0A3,3 0 1,1 0,-3A3,3 0 0,1 3,0Z" style="opacity: 1; stroke-width: 0px; fill: rgb(31, 119, 180); fill-opacity: 1;"/><path class="point" transform="translate(39.21,300.5)" d="M3,0A3,3 0 1,1 0,-3A3,3 0 0,1 3,0Z" style="opacity: 1; stroke-width: 0px; fill: rgb(31, 119, 180); fill-opacity: 1;"/><path class="point" transform="translate(39.21,300.5)" d="M3,0A3,3 0 1,1 0,-3A3,3 0 0,1 3,0Z" style="opacity: 1; stroke-width: 0px; fill: rgb(31, 119, 180); fill-opacity: 1;"/><path class="point" transform="translate(39.21,300.5)" d="M3,0A3,3 0 1,1 0,-3A3,3 0 0,1 3,0Z" style="opacity: 1; stroke-width: 0px; fill: rgb(31, 119, 180); fill-opacity: 1;"/><path class="point" transform="translate(39.21,300.5)" d="M3,0A3,3 0 1,1 0,-3A3,3 0 0,1 3,0Z" style="opacity: 1; stroke-width: 0px; fill: rgb(31, 119, 180); fill-opacity: 1;"/><path class="point" transform="translate(39.21,300.5)" d="M3,0A3,3 0 1,1 0,-3A3,3 0 0,1 3,0Z" style="opacity: 1; stroke-width: 0px; fill: rgb(31, 119, 180); fill-opacity: 1;"/><path class="point" transform="translate(39.21,300.5)" d="M3,0A3,3 0 1,1 0,-3A3,3 0 0,1 3,0Z" style="opacity: 1; stroke-width: 0px; fill: rgb(31, 119, 180); fill-opacity: 1;"/><path class="point" transform="translate(39.21,300.5)" d="M3,0A3,3 0 1,1 0,-3A3,3 0 0,1 3,0Z" style="opacity: 1; stroke-width: 0px; fill: rgb(31, 119, 180); fill-opacity: 1;"/><path class="point" transform="translate(39.21,300.5)" d="M3,0A3,3 0 1,1 0,-3A3,3 0 0,1 3,0Z" style="opacity: 1; stroke-width: 0px; fill: rgb(31, 119, 180); fill-opacity: 1;"/><path class="point" transform="translate(39.21,300.5)" d="M3,0A3,3 0 1,1 0,-3A3,3 0 0,1 3,0Z" style="opacity: 1; stroke-width: 0px; fill: rgb(31, 119, 180); fill-opacity: 1;"/><path class="point" transform="translate(39.21,300.5)" d="M3,0A3,3 0 1,1 0,-3A3,3 0 0,1 3,0Z" style="opacity: 1; stroke-width: 0px; fill: rgb(31, 119, 180); fill-opacity: 1;"/><path class="point" transform="translate(39.21,300.5)" d="M3,0A3,3 0 1,1 0,-3A3,3 0 0,1 3,0Z" style="opacity: 1; stroke-width: 0px; fill: rgb(31, 119, 180); fill-opacity: 1;"/><path class="point" transform="translate(39.21,300.5)" d="M3,0A3,3 0 1,1 0,-3A3,3 0 0,1 3,0Z" style="opacity: 1; stroke-width: 0px; fill: rgb(31, 119, 180); fill-opacity: 1;"/><path class="point" transform="translate(39.21,300.5)" d="M3,0A3,3 0 1,1 0,-3A3,3 0 0,1 3,0Z" style="opacity: 1; stroke-width: 0px; fill: rgb(31, 119, 180); fill-opacity: 1;"/><path class="point" transform="translate(39.21,300.5)" d="M3,0A3,3 0 1,1 0,-3A3,3 0 0,1 3,0Z" style="opacity: 1; stroke-width: 0px; fill: rgb(31, 119, 180); fill-opacity: 1;"/><path class="point" transform="translate(39.21,300.5)" d="M3,0A3,3 0 1,1 0,-3A3,3 0 0,1 3,0Z" style="opacity: 1; stroke-width: 0px; fill: rgb(31, 119, 180); fill-opacity: 1;"/><path class="point" transform="translate(39.21,300.5)" d="M3,0A3,3 0 1,1 0,-3A3,3 0 0,1 3,0Z" style="opacity: 1; stroke-width: 0px; fill: rgb(31, 119, 180); fill-opacity: 1;"/><path class="point" transform="translate(39.21,300.5)" d="M3,0A3,3 0 1,1 0,-3A3,3 0 0,1 3,0Z" style="opacity: 1; stroke-width: 0px; fill: rgb(31, 119, 180); fill-opacity: 1;"/><path class="point" transform="translate(39.21,300.5)" d="M3,0A3,3 0 1,1 0,-3A3,3 0 0,1 3,0Z" style="opacity: 1; stroke-width: 0px; fill: rgb(31, 119, 180); fill-opacity: 1;"/><path class="point" transform="translate(39.21,300.5)" d="M3,0A3,3 0 1,1 0,-3A3,3 0 0,1 3,0Z" style="opacity: 1; stroke-width: 0px; fill: rgb(31, 119, 180); fill-opacity: 1;"/><path class="point" transform="translate(39.21,300.5)" d="M3,0A3,3 0 1,1 0,-3A3,3 0 0,1 3,0Z" style="opacity: 1; stroke-width: 0px; fill: rgb(31, 119, 180); fill-opacity: 1;"/></g><g class="points"/><g class="points"><path class="point" transform="translate(196.07,300.5)" d="M3,0A3,3 0 1,1 0,-3A3,3 0 0,1 3,0Z" style="opacity: 1; stroke-width: 0px; fill: rgb(31, 119, 180); fill-opacity: 1;"/><path class="point" transform="translate(196.07,300.5)" d="M3,0A3,3 0 1,1 0,-3A3,3 0 0,1 3,0Z" style="opacity: 1; stroke-width: 0px; fill: rgb(31, 119, 180); fill-opacity: 1;"/><path class="point" transform="translate(196.07,300.5)" d="M3,0A3,3 0 1,1 0,-3A3,3 0 0,1 3,0Z" style="opacity: 1; stroke-width: 0px; fill: rgb(31, 119, 180); fill-opacity: 1;"/><path class="point" transform="translate(196.07,300.5)" d="M3,0A3,3 0 1,1 0,-3A3,3 0 0,1 3,0Z" style="opacity: 1; stroke-width: 0px; fill: rgb(31, 119, 180); fill-opacity: 1;"/><path class="point" transform="translate(196.07,300.5)" d="M3,0A3,3 0 1,1 0,-3A3,3 0 0,1 3,0Z" style="opacity: 1; stroke-width: 0px; fill: rgb(31, 119, 180); fill-opacity: 1;"/><path class="point" transform="translate(196.07,300.5)" d="M3,0A3,3 0 1,1 0,-3A3,3 0 0,1 3,0Z" style="opacity: 1; stroke-width: 0px; fill: rgb(31, 119, 180); fill-opacity: 1;"/><path class="point" transform="translate(196.07,300.5)" d="M3,0A3,3 0 1,1 0,-3A3,3 0 0,1 3,0Z" style="opacity: 1; stroke-width: 0px; fill: rgb(31, 119, 180); fill-opacity: 1;"/><path class="point" transform="translate(196.07,300.5)" d="M3,0A3,3 0 1,1 0,-3A3,3 0 0,1 3,0Z" style="opacity: 1; stroke-width: 0px; fill: rgb(31, 119, 180); fill-opacity: 1;"/><path class="point" transform="translate(196.07,300.5)" d="M3,0A3,3 0 1,1 0,-3A3,3 0 0,1 3,0Z" style="opacity: 1; stroke-width: 0px; fill: rgb(31, 119, 180); fill-opacity: 1;"/><path class="point" transform="translate(196.07,300.5)" d="M3,0A3,3 0 1,1 0,-3A3,3 0 0,1 3,0Z" style="opacity: 1; stroke-width: 0px; fill: rgb(31, 119, 180); fill-opacity: 1;"/><path class="point" transform="translate(196.07,300.5)" d="M3,0A3,3 0 1,1 0,-3A3,3 0 0,1 3,0Z" style="opacity: 1; stroke-width: 0px; fill: rgb(31, 119, 180); fill-opacity: 1;"/><path class="point" transform="translate(196.07,300.5)" d="M3,0A3,3 0 1,1 0,-3A3,3 0 0,1 3,0Z" style="opacity: 1; stroke-width: 0px; fill: rgb(31, 119, 180); fill-opacity: 1;"/><path class="point" transform="translate(196.07,300.5)" d="M3,0A3,3 0 1,1 0,-3A3,3 0 0,1 3,0Z" style="opacity: 1; stroke-width: 0px; fill: rgb(31, 119, 180); fill-opacity: 1;"/><path class="point" transform="translate(196.07,300.5)" d="M3,0A3,3 0 1,1 0,-3A3,3 0 0,1 3,0Z" style="opacity: 1; stroke-width: 0px; fill: rgb(31, 119, 180); fill-opacity: 1;"/><path class="point" transform="translate(196.07,300.5)" d="M3,0A3,3 0 1,1 0,-3A3,3 0 0,1 3,0Z" style="opacity: 1; stroke-width: 0px; fill: rgb(31, 119, 180); fill-opacity: 1;"/><path class="point" transform="translate(196.07,300.5)" d="M3,0A3,3 0 1,1 0,-3A3,3 0 0,1 3,0Z" style="opacity: 1; stroke-width: 0px; fill: rgb(31, 119, 180); fill-opacity: 1;"/><path class="point" transform="translate(196.07,300.5)" d="M3,0A3,3 0 1,1 0,-3A3,3 0 0,1 3,0Z" style="opacity: 1; stroke-width: 0px; fill: rgb(31, 119, 180); fill-opacity: 1;"/><path class="point" transform="translate(196.07,300.5)" d="M3,0A3,3 0 1,1 0,-3A3,3 0 0,1 3,0Z" style="opacity: 1; stroke-width: 0px; fill: rgb(31, 119, 180); fill-opacity: 1;"/><path class="point" transform="translate(196.07,300.5)" d="M3,0A3,3 0 1,1 0,-3A3,3 0 0,1 3,0Z" style="opacity: 1; stroke-width: 0px; fill: rgb(31, 119, 180); fill-opacity: 1;"/><path class="point" transform="translate(196.07,300.5)" d="M3,0A3,3 0 1,1 0,-3A3,3 0 0,1 3,0Z" style="opacity: 1; stroke-width: 0px; fill: rgb(31, 119, 180); fill-opacity: 1;"/><path class="point" transform="translate(196.07,300.5)" d="M3,0A3,3 0 1,1 0,-3A3,3 0 0,1 3,0Z" style="opacity: 1; stroke-width: 0px; fill: rgb(31, 119, 180); fill-opacity: 1;"/><path class="point" transform="translate(196.07,300.5)" d="M3,0A3,3 0 1,1 0,-3A3,3 0 0,1 3,0Z" style="opacity: 1; stroke-width: 0px; fill: rgb(31, 119, 180); fill-opacity: 1;"/><path class="point" transform="translate(196.07,300.5)" d="M3,0A3,3 0 1,1 0,-3A3,3 0 0,1 3,0Z" style="opacity: 1; stroke-width: 0px; fill: rgb(31, 119, 180); fill-opacity: 1;"/><path class="point" transform="translate(196.07,300.5)" d="M3,0A3,3 0 1,1 0,-3A3,3 0 0,1 3,0Z" style="opacity: 1; stroke-width: 0px; fill: rgb(31, 119, 180); fill-opacity: 1;"/><path class="point" transform="translate(196.07,300.5)" d="M3,0A3,3 0 1,1 0,-3A3,3 0 0,1 3,0Z" style="opacity: 1; stroke-width: 0px; fill: rgb(31, 119, 180); fill-opacity: 1;"/><path class="point" transform="translate(196.07,300.5)" d="M3,0A3,3 0 1,1 0,-3A3,3 0 0,1 3,0Z" style="opacity: 1; stroke-width: 0px; fill: rgb(31, 119, 180); fill-opacity: 1;"/><path class="point" transform="translate(196.07,300.5)" d="M3,0A3,3 0 1,1 0,-3A3,3 0 0,1 3,0Z" style="opacity: 1; stroke-width: 0px; fill: rgb(31, 119, 180); fill-opacity: 1;"/><path class="point" transform="translate(196.07,300.5)" d="M3,0A3,3 0 1,1 0,-3A3,3 0 0,1 3,0Z" style="opacity: 1; stroke-width: 0px; fill: rgb(31, 119, 180); fill-opacity: 1;"/><path class="point" transform="translate(196.07,300.5)" d="M3,0A3,3 0 1,1 0,-3A3,3 0 0,1 3,0Z" style="opacity: 1; stroke-width: 0px; fill: rgb(31, 119, 180); fill-opacity: 1;"/><path class="point" transform="translate(196.07,300.5)" d="M3,0A3,3 0 1,1 0,-3A3,3 0 0,1 3,0Z" style="opacity: 1; stroke-width: 0px; fill: rgb(31, 119, 180); fill-opacity: 1;"/><path class="point" transform="translate(196.07,300.5)" d="M3,0A3,3 0 1,1 0,-3A3,3 0 0,1 3,0Z" style="opacity: 1; stroke-width: 0px; fill: rgb(31, 119, 180); fill-opacity: 1;"/><path class="point" transform="translate(196.07,300.5)" d="M3,0A3,3 0 1,1 0,-3A3,3 0 0,1 3,0Z" style="opacity: 1; stroke-width: 0px; fill: rgb(31, 119, 180); fill-opacity: 1;"/><path class="point" transform="translate(196.07,300.5)" d="M3,0A3,3 0 1,1 0,-3A3,3 0 0,1 3,0Z" style="opacity: 1; stroke-width: 0px; fill: rgb(31, 119, 180); fill-opacity: 1;"/><path class="point" transform="translate(196.07,300.5)" d="M3,0A3,3 0 1,1 0,-3A3,3 0 0,1 3,0Z" style="opacity: 1; stroke-width: 0px; fill: rgb(31, 119, 180); fill-opacity: 1;"/><path class="point" transform="translate(196.07,300.5)" d="M3,0A3,3 0 1,1 0,-3A3,3 0 0,1 3,0Z" style="opacity: 1; stroke-width: 0px; fill: rgb(31, 119, 180); fill-opacity: 1;"/><path class="point" transform="translate(196.07,300.5)" d="M3,0A3,3 0 1,1 0,-3A3,3 0 0,1 3,0Z" style="opacity: 1; stroke-width: 0px; fill: rgb(31, 119, 180); fill-opacity: 1;"/><path class="point" transform="translate(196.07,300.5)" d="M3,0A3,3 0 1,1 0,-3A3,3 0 0,1 3,0Z" style="opacity: 1; stroke-width: 0px; fill: rgb(31, 119, 180); fill-opacity: 1;"/><path class="point" transform="translate(196.07,300.5)" d="M3,0A3,3 0 1,1 0,-3A3,3 0 0,1 3,0Z" style="opacity: 1; stroke-width: 0px; fill: rgb(31, 119, 180); fill-opacity: 1;"/></g><g class="points"><path class="point" transform="translate(274.5,300.5)" d="M3,0A3,3 0 1,1 0,-3A3,3 0 0,1 3,0Z" style="opacity: 1; stroke-width: 0px; fill: rgb(31, 119, 180); fill-opacity: 1;"/><path class="point" transform="translate(274.5,300.5)" d="M3,0A3,3 0 1,1 0,-3A3,3 0 0,1 3,0Z" style="opacity: 1; stroke-width: 0px; fill: rgb(31, 119, 180); fill-opacity: 1;"/><path class="point" transform="translate(274.5,300.5)" d="M3,0A3,3 0 1,1 0,-3A3,3 0 0,1 3,0Z" style="opacity: 1; stroke-width: 0px; fill: rgb(31, 119, 180); fill-opacity: 1;"/><path class="point" transform="translate(274.5,300.5)" d="M3,0A3,3 0 1,1 0,-3A3,3 0 0,1 3,0Z" style="opacity: 1; stroke-width: 0px; fill: rgb(31, 119, 180); fill-opacity: 1;"/><path class="point" transform="translate(274.5,300.5)" d="M3,0A3,3 0 1,1 0,-3A3,3 0 0,1 3,0Z" style="opacity: 1; stroke-width: 0px; fill: rgb(31, 119, 180); fill-opacity: 1;"/><path class="point" transform="translate(274.5,300.5)" d="M3,0A3,3 0 1,1 0,-3A3,3 0 0,1 3,0Z" style="opacity: 1; stroke-width: 0px; fill: rgb(31, 119, 180); fill-opacity: 1;"/><path class="point" transform="translate(274.5,300.5)" d="M3,0A3,3 0 1,1 0,-3A3,3 0 0,1 3,0Z" style="opacity: 1; stroke-width: 0px; fill: rgb(31, 119, 180); fill-opacity: 1;"/><path class="point" transform="translate(274.5,300.5)" d="M3,0A3,3 0 1,1 0,-3A3,3 0 0,1 3,0Z" style="opacity: 1; stroke-width: 0px; fill: rgb(31, 119, 180); fill-opacity: 1;"/><path class="point" transform="translate(274.5,300.5)" d="M3,0A3,3 0 1,1 0,-3A3,3 0 0,1 3,0Z" style="opacity: 1; stroke-width: 0px; fill: rgb(31, 119, 180); fill-opacity: 1;"/><path class="point" transform="translate(274.5,300.5)" d="M3,0A3,3 0 1,1 0,-3A3,3 0 0,1 3,0Z" style="opacity: 1; stroke-width: 0px; fill: rgb(31, 119, 180); fill-opacity: 1;"/><path class="point" transform="translate(274.5,300.5)" d="M3,0A3,3 0 1,1 0,-3A3,3 0 0,1 3,0Z" style="opacity: 1; stroke-width: 0px; fill: rgb(31, 119, 180); fill-opacity: 1;"/><path class="point" transform="translate(274.5,300.5)" d="M3,0A3,3 0 1,1 0,-3A3,3 0 0,1 3,0Z" style="opacity: 1; stroke-width: 0px; fill: rgb(31, 119, 180); fill-opacity: 1;"/><path class="point" transform="translate(274.5,300.5)" d="M3,0A3,3 0 1,1 0,-3A3,3 0 0,1 3,0Z" style="opacity: 1; stroke-width: 0px; fill: rgb(31, 119, 180); fill-opacity: 1;"/><path class="point" transform="translate(274.5,300.5)" d="M3,0A3,3 0 1,1 0,-3A3,3 0 0,1 3,0Z" style="opacity: 1; stroke-width: 0px; fill: rgb(31, 119, 180); fill-opacity: 1;"/><path class="point" transform="translate(274.5,300.5)" d="M3,0A3,3 0 1,1 0,-3A3,3 0 0,1 3,0Z" style="opacity: 1; stroke-width: 0px; fill: rgb(31, 119, 180); fill-opacity: 1;"/><path class="point" transform="translate(274.5,300.5)" d="M3,0A3,3 0 1,1 0,-3A3,3 0 0,1 3,0Z" style="opacity: 1; stroke-width: 0px; fill: rgb(31, 119, 180); fill-opacity: 1;"/><path class="point" transform="translate(274.5,300.5)" d="M3,0A3,3 0 1,1 0,-3A3,3 0 0,1 3,0Z" style="opacity: 1; stroke-width: 0px; fill: rgb(31, 119, 180); fill-opacity: 1;"/></g><g class="points"><path class="point" transform="translate(352.93,300.5)" d="M3,0A3,3 0 1,1 0,-3A3,3 0 0,1 3,0Z" style="opacity: 1; stroke-width: 0px; fill: rgb(31, 119, 180); fill-opacity: 1;"/><path class="point" transform="translate(352.93,300.5)" d="M3,0A3,3 0 1,1 0,-3A3,3 0 0,1 3,0Z" style="opacity: 1; stroke-width: 0px; fill: rgb(31, 119, 180); fill-opacity: 1;"/><path class="point" transform="translate(352.93,300.5)" d="M3,0A3,3 0 1,1 0,-3A3,3 0 0,1 3,0Z" style="opacity: 1; stroke-width: 0px; fill: rgb(31, 119, 180); fill-opacity: 1;"/></g><g class="points"/><g class="points"/></g></g></g><g class="overplot"/><path class="xlines-above crisp" d="M0,0" style="fill: none;"/><path class="ylines-above crisp" d="M0,0" style="fill: none;"/><g class="overlines-above"/><g class="xaxislayer-above"><g class="xtick"><text text-anchor="middle" x="0" y="436" transform="translate(91.21000000000001,0)" style="font-family: 'Open Sans', verdana, arial, sans-serif; font-size: 12px; fill: rgb(68, 68, 68); fill-opacity: 1; white-space: pre; opacity: 1;">공학계열</text></g><g class="xtick"><text text-anchor="middle" x="0" y="436" transform="translate(169.64,0)" style="font-family: 'Open Sans', verdana, arial, sans-serif; font-size: 12px; fill: rgb(68, 68, 68); fill-opacity: 1; white-space: pre; opacity: 1;">교육계열</text></g><g class="xtick"><text text-anchor="middle" x="0" y="436" transform="translate(248.07,0)" style="font-family: 'Open Sans', verdana, arial, sans-serif; font-size: 12px; fill: rgb(68, 68, 68); fill-opacity: 1; white-space: pre; opacity: 1;">사회계열</text></g><g class="xtick"><text text-anchor="middle" x="0" y="436" transform="translate(326.5,0)" style="font-family: 'Open Sans', verdana, arial, sans-serif; font-size: 12px; fill: rgb(68, 68, 68); fill-opacity: 1; white-space: pre; opacity: 1;">예체능계열</text></g><g class="xtick"><text text-anchor="middle" x="0" y="436" transform="translate(404.93,0)" style="font-family: 'Open Sans', verdana, arial, sans-serif; font-size: 12px; fill: rgb(68, 68, 68); fill-opacity: 1; white-space: pre; opacity: 1;">의약계열</text></g><g class="xtick"><text text-anchor="middle" x="0" y="436" transform="translate(483.36,0)" style="font-family: 'Open Sans', verdana, arial, sans-serif; font-size: 12px; fill: rgb(68, 68, 68); fill-opacity: 1; white-space: pre; opacity: 1;">인문계열</text></g><g class="xtick"><text text-anchor="middle" x="0" y="436" transform="translate(561.79,0)" style="font-family: 'Open Sans', verdana, arial, sans-serif; font-size: 12px; fill: rgb(68, 68, 68); fill-opacity: 1; white-space: pre; opacity: 1;">자연계열</text></g></g><g class="yaxislayer-above"><g class="ytick"><text text-anchor="end" x="51" y="4.199999999999999" transform="translate(0,396.11)" style="font-family: 'Open Sans', verdana, arial, sans-serif; font-size: 12px; fill: rgb(68, 68, 68); fill-opacity: 1; white-space: pre; opacity: 1;">−20</text></g><g class="ytick"><text text-anchor="end" x="51" y="4.199999999999999" style="font-family: 'Open Sans', verdana, arial, sans-serif; font-size: 12px; fill: rgb(68, 68, 68); fill-opacity: 1; white-space: pre; opacity: 1;" transform="translate(0,350.5)">0</text></g><g class="ytick"><text text-anchor="end" x="51" y="4.199999999999999" style="font-family: 'Open Sans', verdana, arial, sans-serif; font-size: 12px; fill: rgb(68, 68, 68); fill-opacity: 1; white-space: pre; opacity: 1;" transform="translate(0,304.9)">20</text></g><g class="ytick"><text text-anchor="end" x="51" y="4.199999999999999" style="font-family: 'Open Sans', verdana, arial, sans-serif; font-size: 12px; fill: rgb(68, 68, 68); fill-opacity: 1; white-space: pre; opacity: 1;" transform="translate(0,259.3)">40</text></g><g class="ytick"><text text-anchor="end" x="51" y="4.199999999999999" style="font-family: 'Open Sans', verdana, arial, sans-serif; font-size: 12px; fill: rgb(68, 68, 68); fill-opacity: 1; white-space: pre; opacity: 1;" transform="translate(0,213.7)">60</text></g><g class="ytick"><text text-anchor="end" x="51" y="4.199999999999999" style="font-family: 'Open Sans', verdana, arial, sans-serif; font-size: 12px; fill: rgb(68, 68, 68); fill-opacity: 1; white-space: pre; opacity: 1;" transform="translate(0,168.1)">80</text></g><g class="ytick"><text text-anchor="end" x="51" y="4.199999999999999" style="font-family: 'Open Sans', verdana, arial, sans-serif; font-size: 12px; fill: rgb(68, 68, 68); fill-opacity: 1; white-space: pre; opacity: 1;" transform="translate(0,122.5)">100</text></g><g class="ytick"><text text-anchor="end" x="51" y="4.199999999999999" style="font-family: 'Open Sans', verdana, arial, sans-serif; font-size: 12px; fill: rgb(68, 68, 68); fill-opacity: 1; white-space: pre; opacity: 1;" transform="translate(0,76.89)">120</text></g></g><g class="overaxes-above"/></g></g><g class="polarlayer"/><g class="ternarylayer"/><g class="geolayer"/><g class="funnelarealayer"/><g class="pielayer"/><g class="iciclelayer"/><g class="treemaplayer"/><g class="sunburstlayer"/><g class="glimages"/><defs id="topdefs-8d7485"><g class="clips"/></defs><g class="layer-above"><g class="imagelayer"/><g class="shapelayer"/></g><g class="infolayer"><g class="g-gtitle"><text class="gtitle" x="313.182" y="25" text-anchor="middle" dy="0em" style="font-family: 'Open Sans', verdana, arial, sans-serif; font-size: 17px; fill: rgb(68, 68, 68); opacity: 1; font-weight: normal; white-space: pre;">대학 계열별 취업률 분포</text></g><g class="g-xtitle" transform="translate(0,-12.280174179077164)"><text class="xtitle" x="326.5" y="475" text-anchor="middle" style="font-family: 'Open Sans', verdana, arial, sans-serif; font-size: 14px; fill: rgb(68, 68, 68); opacity: 1; font-weight: normal; white-space: pre;">대계열</text></g><g class="g-ytitle"><text class="ytitle" transform="rotate(-90,14,236.5)" x="14" y="236.5" text-anchor="middle" style="font-family: 'Open Sans', verdana, arial, sans-serif; font-size: 14px; fill: rgb(68, 68, 68); opacity: 1; font-weight: normal; white-space: pre;">취업률</text></g></g></svg>