<svg class="main-svg" xmlns="http://www.w3.org/2000/svg" xmlns:xlink="http://www.w3.org/1999/xlink" width="626.364" height="465.455" style="" viewBox="0 0 626.364 465.455"><rect x="0" y="0" width="626.364" height="465.455" style="fill: rgb(255, 255, 255); fill-opacity: 1;"/><defs id="defs-cd4106"><g class="clips"><clipPath id="clipcd4106xyplot" class="plotclip"><rect width="460" height="373"/></clipPath><clipPath class="axesclip" id="clipcd4106x"><rect x="52" y="0" width="460" height="465.455"/></clipPath><clipPath class="axesclip" id="clipcd4106y"><rect x="0" y="50" width="626.364" height="373"/></clipPath><clipPath class="axesclip" id="clipcd4106xy"><rect x="52" y="50" width="460" height="373"/></clipPath></g><g class="gradients"/><g class="patterns"/></defs><g class="bglayer"/><g class="layer-below"><g class="imagelayer"/><g class="shapelayer"/></g><g class="cartesianlayer"><g class="subplot xy"><g class="layer-subplot"><g class="shapelayer"/><g class="imagelayer"/></g><g class="gridlayer"><g class="x"/><g class="y"><path class="ygrid crisp" transform="translate(0,383.79)" d="M52,0h460" style="stroke: rgb(238, 238, 238); stroke-opacity: 1; stroke-width: 1px;"/><path class="ygrid crisp" transform="translate(0,299.63)" d="M52,0h460" style="stroke: rgb(238, 238, 238); stroke-opacity: 1; stroke-width: 1px;"/><path class="ygrid crisp" transform="translate(0,257.53999999999996)" d="M52,0h460" style="stroke: rgb(238, 238, 238); stroke-opacity: 1; stroke-width: 1px;"/><path class="ygrid crisp" transform="translate(0,215.46)" d="M52,0h460" style="stroke: rgb(238, 238, 238); stroke-opacity: 1; stroke-width: 1px;"/><path class="ygrid crisp" transform="translate(0,173.37)" d="M52,0h460" style="stroke: rgb(238, 238, 238); stroke-opacity: 1; stroke-width: 1px;"/><path class="ygrid crisp" transform="translate(0,131.29000000000002)" d="M52,0h460" style="stroke: rgb(238, 238, 238); stroke-opacity: 1; stroke-width: 1px;"/><path class="ygrid crisp" transform="translate(0,89.21000000000001)" d="M52,0h460" style="stroke: rgb(238, 238, 238); stroke-opacity: 1; stroke-width: 1px;"/></g></g><g class="zerolinelayer"><path class="yzl zl crisp" transform="translate(0,341.71)" d="M52,0h460" style="stroke: rgb(68, 68, 68); stroke-opacity: 1; stroke-width: 1px;"/></g><path class="xlines-below"/><path class="ylines-below"/><g class="overlines-below"/><g class="xaxislayer-below"/><g class="yaxislayer-below"/><g class="overaxes-below"/><g class="plot" transform="translate(52,50)" clip-path="url(#clipcd4106xyplot)"><g class="violinlayer mlayer"><g class="trace violins" style="opacity: 1;"><path class="violin" d="M17.69,316.49L17.84,316.49Q17.92,313.74 17.97,312.36C18.02,310.99 18.08,309.61 18.14,308.24C18.21,306.86 18.29,305.49 18.36,304.11C18.43,302.73 18.51,301.36 18.57,299.98C18.63,298.61 18.69,297.23 18.73,295.86C18.77,294.48 18.79,293.11 18.79,291.73C18.79,290.35 18.77,288.98 18.73,287.6C18.69,286.23 18.63,284.85 18.57,283.48C18.51,282.1 18.43,280.73 18.36,279.35C18.29,277.97 18.22,276.6 18.15,275.22C18.09,273.85 18.02,272.47 17.97,271.1C17.92,269.72 17.88,268.35 17.85,266.97C17.82,265.59 17.79,264.22 17.78,262.84C17.77,261.47 17.76,260.09 17.76,258.72C17.76,257.34 17.78,255.97 17.79,254.59C17.81,253.21 17.82,251.84 17.85,250.46C17.88,249.09 17.92,247.71 17.96,246.34C18,244.96 18.05,243.59 18.11,242.21C18.17,240.83 18.24,239.46 18.32,238.08C18.4,236.71 18.48,235.33 18.57,233.96C18.66,232.58 18.75,231.21 18.85,229.83C18.95,228.45 19.05,227.08 19.15,225.7C19.25,224.33 19.35,222.95 19.45,221.58C19.55,220.2 19.65,218.83 19.76,217.45C19.87,216.07 19.98,214.7 20.1,213.32C20.22,211.95 20.34,210.57 20.49,209.2C20.64,207.82 20.8,206.45 20.99,205.07C21.18,203.69 21.39,202.31 21.63,200.94C21.87,199.56 22.13,198.19 22.42,196.82C22.71,195.44 23.03,194.06 23.36,192.69C23.69,191.31 24.06,189.93 24.42,188.56C24.79,187.18 25.17,185.81 25.55,184.44C25.94,183.06 26.34,181.69 26.73,180.31C27.13,178.93 27.53,177.56 27.92,176.18C28.31,174.81 28.7,173.44 29.07,172.06C29.43,170.69 29.79,169.31 30.11,167.93C30.42,166.56 30.72,165.18 30.96,163.8C31.2,162.43 31.4,161.06 31.54,159.68C31.68,158.31 31.77,156.93 31.81,155.55C31.85,154.17 31.84,152.8 31.79,151.42C31.74,150.05 31.64,148.67 31.52,147.3C31.4,145.92 31.25,144.55 31.08,143.17C30.91,141.79 30.72,140.41 30.52,139.04C30.32,137.66 30.09,136.29 29.86,134.92C29.63,133.54 29.38,132.17 29.12,130.79C28.86,129.41 28.58,128.03 28.29,126.66C28,125.28 27.69,123.91 27.39,122.54C27.09,121.16 26.77,119.79 26.47,118.41C26.17,117.03 25.86,115.66 25.58,114.28C25.3,112.91 25.04,111.54 24.81,110.16C24.58,108.79 24.38,107.41 24.22,106.03C24.06,104.66 23.94,103.28 23.86,101.9C23.78,100.53 23.74,99.15 23.72,97.78C23.7,96.4 23.73,95.03 23.74,93.65C23.75,92.27 23.8,90.9 23.79,89.52C23.78,88.15 23.78,86.77 23.7,85.4C23.62,84.02 23.5,82.64 23.32,81.27C23.14,79.89 22.89,78.51 22.61,77.14C22.33,75.76 21.98,74.39 21.64,73.02C21.3,71.64 20.92,70.27 20.58,68.89C20.24,67.51 19.89,66.14 19.6,64.76C19.31,63.39 19.05,62.02 18.83,60.64Q18.61,59.27 18.3,56.51L17.69,56.51" style="vector-effect: non-scaling-stroke; stroke-width: 2px; stroke: rgb(8, 81, 156); stroke-opacity: 1; fill: rgb(8, 81, 156); fill-opacity: 0.5;"/><path class="violin" d="M88.46,334.1L88.63,334.1Q88.71,329.42 88.77,327.08C88.83,324.74 88.9,322.39 88.98,320.05C89.06,317.71 89.16,315.36 89.25,313.02C89.35,310.68 89.45,308.33 89.55,305.99C89.64,303.65 89.74,301.3 89.82,298.96C89.9,296.62 89.97,294.27 90.02,291.93C90.07,289.59 90.09,287.24 90.1,284.9C90.11,282.56 90.1,280.21 90.08,277.87C90.06,275.53 90.03,273.19 90.01,270.85C89.99,268.51 89.96,266.16 89.96,263.82C89.96,261.48 89.97,259.13 90.03,256.79C90.09,254.45 90.17,252.1 90.3,249.76C90.43,247.42 90.61,245.07 90.83,242.73C91.05,240.38 91.33,238.04 91.63,235.7C91.94,233.35 92.29,231.01 92.66,228.67C93.03,226.32 93.44,223.98 93.83,221.64C94.22,219.3 94.64,216.96 95.01,214.62C95.38,212.28 95.74,209.94 96.06,207.59C96.38,205.25 96.66,202.91 96.91,200.56C97.16,198.22 97.37,195.87 97.56,193.53C97.75,191.19 97.9,188.84 98.05,186.5C98.2,184.16 98.34,181.81 98.47,179.47C98.6,177.13 98.73,174.78 98.84,172.44C98.95,170.1 99.07,167.75 99.14,165.41C99.21,163.07 99.27,160.72 99.26,158.38C99.25,156.04 99.2,153.7 99.09,151.36C98.98,149.02 98.8,146.67 98.57,144.33C98.34,141.98 98.04,139.64 97.72,137.3C97.4,134.95 97.02,132.61 96.65,130.27C96.28,127.93 95.88,125.58 95.5,123.24C95.12,120.9 94.74,118.56 94.39,116.21C94.04,113.87 93.72,111.52 93.42,109.18C93.12,106.84 92.85,104.49 92.6,102.15C92.35,99.81 92.12,97.47 91.9,95.13C91.68,92.79 91.49,90.44 91.29,88.1C91.09,85.76 90.9,83.41 90.71,81.07C90.52,78.73 90.34,76.38 90.17,74.04C90,71.7 89.83,69.35 89.68,67.01C89.53,64.67 89.38,62.32 89.26,59.98C89.14,57.64 89.03,55.29 88.94,52.95C88.85,50.61 88.79,48.26 88.73,45.92Q88.67,43.58 88.59,38.9L88.46,38.9" style="vector-effect: non-scaling-stroke; stroke-width: 2px; stroke: rgb(8, 81, 156); stroke-opacity: 1; fill: rgb(8, 81, 156); fill-opacity: 0.5;"/><path class="violin" d="M159.23,315.16L159.5,315.16Q159.63,312.56 159.72,311.26C159.81,309.96 159.91,308.66 160.03,307.36C160.15,306.06 160.29,304.76 160.42,303.46C160.55,302.16 160.69,300.86 160.8,299.56C160.91,298.26 161.01,296.96 161.08,295.66C161.14,294.36 161.19,293.06 161.19,291.76C161.19,290.46 161.15,289.17 161.09,287.87C161.03,286.57 160.92,285.27 160.81,283.97C160.7,282.67 160.56,281.37 160.43,280.07C160.31,278.77 160.17,277.47 160.06,276.17C159.95,274.87 159.84,273.57 159.76,272.27C159.68,270.97 159.61,269.67 159.56,268.37C159.51,267.07 159.49,265.77 159.47,264.47C159.45,263.17 159.45,261.87 159.45,260.57C159.45,259.27 159.47,257.98 159.48,256.68C159.5,255.38 159.52,254.08 159.54,252.78C159.56,251.48 159.59,250.18 159.62,248.88C159.65,247.58 159.68,246.28 159.72,244.98C159.76,243.68 159.8,242.38 159.85,241.08C159.9,239.78 159.95,238.48 160,237.18C160.05,235.88 160.11,234.58 160.16,233.28C160.21,231.98 160.26,230.69 160.31,229.39C160.36,228.09 160.41,226.79 160.46,225.49C160.51,224.19 160.55,222.89 160.61,221.59C160.67,220.29 160.73,218.99 160.83,217.69C160.93,216.39 161.04,215.09 161.19,213.79C161.34,212.49 161.51,211.19 161.73,209.89C161.95,208.59 162.2,207.29 162.49,205.99C162.78,204.69 163.11,203.39 163.45,202.09C163.79,200.79 164.18,199.5 164.55,198.2C164.92,196.9 165.31,195.6 165.69,194.3C166.06,193 166.44,191.7 166.8,190.4C167.16,189.1 167.5,187.8 167.83,186.5C168.16,185.2 168.47,183.9 168.79,182.6C169.12,181.3 169.44,180 169.78,178.7C170.12,177.4 170.47,176.1 170.85,174.8C171.23,173.5 171.65,172.21 172.05,170.91C172.46,169.61 172.89,168.31 173.28,167.01C173.67,165.71 174.07,164.42 174.38,163.11C174.69,161.82 174.98,160.52 175.16,159.21C175.34,157.92 175.44,156.61 175.44,155.31C175.44,154.01 175.35,152.71 175.18,151.41C175.01,150.1 174.75,148.8 174.44,147.51C174.13,146.2 173.73,144.9 173.33,143.61C172.93,142.31 172.48,141.02 172.04,139.72C171.6,138.42 171.13,137.12 170.69,135.82C170.25,134.52 169.82,133.22 169.4,131.92C168.98,130.62 168.57,129.32 168.18,128.02C167.79,126.72 167.42,125.42 167.06,124.12C166.7,122.82 166.36,121.52 166.03,120.22C165.7,118.92 165.37,117.62 165.07,116.32C164.77,115.02 164.47,113.73 164.22,112.43C163.97,111.13 163.73,109.83 163.55,108.53C163.37,107.23 163.21,105.93 163.13,104.63C163.05,103.33 163.02,102.03 163.04,100.73C163.06,99.43 163.16,98.13 163.28,96.83C163.4,95.53 163.6,94.23 163.78,92.93C163.96,91.63 164.19,90.33 164.35,89.03C164.51,87.73 164.68,86.43 164.74,85.13C164.8,83.83 164.82,82.54 164.74,81.24C164.66,79.94 164.49,78.63 164.27,77.34C164.05,76.03 163.73,74.74 163.41,73.44C163.09,72.14 162.7,70.84 162.35,69.54C162,68.24 161.64,66.94 161.33,65.64C161.02,64.34 160.74,63.04 160.5,61.74Q160.27,60.44 159.92,57.84L159.23,57.84" style="vector-effect: non-scaling-stroke; stroke-width: 2px; stroke: rgb(8, 81, 156); stroke-opacity: 1; fill: rgb(8, 81, 156); fill-opacity: 0.5;"/><path class="violin" d="M230,312.59L230.15,312.59Q230.22,310.29 230.27,309.14C230.32,307.99 230.38,306.83 230.45,305.68C230.52,304.53 230.6,303.38 230.67,302.23C230.74,301.08 230.82,299.93 230.88,298.78C230.94,297.63 231,296.47 231.04,295.32C231.08,294.17 231.11,293.02 231.11,291.87C231.11,290.72 231.09,289.56 231.05,288.41C231.02,287.26 230.96,286.11 230.9,284.96C230.84,283.81 230.76,282.65 230.69,281.5C230.62,280.35 230.54,279.2 230.47,278.05C230.4,276.9 230.34,275.74 230.29,274.59C230.24,273.44 230.19,272.29 230.16,271.14C230.13,269.99 230.11,268.83 230.09,267.68C230.07,266.53 230.06,265.38 230.05,264.23C230.04,263.08 230.05,261.92 230.06,260.77C230.07,259.62 230.08,258.47 230.09,257.32C230.11,256.17 230.12,255.02 230.15,253.87C230.18,252.72 230.21,251.56 230.25,250.41C230.28,249.26 230.32,248.11 230.36,246.96C230.4,245.81 230.44,244.65 230.48,243.5C230.52,242.35 230.56,241.2 230.6,240.05C230.64,238.9 230.67,237.74 230.71,236.59C230.74,235.44 230.78,234.29 230.81,233.14C230.84,231.99 230.87,230.83 230.91,229.68C230.95,228.53 231,227.38 231.05,226.23C231.1,225.08 231.16,223.92 231.23,222.77C231.3,221.62 231.38,220.47 231.46,219.32C231.54,218.17 231.63,217.01 231.73,215.86C231.83,214.71 231.94,213.56 232.06,212.41C232.18,211.26 232.31,210.11 232.47,208.96C232.63,207.81 232.81,206.65 233.02,205.5C233.24,204.35 233.48,203.2 233.76,202.05C234.04,200.89 234.37,199.74 234.72,198.59C235.07,197.43 235.47,196.29 235.86,195.14C236.25,193.99 236.67,192.83 237.07,191.68C237.47,190.53 237.87,189.38 238.24,188.23C238.61,187.08 238.95,185.92 239.28,184.77C239.61,183.62 239.91,182.47 240.22,181.32C240.53,180.17 240.82,179.01 241.13,177.86C241.44,176.71 241.74,175.56 242.07,174.41C242.4,173.26 242.74,172.1 243.09,170.95C243.44,169.8 243.81,168.65 244.15,167.5C244.49,166.35 244.83,165.19 245.14,164.04C245.45,162.89 245.75,161.74 246.01,160.59C246.27,159.44 246.49,158.29 246.68,157.14C246.87,155.99 247.02,154.83 247.13,153.68C247.24,152.53 247.32,151.38 247.34,150.23C247.36,149.08 247.34,147.92 247.25,146.77C247.16,145.62 247.02,144.47 246.82,143.32C246.61,142.16 246.34,141 246.01,139.86C245.68,138.7 245.28,137.55 244.85,136.41C244.41,135.25 243.91,134.1 243.41,132.95C242.9,131.79 242.35,130.65 241.82,129.5C241.29,128.35 240.74,127.19 240.22,126.04C239.7,124.89 239.17,123.74 238.68,122.59C238.19,121.44 237.72,120.29 237.27,119.13C236.82,117.98 236.39,116.83 235.98,115.68C235.57,114.53 235.18,113.38 234.82,112.23C234.46,111.08 234.11,109.93 233.81,108.77C233.51,107.62 233.23,106.48 233.01,105.32C232.8,104.17 232.62,103.02 232.52,101.86C232.42,100.71 232.38,99.56 232.41,98.41C232.44,97.26 232.55,96.1 232.7,94.95C232.85,93.8 233.08,92.65 233.3,91.5C233.52,90.35 233.8,89.19 234.01,88.04C234.22,86.89 234.44,85.74 234.56,84.59C234.68,83.44 234.76,82.28 234.74,81.13C234.72,79.98 234.61,78.83 234.44,77.68C234.27,76.52 234.01,75.37 233.74,74.22C233.47,73.07 233.13,71.92 232.83,70.77C232.53,69.62 232.2,68.47 231.92,67.32C231.64,66.17 231.38,65.02 231.17,63.86Q230.96,62.71 230.64,60.41L230,60.41" style="vector-effect: non-scaling-stroke; stroke-width: 2px; stroke: rgb(8, 81, 156); stroke-opacity: 1; fill: rgb(8, 81, 156); fill-opacity: 0.5;"/><path class="violin" d="M300.77,242.77L301.01,242.77Q301.14,238.89 301.24,236.95C301.34,235.01 301.46,233.07 301.61,231.13C301.76,229.19 301.94,227.26 302.14,225.32C302.34,223.38 302.58,221.44 302.83,219.5C303.08,217.56 303.35,215.62 303.62,213.68C303.89,211.74 304.18,209.8 304.45,207.86C304.72,205.92 304.98,203.98 305.23,202.04C305.48,200.1 305.73,198.16 305.96,196.22C306.19,194.28 306.4,192.35 306.63,190.41C306.86,188.47 307.08,186.53 307.33,184.59C307.58,182.65 307.84,180.71 308.13,178.77C308.42,176.83 308.73,174.89 309.07,172.95C309.41,171.01 309.78,169.07 310.16,167.13C310.54,165.19 310.96,163.25 311.37,161.31C311.78,159.37 312.21,157.44 312.6,155.5C312.99,153.56 313.38,151.62 313.71,149.68C314.03,147.74 314.33,145.8 314.55,143.86C314.77,141.92 314.94,139.98 315.02,138.04C315.1,136.1 315.1,134.16 315.05,132.22C315,130.28 314.87,128.34 314.69,126.4C314.51,124.46 314.26,122.52 313.98,120.58C313.7,118.64 313.37,116.7 313.01,114.77C312.65,112.83 312.26,110.89 311.84,108.95C311.42,107.01 310.97,105.07 310.5,103.13C310.03,101.19 309.54,99.25 309.04,97.31C308.54,95.37 308.01,93.43 307.49,91.49C306.98,89.55 306.45,87.61 305.95,85.67C305.46,83.73 304.97,81.8 304.52,79.86C304.08,77.92 303.65,75.98 303.28,74.04C302.91,72.1 302.59,70.16 302.32,68.22C302.05,66.28 301.83,64.34 301.65,62.4Q301.47,60.46 301.22,56.58L300.77,56.58" style="vector-effect: non-scaling-stroke; stroke-width: 2px; stroke: rgb(8, 81, 156); stroke-opacity: 1; fill: rgb(8, 81, 156); fill-opacity: 0.5;"/><path class="violin" d="M371.54,316.87L371.92,316.87Q372.11,314.11 372.24,312.73C372.37,311.35 372.53,309.97 372.69,308.59C372.86,307.21 373.05,305.83 373.23,304.45C373.41,303.07 373.62,301.69 373.78,300.31C373.94,298.93 374.09,297.55 374.19,296.17C374.29,294.79 374.35,293.41 374.36,292.03C374.37,290.65 374.32,289.28 374.24,287.9C374.16,286.52 374.01,285.14 373.86,283.76C373.71,282.38 373.51,281 373.34,279.62C373.17,278.24 372.98,276.86 372.82,275.48C372.66,274.1 372.51,272.72 372.4,271.34C372.29,269.96 372.21,268.58 372.16,267.2C372.11,265.82 372.08,264.44 372.08,263.06C372.08,261.68 372.12,260.31 372.17,258.93C372.22,257.55 372.3,256.17 372.38,254.79C372.47,253.41 372.57,252.03 372.68,250.65C372.79,249.27 372.91,247.89 373.04,246.51C373.17,245.13 373.31,243.75 373.45,242.37C373.59,240.99 373.73,239.61 373.87,238.23C374.01,236.85 374.15,235.47 374.3,234.09C374.44,232.71 374.59,231.34 374.74,229.96C374.89,228.58 375.04,227.2 375.19,225.82C375.34,224.44 375.49,223.06 375.66,221.68C375.83,220.3 376,218.92 376.19,217.54C376.38,216.16 376.58,214.78 376.81,213.4C377.04,212.02 377.29,210.64 377.56,209.26C377.83,207.88 378.13,206.5 378.45,205.12C378.77,203.74 379.11,202.37 379.47,200.99C379.83,199.61 380.22,198.23 380.6,196.85C380.98,195.47 381.38,194.09 381.77,192.71C382.16,191.33 382.57,189.95 382.95,188.57C383.33,187.19 383.71,185.81 384.07,184.43C384.43,183.05 384.8,181.67 385.13,180.29C385.46,178.91 385.78,177.53 386.06,176.15C386.34,174.77 386.62,173.39 386.82,172.01C387.02,170.64 387.19,169.26 387.27,167.88C387.35,166.5 387.37,165.12 387.29,163.74C387.21,162.36 387.04,160.97 386.79,159.6C386.54,158.21 386.19,156.83 385.79,155.46C385.39,154.07 384.89,152.69 384.38,151.32C383.86,149.93 383.28,148.56 382.71,147.18C382.14,145.8 381.54,144.42 380.96,143.04C380.38,141.66 379.8,140.29 379.25,138.91C378.71,137.54 378.18,136.16 377.69,134.77C377.2,133.39 376.74,132.01 376.32,130.63C375.9,129.25 375.51,127.87 375.16,126.49C374.81,125.11 374.5,123.73 374.22,122.35C373.95,120.97 373.71,119.59 373.51,118.21C373.31,116.83 373.15,115.45 373.03,114.07C372.91,112.69 372.84,111.32 372.8,109.94C372.76,108.56 372.77,107.18 372.82,105.8C372.87,104.42 372.97,103.04 373.1,101.66C373.24,100.28 373.43,98.9 373.63,97.52C373.83,96.14 374.08,94.76 374.31,93.38C374.54,92 374.8,90.62 375,89.24C375.2,87.86 375.4,86.48 375.51,85.1C375.62,83.72 375.67,82.35 375.65,80.97C375.63,79.59 375.53,78.21 375.39,76.83C375.24,75.45 375.01,74.07 374.78,72.69C374.55,71.31 374.25,69.93 373.99,68.55C373.73,67.17 373.44,65.79 373.2,64.41C372.96,63.03 372.74,61.65 372.55,60.27Q372.37,58.89 372.09,56.13L371.54,56.13" style="vector-effect: non-scaling-stroke; stroke-width: 2px; stroke: rgb(8, 81, 156); stroke-opacity: 1; fill: rgb(8, 81, 156); fill-opacity: 0.5;"/><path class="violin" d="M442.31,316.44L442.57,316.44Q442.69,313.73 442.78,312.38C442.87,311.03 442.98,309.67 443.09,308.32C443.2,306.97 443.33,305.61 443.45,304.26C443.57,302.91 443.71,301.55 443.82,300.2C443.93,298.85 444.04,297.49 444.11,296.14C444.18,294.78 444.23,293.43 444.23,292.07C444.23,290.72 444.2,289.36 444.14,288.01C444.08,286.66 443.99,285.3 443.89,283.95C443.79,282.6 443.65,281.24 443.53,279.89C443.41,278.54 443.27,277.18 443.16,275.83C443.05,274.48 442.95,273.12 442.87,271.77C442.79,270.42 442.72,269.06 442.67,267.71C442.62,266.36 442.59,265 442.58,263.65C442.57,262.3 442.58,260.94 442.59,259.59C442.6,258.24 442.63,256.88 442.66,255.53C442.69,254.18 442.74,252.82 442.78,251.47C442.82,250.12 442.87,248.76 442.92,247.41C442.97,246.06 443.01,244.7 443.07,243.35C443.13,242 443.19,240.64 443.26,239.29C443.33,237.94 443.4,236.58 443.49,235.23C443.58,233.88 443.67,232.52 443.79,231.17C443.91,229.82 444.04,228.46 444.2,227.11C444.36,225.76 444.54,224.4 444.74,223.05C444.94,221.69 445.16,220.33 445.41,218.98C445.66,217.62 445.94,216.27 446.23,214.92C446.53,213.56 446.84,212.21 447.18,210.86C447.52,209.5 447.88,208.15 448.25,206.8C448.62,205.45 449.01,204.09 449.39,202.74C449.77,201.39 450.15,200.03 450.51,198.68C450.87,197.33 451.23,195.98 451.56,194.62C451.89,193.27 452.19,191.92 452.47,190.56C452.75,189.21 453.01,187.85 453.26,186.5C453.51,185.15 453.74,183.79 453.98,182.44C454.22,181.09 454.45,179.73 454.7,178.38C454.95,177.03 455.22,175.67 455.49,174.32C455.77,172.97 456.06,171.61 456.35,170.26C456.64,168.91 456.95,167.56 457.21,166.2C457.47,164.85 457.73,163.5 457.92,162.14C458.11,160.79 458.27,159.44 458.33,158.08C458.39,156.73 458.39,155.37 458.31,154.02C458.23,152.66 458.06,151.3 457.83,149.95C457.59,148.59 457.27,147.24 456.9,145.89C456.53,144.53 456.07,143.18 455.6,141.83C455.13,140.47 454.6,139.12 454.07,137.77C453.54,136.41 452.98,135.06 452.43,133.71C451.88,132.36 451.32,131.01 450.79,129.65C450.26,128.3 449.74,126.95 449.24,125.59C448.74,124.24 448.26,122.89 447.81,121.53C447.36,120.18 446.94,118.83 446.55,117.47C446.16,116.12 445.79,114.77 445.48,113.41C445.17,112.06 444.89,110.71 444.67,109.35C444.45,108 444.28,106.65 444.16,105.29C444.05,103.94 443.99,102.58 443.98,101.23C443.97,99.88 444.03,98.52 444.11,97.17C444.19,95.82 444.34,94.46 444.47,93.11C444.6,91.76 444.78,90.4 444.91,89.05C445.04,87.7 445.18,86.34 445.25,84.99C445.32,83.64 445.36,82.28 445.34,80.93C445.32,79.57 445.25,78.21 445.14,76.86C445.03,75.5 444.86,74.15 444.69,72.8C444.52,71.45 444.3,70.09 444.11,68.74C443.92,67.39 443.71,66.03 443.53,64.68C443.35,63.33 443.19,61.97 443.05,60.62Q442.92,59.27 442.72,56.56L442.31,56.56" style="vector-effect: non-scaling-stroke; stroke-width: 2px; stroke: rgb(8, 81, 156); stroke-opacity: 1; fill: rgb(8, 81, 156); fill-opacity: 0.5;"/><path class="box" d="M19.69,148.2H24.03M19.69,169.77H24.03V121.38H19.69ZM19.69,169.77V234.9M19.69,121.38V81.29" style="vector-effect: non-scaling-stroke; stroke-width: 2px; stroke: rgb(8, 81, 156); stroke-opacity: 1; fill: rgb(8, 81, 156); fill-opacity: 0.5;"/><path class="box" d="M90.46,165.77H94.8M90.46,201.44H94.8V144.42H90.46ZM90.46,201.44V270.67M90.46,144.42V81.29" style="vector-effect: non-scaling-stroke; stroke-width: 2px; stroke: rgb(8, 81, 156); stroke-opacity: 1; fill: rgb(8, 81, 156); fill-opacity: 0.5;"/><path class="box" d="M161.23,153.04H165.57M161.23,175.56H165.57V132.21H161.23ZM161.23,175.56V229.85M161.23,132.21V81.29" style="vector-effect: non-scaling-stroke; stroke-width: 2px; stroke: rgb(8, 81, 156); stroke-opacity: 1; fill: rgb(8, 81, 156); fill-opacity: 0.5;"/><path class="box" d="M232,151.36H236.33M232,171.56H236.33V133.9H232ZM232,171.56V221.64M232,133.9V81.29" style="vector-effect: non-scaling-stroke; stroke-width: 2px; stroke: rgb(8, 81, 156); stroke-opacity: 1; fill: rgb(8, 81, 156); fill-opacity: 0.5;"/><path class="box" d="M302.77,139.16H307.1M302.77,161.51H307.1V118.8H302.77ZM302.77,161.51V207.54M302.77,118.8V91.81" style="vector-effect: non-scaling-stroke; stroke-width: 2px; stroke: rgb(8, 81, 156); stroke-opacity: 1; fill: rgb(8, 81, 156); fill-opacity: 0.5;"/><path class="box" d="M373.54,168.82H377.87M373.54,193.65H377.87V151.04H373.54ZM373.54,193.65V249.63M373.54,151.04V107.59" style="vector-effect: non-scaling-stroke; stroke-width: 2px; stroke: rgb(8, 81, 156); stroke-opacity: 1; fill: rgb(8, 81, 156); fill-opacity: 0.5;"/><path class="box" d="M444.31,160.2H448.64M444.31,186.5H448.64V143.31H444.31ZM444.31,186.5V245M444.31,143.31V81.29" style="vector-effect: non-scaling-stroke; stroke-width: 2px; stroke: rgb(8, 81, 156); stroke-opacity: 1; fill: rgb(8, 81, 156); fill-opacity: 0.5;"/><path class="mean" d="M19.69,147.84H24.03" style="fill: none; vector-effect: non-scaling-stroke; stroke-width: 1px; stroke-dasharray: 2px, 1px; stroke: rgb(0, 0, 139); stroke-opacity: 1;"/><path class="mean" d="M90.46,171.62H94.8" style="fill: none; vector-effect: non-scaling-stroke; stroke-width: 1px; stroke-dasharray: 2px, 1px; stroke: rgb(0, 0, 139); stroke-opacity: 1;"/><path class="mean" d="M161.23,154.62H165.57" style="fill: none; vector-effect: non-scaling-stroke; stroke-width: 1px; stroke-dasharray: 2px, 1px; stroke: rgb(0, 0, 139); stroke-opacity: 1;"/><path class="mean" d="M232,152.62H236.33" style="fill: none; vector-effect: non-scaling-stroke; stroke-width: 1px; stroke-dasharray: 2px, 1px; stroke: rgb(0, 0, 139); stroke-opacity: 1;"/><path class="mean" d="M302.77,141.18H307.1" style="fill: none; vector-effect: non-scaling-stroke; stroke-width: 1px; stroke-dasharray: 2px, 1px; stroke: rgb(0, 0, 139); stroke-opacity: 1;"/><path class="mean" d="M373.54,173.45H377.87" style="fill: none; vector-effect: non-scaling-stroke; stroke-width: 1px; stroke-dasharray: 2px, 1px; stroke: rgb(0, 0, 139); stroke-opacity: 1;"/><path class="mean" d="M444.31,165.36H448.64" style="fill: none; vector-effect: non-scaling-stroke; stroke-width: 1px; stroke-dasharray: 2px, 1px; stroke: rgb(0, 0, 139); stroke-opacity: 1;"/><g class="points"><path class="point" transform="translate(17.69,291.71)" d="M3,0A3,3 0 1,1 0,-3A3,3 0 0,1 3,0Z" style="opacity: 1; stroke-width: 0px; fill: rgb(8, 81, 156); fill-opacity: 1;"/><path class="point" transform="translate(17.69,291.71)" d="M3,0A3,3 0 1,1 0,-3A3,3 0 0,1 3,0Z" style="opacity: 1; stroke-width: 0px; fill: rgb(8, 81, 156); fill-opacity: 1;"/><path class="point" transform="translate(17.69,291.71)" d="M3,0A3,3 0 1,1 0,-3A3,3 0 0,1 3,0Z" style="opacity: 1; stroke-width: 0px; fill: rgb(8, 81, 156); fill-opacity: 1;"/><path class="point" transform="translate(17.69,291.71)" d="M3,0A3,3 0 1,1 0,-3A3,3 0 0,1 3,0Z" style="opacity: 1; stroke-width: 0px; fill: rgb(8, 81, 156); fill-opacity: 1;"/><path class="point" transform="translate(17.69,291.71)" d="M3,0A3,3 0 1,1 0,-3A3,3 0 0,1 3,0Z" style="opacity: 1; stroke-width: 0px; fill: rgb(8, 81, 156); fill-opacity: 1;"/><path class="point" transform="translate(17.69,291.71)" d="M3,0A3,3 0 1,1 0,-3A3,3 0 0,1 3,0Z" style="opacity: 1; stroke-width: 0px; fill: rgb(8, 81, 156); fill-opacity: 1;"/><path class="point" transform="translate(17.69,291.71)" d="M3,0A3,3 0 1,1 0,-3A3,3 0 0,1 3,0Z" style="opacity: 1; stroke-width: 0px; fill: rgb(8, 81, 156); fill-opacity: 1;"/></g><g class="points"><path class="point" transform="translate(88.46,291.71)" d="M3,0A3,3 0 1,1 0,-3A3,3 0 0,1 3,0Z" style="opacity: 1; stroke-width: 0px; fill: rgb(8, 81, 156); fill-opacity: 1;"/><path class="point" transform="translate(88.46,291.71)" d="M3,0A3,3 0 1,1 0,-3A3,3 0 0,1 3,0Z" style="opacity: 1; stroke-width: 0px; fill: rgb(8, 81, 156); fill-opacity: 1;"/></g><g class="points"><path class="point" transform="translate(159.23,291.71)" d="M3,0A3,3 0 1,1 0,-3A3,3 0 0,1 3,0Z" style="opacity: 1; stroke-width: 0px; fill: rgb(8, 81, 156); fill-opacity: 1;"/><path class="point" transform="translate(159.23,291.71)" d="M3,0A3,3 0 1,1 0,-3A3,3 0 0,1 3,0Z" style="opacity: 1; stroke-width: 0px; fill: rgb(8, 81, 156); fill-opacity: 1;"/><path class="point" transform="translate(159.23,291.71)" d="M3,0A3,3 0 1,1 0,-3A3,3 0 0,1 3,0Z" style="opacity: 1; stroke-width: 0px; fill: rgb(8, 81, 156); fill-opacity: 1;"/><path class="point" transform="translate(159.23,291.71)" d="M3,0A3,3 0 1,1 0,-3A3,3 0 0,1 3,0Z" style="opacity: 1; stroke-width: 0px; fill: rgb(8, 81, 156); fill-opacity: 1;"/><path class="point" transform="translate(159.23,291.71)" d="M3,0A3,3 0 1,1 0,-3A3,3 0 0,1 3,0Z" style="opacity: 1; stroke-width: 0px; fill: rgb(8, 81, 156); fill-opacity: 1;"/><path class="point" transform="translate(159.23,291.71)" d="M3,0A3,3 0 1,1 0,-3A3,3 0 0,1 3,0Z" style="opacity: 1; stroke-width: 0px; fill: rgb(8, 81, 156); fill-opacity: 1;"/><path class="point" transform="translate(159.23,291.71)" d="M3,0A3,3 0 1,1 0,-3A3,3 0 0,1 3,0Z" style="opacity: 1; stroke-width: 0px; fill: rgb(8, 81, 156); fill-opacity: 1;"/><path class="point" transform="translate(159.23,291.71)" d="M3,0A3,3 0 1,1 0,-3A3,3 0 0,1 3,0Z" style="opacity: 1; stroke-width: 0px; fill: rgb(8, 81, 156); fill-opacity: 1;"/><path class="point" transform="translate(159.23,291.71)" d="M3,0A3,3 0 1,1 0,-3A3,3 0 0,1 3,0Z" style="opacity: 1; stroke-width: 0px; fill: rgb(8, 81, 156); fill-opacity: 1;"/><path class="point" transform="translate(159.23,249.63)" d="M3,0A3,3 0 1,1 0,-3A3,3 0 0,1 3,0Z" style="opacity: 1; stroke-width: 0px; fill: rgb(8, 81, 156); fill-opacity: 1;"/></g><g class="points"><path class="point" transform="translate(230,291.71)" d="M3,0A3,3 0 1,1 0,-3A3,3 0 0,1 3,0Z" style="opacity: 1; stroke-width: 0px; fill: rgb(8, 81, 156); fill-opacity: 1;"/><path class="point" transform="translate(230,291.71)" d="M3,0A3,3 0 1,1 0,-3A3,3 0 0,1 3,0Z" style="opacity: 1; stroke-width: 0px; fill: rgb(8, 81, 156); fill-opacity: 1;"/><path class="point" transform="translate(230,291.71)" d="M3,0A3,3 0 1,1 0,-3A3,3 0 0,1 3,0Z" style="opacity: 1; stroke-width: 0px; fill: rgb(8, 81, 156); fill-opacity: 1;"/><path class="point" transform="translate(230,291.71)" d="M3,0A3,3 0 1,1 0,-3A3,3 0 0,1 3,0Z" style="opacity: 1; stroke-width: 0px; fill: rgb(8, 81, 156); fill-opacity: 1;"/><path class="point" transform="translate(230,239.1)" d="M3,0A3,3 0 1,1 0,-3A3,3 0 0,1 3,0Z" style="opacity: 1; stroke-width: 0px; fill: rgb(8, 81, 156); fill-opacity: 1;"/><path class="point" transform="translate(230,234.26)" d="M3,0A3,3 0 1,1 0,-3A3,3 0 0,1 3,0Z" style="opacity: 1; stroke-width: 0px; fill: rgb(8, 81, 156); fill-opacity: 1;"/></g><g class="points"/><g class="points"><path class="point" transform="translate(371.54,291.71)" d="M3,0A3,3 0 1,1 0,-3A3,3 0 0,1 3,0Z" style="opacity: 1; stroke-width: 0px; fill: rgb(8, 81, 156); fill-opacity: 1;"/><path class="point" transform="translate(371.54,291.71)" d="M3,0A3,3 0 1,1 0,-3A3,3 0 0,1 3,0Z" style="opacity: 1; stroke-width: 0px; fill: rgb(8, 81, 156); fill-opacity: 1;"/><path class="point" transform="translate(371.54,291.71)" d="M3,0A3,3 0 1,1 0,-3A3,3 0 0,1 3,0Z" style="opacity: 1; stroke-width: 0px; fill: rgb(8, 81, 156); fill-opacity: 1;"/><path class="point" transform="translate(371.54,291.71)" d="M3,0A3,3 0 1,1 0,-3A3,3 0 0,1 3,0Z" style="opacity: 1; stroke-width: 0px; fill: rgb(8, 81, 156); fill-opacity: 1;"/><path class="point" transform="translate(371.54,291.71)" d="M3,0A3,3 0 1,1 0,-3A3,3 0 0,1 3,0Z" style="opacity: 1; stroke-width: 0px; fill: rgb(8, 81, 156); fill-opacity: 1;"/><path class="point" transform="translate(371.54,291.71)" d="M3,0A3,3 0 1,1 0,-3A3,3 0 0,1 3,0Z" style="opacity: 1; stroke-width: 0px; fill: rgb(8, 81, 156); fill-opacity: 1;"/><path class="point" transform="translate(371.54,291.71)" d="M3,0A3,3 0 1,1 0,-3A3,3 0 0,1 3,0Z" style="opacity: 1; stroke-width: 0px; fill: rgb(8, 81, 156); fill-opacity: 1;"/><path class="point" transform="translate(371.54,291.71)" d="M3,0A3,3 0 1,1 0,-3A3,3 0 0,1 3,0Z" style="opacity: 1; stroke-width: 0px; fill: rgb(8, 81, 156); fill-opacity: 1;"/><path class="point" transform="translate(371.54,291.71)" d="M3,0A3,3 0 1,1 0,-3A3,3 0 0,1 3,0Z" style="opacity: 1; stroke-width: 0px; fill: rgb(8, 81, 156); fill-opacity: 1;"/><path class="point" transform="translate(371.54,81.29)" d="M3,0A3,3 0 1,1 0,-3A3,3 0 0,1 3,0Z" style="opacity: 1; stroke-width: 0px; fill: rgb(8, 81, 156); fill-opacity: 1;"/><path class="point" transform="translate(371.54,81.29)" d="M3,0A3,3 0 1,1 0,-3A3,3 0 0,1 3,0Z" style="opacity: 1; stroke-width: 0px; fill: rgb(8, 81, 156); fill-opacity: 1;"/><path class="point" transform="translate(371.54,81.29)" d="M3,0A3,3 0 1,1 0,-3A3,3 0 0,1 3,0Z" style="opacity: 1; stroke-width: 0px; fill: rgb(8, 81, 156); fill-opacity: 1;"/><path class="point" transform="translate(371.54,81.29)" d="M3,0A3,3 0 1,1 0,-3A3,3 0 0,1 3,0Z" style="opacity: 1; stroke-width: 0px; fill: rgb(8, 81, 156); fill-opacity: 1;"/><path class="point" transform="translate(371.54,81.29)" d="M3,0A3,3 0 1,1 0,-3A3,3 0 0,1 3,0Z" style="opacity: 1; stroke-width: 0px; fill: rgb(8, 81, 156); fill-opacity: 1;"/><path class="point" transform="translate(371.54,81.29)" d="M3,0A3,3 0 1,1 0,-3A3,3 0 0,1 3,0Z" style="opacity: 1; stroke-width: 0px; fill: rgb(8, 81, 156); fill-opacity: 1;"/><path class="point" transform="translate(371.54,81.29)" d="M3,0A3,3 0 1,1 0,-3A3,3 0 0,1 3,0Z" style="opacity: 1; stroke-width: 0px; fill: rgb(8, 81, 156); fill-opacity: 1;"/><path class="point" transform="translate(371.54,81.29)" d="M3,0A3,3 0 1,1 0,-3A3,3 0 0,1 3,0Z" style="opacity: 1; stroke-width: 0px; fill: rgb(8, 81, 156); fill-opacity: 1;"/><path class="point" transform="translate(371.54,81.29)" d="M3,0A3,3 0 1,1 0,-3A3,3 0 0,1 3,0Z" style="opacity: 1; stroke-width: 0px; fill: rgb(8, 81, 156); fill-opacity: 1;"/><path class="point" transform="translate(371.54,81.29)" d="M3,0A3,3 0 1,1 0,-3A3,3 0 0,1 3,0Z" style="opacity: 1; stroke-width: 0px; fill: rgb(8, 81, 156); fill-opacity: 1;"/><path class="point" transform="translate(371.54,81.29)" d="M3,0A3,3 0 1,1 0,-3A3,3 0 0,1 3,0Z" style="opacity: 1; stroke-width: 0px; fill: rgb(8, 81, 156); fill-opacity: 1;"/><path class="point" transform="translate(371.54,81.29)" d="M3,0A3,3 0 1,1 0,-3A3,3 0 0,1 3,0Z" style="opacity: 1; stroke-width: 0px; fill: rgb(8, 81, 156); fill-opacity: 1;"/><path class="point" transform="translate(371.54,81.29)" d="M3,0A3,3 0 1,1 0,-3A3,3 0 0,1 3,0Z" style="opacity: 1; stroke-width: 0px; fill: rgb(8, 81, 156); fill-opacity: 1;"/></g><g class="points"><path class="point" transform="translate(442.31,291.71)" d="M3,0A3,3 0 1,1 0,-3A3,3 0 0,1 3,0Z" style="opacity: 1; stroke-width: 0px; fill: rgb(8, 81, 156); fill-opacity: 1;"/><path class="point" transform="translate(442.31,291.71)" d="M3,0A3,3 0 1,1 0,-3A3,3 0 0,1 3,0Z" style="opacity: 1; stroke-width: 0px; fill: rgb(8, 81, 156); fill-opacity: 1;"/><path class="point" transform="translate(442.31,291.71)" d="M3,0A3,3 0 1,1 0,-3A3,3 0 0,1 3,0Z" style="opacity: 1; stroke-width: 0px; fill: rgb(8, 81, 156); fill-opacity: 1;"/><path class="point" transform="translate(442.31,291.71)" d="M3,0A3,3 0 1,1 0,-3A3,3 0 0,1 3,0Z" style="opacity: 1; stroke-width: 0px; fill: rgb(8, 81, 156); fill-opacity: 1;"/><path class="point" transform="translate(442.31,291.71)" d="M3,0A3,3 0 1,1 0,-3A3,3 0 0,1 3,0Z" style="opacity: 1; stroke-width: 0px; fill: rgb(8, 81, 156); fill-opacity: 1;"/><path class="point" transform="translate(442.31,291.71)" d="M3,0A3,3 0 1,1 0,-3A3,3 0 0,1 3,0Z" style="opacity: 1; stroke-width: 0px; fill: rgb(8, 81, 156); fill-opacity: 1;"/><path class="point" transform="translate(442.31,291.71)" d="M3,0A3,3 0 1,1 0,-3A3,3 0 0,1 3,0Z" style="opacity: 1; stroke-width: 0px; fill: rgb(8, 81, 156); fill-opacity: 1;"/></g></g><g class="trace violins" style="opacity: 1;"><path class="violin" d="M17.69,59.96L17.41,59.96Q17.27,62.3 17.17,63.47C17.07,64.64 16.95,65.82 16.82,66.99C16.69,68.16 16.53,69.33 16.38,70.5C16.23,71.67 16.06,72.85 15.91,74.02C15.76,75.19 15.6,76.36 15.47,77.53C15.34,78.7 15.23,79.88 15.13,81.05C15.03,82.22 14.95,83.39 14.87,84.56C14.79,85.73 14.74,86.91 14.66,88.08C14.58,89.25 14.49,90.42 14.37,91.59C14.25,92.76 14.11,93.94 13.94,95.11C13.77,96.28 13.56,97.45 13.33,98.62C13.1,99.79 12.84,100.97 12.57,102.14C12.3,103.31 12.01,104.48 11.73,105.65C11.45,106.82 11.15,108 10.87,109.17C10.59,110.34 10.31,111.51 10.04,112.68C9.77,113.85 9.52,115.03 9.27,116.2C9.02,117.37 8.78,118.54 8.54,119.71C8.31,120.88 8.08,122.06 7.86,123.23C7.65,124.4 7.44,125.57 7.25,126.74C7.06,127.91 6.87,129.09 6.71,130.26C6.55,131.43 6.4,132.6 6.28,133.77C6.16,134.94 6.05,136.12 5.97,137.29C5.9,138.46 5.84,139.63 5.83,140.8C5.82,141.97 5.86,143.15 5.94,144.32C6.02,145.49 6.15,146.66 6.32,147.83C6.49,149.01 6.72,150.18 6.98,151.35C7.24,152.53 7.56,153.69 7.88,154.86C8.2,156.04 8.56,157.21 8.91,158.38C9.26,159.55 9.62,160.72 9.96,161.89C10.3,163.06 10.63,164.23 10.94,165.41C11.24,166.58 11.52,167.75 11.79,168.92C12.06,170.09 12.3,171.27 12.54,172.44C12.78,173.61 13,174.78 13.21,175.95C13.42,177.12 13.62,178.3 13.82,179.47C14.02,180.64 14.21,181.81 14.39,182.98C14.57,184.15 14.73,185.33 14.89,186.5C15.04,187.67 15.19,188.85 15.32,190.02C15.45,191.19 15.55,192.36 15.65,193.53C15.75,194.7 15.83,195.88 15.9,197.05C15.97,198.22 16.03,199.39 16.09,200.56C16.15,201.73 16.2,202.91 16.24,204.08C16.28,205.25 16.32,206.42 16.35,207.59C16.38,208.76 16.41,209.94 16.44,211.11C16.46,212.28 16.48,213.45 16.5,214.62C16.52,215.79 16.54,216.97 16.56,218.14C16.58,219.31 16.6,220.48 16.63,221.65C16.66,222.82 16.68,224 16.72,225.17C16.76,226.34 16.8,227.51 16.85,228.68C16.9,229.85 16.95,231.03 17.01,232.2C17.06,233.37 17.13,234.54 17.18,235.71C17.23,236.88 17.28,238.06 17.33,239.23C17.38,240.4 17.42,241.57 17.46,242.74C17.5,243.91 17.53,245.09 17.56,246.26C17.59,247.43 17.61,248.6 17.62,249.77C17.64,250.94 17.64,252.12 17.65,253.29C17.66,254.46 17.67,255.63 17.67,256.8C17.68,257.97 17.68,259.15 17.68,260.32C17.68,261.49 17.68,262.66 17.68,263.83C17.68,265 17.67,266.18 17.67,267.35C17.67,268.52 17.67,269.69 17.66,270.86C17.65,272.03 17.64,273.21 17.63,274.38C17.62,275.55 17.6,276.72 17.59,277.89C17.58,279.06 17.57,280.24 17.55,281.41C17.54,282.58 17.51,283.75 17.5,284.92C17.49,286.09 17.48,287.27 17.47,288.44C17.46,289.61 17.46,290.78 17.46,291.95C17.46,293.12 17.47,294.3 17.48,295.47C17.49,296.64 17.5,297.81 17.51,298.98C17.52,300.15 17.53,301.33 17.55,302.5C17.56,303.67 17.59,304.84 17.6,306.01C17.62,307.18 17.63,308.36 17.64,309.53Q17.65,310.7 17.66,313.04L17.69,313.04" style="vector-effect: non-scaling-stroke; stroke-width: 2px; stroke: rgb(107, 174, 214); stroke-opacity: 1; fill: rgb(107, 174, 214); fill-opacity: 0.5;"/><path class="violin" d="M88.46,58.29L87.87,58.29Q87.58,60.83 87.38,62.09C87.18,63.36 86.94,64.63 86.68,65.9C86.42,67.17 86.12,68.43 85.84,69.7C85.56,70.97 85.25,72.23 84.99,73.5C84.74,74.76 84.48,76.03 84.31,77.3C84.14,78.57 84.01,79.84 83.95,81.11C83.89,82.38 83.91,83.64 83.92,84.91C83.93,86.18 84.02,87.44 84.02,88.71C84.02,89.98 84.04,91.26 83.89,92.52C83.74,93.79 83.53,95.07 83.14,96.32C82.74,97.61 82.17,98.88 81.51,100.12C80.82,101.42 79.92,102.68 79.04,103.93C78.13,105.22 77.07,106.46 76.12,107.73C75.19,108.99 74.17,110.23 73.4,111.53C72.67,112.77 71.96,114.04 71.58,115.34C71.22,116.58 71.04,117.88 71.12,119.14C71.2,120.41 71.59,121.7 72.05,122.94C72.53,124.24 73.26,125.5 73.96,126.75C74.67,128.03 75.52,129.28 76.28,130.55C77.04,131.81 77.82,133.07 78.52,134.35C79.21,135.61 79.85,136.87 80.44,138.15C81.03,139.41 81.55,140.68 82.06,141.96C82.56,143.22 83.02,144.49 83.47,145.76C83.92,147.02 84.34,148.29 84.74,149.56C85.14,150.83 85.52,152.1 85.87,153.37C86.21,154.63 86.54,155.9 86.81,157.17C87.08,158.43 87.31,159.7 87.5,160.97C87.69,162.24 87.84,163.51 87.96,164.78C88.08,166.05 88.15,167.31 88.22,168.58C88.29,169.85 88.33,171.11 88.36,172.38C88.39,173.65 88.41,174.92 88.42,176.19C88.43,177.46 88.44,178.72 88.44,179.99C88.44,181.26 88.44,182.52 88.44,183.79C88.44,185.06 88.43,186.32 88.41,187.59C88.39,188.86 88.36,190.13 88.32,191.4C88.28,192.67 88.23,193.93 88.15,195.2C88.07,196.47 87.97,197.73 87.83,199C87.69,200.27 87.52,201.54 87.32,202.81C87.12,204.08 86.87,205.35 86.61,206.61C86.35,207.88 86.04,209.14 85.76,210.41C85.48,211.68 85.17,212.95 84.93,214.22C84.69,215.48 84.46,216.75 84.32,218.02C84.18,219.28 84.1,220.55 84.11,221.82C84.12,223.09 84.21,224.36 84.36,225.63C84.51,226.9 84.75,228.17 85,229.43C85.25,230.7 85.56,231.96 85.84,233.23C86.12,234.5 86.43,235.77 86.69,237.04C86.95,238.3 87.18,239.57 87.38,240.84Q87.58,242.1 87.87,244.64L88.46,244.64" style="vector-effect: non-scaling-stroke; stroke-width: 2px; stroke: rgb(107, 174, 214); stroke-opacity: 1; fill: rgb(107, 174, 214); fill-opacity: 0.5;"/><path class="violin" d="M159.23,54.25L159.05,54.25Q158.95,57.24 158.89,58.73C158.83,60.23 158.76,61.72 158.67,63.22C158.58,64.71 158.47,66.21 158.37,67.7C158.26,69.19 158.15,70.69 158.04,72.18C157.93,73.68 157.82,75.17 157.72,76.67C157.62,78.16 157.53,79.66 157.45,81.15C157.37,82.64 157.31,84.14 157.24,85.63C157.17,87.13 157.12,88.62 157.04,90.12C156.97,91.61 156.9,93.11 156.79,94.6C156.68,96.09 156.56,97.59 156.4,99.08C156.24,100.57 156.06,102.07 155.85,103.56C155.63,105.06 155.38,106.56 155.11,108.05C154.84,109.55 154.55,111.04 154.25,112.53C153.95,114.02 153.63,115.52 153.32,117.01C153.01,118.51 152.7,120 152.41,121.5C152.12,122.99 151.84,124.49 151.58,125.98C151.32,127.47 151.07,128.96 150.84,130.46C150.61,131.95 150.4,133.45 150.21,134.95C150.02,136.44 149.84,137.94 149.68,139.43C149.52,140.92 149.37,142.42 149.25,143.91C149.13,145.4 149.01,146.9 148.94,148.39C148.86,149.89 148.81,151.38 148.8,152.88C148.79,154.37 148.81,155.87 148.87,157.36C148.93,158.85 149.02,160.35 149.15,161.84C149.28,163.34 149.45,164.84 149.65,166.33C149.85,167.83 150.09,169.32 150.34,170.81C150.6,172.31 150.88,173.8 151.18,175.29C151.48,176.79 151.81,178.28 152.13,179.78C152.45,181.27 152.79,182.77 153.12,184.26C153.45,185.75 153.79,187.25 154.11,188.74C154.43,190.23 154.73,191.72 155.02,193.22C155.31,194.71 155.58,196.21 155.84,197.71C156.1,199.2 156.34,200.7 156.56,202.19C156.78,203.68 156.98,205.17 157.17,206.67C157.36,208.16 157.53,209.66 157.68,211.16C157.83,212.65 157.97,214.15 158.09,215.64C158.21,217.13 158.3,218.63 158.38,220.12C158.46,221.62 158.53,223.11 158.58,224.61C158.63,226.1 158.66,227.6 158.69,229.09C158.72,230.58 158.73,232.08 158.74,233.57C158.75,235.06 158.75,236.56 158.76,238.05C158.77,239.55 158.77,241.04 158.78,242.54C158.79,244.03 158.81,245.53 158.82,247.02C158.84,248.51 158.85,250.01 158.87,251.5C158.89,253 158.9,254.49 158.92,255.99C158.94,257.48 158.96,258.98 158.98,260.47C158.99,261.96 159.01,263.46 159.01,264.95C159.01,266.45 159.01,267.94 159,269.44C158.99,270.93 158.98,272.43 158.96,273.92C158.94,275.41 158.92,276.91 158.89,278.4C158.86,279.89 158.82,281.39 158.8,282.88C158.77,284.38 158.75,285.87 158.74,287.37C158.73,288.86 158.72,290.36 158.72,291.85C158.72,293.34 158.73,294.84 158.75,296.33C158.77,297.83 158.79,299.32 158.82,300.82C158.85,302.31 158.89,303.81 158.92,305.3C158.95,306.79 158.99,308.29 159.02,309.78C159.05,311.28 159.08,312.77 159.1,314.27Q159.12,315.76 159.16,318.75L159.23,318.75" style="vector-effect: non-scaling-stroke; stroke-width: 2px; stroke: rgb(107, 174, 214); stroke-opacity: 1; fill: rgb(107, 174, 214); fill-opacity: 0.5;"/><path class="violin" d="M230,57.42L229.79,57.42Q229.68,60.07 229.61,61.39C229.54,62.71 229.45,64.04 229.36,65.36C229.26,66.68 229.15,68.01 229.04,69.33C228.93,70.66 228.82,71.98 228.72,73.31C228.62,74.63 228.52,75.96 228.45,77.28C228.38,78.6 228.32,79.93 228.28,81.25C228.24,82.57 228.22,83.9 228.21,85.22C228.2,86.54 228.21,87.87 228.2,89.19C228.19,90.51 228.19,91.84 228.15,93.16C228.11,94.49 228.06,95.82 227.96,97.14C227.86,98.47 227.73,99.79 227.56,101.11C227.38,102.44 227.17,103.76 226.91,105.08C226.65,106.41 226.34,107.73 226.01,109.05C225.68,110.38 225.3,111.7 224.91,113.02C224.52,114.35 224.09,115.67 223.67,116.99C223.25,118.32 222.82,119.64 222.41,120.97C222.01,122.29 221.6,123.61 221.24,124.94C220.89,126.26 220.56,127.58 220.28,128.91C220,130.23 219.77,131.55 219.57,132.88C219.38,134.2 219.23,135.52 219.11,136.85C218.99,138.17 218.92,139.5 218.86,140.83C218.8,142.15 218.77,143.48 218.76,144.8C218.75,146.12 218.75,147.45 218.77,148.77C218.79,150.09 218.82,151.42 218.87,152.74C218.93,154.06 219,155.39 219.1,156.71C219.21,158.03 219.33,159.36 219.5,160.68C219.67,162.01 219.88,163.34 220.11,164.66C220.34,165.99 220.62,167.31 220.9,168.63C221.19,169.96 221.51,171.28 221.82,172.6C222.13,173.92 222.46,175.25 222.77,176.57C223.08,177.89 223.38,179.22 223.67,180.54C223.96,181.86 224.23,183.19 224.5,184.51C224.77,185.84 225.03,187.16 225.29,188.49C225.55,189.81 225.81,191.14 226.07,192.46C226.33,193.78 226.59,195.11 226.85,196.43C227.1,197.75 227.36,199.08 227.6,200.4C227.83,201.72 228.06,203.05 228.26,204.37C228.46,205.69 228.64,207.01 228.79,208.34C228.94,209.66 229.06,210.99 229.17,212.32C229.27,213.64 229.35,214.97 229.42,216.29C229.49,217.61 229.53,218.94 229.57,220.26C229.61,221.58 229.64,222.91 229.67,224.23C229.7,225.55 229.72,226.88 229.74,228.2C229.76,229.52 229.79,230.85 229.81,232.17C229.83,233.5 229.85,234.82 229.87,236.15C229.89,237.47 229.9,238.8 229.92,240.12C229.93,241.44 229.95,242.77 229.96,244.09C229.97,245.41 229.97,246.74 229.98,248.06C229.98,249.38 229.99,250.71 229.99,252.03C229.99,253.36 229.99,254.68 229.99,256.01C229.99,257.33 229.99,258.66 229.98,259.98C229.97,261.3 229.96,262.63 229.95,263.95C229.93,265.27 229.91,266.6 229.89,267.92C229.86,269.24 229.83,270.57 229.8,271.89C229.76,273.21 229.72,274.54 229.68,275.86C229.63,277.19 229.58,278.51 229.53,279.84C229.48,281.16 229.42,282.49 229.37,283.81C229.33,285.13 229.29,286.46 229.26,287.78C229.24,289.1 229.22,290.43 229.22,291.75C229.22,293.07 229.23,294.4 229.26,295.72C229.29,297.04 229.34,298.37 229.38,299.69C229.43,301.02 229.48,302.34 229.53,303.67C229.58,304.99 229.63,306.32 229.68,307.64C229.73,308.96 229.77,310.29 229.81,311.61Q229.84,312.93 229.89,315.58L230,315.58" style="vector-effect: non-scaling-stroke; stroke-width: 2px; stroke: rgb(107, 174, 214); stroke-opacity: 1; fill: rgb(107, 174, 214); fill-opacity: 0.5;"/><path class="violin" d="M300.77,42.47L300.51,42.47Q300.37,46.74 300.28,48.87C300.19,51 300.08,53.14 299.96,55.27C299.83,57.4 299.68,59.54 299.53,61.67C299.38,63.81 299.21,65.94 299.04,68.08C298.87,70.21 298.69,72.35 298.52,74.48C298.35,76.61 298.17,78.75 298,80.88C297.82,83.01 297.66,85.15 297.47,87.28C297.28,89.41 297.08,91.55 296.86,93.68C296.64,95.81 296.4,97.95 296.13,100.08C295.86,102.21 295.57,104.35 295.26,106.48C294.95,108.61 294.62,110.75 294.29,112.88C293.96,115.02 293.61,117.15 293.29,119.29C292.97,121.42 292.65,123.55 292.38,125.69C292.11,127.82 291.87,129.95 291.69,132.09C291.51,134.22 291.37,136.36 291.3,138.49C291.23,140.62 291.22,142.76 291.27,144.89C291.32,147.02 291.43,149.16 291.59,151.29C291.75,153.43 291.97,155.56 292.21,157.69C292.45,159.83 292.75,161.97 293.05,164.1C293.35,166.24 293.69,168.37 294.03,170.5C294.37,172.63 294.74,174.77 295.1,176.9C295.46,179.03 295.83,181.17 296.19,183.3C296.55,185.43 296.92,187.57 297.26,189.7C297.6,191.83 297.94,193.96 298.24,196.1C298.54,198.23 298.82,200.36 299.07,202.5C299.31,204.63 299.53,206.76 299.71,208.9C299.89,211.03 300.04,213.17 300.16,215.31C300.28,217.44 300.37,219.58 300.45,221.71C300.52,223.84 300.57,225.98 300.61,228.11C300.65,230.24 300.67,232.38 300.69,234.51C300.71,236.64 300.71,238.78 300.71,240.91C300.71,243.04 300.7,245.18 300.69,247.31C300.68,249.44 300.66,251.58 300.63,253.71C300.6,255.85 300.57,257.98 300.52,260.12C300.48,262.25 300.42,264.39 300.36,266.52C300.3,268.65 300.23,270.79 300.17,272.92C300.11,275.05 300.04,277.19 299.99,279.32C299.94,281.45 299.89,283.59 299.86,285.72C299.83,287.85 299.82,289.99 299.82,292.12C299.82,294.25 299.85,296.39 299.88,298.52C299.91,300.65 299.97,302.79 300.02,304.92C300.07,307.06 300.14,309.19 300.2,311.33C300.26,313.46 300.32,315.6 300.38,317.73C300.43,319.86 300.49,322 300.53,324.13Q300.57,326.26 300.64,330.53L300.77,330.53" style="vector-effect: non-scaling-stroke; stroke-width: 2px; stroke: rgb(107, 174, 214); stroke-opacity: 1; fill: rgb(107, 174, 214); fill-opacity: 0.5;"/><path class="violin" d="M371.54,18.65L371.35,18.65Q371.26,25.43 371.19,28.82C371.12,32.21 371.04,35.61 370.94,39C370.84,42.39 370.72,45.78 370.59,49.17C370.46,52.56 370.31,55.95 370.15,59.34C369.99,62.73 369.83,66.12 369.65,69.51C369.47,72.9 369.28,76.3 369.09,79.69C368.9,83.08 368.7,86.47 368.51,89.86C368.31,93.25 368.12,96.64 367.92,100.03C367.73,103.42 367.53,106.81 367.34,110.2C367.15,113.59 366.97,116.99 366.8,120.38C366.64,123.77 366.48,127.16 366.35,130.55C366.22,133.94 366.11,137.33 366.03,140.72C365.95,144.11 365.88,147.51 365.85,150.9C365.82,154.29 365.82,157.68 365.84,161.07C365.86,164.46 365.91,167.85 365.98,171.24C366.05,174.63 366.15,178.02 366.26,181.41C366.37,184.8 366.5,188.2 366.64,191.59C366.78,194.98 366.95,198.37 367.11,201.76C367.28,205.15 367.45,208.54 367.63,211.93C367.81,215.32 368,218.71 368.19,222.1C368.38,225.49 368.58,228.89 368.76,232.28C368.94,235.67 369.12,239.06 369.29,242.45C369.46,245.84 369.62,249.23 369.76,252.62C369.9,256.01 370.02,259.41 370.13,262.8C370.24,266.19 370.32,269.58 370.4,272.97C370.48,276.36 370.53,279.75 370.59,283.14C370.65,286.53 370.69,289.92 370.74,293.31C370.79,296.7 370.82,300.1 370.87,303.49C370.92,306.88 370.97,310.27 371.02,313.66C371.07,317.05 371.12,320.44 371.16,323.83C371.2,327.22 371.24,330.61 371.28,334C371.32,337.39 371.35,340.79 371.38,344.18Q371.41,347.57 371.45,354.35L371.54,354.35" style="vector-effect: non-scaling-stroke; stroke-width: 2px; stroke: rgb(107, 174, 214); stroke-opacity: 1; fill: rgb(107, 174, 214); fill-opacity: 0.5;"/><path class="violin" d="M442.31,49.4L442.07,49.4Q441.95,52.89 441.86,54.63C441.77,56.38 441.67,58.12 441.54,59.87C441.42,61.61 441.27,63.36 441.11,65.1C440.95,66.85 440.78,68.59 440.6,70.34C440.43,72.08 440.24,73.83 440.06,75.57C439.89,77.31 439.71,79.06 439.55,80.8C439.39,82.55 439.24,84.29 439.11,86.04C438.98,87.78 438.86,89.53 438.76,91.27C438.65,93.02 438.57,94.76 438.48,96.51C438.39,98.25 438.31,100 438.22,101.74C438.13,103.48 438.05,105.23 437.95,106.97C437.85,108.72 437.76,110.46 437.64,112.21C437.53,113.95 437.39,115.7 437.26,117.44C437.12,119.19 436.98,120.93 436.83,122.68C436.68,124.42 436.51,126.17 436.34,127.91C436.17,129.66 435.99,131.4 435.8,133.15C435.61,134.89 435.4,136.64 435.19,138.38C434.97,140.12 434.74,141.87 434.51,143.61C434.28,145.36 434.02,147.1 433.79,148.85C433.56,150.59 433.32,152.33 433.12,154.08C432.93,155.82 432.74,157.57 432.62,159.32C432.51,161.06 432.43,162.81 432.43,164.55C432.43,166.3 432.51,168.05 432.65,169.79C432.79,171.54 433.01,173.28 433.27,175.02C433.53,176.77 433.87,178.51 434.2,180.25C434.54,182 434.91,183.74 435.28,185.49C435.64,187.23 436.03,188.97 436.39,190.72C436.75,192.46 437.11,194.21 437.45,195.96C437.79,197.7 438.11,199.44 438.41,201.19C438.71,202.93 438.99,204.67 439.25,206.42C439.51,208.16 439.75,209.91 439.97,211.66C440.19,213.4 440.39,215.14 440.57,216.89C440.75,218.63 440.9,220.38 441.04,222.13C441.18,223.87 441.31,225.62 441.42,227.36C441.53,229.11 441.62,230.85 441.7,232.6C441.78,234.34 441.86,236.09 441.92,237.83C441.98,239.57 442.03,241.32 442.07,243.06C442.11,244.81 442.14,246.55 442.17,248.3Q442.2,250.04 442.24,253.53L442.31,253.53" style="vector-effect: non-scaling-stroke; stroke-width: 2px; stroke: rgb(107, 174, 214); stroke-opacity: 1; fill: rgb(107, 174, 214); fill-opacity: 0.5;"/><path class="box" d="M11.36,139.79H15.690000000000001M11.36,156.36H15.690000000000001V119.69H11.36ZM15.690000000000001,156.36V207.54M15.690000000000001,119.69V81.29" style="vector-effect: non-scaling-stroke; stroke-width: 2px; stroke: rgb(107, 174, 214); stroke-opacity: 1; fill: rgb(107, 174, 214); fill-opacity: 0.5;"/><path class="box" d="M82.13,120.64H86.46M82.13,135.84H86.46V114.22H82.13ZM86.46,135.84V140.84M86.46,114.22V114.12" style="vector-effect: non-scaling-stroke; stroke-width: 2px; stroke: rgb(107, 174, 214); stroke-opacity: 1; fill: rgb(107, 174, 214); fill-opacity: 0.5;"/><path class="box" d="M152.9,153.67H157.23M152.9,172.14H157.23V128.79H152.9ZM157.23,172.14V233.21M157.23,128.79V81.29" style="vector-effect: non-scaling-stroke; stroke-width: 2px; stroke: rgb(107, 174, 214); stroke-opacity: 1; fill: rgb(107, 174, 214); fill-opacity: 0.5;"/><path class="box" d="M223.67,148.84H228M223.67,167.98H228V128.85H223.67ZM228,167.98V221.64M228,128.85V81.29" style="vector-effect: non-scaling-stroke; stroke-width: 2px; stroke: rgb(107, 174, 214); stroke-opacity: 1; fill: rgb(107, 174, 214); fill-opacity: 0.5;"/><path class="box" d="M294.43,141.68H298.77M294.43,163.62H298.77V119.06H294.43ZM298.77,163.62V186.5M298.77,119.06V81.29" style="vector-effect: non-scaling-stroke; stroke-width: 2px; stroke: rgb(107, 174, 214); stroke-opacity: 1; fill: rgb(107, 174, 214); fill-opacity: 0.5;"/><path class="box" d="M365.2,163.56H369.54M365.2,194.5H369.54V123.37H365.2ZM369.54,194.5V291.71M369.54,123.37V81.29" style="vector-effect: non-scaling-stroke; stroke-width: 2px; stroke: rgb(107, 174, 214); stroke-opacity: 1; fill: rgb(107, 174, 214); fill-opacity: 0.5;"/><path class="box" d="M435.97,157.04H440.31M435.97,170.61H440.31V126.74H435.97ZM440.31,170.61V221.64M440.31,126.74V81.29" style="vector-effect: non-scaling-stroke; stroke-width: 2px; stroke: rgb(107, 174, 214); stroke-opacity: 1; fill: rgb(107, 174, 214); fill-opacity: 0.5;"/><path class="mean" d="M11.36,140.97H15.690000000000001" style="fill: none; vector-effect: non-scaling-stroke; stroke-width: 1px; stroke-dasharray: 2px, 1px; stroke: rgb(0, 0, 139); stroke-opacity: 1;"/><path class="mean" d="M82.13,130.56H86.46" style="fill: none; vector-effect: non-scaling-stroke; stroke-width: 1px; stroke-dasharray: 2px, 1px; stroke: rgb(0, 0, 139); stroke-opacity: 1;"/><path class="mean" d="M152.9,152.78H157.23" style="fill: none; vector-effect: non-scaling-stroke; stroke-width: 1px; stroke-dasharray: 2px, 1px; stroke: rgb(0, 0, 139); stroke-opacity: 1;"/><path class="mean" d="M223.67,150.81H228" style="fill: none; vector-effect: non-scaling-stroke; stroke-width: 1px; stroke-dasharray: 2px, 1px; stroke: rgb(0, 0, 139); stroke-opacity: 1;"/><path class="mean" d="M294.43,146.06H298.77" style="fill: none; vector-effect: non-scaling-stroke; stroke-width: 1px; stroke-dasharray: 2px, 1px; stroke: rgb(0, 0, 139); stroke-opacity: 1;"/><path class="mean" d="M365.2,164.7H369.54" style="fill: none; vector-effect: non-scaling-stroke; stroke-width: 1px; stroke-dasharray: 2px, 1px; stroke: rgb(0, 0, 139); stroke-opacity: 1;"/><path class="mean" d="M435.97,149.67H440.31" style="fill: none; vector-effect: non-scaling-stroke; stroke-width: 1px; stroke-dasharray: 2px, 1px; stroke: rgb(0, 0, 139); stroke-opacity: 1;"/><g class="points"><path class="point" transform="translate(17.69,291.71)" d="M3,0A3,3 0 1,1 0,-3A3,3 0 0,1 3,0Z" style="opacity: 1; stroke-width: 0px; fill: rgb(107, 174, 214); fill-opacity: 1;"/><path class="point" transform="translate(17.69,231.53)" d="M3,0A3,3 0 1,1 0,-3A3,3 0 0,1 3,0Z" style="opacity: 1; stroke-width: 0px; fill: rgb(107, 174, 214); fill-opacity: 1;"/><path class="point" transform="translate(17.69,221.64)" d="M3,0A3,3 0 1,1 0,-3A3,3 0 0,1 3,0Z" style="opacity: 1; stroke-width: 0px; fill: rgb(107, 174, 214); fill-opacity: 1;"/><path class="point" transform="translate(17.69,221.64)" d="M3,0A3,3 0 1,1 0,-3A3,3 0 0,1 3,0Z" style="opacity: 1; stroke-width: 0px; fill: rgb(107, 174, 214); fill-opacity: 1;"/><path class="point" transform="translate(17.69,221.64)" d="M3,0A3,3 0 1,1 0,-3A3,3 0 0,1 3,0Z" style="opacity: 1; stroke-width: 0px; fill: rgb(107, 174, 214); fill-opacity: 1;"/></g><g class="points"><path class="point" transform="translate(88.46,221.64)" d="M3,0A3,3 0 1,1 0,-3A3,3 0 0,1 3,0Z" style="opacity: 1; stroke-width: 0px; fill: rgb(107, 174, 214); fill-opacity: 1;"/><path class="point" transform="translate(88.46,81.29)" d="M3,0A3,3 0 1,1 0,-3A3,3 0 0,1 3,0Z" style="opacity: 1; stroke-width: 0px; fill: rgb(107, 174, 214); fill-opacity: 1;"/></g><g class="points"><path class="point" transform="translate(159.23,291.71)" d="M3,0A3,3 0 1,1 0,-3A3,3 0 0,1 3,0Z" style="opacity: 1; stroke-width: 0px; fill: rgb(107, 174, 214); fill-opacity: 1;"/><path class="point" transform="translate(159.23,291.71)" d="M3,0A3,3 0 1,1 0,-3A3,3 0 0,1 3,0Z" style="opacity: 1; stroke-width: 0px; fill: rgb(107, 174, 214); fill-opacity: 1;"/><path class="point" transform="translate(159.23,249.63)" d="M3,0A3,3 0 1,1 0,-3A3,3 0 0,1 3,0Z" style="opacity: 1; stroke-width: 0px; fill: rgb(107, 174, 214); fill-opacity: 1;"/></g><g class="points"><path class="point" transform="translate(230,291.71)" d="M3,0A3,3 0 1,1 0,-3A3,3 0 0,1 3,0Z" style="opacity: 1; stroke-width: 0px; fill: rgb(107, 174, 214); fill-opacity: 1;"/><path class="point" transform="translate(230,291.71)" d="M3,0A3,3 0 1,1 0,-3A3,3 0 0,1 3,0Z" style="opacity: 1; stroke-width: 0px; fill: rgb(107, 174, 214); fill-opacity: 1;"/><path class="point" transform="translate(230,291.71)" d="M3,0A3,3 0 1,1 0,-3A3,3 0 0,1 3,0Z" style="opacity: 1; stroke-width: 0px; fill: rgb(107, 174, 214); fill-opacity: 1;"/></g><g class="points"><path class="point" transform="translate(300.77,291.71)" d="M3,0A3,3 0 1,1 0,-3A3,3 0 0,1 3,0Z" style="opacity: 1; stroke-width: 0px; fill: rgb(107, 174, 214); fill-opacity: 1;"/></g><g class="points"/><g class="points"/></g></g></g><g class="overplot"/><path class="xlines-above crisp" d="M0,0" style="fill: none;"/><path class="ylines-above crisp" d="M0,0" style="fill: none;"/><g class="overlines-above"/><g class="xaxislayer-above"><g class="xtick"><text text-anchor="middle" x="0" y="436" transform="translate(69.69,0)" style="font-family: 'Open Sans', verdana, arial, sans-serif; font-size: 12px; fill: rgb(68, 68, 68); fill-opacity: 1; white-space: pre; opacity: 1;"></text></g><g class="xtick"><text text-anchor="middle" x="0" y="436" transform="translate(140.45999999999998,0)" style="font-family: 'Open Sans', verdana, arial, sans-serif; font-size: 12px; fill: rgb(68, 68, 68); fill-opacity: 1; white-space: pre; opacity: 1;"></text></g><g class="xtick"><text text-anchor="middle" x="0" y="436" transform="translate(211.23,0)" style="font-family: 'Open Sans', verdana, arial, sans-serif; font-size: 12px; fill: rgb(68, 68, 68); fill-opacity: 1; white-space: pre; opacity: 1;"></text></g><g class="xtick"><text text-anchor="middle" x="0" y="436" transform="translate(282,0)" style="font-family: 'Open Sans', verdana, arial, sans-serif; font-size: 12px; fill: rgb(68, 68, 68); fill-opacity: 1; white-space: pre; opacity: 1;"></text></g><g class="xtick"><text text-anchor="middle" x="0" y="436" transform="translate(352.77,0)" style="font-family: 'Open Sans', verdana, arial, sans-serif; font-size: 12px; fill: rgb(68, 68, 68); fill-opacity: 1; white-space: pre; opacity: 1;"></text></g><g class="xtick"><text text-anchor="middle" x="0" y="436" transform="translate(423.54,0)" style="font-family: 'Open Sans', verdana, arial, sans-serif; font-size: 12px; fill: rgb(68, 68, 68); fill-opacity: 1; white-space: pre; opacity: 1;"></text></g><g class="xtick"><text text-anchor="middle" x="0" y="436" transform="translate(494.31,0)" style="font-family: 'Open Sans', verdana, arial, sans-serif; font-size: 12px; fill: rgb(68, 68, 68); fill-opacity: 1; white-space: pre; opacity: 1;"></text></g></g><g class="yaxislayer-above"><g class="ytick"><text text-anchor="end" x="51" y="4.199999999999999" transform="translate(0,383.79)" style="font-family: 'Open Sans', verdana, arial, sans-serif; font-size: 12px; fill: rgb(68, 68, 68); fill-opacity: 1; white-space: pre; opacity: 1;">20</text></g><g class="ytick"><text text-anchor="end" x="51" y="4.199999999999999" style="font-family: 'Open Sans', verdana, arial, sans-serif; font-size: 12px; fill: rgb(68, 68, 68); fill-opacity: 1; white-space: pre; opacity: 1;" transform="translate(0,341.71)">0</text></g><g class="ytick"><text text-anchor="end" x="51" y="4.199999999999999" style="font-family: 'Open Sans', verdana, arial, sans-serif; font-size: 12px; fill: rgb(68, 68, 68); fill-opacity: 1; white-space: pre; opacity: 1;" transform="translate(0,299.63)">20</text></g><g class="ytick"><text text-anchor="end" x="51" y="4.199999999999999" style="font-family: 'Open Sans', verdana, arial, sans-serif; font-size: 12px; fill: rgb(68, 68, 68); fill-opacity: 1; white-space: pre; opacity: 1;" transform="translate(0,257.53999999999996)">40</text></g><g class="ytick"><text text-anchor="end" x="51" y="4.199999999999999" style="font-family: 'Open Sans', verdana, arial, sans-serif; font-size: 12px; fill: rgb(68, 68, 68); fill-opacity: 1; white-space: pre; opacity: 1;" transform="translate(0,215.46)">60</text></g><g class="ytick"><text text-anchor="end" x="51" y="4.199999999999999" style="font-family: 'Open Sans', verdana, arial, sans-serif; font-size: 12px; fill: rgb(68, 68, 68); fill-opacity: 1; white-space: pre; opacity: 1;" transform="translate(0,173.37)">80</text></g><g class="ytick"><text text-anchor="end" x="51" y="4.199999999999999" style="font-family: 'Open Sans', verdana, arial, sans-serif; font-size: 12px; fill: rgb(68, 68, 68); fill-opacity: 1; white-space: pre; opacity: 1;" transform="translate(0,131.29000000000002)">100</text></g><g class="ytick"><text text-anchor="end" x="51" y="4.199999999999999" style="font-family: 'Open Sans', verdana, arial, sans-serif; font-size: 12px; fill: rgb(68, 68, 68); fill-opacity: 1; white-space: pre; opacity: 1;" transform="translate(0,89.21000000000001)">120</text></g></g><g class="overaxes-above"/></g></g><g class="polarlayer"/><g class="ternarylayer"/><g class="geolayer"/><g class="funnelarealayer"/><g class="pielayer"/><g class="iciclelayer"/><g class="treemaplayer"/><g class="sunburstlayer"/><g class="glimages"/><defs id="topdefs-cd4106"><g class="clips"/><clipPath id="legendcd4106"><rect width="93" height="48" x="0" y="0"/></clipPath></defs><g class="layer-above"><g class="imagelayer"/><g class="shapelayer"/></g><g class="infolayer"><g class="legend" pointer-events="all" transform="translate(521.2,50)"><rect class="bg" shape-rendering="crispEdges" width="93" height="48" x="0" y="0" style="stroke: rgb(68, 68, 68); stroke-opacity: 1; fill: rgb(255, 255, 255); fill-opacity: 1; stroke-width: 0px;"/><g class="scrollbox" transform="" clip-path="url(#legendcd4106)"><g class="groups"><g class="traces" transform="translate(0,14.5)" style="opacity: 1;"><text class="legendtext" text-anchor="start" x="40" y="4.680000000000001" style="font-family: 'Open Sans', verdana, arial, sans-serif; font-size: 12px; fill: rgb(68, 68, 68); fill-opacity: 1; white-space: pre;"></text><g class="layers" style="opacity: 1;"><g class="legendfill"/><g class="legendlines"/><g class="legendsymbols"><g class="legendpoints"><path class="legendbox" d="M6,6H-6V-6H6Z" transform="translate(20,0)" style="stroke-width: 2px; fill: rgb(8, 81, 156); fill-opacity: 0.5; stroke: rgb(8, 81, 156); stroke-opacity: 1;"/></g></g></g><rect class="legendtoggle" x="0" y="-9.5" width="87.9847297668457" height="19" style="fill: rgb(0, 0, 0); fill-opacity: 0;"/></g><g class="traces" transform="translate(0,33.5)" style="opacity: 1;"><text class="legendtext" text-anchor="start" x="40" y="4.680000000000001" style="font-family: 'Open Sans', verdana, arial, sans-serif; font-size: 12px; fill: rgb(68, 68, 68); fill-opacity: 1; white-space: pre;"></text><g class="layers" style="opacity: 1;"><g class="legendfill"/><g class="legendlines"/><g class="legendsymbols"><g class="legendpoints"><path class="legendbox" d="M6,6H-6V-6H6Z" transform="translate(20,0)" style="stroke-width: 2px; fill: rgb(107, 174, 214); fill-opacity: 0.5; stroke: rgb(107, 174, 214); stroke-opacity: 1;"/></g></g></g><rect class="legendtoggle" x="0" y="-9.5" width="87.9847297668457" height="19" style="fill: rgb(0, 0, 0); fill-opacity: 0;"/></g></g></g><rect class="scrollbar" rx="20" ry="3" width="0" height="0" x="0" y="0" style="fill: rgb(128, 139, 164); fill-opacity: 1;"/></g><g class="g-gtitle"><text class="gtitle" x="313.182" y="25" text-anchor="middle" dy="0em" style="font-family: 'Open Sans', verdana, arial, sans-serif; font-size: 17px; fill: rgb(68, 68, 68); opacity: 1; font-weight: normal; white-space: pre;">   </text></g><g class="g-xtitle" transform="translate(0,-12.280174179077164)"><text class="xtitle" x="282" y="475" text-anchor="middle" style="font-family: 'Open Sans', verdana, arial, sans-serif; font-size: 14px; fill: rgb(68, 68, 68); opacity: 1; font-weight: normal; white-space: pre;"></text></g><g class="g-ytitle"><text class="ytitle" transform="rotate(-90,14,236.5)" x="14" y="236.5" text-anchor="middle" style="font-family: 'Open Sans', verdana, arial, sans-serif; font-size: 14px; fill: rgb(68, 68, 68); opacity: 1; font-weight: normal; white-space: pre;"></text></g></g></svg>