<svg class="main-svg" xmlns="http://www.w3.org/2000/svg" xmlns:xlink="http://www.w3.org/1999/xlink" width="607.273" height="465.455" style="" viewBox="0 0 607.273 465.455"><rect x="0" y="0" width="607.273" height="465.455" style="fill: rgb(255, 255, 255); fill-opacity: 1;"/><defs id="defs-819855"><g class="clips"><clipPath id="clip819855xyplot" class="plotclip"><rect width="527" height="358"/></clipPath><clipPath class="axesclip" id="clip819855x"><rect x="55" y="0" width="527" height="465.455"/></clipPath><clipPath class="axesclip" id="clip819855y"><rect x="0" y="50" width="607.273" height="358"/></clipPath><clipPath class="axesclip" id="clip819855xy"><rect x="55" y="50" width="527" height="358"/></clipPath></g><g class="gradients"/><g class="patterns"/></defs><g class="bglayer"/><g class="layer-below"><g class="imagelayer"/><g class="shapelayer"/></g><g class="cartesianlayer"><g class="subplot xy"><g class="layer-subplot"><g class="shapelayer"/><g class="imagelayer"/></g><g class="gridlayer"><g class="x"><path class="xgrid crisp" transform="translate(86.62,0)" d="M0,50v358" style="stroke: rgb(238, 238, 238); stroke-opacity: 1; stroke-width: 1px;"/><path class="xgrid crisp" transform="translate(160.4,0)" d="M0,50v358" style="stroke: rgb(238, 238, 238); stroke-opacity: 1; stroke-width: 1px;"/><path class="xgrid crisp" transform="translate(234.18,0)" d="M0,50v358" style="stroke: rgb(238, 238, 238); stroke-opacity: 1; stroke-width: 1px;"/><path class="xgrid crisp" transform="translate(307.96000000000004,0)" d="M0,50v358" style="stroke: rgb(238, 238, 238); stroke-opacity: 1; stroke-width: 1px;"/><path class="xgrid crisp" transform="translate(381.74,0)" d="M0,50v358" style="stroke: rgb(238, 238, 238); stroke-opacity: 1; stroke-width: 1px;"/><path class="xgrid crisp" transform="translate(455.52,0)" d="M0,50v358" style="stroke: rgb(238, 238, 238); stroke-opacity: 1; stroke-width: 1px;"/><path class="xgrid crisp" transform="translate(529.3,0)" d="M0,50v358" style="stroke: rgb(238, 238, 238); stroke-opacity: 1; stroke-width: 1px;"/></g><g class="y"><path class="ygrid crisp" transform="translate(0,325.68)" d="M55,0h527" style="stroke: rgb(238, 238, 238); stroke-opacity: 1; stroke-width: 1px;"/><path class="ygrid crisp" transform="translate(0,259.15)" d="M55,0h527" style="stroke: rgb(238, 238, 238); stroke-opacity: 1; stroke-width: 1px;"/><path class="ygrid crisp" transform="translate(0,192.63)" d="M55,0h527" style="stroke: rgb(238, 238, 238); stroke-opacity: 1; stroke-width: 1px;"/><path class="ygrid crisp" transform="translate(0,126.1)" d="M55,0h527" style="stroke: rgb(238, 238, 238); stroke-opacity: 1; stroke-width: 1px;"/><path class="ygrid crisp" transform="translate(0,59.58)" d="M55,0h527" style="stroke: rgb(238, 238, 238); stroke-opacity: 1; stroke-width: 1px;"/></g></g><g class="zerolinelayer"><path class="yzl zl crisp" transform="translate(0,392.2)" d="M55,0h527" style="stroke: rgb(68, 68, 68); stroke-opacity: 1; stroke-width: 1px;"/></g><path class="xlines-below"/><path class="ylines-below"/><g class="overlines-below"/><g class="xaxislayer-below"/><g class="yaxislayer-below"/><g class="overaxes-below"/><g class="plot" transform="translate(55,50)" clip-path="url(#clip819855xyplot)"><g class="scatterlayer mlayer"><g class="trace scatter trace07d260" style="stroke-miterlimit: 2; opacity: 1;"><g class="fills"/><g class="errorbars"/><g class="lines"><path class="js-line" d="M0,331.27L5.27,319.11L10.54,323.17L15.81,327.39L21.08,329.31L26.35,330.46L31.62,336.23L36.89,331.9L42.16,321.91L52.7,326.53L57.97,327.06L63.24,327.92L68.51,334.86L73.78,320.12L79.05,322.59L84.32,325.32L89.59,325.76L94.86,324.36L100.13,324.73L105.4,332.69L110.67,313.12L115.94,315.05L121.21,318.95L131.75,317.39L137.02,319.24L142.29,329.89L147.56,303.38L152.83,305.78L158.1,311.02L173.91,317.8L179.18,329.78L184.45,300.77L189.72,300.64L194.99,305.37L200.26,305.93L205.53,306.13L210.8,309.96L216.07,326.39L221.34,293.71L226.61,297.9L231.88,305.32L237.15,309.32L242.42,308.65L247.69,311.59L252.96,326.84L258.23,293.72L263.5,295.42L268.77,302.89L274.04,306.48L279.31,307.18L284.58,310.91L289.85,327.35L295.12,294.65L300.39,297.35L305.66,304.23L310.93,306.95L316.2,307.12L321.47,311.22L326.74,326.79L332.01,290.57L337.28,292.5L342.55,298.79L347.82,300.47L353.09,300.55L358.36,306.06L363.63,325.13L368.9,284.42L374.17,285.94L379.44,295.53L384.71,297.66L389.98,297.79L395.25,303.04L400.52,324.49L405.79,283.95L411.06,283.54L416.33,291.81L421.6,296.85L426.87,298.26L432.14,303.32L437.41,325.21L442.68,283.93L447.95,283.98L453.22,294.68L458.49,298.82L463.76,300.34L469.03,303.93L474.3,327.08L479.57,288.28L484.84,289.93L490.11,299.55L495.38,304.31L500.65,306.54L505.92,311.09L511.19,329.49L516.46,302.26L521.73,306.05L527,312.96" style="vector-effect: non-scaling-stroke; fill: none; stroke: rgb(8, 69, 148); stroke-opacity: 1; stroke-width: 2px; opacity: 1;"/></g><g class="points"/><g class="text"/></g><g class="trace scatter trace261103" style="stroke-miterlimit: 2; opacity: 1;"><g class="fills"/><g class="errorbars"/><g class="lines"><path class="js-line" d="M0,285.68L5.27,242.72L10.54,242.65L15.81,257.64L21.08,259.47L26.35,266.49L31.62,260.65L36.89,268.73L42.16,263.78L47.43,239.01L52.7,240.23L57.97,251.75L63.24,257.09L68.51,271.69L73.78,275.53L79.05,243.05L84.32,247.45L89.59,257.13L94.86,261.11L100.13,261.98L105.4,273.01L110.67,270.42L115.94,242.05L121.21,240.32L126.48,247.81L131.75,250.49L137.02,252.15L142.29,265.65L147.56,258.32L152.83,222.59L158.1,222.95L163.37,228.96L168.64,254.37L173.91,231.4L179.18,254.89L184.45,252.39L189.72,208.12L194.99,203.6L200.26,220.31L205.53,221.13L210.8,214.19L216.07,252.37L221.34,233.14L226.61,188.01L231.88,174.75L237.15,216.14L242.42,205.65L247.69,195.88L252.96,231.42L258.23,225.16L263.5,184.61L268.77,132.97L274.04,236.09L279.31,181.58L284.58,180.45L289.85,211.33L295.12,215.16L300.39,135.18L305.66,178.02L310.93,177.1L316.2,168.23L321.47,212.45L326.74,222.95L332.01,218.14L337.28,159.92L342.55,152.83L347.82,169.63L353.09,179.06L358.36,183.27L363.63,211.78L368.9,215.14L374.17,126.22L379.44,140.8L384.71,157.36L389.98,169.54L395.25,178.88L400.52,206.32L405.79,203.96L411.06,128.37L416.33,125.94L421.6,138.72L426.87,150.29L432.14,152.65L437.41,192.78L442.68,205.18L447.95,113.19L453.22,111.71L458.49,128.3L463.76,158.3L469.03,188.14L474.3,149.36L479.57,205.96L484.84,194.9L490.11,188.04L495.38,108.69L500.65,102.24L505.92,115.92L511.19,170.64L516.46,207.27L521.73,208.63L527,153.22" style="vector-effect: non-scaling-stroke; fill: none; stroke: rgb(33, 113, 181); stroke-opacity: 1; stroke-width: 2px; opacity: 1;"/></g><g class="points"/><g class="text"/></g><g class="trace scatter trace71afad" style="stroke-miterlimit: 2; opacity: 1;"><g class="fills"/><g class="errorbars"/><g class="lines"><path class="js-line" d="M0,230.32L5.27,86.42L10.54,122.2L15.81,79.53L21.08,92.33L26.35,281.76L31.62,295.95L36.89,144.64L42.16,17.9L47.43,129.67L52.7,81.66L57.97,148.35L63.24,293.26L68.51,305.39L73.78,124.05L79.05,60.37L84.32,150.56L89.59,101.12L94.86,181.72L100.13,310.64L105.4,317.9L115.94,97.06L121.21,195.79L126.48,187.95L131.75,228.77L137.02,312.75L142.29,331.63L147.56,272.04L152.83,241.32L158.1,286.9L163.37,203.65L168.64,182.25L173.91,331.86L179.18,332.47L184.45,271.05L189.72,206.52L194.99,269.54L200.26,259.79L205.53,178.23L210.8,324.33L216.07,335.77L221.34,263.02L226.61,213.89L231.88,273.93L237.15,258.99L242.42,129.33L247.69,334.08L252.96,335.83L258.23,271.77L263.5,206.76L268.77,267.51L274.04,247.11L279.31,104.59L284.58,332.48L289.85,335.04L295.12,250.5L300.39,178.04L305.66,248.79L310.93,230.07L316.2,95.71L321.47,331.81L326.74,336.71L332.01,237.43L337.28,183.26L342.55,242.74L347.82,211.57L353.09,98.34L358.36,331.31L363.63,332.94L368.9,224.23L374.17,173.72L379.44,238.43L384.71,215.27L389.98,131.24L395.25,330.4L400.52,333.17L405.79,242.01L411.06,195.05L416.33,250.01L421.6,213.15L426.87,160.77L432.14,330.56L437.41,333.56L442.68,306.62L447.95,267.33L453.22,268.88L458.49,250.66L463.76,205.48L469.03,332.77L474.3,335.97L479.57,281.74L484.84,285.26L490.11,299.79L495.38,229.1L500.65,222.07L505.92,337.16L511.19,337.82L516.46,302.27L521.73,308.97L527,312.82" style="vector-effect: non-scaling-stroke; fill: none; stroke: rgb(66, 146, 198); stroke-opacity: 1; stroke-width: 2px; opacity: 1;"/></g><g class="points"/><g class="text"/></g><g class="trace scatter traceb9e2c6" style="stroke-miterlimit: 2; opacity: 1;"><g class="fills"/><g class="errorbars"/><g class="lines"><path class="js-line" d="M0,311.96L5.27,301.57L10.54,288.95L15.81,294.91L21.08,297.51L26.35,336.09L31.62,336.76L36.89,325.84L42.16,295.19L47.43,295.09L52.7,292.24L57.97,319.99L63.24,335.64L68.51,336.24L73.78,315.3L79.05,307.76L84.32,298.79L89.59,296.17L94.86,309.24L100.13,337.59L105.4,335.34L110.67,314.91L115.94,306.85L121.21,291.84L126.48,296.29L131.75,318.55L137.02,335.24L142.29,337.88L147.56,311.28L152.83,305.08L158.1,289.82L163.37,288.91L168.64,312.51L173.91,338.33L179.18,336.77L184.45,311.78L189.72,318.64L194.99,274.27L200.26,291.81L205.53,330.65L210.8,337.94L216.07,339.99L221.34,305.52L226.61,298.41L231.88,283.7L237.15,301.92L242.42,302.26L247.69,338.07L252.96,339.08L258.23,308.88L263.5,298.41L268.77,263.94L274.04,329.55L279.31,325.23L284.58,339.48L289.85,337.6L295.12,298.98L300.39,289.79L305.66,264.59L310.93,267.58L316.2,296.73L321.47,336.33L326.74,338.37L332.01,285.05L337.28,275.54L342.55,239.23L347.82,268.6L353.09,315.03L358.36,335.6L363.63,336.91L368.9,293.81L379.44,239.1L384.71,260.41L389.98,302.2L395.25,326.29L400.52,337.49L405.79,295.66L411.06,278.35L416.33,216.92L421.6,271.05L426.87,308.27L432.14,321.07L437.41,340.1L442.68,332.24L447.95,261.77L453.22,261.53L458.49,269.61L463.76,314.14L469.03,336.15L474.3,339.03L479.57,336.63L484.84,262.56L490.11,204.59L500.65,283.16L505.92,337L511.19,333.14L516.46,311.79L521.73,298.56L527,245.33" style="vector-effect: non-scaling-stroke; fill: none; stroke: rgb(107, 174, 214); stroke-opacity: 1; stroke-width: 2px; opacity: 1;"/></g><g class="points"/><g class="text"/></g></g></g><g class="overplot"/><path class="xlines-above crisp" d="M0,0" style="fill: none;"/><path class="ylines-above crisp" d="M0,0" style="fill: none;"/><g class="overlines-above"/><g class="xaxislayer-above"><g class="xtick"><text text-anchor="middle" x="0" y="421" transform="translate(86.62,0)" style="font-family: 나눔고딕; font-size: 12px; fill: rgb(25, 25, 112); fill-opacity: 1; white-space: pre; opacity: 1;"><tspan class="line" dy="0em" x="0" y="421">Oct 9</tspan><tspan class="line" dy="1.3em" x="0" y="421">2022</tspan></text></g><g class="xtick"><text text-anchor="middle" x="0" y="421" style="font-family: 나눔고딕; font-size: 12px; fill: rgb(25, 25, 112); fill-opacity: 1; white-space: pre; opacity: 1;" transform="translate(160.4,0)">Oct 23</text></g><g class="xtick"><text text-anchor="middle" x="0" y="421" style="font-family: 나눔고딕; font-size: 12px; fill: rgb(25, 25, 112); fill-opacity: 1; white-space: pre; opacity: 1;" transform="translate(234.18,0)">Nov 6</text></g><g class="xtick"><text text-anchor="middle" x="0" y="421" style="font-family: 나눔고딕; font-size: 12px; fill: rgb(25, 25, 112); fill-opacity: 1; white-space: pre; opacity: 1;" transform="translate(307.96000000000004,0)">Nov 20</text></g><g class="xtick"><text text-anchor="middle" x="0" y="421" style="font-family: 나눔고딕; font-size: 12px; fill: rgb(25, 25, 112); fill-opacity: 1; white-space: pre; opacity: 1;" transform="translate(381.74,0)">Dec 4</text></g><g class="xtick"><text text-anchor="middle" x="0" y="421" style="font-family: 나눔고딕; font-size: 12px; fill: rgb(25, 25, 112); fill-opacity: 1; white-space: pre; opacity: 1;" transform="translate(455.52,0)">Dec 18</text></g><g class="xtick"><text text-anchor="middle" x="0" y="421" style="font-family: 나눔고딕; font-size: 12px; fill: rgb(25, 25, 112); fill-opacity: 1; white-space: pre; opacity: 1;" transform="translate(529.3,0)"><tspan class="line" dy="0em" x="0" y="421">Jan 1</tspan><tspan class="line" dy="1.3em" x="0" y="421">2023</tspan></text></g></g><g class="yaxislayer-above"><g class="ytick"><text text-anchor="end" x="54" y="4.199999999999999" transform="translate(0,392.2)" style="font-family: 나눔고딕; font-size: 12px; fill: rgb(25, 25, 112); fill-opacity: 1; white-space: pre; opacity: 1;">0</text></g><g class="ytick"><text text-anchor="end" x="54" y="4.199999999999999" style="font-family: 나눔고딕; font-size: 12px; fill: rgb(25, 25, 112); fill-opacity: 1; white-space: pre; opacity: 1;" transform="translate(0,325.68)">100k</text></g><g class="ytick"><text text-anchor="end" x="54" y="4.199999999999999" style="font-family: 나눔고딕; font-size: 12px; fill: rgb(25, 25, 112); fill-opacity: 1; white-space: pre; opacity: 1;" transform="translate(0,259.15)">200k</text></g><g class="ytick"><text text-anchor="end" x="54" y="4.199999999999999" style="font-family: 나눔고딕; font-size: 12px; fill: rgb(25, 25, 112); fill-opacity: 1; white-space: pre; opacity: 1;" transform="translate(0,192.63)">300k</text></g><g class="ytick"><text text-anchor="end" x="54" y="4.199999999999999" style="font-family: 나눔고딕; font-size: 12px; fill: rgb(25, 25, 112); fill-opacity: 1; white-space: pre; opacity: 1;" transform="translate(0,126.1)">400k</text></g><g class="ytick"><text text-anchor="end" x="54" y="4.199999999999999" style="font-family: 나눔고딕; font-size: 12px; fill: rgb(25, 25, 112); fill-opacity: 1; white-space: pre; opacity: 1;" transform="translate(0,59.58)">500k</text></g></g><g class="overaxes-above"/></g></g><g class="polarlayer"/><g class="ternarylayer"/><g class="geolayer"/><g class="funnelarealayer"/><g class="pielayer"/><g class="iciclelayer"/><g class="treemaplayer"/><g class="sunburstlayer"/><g class="glimages"/><defs id="topdefs-819855"><g class="clips"/><clipPath id="legend819855"><rect width="69" height="67" x="2" y="2"/></clipPath></defs><g class="layer-above"><g class="imagelayer"/><g class="shapelayer"/></g><g class="infolayer"><g class="legend" pointer-events="all" transform="translate(482.65,67.90000000000002)"><rect class="bg" shape-rendering="crispEdges" width="71" height="69" x="1" y="1" style="stroke: rgb(128, 128, 128); stroke-opacity: 1; fill: rgb(255, 255, 255); fill-opacity: 1; stroke-width: 2px;"/><g class="scrollbox" transform="" clip-path="url(#legend819855)"><g class="groups"><g class="traces" transform="translate(2,16.5)" style="opacity: 1;"><text class="legendtext" text-anchor="start" x="40" y="4.680000000000001" style="font-family: 나눔고딕; font-size: 12px; fill: rgb(25, 25, 112); fill-opacity: 1; white-space: pre;">한국</text><g class="layers" style="opacity: 1;"><g class="legendfill"/><g class="legendlines"><path class="js-line" d="M5,0h30" style="fill: none; stroke: rgb(8, 69, 148); stroke-opacity: 1; stroke-width: 2px;"/></g><g class="legendsymbols"><g class="legendpoints"/></g></g><rect class="legendtoggle" x="0" y="-9.5" width="63.09392738342285" height="19" style="fill: rgb(0, 0, 0); fill-opacity: 0;"/></g><g class="traces" transform="translate(2,35.5)" style="opacity: 1;"><text class="legendtext" text-anchor="start" x="40" y="4.680000000000001" style="font-family: 나눔고딕; font-size: 12px; fill: rgb(25, 25, 112); fill-opacity: 1; white-space: pre;">유럽</text><g class="layers" style="opacity: 1;"><g class="legendfill"/><g class="legendlines"><path class="js-line" d="M5,0h30" style="fill: none; stroke: rgb(66, 146, 198); stroke-opacity: 1; stroke-width: 2px;"/></g><g class="legendsymbols"><g class="legendpoints"/></g></g><rect class="legendtoggle" x="0" y="-9.5" width="63.09392738342285" height="19" style="fill: rgb(0, 0, 0); fill-opacity: 0;"/></g><g class="traces" transform="translate(2,54.5)" style="opacity: 1;"><text class="legendtext" text-anchor="start" x="40" y="4.680000000000001" style="font-family: 나눔고딕; font-size: 12px; fill: rgb(25, 25, 112); fill-opacity: 1; white-space: pre;">북미</text><g class="layers" style="opacity: 1;"><g class="legendfill"/><g class="legendlines"><path class="js-line" d="M5,0h30" style="fill: none; stroke: rgb(107, 174, 214); stroke-opacity: 1; stroke-width: 2px;"/></g><g class="legendsymbols"><g class="legendpoints"/></g></g><rect class="legendtoggle" x="0" y="-9.5" width="63.09392738342285" height="19" style="fill: rgb(0, 0, 0); fill-opacity: 0;"/></g></g></g><rect class="scrollbar" rx="20" ry="3" width="0" height="0" x="0" y="0" style="fill: rgb(128, 139, 164); fill-opacity: 1;"/></g><g class="g-gtitle"><text class="gtitle" x="303.6365" y="25" text-anchor="middle" dy="0.7em" style="font-family: 나눔고딕; font-size: 17px; fill: rgb(25, 25, 112); opacity: 1; font-weight: normal; white-space: pre;">대륙별 신규 확진자수 추이</text></g><g class="g-xtitle"><text class="xtitle" x="318.5" y="460" text-anchor="middle" style="font-family: 나눔고딕; font-size: 14px; fill: rgb(25, 25, 112); opacity: 1; font-weight: normal; white-space: pre;">date</text></g><g class="g-ytitle"><text class="ytitle" transform="rotate(-90,17,229)" x="17" y="229" text-anchor="middle" style="font-family: 나눔고딕; font-size: 14px; fill: rgb(25, 25, 112); opacity: 1; font-weight: normal; white-space: pre;">확진자_한국</text></g></g></svg>