<svg class="main-svg" xmlns="http://www.w3.org/2000/svg" xmlns:xlink="http://www.w3.org/1999/xlink" width="607.273" height="465.455" style="" viewBox="0 0 607.273 465.455"><rect x="0" y="0" width="607.273" height="465.455" style="fill: rgb(255, 255, 255); fill-opacity: 1;"/><defs id="defs-853227"><g class="clips"><clipPath id="clip853227xyplot" class="plotclip"><rect width="529" height="385"/></clipPath><clipPath class="axesclip" id="clip853227x"><rect x="60" y="0" width="529" height="465.455"/></clipPath><clipPath class="axesclip" id="clip853227y"><rect x="0" y="25" width="607.273" height="385"/></clipPath><clipPath class="axesclip" id="clip853227xy"><rect x="60" y="25" width="529" height="385"/></clipPath></g><g class="gradients"/><g class="patterns"/></defs><g class="bglayer"/><g class="layer-below"><g class="imagelayer"/><g class="shapelayer"/></g><g class="cartesianlayer"><g class="subplot xy"><g class="layer-subplot"><g class="shapelayer"/><g class="imagelayer"/></g><g class="gridlayer"><g class="x"><path class="xgrid crisp" transform="translate(118.32,0)" d="M0,25v385" style="stroke: rgb(238, 238, 238); stroke-opacity: 1; stroke-width: 1px;"/><path class="xgrid crisp" transform="translate(183.92000000000002,0)" d="M0,25v385" style="stroke: rgb(238, 238, 238); stroke-opacity: 1; stroke-width: 1px;"/><path class="xgrid crisp" transform="translate(249.52,0)" d="M0,25v385" style="stroke: rgb(238, 238, 238); stroke-opacity: 1; stroke-width: 1px;"/><path class="xgrid crisp" transform="translate(315.13,0)" d="M0,25v385" style="stroke: rgb(238, 238, 238); stroke-opacity: 1; stroke-width: 1px;"/><path class="xgrid crisp" transform="translate(380.73,0)" d="M0,25v385" style="stroke: rgb(238, 238, 238); stroke-opacity: 1; stroke-width: 1px;"/><path class="xgrid crisp" transform="translate(446.34,0)" d="M0,25v385" style="stroke: rgb(238, 238, 238); stroke-opacity: 1; stroke-width: 1px;"/><path class="xgrid crisp" transform="translate(511.94,0)" d="M0,25v385" style="stroke: rgb(238, 238, 238); stroke-opacity: 1; stroke-width: 1px;"/><path class="xgrid crisp" transform="translate(577.54,0)" d="M0,25v385" style="stroke: rgb(238, 238, 238); stroke-opacity: 1; stroke-width: 1px;"/></g><g class="y"><path class="ygrid crisp" transform="translate(0,382.64)" d="M60,0h529" style="stroke: rgb(238, 238, 238); stroke-opacity: 1; stroke-width: 1px;"/><path class="ygrid crisp" transform="translate(0,339.83)" d="M60,0h529" style="stroke: rgb(238, 238, 238); stroke-opacity: 1; stroke-width: 1px;"/><path class="ygrid crisp" transform="translate(0,297.02)" d="M60,0h529" style="stroke: rgb(238, 238, 238); stroke-opacity: 1; stroke-width: 1px;"/><path class="ygrid crisp" transform="translate(0,254.21)" d="M60,0h529" style="stroke: rgb(238, 238, 238); stroke-opacity: 1; stroke-width: 1px;"/><path class="ygrid crisp" transform="translate(0,211.41)" d="M60,0h529" style="stroke: rgb(238, 238, 238); stroke-opacity: 1; stroke-width: 1px;"/><path class="ygrid crisp" transform="translate(0,168.6)" d="M60,0h529" style="stroke: rgb(238, 238, 238); stroke-opacity: 1; stroke-width: 1px;"/><path class="ygrid crisp" transform="translate(0,125.79)" d="M60,0h529" style="stroke: rgb(238, 238, 238); stroke-opacity: 1; stroke-width: 1px;"/><path class="ygrid crisp" transform="translate(0,82.97999999999999)" d="M60,0h529" style="stroke: rgb(238, 238, 238); stroke-opacity: 1; stroke-width: 1px;"/><path class="ygrid crisp" transform="translate(0,40.17)" d="M60,0h529" style="stroke: rgb(238, 238, 238); stroke-opacity: 1; stroke-width: 1px;"/></g></g><g class="zerolinelayer"/><path class="xlines-below"/><path class="ylines-below"/><g class="overlines-below"/><g class="xaxislayer-below"/><g class="yaxislayer-below"/><g class="overaxes-below"/><g class="plot" transform="translate(60,25)" clip-path="url(#clip853227xyplot)"><g class="scatterlayer mlayer"><g class="trace scatter trace6c70b0" style="stroke-miterlimit: 2; opacity: 1;"><g class="fills"/><g class="errorbars"/><g class="lines"><path class="js-line" d="M30.2,330.14L34.89,251.86L39.57,278L44.26,305.16L48.94,317.49L53.63,324.87L58.32,362L63,334.2L67.69,269.87L77.06,299.58L81.75,303.03L86.43,308.54L91.12,353.19L95.8,258.37L100.49,274.24L105.18,291.85L109.86,294.67L114.55,285.62L119.23,288.05L123.92,339.22L128.61,213.32L133.29,225.77L137.98,250.83L142.66,246.82L147.35,240.79L152.04,252.71L156.72,321.21L161.41,150.63L166.09,166.12L170.78,199.81L175.47,214.56L180.15,225.52L184.84,243.45L189.52,320.52L194.21,133.87L198.9,133.02L203.58,163.44L208.27,167.06L212.95,168.32L217.64,192.98L222.33,298.71L227.01,88.45L231.7,115.4L236.38,163.13L241.07,188.9L245.76,184.54L250.44,203.48L255.13,301.6L259.81,88.49L264.5,99.4L269.19,147.5L273.87,170.58L278.56,175.07L283.24,199.13L287.93,304.87L292.62,94.47L297.3,111.86L301.99,156.1L306.67,173.62L311.36,174.74L316.05,201.12L320.73,301.3L325.42,68.24L330.1,80.61L334.79,121.11L339.48,131.89L344.16,132.43L348.85,167.92L353.53,290.57L358.22,28.65L362.91,38.42L367.59,100.13L372.28,113.83L376.96,114.69L381.65,148.47L386.34,286.48L391.02,25.62L395.71,23L400.39,76.2L405.08,108.63L409.77,117.7L414.45,150.24L419.14,291.09L423.82,25.47L428.51,25.8L433.2,94.68L437.88,121.31L442.57,131.07L447.25,154.18L451.94,303.12L456.63,53.46L461.31,64.08L466,126.02L470.68,156.64L475.37,170.96L480.06,200.25L484.74,318.66L489.43,143.42L494.11,167.81L498.8,212.29" style="vector-effect: non-scaling-stroke; fill: none; stroke: rgb(94, 136, 252); stroke-opacity: 1; stroke-width: 2px; opacity: 1; stroke-dasharray: 9px, 9px;"/></g><g class="points"><path class="point" transform="translate(30.2,330.14)" d="M3,0A3,3 0 1,1 0,-3A3,3 0 0,1 3,0Z" style="opacity: 1; stroke-width: 0px; fill: rgb(38, 78, 134); fill-opacity: 1;"/><path class="point" transform="translate(34.89,251.86)" d="M3,0A3,3 0 1,1 0,-3A3,3 0 0,1 3,0Z" style="opacity: 1; stroke-width: 0px; fill: rgb(38, 78, 134); fill-opacity: 1;"/><path class="point" transform="translate(39.57,278)" d="M3,0A3,3 0 1,1 0,-3A3,3 0 0,1 3,0Z" style="opacity: 1; stroke-width: 0px; fill: rgb(38, 78, 134); fill-opacity: 1;"/><path class="point" transform="translate(44.26,305.16)" d="M3,0A3,3 0 1,1 0,-3A3,3 0 0,1 3,0Z" style="opacity: 1; stroke-width: 0px; fill: rgb(38, 78, 134); fill-opacity: 1;"/><path class="point" transform="translate(48.94,317.49)" d="M3,0A3,3 0 1,1 0,-3A3,3 0 0,1 3,0Z" style="opacity: 1; stroke-width: 0px; fill: rgb(38, 78, 134); fill-opacity: 1;"/><path class="point" transform="translate(53.63,324.87)" d="M3,0A3,3 0 1,1 0,-3A3,3 0 0,1 3,0Z" style="opacity: 1; stroke-width: 0px; fill: rgb(38, 78, 134); fill-opacity: 1;"/><path class="point" transform="translate(58.32,362)" d="M3,0A3,3 0 1,1 0,-3A3,3 0 0,1 3,0Z" style="opacity: 1; stroke-width: 0px; fill: rgb(38, 78, 134); fill-opacity: 1;"/><path class="point" transform="translate(63,334.2)" d="M3,0A3,3 0 1,1 0,-3A3,3 0 0,1 3,0Z" style="opacity: 1; stroke-width: 0px; fill: rgb(38, 78, 134); fill-opacity: 1;"/><path class="point" transform="translate(67.69,269.87)" d="M3,0A3,3 0 1,1 0,-3A3,3 0 0,1 3,0Z" style="opacity: 1; stroke-width: 0px; fill: rgb(38, 78, 134); fill-opacity: 1;"/><path class="point" transform="translate(72.37,285.17)" d="M3,0A3,3 0 1,1 0,-3A3,3 0 0,1 3,0Z" style="opacity: 1; stroke-width: 0px; fill: rgb(38, 78, 134); fill-opacity: 1;"/><path class="point" transform="translate(77.06,299.58)" d="M3,0A3,3 0 1,1 0,-3A3,3 0 0,1 3,0Z" style="opacity: 1; stroke-width: 0px; fill: rgb(38, 78, 134); fill-opacity: 1;"/><path class="point" transform="translate(81.75,303.03)" d="M3,0A3,3 0 1,1 0,-3A3,3 0 0,1 3,0Z" style="opacity: 1; stroke-width: 0px; fill: rgb(38, 78, 134); fill-opacity: 1;"/><path class="point" transform="translate(86.43,308.54)" d="M3,0A3,3 0 1,1 0,-3A3,3 0 0,1 3,0Z" style="opacity: 1; stroke-width: 0px; fill: rgb(38, 78, 134); fill-opacity: 1;"/><path class="point" transform="translate(91.12,353.19)" d="M3,0A3,3 0 1,1 0,-3A3,3 0 0,1 3,0Z" style="opacity: 1; stroke-width: 0px; fill: rgb(38, 78, 134); fill-opacity: 1;"/><path class="point" transform="translate(95.8,258.37)" d="M3,0A3,3 0 1,1 0,-3A3,3 0 0,1 3,0Z" style="opacity: 1; stroke-width: 0px; fill: rgb(38, 78, 134); fill-opacity: 1;"/><path class="point" transform="translate(100.49,274.24)" d="M3,0A3,3 0 1,1 0,-3A3,3 0 0,1 3,0Z" style="opacity: 1; stroke-width: 0px; fill: rgb(38, 78, 134); fill-opacity: 1;"/><path class="point" transform="translate(105.18,291.85)" d="M3,0A3,3 0 1,1 0,-3A3,3 0 0,1 3,0Z" style="opacity: 1; stroke-width: 0px; fill: rgb(38, 78, 134); fill-opacity: 1;"/><path class="point" transform="translate(109.86,294.67)" d="M3,0A3,3 0 1,1 0,-3A3,3 0 0,1 3,0Z" style="opacity: 1; stroke-width: 0px; fill: rgb(38, 78, 134); fill-opacity: 1;"/><path class="point" transform="translate(114.55,285.62)" d="M3,0A3,3 0 1,1 0,-3A3,3 0 0,1 3,0Z" style="opacity: 1; stroke-width: 0px; fill: rgb(38, 78, 134); fill-opacity: 1;"/><path class="point" transform="translate(119.23,288.05)" d="M3,0A3,3 0 1,1 0,-3A3,3 0 0,1 3,0Z" style="opacity: 1; stroke-width: 0px; fill: rgb(38, 78, 134); fill-opacity: 1;"/><path class="point" transform="translate(123.92,339.22)" d="M3,0A3,3 0 1,1 0,-3A3,3 0 0,1 3,0Z" style="opacity: 1; stroke-width: 0px; fill: rgb(38, 78, 134); fill-opacity: 1;"/><path class="point" transform="translate(128.61,213.32)" d="M3,0A3,3 0 1,1 0,-3A3,3 0 0,1 3,0Z" style="opacity: 1; stroke-width: 0px; fill: rgb(38, 78, 134); fill-opacity: 1;"/><path class="point" transform="translate(133.29,225.77)" d="M3,0A3,3 0 1,1 0,-3A3,3 0 0,1 3,0Z" style="opacity: 1; stroke-width: 0px; fill: rgb(38, 78, 134); fill-opacity: 1;"/><path class="point" transform="translate(137.98,250.83)" d="M3,0A3,3 0 1,1 0,-3A3,3 0 0,1 3,0Z" style="opacity: 1; stroke-width: 0px; fill: rgb(38, 78, 134); fill-opacity: 1;"/><path class="point" transform="translate(142.66,246.82)" d="M3,0A3,3 0 1,1 0,-3A3,3 0 0,1 3,0Z" style="opacity: 1; stroke-width: 0px; fill: rgb(38, 78, 134); fill-opacity: 1;"/><path class="point" transform="translate(147.35,240.79)" d="M3,0A3,3 0 1,1 0,-3A3,3 0 0,1 3,0Z" style="opacity: 1; stroke-width: 0px; fill: rgb(38, 78, 134); fill-opacity: 1;"/><path class="point" transform="translate(152.04,252.71)" d="M3,0A3,3 0 1,1 0,-3A3,3 0 0,1 3,0Z" style="opacity: 1; stroke-width: 0px; fill: rgb(38, 78, 134); fill-opacity: 1;"/><path class="point" transform="translate(156.72,321.21)" d="M3,0A3,3 0 1,1 0,-3A3,3 0 0,1 3,0Z" style="opacity: 1; stroke-width: 0px; fill: rgb(38, 78, 134); fill-opacity: 1;"/><path class="point" transform="translate(161.41,150.63)" d="M3,0A3,3 0 1,1 0,-3A3,3 0 0,1 3,0Z" style="opacity: 1; stroke-width: 0px; fill: rgb(38, 78, 134); fill-opacity: 1;"/><path class="point" transform="translate(166.09,166.12)" d="M3,0A3,3 0 1,1 0,-3A3,3 0 0,1 3,0Z" style="opacity: 1; stroke-width: 0px; fill: rgb(38, 78, 134); fill-opacity: 1;"/><path class="point" transform="translate(170.78,199.81)" d="M3,0A3,3 0 1,1 0,-3A3,3 0 0,1 3,0Z" style="opacity: 1; stroke-width: 0px; fill: rgb(38, 78, 134); fill-opacity: 1;"/><path class="point" transform="translate(175.47,214.56)" d="M3,0A3,3 0 1,1 0,-3A3,3 0 0,1 3,0Z" style="opacity: 1; stroke-width: 0px; fill: rgb(38, 78, 134); fill-opacity: 1;"/><path class="point" transform="translate(180.15,225.52)" d="M3,0A3,3 0 1,1 0,-3A3,3 0 0,1 3,0Z" style="opacity: 1; stroke-width: 0px; fill: rgb(38, 78, 134); fill-opacity: 1;"/><path class="point" transform="translate(184.84,243.45)" d="M3,0A3,3 0 1,1 0,-3A3,3 0 0,1 3,0Z" style="opacity: 1; stroke-width: 0px; fill: rgb(38, 78, 134); fill-opacity: 1;"/><path class="point" transform="translate(189.52,320.52)" d="M3,0A3,3 0 1,1 0,-3A3,3 0 0,1 3,0Z" style="opacity: 1; stroke-width: 0px; fill: rgb(38, 78, 134); fill-opacity: 1;"/><path class="point" transform="translate(194.21,133.87)" d="M3,0A3,3 0 1,1 0,-3A3,3 0 0,1 3,0Z" style="opacity: 1; stroke-width: 0px; fill: rgb(38, 78, 134); fill-opacity: 1;"/><path class="point" transform="translate(198.9,133.02)" d="M3,0A3,3 0 1,1 0,-3A3,3 0 0,1 3,0Z" style="opacity: 1; stroke-width: 0px; fill: rgb(38, 78, 134); fill-opacity: 1;"/><path class="point" transform="translate(203.58,163.44)" d="M3,0A3,3 0 1,1 0,-3A3,3 0 0,1 3,0Z" style="opacity: 1; stroke-width: 0px; fill: rgb(38, 78, 134); fill-opacity: 1;"/><path class="point" transform="translate(208.27,167.06)" d="M3,0A3,3 0 1,1 0,-3A3,3 0 0,1 3,0Z" style="opacity: 1; stroke-width: 0px; fill: rgb(38, 78, 134); fill-opacity: 1;"/><path class="point" transform="translate(212.95,168.32)" d="M3,0A3,3 0 1,1 0,-3A3,3 0 0,1 3,0Z" style="opacity: 1; stroke-width: 0px; fill: rgb(38, 78, 134); fill-opacity: 1;"/><path class="point" transform="translate(217.64,192.98)" d="M3,0A3,3 0 1,1 0,-3A3,3 0 0,1 3,0Z" style="opacity: 1; stroke-width: 0px; fill: rgb(38, 78, 134); fill-opacity: 1;"/><path class="point" transform="translate(222.33,298.71)" d="M3,0A3,3 0 1,1 0,-3A3,3 0 0,1 3,0Z" style="opacity: 1; stroke-width: 0px; fill: rgb(38, 78, 134); fill-opacity: 1;"/><path class="point" transform="translate(227.01,88.45)" d="M3,0A3,3 0 1,1 0,-3A3,3 0 0,1 3,0Z" style="opacity: 1; stroke-width: 0px; fill: rgb(38, 78, 134); fill-opacity: 1;"/><path class="point" transform="translate(231.7,115.4)" d="M3,0A3,3 0 1,1 0,-3A3,3 0 0,1 3,0Z" style="opacity: 1; stroke-width: 0px; fill: rgb(38, 78, 134); fill-opacity: 1;"/><path class="point" transform="translate(236.38,163.13)" d="M3,0A3,3 0 1,1 0,-3A3,3 0 0,1 3,0Z" style="opacity: 1; stroke-width: 0px; fill: rgb(38, 78, 134); fill-opacity: 1;"/><path class="point" transform="translate(241.07,188.9)" d="M3,0A3,3 0 1,1 0,-3A3,3 0 0,1 3,0Z" style="opacity: 1; stroke-width: 0px; fill: rgb(38, 78, 134); fill-opacity: 1;"/><path class="point" transform="translate(245.76,184.54)" d="M3,0A3,3 0 1,1 0,-3A3,3 0 0,1 3,0Z" style="opacity: 1; stroke-width: 0px; fill: rgb(38, 78, 134); fill-opacity: 1;"/><path class="point" transform="translate(250.44,203.48)" d="M3,0A3,3 0 1,1 0,-3A3,3 0 0,1 3,0Z" style="opacity: 1; stroke-width: 0px; fill: rgb(38, 78, 134); fill-opacity: 1;"/><path class="point" transform="translate(255.13,301.6)" d="M3,0A3,3 0 1,1 0,-3A3,3 0 0,1 3,0Z" style="opacity: 1; stroke-width: 0px; fill: rgb(38, 78, 134); fill-opacity: 1;"/><path class="point" transform="translate(259.81,88.49)" d="M3,0A3,3 0 1,1 0,-3A3,3 0 0,1 3,0Z" style="opacity: 1; stroke-width: 0px; fill: rgb(38, 78, 134); fill-opacity: 1;"/><path class="point" transform="translate(264.5,99.4)" d="M3,0A3,3 0 1,1 0,-3A3,3 0 0,1 3,0Z" style="opacity: 1; stroke-width: 0px; fill: rgb(38, 78, 134); fill-opacity: 1;"/><path class="point" transform="translate(269.19,147.5)" d="M3,0A3,3 0 1,1 0,-3A3,3 0 0,1 3,0Z" style="opacity: 1; stroke-width: 0px; fill: rgb(38, 78, 134); fill-opacity: 1;"/><path class="point" transform="translate(273.87,170.58)" d="M3,0A3,3 0 1,1 0,-3A3,3 0 0,1 3,0Z" style="opacity: 1; stroke-width: 0px; fill: rgb(38, 78, 134); fill-opacity: 1;"/><path class="point" transform="translate(278.56,175.07)" d="M3,0A3,3 0 1,1 0,-3A3,3 0 0,1 3,0Z" style="opacity: 1; stroke-width: 0px; fill: rgb(38, 78, 134); fill-opacity: 1;"/><path class="point" transform="translate(283.24,199.13)" d="M3,0A3,3 0 1,1 0,-3A3,3 0 0,1 3,0Z" style="opacity: 1; stroke-width: 0px; fill: rgb(38, 78, 134); fill-opacity: 1;"/><path class="point" transform="translate(287.93,304.87)" d="M3,0A3,3 0 1,1 0,-3A3,3 0 0,1 3,0Z" style="opacity: 1; stroke-width: 0px; fill: rgb(38, 78, 134); fill-opacity: 1;"/><path class="point" transform="translate(292.62,94.47)" d="M3,0A3,3 0 1,1 0,-3A3,3 0 0,1 3,0Z" style="opacity: 1; stroke-width: 0px; fill: rgb(38, 78, 134); fill-opacity: 1;"/><path class="point" transform="translate(297.3,111.86)" d="M3,0A3,3 0 1,1 0,-3A3,3 0 0,1 3,0Z" style="opacity: 1; stroke-width: 0px; fill: rgb(38, 78, 134); fill-opacity: 1;"/><path class="point" transform="translate(301.99,156.1)" d="M3,0A3,3 0 1,1 0,-3A3,3 0 0,1 3,0Z" style="opacity: 1; stroke-width: 0px; fill: rgb(38, 78, 134); fill-opacity: 1;"/><path class="point" transform="translate(306.67,173.62)" d="M3,0A3,3 0 1,1 0,-3A3,3 0 0,1 3,0Z" style="opacity: 1; stroke-width: 0px; fill: rgb(38, 78, 134); fill-opacity: 1;"/><path class="point" transform="translate(311.36,174.74)" d="M3,0A3,3 0 1,1 0,-3A3,3 0 0,1 3,0Z" style="opacity: 1; stroke-width: 0px; fill: rgb(38, 78, 134); fill-opacity: 1;"/><path class="point" transform="translate(316.05,201.12)" d="M3,0A3,3 0 1,1 0,-3A3,3 0 0,1 3,0Z" style="opacity: 1; stroke-width: 0px; fill: rgb(38, 78, 134); fill-opacity: 1;"/><path class="point" transform="translate(320.73,301.3)" d="M3,0A3,3 0 1,1 0,-3A3,3 0 0,1 3,0Z" style="opacity: 1; stroke-width: 0px; fill: rgb(38, 78, 134); fill-opacity: 1;"/><path class="point" transform="translate(325.42,68.24)" d="M3,0A3,3 0 1,1 0,-3A3,3 0 0,1 3,0Z" style="opacity: 1; stroke-width: 0px; fill: rgb(38, 78, 134); fill-opacity: 1;"/><path class="point" transform="translate(330.1,80.61)" d="M3,0A3,3 0 1,1 0,-3A3,3 0 0,1 3,0Z" style="opacity: 1; stroke-width: 0px; fill: rgb(38, 78, 134); fill-opacity: 1;"/><path class="point" transform="translate(334.79,121.11)" d="M3,0A3,3 0 1,1 0,-3A3,3 0 0,1 3,0Z" style="opacity: 1; stroke-width: 0px; fill: rgb(38, 78, 134); fill-opacity: 1;"/><path class="point" transform="translate(339.48,131.89)" d="M3,0A3,3 0 1,1 0,-3A3,3 0 0,1 3,0Z" style="opacity: 1; stroke-width: 0px; fill: rgb(38, 78, 134); fill-opacity: 1;"/><path class="point" transform="translate(344.16,132.43)" d="M3,0A3,3 0 1,1 0,-3A3,3 0 0,1 3,0Z" style="opacity: 1; stroke-width: 0px; fill: rgb(38, 78, 134); fill-opacity: 1;"/><path class="point" transform="translate(348.85,167.92)" d="M3,0A3,3 0 1,1 0,-3A3,3 0 0,1 3,0Z" style="opacity: 1; stroke-width: 0px; fill: rgb(38, 78, 134); fill-opacity: 1;"/><path class="point" transform="translate(353.53,290.57)" d="M3,0A3,3 0 1,1 0,-3A3,3 0 0,1 3,0Z" style="opacity: 1; stroke-width: 0px; fill: rgb(38, 78, 134); fill-opacity: 1;"/><path class="point" transform="translate(358.22,28.65)" d="M3,0A3,3 0 1,1 0,-3A3,3 0 0,1 3,0Z" style="opacity: 1; stroke-width: 0px; fill: rgb(38, 78, 134); fill-opacity: 1;"/><path class="point" transform="translate(362.91,38.42)" d="M3,0A3,3 0 1,1 0,-3A3,3 0 0,1 3,0Z" style="opacity: 1; stroke-width: 0px; fill: rgb(38, 78, 134); fill-opacity: 1;"/><path class="point" transform="translate(367.59,100.13)" d="M3,0A3,3 0 1,1 0,-3A3,3 0 0,1 3,0Z" style="opacity: 1; stroke-width: 0px; fill: rgb(38, 78, 134); fill-opacity: 1;"/><path class="point" transform="translate(372.28,113.83)" d="M3,0A3,3 0 1,1 0,-3A3,3 0 0,1 3,0Z" style="opacity: 1; stroke-width: 0px; fill: rgb(38, 78, 134); fill-opacity: 1;"/><path class="point" transform="translate(376.96,114.69)" d="M3,0A3,3 0 1,1 0,-3A3,3 0 0,1 3,0Z" style="opacity: 1; stroke-width: 0px; fill: rgb(38, 78, 134); fill-opacity: 1;"/><path class="point" transform="translate(381.65,148.47)" d="M3,0A3,3 0 1,1 0,-3A3,3 0 0,1 3,0Z" style="opacity: 1; stroke-width: 0px; fill: rgb(38, 78, 134); fill-opacity: 1;"/><path class="point" transform="translate(386.34,286.48)" d="M3,0A3,3 0 1,1 0,-3A3,3 0 0,1 3,0Z" style="opacity: 1; stroke-width: 0px; fill: rgb(38, 78, 134); fill-opacity: 1;"/><path class="point" transform="translate(391.02,25.62)" d="M3,0A3,3 0 1,1 0,-3A3,3 0 0,1 3,0Z" style="opacity: 1; stroke-width: 0px; fill: rgb(38, 78, 134); fill-opacity: 1;"/><path class="point" transform="translate(395.71,23)" d="M3,0A3,3 0 1,1 0,-3A3,3 0 0,1 3,0Z" style="opacity: 1; stroke-width: 0px; fill: rgb(38, 78, 134); fill-opacity: 1;"/><path class="point" transform="translate(400.39,76.2)" d="M3,0A3,3 0 1,1 0,-3A3,3 0 0,1 3,0Z" style="opacity: 1; stroke-width: 0px; fill: rgb(38, 78, 134); fill-opacity: 1;"/><path class="point" transform="translate(405.08,108.63)" d="M3,0A3,3 0 1,1 0,-3A3,3 0 0,1 3,0Z" style="opacity: 1; stroke-width: 0px; fill: rgb(38, 78, 134); fill-opacity: 1;"/><path class="point" transform="translate(409.77,117.7)" d="M3,0A3,3 0 1,1 0,-3A3,3 0 0,1 3,0Z" style="opacity: 1; stroke-width: 0px; fill: rgb(38, 78, 134); fill-opacity: 1;"/><path class="point" transform="translate(414.45,150.24)" d="M3,0A3,3 0 1,1 0,-3A3,3 0 0,1 3,0Z" style="opacity: 1; stroke-width: 0px; fill: rgb(38, 78, 134); fill-opacity: 1;"/><path class="point" transform="translate(419.14,291.09)" d="M3,0A3,3 0 1,1 0,-3A3,3 0 0,1 3,0Z" style="opacity: 1; stroke-width: 0px; fill: rgb(38, 78, 134); fill-opacity: 1;"/><path class="point" transform="translate(423.82,25.47)" d="M3,0A3,3 0 1,1 0,-3A3,3 0 0,1 3,0Z" style="opacity: 1; stroke-width: 0px; fill: rgb(38, 78, 134); fill-opacity: 1;"/><path class="point" transform="translate(428.51,25.8)" d="M3,0A3,3 0 1,1 0,-3A3,3 0 0,1 3,0Z" style="opacity: 1; stroke-width: 0px; fill: rgb(38, 78, 134); fill-opacity: 1;"/><path class="point" transform="translate(433.2,94.68)" d="M3,0A3,3 0 1,1 0,-3A3,3 0 0,1 3,0Z" style="opacity: 1; stroke-width: 0px; fill: rgb(38, 78, 134); fill-opacity: 1;"/><path class="point" transform="translate(437.88,121.31)" d="M3,0A3,3 0 1,1 0,-3A3,3 0 0,1 3,0Z" style="opacity: 1; stroke-width: 0px; fill: rgb(38, 78, 134); fill-opacity: 1;"/><path class="point" transform="translate(442.57,131.07)" d="M3,0A3,3 0 1,1 0,-3A3,3 0 0,1 3,0Z" style="opacity: 1; stroke-width: 0px; fill: rgb(38, 78, 134); fill-opacity: 1;"/><path class="point" transform="translate(447.25,154.18)" d="M3,0A3,3 0 1,1 0,-3A3,3 0 0,1 3,0Z" style="opacity: 1; stroke-width: 0px; fill: rgb(38, 78, 134); fill-opacity: 1;"/><path class="point" transform="translate(451.94,303.12)" d="M3,0A3,3 0 1,1 0,-3A3,3 0 0,1 3,0Z" style="opacity: 1; stroke-width: 0px; fill: rgb(38, 78, 134); fill-opacity: 1;"/><path class="point" transform="translate(456.63,53.46)" d="M3,0A3,3 0 1,1 0,-3A3,3 0 0,1 3,0Z" style="opacity: 1; stroke-width: 0px; fill: rgb(38, 78, 134); fill-opacity: 1;"/><path class="point" transform="translate(461.31,64.08)" d="M3,0A3,3 0 1,1 0,-3A3,3 0 0,1 3,0Z" style="opacity: 1; stroke-width: 0px; fill: rgb(38, 78, 134); fill-opacity: 1;"/><path class="point" transform="translate(466,126.02)" d="M3,0A3,3 0 1,1 0,-3A3,3 0 0,1 3,0Z" style="opacity: 1; stroke-width: 0px; fill: rgb(38, 78, 134); fill-opacity: 1;"/><path class="point" transform="translate(470.68,156.64)" d="M3,0A3,3 0 1,1 0,-3A3,3 0 0,1 3,0Z" style="opacity: 1; stroke-width: 0px; fill: rgb(38, 78, 134); fill-opacity: 1;"/><path class="point" transform="translate(475.37,170.96)" d="M3,0A3,3 0 1,1 0,-3A3,3 0 0,1 3,0Z" style="opacity: 1; stroke-width: 0px; fill: rgb(38, 78, 134); fill-opacity: 1;"/><path class="point" transform="translate(480.06,200.25)" d="M3,0A3,3 0 1,1 0,-3A3,3 0 0,1 3,0Z" style="opacity: 1; stroke-width: 0px; fill: rgb(38, 78, 134); fill-opacity: 1;"/><path class="point" transform="translate(484.74,318.66)" d="M3,0A3,3 0 1,1 0,-3A3,3 0 0,1 3,0Z" style="opacity: 1; stroke-width: 0px; fill: rgb(38, 78, 134); fill-opacity: 1;"/><path class="point" transform="translate(489.43,143.42)" d="M3,0A3,3 0 1,1 0,-3A3,3 0 0,1 3,0Z" style="opacity: 1; stroke-width: 0px; fill: rgb(38, 78, 134); fill-opacity: 1;"/><path class="point" transform="translate(494.11,167.81)" d="M3,0A3,3 0 1,1 0,-3A3,3 0 0,1 3,0Z" style="opacity: 1; stroke-width: 0px; fill: rgb(38, 78, 134); fill-opacity: 1;"/><path class="point" transform="translate(498.8,212.29)" d="M3,0A3,3 0 1,1 0,-3A3,3 0 0,1 3,0Z" style="opacity: 1; stroke-width: 0px; fill: rgb(38, 78, 134); fill-opacity: 1;"/></g><g class="text"/></g></g></g><g class="overplot"/><path class="xlines-above crisp" d="M0,0" style="fill: none;"/><path class="ylines-above crisp" d="M0,0" style="fill: none;"/><g class="overlines-above"/><g class="xaxislayer-above"><g class="xtick"><text text-anchor="middle" x="0" y="423" transform="translate(118.32,0)" style="font-family: 'Open Sans', verdana, arial, sans-serif; font-size: 12px; fill: rgb(68, 68, 68); fill-opacity: 1; white-space: pre; opacity: 1;"><tspan class="line" dy="0em" x="0" y="423">Oct 9</tspan><tspan class="line" dy="1.3em" x="0" y="423">2022</tspan></text></g><g class="xtick"><text text-anchor="middle" x="0" y="423" style="font-family: 'Open Sans', verdana, arial, sans-serif; font-size: 12px; fill: rgb(68, 68, 68); fill-opacity: 1; white-space: pre; opacity: 1;" transform="translate(183.92000000000002,0)">Oct 23</text></g><g class="xtick"><text text-anchor="middle" x="0" y="423" style="font-family: 'Open Sans', verdana, arial, sans-serif; font-size: 12px; fill: rgb(68, 68, 68); fill-opacity: 1; white-space: pre; opacity: 1;" transform="translate(249.52,0)">Nov 6</text></g><g class="xtick"><text text-anchor="middle" x="0" y="423" style="font-family: 'Open Sans', verdana, arial, sans-serif; font-size: 12px; fill: rgb(68, 68, 68); fill-opacity: 1; white-space: pre; opacity: 1;" transform="translate(315.13,0)">Nov 20</text></g><g class="xtick"><text text-anchor="middle" x="0" y="423" style="font-family: 'Open Sans', verdana, arial, sans-serif; font-size: 12px; fill: rgb(68, 68, 68); fill-opacity: 1; white-space: pre; opacity: 1;" transform="translate(380.73,0)">Dec 4</text></g><g class="xtick"><text text-anchor="middle" x="0" y="423" style="font-family: 'Open Sans', verdana, arial, sans-serif; font-size: 12px; fill: rgb(68, 68, 68); fill-opacity: 1; white-space: pre; opacity: 1;" transform="translate(446.34,0)">Dec 18</text></g><g class="xtick"><text text-anchor="middle" x="0" y="423" style="font-family: 'Open Sans', verdana, arial, sans-serif; font-size: 12px; fill: rgb(68, 68, 68); fill-opacity: 1; white-space: pre; opacity: 1;" transform="translate(511.94,0)"><tspan class="line" dy="0em" x="0" y="423">Jan 1</tspan><tspan class="line" dy="1.3em" x="0" y="423">2023</tspan></text></g><g class="xtick"><text text-anchor="middle" x="0" y="423" style="font-family: 'Open Sans', verdana, arial, sans-serif; font-size: 12px; fill: rgb(68, 68, 68); fill-opacity: 1; white-space: pre; opacity: 1;" transform="translate(577.54,0)">Jan 15</text></g></g><g class="yaxislayer-above"><g class="ytick"><text text-anchor="end" x="59" y="4.199999999999999" transform="translate(0,382.64)" style="font-family: 'Open Sans', verdana, arial, sans-serif; font-size: 12px; fill: rgb(68, 68, 68); fill-opacity: 1; white-space: pre; opacity: 1;">10k</text></g><g class="ytick"><text text-anchor="end" x="59" y="4.199999999999999" style="font-family: 'Open Sans', verdana, arial, sans-serif; font-size: 12px; fill: rgb(68, 68, 68); fill-opacity: 1; white-space: pre; opacity: 1;" transform="translate(0,339.83)">20k</text></g><g class="ytick"><text text-anchor="end" x="59" y="4.199999999999999" style="font-family: 'Open Sans', verdana, arial, sans-serif; font-size: 12px; fill: rgb(68, 68, 68); fill-opacity: 1; white-space: pre; opacity: 1;" transform="translate(0,297.02)">30k</text></g><g class="ytick"><text text-anchor="end" x="59" y="4.199999999999999" style="font-family: 'Open Sans', verdana, arial, sans-serif; font-size: 12px; fill: rgb(68, 68, 68); fill-opacity: 1; white-space: pre; opacity: 1;" transform="translate(0,254.21)">40k</text></g><g class="ytick"><text text-anchor="end" x="59" y="4.199999999999999" style="font-family: 'Open Sans', verdana, arial, sans-serif; font-size: 12px; fill: rgb(68, 68, 68); fill-opacity: 1; white-space: pre; opacity: 1;" transform="translate(0,211.41)">50k</text></g><g class="ytick"><text text-anchor="end" x="59" y="4.199999999999999" style="font-family: 'Open Sans', verdana, arial, sans-serif; font-size: 12px; fill: rgb(68, 68, 68); fill-opacity: 1; white-space: pre; opacity: 1;" transform="translate(0,168.6)">60k</text></g><g class="ytick"><text text-anchor="end" x="59" y="4.199999999999999" style="font-family: 'Open Sans', verdana, arial, sans-serif; font-size: 12px; fill: rgb(68, 68, 68); fill-opacity: 1; white-space: pre; opacity: 1;" transform="translate(0,125.79)">70k</text></g><g class="ytick"><text text-anchor="end" x="59" y="4.199999999999999" style="font-family: 'Open Sans', verdana, arial, sans-serif; font-size: 12px; fill: rgb(68, 68, 68); fill-opacity: 1; white-space: pre; opacity: 1;" transform="translate(0,82.97999999999999)">80k</text></g><g class="ytick"><text text-anchor="end" x="59" y="4.199999999999999" style="font-family: 'Open Sans', verdana, arial, sans-serif; font-size: 12px; fill: rgb(68, 68, 68); fill-opacity: 1; white-space: pre; opacity: 1;" transform="translate(0,40.17)">90k</text></g></g><g class="overaxes-above"/></g></g><g class="polarlayer"/><g class="ternarylayer"/><g class="geolayer"/><g class="funnelarealayer"/><g class="pielayer"/><g class="iciclelayer"/><g class="treemaplayer"/><g class="sunburstlayer"/><g class="glimages"/><defs id="topdefs-853227"><g class="clips"/></defs><g class="layer-above"><g class="imagelayer"/><g class="shapelayer"/></g><g class="infolayer"><g class="g-gtitle"/><g class="g-xtitle"><text class="xtitle" x="324.5" y="462" text-anchor="middle" style="font-family: 'Open Sans', verdana, arial, sans-serif; font-size: 14px; fill: rgb(68, 68, 68); opacity: 1; font-weight: normal; white-space: pre;">date</text></g><g class="g-ytitle"><text class="ytitle" transform="rotate(-90,22,217.5)" x="22" y="217.5" text-anchor="middle" style="font-family: 'Open Sans', verdana, arial, sans-serif; font-size: 14px; fill: rgb(68, 68, 68); opacity: 1; font-weight: normal; white-space: pre;">new_cases</text></g></g></svg>