<svg class="main-svg" xmlns="http://www.w3.org/2000/svg" xmlns:xlink="http://www.w3.org/1999/xlink" width="607.273" height="465.455" style="" viewBox="0 0 607.273 465.455"><rect x="0" y="0" width="607.273" height="465.455" style="fill: rgb(255, 255, 255); fill-opacity: 1;"/><defs id="defs-a6bbc2"><g class="clips"><clipPath id="clipa6bbc2xyplot" class="plotclip"><rect width="525" height="358"/></clipPath><clipPath class="axesclip" id="clipa6bbc2x"><rect x="57" y="0" width="525" height="465.455"/></clipPath><clipPath class="axesclip" id="clipa6bbc2y"><rect x="0" y="50" width="607.273" height="358"/></clipPath><clipPath class="axesclip" id="clipa6bbc2xy"><rect x="57" y="50" width="525" height="358"/></clipPath></g><g class="gradients"/><g class="patterns"/></defs><g class="bglayer"/><g class="layer-below"><g class="imagelayer"/><g class="shapelayer"/></g><g class="cartesianlayer"><g class="subplot xy"><g class="layer-subplot"><g class="shapelayer"/><g class="imagelayer"/></g><g class="gridlayer"><g class="x"><path class="xgrid crisp" transform="translate(88.5,0)" d="M0,50v358" style="stroke: rgb(238, 238, 238); stroke-opacity: 1; stroke-width: 1px;"/><path class="xgrid crisp" transform="translate(162,0)" d="M0,50v358" style="stroke: rgb(238, 238, 238); stroke-opacity: 1; stroke-width: 1px;"/><path class="xgrid crisp" transform="translate(235.5,0)" d="M0,50v358" style="stroke: rgb(238, 238, 238); stroke-opacity: 1; stroke-width: 1px;"/><path class="xgrid crisp" transform="translate(309,0)" d="M0,50v358" style="stroke: rgb(238, 238, 238); stroke-opacity: 1; stroke-width: 1px;"/><path class="xgrid crisp" transform="translate(382.5,0)" d="M0,50v358" style="stroke: rgb(238, 238, 238); stroke-opacity: 1; stroke-width: 1px;"/><path class="xgrid crisp" transform="translate(456,0)" d="M0,50v358" style="stroke: rgb(238, 238, 238); stroke-opacity: 1; stroke-width: 1px;"/><path class="xgrid crisp" transform="translate(529.5,0)" d="M0,50v358" style="stroke: rgb(238, 238, 238); stroke-opacity: 1; stroke-width: 1px;"/></g><g class="y"><path class="ygrid crisp" transform="translate(0,325.68)" d="M57,0h525" style="stroke: rgb(238, 238, 238); stroke-opacity: 1; stroke-width: 1px;"/><path class="ygrid crisp" transform="translate(0,259.15)" d="M57,0h525" style="stroke: rgb(238, 238, 238); stroke-opacity: 1; stroke-width: 1px;"/><path class="ygrid crisp" transform="translate(0,192.63)" d="M57,0h525" style="stroke: rgb(238, 238, 238); stroke-opacity: 1; stroke-width: 1px;"/><path class="ygrid crisp" transform="translate(0,126.1)" d="M57,0h525" style="stroke: rgb(238, 238, 238); stroke-opacity: 1; stroke-width: 1px;"/><path class="ygrid crisp" transform="translate(0,59.58)" d="M57,0h525" style="stroke: rgb(238, 238, 238); stroke-opacity: 1; stroke-width: 1px;"/></g></g><g class="zerolinelayer"><path class="yzl zl crisp" transform="translate(0,392.2)" d="M57,0h525" style="stroke: rgb(68, 68, 68); stroke-opacity: 1; stroke-width: 1px;"/></g><path class="xlines-below"/><path class="ylines-below"/><g class="overlines-below"/><g class="xaxislayer-below"/><g class="yaxislayer-below"/><g class="overaxes-below"/><g class="plot" transform="translate(57,50)" clip-path="url(#clipa6bbc2xyplot)"><g class="scatterlayer mlayer"><g class="trace scatter trace3dfa5d" style="stroke-miterlimit: 2; opacity: 1;"><g class="fills"/><g class="errorbars"/><g class="lines"><path class="js-line" d="M0,331.27L5.25,319.11L10.5,323.17L15.75,327.39L21,329.31L26.25,330.46L31.5,336.23L36.75,331.9L42,321.91L52.5,326.53L57.75,327.06L63,327.92L68.25,334.86L73.5,320.12L78.75,322.59L84,325.32L89.25,325.76L94.5,324.36L99.75,324.73L105,332.69L110.25,313.12L115.5,315.05L120.75,318.95L131.25,317.39L136.5,319.24L141.75,329.89L147,303.38L152.25,305.78L157.5,311.02L173.25,317.8L178.5,329.78L183.75,300.77L189,300.64L194.25,305.37L199.5,305.93L204.75,306.13L210,309.96L215.25,326.39L220.5,293.71L225.75,297.9L231,305.32L236.25,309.32L241.5,308.65L246.75,311.59L252,326.84L257.25,293.72L262.5,295.42L267.75,302.89L273,306.48L278.25,307.18L283.5,310.91L288.75,327.35L294,294.65L299.25,297.35L304.5,304.23L309.75,306.95L315,307.12L320.25,311.22L325.5,326.79L330.75,290.57L336,292.5L341.25,298.79L346.5,300.47L351.75,300.55L357,306.06L362.25,325.13L367.5,284.42L372.75,285.94L378,295.53L383.25,297.66L388.5,297.79L393.75,303.04L399,324.49L404.25,283.95L409.5,283.54L414.75,291.81L420,296.85L425.25,298.26L430.5,303.32L435.75,325.21L441,283.93L446.25,283.98L451.5,294.68L456.75,298.82L462,300.34L467.25,303.93L472.5,327.08L477.75,288.28L483,289.93L488.25,299.55L493.5,304.31L498.75,306.54L504,311.09L509.25,329.49L514.5,302.26L519.75,306.05L525,312.96" style="vector-effect: non-scaling-stroke; fill: none; stroke: rgb(8, 69, 148); stroke-opacity: 1; stroke-width: 2px; opacity: 1;"/></g><g class="points"/><g class="text"/></g><g class="trace scatter trace77919a" style="stroke-miterlimit: 2; opacity: 1;"><g class="fills"/><g class="errorbars"/><g class="lines"><path class="js-line" d="M0,285.68L5.25,242.72L10.5,242.65L15.75,257.64L21,259.47L26.25,266.49L31.5,260.65L36.75,268.73L42,263.78L47.25,239.01L52.5,240.23L57.75,251.75L63,257.09L68.25,271.69L73.5,275.53L78.75,243.05L84,247.45L89.25,257.13L94.5,261.11L99.75,261.98L105,273.01L110.25,270.42L115.5,242.05L120.75,240.32L126,247.81L131.25,250.49L136.5,252.15L141.75,265.65L147,258.32L152.25,222.59L157.5,222.95L162.75,228.96L168,254.37L173.25,231.4L178.5,254.89L183.75,252.39L189,208.12L194.25,203.6L199.5,220.31L204.75,221.13L210,214.19L215.25,252.37L220.5,233.14L225.75,188.01L231,174.75L236.25,216.14L241.5,205.65L246.75,195.88L252,231.42L257.25,225.16L262.5,184.61L267.75,132.97L273,236.09L278.25,181.58L283.5,180.45L288.75,211.33L294,215.16L299.25,135.18L304.5,178.02L309.75,177.1L315,168.23L320.25,212.45L325.5,222.95L330.75,218.14L336,159.92L341.25,152.83L346.5,169.63L351.75,179.06L357,183.27L362.25,211.78L367.5,215.14L372.75,126.22L378,140.8L383.25,157.36L388.5,169.54L393.75,178.88L399,206.32L404.25,203.96L409.5,128.37L414.75,125.94L420,138.72L425.25,150.29L430.5,152.65L435.75,192.78L441,205.18L446.25,113.19L451.5,111.71L456.75,128.3L462,158.3L467.25,188.14L472.5,149.36L477.75,205.96L483,194.9L488.25,188.04L493.5,108.69L498.75,102.24L504,115.92L509.25,170.64L514.5,207.27L519.75,208.63L525,153.22" style="vector-effect: non-scaling-stroke; fill: none; stroke: rgb(33, 113, 181); stroke-opacity: 1; stroke-width: 2px; opacity: 1;"/></g><g class="points"/><g class="text"/></g><g class="trace scatter traceac63e0" style="stroke-miterlimit: 2; opacity: 1;"><g class="fills"/><g class="errorbars"/><g class="lines"><path class="js-line" d="M0,230.32L5.25,86.42L10.5,122.2L15.75,79.53L21,92.33L26.25,281.76L31.5,295.95L36.75,144.64L42,17.9L47.25,129.67L52.5,81.66L57.75,148.35L63,293.26L68.25,305.39L73.5,124.05L78.75,60.37L84,150.56L89.25,101.12L94.5,181.72L99.75,310.64L105,317.9L115.5,97.06L120.75,195.79L126,187.95L131.25,228.77L136.5,312.75L141.75,331.63L147,272.04L152.25,241.32L157.5,286.9L162.75,203.65L168,182.25L173.25,331.86L178.5,332.47L183.75,271.05L189,206.52L194.25,269.54L199.5,259.79L204.75,178.23L210,324.33L215.25,335.77L220.5,263.02L225.75,213.89L231,273.93L236.25,258.99L241.5,129.33L246.75,334.08L252,335.83L257.25,271.77L262.5,206.76L267.75,267.51L273,247.11L278.25,104.59L283.5,332.48L288.75,335.04L299.25,178.04L304.5,248.79L309.75,230.07L315,95.71L320.25,331.81L325.5,336.71L330.75,237.43L336,183.26L341.25,242.74L346.5,211.57L351.75,98.34L357,331.31L362.25,332.94L367.5,224.23L372.75,173.72L378,238.43L383.25,215.27L388.5,131.24L393.75,330.4L399,333.17L404.25,242.01L409.5,195.05L414.75,250.01L420,213.15L425.25,160.77L430.5,330.56L435.75,333.56L441,306.62L446.25,267.33L451.5,268.88L456.75,250.66L462,205.48L467.25,332.77L472.5,335.97L477.75,281.74L483,285.26L488.25,299.79L493.5,229.1L498.75,222.07L504,337.16L509.25,337.82L514.5,302.27L519.75,308.97L525,312.82" style="vector-effect: non-scaling-stroke; fill: none; stroke: rgb(66, 146, 198); stroke-opacity: 1; stroke-width: 2px; opacity: 1;"/></g><g class="points"/><g class="text"/></g><g class="trace scatter tracebb857d" style="stroke-miterlimit: 2; opacity: 1;"><g class="fills"/><g class="errorbars"/><g class="lines"><path class="js-line" d="M0,311.96L5.25,301.57L10.5,288.95L15.75,294.91L21,297.51L26.25,336.09L31.5,336.76L36.75,325.84L42,295.19L47.25,295.09L52.5,292.24L57.75,319.99L63,335.64L68.25,336.24L73.5,315.3L78.75,307.76L84,298.79L89.25,296.17L94.5,309.24L99.75,337.59L105,335.34L110.25,314.91L115.5,306.85L120.75,291.84L126,296.29L131.25,318.55L136.5,335.24L141.75,337.88L147,311.28L152.25,305.08L157.5,289.82L162.75,288.91L168,312.51L173.25,338.33L178.5,336.77L183.75,311.78L189,318.64L194.25,274.27L199.5,291.81L204.75,330.65L210,337.94L215.25,339.99L220.5,305.52L225.75,298.41L231,283.7L236.25,301.92L241.5,302.26L246.75,338.07L252,339.08L257.25,308.88L262.5,298.41L267.75,263.94L273,329.55L278.25,325.23L283.5,339.48L288.75,337.6L294,298.98L299.25,289.79L304.5,264.59L309.75,267.58L315,296.73L320.25,336.33L325.5,338.37L330.75,285.05L336,275.54L341.25,239.23L346.5,268.6L351.75,315.03L357,335.6L362.25,336.91L367.5,293.81L378,239.1L383.25,260.41L388.5,302.2L393.75,326.29L399,337.49L404.25,295.66L409.5,278.35L414.75,216.92L420,271.05L425.25,308.27L430.5,321.07L435.75,340.1L441,332.24L446.25,261.77L451.5,261.53L456.75,269.61L462,314.14L467.25,336.15L472.5,339.03L477.75,336.63L483,262.56L488.25,204.59L498.75,283.16L504,337L509.25,333.14L514.5,311.79L519.75,298.56L525,245.33" style="vector-effect: non-scaling-stroke; fill: none; stroke: rgb(107, 174, 214); stroke-opacity: 1; stroke-width: 2px; opacity: 1;"/></g><g class="points"/><g class="text"/></g></g></g><g class="overplot"/><path class="xlines-above crisp" d="M0,0" style="fill: none;"/><path class="ylines-above crisp" d="M0,0" style="fill: none;"/><g class="overlines-above"/><g class="xaxislayer-above"><g class="xtick"><text text-anchor="middle" x="0" y="421" transform="translate(88.5,0)" style="font-family: 'Open Sans', verdana, arial, sans-serif; font-size: 12px; fill: rgb(68, 68, 68); fill-opacity: 1; white-space: pre; opacity: 1;"><tspan class="line" dy="0em" x="0" y="421">Oct 9</tspan><tspan class="line" dy="1.3em" x="0" y="421">2022</tspan></text></g><g class="xtick"><text text-anchor="middle" x="0" y="421" style="font-family: 'Open Sans', verdana, arial, sans-serif; font-size: 12px; fill: rgb(68, 68, 68); fill-opacity: 1; white-space: pre; opacity: 1;" transform="translate(162,0)">Oct 23</text></g><g class="xtick"><text text-anchor="middle" x="0" y="421" style="font-family: 'Open Sans', verdana, arial, sans-serif; font-size: 12px; fill: rgb(68, 68, 68); fill-opacity: 1; white-space: pre; opacity: 1;" transform="translate(235.5,0)">Nov 6</text></g><g class="xtick"><text text-anchor="middle" x="0" y="421" style="font-family: 'Open Sans', verdana, arial, sans-serif; font-size: 12px; fill: rgb(68, 68, 68); fill-opacity: 1; white-space: pre; opacity: 1;" transform="translate(309,0)">Nov 20</text></g><g class="xtick"><text text-anchor="middle" x="0" y="421" style="font-family: 'Open Sans', verdana, arial, sans-serif; font-size: 12px; fill: rgb(68, 68, 68); fill-opacity: 1; white-space: pre; opacity: 1;" transform="translate(382.5,0)">Dec 4</text></g><g class="xtick"><text text-anchor="middle" x="0" y="421" style="font-family: 'Open Sans', verdana, arial, sans-serif; font-size: 12px; fill: rgb(68, 68, 68); fill-opacity: 1; white-space: pre; opacity: 1;" transform="translate(456,0)">Dec 18</text></g><g class="xtick"><text text-anchor="middle" x="0" y="421" style="font-family: 'Open Sans', verdana, arial, sans-serif; font-size: 12px; fill: rgb(68, 68, 68); fill-opacity: 1; white-space: pre; opacity: 1;" transform="translate(529.5,0)"><tspan class="line" dy="0em" x="0" y="421">Jan 1</tspan><tspan class="line" dy="1.3em" x="0" y="421">2023</tspan></text></g></g><g class="yaxislayer-above"><g class="ytick"><text text-anchor="end" x="56" y="4.199999999999999" transform="translate(0,392.2)" style="font-family: 'Open Sans', verdana, arial, sans-serif; font-size: 12px; fill: rgb(68, 68, 68); fill-opacity: 1; white-space: pre; opacity: 1;">0</text></g><g class="ytick"><text text-anchor="end" x="56" y="4.199999999999999" style="font-family: 'Open Sans', verdana, arial, sans-serif; font-size: 12px; fill: rgb(68, 68, 68); fill-opacity: 1; white-space: pre; opacity: 1;" transform="translate(0,325.68)">100k</text></g><g class="ytick"><text text-anchor="end" x="56" y="4.199999999999999" style="font-family: 'Open Sans', verdana, arial, sans-serif; font-size: 12px; fill: rgb(68, 68, 68); fill-opacity: 1; white-space: pre; opacity: 1;" transform="translate(0,259.15)">200k</text></g><g class="ytick"><text text-anchor="end" x="56" y="4.199999999999999" style="font-family: 'Open Sans', verdana, arial, sans-serif; font-size: 12px; fill: rgb(68, 68, 68); fill-opacity: 1; white-space: pre; opacity: 1;" transform="translate(0,192.63)">300k</text></g><g class="ytick"><text text-anchor="end" x="56" y="4.199999999999999" style="font-family: 'Open Sans', verdana, arial, sans-serif; font-size: 12px; fill: rgb(68, 68, 68); fill-opacity: 1; white-space: pre; opacity: 1;" transform="translate(0,126.1)">400k</text></g><g class="ytick"><text text-anchor="end" x="56" y="4.199999999999999" style="font-family: 'Open Sans', verdana, arial, sans-serif; font-size: 12px; fill: rgb(68, 68, 68); fill-opacity: 1; white-space: pre; opacity: 1;" transform="translate(0,59.58)">500k</text></g></g><g class="overaxes-above"/></g></g><g class="polarlayer"/><g class="ternarylayer"/><g class="geolayer"/><g class="funnelarealayer"/><g class="pielayer"/><g class="iciclelayer"/><g class="treemaplayer"/><g class="sunburstlayer"/><g class="glimages"/><defs id="topdefs-a6bbc2"><g class="clips"/><clipPath id="legenda6bbc2"><rect width="69" height="67" x="2" y="2"/></clipPath></defs><g class="layer-above"><g class="imagelayer"/><g class="shapelayer"/></g><g class="infolayer"><g class="legend" pointer-events="all" transform="translate(482.75,67.90000000000002)"><rect class="bg" shape-rendering="crispEdges" width="71" height="69" x="1" y="1" style="stroke: rgb(128, 128, 128); stroke-opacity: 1; fill: rgb(255, 255, 255); fill-opacity: 1; stroke-width: 2px;"/><g class="scrollbox" transform="" clip-path="url(#legenda6bbc2)"><g class="groups"><g class="traces" transform="translate(2,16.5)" style="opacity: 1;"><text class="legendtext" text-anchor="start" x="40" y="4.680000000000001" style="font-family: 'Open Sans', verdana, arial, sans-serif; font-size: 12px; fill: rgb(68, 68, 68); fill-opacity: 1; white-space: pre;">한국</text><g class="layers" style="opacity: 1;"><g class="legendfill"/><g class="legendlines"><path class="js-line" d="M5,0h30" style="fill: none; stroke: rgb(8, 69, 148); stroke-opacity: 1; stroke-width: 2px;"/></g><g class="legendsymbols"><g class="legendpoints"/></g></g><rect class="legendtoggle" x="0" y="-9.5" width="63.984375" height="19" style="fill: rgb(0, 0, 0); fill-opacity: 0;"/></g><g class="traces" transform="translate(2,35.5)" style="opacity: 1;"><text class="legendtext" text-anchor="start" x="40" y="4.680000000000001" style="font-family: 'Open Sans', verdana, arial, sans-serif; font-size: 12px; fill: rgb(68, 68, 68); fill-opacity: 1; white-space: pre;">유럽</text><g class="layers" style="opacity: 1;"><g class="legendfill"/><g class="legendlines"><path class="js-line" d="M5,0h30" style="fill: none; stroke: rgb(66, 146, 198); stroke-opacity: 1; stroke-width: 2px;"/></g><g class="legendsymbols"><g class="legendpoints"/></g></g><rect class="legendtoggle" x="0" y="-9.5" width="63.984375" height="19" style="fill: rgb(0, 0, 0); fill-opacity: 0;"/></g><g class="traces" transform="translate(2,54.5)" style="opacity: 1;"><text class="legendtext" text-anchor="start" x="40" y="4.680000000000001" style="font-family: 'Open Sans', verdana, arial, sans-serif; font-size: 12px; fill: rgb(68, 68, 68); fill-opacity: 1; white-space: pre;">북미</text><g class="layers" style="opacity: 1;"><g class="legendfill"/><g class="legendlines"><path class="js-line" d="M5,0h30" style="fill: none; stroke: rgb(107, 174, 214); stroke-opacity: 1; stroke-width: 2px;"/></g><g class="legendsymbols"><g class="legendpoints"/></g></g><rect class="legendtoggle" x="0" y="-9.5" width="63.984375" height="19" style="fill: rgb(0, 0, 0); fill-opacity: 0;"/></g></g></g><rect class="scrollbar" rx="20" ry="3" width="0" height="0" x="0" y="0" style="fill: rgb(128, 139, 164); fill-opacity: 1;"/></g><g class="g-gtitle"><text class="gtitle" x="303.6365" y="25" text-anchor="middle" dy="0.7em" style="font-family: 'Open Sans', verdana, arial, sans-serif; font-size: 17px; fill: rgb(68, 68, 68); opacity: 1; font-weight: normal; white-space: pre;">대륙별 신규 확진자수 추이</text></g><g class="g-xtitle"><text class="xtitle" x="319.5" y="460" text-anchor="middle" style="font-family: 'Open Sans', verdana, arial, sans-serif; font-size: 14px; fill: rgb(68, 68, 68); opacity: 1; font-weight: normal; white-space: pre;">date</text></g><g class="g-ytitle"><text class="ytitle" transform="rotate(-90,19,229)" x="19" y="229" text-anchor="middle" style="font-family: 'Open Sans', verdana, arial, sans-serif; font-size: 14px; fill: rgb(68, 68, 68); opacity: 1; font-weight: normal; white-space: pre;">확진자_한국</text></g></g></svg>